<?xml version="1.0" encoding="UTF-8" standalone="no"?>
<!-- Created with Inkscape (http://www.inkscape.org/) -->

<svg
   xmlns:dc="http://purl.org/dc/elements/1.1/"
   xmlns:cc="http://creativecommons.org/ns#"
   xmlns:rdf="http://www.w3.org/1999/02/22-rdf-syntax-ns#"
   xmlns:svg="http://www.w3.org/2000/svg"
   xmlns="http://www.w3.org/2000/svg"
   xmlns:sodipodi="http://sodipodi.sourceforge.net/DTD/sodipodi-0.dtd"
   xmlns:inkscape="http://www.inkscape.org/namespaces/inkscape"
   width="297mm"
   height="210mm"
   viewBox="0 0 297 210"
   version="1.1"
   id="svg8"
   inkscape:version="0.92.1 r15371"
   sodipodi:docname="from-some-to-canonical.svg">
  <defs
     id="defs2" />
  <sodipodi:namedview
     id="base"
     pagecolor="#ffffff"
     bordercolor="#666666"
     borderopacity="1.0"
     inkscape:pageopacity="0.0"
     inkscape:pageshadow="2"
     inkscape:zoom="1.979899"
     inkscape:cx="436.44232"
     inkscape:cy="269.37475"
     inkscape:document-units="mm"
     inkscape:current-layer="layer1"
     showgrid="false"
     inkscape:window-width="1920"
     inkscape:window-height="1046"
     inkscape:window-x="-11"
     inkscape:window-y="-11"
     inkscape:window-maximized="1" />
  <metadata
     id="metadata5">
    <rdf:RDF>
      <cc:Work
         rdf:about="">
        <dc:format>image/svg+xml</dc:format>
        <dc:type
           rdf:resource="http://purl.org/dc/dcmitype/StillImage" />
        <dc:title></dc:title>
      </cc:Work>
    </rdf:RDF>
  </metadata>
  <g
     inkscape:label="Layer 1"
     inkscape:groupmode="layer"
     id="layer1"
     transform="translate(0,-87)">
    <path
       style="opacity:1;fill:#a70c8b;fill-opacity:1;fill-rule:nonzero;stroke:#000000;stroke-width:0.5;stroke-linecap:round;stroke-linejoin:round;stroke-miterlimit:4;stroke-dasharray:none;stroke-dashoffset:0;stroke-opacity:1;paint-order:markers fill stroke"
       id="path4517"
       d="m 84.404741,214.40291 c 0.08057,0.62379 0.208418,1.23971 0.281334,1.86501 0.0613,0.59041 0.159764,1.17487 0.211252,1.76667 0.0438,0.59127 0.04865,1.18439 0.05194,1.77698 -0.02606,0.61377 0.05649,1.22218 0.113858,1.83167 0.04445,0.60659 0.05512,1.21246 0.12563,1.8168 0.06849,0.54811 0.09923,1.0982 0.18039,1.64463 0.08249,0.52929 0.116327,1.06356 0.135747,1.59827 0.0113,0.52613 0.103664,1.04632 0.149259,1.57029 0.01106,0.50612 0.0996,1.00404 0.16436,1.50481 0.02955,0.49358 0.08771,0.98154 0.159027,1.4706 0.04408,0.49007 0.147551,0.97087 0.213749,1.45799 0.03342,0.48016 0.126635,0.95217 0.193099,1.4282 0.03228,0.43836 0.09247,0.87098 0.160615,1.30497 0.04475,0.44232 0.112564,0.87965 0.185163,1.31812 0.06252,0.41253 0.07958,0.82707 0.157594,1.23709 0.07979,0.37589 0.111456,0.75852 0.129336,1.14156 0.01146,0.38107 0.103108,0.75395 0.149286,1.13202 0.04087,0.37683 0.0464,0.75615 0.05047,1.13478 0.0024,0.37801 0.0013,0.75604 7.94e-4,1.13405 -5.29e-4,0.37798 -5.29e-4,0.75595 -7.94e-4,1.13392 -6.6e-5,0.37798 -6e-5,0.75596 -5.8e-5,1.13393 3e-6,0.37798 5e-6,0.75595 8e-6,1.13393 0.006,0.38373 0.09958,0.74897 0.08314,1.13433 -0.03193,0.37751 -0.05749,0.75525 -0.07126,1.13387 -0.01135,0.37775 -0.01183,0.75571 -0.01243,1.1336 -2.17e-4,0.37797 1.53e-4,0.75594 2.64e-4,1.13391 1.64e-4,0.37798 1.94e-4,0.75595 2.15e-4,1.13393 1.3e-5,0.37798 1e-5,0.75595 8e-6,1.13393 -0.02606,0.35643 0.01543,0.69876 0.08573,1.04648 0.06921,0.34187 0.08573,0.69069 0.09705,1.03833 0.0088,0.37552 0.0077,0.75118 0.0074,1.12677 0.05081,0.37847 0.118136,0.75357 0.153683,1.1341 0.03009,0.37752 0.03262,0.75645 0.03486,1.13493 -0.02704,0.38308 0.05781,0.75632 0.11362,1.1326 0.05306,0.37606 0.06467,0.75596 0.07211,1.13512 -0.02146,0.35635 0.01937,0.69891 0.08922,1.04667 0.06867,0.34193 0.08495,0.69071 0.09614,1.03832 0.0087,0.37552 0.0076,0.75118 0.0073,1.12678 -0.02646,0.35673 0.01458,0.69941 0.08469,1.04752 0.06903,0.34196 0.08556,0.69081 0.09687,1.03851 -0.0191,0.38071 0.06565,0.75139 0.121251,1.12538 0.04482,0.37965 0.05597,0.75834 0.125402,1.13465 0.0775,0.37407 0.108548,0.75453 0.126323,1.13538 0.01349,0.37795 0.01262,0.75622 0.01265,1.13436 -0.0085,0.38087 -0.0093,0.75618 0.05261,1.1324 0.07252,0.37461 0.104537,0.75446 0.122703,1.135 0.014,0.37795 0.01339,0.75623 0.01357,1.13438 -0.0084,0.38088 -0.0092,0.75618 0.05273,1.1324 0.04742,0.25033 0.07691,0.50315 0.100693,0.7566 0,0 -0.186809,0.002 -0.186809,0.002 v 0 c -0.02379,-0.25303 -0.05335,-0.50541 -0.100656,-0.75531 -0.06191,-0.37724 -0.0612,-0.75357 -0.05278,-1.13544 -1.72e-4,-0.37785 5.3e-4,-0.75584 -0.01357,-1.13349 -0.01815,-0.37984 -0.05025,-0.75895 -0.122653,-1.13285 -0.0619,-0.37725 -0.0612,-0.75358 -0.05267,-1.13545 -2.9e-5,-0.37785 7.94e-4,-0.75583 -0.01265,-1.13349 -0.01775,-0.38001 -0.04887,-0.75961 -0.126259,-1.13284 -0.06929,-0.37654 -0.08049,-0.75547 -0.125423,-1.1353 -0.0558,-0.37468 -0.140333,-0.74612 -0.121365,-1.12753 -0.01135,-0.34667 -0.02799,-0.6945 -0.09709,-1.0354 -0.0703,-0.34928 -0.110403,-0.69344 -0.0844,-1.05125 2.36e-4,-0.37539 0.0013,-0.75085 -0.0074,-1.12616 -0.01124,-0.34659 -0.02761,-0.69434 -0.09637,-1.03521 -0.07002,-0.34881 -0.109924,-0.69272 -0.08893,-1.05002 -0.0074,-0.37836 -0.019,-0.75748 -0.07206,-1.13273 -0.05601,-0.37713 -0.140663,-0.75131 -0.113665,-1.13525 -0.0021,-0.37793 -0.0048,-0.75632 -0.03485,-1.13329 -0.03567,-0.38111 -0.103552,-0.75672 -0.153699,-1.13585 2.33e-4,-0.37539 0.0013,-0.75085 -0.0075,-1.12616 -0.01138,-0.34662 -0.02799,-0.69439 -0.09727,-1.0352 -0.07049,-0.3489 -0.111051,-0.69271 -0.08544,-1.05022 0,-0.37797 6e-6,-0.75595 -7e-6,-1.13393 -2.2e-5,-0.37797 -5.3e-5,-0.75594 -2.17e-4,-1.13392 -1.75e-4,-0.37798 -5.3e-4,-0.75597 -2.65e-4,-1.13395 5.29e-4,-0.3781 0.0011,-0.75628 0.01244,-1.13425 0.01376,-0.37865 0.03924,-0.75645 0.07126,-1.13399 0.01654,-0.38502 -0.07799,-0.75003 -0.08315,-1.13353 0,-0.37797 -5e-6,-0.75595 -8e-6,-1.13393 0,-0.37797 -8e-6,-0.75595 6.1e-5,-1.13393 9.3e-5,-0.37798 2.46e-4,-0.75596 7.94e-4,-1.13394 5.29e-4,-0.37794 0.0016,-0.75589 -7.94e-4,-1.13382 -0.0041,-0.37795 -0.0096,-0.75658 -0.05044,-1.13272 -0.04633,-0.3785 -0.138107,-0.75185 -0.149312,-1.13341 -0.01786,-0.38217 -0.04958,-0.76391 -0.129199,-1.13893 -0.07779,-0.41019 -0.09474,-0.82489 -0.157244,-1.23754 -0.07259,-0.43853 -0.140568,-0.87588 -0.185195,-1.31827 -0.06814,-0.43411 -0.128538,-0.86681 -0.160581,-1.30529 -0.06632,-0.47607 -0.159534,-0.94809 -0.19285,-1.42827 -0.06626,-0.48704 -0.169857,-0.96779 -0.213831,-1.45782 -0.07116,-0.48917 -0.129302,-0.97724 -0.159126,-1.47089 -0.06457,-0.50104 -0.153024,-0.99923 -0.164039,-1.50559 -0.04589,-0.52426 -0.137898,-1.0448 -0.149428,-1.57123 -0.01913,-0.53403 -0.05298,-1.06763 -0.135478,-1.59621 -0.08097,-0.54663 -0.112027,-1.09687 -0.180078,-1.64521 -0.07055,-0.60448 -0.08086,-1.21052 -0.125653,-1.81722 -0.05714,-0.61004 -0.139943,-1.219 -0.113795,-1.8333 -0.0036,-0.59208 -0.0082,-1.18471 -0.05203,-1.77548 -0.05136,-0.59161 -0.150399,-1.17584 -0.211084,-1.76612 -0.07297,-0.62533 -0.199766,-1.24134 -0.282813,-1.86485 0,0 0.186891,-0.002 0.186891,-0.002 z"
       inkscape:connector-curvature="0" />
    <path
       style="opacity:1;fill:#a70c8b;fill-opacity:1;fill-rule:nonzero;stroke:#000000;stroke-width:0.5;stroke-linecap:round;stroke-linejoin:round;stroke-miterlimit:4;stroke-dasharray:none;stroke-dashoffset:0;stroke-opacity:1;paint-order:markers fill stroke"
       id="path4519"
       d="m 83.603702,214.57178 c -0.06367,0.61276 -0.181869,1.21743 -0.259905,1.82836 -0.041,0.5996 -0.142296,1.19189 -0.208812,1.78873 -0.105455,0.47485 -0.142359,0.96467 -0.252106,1.43783 -0.265832,0.62261 -0.372202,-0.0806 -0.386254,-0.30128 -0.0355,-0.53104 0.05786,-1.05763 0.108116,-1.58477 0.02862,-0.597 0.08451,-1.18889 0.161909,-1.78135 0.0446,-0.44766 0.08796,-0.89729 0.290923,-1.30417 0.139515,-0.30754 0.339524,-0.48446 0.67505,-0.50484 0.420944,-0.004 0.733721,0.22218 1.024583,0.50595 0.343117,0.32984 0.560774,0.74917 0.765201,1.17251 0.179168,0.40588 0.339916,0.81899 0.495353,1.23451 0,0 -0.185872,0.007 -0.185872,0.007 v 0 c -0.155258,-0.41498 -0.315876,-0.82759 -0.495263,-1.23278 -0.204451,-0.42149 -0.422291,-0.83856 -0.765625,-1.16593 -0.133998,-0.12862 -0.26857,-0.24003 -0.428871,-0.33524 -0.08517,-0.0506 -0.194082,-0.0642 -0.266187,-0.1321 -0.01188,-0.0112 0.028,-0.0168 0.04201,-0.0252 -0.334354,0.0128 -0.534323,0.17644 -0.673827,0.48512 -0.205148,0.40374 -0.246063,0.85254 -0.29165,1.29789 -0.07783,0.59222 -0.133747,1.18387 -0.162312,1.78069 -0.04977,0.52617 -0.142989,1.05179 -0.106606,1.58179 0.0047,0.0706 0.06804,0.40709 0.06406,0.4132 -0.02795,0.0429 -0.08866,0.0592 -0.139637,0.0641 -0.06623,0.006 0.294309,-0.21871 0.08816,-0.1791 0.111363,-0.47204 0.146786,-0.96169 0.253228,-1.43559 0.06634,-0.59698 0.168089,-1.18932 0.209185,-1.78903 0.07791,-0.61097 0.197022,-1.21556 0.258011,-1.82867 0,0 0.187142,0.003 0.187142,0.003 z"
       inkscape:connector-curvature="0" />
    <path
       style="opacity:1;fill:#a70c8b;fill-opacity:1;fill-rule:nonzero;stroke:#000000;stroke-width:0.5;stroke-linecap:round;stroke-linejoin:round;stroke-miterlimit:4;stroke-dasharray:none;stroke-dashoffset:0;stroke-opacity:1;paint-order:markers fill stroke"
       id="path4523"
       d="m 57.706987,246.31526 c 0.546195,-0.07 1.093872,-0.11213 1.637839,-0.19868 0.534387,-0.0959 1.0764,-0.12789 1.618025,-0.14661 0.571135,-0.0764 1.147324,-0.11232 1.718086,-0.18912 0.62354,-0.0767 1.243737,-0.17223 1.865151,-0.26416 0.649464,-0.0606 1.293415,-0.16513 1.942017,-0.23339 0.677188,-0.10195 1.356641,-0.18363 2.033577,-0.28682 0.651494,-0.0688 1.295197,-0.1904 1.944645,-0.27413 0.603018,-0.064 1.200021,-0.1676 1.804313,-0.22221 0.558591,-0.0175 1.111174,-0.0685 1.665245,-0.13876 0.550302,-0.0685 1.104744,-0.0865 1.658597,-0.098 0.565927,-0.0576 1.13008,-0.12485 1.698008,-0.16097 0.578189,-0.002 1.150056,-0.0567 1.724054,-0.11909 0.587195,-0.0751 1.180515,-0.0637 1.768806,-0.1195 0.549479,-0.075 1.101264,-0.12526 1.655029,-0.1525 0.546429,0.009 1.085517,-0.0767 1.627037,-0.13475 0.527878,-0.0536 1.058683,-0.0651 1.588828,-0.0725 0.511678,0.0219 1.015849,-0.0249 1.522561,-0.0877 0.475623,-0.0642 0.955178,-0.0845 1.434436,-0.0972 0.513289,-0.01 1.026723,-0.008 1.540081,-0.008 0.395716,5.3e-4 0.791432,7.9e-4 1.187151,0.001 0.305589,-0.0168 0.625343,-0.0956 0.949135,-0.13566 0.37625,-0.0419 0.755083,-0.0482 1.133239,-0.0527 0.439468,-0.003 0.878951,-0.002 1.318424,-0.001 0.377979,5.3e-4 0.755957,5.3e-4 1.133936,7.9e-4 0.245311,-0.009 0.515747,-0.0938 0.812133,-0.13563 0.359092,-0.0437 0.721275,-0.0485 1.082521,-0.0529 0.177147,-0.003 1.126234,0.008 1.132671,-0.0228 0.375695,-0.0696 0.753679,-0.11829 1.134728,-0.14484 0.38078,-0.014 0.75738,-0.013 1.13387,-0.0754 0.37426,-0.0729 0.75381,-0.105 1.13407,-0.12322 0.38094,-0.007 0.75722,-0.004 1.13378,-0.0659 0.37433,-0.0724 0.75383,-0.10466 1.13408,-0.12296 0.36292,-0.0112 0.7223,0.004 1.07975,-0.0657 0.3321,-0.0777 0.6716,-0.10602 1.01128,-0.12322 0.37338,-0.0228 0.74862,0.007 1.12033,-0.0352 0.37575,-0.0699 0.75391,-0.11817 1.13506,-0.14453 0.37769,-0.0213 0.75613,-0.0219 1.1343,-0.0229 0.43948,-2.7e-4 0.87897,5.3e-4 1.31846,7.9e-4 0.18715,-0.0163 0.38027,0.021 0.56696,2.6e-4 0.007,-7.9e-4 -0.003,-0.0196 0.004,-0.0214 0.12326,-0.0333 0.252,-0.0414 0.37792,-0.0625 0.37471,-0.0653 0.7546,-0.0861 1.1341,-0.0984 0.43941,-0.0101 0.879,-0.008 1.3185,-0.008 0.37797,5.3e-4 0.75595,7.9e-4 1.13393,0.001 0.063,2e-5 0.12599,5e-5 0.18899,7e-5 0.18266,5e-5 0.38587,0.0228 0.56696,9e-5 0.009,-0.001 -0.0123,-0.0142 -0.0184,-0.0214 0,0 0.18514,0.0268 0.18514,0.0268 v 0 c -0.36904,0.025 -0.73724,0.0293 -1.10717,0.0237 -0.37797,-2.1e-4 -0.75595,-5.3e-4 -1.13393,-0.001 -0.31645,-9e-5 -0.63296,-2.5e-4 -0.94935,0.007 -0.37932,0.0117 -0.75911,0.0313 -1.13376,0.0959 -0.43713,0.0735 -0.87499,0.10544 -1.31867,0.0867 -0.31646,-2.7e-4 -0.63293,-7.9e-4 -0.9494,-7.9e-4 -0.3781,7.9e-4 -0.75645,0.001 -1.13411,0.0216 -0.38112,0.0255 -0.75953,0.0719 -1.13493,0.14358 -0.37138,0.0467 -0.74695,0.0137 -1.1204,0.0366 -0.33937,0.0164 -0.67887,0.0429 -1.01067,0.12055 -0.35774,0.0721 -0.71668,0.0597 -1.08048,0.0685 -0.38009,0.0175 -0.75963,0.0483 -1.13378,0.12079 -0.37674,0.0631 -0.75255,0.0638 -1.13408,0.0681 -0.38009,0.0174 -0.75968,0.0481 -1.13377,0.12101 -0.37664,0.0639 -0.75275,0.0657 -1.13411,0.0772 -0.381023,0.0256 -0.759271,0.0725 -1.134604,0.14393 -0.3777,0.0237 -0.754419,0.0284 -1.132927,0.0247 -0.361016,0.004 -0.722932,0.008 -1.081947,0.0505 -0.393756,0.0541 -0.779831,0.16662 -1.181817,0.13815 -0.377981,-9e-5 -0.75596,-2.6e-4 -1.133941,-7.9e-4 -0.316444,-2.6e-4 -0.632891,-10e-4 -0.949333,0.001 -0.378023,0.004 -0.756714,0.01 -1.132943,0.0507 -0.439081,0.0532 -0.873062,0.15904 -1.318501,0.13789 -0.395623,-2.1e-4 -0.791247,-5.3e-4 -1.18687,-0.001 -0.390562,-0.002 -0.781185,5.3e-4 -1.171694,0.007 -0.479232,0.0122 -0.958832,0.0316 -1.434484,0.0953 -0.506889,0.0629 -1.010904,0.11317 -1.522912,0.0897 -0.530069,0.007 -1.060805,0.018 -1.588678,0.0708 -0.541647,0.0574 -1.080595,0.14583 -1.627134,0.13581 -0.553832,0.0266 -1.105826,0.0755 -1.655231,0.15157 -0.5881,0.0582 -1.181642,0.0441 -1.768885,0.11927 -0.574008,0.0622 -1.145585,0.1198 -1.723911,0.11996 -0.568034,0.0354 -1.132399,0.10109 -1.698094,0.16175 -0.553677,0.0111 -1.107974,0.0284 -1.658186,0.0961 -0.554286,0.0703 -1.106715,0.1241 -1.665708,0.13939 -0.604393,0.0536 -1.20128,0.15721 -1.804217,0.22151 -0.64974,0.0828 -1.293366,0.20564 -1.945127,0.27361 -0.676976,0.10321 -1.3564,0.18491 -2.033519,0.2877 -0.648594,0.0674 -1.292206,0.17333 -1.941697,0.23265 -0.621464,0.0915 -1.241407,0.18831 -1.865011,0.26439 -0.570579,0.0788 -1.147302,0.11115 -1.718157,0.19101 -0.541443,0.0181 -1.083421,0.0488 -1.617689,0.14432 -0.543544,0.0871 -1.090541,0.1302 -1.636522,0.19919 0,0 -0.18525,-0.0267 -0.18525,-0.0267 z"
       inkscape:connector-curvature="0" />
    <path
       style="opacity:1;fill:#a70c8b;fill-opacity:1;fill-rule:nonzero;stroke:#000000;stroke-width:0.5;stroke-linecap:round;stroke-linejoin:round;stroke-miterlimit:4;stroke-dasharray:none;stroke-dashoffset:0;stroke-opacity:1;paint-order:markers fill stroke"
       id="path4525"
       d="m 115.34487,240.5495 c 0.53161,0.19086 1.05838,0.39303 1.58281,0.60285 0.37581,0.1558 0.61451,0.40789 0.49324,0.82183 -0.21947,0.34955 -0.51324,0.65102 -0.78122,0.96543 -0.30081,0.38117 -0.67834,0.68548 -1.04276,1.00197 -0.15226,0.16033 -0.3154,0.30963 -0.47755,0.45973 0,0 -0.18591,-0.0154 -0.18591,-0.0154 v 0 c 0.16244,-0.1501 0.32658,-0.29874 0.47795,-0.46028 0.36371,-0.31615 0.74198,-0.61865 1.04239,-0.9992 0.26664,-0.31279 0.55609,-0.61376 0.77993,-0.95773 0.12383,-0.40554 -0.12691,-0.64422 -0.49071,-0.79431 -0.52459,-0.21049 -1.05238,-0.41106 -1.58392,-0.60317 0,0 0.18575,-0.0217 0.18575,-0.0217 z"
       inkscape:connector-curvature="0" />
    <path
       style="opacity:1;fill:#a70c8b;fill-opacity:1;fill-rule:nonzero;stroke:#000000;stroke-width:0.5;stroke-linecap:round;stroke-linejoin:round;stroke-miterlimit:4;stroke-dasharray:none;stroke-dashoffset:0;stroke-opacity:1;paint-order:markers fill stroke"
       id="path4529"
       d="m 152.05288,228.86271 c -0.0704,0.64114 -0.11026,1.285 -0.14148,1.92906 -0.034,0.57648 -0.0547,1.14654 0.0256,1.719 0.0869,0.51442 0.27834,0.99927 0.46853,1.48217 0.18382,0.49701 0.49471,0.91979 0.82858,1.32445 0.32643,0.41927 0.72411,0.76172 1.13483,1.09392 0.4378,0.34652 0.93774,0.58553 1.44361,0.81301 0.56207,0.22511 1.15706,0.35431 1.74722,0.48211 0.69525,0.11065 1.39907,0.0827 2.09658,0.0154 0.82118,-0.0903 1.60612,-0.3474 2.38686,-0.60383 0.88164,-0.27924 1.71197,-0.69502 2.52869,-1.12369 0.88351,-0.42297 1.70704,-0.94858 2.52497,-1.48347 0.84405,-0.55016 1.60809,-1.20762 2.35609,-1.87927 0.69565,-0.6026 1.44127,-1.15075 2.09427,-1.80102 0.66308,-0.70792 1.35234,-1.39192 2.00181,-2.11234 0.67995,-0.73206 1.29972,-1.51426 1.91138,-2.30312 0.60683,-0.81278 1.20637,-1.63117 1.76564,-2.47757 0.56916,-0.80803 1.05037,-1.67126 1.54452,-2.52574 0.48902,-0.7978 0.84647,-1.66227 1.24051,-2.50768 0.35815,-0.72207 0.66831,-1.46417 0.91228,-2.23223 0.23194,-0.67154 0.32927,-1.37347 0.39311,-2.07761 0.0508,-0.61985 0.066,-1.2404 0.0308,-1.86115 -0.0294,-0.51781 -0.0453,-1.03537 -0.13616,-1.54686 -0.0709,-0.44186 -0.19208,-0.86448 -0.40449,-1.25832 -0.22931,-0.37381 -0.5068,-0.71878 -0.83562,-1.00884 -0.37178,-0.30368 -0.80263,-0.52919 -1.23925,-0.72478 -0.50632,-0.17397 -1.01555,-0.34042 -1.5325,-0.48026 -0.62615,-0.0999 -1.25874,-0.1506 -1.89258,-0.15321 -0.71112,0.0284 -1.41125,0.16756 -2.10182,0.33139 -0.7193,0.14379 -1.42067,0.35161 -2.11679,0.57991 -0.67416,0.1964 -1.32527,0.46371 -1.97501,0.72805 -0.63534,0.28469 -1.25231,0.60658 -1.87024,0.92644 -0.61957,0.3542 -1.26117,0.66789 -1.86889,1.04236 -0.63781,0.38288 -1.26102,0.79188 -1.86898,1.2207 -0.61978,0.44895 -1.18448,0.9667 -1.74357,1.48752 -0.55758,0.53477 -1.13078,1.05416 -1.65842,1.61883 -0.61492,0.65148 -1.16016,1.36151 -1.70298,2.07266 -0.61275,0.84634 -1.20164,1.70956 -1.74083,2.60472 -0.65932,0.98167 -1.27443,1.98596 -1.8126,3.03881 -0.55499,1.0674 -0.98083,2.19541 -1.35526,3.33679 -0.30423,0.98158 -0.49076,1.98435 -0.50985,3.01144 0.008,0.14028 0.0164,0.2806 0.0246,0.42091 0,0 -0.14142,0.11795 -0.14142,0.11795 v 0 c -0.008,-0.14069 -0.0169,-0.28141 -0.0254,-0.42213 0.0178,-1.02883 0.20392,-2.03327 0.50775,-3.01676 0.37361,-1.14222 0.79936,-2.27094 1.35375,-3.33921 0.53735,-1.0532 1.15069,-2.05844 1.81117,-3.03933 0.53848,-0.89568 1.12723,-1.75891 1.73909,-2.60594 0.54277,-0.71113 1.0867,-1.42213 1.70144,-2.0738 0.609,-0.65467 1.27745,-1.25095 1.92047,-1.87175 0.55951,-0.52079 1.12494,-1.03813 1.74572,-1.48621 0.60867,-0.42817 1.2319,-0.83744 1.87005,-1.2202 0.60862,-0.3732 1.24986,-0.68796 1.86995,-1.04151 0.61797,-0.32034 1.23562,-0.6416 1.87161,-0.92544 0.64993,-0.26437 1.3016,-0.53052 1.9759,-0.72711 0.69642,-0.22812 1.3985,-0.43426 2.11785,-0.57875 0.69178,-0.16346 1.3932,-0.30238 2.10552,-0.32898 0.63509,0.003 1.26934,0.0544 1.89645,0.15615 0.51774,0.14048 1.02821,0.30641 1.53497,0.48192 0.43794,0.19709 0.87054,0.42322 1.24334,0.72862 0.33041,0.29167 0.60938,0.63806 0.84017,1.01356 0.21409,0.39522 0.33748,0.8188 0.4084,1.26279 0.0921,0.51211 0.10791,1.03041 0.13708,1.54902 0.0355,0.62154 0.0214,1.24287 -0.0294,1.86355 -0.0635,0.7051 -0.15914,1.40843 -0.39097,2.08104 -0.24312,0.76898 -0.55266,1.51208 -0.91143,2.23458 -0.39521,0.84524 -0.7507,1.71109 -1.23994,2.50925 -0.49406,0.85482 -0.97501,1.71857 -1.54422,2.52687 -0.55852,0.84705 -1.15841,1.6653 -1.76473,2.47864 -0.61171,0.78884 -1.23023,1.57211 -1.9104,2.30405 -0.64854,0.72142 -1.33923,1.40428 -2.00127,2.11336 -0.74704,0.72803 -1.55151,1.38796 -2.35566,2.05176 -0.74866,0.67131 -1.51359,1.32804 -2.35834,1.87762 -0.81808,0.53514 -1.6431,1.05875 -2.52645,1.48248 -0.81746,0.42861 -1.64887,0.84332 -2.53133,1.1221 -0.78181,0.25646 -1.5681,0.51288 -2.39052,0.60182 -0.69912,0.0664 -1.40469,0.0941 -2.10119,-0.0187 -0.59129,-0.12844 -1.18759,-0.25759 -1.75032,-0.48449 -0.50727,-0.22818 -1.00819,-0.46879 -1.44726,-0.81617 -0.41134,-0.33329 -0.81018,-0.6764 -1.13733,-1.09666 -0.33511,-0.40607 -0.64775,-0.83005 -0.83251,-1.32877 -0.19108,-0.48403 -0.38327,-0.96999 -0.47134,-1.48552 -0.0813,-0.57353 -0.0625,-1.14428 -0.0274,-1.72202 0.0315,-0.64397 0.0713,-1.28765 0.13947,-1.92892 0,0 0.14556,-0.11736 0.14556,-0.11736 z"
       inkscape:connector-curvature="0" />
    <path
       style="opacity:1;fill:#a70c8b;fill-opacity:1;fill-rule:nonzero;stroke:#0617a2;stroke-width:0.5;stroke-linecap:round;stroke-linejoin:round;stroke-miterlimit:4;stroke-dasharray:none;stroke-dashoffset:0;stroke-opacity:1;paint-order:markers fill stroke"
       id="path4537"
       d="m 65.168032,224.60683 c 0.422762,0.33304 0.826742,0.68871 1.2179,1.05809 0.37767,0.36291 0.80265,0.67154 1.197715,1.01551 0.399486,0.39555 0.848948,0.73281 1.279313,1.09297 0.415809,0.39117 0.849814,0.75754 1.293724,1.11613 0.425217,0.38321 0.890097,0.7169 1.333345,1.07823 0.424091,0.393 0.867162,0.76087 1.313268,1.12831 0.460726,0.4161 0.937059,0.81133 1.416207,1.20588 0.489134,0.43497 0.985828,0.85913 1.489949,1.27675 0.48823,0.44427 0.993716,0.86623 1.501031,1.28832 0.480201,0.4375 1.001301,0.82525 1.497461,1.2438 0.506764,0.43829 1.039483,0.84343 1.53967,1.29001 0.487245,0.48407 1.023773,0.91247 1.542304,1.36168 0.488631,0.46748 1.020529,0.88488 1.533011,1.32519 0.485876,0.46621 1.019171,0.87699 1.528355,1.31662 0.458783,0.43875 0.963373,0.82343 1.447785,1.23264 0.449336,0.42531 0.917321,0.82573 1.394873,1.2187 0.44912,0.35151 0.832613,0.77674 1.268469,1.14247 0.418712,0.3095 0.789903,0.67713 1.199872,0.99641 0.408292,0.27604 0.76198,0.62087 1.149484,0.92264 0.402559,0.28852 0.779978,0.60906 1.141641,0.94684 0.345706,0.3324 0.739452,0.60907 1.104388,0.92018 0.37034,0.33638 0.717207,0.69293 1.109738,1.00378 0.392264,0.30392 0.759498,0.63712 1.115775,0.98193 0.320156,0.3507 0.67604,0.65603 1.048676,0.94849 0.374268,0.29689 0.71979,0.62679 1.05881,0.96263 0.317807,0.31753 0.628482,0.64207 0.939123,0.96657 0.308111,0.33341 0.620298,0.65664 0.976095,0.93894 0.375176,0.28356 0.723186,0.60022 1.061176,0.92653 0.3183,0.31212 0.62761,0.63322 0.93678,0.95432 0.30252,0.31538 0.60522,0.63056 0.90796,0.9457 0.26956,0.28057 0.53922,0.56103 0.80888,0.84148 0.26183,0.2723 0.52365,0.54459 0.78549,0.81688 0.26185,0.27232 0.5237,0.54464 0.78556,0.81696 0.22773,0.24839 0.52545,0.41532 0.7889,0.62269 0.28007,0.22937 0.53453,0.48751 0.78814,0.7452 0.2639,0.27012 0.52493,0.54303 0.78596,0.81594 0.29888,0.23753 0.60746,0.46101 0.89684,0.71052 0.28495,0.25551 0.61144,0.45803 0.9097,0.69802 0.27586,0.26697 0.59973,0.4722 0.90491,0.70256 0.26386,0.24006 0.54396,0.4487 0.8408,0.64507 0.28549,0.20413 0.54081,0.44109 0.82945,0.64103 0.31587,0.21091 0.59997,0.46273 0.87507,0.72329 0.0452,0.0441 0.0904,0.0882 0.13557,0.13233 0,0 -0.13431,0.12987 -0.13431,0.12987 v 0 c -0.0451,-0.044 -0.0902,-0.0881 -0.13535,-0.1321 -0.27445,-0.25989 -0.55785,-0.51105 -0.87309,-0.72124 -0.2885,-0.19991 -0.54377,-0.43682 -0.82937,-0.64054 -0.29718,-0.19652 -0.57689,-0.40639 -0.84138,-0.64613 -0.30543,-0.23036 -0.62922,-0.43602 -0.90533,-0.70297 -0.29849,-0.24001 -0.62519,-0.44263 -0.91014,-0.69847 -0.28989,-0.24983 -0.59923,-0.4733 -0.89808,-0.71179 -0.26131,-0.27252 -0.52195,-0.5457 -0.7858,-0.81577 -0.25292,-0.25726 -0.50719,-0.51448 -0.78664,-0.74335 -0.26422,-0.2077 -0.56261,-0.3752 -0.79054,-0.6247 -0.26185,-0.27233 -0.5237,-0.54465 -0.78556,-0.81697 -0.26183,-0.27228 -0.52366,-0.54458 -0.78548,-0.81689 -0.26964,-0.28048 -0.53928,-0.56096 -0.80882,-0.84154 -0.3027,-0.31518 -0.60506,-0.63069 -0.90795,-0.94569 -0.30887,-0.32107 -0.61778,-0.64223 -0.93601,-0.9541 -0.33782,-0.32564 -0.68506,-0.64219 -1.059986,-0.92516 -0.356531,-0.28278 -0.669227,-0.60668 -0.977834,-0.94075 -0.311114,-0.32384 -0.62183,-0.64813 -0.938812,-0.96625 -0.338442,-0.33538 -0.683578,-0.66474 -1.057392,-0.96101 -0.372928,-0.29305 -0.729369,-0.59883 -1.049869,-0.95002 -0.355826,-0.34437 -0.722615,-0.6772 -1.114464,-0.98062 -0.392502,-0.31124 -0.739666,-0.66781 -1.110289,-1.00419 -0.365116,-0.31132 -0.759244,-0.58794 -1.104899,-0.92085 -0.361512,-0.33716 -0.738189,-0.65762 -1.140424,-0.9457 -0.387358,-0.30199 -0.741511,-0.64621 -1.14952,-0.92262 -0.409802,-0.31986 -0.781545,-0.68713 -1.200199,-0.99704 -0.435366,-0.36621 -0.819188,-0.79091 -1.268042,-1.14262 -0.477636,-0.393 -0.945316,-0.79389 -1.395011,-1.21892 -0.48428,-0.40943 -0.989099,-0.79394 -1.447634,-1.23305 -0.50928,-0.43947 -1.042444,-0.85043 -1.528401,-1.31652 -0.51248,-0.44035 -1.044291,-0.8579 -1.533066,-1.32524 -0.518391,-0.44952 -1.055119,-0.87779 -1.542354,-1.36201 -0.500257,-0.44624 -1.032909,-0.8512 -1.539497,-1.28945 -0.496292,-0.41832 -1.01719,-0.80627 -1.497285,-1.24381 -0.507488,-0.42188 -1.012765,-0.84404 -1.501046,-1.28826 -0.50389,-0.41784 -1.001062,-0.84145 -1.489987,-1.27661 -0.479335,-0.39433 -0.955524,-0.78976 -1.416351,-1.20575 -0.44636,-0.36711 -0.889149,-0.73526 -1.3134,-1.12807 -0.443112,-0.36142 -0.908043,-0.69502 -1.333289,-1.07816 -0.443886,-0.35876 -0.877945,-0.72527 -1.293954,-1.11635 -0.430389,-0.36031 -0.879971,-0.69763 -1.279685,-1.09311 -0.395259,-0.34412 -0.820674,-0.65262 -1.198214,-1.01606 -0.390892,-0.36886 -0.793634,-0.72523 -1.217566,-1.05599 0,0 0.132816,-0.13187 0.132816,-0.13187 z"
       inkscape:connector-curvature="0" />
    <path
       style="opacity:1;fill:#a70c8b;fill-opacity:1;fill-rule:nonzero;stroke:#0617a2;stroke-width:0.5;stroke-linecap:round;stroke-linejoin:round;stroke-miterlimit:4;stroke-dasharray:none;stroke-dashoffset:0;stroke-opacity:1;paint-order:markers fill stroke"
       id="path4539"
       d="m 65.006044,225.32176 c 0.392589,0.53669 0.75648,1.09242 1.163872,1.61865 0.340285,0.45892 0.638415,0.94437 0.938808,1.42942 0.117181,0.24551 0.512083,0.61148 0.38398,0.91105 -0.07206,0.0391 -0.135456,0.10306 -0.216183,0.11728 -0.08821,0.0155 -0.750934,-0.48656 -0.831004,-0.54957 -0.502985,-0.42037 -0.959561,-0.89231 -1.417546,-1.36024 -0.435629,-0.50686 -0.850757,-1.03024 -1.231761,-1.57927 -0.293312,-0.39853 -0.543016,-0.81832 -0.624672,-1.30995 -0.02769,-0.46266 0.288208,-0.7961 0.680654,-0.99987 0.453393,-0.16533 0.943384,-0.15876 1.419506,-0.16165 0.553268,-0.0129 1.097256,0.11237 1.635512,0.22598 0.531196,0.11976 1.036569,0.31292 1.534413,0.52935 0.08829,0.0455 0.176569,0.091 0.264854,0.13651 0,0 -0.129548,0.13289 -0.129548,0.13289 v 0 c -0.08801,-0.0452 -0.176079,-0.0904 -0.26408,-0.13556 -0.496965,-0.21547 -1.001513,-0.40775 -1.531648,-0.52683 -0.537489,-0.11264 -1.080303,-0.23759 -1.632739,-0.22309 -0.474274,0.003 -0.963354,-0.003 -1.413152,0.16803 -0.05604,0.0304 -0.131281,0.0319 -0.174313,0.079 -0.169664,0.18603 -0.270444,0.3985 -0.247483,0.65416 0.07823,0.49002 0.326661,0.9076 0.618307,1.30455 0.380017,0.54848 0.794561,1.071 1.229181,1.5774 0.457588,0.46723 0.913631,0.93862 1.416668,1.35774 0.186625,0.14662 0.371259,0.29203 0.577243,0.41112 0.04,0.0231 0.247591,0.12923 0.247714,0.12979 0.0113,0.048 -0.04059,0.0898 -0.06085,0.13482 0.163797,-0.26308 -0.270249,-0.67714 -0.370029,-0.89753 -0.299777,-0.48477 -0.597176,-0.96995 -0.936743,-1.4287 -0.407391,-0.52626 -0.770613,-1.08257 -1.165383,-1.61767 0,0 0.136101,-0.12809 0.136101,-0.12809 z"
       inkscape:connector-curvature="0" />
    <path
       style="opacity:1;fill:#a70c8b;fill-opacity:1;fill-rule:nonzero;stroke:#0617a2;stroke-width:0.5;stroke-linecap:round;stroke-linejoin:round;stroke-miterlimit:4;stroke-dasharray:none;stroke-dashoffset:0;stroke-opacity:1;paint-order:markers fill stroke"
       id="path4545"
       d="m 70.696169,262.60871 c 0.44519,-0.31987 0.867526,-0.66913 1.279597,-1.03016 0.3862,-0.31919 0.727639,-0.67484 1.051335,-1.05365 0.478002,-0.53149 0.934312,-1.08024 1.392213,-1.62896 0.491803,-0.58069 0.956314,-1.18236 1.462648,-1.751 0.509362,-0.62643 1.038277,-1.23577 1.550248,-1.86 0.587366,-0.70518 1.15738,-1.42467 1.727209,-2.14409 0.580914,-0.72243 1.153397,-1.45172 1.724312,-2.18216 0.557899,-0.67366 1.09839,-1.3616 1.669511,-2.02426 0.552821,-0.63215 1.108755,-1.26396 1.639073,-1.91533 0.530929,-0.63163 1.051573,-1.27112 1.575431,-1.90862 0.448208,-0.5507 0.945291,-1.05798 1.447392,-1.55895 0.430414,-0.49045 0.85038,-0.98909 1.294718,-1.46719 0.414084,-0.45185 0.876274,-0.85674 1.284889,-1.31318 0.400195,-0.48442 0.818605,-0.95237 1.253074,-1.40615 0.386721,-0.47063 0.77581,-0.93829 1.187861,-1.3871 0.376195,-0.40196 0.770601,-0.7862 1.165888,-1.1692 0.216521,-0.22943 0.472472,-0.42324 0.683535,-0.65748 0.0997,-0.11071 0.198522,-0.27566 0.292584,-0.39718 0.273877,-0.34992 0.578452,-0.67372 0.889287,-0.99064 0.317671,-0.31933 0.643768,-0.63012 0.968421,-0.94229 0.272594,-0.26138 0.545002,-0.52296 0.817374,-0.78457 0.272432,-0.26173 0.544753,-0.52357 0.81708,-0.78542 0.228113,-0.21934 0.456219,-0.43869 0.684331,-0.65803 0.239339,-0.29743 0.46161,-0.60697 0.71063,-0.89678 0.257991,-0.28054 0.529038,-0.54269 0.75624,-0.84939 0.24031,-0.3544 0.55335,-0.64944 0.81532,-0.98588 0.26426,-0.36509 0.5518,-0.7115 0.85608,-1.04363 0.29869,-0.31745 0.61344,-0.61926 0.92699,-0.92187 0.30048,-0.26243 0.50505,-0.60509 0.76034,-0.91808 0.24286,-0.29096 0.51179,-0.55843 0.78157,-0.82408 0.21529,-0.22713 0.46338,-0.42351 0.67608,-0.65287 0.005,-0.005 -0.0157,-0.012 -0.0119,-0.0181 0.033,-0.0546 0.0766,-0.10198 0.11495,-0.15298 0.21979,-0.3115 0.47069,-0.59801 0.73197,-0.87487 0.25186,-0.26132 0.51366,-0.51277 0.77494,-0.76457 0,0 0.15369,-0.10714 0.15369,-0.10714 v 0 c -0.26161,0.25164 -0.52343,0.50325 -0.77591,0.76412 -0.26169,0.27619 -0.51368,0.56164 -0.73324,0.87313 -0.22758,0.3054 -0.50198,0.56523 -0.77793,0.82613 -0.27005,0.26522 -0.53916,0.53231 -0.78278,0.82247 -0.25229,0.3078 -0.47201,0.64222 -0.75926,0.92 -0.31368,0.30237 -0.62837,0.6041 -0.92759,0.92093 -0.30487,0.33144 -0.59352,0.67684 -0.85706,1.04237 -0.2594,0.33836 -0.5753,0.63088 -0.81535,0.98541 -0.22625,0.30786 -0.495036,0.57159 -0.75533,0.85059 -0.249923,0.28929 -0.474035,0.59753 -0.709604,0.89821 -0.316789,0.30461 -0.633571,0.60922 -0.950366,0.91383 -0.272321,0.26184 -0.544642,0.52369 -0.817073,0.78541 -0.272373,0.26161 -0.544822,0.52314 -0.817375,0.78457 -0.236068,0.22688 -0.472117,0.45385 -0.70318,0.68586 -0.311094,0.31647 -0.616229,0.63957 -0.890646,0.98889 -0.294369,0.38114 -0.616552,0.7347 -0.974879,1.05713 -0.395422,0.38299 -0.790316,0.76687 -1.166882,1.16864 -0.412644,0.44838 -0.80303,0.91512 -1.187798,1.38752 -0.434822,0.45334 -0.854037,0.92053 -1.25341,1.40556 -0.406803,0.45817 -0.870501,0.86173 -1.284774,1.31349 -0.444857,0.47784 -0.865932,0.97569 -1.294556,1.46793 -0.50245,0.50075 -1.000203,1.00753 -1.449011,1.55785 -0.524269,0.63716 -1.044022,1.27739 -1.575515,1.90857 -0.529283,0.6523 -1.086578,1.28325 -1.638935,1.91589 -0.571812,0.6622 -1.111825,1.3506 -1.670415,2.02382 -0.571084,0.73039 -1.143179,1.46006 -1.724365,2.18233 -0.569868,0.71922 -1.139245,1.43904 -1.726621,2.14405 -0.511892,0.62415 -1.040671,1.2334 -1.54932,1.86028 -0.506952,0.56807 -0.971614,1.16948 -1.462957,1.75048 -0.458027,0.54835 -0.91294,1.09797 -1.391514,1.6287 -0.402292,0.47229 -0.847685,0.90139 -1.315236,1.30879 -0.412897,0.36096 -0.836292,0.70981 -1.281824,1.03015 0,0 0.115096,-0.14758 0.115096,-0.14758 z"
       inkscape:connector-curvature="0" />
    <path
       style="opacity:1;fill:#a70c8b;fill-opacity:1;fill-rule:nonzero;stroke:#0617a2;stroke-width:0.5;stroke-linecap:round;stroke-linejoin:round;stroke-miterlimit:4;stroke-dasharray:none;stroke-dashoffset:0;stroke-opacity:1;paint-order:markers fill stroke"
       id="path4547"
       d="m 103.18812,222.7799 c 0.6087,-0.18916 1.21044,-0.39974 1.81893,-0.5894 0.40367,-0.14351 0.81573,-0.26465 1.24663,-0.22902 0.40613,0.13586 0.5533,0.5682 0.65901,0.94515 0.0834,0.58378 0.0686,1.17464 0.10699,1.76154 0.037,0.50612 0.0809,1.01219 0.10628,1.51889 0.006,0.0673 0.0123,0.13467 0.0184,0.20196 0,0 -0.14298,0.12001 -0.14298,0.12001 v 0 c -0.006,-0.0675 -0.0125,-0.13519 -0.0188,-0.20274 -0.0237,-0.50677 -0.0694,-1.01289 -0.10556,-1.51908 -0.0389,-0.58575 -0.024,-1.17533 -0.10486,-1.7583 -0.10241,-0.36849 -0.2437,-0.79891 -0.64356,-0.92842 -0.42877,-0.0316 -0.83855,0.091 -1.24035,0.23258 -0.60852,0.19025 -1.21119,0.39877 -1.81902,0.59123 0,0 0.11885,-0.14438 0.11885,-0.14438 z"
       inkscape:connector-curvature="0" />
    <g
       style="stroke:#a70c8b;stroke-opacity:1"
       id="g4584"
       transform="rotate(-43.877277,181.21268,316.693)">
      <path
         inkscape:connector-curvature="0"
         d="m 233.70546,208.89948 c 0.0731,0.5256 0.11644,1.0545 0.14464,1.5842 0.0121,0.51576 0.0143,1.02782 0.0762,1.54032 0.0694,0.5709 0.10236,1.14367 0.17563,1.71417 0.0794,0.65928 0.11351,1.3215 0.18971,1.98109 0.0556,0.70189 0.13926,1.39968 0.22103,2.09882 0.0501,0.66534 0.15375,1.32446 0.22335,1.98777 0.0568,0.64077 0.16148,1.27531 0.2158,1.91668 0.0159,0.63338 0.10713,1.26015 0.16774,1.88994 0.0551,0.62858 0.0658,1.25968 0.0727,1.89026 -0.026,0.58949 0.0602,1.17252 0.11664,1.75744 0.0507,0.58165 0.0641,1.16556 0.0718,1.74909 -0.0256,0.52068 0.0614,1.03384 0.11737,1.54932 0.053,0.50209 0.0647,1.00709 0.0718,1.51151 0.005,0.50377 0.004,1.00758 0.003,1.51137 -5.3e-4,0.52206 -7.9e-4,1.04413 -7.9e-4,1.56619 -3e-5,0.50771 -1.1e-4,1.01542 -8e-5,1.52312 -0.002,0.48076 0.0886,0.95632 0.1371,1.4339 0.0418,0.48556 0.0472,0.97311 0.0516,1.46013 0.003,0.50263 0.002,1.00528 10e-4,1.50792 -5.2e-4,0.4697 -5.2e-4,0.9394 -5.2e-4,1.4091 4e-5,0.435 -1.3e-4,0.87001 -7e-5,1.30501 8e-5,0.40197 1.3e-4,0.80393 1.6e-4,1.2059 -0.0283,0.38402 0.0574,0.75804 0.11384,1.13512 0.0535,0.3757 0.0652,0.75532 0.0727,1.13417 0.005,0.37798 0.004,0.75602 0.004,1.13402 -5.3e-4,0.37798 -7.9e-4,0.75596 -7.9e-4,1.13394 -1.1e-4,0.37797 -1.1e-4,0.75594 -1.1e-4,1.13392 -0.0266,0.38338 0.0223,0.75585 0.0856,1.13237 0.065,0.3751 0.0852,0.75537 0.0972,1.13519 0.009,0.37801 0.008,0.75615 0.007,1.13423 -5.3e-4,0.37798 -8e-4,0.75595 -0.001,1.13393 -1.9e-4,0.41592 -2.6e-4,0.83184 -2.6e-4,1.24776 0.053,0.44766 0.11764,0.89331 0.15474,1.34276 0.0303,0.46549 0.0327,0.93214 0.0349,1.39842 0.001,0.46868 1.9e-4,0.93735 -1.3e-4,1.40603 -0.007,0.46862 0.0905,0.93036 0.13635,1.3955 0.0392,0.44536 0.0476,0.89255 0.0517,1.33936 -0.003,0.4359 -0.0112,0.86739 0.055,1.29882 0.0702,0.43385 0.1031,0.87203 0.12221,1.31069 0.0137,0.3892 0.0134,0.77871 0.0136,1.1681 -2.5e-4,0.37777 -7.9e-4,0.75555 -0.001,1.13333 -2.3e-4,0.37778 -2.5e-4,0.75557 -2.6e-4,1.13335 -0.002,0.38123 0.0908,0.75522 0.13694,1.13277 0.0237,0.25219 0.0134,0.12603 0.0308,0.37847 0,0 -0.18682,0.001 -0.18682,0.001 v 0 c -0.0173,-0.2518 -0.007,-0.12597 -0.0308,-0.37749 -0.0463,-0.37827 -0.13921,-0.75302 -0.13697,-1.13504 2e-5,-0.37779 5e-5,-0.75557 2.7e-4,-1.13337 2.6e-4,-0.37776 7.9e-4,-0.75553 0.001,-1.1333 -1.7e-4,-0.38912 1.4e-4,-0.77836 -0.0134,-1.1673 -0.0189,-0.43799 -0.0516,-0.87555 -0.12222,-1.30866 -0.0661,-0.43235 -0.0581,-0.86471 -0.0548,-1.30148 -0.005,-0.44625 -0.0122,-0.8929 -0.0516,-1.3377 -0.0464,-0.4657 -0.14347,-0.92814 -0.13644,-1.39736 5.3e-4,-0.46864 0.001,-0.93728 2.6e-4,-1.40592 -0.002,-0.46579 -0.005,-0.93198 -0.0352,-1.39697 -0.037,-0.44998 -0.10203,-0.89609 -0.15474,-1.3443 5e-5,-0.41592 -1.5e-4,-0.83184 2e-5,-1.24777 2e-4,-0.37797 5.3e-4,-0.75595 0.001,-1.13393 2.4e-4,-0.37788 0.001,-0.75582 -0.007,-1.13362 -0.012,-0.37899 -0.0322,-0.75841 -0.0971,-1.13267 -0.0635,-0.37753 -0.11204,-0.75112 -0.0856,-1.13549 0,-0.37797 0,-0.75595 1.1e-4,-1.13393 1.4e-4,-0.37798 2.6e-4,-0.75596 7.9e-4,-1.13394 5.3e-4,-0.37788 0.002,-0.75578 -0.004,-1.13364 -0.007,-0.37805 -0.0191,-0.75686 -0.0726,-1.13176 -0.0566,-0.37797 -0.14216,-0.75297 -0.11384,-1.1379 2e-5,-0.40197 7e-5,-0.80393 1.4e-4,-1.2059 6e-5,-0.435 -1.2e-4,-0.87001 7e-5,-1.30502 2.1e-4,-0.4697 5.2e-4,-0.9394 7.9e-4,-1.40911 5.3e-4,-0.50257 0.002,-1.00516 -10e-4,-1.50773 -0.004,-0.48645 -0.01,-0.97345 -0.0518,-1.45842 -0.0484,-0.47821 -0.13966,-0.95437 -0.13682,-1.43578 4e-5,-0.5077 -5e-5,-1.01541 1.4e-4,-1.52312 1.9e-4,-0.52207 2.7e-4,-1.04414 8e-4,-1.56621 2.6e-4,-0.50369 0.002,-1.0074 -0.003,-1.51108 -0.007,-0.50384 -0.0187,-1.00825 -0.0717,-1.50976 -0.0564,-0.51603 -0.14285,-1.02985 -0.11715,-1.5511 -0.008,-0.583 -0.0205,-1.16643 -0.0716,-1.74754 -0.0566,-0.58541 -0.14254,-1.16903 -0.1164,-1.75902 -0.007,-0.63005 -0.0174,-1.26065 -0.0727,-1.88869 -0.0607,-0.62985 -0.15167,-1.25672 -0.16773,-1.89014 -0.0544,-0.64124 -0.1589,-1.27567 -0.21564,-1.91633 -0.0696,-0.66321 -0.17317,-1.32227 -0.2231,-1.98754 -0.0819,-0.69915 -0.16506,-1.39698 -0.22102,-2.09885 -0.0764,-0.6595 -0.11055,-1.32165 -0.19013,-1.98084 -0.0736,-0.57053 -0.10657,-1.14336 -0.17621,-1.71431 -0.0622,-0.51289 -0.064,-1.02542 -0.0764,-1.54157 -0.0278,-0.52919 -0.0703,-1.05774 -0.14561,-1.58253 0,0 0.18714,-0.003 0.18714,-0.003 z"
         id="path4551"
         style="opacity:1;fill:#a70c8b;fill-opacity:1;fill-rule:nonzero;stroke:#a70c8b;stroke-width:0.5;stroke-linecap:round;stroke-linejoin:round;stroke-miterlimit:4;stroke-dasharray:none;stroke-dashoffset:0;stroke-opacity:1;paint-order:markers fill stroke" />
      <path
         inkscape:connector-curvature="0"
         d="m 231.93669,208.14746 c -0.19567,0.61876 -0.37967,1.24296 -0.53145,1.87413 -0.1173,0.53684 -0.24276,1.0699 -0.3137,1.61542 -0.0416,0.35809 -0.0516,0.7187 -0.0564,1.07884 -5.3e-4,0.0794 0.005,0.16103 -0.18793,-0.0902 -0.0199,-0.0259 0.002,-0.62761 0.002,-0.68776 -0.0239,-0.55495 0.0621,-1.10424 0.11502,-1.65499 0.0933,-0.49648 0.13415,-1.00561 0.30344,-1.48355 0.12584,-0.37797 0.33773,-0.70732 0.71976,-0.8508 0.45299,-0.098 0.87413,0.0583 1.27758,0.24513 0.41669,0.25926 0.84635,0.4972 1.25145,0.77538 0.44331,0.31123 0.82142,0.70072 1.23005,1.05332 0.36208,0.30497 0.72869,0.60483 1.05838,0.94505 0,0 -0.18542,0.0143 -0.18542,0.0143 v 0 c -0.3302,-0.33906 -0.6964,-0.63865 -1.05801,-0.94346 -0.40777,-0.35291 -0.78647,-0.74119 -1.2301,-1.05123 -0.40523,-0.27683 -0.83387,-0.516 -1.25174,-0.77215 -0.28757,-0.13102 -0.61667,-0.29394 -0.90655,-0.2435 -0.38331,0.1315 -0.59368,0.46089 -0.71908,0.83431 -0.17031,0.47607 -0.21031,0.98407 -0.30417,1.47894 -0.0526,0.55018 -0.13897,1.09889 -0.114,1.65325 -6e-5,0.0609 0.0198,0.66086 -0.001,0.68781 -0.20071,0.25861 -0.19133,0.1685 -0.18783,0.0897 0.008,-0.36079 0.0153,-0.72217 0.0582,-1.08092 0.0713,-0.54618 0.19679,-1.07995 0.31468,-1.61738 0.15162,-0.63133 0.33685,-1.25519 0.52966,-1.87497 0,0 0.18704,0.005 0.18704,0.005 z"
         id="path4553"
         style="opacity:1;fill:#a70c8b;fill-opacity:1;fill-rule:nonzero;stroke:#a70c8b;stroke-width:0.5;stroke-linecap:round;stroke-linejoin:round;stroke-miterlimit:4;stroke-dasharray:none;stroke-dashoffset:0;stroke-opacity:1;paint-order:markers fill stroke" />
      <path
         inkscape:connector-curvature="0"
         d="m 205.86973,239.72197 c 0.42812,-0.0526 1.01573,0.0831 1.4216,-0.0217 0.51884,-0.072 1.03954,-0.11954 1.56256,-0.14545 0.55056,-0.0784 1.10206,-0.1411 1.65704,-0.1771 0.62388,-0.0858 1.24917,-0.15253 1.87787,-0.18895 0.71447,-0.0328 1.42989,-0.0331 2.14496,-0.0349 0.70436,-0.0481 1.42498,0.0673 2.12637,-0.0213 0.72966,-0.0823 1.46507,-0.0942 2.19515,-0.16679 0.70407,-0.095 1.41241,-0.14178 2.12192,-0.16819 0.67889,-0.0213 1.3582,-0.0214 2.03736,-0.022 0.67538,-0.049 1.34878,-0.11733 2.02516,-0.15301 0.61128,-0.0289 1.22334,-0.0327 1.83518,-0.0351 0.60499,-0.001 1.20999,-2.6e-4 1.81499,1.6e-4 0.50516,2.6e-4 1.01031,5.3e-4 1.51547,5.3e-4 0.41628,-0.0871 0.84898,-0.12108 1.27411,-0.15402 0.46017,-0.029 0.9214,-0.0332 1.38232,-0.0357 0.5032,-0.001 1.00639,-2.6e-4 1.50958,1.6e-4 0.41764,2.7e-4 0.83527,5.3e-4 1.2529,5.3e-4 0.34864,3e-5 0.69727,1e-5 1.04591,1e-5 0.38026,-1e-5 0.76052,-1e-5 1.14078,-1e-5 0.37762,-10e-6 0.75524,-10e-6 1.13286,-10e-6 0.43943,0 0.87886,0 1.31828,0 0.37798,0 0.75596,0 1.13394,0 0.31647,0 0.63293,0 0.9494,0 0.37798,0 0.75595,0 1.13393,0 0.43949,0 0.87897,0 1.31846,0 0.37797,0 0.75595,0 1.13393,0 0.37797,0 0.75595,0 1.13392,0 0.31647,0 0.63294,0 0.9494,0 0.37798,0 0.75596,0 1.13393,0 0.37867,-0.0485 0.75344,-0.11756 1.1338,-0.15387 0.37719,-0.0308 0.75585,-0.0335 1.13405,-0.0359 0.43949,-0.001 0.87898,-2.6e-4 1.31847,1.6e-4 0.37797,5.3e-4 0.75595,5.3e-4 1.13393,5.3e-4 0.31646,4e-5 0.63293,3e-5 0.9494,3e-5 0.37797,0 0.75595,0 1.13392,0 0.37798,0 0.75596,0 1.13393,0 0.31033,-0.0284 0.63082,0.0344 0.94048,0 0.007,-8e-4 -0.003,-0.0196 0.004,-0.0215 0.0616,-0.0167 0.12596,-0.0205 0.18894,-0.0308 0.37432,-0.0726 0.75379,-0.10545 1.13407,-0.12402 0.37782,-0.0143 0.75598,-0.0138 1.134,-0.014 0.43948,2e-5 0.87897,7.9e-4 1.31846,0.001 0.37797,2.3e-4 0.75595,2.5e-4 1.13392,2.6e-4 0.31647,1e-5 0.63294,1e-5 0.94941,0 0.37797,0 0.75595,0 1.13393,0 0.43947,0 0.87897,0 1.31845,0 0.063,0 0.12599,0 0.18899,0 0.18899,0 0.37798,0 0.56697,0 0.19839,0 0.23014,0.0477 0.17053,-0.0214 0.32604,-0.0746 0.65574,-0.12059 0.98893,-0.14568 0.2772,-0.0179 0.55372,0.002 0.82325,-0.074 0,0 0.18611,0.0241 0.18611,0.0241 v 0 c -0.26948,0.0807 -0.54607,0.0616 -0.82447,0.0777 -0.33311,0.0241 -0.6632,0.0676 -0.98867,0.14455 -0.43182,0.0293 -0.86339,0.0267 -1.29616,0.0238 -0.31647,0 -0.63294,0 -0.94941,0 -0.37798,10e-6 -0.75595,10e-6 -1.13393,10e-6 -0.43948,0 -0.87897,1e-5 -1.31845,0 -0.37798,-2e-5 -0.75596,-5e-5 -1.13393,-2.7e-4 -0.31647,-2.3e-4 -0.63294,-5.3e-4 -0.9494,-10e-4 -0.37798,1.3e-4 -0.75608,-5.3e-4 -1.13387,0.0131 -0.38012,0.0178 -0.75964,0.0491 -1.13378,0.12188 -0.37568,0.0628 -0.75449,0.0585 -1.13414,0.0553 -0.37797,0 -0.75595,0 -1.13393,0 -0.37797,0 -0.75595,0 -1.13393,1e-5 -0.43948,0 -0.87897,10e-6 -1.31845,-4e-5 -0.37798,-6e-5 -0.75596,-1.6e-4 -1.13393,-5.3e-4 -0.31647,-2.6e-4 -0.63293,-0.001 -0.94939,-2.4e-4 -0.3781,0.002 -0.75665,0.005 -1.13381,0.0342 -0.38066,0.0353 -0.75585,0.10215 -1.13406,0.15561 -0.37797,0 -0.75595,0 -1.13393,0 -0.43948,0 -0.87897,0 -1.31845,0 -0.37798,0 -0.75596,0 -1.13393,0 -0.37798,0 -0.75595,0 -1.13393,0 -0.31647,0 -0.63294,0 -0.9494,0 -0.37798,0 -0.75596,0 -1.13393,0 -0.43949,0 -0.87897,0 -1.31846,0 -0.37798,0 -0.75595,0 -1.13393,0 -0.31641,0 -0.63282,0 -0.94923,0 -0.37762,0 -0.75524,0 -1.13286,0 -0.38028,0 -0.76056,0 -1.14085,0 -0.47151,0 -0.94301,0 -1.41452,-6e-5 -0.41769,-6e-5 -0.83538,-10e-5 -1.25307,-5.3e-4 -0.38032,-2.6e-4 -0.76064,-10e-4 -1.14096,-2.4e-4 -0.46093,0.002 -0.92214,0.006 -1.38237,0.0344 -0.54896,0.0417 -1.09224,0.13141 -1.64223,0.1554 -0.50508,-5e-5 -1.01015,-2.1e-4 -1.51522,-5.3e-4 -0.48268,-2.7e-4 -0.96535,-0.001 -1.44803,-2.6e-4 -0.61195,0.002 -1.22411,0.006 -1.83551,0.0341 -0.67647,0.0351 -1.34999,0.10213 -2.02522,0.15397 -0.67925,5.3e-4 -1.35866,5.3e-4 -2.03767,0.0213 -0.70939,0.0259 -1.41774,0.0715 -2.12163,0.16704 -0.72995,0.0744 -1.46567,0.0837 -2.19526,0.16748 -0.70873,0.0302 -1.41743,0.023 -2.12673,0.0224 -0.71484,0.002 -1.43002,0.002 -2.14429,0.034 -0.62856,0.0357 -1.25395,0.10072 -1.87737,0.1889 -0.55497,0.0353 -1.10673,0.096 -1.65687,0.17742 -0.523,0.0253 -1.04387,0.0713 -1.5625,0.14479 -0.59652,0.0309 -1.19306,0.0249 -1.79034,0.0235 0,0 0.18488,-0.0293 0.18488,-0.0293 z"
         id="path4565"
         style="opacity:1;fill:#a70c8b;fill-opacity:1;fill-rule:nonzero;stroke:#a70c8b;stroke-width:0.5;stroke-linecap:round;stroke-linejoin:round;stroke-miterlimit:4;stroke-dasharray:none;stroke-dashoffset:0;stroke-opacity:1;paint-order:markers fill stroke" />
    </g>
    <path
       style="opacity:1;fill:#a70c8b;fill-opacity:1;fill-rule:nonzero;stroke:#a70c8b;stroke-width:0.5;stroke-linecap:round;stroke-linejoin:round;stroke-miterlimit:4;stroke-dasharray:none;stroke-dashoffset:0;stroke-opacity:1;paint-order:markers fill stroke"
       id="path4567"
       d="m 186.52297,199.66081 c 0.5728,-0.22724 1.14087,-0.46596 1.7106,-0.70104 0.47526,-0.20328 0.93302,-0.44469 1.40308,-0.65887 0.36939,-0.13857 0.68096,-0.22022 0.95242,0.11154 0.19824,0.36598 0.10224,0.79227 0.0228,1.17931 -0.0986,0.50698 -0.20408,1.00796 -0.36663,1.49884 -0.10192,0.31668 -0.0486,0.16134 -0.15945,0.46614 0,0 -0.14777,0.11337 -0.14777,0.11337 v 0 c 0.11165,-0.30427 0.0582,-0.14903 0.15995,-0.46584 0.16408,-0.49006 0.26979,-0.9903 0.36782,-1.49703 0.08,-0.38084 0.17785,-0.80367 -0.0128,-1.16598 -0.26467,-0.32475 -0.57703,-0.23058 -0.93378,-0.0955 -0.46916,0.21566 -0.92787,0.45443 -1.40292,0.65757 -0.57016,0.23555 -1.13908,0.47378 -1.7121,0.70196 0,0 0.11885,-0.14438 0.11885,-0.14438 z"
       inkscape:connector-curvature="0" />
    <path
       style="opacity:1;fill:#a70c8b;fill-opacity:1;fill-rule:nonzero;stroke:#a70c8b;stroke-width:0.5;stroke-linecap:round;stroke-linejoin:round;stroke-miterlimit:4;stroke-dasharray:none;stroke-dashoffset:0;stroke-opacity:1;paint-order:markers fill stroke"
       id="path4647"
       d="m 161.60829,222.45525 c 0.36602,0.10345 0.7414,0.16466 1.11912,0.20414 0.2938,0.0272 0.58902,0.0298 0.88383,0.0312 0.22385,6e-5 0.4477,-7.9e-4 0.67155,-10e-4 0.21234,0.006 0.42003,0.003 0.62863,-0.0374 0,0 0.13109,0.0181 0.13109,0.0181 v 0 c -0.20887,0.0421 -0.41622,0.0476 -0.62923,0.0399 -0.31083,5.3e-4 -0.62166,0.002 -0.9325,10e-4 -0.29475,-0.002 -0.58991,-0.005 -0.88359,-0.0325 -0.37807,-0.0404 -0.75368,-0.10272 -1.1201,-0.20632 0,0 0.1312,-0.0171 0.1312,-0.0171 z"
       inkscape:connector-curvature="0" />
    <path
       style="opacity:1;fill:none;fill-opacity:1;fill-rule:nonzero;stroke:#a70c8b;stroke-width:0.2;stroke-linecap:round;stroke-linejoin:round;stroke-miterlimit:4;stroke-dasharray:0.2, 0.59999999999999998;stroke-dashoffset:0;stroke-opacity:1;paint-order:markers fill stroke"
       id="path4635"
       d="m 88.11153,242.95591 c 0.385855,-0.1576 0.784619,-0.27696 1.180682,-0.40487 0.40622,-0.12504 0.813885,-0.24604 1.218925,-0.3751 0.458377,-0.1335 0.917249,-0.26497 1.375746,-0.39799 0.490371,-0.12123 0.963358,-0.3002 1.447456,-0.44313 0.51803,-0.16115 1.04748,-0.28084 1.566471,-0.43848 0.514201,-0.15055 1.0297,-0.29624 1.543063,-0.44966 0.491836,-0.13512 0.984922,-0.26517 1.474962,-0.40677 0.51503,-0.12976 1.018331,-0.30011 1.529808,-0.44261 0.54684,-0.15002 1.091357,-0.30739 1.637277,-0.4608 0.58031,-0.14859 1.15671,-0.31381 1.72951,-0.48925 0.58558,-0.16951 1.17252,-0.33436 1.7608,-0.49427 0.58713,-0.16928 1.18065,-0.31694 1.77772,-0.4466 0.64433,-0.15637 1.28919,-0.30996 1.93542,-0.45839 0.66624,-0.13413 1.32405,-0.3052 1.98625,-0.45738 0.6332,-0.15854 1.26635,-0.31763 1.89935,-0.47719 0.60774,-0.17274 1.21952,-0.33201 1.83587,-0.47112 0.60974,-0.1522 1.21957,-0.30469 1.82724,-0.46509 0.57789,-0.17114 1.16077,-0.32627 1.74607,-0.4701 0.55341,-0.14957 1.10206,-0.3156 1.65553,-0.46528 0.57767,-0.17558 1.16426,-0.31921 1.74441,-0.48588 0.5666,-0.16042 1.13707,-0.30623 1.70578,-0.45877 0.54196,-0.12679 1.07728,-0.27674 1.61253,-0.42852 0.55986,-0.1704 1.12789,-0.31386 1.6993,-0.43966 0.60665,-0.14988 1.21221,-0.30483 1.81789,-0.45886 0.56927,-0.13696 1.13773,-0.27706 1.70664,-0.41554 0.57003,-0.15199 1.13807,-0.31158 1.71021,-0.4555 0.54396,-0.13999 1.08671,-0.28611 1.63447,-0.41065 0.55144,-0.10056 1.10117,-0.20893 1.6448,-0.34591 0.5174,-0.12797 1.03509,-0.25537 1.55061,-0.39084 0.49595,-0.13412 0.99262,-0.26571 1.48826,-0.40107 0.47758,-0.13221 0.95693,-0.25874 1.43169,-0.40093 0.48343,-0.13839 0.97141,-0.2602 1.45416,-0.40095 0.4816,-0.15397 0.96171,-0.31387 1.44711,-0.45553 0.46413,-0.13606 0.92663,-0.27743 1.39152,-0.41077 0.4404,-0.14363 0.89439,-0.23717 1.3409,-0.35871 0.44792,-0.11602 0.89368,-0.24208 1.33576,-0.37891 0.44663,-0.12441 0.88568,-0.27463 1.33627,-0.38461 0.44838,-0.10685 0.89182,-0.23169 1.33634,-0.35302 0.44208,-0.0919 0.87312,-0.22788 1.31391,-0.32457 0.42552,-0.10474 0.853,-0.20356 1.28355,-0.2856 0.42788,-0.0917 0.85501,-0.18838 1.28542,-0.26757 0.43206,-0.0911 0.86246,-0.1918 1.28989,-0.30249 0.40371,-0.0931 0.80479,-0.19648 1.21384,-0.2637 0.36537,-0.0659 0.7242,-0.15968 1.08675,-0.23799 0.33761,-0.0858 0.67235,-0.18273 1.01107,-0.26398 0.30301,-0.0803 0.59795,-0.1883 0.90105,-0.26741 0.31653,-0.10692 0.64464,-0.16768 0.9689,-0.24499 0.3254,-0.0842 0.65636,-0.14644 0.98215,-0.22831 0.3182,-0.0667 0.63504,-0.13678 0.95231,-0.20805 0.31067,-0.0603 0.61875,-0.13237 0.92319,-0.21865 0.28118,-0.062 0.55551,-0.15007 0.83752,-0.20845 0.26538,-0.078 0.53575,-0.13369 0.80211,-0.2077 0.26926,-0.0563 0.53173,-0.13896 0.80133,-0.19378 0.2705,-0.0285 0.53404,-0.0952 0.80179,-0.14064 0.1361,-0.0115 0.26835,-0.0467 0.40086,-0.0777 0,0 0.13088,0.0177 0.13088,0.0177 v 0 c -0.13254,0.0312 -0.26461,0.0679 -0.40095,0.0785 -0.26791,0.0447 -0.53104,0.11319 -0.80175,0.14023 -0.26981,0.0537 -0.53179,0.13743 -0.80122,0.19282 -0.2665,0.0741 -0.53692,0.12973 -0.80223,0.20861 -0.28228,0.0573 -0.5562,0.14633 -0.8376,0.20744 -0.30447,0.0864 -0.61233,0.15978 -0.92323,0.2194 -0.3174,0.0707 -0.63384,0.14233 -0.95235,0.20767 -0.32541,0.0833 -0.65712,0.14332 -0.98229,0.22848 -0.32421,0.0773 -0.65242,0.13736 -0.96874,0.24475 -0.30354,0.0777 -0.59825,0.18692 -0.90123,0.26764 -0.33897,0.0805 -0.6737,0.17782 -1.0112,0.26427 -0.36289,0.0774 -0.72159,0.1725 -1.08708,0.2386 -0.40917,0.0663 -0.81004,0.16984 -1.2138,0.26248 -0.42732,0.11163 -0.85823,0.21099 -1.29011,0.30344 -0.43053,0.0784 -0.85759,0.17555 -1.28538,0.26748 -0.43066,0.0814 -0.85815,0.18028 -1.2836,0.28523 -0.44099,0.0957 -0.87161,0.23289 -1.31386,0.3239 -0.44468,0.12091 -0.88789,0.24673 -1.33637,0.35339 -0.45081,0.10884 -0.88955,0.25979 -1.33621,0.38379 -0.44195,0.13742 -0.88788,0.2632 -1.33579,0.37935 -0.44633,0.12227 -0.90061,0.21463 -1.34093,0.35855 -0.46509,0.13277 -0.92744,0.27484 -1.39168,0.41069 -0.4856,0.14092 -0.96564,0.30122 -1.44711,0.45551 -0.48256,0.14131 -0.97063,0.26269 -1.45407,0.40087 -0.47472,0.14279 -0.95434,0.26884 -1.43198,0.40122 -0.49557,0.13579 -0.99245,0.26679 -1.48837,0.40119 -0.51538,0.13592 -1.03317,0.26287 -1.55051,0.39098 -0.54358,0.13777 -1.09348,0.2462 -1.64517,0.34618 -0.54785,0.12387 -1.09043,0.27052 -1.63437,0.41036 -0.57232,0.14336 -1.14037,0.30322 -1.71034,0.45557 -0.56889,0.13875 -1.13746,0.27853 -1.7068,0.41538 -0.60565,0.15436 -1.21147,0.30847 -1.81793,0.45929 -0.57134,0.12512 -1.13918,0.26869 -1.69883,0.43895 -0.53539,0.15142 -1.07038,0.30279 -1.61262,0.42868 -0.56868,0.15291 -1.1394,0.29805 -1.70606,0.4585 -0.57996,0.16722 -1.16675,0.31002 -1.74425,0.48611 -0.5535,0.14977 -1.10235,0.31513 -1.65556,0.46559 -0.58543,0.14325 -1.16833,0.29847 -1.74613,0.46986 -0.60769,0.16078 -1.21783,0.31252 -1.82749,0.46554 -0.61644,0.13852 -1.22823,0.29776 -1.83583,0.47079 -0.63299,0.15986 -1.26644,0.31812 -1.89952,0.47745 -0.66235,0.15172 -1.32002,0.3236 -1.9864,0.45735 -0.64611,0.1486 -1.29106,0.30144 -1.93512,0.4586 -0.59709,0.129 -1.19049,0.27686 -1.77754,0.44594 -0.58836,0.15944 -1.17504,0.32508 -1.76078,0.49385 -0.57263,0.17595 -1.14911,0.34111 -1.72945,0.48956 -0.54577,0.15361 -1.09024,0.31079 -1.636964,0.46089 -0.511578,0.14184 -1.014498,0.31311 -1.529536,0.4425 -0.489913,0.14207 -0.983088,0.2718 -1.475007,0.40664 -0.513323,0.15382 -1.029036,0.299 -1.543309,0.44956 -0.518737,0.15841 -1.048268,0.27752 -1.566272,0.43863 -0.484307,0.14222 -0.956927,0.32222 -1.447348,0.44319 -0.45825,0.13337 -0.917093,0.26444 -1.375397,0.39769 -0.404817,0.12955 -0.812564,0.25015 -1.218737,0.37508 -0.395422,0.12836 -0.794252,0.24597 -1.179573,0.40378 0,0 -0.131347,-0.0154 -0.131347,-0.0154 z"
       inkscape:connector-curvature="0" />
    <path
       style="opacity:1;fill:#a70c8b;fill-opacity:1;fill-rule:nonzero;stroke:#a70c8b;stroke-width:0.2;stroke-linecap:round;stroke-linejoin:round;stroke-miterlimit:4;stroke-dasharray:none;stroke-dashoffset:0;stroke-opacity:1;paint-order:markers fill stroke"
       id="path4653"
       d="m 162.14515,224.49909 c 0.37911,-0.19168 0.74997,-0.39758 1.12001,-0.60588 0.28677,-0.18261 0.58467,-0.34937 0.86737,-0.53816 0.19265,-0.12871 0.40234,-0.22796 0.60272,-0.34286 0.0956,-0.0516 0.18841,-0.10731 0.28422,-0.15856 0,0 0.13154,0.0143 0.13154,0.0143 v 0 c -0.096,0.0508 -0.18824,0.10695 -0.28401,0.15809 -0.19919,0.11671 -0.41072,0.21284 -0.60313,0.34195 -0.28219,0.19014 -0.5818,0.35508 -0.86809,0.53913 -0.37012,0.20764 -0.74014,0.41459 -1.1192,0.60587 0,0 -0.13143,-0.0139 -0.13143,-0.0139 z"
       inkscape:connector-curvature="0" />
    <path
       style="opacity:1;fill:none;fill-opacity:1;fill-rule:nonzero;stroke:#0617a2;stroke-width:0.2;stroke-linecap:round;stroke-linejoin:round;stroke-miterlimit:4;stroke-dasharray:0.2, 0.59999999999999998;stroke-dashoffset:0;stroke-opacity:1;paint-order:markers fill stroke"
       id="path4685"
       d="m 100.23833,230.65826 c 0.26635,0.24806 0.54434,0.48302 0.81709,0.7241 0.24164,0.21038 0.45134,0.4525 0.65825,0.69615 0.18728,0.23634 0.33763,0.49974 0.52724,0.73369 0.16361,0.2083 0.31857,0.42258 0.47426,0.63685 0.15336,0.21292 0.32099,0.41578 0.46149,0.63778 0.13043,0.22563 0.27994,0.4397 0.40999,0.66562 0.1509,0.23383 0.24253,0.49809 0.35842,0.74959 0.11602,0.26101 0.20274,0.53332 0.3023,0.80059 0.0884,0.26412 0.16449,0.53321 0.23352,0.80323 0.0622,0.26793 0.14016,0.53004 0.18198,0.80252 0.0145,0.27102 0.0782,0.53454 0.12066,0.80177 0.0189,0.27126 0.0868,0.53434 0.13155,0.80175 0.0125,0.24638 0.0865,0.48072 0.13382,0.72112 0.0429,0.24814 0.0484,0.50047 0.0531,0.75161 0.002,0.13278 0.002,0.26557 0.002,0.39836 0,0 -0.13211,2e-5 -0.13211,2e-5 v 0 c -2e-4,-0.13271 -2.6e-4,-0.26543 -0.002,-0.39813 -0.005,-0.25037 -0.0102,-0.50194 -0.0533,-0.74928 -0.0476,-0.24044 -0.12083,-0.47507 -0.13359,-0.7215 -0.0448,-0.26743 -0.11252,-0.53059 -0.13156,-0.80187 -0.0425,-0.26723 -0.10602,-0.53081 -0.12067,-0.80183 -0.0419,-0.27201 -0.11995,-0.5337 -0.18191,-0.80124 -0.0691,-0.26953 -0.14478,-0.53825 -0.23343,-0.80183 -0.0991,-0.2671 -0.18625,-0.53892 -0.30224,-0.7996 -0.11546,-0.25132 -0.20769,-0.51491 -0.35854,-0.74836 -0.13055,-0.2254 -0.27911,-0.43989 -0.40995,-0.66506 -0.14113,-0.22127 -0.30813,-0.42434 -0.46148,-0.63696 -0.15552,-0.21407 -0.31037,-0.42824 -0.47397,-0.63621 -0.18834,-0.23485 -0.33971,-0.49729 -0.52722,-0.73335 -0.20658,-0.24313 -0.41629,-0.48455 -0.65767,-0.69431 -0.27316,-0.24117 -0.55112,-0.47675 -0.81799,-0.72484 0,0 0.13194,-0.0104 0.13194,-0.0104 z"
       inkscape:connector-curvature="0" />
    <path
       style="opacity:1;fill:#a70c8b;fill-opacity:1;fill-rule:nonzero;stroke:#0617a2;stroke-width:0.2;stroke-linecap:round;stroke-linejoin:round;stroke-miterlimit:4;stroke-dasharray:none;stroke-dashoffset:0;stroke-opacity:1;paint-order:markers fill stroke"
       id="path4713"
       d="m 100.04095,230.42721 c 0.0521,0.37572 0.14381,0.74408 0.1991,1.11959 0.0178,0.29854 0.0861,0.5892 0.13318,0.88363 0.0111,0.0394 0.0236,0.0784 0.0333,0.1182 0.0819,0.33627 -0.09,0.20402 -0.14155,0.009 -0.048,-0.24906 -0.1255,-0.49041 -0.1758,-0.73906 -0.0787,-0.26688 -0.134897,-0.53873 -0.20943,-0.80664 -0.03778,-0.20329 -0.151763,-0.46034 -0.03726,-0.65599 0.21209,-0.1225 0.48581,0.0281 0.69597,0.0975 0.26583,0.1019 0.52057,0.22675 0.7946,0.30579 0.22533,0.0968 0.4622,0.15855 0.69575,0.23135 0.16313,0.0432 0.0846,0.0173 0.23604,0.0766 0,0 -0.13131,0.0159 -0.13131,0.0159 v 0 c -0.15143,-0.0575 -0.0729,-0.0319 -0.23585,-0.0757 -0.23341,-0.073 -0.46994,-0.13535 -0.69557,-0.23112 -0.27352,-0.0806 -0.52836,-0.20581 -0.79478,-0.30625 -0.19868,-0.0662 -0.31721,-0.16784 -0.432106,-0.10663 -0.120888,0.18545 0.0031,0.4495 0.03651,0.64507 0.0746,0.26821 0.13089,0.54037 0.20949,0.80758 0.0504,0.24837 0.12772,0.48956 0.17627,0.73827 0.0327,0.12287 0.0554,0.0923 -0.0917,0.16584 -0.0218,0.0109 -0.008,-0.0481 -0.0127,-0.072 -0.006,-0.0319 -0.0111,-0.0639 -0.0187,-0.0954 -0.01,-0.0402 -0.0221,-0.0798 -0.0331,-0.1197 -0.0471,-0.29446 -0.11504,-0.58523 -0.13276,-0.8838 -0.0551,-0.37561 -0.146306,-0.74406 -0.199799,-1.11964 0,0 0.132319,-0.002 0.132319,-0.002 z"
       inkscape:connector-curvature="0" />
    <path
       style="opacity:1;fill:none;fill-opacity:1;fill-rule:nonzero;stroke:#0617a2;stroke-width:0.2;stroke-linecap:round;stroke-linejoin:round;stroke-miterlimit:4;stroke-dasharray:0.2, 0.59999999999999998;stroke-dashoffset:0;stroke-opacity:1;paint-order:markers fill stroke"
       id="path4715"
       d="m 74.031553,231.82007 c 0.167934,-0.30492 0.340879,-0.60547 0.529175,-0.89833 0.146325,-0.21003 0.315047,-0.39804 0.49045,-0.58324 0.195996,-0.22678 0.412525,-0.43251 0.626949,-0.64104 0.189055,-0.19619 0.396079,-0.37301 0.60379,-0.54894 0.2569,-0.1728 0.490479,-0.37596 0.736253,-0.56325 0.215228,-0.19014 0.451771,-0.35387 0.674661,-0.53422 0.193792,-0.15368 0.408072,-0.27841 0.598697,-0.43596 0.198667,-0.15765 0.398499,-0.31206 0.615055,-0.44454 0.194204,-0.14189 0.407453,-0.25314 0.611511,-0.3799 0.191053,-0.11521 0.381815,-0.22983 0.57504,-0.34175 0.196556,-0.11718 0.401878,-0.22444 0.613219,-0.31297 0.244277,-0.10343 0.482981,-0.21887 0.723998,-0.32952 0.257167,-0.1203 0.528111,-0.19655 0.798036,-0.28019 0.266473,-0.074 0.534199,-0.14425 0.802823,-0.21065 0.268105,-0.06 0.529995,-0.13844 0.801994,-0.18091 0.178075,-0.0204 0.08897,-0.0117 0.267333,-0.0259 0,0 0.130632,0.0197 0.130632,0.0197 v 0 c -0.178276,0.0136 -0.08921,0.005 -0.267202,0.0249 -0.272201,0.0413 -0.533922,0.11938 -0.801865,0.17975 -0.268729,0.0656 -0.535977,0.13724 -0.802743,0.20985 -0.269275,0.0847 -0.541039,0.15783 -0.797862,0.27851 -0.241252,0.11012 -0.47948,0.22654 -0.723707,0.33005 -0.21168,0.0867 -0.416499,0.19483 -0.612941,0.31126 -0.193646,0.11119 -0.383824,0.22657 -0.575125,0.34129 -0.203796,0.12753 -0.417904,0.23739 -0.611807,0.38001 -0.216863,0.1312 -0.415872,0.28571 -0.614532,0.44263 -0.18956,0.15909 -0.40482,0.28268 -0.598992,0.43609 -0.222306,0.18131 -0.460291,0.34361 -0.675027,0.53462 -0.246142,0.18638 -0.478057,0.39141 -0.735877,0.56258 -0.20742,0.17601 -0.415132,0.35174 -0.603854,0.54802 -0.213923,0.20873 -0.431548,0.41311 -0.626657,0.64051 -0.174615,0.18508 -0.344149,0.37142 -0.490495,0.58079 -0.188426,0.2928 -0.363244,0.59222 -0.528842,0.89856 0,0 -0.132088,-0.008 -0.132088,-0.008 z"
       inkscape:connector-curvature="0" />
    <path
       style="opacity:1;fill:#a70c8b;fill-opacity:1;fill-rule:nonzero;stroke:#0617a2;stroke-width:0.2;stroke-linecap:round;stroke-linejoin:round;stroke-miterlimit:4;stroke-dasharray:none;stroke-dashoffset:0;stroke-opacity:1;paint-order:markers fill stroke"
       id="path4723"
       d="m 74.117114,231.2725 c 0.05327,-0.37108 0.0833,-0.74482 0.102958,-1.11902 0.0021,-0.0544 0.0044,-0.10882 0.0063,-0.16324 0.0024,-0.0647 0.0039,-0.1295 0.0063,-0.19423 2.65e-4,-0.007 -0.0056,-0.0243 0.0013,-0.0218 0.160872,0.0588 0.133845,0.0368 0.134152,0.16299 -0.0051,0.25165 -0.06702,0.49871 -0.09772,0.74854 -0.02939,0.2683 -0.03374,0.53839 -0.03684,0.80801 0.009,0.0595 0.0024,0.11453 0.05316,0.15612 0.01683,0.0138 0.06816,0.005 0.06016,0.0252 -0.0083,0.0209 -0.07313,0.0141 -0.06713,-0.008 0.0069,-0.0249 0.0507,-0.011 0.07481,-0.0202 0.03008,-0.0115 0.05805,-0.028 0.08708,-0.0419 0.2183,-0.12851 0.411483,-0.29273 0.623697,-0.43032 0.195471,-0.1466 0.399346,-0.28105 0.602041,-0.41721 0.179303,-0.12473 0.378195,-0.2011 0.576294,-0.28749 0.09091,-0.0468 0.183933,-0.0739 0.284253,-0.0884 0,0 0.131222,0.019 0.131222,0.019 v 0 c -0.100806,0.0116 -0.192915,0.0375 -0.2839,0.0847 -0.196697,0.0881 -0.397778,0.1595 -0.576205,0.28519 -0.203239,0.13546 -0.40682,0.27062 -0.602223,0.41741 -0.213185,0.13665 -0.406143,0.30138 -0.623472,0.43185 -0.179493,0.0913 -0.465855,0.15258 -0.471884,-0.12644 0.0031,-0.27011 0.0075,-0.54068 0.03686,-0.80947 0.03054,-0.24928 0.09233,-0.49583 0.09721,-0.74688 -5.29e-4,-0.12644 -0.02756,-0.10212 0.131821,-0.1621 0.0067,-0.003 -0.0016,0.0142 -0.0019,0.0213 -0.0061,0.11916 -0.0075,0.23853 -0.01384,0.35768 -0.01992,0.37456 -0.05058,0.74855 -0.102272,1.1202 0,0 -0.132329,-0.002 -0.132329,-0.002 z"
       inkscape:connector-curvature="0" />
    <path
       style="opacity:1;fill:none;fill-opacity:1;fill-rule:nonzero;stroke:#000000;stroke-width:0.5;stroke-linecap:round;stroke-linejoin:round;stroke-miterlimit:4;stroke-dasharray:none;stroke-dashoffset:0;stroke-opacity:1;paint-order:markers fill stroke"
       id="path4770"
       d="m 114.95402,247.22838 c 0.33178,0.29639 0.70062,0.54355 1.07689,0.77865 0.30357,0.19884 0.61456,0.38735 0.93679,0.55448 0.20441,0.10861 0.41195,0.21078 0.5985,0.3488 0,0 -0.13171,0.0124 -0.13171,0.0124 v 0 c -0.18718,-0.1361 -0.39378,-0.23875 -0.59783,-0.34684 -0.32169,-0.16823 -0.63273,-0.35647 -0.9362,-0.55558 -0.37669,-0.23573 -0.74491,-0.48471 -1.07814,-0.78033 0,0 0.1317,-0.0116 0.1317,-0.0116 z"
       inkscape:connector-curvature="0" />
    <path
       style="opacity:1;fill:none;fill-opacity:1;fill-rule:nonzero;stroke:#000000;stroke-width:0.5;stroke-linecap:round;stroke-linejoin:round;stroke-miterlimit:4;stroke-dasharray:none;stroke-dashoffset:0;stroke-opacity:1;paint-order:markers fill stroke"
       id="path4772"
       d="m 116.93252,246.58586 c -0.21858,0.33256 -0.39718,0.68508 -0.54578,1.05367 -0.12863,0.32262 -0.27293,0.63819 -0.41489,0.955 -0.13758,0.26639 -0.24676,0.54833 -0.41502,0.79739 -0.0252,0.0371 -0.0503,0.0741 -0.0755,0.1112 0,0 -0.13187,-0.008 -0.13187,-0.008 v 0 c 0.0252,-0.0371 0.0504,-0.0741 0.0756,-0.1112 0.16948,-0.24749 0.27706,-0.52964 0.41505,-0.79506 0.14186,-0.31675 0.28677,-0.63194 0.41539,-0.95447 0.14861,-0.36936 0.3274,-0.72239 0.54493,-1.05642 0,0 0.13209,0.008 0.13209,0.008 z"
       inkscape:connector-curvature="0" />
    <path
       style="opacity:1;fill:none;fill-opacity:1;fill-rule:nonzero;stroke:#000000;stroke-width:0.5;stroke-linecap:round;stroke-linejoin:round;stroke-miterlimit:4;stroke-dasharray:none;stroke-dashoffset:0;stroke-opacity:1;paint-order:markers fill stroke"
       id="path4778"
       d="m 87.794387,213.5703 c 0.212053,0.29481 0.442185,0.57947 0.692939,0.84254 0.08741,0.0769 0.200437,0.16654 0.328617,0.13732 0.01005,-0.002 -0.02,-0.0222 -0.01191,-0.0285 0.03573,-0.0283 0.08424,-0.0356 0.123076,-0.0594 0.03937,-0.0241 0.07358,-0.0558 0.110377,-0.0837 0.220228,-0.15965 0.359029,-0.39731 0.495622,-0.6272 0.128636,-0.21297 0.21176,-0.44386 0.307642,-0.67138 0.195942,-0.33189 0.354912,0.10069 0.412001,0.25228 0.09848,0.28247 0.199964,0.56484 0.312799,0.84201 0.142377,0.38371 0.2907,0.76575 0.451283,1.14235 0.171855,0.41814 0.339077,0.83821 0.529463,1.24833 0.17543,0.35393 0.309753,0.72373 0.439325,1.09625 0.09042,0.28187 0.151522,0.57587 0.133607,0.87247 -0.02191,0.26285 -0.138422,0.49502 -0.306885,0.69346 -0.20288,0.18674 -0.439978,0.31446 -0.714449,0.34612 -0.328369,0.0234 -0.632942,-0.0749 -0.918522,-0.22918 -0.21893,-0.11198 -0.420841,-0.26123 -0.566518,-0.46054 -0.12804,-0.19536 -0.181179,-0.37696 -0.180181,-0.6085 -0.0013,-0.27782 0.124552,-0.53134 0.261725,-0.76585 0.193226,-0.29616 0.441005,-0.55063 0.68566,-0.80396 0.277172,-0.2851 0.599631,-0.51625 0.859838,-0.81805 0.112792,-0.14725 0.237696,-0.28403 0.355383,-0.42727 0,0 0.131376,0.009 0.131376,0.009 v 0 c -0.117703,0.14344 -0.243268,0.27979 -0.355711,0.42753 -0.259271,0.3031 -0.581795,0.53417 -0.859766,0.81884 -0.244147,0.25254 -0.491474,0.5061 -0.685086,0.80085 -0.136649,0.23211 -0.26243,0.48345 -0.261075,0.75892 -7.94e-4,0.22856 0.05255,0.40764 0.179925,0.60003 0.146746,0.19676 0.347887,0.34376 0.565764,0.45472 0.205832,0.10877 0.426026,0.19022 0.656478,0.22411 0.273974,-0.026 0.509366,-0.15315 0.713378,-0.33616 0.168476,-0.19489 0.284374,-0.42496 0.306591,-0.68493 0.01812,-0.2948 -0.04337,-0.5871 -0.133075,-0.86726 -0.129325,-0.3721 -0.263665,-0.74137 -0.438737,-1.09496 -0.190302,-0.41028 -0.357307,-0.83058 -0.529434,-1.24874 -0.160642,-0.37673 -0.309121,-0.75884 -0.451951,-1.14254 -0.112641,-0.27744 -0.214698,-0.55972 -0.313388,-0.84232 -0.0029,-0.008 -0.07255,-0.19329 -0.08036,-0.20824 -0.01453,-0.0278 -0.05511,-0.0464 -0.053,-0.0777 0.0019,-0.0277 0.04414,-0.0344 0.06202,-0.0557 0.02527,-0.0301 -0.178629,0.13756 -0.0762,0.09 -0.09713,0.22753 -0.178631,0.45992 -0.308084,0.67313 -0.136564,0.2312 -0.275751,0.47089 -0.495961,0.63221 -0.246012,0.19198 -0.570428,0.26984 -0.813163,0.0322 -0.250047,-0.26474 -0.480755,-0.54949 -0.693502,-0.84476 0,0 0.132088,-0.008 0.132088,-0.008 z"
       inkscape:connector-curvature="0" />
    <path
       style="opacity:1;fill:none;fill-opacity:1;fill-rule:nonzero;stroke:#0617a2;stroke-width:0.5;stroke-linecap:round;stroke-linejoin:round;stroke-miterlimit:4;stroke-dasharray:none;stroke-dashoffset:0;stroke-opacity:1;paint-order:markers fill stroke"
       id="path4794"
       d="m 110.39455,222.92403 c 0.29758,0.34979 0.59791,0.69838 0.92967,1.01632 0.30596,0.30666 0.66613,0.54652 1.0351,0.76985 0.26809,0.18272 0.56724,0.3071 0.85479,0.45267 0.0377,0.0181 0.0754,0.0362 0.11302,0.0543 0,0 -0.13137,0.0148 -0.13137,0.0148 v 0 c -0.0376,-0.0182 -0.0753,-0.0364 -0.11293,-0.0545 -0.28835,-0.14426 -0.58564,-0.27205 -0.85425,-0.45378 -0.36877,-0.22471 -0.72901,-0.46513 -1.03486,-0.77277 -0.33157,-0.31906 -0.63208,-0.66821 -0.93106,-1.01767 0,0 0.13189,-0.009 0.13189,-0.009 z"
       inkscape:connector-curvature="0" />
    <path
       style="opacity:1;fill:none;fill-opacity:1;fill-rule:nonzero;stroke:#0617a2;stroke-width:0.5;stroke-linecap:round;stroke-linejoin:round;stroke-miterlimit:4;stroke-dasharray:none;stroke-dashoffset:0;stroke-opacity:1;paint-order:markers fill stroke"
       id="path4796"
       d="m 112.50651,221.98238 c -0.27651,0.33832 -0.5082,0.71096 -0.70904,1.09824 -0.19778,0.39129 -0.3922,0.78469 -0.57647,1.18257 -0.17285,0.34564 -0.35328,0.68715 -0.53436,1.02862 -0.0817,0.14438 -0.15721,0.29069 -0.24457,0.4317 0,0 -0.1317,-0.007 -0.1317,-0.007 v 0 c 0.0879,-0.1405 0.1631,-0.28663 0.24488,-0.43076 0.18099,-0.34134 0.3615,-0.68258 0.53461,-1.02791 0.18427,-0.39811 0.37907,-0.79157 0.57679,-1.18313 0.20066,-0.38853 0.43356,-0.76116 0.70793,-1.10237 0,0 0.13193,0.0104 0.13193,0.0104 z"
       inkscape:connector-curvature="0" />
    <path
       style="opacity:1;fill:none;fill-opacity:1;fill-rule:nonzero;stroke:#0617a2;stroke-width:0.5;stroke-linecap:round;stroke-linejoin:round;stroke-miterlimit:4;stroke-dasharray:none;stroke-dashoffset:0;stroke-opacity:1;paint-order:markers fill stroke"
       id="path4798"
       d="m 113.78936,220.27191 c -7.9e-4,0.39337 -5.3e-4,0.78675 -5.3e-4,1.18013 1.4e-4,0.31747 2.6e-4,0.63494 2.7e-4,0.95241 0,0 -0.13203,0 -0.13203,0 v 0 c 6e-5,-0.31747 1.8e-4,-0.63494 2.7e-4,-0.95241 1.2e-4,-0.39338 2.6e-4,-0.78676 -5.3e-4,-1.18013 0,0 0.13235,0 0.13235,0 z"
       inkscape:connector-curvature="0" />
    <path
       style="opacity:1;fill:none;fill-opacity:1;fill-rule:nonzero;stroke:#0617a2;stroke-width:0.5;stroke-linecap:round;stroke-linejoin:round;stroke-miterlimit:4;stroke-dasharray:none;stroke-dashoffset:0;stroke-opacity:1;paint-order:markers fill stroke"
       id="path4800"
       d="m 68.834161,219.70021 c 0.281551,0.27515 0.560104,0.55491 0.853461,0.81758 0.231312,0.19659 0.468886,0.4106 0.782923,0.42808 -0.0049,-0.009 -0.02217,-0.0193 -0.01466,-0.0257 0.0314,-0.0267 0.07606,-0.0329 0.110392,-0.0557 0.148939,-0.0989 0.210749,-0.25852 0.28243,-0.41375 0.112908,-0.25196 0.14815,-0.52448 0.168709,-0.79691 -0.0016,-0.11897 -0.01794,-0.62493 0.240236,-0.22146 0.12125,0.28331 0.216006,0.57673 0.328771,0.86327 0.129331,0.38272 0.295894,0.75123 0.438526,1.12906 0.152667,0.37445 0.274344,0.75899 0.401418,1.1423 0.109217,0.32968 0.161877,0.67218 0.189687,1.01712 0.0334,0.28946 -0.05779,0.55753 -0.215495,0.7961 -0.233619,0.27917 -0.470368,0.28559 -0.811969,0.28017 -0.275733,-0.0232 -0.540933,-0.1161 -0.801632,-0.20433 -0.209672,-0.094 -0.416084,-0.20162 -0.560321,-0.3844 -0.109323,-0.25559 0.02736,-0.47686 0.169812,-0.6856 0.195188,-0.30343 0.465508,-0.54907 0.721762,-0.7999 0.248772,-0.2684 0.536268,-0.49457 0.803045,-0.7432 0.137713,-0.1351 0.261083,-0.28505 0.379121,-0.43751 0,0 0.131871,0.009 0.131871,0.009 v 0 c -0.118012,0.15329 -0.242194,0.30341 -0.379663,0.43961 -0.266081,0.24933 -0.555162,0.47382 -0.80335,0.74287 -0.255733,0.25019 -0.526097,0.49489 -0.721166,0.79736 -0.139372,0.20261 -0.278797,0.41967 -0.169254,0.66875 0.145288,0.179 0.350633,0.28547 0.559136,0.37695 0.260323,0.0881 0.525624,0.17966 0.801237,0.20049 0.208812,-0.008 0.407549,-0.0935 0.549503,-0.2677 0.157816,-0.23541 0.248647,-0.50039 0.215463,-0.78729 -0.0276,-0.3439 -0.07995,-0.6854 -0.189206,-1.01397 -0.126611,-0.38327 -0.248753,-0.76745 -0.401174,-1.14177 -0.142709,-0.37777 -0.309219,-0.74626 -0.438841,-1.12887 -0.112255,-0.28596 -0.206634,-0.5788 -0.329784,-0.86055 -0.05058,-0.0764 -0.08425,-0.0804 0.05336,-0.10748 0.01011,-0.002 -0.01453,0.0159 -0.01677,0.0259 -0.0043,0.019 -0.0013,0.0389 -0.0021,0.0584 -0.0052,0.14231 -0.0026,0.0759 -0.01013,0.23798 -0.02061,0.27394 -0.05595,0.54801 -0.16882,0.80162 -0.138912,0.30222 -0.26914,0.5133 -0.640763,0.50921 -0.313574,-0.0259 -0.551849,-0.23886 -0.783413,-0.43683 -0.292748,-0.2639 -0.571926,-0.54331 -0.854265,-0.81822 0,0 0.131934,-0.0104 0.131934,-0.0104 z"
       inkscape:connector-curvature="0" />
    <path
       style="opacity:1;fill:none;fill-opacity:1;fill-rule:nonzero;stroke:#0617a2;stroke-width:0.5;stroke-linecap:round;stroke-linejoin:round;stroke-miterlimit:4;stroke-dasharray:none;stroke-dashoffset:0;stroke-opacity:1;paint-order:markers fill stroke"
       id="path4802"
       d="m 72.897123,217.46558 c 0.03348,0.37522 0.07322,0.74885 0.14708,1.11831 0.06537,0.29108 0.09629,0.5873 0.111958,0.88467 0.0061,0.17974 0.0037,0.09 0.0073,0.26914 0,0 -0.132101,2.7e-4 -0.132101,2.7e-4 v 0 c -0.0036,-0.17886 -0.0013,-0.0893 -0.0072,-0.26872 -0.01561,-0.29672 -0.04645,-0.59228 -0.111471,-0.88277 -0.07368,-0.3704 -0.112848,-0.74496 -0.147852,-1.1209 0,0 0.132355,0 0.132355,0 z"
       inkscape:connector-curvature="0" />
    <path
       style="opacity:1;fill:none;fill-opacity:1;fill-rule:nonzero;stroke:#a70c8b;stroke-width:0.5;stroke-linecap:round;stroke-linejoin:round;stroke-miterlimit:4;stroke-dasharray:none;stroke-dashoffset:0;stroke-opacity:1;paint-order:markers fill stroke"
       id="path4812"
       d="m 193.78264,200.47339 c 0.28774,0.39427 0.60816,0.76249 0.91369,1.14256 0.26771,0.34543 0.55457,0.67485 0.85211,0.99469 0.26034,0.2627 0.51077,0.53446 0.76537,0.80234 0,0 -0.1314,0.01 -0.1314,0.01 v 0 c -0.25383,-0.26859 -0.50538,-0.53912 -0.76496,-0.80249 -0.29736,-0.3202 -0.58383,-0.65012 -0.85162,-0.99567 -0.30596,-0.37999 -0.62508,-0.74946 -0.91508,-1.14223 0,0 0.13189,-0.009 0.13189,-0.009 z"
       inkscape:connector-curvature="0" />
    <path
       style="opacity:1;fill:none;fill-opacity:1;fill-rule:nonzero;stroke:#a70c8b;stroke-width:0.5;stroke-linecap:round;stroke-linejoin:round;stroke-miterlimit:4;stroke-dasharray:none;stroke-dashoffset:0;stroke-opacity:1;paint-order:markers fill stroke"
       id="path4814"
       d="m 196.0443,200.08096 c -0.20296,0.36832 -0.38467,0.74985 -0.568,1.12889 -0.15171,0.37758 -0.35141,0.73154 -0.57823,1.06842 -0.24839,0.32909 -0.50309,0.65388 -0.76885,0.96924 -0.19025,0.2473 -0.43119,0.44426 -0.65314,0.66052 0,0 -0.13133,-0.0105 -0.13133,-0.0105 v 0 c 0.22136,-0.21654 0.46356,-0.41186 0.65352,-0.65921 0.26579,-0.31484 0.51988,-0.63957 0.76873,-0.96784 0.22704,-0.33606 0.42677,-0.68948 0.5783,-1.06653 0.18337,-0.3795 0.36626,-0.76071 0.56691,-1.13076 0,0 0.13209,0.008 0.13209,0.008 z"
       inkscape:connector-curvature="0" />
    <path
       style="opacity:1;fill:none;fill-opacity:1;fill-rule:nonzero;stroke:#a70c8b;stroke-width:0.5;stroke-linecap:round;stroke-linejoin:round;stroke-miterlimit:4;stroke-dasharray:none;stroke-dashoffset:0;stroke-opacity:1;paint-order:markers fill stroke"
       id="path4816"
       d="m 198.19846,198.09121 c -0.15278,0.35786 -0.24739,0.73477 -0.3081,1.11797 -0.0184,0.29809 -0.0828,0.58922 -0.12805,0.88369 -0.0198,0.13322 -0.0288,0.26757 -0.0376,0.40184 0,0 -0.1321,-7.9e-4 -0.1321,-7.9e-4 v 0 c 0.009,-0.13465 0.0178,-0.26939 0.0376,-0.40299 0.0452,-0.29452 0.10994,-0.58562 0.12848,-0.88374 0.061,-0.38418 0.15615,-0.76183 0.30758,-1.12126 0,0 0.13213,0.005 0.13213,0.005 z"
       inkscape:connector-curvature="0" />
    <path
       style="opacity:1;fill:none;fill-opacity:1;fill-rule:nonzero;stroke:#a70c8b;stroke-width:0.5;stroke-linecap:round;stroke-linejoin:round;stroke-miterlimit:4;stroke-dasharray:none;stroke-dashoffset:0;stroke-opacity:1;paint-order:markers fill stroke"
       id="path4818"
       d="m 199.18197,198.08854 c 0.0164,0.41257 -0.0118,0.82068 -0.061,1.22981 -0.0301,0.31034 -0.11124,0.61282 -0.20337,0.90969 -0.0722,0.18266 -0.0316,0.0924 -0.1225,0.27046 0,0 -0.13176,-0.006 -0.13176,-0.006 v 0 c 0.0908,-0.17641 0.0502,-0.087 0.12233,-0.26819 0.092,-0.29611 0.17357,-0.5977 0.20382,-0.90729 0.0495,-0.40857 0.0785,-0.81617 0.0601,-1.22824 0,0 0.13235,0 0.13235,0 z"
       inkscape:connector-curvature="0" />
    <path
       style="opacity:1;fill:none;fill-opacity:1;fill-rule:nonzero;stroke:#a70c8b;stroke-width:0.5;stroke-linecap:round;stroke-linejoin:round;stroke-miterlimit:4;stroke-dasharray:none;stroke-dashoffset:0;stroke-opacity:1;paint-order:markers fill stroke"
       id="path4822"
       d="m 150.7204,199.28858 c 0.16231,0.35724 0.33975,0.70733 0.55139,1.03805 0.16278,0.25318 0.37056,0.45766 0.67657,0.4967 -0.0128,-0.005 -0.049,-0.006 -0.0383,-0.0144 0.0247,-0.0194 0.0614,-0.0143 0.0903,-0.0265 0.13494,-0.0573 0.21662,-0.17998 0.29995,-0.2932 0.12054,-0.21372 0.2375,-0.43216 0.30934,-0.66772 0.0198,-0.10081 0.22605,-0.59026 0.32149,-0.18434 0.0621,0.28765 0.11866,0.57528 0.20327,0.8575 0.10249,0.39361 0.26705,0.76715 0.40725,1.14812 0.15977,0.39312 0.27989,0.79883 0.40131,1.20459 0.10314,0.36713 0.18226,0.74279 0.17414,1.1252 -0.009,0.31002 -0.11397,0.59667 -0.25986,0.86605 -0.15446,0.22932 -0.38132,0.38402 -0.62743,0.50069 -0.25383,0.1185 -0.51863,0.14358 -0.79439,0.14723 -0.35543,0.007 -0.62763,-0.12482 -0.82069,-0.4203 -0.10826,-0.27614 -0.0113,-0.54181 0.10157,-0.79838 0.18683,-0.34935 0.42416,-0.67348 0.68468,-0.97134 0.29044,-0.30706 0.60055,-0.59467 0.90496,-0.88768 0.21369,-0.20094 0.41716,-0.41252 0.60893,-0.63441 0,0 0.13162,0.009 0.13162,0.009 v 0 c -0.19163,0.22257 -0.39588,0.43408 -0.60962,0.63558 -0.30427,0.29283 -0.61424,0.58023 -0.90512,0.88655 -0.26044,0.29626 -0.49646,0.61983 -0.68381,0.96738 -0.11113,0.25204 -0.20955,0.51386 -0.10132,0.78521 0.17574,0.26391 0.27719,0.27873 0.55471,0.3911 0.005,0.002 0.002,0.0109 0.004,0.0164 0.27529,-0.003 0.53968,-0.0244 0.79368,-0.14164 0.24534,-0.11369 0.47118,-0.26638 0.62669,-0.49235 0.14589,-0.2672 0.25124,-0.5516 0.26021,-0.85975 0.008,-0.38098 -0.071,-0.75541 -0.17376,-1.12111 -0.12109,-0.4056 -0.24174,-0.81085 -0.40125,-1.20377 -0.14035,-0.38125 -0.30489,-0.75507 -0.40767,-1.14892 -0.0845,-0.28256 -0.14125,-0.57047 -0.20443,-0.85817 -0.0224,-0.0897 -0.0472,-0.0899 0.0872,-0.11643 0.0134,-0.003 -0.0205,0.0186 -0.0277,0.0302 -0.0519,0.0838 -0.0722,0.18364 -0.11602,0.27129 -0.0717,0.23724 -0.1895,0.4565 -0.3096,0.67219 -0.16809,0.23048 -0.30823,0.36169 -0.61493,0.34462 -0.30587,-0.0462 -0.51384,-0.25384 -0.67687,-0.50811 -0.21137,-0.33177 -0.38839,-0.68282 -0.55219,-1.04018 0,0 0.13213,-0.005 0.13213,-0.005 z"
       inkscape:connector-curvature="0" />
    <path
       style="opacity:1;fill:none;fill-opacity:1;fill-rule:nonzero;stroke:#a70c8b;stroke-width:0.5;stroke-linecap:round;stroke-linejoin:round;stroke-miterlimit:4;stroke-dasharray:none;stroke-dashoffset:0;stroke-opacity:1;paint-order:markers fill stroke"
       id="path4824"
       d="m 155.34977,198.08854 c -0.0186,0.37582 0.0119,0.74667 0.0601,1.11876 0.0418,0.29317 0.0597,0.58863 0.0689,0.88436 0.004,0.17969 0.002,0.09 0.004,0.26906 0,0 -0.1321,1.5e-4 -0.1321,1.5e-4 v 0 c -0.002,-0.1789 -5.3e-4,-0.0893 -0.004,-0.2688 -0.009,-0.29529 -0.027,-0.59032 -0.0685,-0.88307 -0.048,-0.37269 -0.0778,-0.7441 -0.0609,-1.12046 0,0 0.13236,0 0.13236,0 z"
       inkscape:connector-curvature="0" />
    <path
       style="opacity:1;fill:none;fill-opacity:1;fill-rule:nonzero;stroke:#a70c8b;stroke-width:0.5;stroke-linecap:round;stroke-linejoin:round;stroke-miterlimit:4;stroke-dasharray:none;stroke-dashoffset:0;stroke-opacity:1;paint-order:markers fill stroke"
       id="path4826"
       d="m 156.70209,198.35487 c 0.0608,0.40105 0.14579,0.79759 0.19899,1.20018 0.0203,0.3148 0.059,0.62434 0.1133,0.9348 0.0277,0.18135 0.0206,0.0906 0.0215,0.27238 0,0 -0.13209,6e-5 -0.13209,6e-5 v 0 c -8e-4,-0.17979 0.006,-0.0897 -0.0214,-0.27015 -0.0543,-0.31065 -0.0925,-0.62041 -0.11268,-0.93536 -0.0529,-0.40266 -0.13765,-0.79917 -0.19993,-1.20003 0,0 0.13233,-0.002 0.13233,-0.002 z"
       inkscape:connector-curvature="0" />
    <path
       style="opacity:1;fill:none;fill-opacity:1;fill-rule:nonzero;stroke:#a70c8b;stroke-width:0.5;stroke-linecap:round;stroke-linejoin:round;stroke-miterlimit:4;stroke-dasharray:none;stroke-dashoffset:0;stroke-opacity:1;paint-order:markers fill stroke"
       id="path4828"
       d="m 163.97196,228.2779 c -0.21641,0.30314 -0.29321,0.65075 -0.33014,1.01377 0.0206,0.28319 0.044,0.57338 0.1133,0.84953 0.0523,0.23288 0.14236,0.4492 0.25081,0.66043 0.13149,0.20999 0.33518,0.34658 0.55545,0.44972 0.2214,0.10327 0.42034,0.0926 0.6523,0.0632 0.26535,-0.0573 0.51123,-0.18339 0.72748,-0.34533 0.20259,-0.13265 0.34237,-0.33208 0.49598,-0.51416 0.15725,-0.1965 0.26606,-0.4229 0.33617,-0.66337 0.0621,-0.2573 0.0672,-0.52303 0.0719,-0.78627 0.009,-0.26123 -0.0498,-0.51768 -0.13516,-0.76268 -0.10316,-0.25229 -0.24744,-0.48295 -0.3908,-0.71371 -0.14683,-0.2247 -0.33006,-0.39153 -0.56225,-0.52252 -0.21411,-0.11321 -0.40695,-0.0678 -0.62679,-0.017 -0.28488,0.0693 -0.50692,0.22762 -0.72202,0.41848 -0.14137,0.13799 -0.2408,0.30947 -0.3335,0.48194 0,0 -0.13181,-0.006 -0.13181,-0.006 v 0 c 0.0928,-0.17387 0.19265,-0.34671 0.33389,-0.48656 0.21536,-0.19254 0.43676,-0.35364 0.72255,-0.42504 0.29088,-0.0687 0.61057,-0.11215 0.88914,0.0208 0.23212,0.13356 0.4158,0.30284 0.56251,0.52909 0.14367,0.23164 0.28856,0.46309 0.39129,0.71661 0.0855,0.24652 0.14357,0.50473 0.13505,0.76734 -0.005,0.2644 -0.01,0.53126 -0.0719,0.78976 -0.07,0.24226 -0.17883,0.47052 -0.33642,0.66892 -0.15464,0.18197 -0.29291,0.38404 -0.49613,0.51708 -0.21573,0.16461 -0.4631,0.29099 -0.72847,0.35213 -0.30904,0.0401 -0.62156,0.0622 -0.91431,-0.0673 -0.22118,-0.10616 -0.42577,-0.24503 -0.55634,-0.45831 -0.10875,-0.2121 -0.19811,-0.42989 -0.25081,-0.66348 -0.0685,-0.27793 -0.0931,-0.56926 -0.11286,-0.85409 0.0372,-0.3648 0.11409,-0.71455 0.32979,-1.02021 0,0 0.13209,0.008 0.13209,0.008 z"
       inkscape:connector-curvature="0" />
    <path
       style="opacity:1;fill:none;fill-opacity:1;fill-rule:nonzero;stroke:#a70c8b;stroke-width:0.5;stroke-linecap:round;stroke-linejoin:round;stroke-miterlimit:4;stroke-dasharray:none;stroke-dashoffset:0;stroke-opacity:1;paint-order:markers fill stroke"
       id="path4830"
       d="m 167.24327,226.0182 c -8e-4,0.37321 -5.3e-4,0.74641 -2.7e-4,1.11961 2e-5,0.0545 4e-5,0.10889 6e-5,0.16334 0,0 -0.13177,0 -0.13177,0 v 0 c 2e-5,-0.0545 4e-5,-0.10889 6e-5,-0.16334 1.4e-4,-0.3732 5.3e-4,-0.7464 -2.6e-4,-1.11961 0,0 0.13235,0 0.13235,0 z"
       inkscape:connector-curvature="0" />
    <path
       style="opacity:1;fill:none;fill-opacity:1;fill-rule:nonzero;stroke:#a70c8b;stroke-width:0.5;stroke-linecap:round;stroke-linejoin:round;stroke-miterlimit:4;stroke-dasharray:none;stroke-dashoffset:0;stroke-opacity:1;paint-order:markers fill stroke"
       id="path4832"
       d="m 168.31234,226.15184 c -7.9e-4,0.3732 -5.3e-4,0.74641 -2.6e-4,1.11961 8e-5,0.21486 4e-5,0.10889 1.1e-4,0.31793 0,0 -0.13187,0 -0.13187,0 v 0 c 7e-5,-0.20904 3e-5,-0.10307 1.1e-4,-0.31793 1.4e-4,-0.3732 5.3e-4,-0.74641 -2.6e-4,-1.11961 0,0 0.13235,0 0.13235,0 z"
       inkscape:connector-curvature="0" />
    <path
       style="opacity:1;fill:none;fill-opacity:1;fill-rule:nonzero;stroke:#000000;stroke-width:0.5;stroke-linecap:round;stroke-linejoin:round;stroke-miterlimit:4;stroke-dasharray:none;stroke-dashoffset:0;stroke-opacity:1;paint-order:markers fill stroke"
       id="path4836"
       d="m 79.514786,246.18495 c -0.2164,0.30315 -0.293203,0.65076 -0.330139,1.01378 -0.03187,0.26504 0.04032,0.51963 0.122764,0.76817 0.10682,0.28951 0.306904,0.51806 0.529291,0.72473 0.222856,0.19682 0.495552,0.2703 0.782836,0.30772 -0.0042,-0.002 -0.01688,-0.005 -0.01244,-0.006 0.183298,-0.0386 0.336375,-0.0572 0.500112,-0.15709 0.185225,-0.10502 0.309936,-0.28208 0.432719,-0.45095 0.154834,-0.18811 0.226639,-0.42126 0.318965,-0.64256 0.08664,-0.21575 0.116282,-0.43761 0.08285,-0.66644 -0.03481,-0.24014 -0.09874,-0.4757 -0.175882,-0.70554 -0.08158,-0.28119 -0.221109,-0.53666 -0.360256,-0.79201 -0.151054,-0.24956 -0.349833,-0.4464 -0.61114,-0.57476 -0.165159,-0.0611 -0.342197,-0.1 -0.518943,-0.1045 -0.0053,-1.4e-4 0.01826,0.007 0.01331,0.009 -0.03566,0.0152 -0.07437,0.022 -0.111551,0.033 -0.260151,0.11214 -0.394774,0.34848 -0.521155,0.58678 -0.11489,0.29477 -0.21227,0.59787 -0.279561,0.9073 -0.03148,0.18994 -0.01799,0.0953 -0.04059,0.28389 0,0 -0.132004,-0.002 -0.132004,-0.002 v 0 c 0.02268,-0.1894 0.0092,-0.0943 0.04072,-0.28514 0.06743,-0.31062 0.165526,-0.61456 0.279591,-0.9109 0.127195,-0.24058 0.261665,-0.4797 0.521776,-0.59714 0.286952,-0.092 0.601877,-0.0362 0.879679,0.0647 0.261054,0.13201 0.460854,0.3313 0.6116,0.58279 0.139632,0.25594 0.278519,0.51256 0.360556,0.79432 0.07703,0.23072 0.141531,0.46691 0.176252,0.7079 0.03334,0.23111 0.0039,0.45551 -0.08302,0.67357 -0.09258,0.22211 -0.164492,0.45636 -0.31908,0.64563 -0.122592,0.17012 -0.24797,0.34931 -0.432996,0.45607 -0.227264,0.14436 -0.483521,0.17805 -0.750244,0.16827 -0.288383,-0.0395 -0.560967,-0.11684 -0.783463,-0.31584 -0.223102,-0.20866 -0.423172,-0.43994 -0.530061,-0.7313 -0.08296,-0.25034 -0.154483,-0.50692 -0.122378,-0.77374 0.03719,-0.36479 0.114091,-0.71455 0.329787,-1.02021 0,0 0.132088,0.008 0.132088,0.008 z"
       inkscape:connector-curvature="0" />
    <path
       style="opacity:1;fill:none;fill-opacity:1;fill-rule:nonzero;stroke:#000000;stroke-width:0.5;stroke-linecap:round;stroke-linejoin:round;stroke-miterlimit:4;stroke-dasharray:none;stroke-dashoffset:0;stroke-opacity:1;paint-order:markers fill stroke"
       id="path4844"
       d="m 82.534799,244.72613 c 0.05204,0.37572 0.143809,0.74408 0.199099,1.11959 0,0 -0.131615,0.002 -0.131615,0.002 v 0 c -0.0551,-0.3756 -0.14632,-0.74405 -0.199813,-1.11963 0,0 0.132329,-0.002 0.132329,-0.002 z"
       inkscape:connector-curvature="0" />
    <path
       style="opacity:1;fill:none;fill-opacity:1;fill-rule:nonzero;stroke:#0617a2;stroke-width:0.5;stroke-linecap:round;stroke-linejoin:round;stroke-miterlimit:4;stroke-dasharray:none;stroke-dashoffset:0;stroke-opacity:1;paint-order:markers fill stroke"
       id="path4848"
       d="m 104.98544,232.2981 c 0.0283,0.34972 0.13745,0.6738 0.29773,0.98251 0.13484,0.22937 0.34953,0.33232 0.60889,0.3359 0.20137,-0.0525 0.42493,-0.17681 0.61822,-0.29519 0.24046,-0.14197 0.4048,-0.3695 0.58192,-0.5784 0.16241,-0.20115 0.27599,-0.43265 0.34809,-0.67973 0.0729,-0.26882 -0.003,-0.53286 -0.10198,-0.7837 -0.12005,-0.24374 -0.28751,-0.45816 -0.52892,-0.58679 -0.24385,-0.0892 -0.29689,-0.10329 -0.47774,0.0276 -0.14697,0.1778 -0.14871,0.41864 -0.15961,0.63845 0.024,0.27087 0.0758,0.53745 0.14493,0.80002 0.0679,0.30829 0.15466,0.6122 0.24886,0.91341 0.0809,0.27808 0.17387,0.55264 0.26808,0.82654 0.0889,0.26528 0.17998,0.52659 0.22961,0.80265 0.056,0.14918 0.0805,0.29645 0.0841,0.45472 0,0 -0.13233,2.7e-4 -0.13233,2.7e-4 v 0 c -0.004,-0.15754 -0.0291,-0.30393 -0.0838,-0.45268 -0.0497,-0.27533 -0.14093,-0.53595 -0.22949,-0.80062 -0.0943,-0.27399 -0.18697,-0.54875 -0.26796,-0.82693 -0.0942,-0.30143 -0.18051,-0.60565 -0.24904,-0.914 -0.0694,-0.26387 -0.12126,-0.53187 -0.14509,-0.80407 0.011,-0.22391 0.0141,-0.46663 0.15976,-0.65009 0.21145,-0.16341 0.50627,-0.12174 0.74126,-0.0295 0.24099,0.13329 0.4094,0.3499 0.52932,0.59602 0.0994,0.25375 0.17528,0.52069 0.10217,0.79238 -0.072,0.24889 -0.18558,0.48229 -0.34845,0.68529 -0.17833,0.20905 -0.3415,0.43911 -0.58221,0.58257 -0.27645,0.16928 -0.54204,0.32576 -0.88034,0.30207 -0.26188,-0.0101 -0.47562,-0.11715 -0.60996,-0.34995 -0.16026,-0.31026 -0.26814,-0.63629 -0.29832,-0.98693 0,0 0.13233,-0.002 0.13233,-0.002 z"
       inkscape:connector-curvature="0" />
  </g>
</svg>
