<?xml version="1.0" encoding="UTF-8" standalone="no"?>
<!-- Created with Inkscape (http://www.inkscape.org/) -->

<svg
   xmlns:dc="http://purl.org/dc/elements/1.1/"
   xmlns:cc="http://creativecommons.org/ns#"
   xmlns:rdf="http://www.w3.org/1999/02/22-rdf-syntax-ns#"
   xmlns:svg="http://www.w3.org/2000/svg"
   xmlns="http://www.w3.org/2000/svg"
   xmlns:sodipodi="http://sodipodi.sourceforge.net/DTD/sodipodi-0.dtd"
   xmlns:inkscape="http://www.inkscape.org/namespaces/inkscape"
   width="297mm"
   height="210mm"
   viewBox="0 0 297 210"
   version="1.1"
   id="svg8"
   inkscape:version="0.92.1 r15371"
   sodipodi:docname="hyperbola-no-number.svg">
  <defs
     id="defs2" />
  <sodipodi:namedview
     id="base"
     pagecolor="#ffffff"
     bordercolor="#666666"
     borderopacity="1.0"
     inkscape:pageopacity="0.0"
     inkscape:pageshadow="2"
     inkscape:zoom="1.4"
     inkscape:cx="538.19941"
     inkscape:cy="368.03844"
     inkscape:document-units="mm"
     inkscape:current-layer="layer1"
     showgrid="false"
     showguides="true"
     inkscape:guide-bbox="true"
     inkscape:window-width="1920"
     inkscape:window-height="1046"
     inkscape:window-x="-11"
     inkscape:window-y="-11"
     inkscape:window-maximized="1">
    <sodipodi:guide
       position="146.27679,100.16369"
       orientation="-0.70710678,0.70710678"
       id="guide4663"
       inkscape:locked="false"
       inkscape:label=""
       inkscape:color="rgb(0,0,255)" />
    <sodipodi:guide
       position="146.84375,77.674107"
       orientation="-0.70710678,-0.70710678"
       id="guide4665"
       inkscape:locked="false"
       inkscape:label=""
       inkscape:color="rgb(0,0,255)" />
  </sodipodi:namedview>
  <metadata
     id="metadata5">
    <rdf:RDF>
      <cc:Work
         rdf:about="">
        <dc:format>image/svg+xml</dc:format>
        <dc:type
           rdf:resource="http://purl.org/dc/dcmitype/StillImage" />
        <dc:title></dc:title>
      </cc:Work>
    </rdf:RDF>
  </metadata>
  <g
     inkscape:label="Layer 1"
     inkscape:groupmode="layer"
     id="layer1"
     transform="translate(0,-87)">
    <path
       style="opacity:1;fill:#a70c8b;fill-opacity:1;fill-rule:nonzero;stroke:#0000a2;stroke-width:0.5;stroke-linecap:round;stroke-linejoin:round;stroke-miterlimit:4;stroke-dasharray:none;stroke-dashoffset:0;stroke-opacity:1;paint-order:markers fill stroke"
       id="path4487"
       d="m 133.35278,148.99025 c 0.0769,0.54331 0.11869,1.09026 0.14446,1.63807 0.0123,0.58496 0.0153,1.16675 0.0762,1.74895 0.0736,0.62272 0.10434,1.24882 0.12206,1.87523 0.0795,0.6922 0.11392,1.38886 0.19018,2.08112 0.0688,0.72603 0.16938,1.44707 0.26477,2.16983 0.0778,0.69477 0.0967,1.39256 0.17306,2.08744 0.0806,0.6656 0.11106,1.33506 0.12911,2.00476 0.0136,0.68066 0.0119,1.3615 0.012,2.04226 0.008,0.70001 -0.0218,1.40076 0.0212,2.09974 0.0688,0.70222 0.11918,1.4053 0.14491,2.11037 0.0205,0.71054 0.0216,1.42144 0.0226,2.13221 1.4e-4,0.72333 -5.3e-4,1.44666 -0.001,2.16999 -4e-5,0.70213 -2.4e-4,1.40426 -2.7e-4,2.1064 1.2e-4,0.67512 1.5e-4,1.35024 1.8e-4,2.02537 -7e-5,0.70341 -1.7e-4,1.40683 -2.3e-4,2.11024 2.6e-4,0.70011 1.1e-4,1.40021 5e-5,2.10032 1.4e-4,0.6753 1.6e-4,1.35061 1.8e-4,2.02592 -0.0287,0.61887 0.0552,1.23217 0.11401,1.84656 0.004,0.5789 -0.0532,1.15605 -0.082,1.73394 -0.0254,0.54059 -0.0288,1.08186 -0.0315,1.62294 -0.03,0.53981 0.0567,1.07306 0.11317,1.60797 0.0548,0.5252 0.0653,1.05349 0.0732,1.58104 0.005,0.52938 0.004,1.05879 0.004,1.58818 -5.3e-4,0.52782 -8e-4,1.05565 -8e-4,1.58347 -2.6e-4,0.57738 -2.3e-4,1.15476 -2.6e-4,1.73213 -0.0286,0.5692 0.0538,1.13242 0.114,1.69664 0.0637,0.54282 0.0428,1.09075 0.0952,1.63385 0.0768,0.5618 0.12264,1.12629 0.14862,1.69248 0.0189,0.59528 0.11164,1.18496 0.15845,1.77857 0.0348,0.59507 0.0373,1.18869 0.10456,1.78135 0.0868,0.61038 0.0835,1.22829 0.14622,1.84038 0.0853,0.62622 0.13132,1.25595 0.15793,1.88704 0.0729,0.63672 0.14132,1.27286 0.176,1.91293 1.1e-4,0.64715 0.0901,1.28765 0.1478,1.93089 0.0533,0.64676 0.0649,1.29577 0.0721,1.94436 0.0563,0.66706 0.12267,1.33273 0.15758,2.00141 0.0767,0.65463 0.14996,1.30876 0.18894,1.96689 0.0836,0.614 0.15317,1.22875 0.18947,1.84743 0.003,0.63047 0.0563,1.25505 0.11983,1.88162 0.0659,0.6206 0.0844,1.24467 0.0965,1.8682 0.0181,0.55998 -0.0159,1.12143 0.0296,1.68004 0.0715,0.52903 0.11839,1.05994 0.1441,1.59302 0.0205,0.53945 0.0215,1.07935 0.0223,1.6191 1.7e-4,0.55687 -5.3e-4,1.11374 -7.9e-4,1.67061 -0.002,0.56898 0.0911,1.13297 0.13653,1.69951 0.0411,0.55882 0.0471,1.11934 0.0518,1.67939 0.003,0.53397 0.002,1.06796 0.001,1.60193 0.007,0.5304 0.009,1.05698 -0.0545,1.58392 -0.0781,0.56631 -0.10597,1.13711 -0.12323,1.70793 0.0137,0.60382 -0.0699,1.2017 -0.12738,1.80124 -0.0522,0.57648 -0.0642,1.15536 -0.0715,1.73381 -0.005,0.5671 -0.004,1.13423 -0.003,1.70134 0.0113,0.53319 -0.0235,1.06813 0.0236,1.59974 0.0663,0.50036 0.11863,1.00155 0.1453,1.50557 0.0313,0.50633 -0.001,1.01467 0.0451,1.51976 0.0706,0.51889 0.1166,1.04009 0.14434,1.56289 0.0147,0.46991 0.006,0.93664 0.0761,1.4022 0.0698,0.43902 0.1031,0.8822 0.12214,1.32593 0.0144,0.41752 0.013,0.83535 0.0131,1.25304 -1.3e-4,0.42801 -7.9e-4,0.85601 -0.001,1.28402 -2.1e-4,0.42126 -1.4e-4,0.84251 -1.1e-4,1.26377 3e-5,0.38214 4e-5,0.76428 5e-5,1.14642 -0.0113,0.39821 -0.002,0.79086 0.0536,1.18519 0.0802,0.41509 0.0789,0.84035 0.14567,1.25644 0.0758,0.38233 0.12358,0.76731 0.21252,1.14682 0.0919,0.37949 0.21513,0.74755 0.28139,1.13343 0.008,0.0479 0.016,0.0958 0.024,0.14373 0,0 -0.1873,0.003 -0.1873,0.003 v 0 c -0.008,-0.0479 -0.0157,-0.0957 -0.0235,-0.14361 -0.0664,-0.38544 -0.19003,-0.75308 -0.28133,-1.13232 -0.0889,-0.37995 -0.13669,-0.76541 -0.21247,-1.14816 -0.0662,-0.41629 -0.0655,-0.84154 -0.14544,-1.25677 -0.0561,-0.39521 -0.0655,-0.7887 -0.054,-1.18782 0,-0.38214 0,-0.76428 5e-5,-1.14642 7e-5,-0.42126 2e-4,-0.84252 5.3e-4,-1.26378 1.9e-4,-0.428 5.2e-4,-0.856 0.001,-1.284 -1.2e-4,-0.41743 8e-4,-0.83499 -0.0132,-1.25224 -0.0189,-0.44308 -0.0519,-0.88566 -0.12205,-1.32397 -0.0697,-0.4662 -0.0608,-0.9335 -0.0758,-1.40398 -0.0274,-0.5226 -0.0735,-1.04353 -0.1442,-1.56219 -0.0458,-0.50536 -0.0141,-1.01389 -0.0452,-1.52047 -0.0266,-0.50378 -0.079,-1.00478 -0.14516,-1.50491 -0.0466,-0.53218 -0.0126,-1.06762 -0.0234,-1.60136 -2.7e-4,-0.5672 -0.002,-1.13441 0.003,-1.70159 0.008,-0.57897 0.0194,-1.15835 0.0717,-1.73535 0.0577,-0.59913 0.14095,-1.19661 0.12742,-1.80003 0.0171,-0.57136 0.0449,-1.14272 0.1228,-1.70958 0.0633,-0.52619 0.062,-1.05206 0.0546,-1.58172 2.7e-4,-0.53392 0.002,-1.06785 -10e-4,-1.60176 -0.004,-0.55961 -0.0106,-1.11968 -0.0515,-1.67805 -0.0457,-0.56702 -0.13913,-1.13155 -0.13657,-1.70102 2.4e-4,-0.55685 0.001,-1.11371 7.9e-4,-1.67056 -0.001,-0.53946 -0.002,-1.07909 -0.0224,-1.61824 -0.0256,-0.53289 -0.073,-1.06353 -0.144,-1.59241 -0.0455,-0.55901 -0.0114,-1.12081 -0.0294,-1.68119 -0.0118,-0.62303 -0.0305,-1.24657 -0.0962,-1.86668 -0.0638,-0.62681 -0.11692,-1.25169 -0.11991,-1.88241 -0.0366,-0.61866 -0.10628,-1.23336 -0.18946,-1.84742 -0.039,-0.65816 -0.11215,-1.31233 -0.18874,-1.96702 -0.0351,-0.66893 -0.10128,-1.33487 -0.1578,-2.00217 -0.007,-0.6481 -0.0185,-1.29664 -0.072,-1.94291 -0.058,-0.64343 -0.14767,-1.28419 -0.14772,-1.93154 -0.035,-0.64013 -0.10348,-1.27636 -0.17626,-1.91316 -0.0263,-0.63074 -0.0728,-1.26008 -0.15794,-1.88593 -0.0623,-0.61208 -0.0597,-1.22986 -0.14637,-1.84018 -0.0669,-0.59288 -0.0699,-1.1867 -0.10454,-1.78197 -0.047,-0.59381 -0.13947,-1.18372 -0.15867,-1.77918 -0.0258,-0.56591 -0.072,-1.13007 -0.14866,-1.69156 -0.052,-0.54308 -0.0318,-1.09089 -0.0953,-1.63366 -0.0599,-0.56489 -0.14244,-1.12877 -0.11369,-1.69861 -7e-5,-0.57737 7e-5,-1.15475 -8e-5,-1.73213 2e-4,-0.52783 5.3e-4,-1.05565 0.001,-1.58349 2.6e-4,-0.52929 0.002,-1.0586 -0.004,-1.58788 -0.008,-0.52701 -0.0184,-1.05471 -0.073,-1.57937 -0.0565,-0.53559 -0.14339,-1.0695 -0.11308,-1.61 0.002,-0.54136 0.006,-1.08292 0.0315,-1.62379 0.029,-0.57698 0.0857,-1.15326 0.0822,-1.73124 -0.0586,-0.61498 -0.14276,-1.22888 -0.11367,-1.84833 3e-5,-0.6753 5e-5,-1.35061 1.9e-4,-2.02592 -7e-5,-0.7001 -2.2e-4,-1.40021 4e-5,-2.10031 -5e-5,-0.70342 -1.6e-4,-1.40683 -2.3e-4,-2.11025 2e-5,-0.67512 3e-5,-1.35025 1.9e-4,-2.02537 -2e-5,-0.70214 -1.2e-4,-1.40427 5.3e-4,-2.1064 2.7e-4,-0.72332 0.001,-1.44664 8e-4,-2.16996 -0.001,-0.71055 -0.002,-1.42125 -0.0225,-2.13156 -0.0259,-0.7049 -0.0763,-1.40783 -0.14479,-2.10991 -0.0431,-0.69936 -0.014,-1.40048 -0.0215,-2.10088 2.5e-4,-0.68059 10e-4,-1.36127 -0.0122,-2.04176 -0.0177,-0.66919 -0.0486,-1.33814 -0.12891,-2.00323 -0.0764,-0.69475 -0.0948,-1.39243 -0.17298,-2.08704 -0.0954,-0.72287 -0.19533,-1.44413 -0.26455,-2.17023 -0.0763,-0.69278 -0.11121,-1.38991 -0.19083,-2.08262 -0.0178,-0.62594 -0.0484,-1.25159 -0.12215,-1.87382 -0.061,-0.58254 -0.0641,-1.16472 -0.0765,-1.75001 -0.0256,-0.54725 -0.0668,-1.09381 -0.14578,-1.63629 0,0 0.18714,-0.003 0.18714,-0.003 z"
       inkscape:connector-curvature="0" />
    <path
       style="opacity:1;fill:#a70c8b;fill-opacity:1;fill-rule:nonzero;stroke:#0000a2;stroke-width:0.5;stroke-linecap:round;stroke-linejoin:round;stroke-miterlimit:4;stroke-dasharray:none;stroke-dashoffset:0;stroke-opacity:1;paint-order:markers fill stroke"
       id="path4489"
       d="m 133.61748,148.24048 c -0.32067,0.58219 -0.6212,1.17369 -0.90869,1.77291 -0.27468,0.60978 -0.53226,1.22682 -0.80947,1.83544 -0.20144,0.49619 -0.45617,0.96893 -0.65171,1.46734 -0.16212,0.22776 -0.17279,0.61855 -0.42429,0.77383 -0.0831,-0.0302 -0.18012,-0.0356 -0.2492,-0.0907 -0.0892,-0.0713 0.0788,-0.70613 0.10372,-0.80333 0.1113,-0.54844 0.28926,-1.07713 0.45927,-1.60896 0.21637,-0.61495 0.41617,-1.23593 0.61165,-1.85785 0.17404,-0.46837 0.33638,-0.94412 0.54161,-1.39989 0.12786,-0.28823 0.22433,-0.59414 0.45658,-0.81644 0.3459,-0.1741 0.69292,-0.0333 0.98114,0.17597 0.32622,0.26723 0.58575,0.59681 0.82543,0.94072 0.29806,0.44084 0.64127,0.84745 0.95972,1.27322 0.29931,0.3603 0.52555,0.77102 0.78316,1.16004 0.16056,0.28335 0.33179,0.56288 0.46536,0.86046 0,0 -0.18685,0.008 -0.18685,0.008 v 0 c -0.13393,-0.29625 -0.30363,-0.57555 -0.46457,-0.85748 -0.25694,-0.38905 -0.48397,-0.79881 -0.78281,-1.15899 -0.31851,-0.42593 -0.66171,-0.8328 -0.95983,-1.27381 -0.23986,-0.34188 -0.49881,-0.67045 -0.82593,-0.93433 -0.14285,-0.10084 -0.1123,-0.0888 -0.27168,-0.16311 -0.044,-0.0205 -0.0991,-0.0233 -0.13392,-0.0571 -0.0139,-0.0135 0.0741,-0.0191 0.0547,-0.0197 -0.11051,-0.003 -0.15797,0.0246 -0.25711,0.0614 -0.23567,0.21654 -0.32874,0.52338 -0.45684,0.80908 -0.20693,0.45431 -0.36748,0.93041 -0.54285,1.3976 -0.19568,0.62189 -0.39525,1.243 -0.61176,1.85793 -0.16939,0.53155 -0.34769,1.05967 -0.45793,1.60791 -0.0454,0.17793 -0.0987,0.34954 -0.11372,0.53316 -0.004,0.0467 -0.009,0.0935 -0.007,0.14033 0.002,0.0382 0.036,0.08 0.0175,0.11351 -0.0241,0.0438 -0.0836,0.0549 -0.12538,0.0823 0.25883,-0.12418 0.26295,-0.54946 0.42518,-0.76072 0.19539,-0.49898 0.45127,-0.97166 0.6529,-1.46828 0.27737,-0.60874 0.5353,-1.22579 0.80991,-1.83579 0.28726,-0.59947 0.58823,-1.19085 0.90669,-1.77435 0,0 0.18665,0.01 0.18665,0.01 z"
       inkscape:connector-curvature="0" />
    <path
       style="opacity:1;fill:#a70c8b;fill-opacity:1;fill-rule:nonzero;stroke:#0000a2;stroke-width:0.5;stroke-linecap:round;stroke-linejoin:round;stroke-miterlimit:4;stroke-dasharray:none;stroke-dashoffset:0;stroke-opacity:1;paint-order:markers fill stroke"
       id="path4495"
       d="m 64.128991,208.58673 c 0.503364,0.11126 0.999783,0.24184 1.497446,0.37573 0.376404,0.10048 0.765016,0.12619 1.152493,0.14007 0.314,0.008 0.628121,0.006 0.942173,0.005 0.425908,-0.007 0.845844,-0.0963 1.269791,-0.1379 0.568656,-0.0528 1.137108,0.0404 1.703451,0.0849 0.558403,0.0388 1.118283,0.0453 1.677792,0.0499 0.559954,-0.0115 1.118354,-0.0941 1.678488,-0.13447 0.667993,-0.0426 1.337466,-0.0486 2.006563,-0.0529 0.752792,-0.003 1.505592,-0.002 2.258388,-0.001 0.64752,5.3e-4 1.29504,5.3e-4 1.942557,7.9e-4 0.589087,-0.0274 1.171231,0.0206 1.755595,0.0867 0.564648,0.0646 1.132703,0.0844 1.700453,0.0963 0.602205,0.0652 1.203754,0.12797 1.808621,0.16256 0.673433,0.0314 1.347803,0.0317 2.021813,0.0335 0.635921,7.9e-4 1.271844,-4e-5 1.907768,-5.3e-4 0.745103,-5.3e-4 1.49021,-5.3e-4 2.235313,-5.3e-4 0.759082,-0.002 1.517365,-0.0158 2.273967,0.0546 0.657918,0.0715 1.318935,0.1033 1.980147,0.12236 0.629656,0.0139 1.259512,0.0131 1.889286,0.0133 0.564127,-5.3e-4 1.12825,-8e-4 1.692376,-0.001 0.569698,-2.2e-4 1.139398,-2.7e-4 1.709098,-2.7e-4 0.6295,-3e-5 1.25899,2e-5 1.88849,2e-5 0.54538,0.0258 1.08306,-0.0628 1.62511,-0.11298 0.57369,-0.0524 1.14982,-0.0652 1.72551,-0.0734 0.57889,-0.005 1.15783,-0.004 1.73675,-0.004 0.48719,5.3e-4 0.97439,8e-4 1.46159,8e-4 0.47576,9e-5 0.95153,1e-4 1.4273,9e-5 0.39074,1e-5 0.78148,0 1.17223,-2e-5 0.43367,-2e-5 0.86734,1e-5 1.30101,0 0.37246,4e-5 0.74492,0 1.11738,1e-5 0.26076,0 0.16539,0.0284 0.29763,-0.0217 0.45801,-0.0704 0.91764,-0.11906 1.38017,-0.14547 0.43211,-0.0212 0.86483,-0.0221 1.29735,-0.023 0.34697,-0.0249 0.70078,0.0302 1.04726,5.2e-4 0.091,-0.008 0.17848,-0.04 0.26901,-0.0522 0.42038,-0.067 0.84411,-0.10367 1.26904,-0.1234 0.38191,-0.0141 0.76415,-0.0138 1.14626,-0.014 0.47694,9e-5 0.95387,7.9e-4 1.43081,0.001 0.35124,0.027 0.67298,-0.0609 1.02175,-0.11224 0.41451,-0.0588 0.83372,-0.0664 1.2516,-0.0738 0.40475,10e-4 0.80502,0.008 1.20534,-0.056 0.42749,-0.0718 0.85973,-0.10398 1.2923,-0.12311 0.42581,-0.0701 0.85165,-0.13217 1.28192,-0.16782 0.4591,-0.0835 0.92428,-0.12999 1.38357,-0.21045 0.46108,-0.11193 0.93581,-0.13113 1.40268,-0.20248 0.4505,-0.0942 0.9076,-0.14019 1.36635,-0.16776 0.47696,-0.0172 0.94638,-0.11126 1.42113,-0.15768 0.47837,-0.0334 0.95469,-0.0411 1.43041,-0.10389 0.48023,-0.074 0.96454,-0.10628 1.44959,-0.12457 0.48789,-0.0135 0.97601,-0.013 1.46404,-0.0131 0.56791,1.6e-4 1.13581,8e-4 1.70372,0.001 0.35338,-0.0169 0.71039,0.0228 1.06342,2.6e-4 0.11395,-0.007 0.22505,-0.0395 0.33847,-0.0527 0.52541,-0.0725 1.0547,-0.10507 1.58436,-0.12371 0.52409,-0.0139 1.04841,-0.0137 1.57264,-0.0139 0.48227,0.0155 0.95685,-0.0888 1.43765,-0.13503 0.47264,-0.0414 0.94722,-0.0477 1.42134,-0.0522 0.47524,0.0269 0.94253,-0.0589 1.41224,-0.11398 0.47487,-0.0463 0.94961,-0.056 1.42195,-0.12544 0.44265,-0.0785 0.8904,-0.10964 1.33891,-0.12741 0.44525,0.0131 0.88243,-0.0705 1.32226,-0.12571 0.4482,-0.0553 0.90003,-0.065 1.35101,-0.0725 0.46208,0.0225 0.91561,-0.0272 1.37231,-0.0878 0.47034,-0.0651 0.94465,-0.0851 1.41875,-0.0972 0.45864,-0.008 0.91144,-0.0963 1.36732,-0.14361 0.48567,-0.0349 0.96986,-0.0383 1.45273,-0.10414 0.47223,-0.0839 0.95319,-0.0862 1.42771,-0.14657 0.44301,-0.0753 0.88845,-0.12946 1.33678,-0.15859 0.43656,-0.0208 0.87375,-0.0212 1.31071,-0.022 0.39752,-0.047 0.79047,-0.11923 1.18971,-0.15287 0.42547,-0.0294 0.85213,-0.0329 1.27843,-0.0353 0.31812,-0.0211 0.64425,0.0337 0.96084,-2.7e-4 0.007,-7.9e-4 -0.002,-0.0194 0.005,-0.0213 0.0618,-0.0164 0.12625,-0.0204 0.18937,-0.0306 0.37408,-0.0722 0.75323,-0.10495 1.1332,-0.12346 0.37768,-0.0143 0.75571,-0.0138 1.1336,-0.014 0.45736,4e-5 0.91472,7.9e-4 1.37208,10e-4 0.36886,-0.1 0.77463,-0.12374 1.15825,-0.15375 0.48281,-0.005 0.95737,-0.0918 1.43548,-0.14849 0.45445,-0.0528 0.91181,-0.0662 1.36881,-0.0734 0.46407,-0.004 0.92273,-0.0921 1.38395,-0.13913 0.48761,-0.0347 0.97374,-0.0381 1.45852,-0.10422 0.44805,-0.0752 0.90051,-0.10702 1.35387,-0.12489 0.41979,-0.0134 0.83983,-0.0131 1.25978,-0.0132 0.51816,1.3e-4 1.03633,7.9e-4 1.5545,0.001 0.44599,2e-4 0.89198,2.5e-4 1.33797,2.6e-4 0.37968,-2e-5 0.75935,0 1.13903,0 0.49417,0 0.98834,1e-5 1.48251,3e-5 0.62093,2e-5 1.24185,0 1.86278,2e-5 0.61148,2e-5 1.22296,1e-5 1.83443,2e-5 0.60563,-2e-5 1.21126,10e-6 1.81689,-2e-5 0.60506,-0.004 1.20878,-0.009 1.81125,0.0548 0.59864,0.0762 1.20142,0.10524 1.80417,0.12227 0.60996,0.0137 1.22012,0.0132 1.8302,0.0133 0.54546,-5.3e-4 1.09092,-7.9e-4 1.63638,-0.001 0.56413,-2.4e-4 1.12825,-2.6e-4 1.69238,-2.6e-4 0.60671,0.0246 1.2072,0.11564 1.8131,0.15534 0.46035,0.0192 0.92147,-0.0635 1.38135,-0.10176 0.53772,-0.0398 1.07698,-0.0478 1.61592,-0.0526 0.57443,-0.003 1.14888,-0.002 1.72332,-0.002 0.48079,5.2e-4 0.96158,5.2e-4 1.44237,7.9e-4 0.39672,-0.0907 0.81503,-0.1217 1.22232,-0.15396 0.48561,-0.0404 0.97406,-0.0115 1.4588,-0.0575 0.44895,-0.0715 0.89974,-0.11945 1.35347,-0.14531 0.41203,-0.02 0.82462,-0.0215 1.23703,-0.0225 0.25065,-0.0167 0.50788,0.0273 0.75735,2.5e-4 0.007,-7.9e-4 -0.002,-0.0194 0.005,-0.0213 0.12319,-0.0331 0.25176,-0.0411 0.37756,-0.0622 0.34217,-0.0726 0.69886,-0.0418 1.03305,-0.1492 0.16968,-0.10811 -0.13837,-0.24717 -0.22397,-0.29998 -0.26111,-0.14241 -0.53775,-0.25369 -0.79695,-0.40014 -0.31341,-0.14097 -0.56139,-0.38382 -0.85483,-0.55597 -0.23957,-0.16836 -0.45871,-0.24019 0.0205,-0.20081 0.27424,0.0824 0.54823,0.16792 0.82542,0.24152 0.37446,0.11888 0.74402,0.2534 1.12101,0.3641 0.34738,0.12906 0.70953,0.21365 1.03023,0.40404 0.32023,0.2518 0.2227,0.55549 0.0489,0.86514 -0.29415,0.46327 -0.73342,0.79427 -1.16218,1.12379 -0.57375,0.40432 -1.13849,0.8216 -1.69354,1.25126 -0.37842,0.31014 -0.77734,0.59332 -1.15831,0.90031 0,0 -0.18521,-0.0166 -0.18521,-0.0166 v 0 c 0.38097,-0.30758 0.78056,-0.59036 1.15937,-0.90058 0.5548,-0.42977 1.11905,-0.8476 1.69304,-1.25138 0.42718,-0.32791 0.86573,-0.65624 1.16038,-1.11643 0.17144,-0.30131 0.27041,-0.5945 -0.0486,-0.83608 -0.32189,-0.18567 -0.68235,-0.27238 -1.02924,-0.3996 -0.37657,-0.11206 -0.74632,-0.24579 -1.12115,-0.36359 -0.27732,-0.0747 -0.5521,-0.15911 -0.82678,-0.24198 0.14359,-0.022 0.12136,-0.007 0.35243,0.15752 0.29138,0.17497 0.54173,0.41406 0.85449,0.55554 0.26043,0.14472 0.53703,0.2567 0.79773,0.40095 0.10141,0.0642 0.40414,0.21053 0.22349,0.34236 -0.33363,0.11331 -0.69105,0.0802 -1.03426,0.15194 -0.37773,0.0633 -0.75629,0.1027 -1.13993,0.0862 -0.41248,7.9e-4 -0.82514,0.002 -1.23726,0.0214 -0.45376,0.0251 -0.90479,0.0713 -1.35353,0.14452 -0.48446,0.0491 -0.97305,0.0178 -1.45867,0.0579 -0.53188,0.0412 -1.05767,0.13161 -1.59057,0.15537 -0.48081,-1e-4 -0.96162,-2.7e-4 -1.44242,-8e-4 -0.45191,-2.6e-4 -0.90383,-10e-4 -1.35574,0.002 -0.53883,0.005 -1.07797,0.0122 -1.61564,0.0512 -0.58184,0.0479 -1.16394,0.14563 -1.74904,0.10207 -0.48299,-0.0324 -0.96868,-0.0739 -1.44564,-0.15413 -0.56427,0 -1.12854,3e-5 -1.69282,2.4e-4 -0.66761,2.7e-4 -1.33522,0.001 -2.00283,0.001 -0.61006,-2.1e-4 -1.2202,2.6e-4 -1.83013,-0.0138 -0.60291,-0.0175 -1.20574,-0.0476 -1.80455,-0.12363 -0.60231,-0.0624 -1.20361,-0.0664 -1.81102,-0.0529 -0.60557,-2e-5 -1.21114,0 -1.81672,-1e-5 -0.61156,0 -1.22313,-1e-5 -1.83469,2e-5 -0.49859,1e-5 -0.99718,0 -1.49578,1e-5 -0.49399,2e-5 -0.98799,4e-5 -1.48199,4e-5 -0.50241,0 -1.00482,5e-5 -1.50723,0 -0.44597,-2e-5 -0.89194,-1e-5 -1.3379,-2.6e-4 -0.39542,-2.4e-4 -0.79085,-5.3e-4 -1.18627,-0.001 -0.41994,7e-5 -0.83998,-2.6e-4 -1.25978,0.0125 -0.45329,0.0173 -0.90584,0.0477 -1.35379,0.12306 -0.48477,0.0672 -0.97051,0.0725 -1.45843,0.10491 -0.46148,0.0464 -0.9202,0.13496 -1.38423,0.1407 -0.45695,0.007 -0.91428,0.0195 -1.36876,0.0715 -0.47819,0.056 -0.9525,0.14545 -1.43535,0.14926 -0.51113,0.0391 -1.01479,0.13095 -1.5267,0.15518 -0.33446,-2e-4 -0.66892,-5.3e-4 -1.00338,-0.001 -0.37784,1.3e-4 -0.75581,-5.3e-4 -1.13346,0.0131 -0.37982,0.0177 -0.75902,0.049 -1.13292,0.12133 -0.38305,0.0635 -0.76917,0.057 -1.15616,0.055 -0.42626,0.002 -0.85285,0.005 -1.27834,0.0339 -0.39949,0.0325 -0.79276,0.10282 -1.18987,0.15438 -0.43688,5.3e-4 -0.87398,7.9e-4 -1.3105,0.0208 -0.44843,0.0282 -0.89413,0.0809 -1.33704,0.15732 -0.47419,0.063 -0.95552,0.0619 -1.4277,0.14644 -0.48285,0.067 -0.96664,0.0723 -1.45261,0.1048 -0.45617,0.0466 -0.90904,0.13575 -1.36766,0.14501 -0.47398,0.0117 -0.94822,0.0307 -1.41851,0.0953 -0.45682,0.0604 -0.91005,0.11421 -1.37243,0.0899 -0.45086,0.007 -0.90259,0.0162 -1.35077,0.0705 -0.44003,0.0547 -0.87708,0.14087 -1.32248,0.12729 -0.4484,0.0172 -0.8962,0.0468 -1.33874,0.12541 -0.4724,0.0705 -0.9468,0.0819 -1.42208,0.126 -0.4699,0.0543 -0.93706,0.14323 -1.41246,0.11596 -0.47404,0.004 -0.94854,0.0101 -1.42118,0.0506 -0.47963,0.0452 -0.95496,0.13562 -1.438,0.13675 -0.52424,1.3e-4 -1.04856,-1.8e-4 -1.57266,0.0133 -0.52958,0.0181 -1.0589,0.0496 -1.58421,0.12219 -0.58813,0.0697 -1.17842,0.0568 -1.76965,0.0546 -0.44534,-2.6e-4 -0.89068,-5.3e-4 -1.33602,-0.001 -0.48797,5e-5 -0.97603,-5.3e-4 -1.46386,0.0125 -0.48498,0.0177 -0.96934,0.0487 -1.44949,0.12278 -0.47576,0.0636 -0.95169,0.0736 -1.43041,0.10457 -0.4749,0.0456 -0.94421,0.13987 -1.42102,0.1584 -0.45866,0.0267 -0.91598,0.0709 -1.36624,0.16599 -0.4664,0.0738 -0.94177,0.0888 -1.40261,0.20208 -0.45898,0.0827 -0.92498,0.12509 -1.38363,0.21221 -0.43036,0.0348 -0.85664,0.0944 -1.28188,0.16855 -0.43239,0.0184 -0.86452,0.0496 -1.29185,0.12098 -0.40061,0.0653 -0.80057,0.0615 -1.20599,0.0586 -0.41763,0.007 -0.83659,0.0139 -1.25099,0.0715 -0.46168,0.0673 -0.92149,0.1461 -1.39083,0.11488 -0.35402,-2.3e-4 -0.70805,-5.3e-4 -1.06207,-0.001 -0.3821,1.3e-4 -0.76432,-2.6e-4 -1.14624,0.0131 -0.42494,0.019 -0.84881,0.0544 -1.26916,0.1217 -0.43723,0.0599 -0.87619,0.059 -1.31658,0.0542 -0.43248,8e-4 -0.86515,0.002 -1.29725,0.022 -0.46256,0.0257 -0.92241,0.0726 -1.3802,0.14476 -0.47159,0.026 -0.94266,0.0283 -1.41501,0.0235 -0.43366,-1e-5 -0.86732,2e-5 -1.30097,0 -0.51352,-1e-5 -1.02703,0 -1.54054,0 -0.47569,-2e-5 -0.95138,0 -1.42707,-1.3e-4 -0.4872,-1.5e-4 -0.97441,-2.7e-4 -1.46162,-8e-4 -0.4564,-2.6e-4 -0.91281,-0.001 -1.36919,0.003 -0.57574,0.008 -1.15194,0.0202 -1.72574,0.0719 -0.66279,0.0609 -1.3245,0.14458 -1.9919,0.11469 -0.5072,-1e-5 -1.01441,2e-5 -1.52162,1e-5 -0.56981,4e-5 -1.13961,3e-5 -1.709412,2.5e-4 -0.686173,2.7e-4 -1.372346,0.001 -2.058516,0.001 -0.629883,-1.6e-4 -1.259854,5.3e-4 -1.889607,-0.0138 -0.661175,-0.0196 -1.322091,-0.0521 -1.979986,-0.12356 -0.635523,-0.0583 -1.269523,-0.0656 -1.908479,-0.053 -0.74504,6e-5 -1.49008,1.4e-4 -2.235123,5.3e-4 -0.757648,5.3e-4 -1.515298,0.001 -2.272945,2.6e-4 -0.674275,-0.002 -1.34892,-0.002 -2.022589,-0.0344 -0.604875,-0.0352 -1.206296,-0.0996 -1.808827,-0.16185 -0.567851,-0.0123 -1.13597,-0.0328 -1.700665,-0.098 -0.584123,-0.0659 -1.166291,-0.11076 -1.755005,-0.0846 -0.647451,-1.4e-4 -1.294905,-2.6e-4 -1.942356,-7.9e-4 -0.630886,-5.3e-4 -1.26178,-0.001 -1.892663,10e-4 -0.66894,0.004 -1.338249,0.01 -2.006123,0.0518 -0.681567,0.0484 -1.360575,0.14982 -2.045195,0.1357 -0.559636,-0.005 -1.119651,-0.0116 -1.678141,-0.0512 -0.443992,-0.0353 -0.891164,-0.11517 -1.335357,-0.0852 -0.424096,0.0407 -0.843884,0.12989 -1.269466,0.13972 -0.43711,0.001 -0.874339,0.004 -1.311365,-0.006 -0.387739,-0.0148 -0.776409,-0.0423 -1.152705,-0.14432 -0.497644,-0.13484 -0.994971,-0.26293 -1.498126,-0.37591 0,0 0.185544,-0.0241 0.185544,-0.0241 z"
       inkscape:connector-curvature="0" />
    <path
       style="opacity:1;fill:#a70c8b;fill-opacity:1;fill-rule:nonzero;stroke:#000000;stroke-width:0.5;stroke-linecap:round;stroke-linejoin:round;stroke-miterlimit:4;stroke-dasharray:none;stroke-dashoffset:0;stroke-opacity:1;paint-order:markers fill stroke"
       id="path4499"
       d="m 136.37659,155.41585 c 0.0356,0.49837 0.16576,0.98017 0.2586,1.46911 0.0408,0.39762 0.14181,0.78406 0.20917,1.17728 0.0315,0.38117 0.0909,0.75487 0.1609,1.13057 0.0692,0.37435 0.088,0.75481 0.0994,1.13449 -0.0202,0.38321 0.0644,0.75637 0.12025,1.13283 0.0529,0.37607 0.0642,0.75599 0.0715,1.13514 0.0561,0.3777 0.12272,0.75271 0.15807,1.13324 0.003,0.40047 0.0607,0.7922 0.11953,1.18723 0.0323,0.42517 0.13883,0.83767 0.2108,1.25667 0.10238,0.38109 0.1824,0.76648 0.28811,1.14655 0.11483,0.37508 0.20901,0.75655 0.31999,1.13272 0.13434,0.36604 0.15626,0.75605 0.23174,1.13449 0.0845,0.38394 0.14048,0.77173 0.22071,1.15645 0.0666,0.44639 0.1509,0.88866 0.22906,1.33316 0.10621,0.45753 0.23988,0.90788 0.34973,1.36441 0.14296,0.4522 0.27713,0.90771 0.42936,1.35681 0.14392,0.43077 0.3264,0.84782 0.50381,1.26568 0.15469,0.42276 0.31607,0.84221 0.48585,1.25919 0.19251,0.4063 0.37702,0.81543 0.54643,1.23199 0.17185,0.42748 0.389,0.83156 0.62134,1.2286 0.23251,0.39736 0.5088,0.76392 0.77212,1.14036 0.27031,0.39318 0.584,0.75252 0.87184,1.13254 0.30717,0.37356 0.60569,0.75302 0.90415,1.1336 0.3175,0.39888 0.67042,0.76729 1.02492,1.13297 0.29105,0.34468 0.59197,0.68003 0.88798,1.02057 0.29985,0.34466 0.56817,0.71444 0.86593,1.06136 0.31557,0.35361 0.62436,0.71047 0.96137,1.04406 0.31629,0.331 0.68548,0.59977 1.00797,0.9239 0.31345,0.32906 0.67089,0.61247 1.00823,0.91649 0.36062,0.32049 0.73428,0.63078 1.12129,0.91934 0.37486,0.28872 0.75726,0.56674 1.13509,0.85152 0.39432,0.31334 0.82175,0.58549 1.24785,0.85366 0.42517,0.26044 0.80705,0.58172 1.20673,0.87816 0.38511,0.31283 0.82327,0.54944 1.25112,0.79702 0.39668,0.21847 0.80482,0.41458 1.20581,0.62467 0.37898,0.18941 0.76165,0.3718 1.13736,0.56772 0.37479,0.16869 0.75443,0.32733 1.13299,0.48789 0.39261,0.13093 0.76175,0.32068 1.15622,0.44506 0.42454,0.13913 0.84893,0.28152 1.27909,0.40269 0.41743,0.14409 0.84227,0.26865 1.27017,0.37829 0.45453,0.15592 0.92851,0.24028 1.39629,0.34558 0.49357,0.0864 0.9641,0.26243 1.44814,0.38624 0.49009,0.14383 0.98314,0.27923 1.47939,0.40062 0.48031,0.12439 0.95573,0.26755 1.4392,0.37918 0.42697,0.13264 0.86347,0.2259 1.29364,0.34632 0.34115,0.0909 0.66091,0.23189 1.00903,0.29961 0.36444,0.0871 0.7194,0.20533 1.08045,0.30428 0.37726,0.0953 0.74694,0.20752 1.13237,0.26742 0.32085,0.10202 0.64559,0.17483 0.97999,0.21225 0.36754,0.0793 0.7356,0.14798 1.09902,0.24441 0.37008,0.10178 0.75214,0.13543 1.13388,0.15494 0.37698,0.0673 0.75297,0.13282 1.13454,0.16786 0.38104,0.0199 0.75753,0.0231 1.13405,0.0879 0.37401,0.0735 0.75366,0.10395 1.13377,0.12131 0.38397,-0.0144 0.75704,0.0362 1.13408,0.0997 0.38417,0.0363 0.75507,0.14226 1.13394,0.21002 0.38064,0.0605 0.75144,0.16307 1.13389,0.21644 0.43454,0.016 0.85945,0.10595 1.28857,0.16806 0.42847,0.0492 0.8565,0.0585 1.28275,0.12662 0.4617,0.0647 0.92415,0.10046 1.38364,0.17957 0.43417,0.0924 0.88079,0.0881 1.31721,0.15799 0.0284,-0.01 0.9132,0.21075 0.70443,0.0691 0,0 0.18576,0.0246 0.18576,0.0246 v 0 c -0.37096,0.0439 -0.71141,0.0311 -1.07497,-0.0673 -0.43687,-0.0664 -0.88274,-0.0667 -1.31689,-0.15832 -0.45949,-0.0787 -0.92243,-0.11266 -1.38378,-0.17932 -0.42625,-0.0671 -0.85482,-0.0745 -1.28286,-0.12636 -0.42904,-0.0629 -0.85436,-0.14997 -1.28876,-0.16796 -0.38215,-0.0548 -0.75312,-0.15749 -1.13397,-0.21714 -0.37855,-0.0689 -0.74995,-0.17259 -1.13392,-0.2098 -0.37681,-0.0634 -0.75032,-0.10954 -1.13378,-0.0975 -0.38027,-0.0181 -0.7599,-0.0501 -1.13407,-0.12358 -0.3764,-0.0634 -0.75342,-0.0638 -1.13387,-0.0865 -0.38138,-0.0361 -0.7569,-0.1039 -1.13443,-0.16711 -0.38206,-0.0205 -0.7642,-0.056 -1.13437,-0.15877 -0.36316,-0.096 -0.73131,-0.16455 -1.0989,-0.24169 -0.33421,-0.039 -0.65807,-0.11503 -0.97988,-0.21308 -0.38518,-0.0616 -0.75515,-0.17451 -1.13264,-0.2695 -0.36061,-0.10004 -0.71592,-0.21701 -1.08054,-0.30287 -0.34727,-0.07 -0.66734,-0.21169 -1.0088,-0.30111 -0.42989,-0.12031 -0.86616,-0.21379 -1.29305,-0.34555 -0.48322,-0.11286 -0.95888,-0.25534 -1.43932,-0.37941 -0.49595,-0.12245 -0.98904,-0.25733 -1.4792,-0.40085 -0.48356,-0.12536 -0.95475,-0.29878 -1.44814,-0.38567 -0.46795,-0.10549 -0.94173,-0.19079 -1.39669,-0.3461 -0.42773,-0.11082 -0.85256,-0.23531 -1.2704,-0.37871 -0.42982,-0.12256 -0.85451,-0.26387 -1.27903,-0.40332 -0.39383,-0.1269 -0.76437,-0.31417 -1.15662,-0.44676 -0.37845,-0.16134 -0.75917,-0.31811 -1.13306,-0.48933 -0.3762,-0.19496 -0.75838,-0.37825 -1.13732,-0.56776 -0.40147,-0.20926 -0.80902,-0.40662 -1.20551,-0.62551 -0.42845,-0.24759 -0.8659,-0.48609 -1.25145,-0.79912 -0.39934,-0.29629 -0.78098,-0.61736 -1.20641,-0.87679 -0.42585,-0.26942 -0.85399,-0.54083 -1.24822,-0.85515 -0.37818,-0.28429 -0.75984,-0.56332 -1.1351,-0.85147 -0.38638,-0.29014 -0.76116,-0.59931 -1.12137,-0.92103 -0.33784,-0.3039 -0.69532,-0.5877 -1.00857,-0.91747 -0.32309,-0.32322 -0.69216,-0.59247 -1.00791,-0.92379 -0.33692,-0.33408 -0.64524,-0.69199 -0.96125,-1.04558 -0.29749,-0.34716 -0.56584,-0.717 -0.86627,-1.06121 -0.2957,-0.34025 -0.59597,-0.67576 -0.88734,-1.01961 -0.35477,-0.36621 -0.70785,-0.73527 -1.02532,-1.1349 -0.29833,-0.38079 -0.59766,-0.75974 -0.90421,-1.1339 -0.28804,-0.3801 -0.60203,-0.73953 -0.87195,-1.13323 -0.26409,-0.37648 -0.53945,-0.74419 -0.77227,-1.14189 -0.23225,-0.39799 -0.44949,-0.80291 -0.62131,-1.23125 -0.16968,-0.41647 -0.35493,-0.82532 -0.54672,-1.23198 -0.16979,-0.41684 -0.33025,-0.83653 -0.4855,-1.25893 -0.17744,-0.41835 -0.36068,-0.83558 -0.50394,-1.26708 -0.15185,-0.44981 -0.28719,-0.90548 -0.4294,-1.35849 -0.11002,-0.45686 -0.24414,-0.90749 -0.34975,-1.36556 -0.0783,-0.44428 -0.16245,-0.88641 -0.22928,-1.33256 -0.0808,-0.3847 -0.13624,-0.77265 -0.22099,-1.15662 -0.0749,-0.37802 -0.0977,-0.76727 -0.23165,-1.13281 -0.11051,-0.37644 -0.2056,-0.75769 -0.32,-1.13301 -0.10583,-0.38065 -0.18601,-0.76666 -0.2881,-1.14843 -0.072,-0.4191 -0.17807,-0.83183 -0.21057,-1.25709 -0.059,-0.39535 -0.11684,-0.78743 -0.11991,-1.18826 -0.0355,-0.38097 -0.1026,-0.75636 -0.15809,-1.13461 -0.007,-0.37836 -0.0186,-0.75748 -0.0715,-1.13275 -0.056,-0.37715 -0.14043,-0.7511 -0.12028,-1.13502 -0.0114,-0.37872 -0.0302,-0.75823 -0.0993,-1.13161 -0.07,-0.37577 -0.12911,-0.74965 -0.1609,-1.13084 -0.0675,-0.39306 -0.16814,-0.77947 -0.20883,-1.17696 -0.0927,-0.48926 -0.22139,-0.97161 -0.25932,-1.46995 0,0 0.18714,-0.003 0.18714,-0.003 z"
       inkscape:connector-curvature="0" />
    <path
       style="opacity:1;fill:#a70c8b;fill-opacity:1;fill-rule:nonzero;stroke:#000000;stroke-width:0.5;stroke-linecap:round;stroke-linejoin:round;stroke-miterlimit:4;stroke-dasharray:none;stroke-dashoffset:0;stroke-opacity:1;paint-order:markers fill stroke"
       id="path4605"
       d="m 135.1897,258.64916 c 0.0974,-0.48654 0.0662,-0.9771 0.0316,-1.46755 -0.0238,-0.39489 -0.033,-0.78649 -0.10408,-1.17609 -0.0696,-0.37653 -0.10117,-0.75589 -0.18112,-1.13043 -0.0861,-0.37265 -0.11778,-0.75356 -0.13604,-1.13457 0.0148,-0.38331 -0.0701,-0.75638 -0.12622,-1.13298 -0.053,-0.37607 -0.0641,-0.756 -0.0713,-1.13515 -0.0561,-0.37771 -0.12263,-0.75272 -0.15797,-1.13324 -0.0297,-0.37748 -0.032,-0.75633 -0.0341,-1.13474 -0.001,-0.378 -1e-4,-0.756 2.7e-4,-1.134 5.3e-4,-0.37797 5.3e-4,-0.75594 5.3e-4,-1.13391 0.008,-0.38089 0.008,-0.75623 -0.0538,-1.13241 -0.0728,-0.37458 -0.10479,-0.75444 -0.12298,-1.13501 -0.057,-0.3298 -0.13,-0.65545 -0.22214,-0.97702 -0.0795,-0.36949 -0.19535,-0.72915 -0.27071,-1.09963 -0.0934,-0.38244 -0.21975,-0.75479 -0.326,-1.13345 -0.1351,-0.35427 -0.2166,-0.7232 -0.34279,-1.08006 -0.0937,-0.33741 -0.20552,-0.66913 -0.27781,-1.01224 -0.112,-0.3699 -0.18939,-0.74764 -0.29276,-1.11977 -0.087,-0.38866 -0.18637,-0.77447 -0.29599,-1.15752 -0.10308,-0.43008 -0.24819,-0.84803 -0.34384,-1.2799 -0.0794,-0.41252 -0.28725,-0.77389 -0.45107,-1.15468 -0.17694,-0.3811 -0.33866,-0.76887 -0.55118,-1.13196 -0.20066,-0.36947 -0.37932,-0.75146 -0.55287,-1.13447 -0.18096,-0.37985 -0.37409,-0.75377 -0.55474,-1.13375 -0.2078,-0.38131 -0.42718,-0.75665 -0.64382,-1.13321 -0.23233,-0.39625 -0.48372,-0.77586 -0.77346,-1.13245 -0.33615,-0.36279 -0.63624,-0.75571 -0.95456,-1.13377 -0.25494,-0.37431 -0.55814,-0.70743 -0.85443,-1.04818 -0.31531,-0.32114 -0.58343,-0.68386 -0.88788,-1.01391 -0.33163,-0.30074 -0.61542,-0.64623 -0.91044,-0.98155 -0.32158,-0.32658 -0.68625,-0.60478 -1.03295,-0.90259 -0.30872,-0.3105 -0.65441,-0.57882 -0.98654,-0.86312 -0.37269,-0.27767 -0.73583,-0.56672 -1.11242,-0.83902 -0.37305,-0.28591 -0.74533,-0.574 -1.13487,-0.83733 -0.38853,-0.28393 -0.79808,-0.53523 -1.21969,-0.76673 -0.42536,-0.24427 -0.8335,-0.52038 -1.23128,-0.80739 -0.39401,-0.24884 -0.76173,-0.53472 -1.14143,-0.80416 -0.37432,-0.23175 -0.75266,-0.45681 -1.13287,-0.67874 -0.30575,-0.2344 -0.63577,-0.42111 -0.9791,-0.59234 -0.38367,-0.15701 -0.73337,-0.38203 -1.0988,-0.57541 -0.37767,-0.17238 -0.76115,-0.33186 -1.13411,-0.51436 -0.36767,-0.17458 -0.75474,-0.30079 -1.13444,-0.44495 -0.37803,-0.14537 -0.75443,-0.29436 -1.13396,-0.43639 -0.37833,-0.12849 -0.7562,-0.25754 -1.1339,-0.38814 -0.37182,-0.13649 -0.75542,-0.23188 -1.13389,-0.34612 -0.37754,-0.0995 -0.75451,-0.20135 -1.13389,-0.29432 -0.37222,-0.12992 -0.75589,-0.21757 -1.13396,-0.32761 -0.34824,-0.0637 -0.67635,-0.19652 -1.02021,-0.27689 -0.35285,-0.0817 -0.71123,-0.15008 -1.06117,-0.24434 -0.45806,-0.11671 -0.92788,-0.1698 -1.39281,-0.2516 -0.55008,-0.0893 -1.10549,-0.12095 -1.65713,-0.19891 -0.610447,-0.0794 -1.223989,-0.10953 -1.834409,-0.18856 -0.62905,-0.0774 -1.26075,-0.1079 -1.8893,-0.1888 -0.65042,-0.0588 -1.29732,-0.13747 -1.94501,-0.22076 -0.66166,-0.082 -1.31894,-0.18802 -1.98366,-0.24598 -0.64547,-0.0444 -1.28504,-0.14376 -1.9303,-0.19469 -0.58759,-0.0829 -1.17517,-0.15831 -1.75959,-0.2609 -0.55075,-0.073 -1.09858,-0.15723 -1.64746,-0.24361 -0.5015,-0.0474 -0.99742,-0.1194 -1.49522,-0.19525 -0.46549,-0.0606 -0.93221,-0.0835 -1.39598,-0.15679 -0.45054,-0.0814 -0.90686,-0.11079 -1.36357,-0.12798 -0.39838,-0.0112 -0.79699,-0.0124 -1.19551,-0.012 -0.39713,2.6e-4 -0.79427,10e-4 -1.19141,10e-4 -0.12274,0.0144 -0.23866,0.0106 -0.3278,0.10073 0,0 -0.18764,-0.0139 -0.18764,-0.0139 v 0 c 0.0867,-0.10298 0.20004,-0.0999 0.33093,-0.11608 0.39724,-2.7e-4 0.79448,-8e-4 1.19172,-0.001 0.5213,0 1.04276,-0.002 1.56389,0.0127 0.45684,0.0178 0.91315,0.0486 1.3638,0.13016 0.46371,0.0725 0.93079,0.094 1.39584,0.15673 0.49763,0.0764 0.99396,0.14535 1.49502,0.19538 0.54871,0.0868 1.09683,0.16909 1.6472,0.24396 0.58416,0.10242 1.17167,0.17748 1.7591,0.25921 0.6451,0.0517 1.28467,0.15093 1.93014,0.19486 0.66469,0.0589 1.32208,0.16528 1.98391,0.24671 0.64765,0.0836 1.29481,0.16046 1.94505,0.22074 0.62856,0.0804 1.26048,0.11008 1.88933,0.18881 0.610522,0.0786 1.224389,0.10778 1.834709,0.18874 0.55176,0.0776 1.1076,0.10824 1.65749,0.19949 0.46531,0.0819 0.93583,0.13432 1.39386,0.25307 0.35075,0.0919 0.70807,0.16313 1.0614,0.2438 0.34319,0.0823 0.67228,0.21247 1.01998,0.27787 0.37792,0.11007 0.76139,0.19823 1.13389,0.32684 0.3792,0.094 0.75682,0.19393 1.13397,0.29523 0.37923,0.11239 0.76159,0.21171 1.13396,0.34692 0.37759,0.13102 0.75595,0.25895 1.13394,0.38862 0.37926,0.14265 0.75591,0.29111 1.13397,0.43642 0.38047,0.14287 0.76682,0.27174 1.13454,0.44668 0.37364,0.18131 0.757,0.34119 1.13415,0.515 0.36486,0.19439 0.71573,0.41706 1.09899,0.57491 0.34365,0.17099 0.67143,0.36189 0.97892,0.59362 0.37993,0.223 0.75977,0.44613 1.13289,0.68037 0.37973,0.26939 0.74769,0.55495 1.14135,0.80431 0.39792,0.28596 0.80524,0.56235 1.23092,0.80516 0.42137,0.23281 0.8312,0.48426 1.22013,0.76842 0.38876,0.26471 0.7616,0.55204 1.13487,0.83789 0.37678,0.27257 0.74031,0.56181 1.11257,0.84053 0.33249,0.28394 0.67725,0.55338 0.98674,0.86313 0.34783,0.29741 0.71197,0.57726 1.03293,0.90522 0.29496,0.33531 0.57988,0.67958 0.9106,0.98114 0.30315,0.33151 0.57347,0.69237 0.88803,1.01441 0.29629,0.34071 0.59802,0.67509 0.85401,1.04851 0.31814,0.37832 0.61896,0.77076 0.95463,1.13409 0.28973,0.35768 0.54121,0.73841 0.77392,1.13541 0.21661,0.3771 0.43696,0.75241 0.64399,1.13466 0.18105,0.37991 0.37384,0.7541 0.55477,1.13408 0.17365,0.38231 0.35158,0.76399 0.55266,1.13258 0.21205,0.36412 0.37448,0.75235 0.55143,1.1342 0.16473,0.38161 0.37178,0.74459 0.45116,1.15821 0.0957,0.43143 0.24038,0.84917 0.34367,1.27876 0.10983,0.38307 0.209,0.76899 0.29627,1.15767 0.10346,0.3725 0.18102,0.75063 0.29292,1.12094 0.0725,0.34222 0.18417,0.67324 0.27793,1.00978 0.12597,0.35728 0.20731,0.72672 0.3425,1.0813 0.10663,0.379 0.23287,0.75188 0.32609,1.13481 0.0755,0.36994 0.19112,0.72923 0.27082,1.09816 0.0926,0.32287 0.16607,0.65 0.22209,0.98135 0.0182,0.37985 0.0503,0.75897 0.12293,1.13285 0.0622,0.37719 0.062,0.75357 0.0538,1.13546 -6e-5,0.37798 -1.5e-4,0.75595 -5.3e-4,1.13394 -5.3e-4,0.37795 -0.001,0.7559 -2.6e-4,1.13386 0.002,0.37787 0.004,0.75619 0.0341,1.13311 0.0354,0.38098 0.10258,0.75637 0.15799,1.13462 0.007,0.37835 0.0183,0.75748 0.0713,1.13274 0.0563,0.37719 0.14096,0.75094 0.12626,1.13486 0.0182,0.38001 0.05,0.75988 0.13597,1.13153 0.0798,0.37474 0.11136,0.75433 0.18113,1.13099 0.071,0.3903 0.0802,0.78259 0.10381,1.17815 0.0344,0.49174 0.0643,0.98349 -0.031,1.47151 0,0 -0.18714,-0.003 -0.18714,-0.003 z"
       inkscape:connector-curvature="0" />
    <path
       style="opacity:1;fill:#a70c8b;fill-opacity:1;fill-rule:nonzero;stroke:#0617a2;stroke-width:0.5;stroke-linecap:round;stroke-linejoin:round;stroke-miterlimit:4;stroke-dasharray:none;stroke-dashoffset:0;stroke-opacity:1;paint-order:markers fill stroke"
       id="path4607"
       d="m 212.41745,213.97538 c 0.34283,0.51703 0.75785,0.97888 1.14701,1.46006 0.42231,0.51005 0.92031,0.94287 1.42247,1.37065 0.42714,0.36411 0.83185,0.75172 1.26931,1.10349 0.3575,0.25577 0.68669,0.55489 1.05531,0.79443 0.16669,0.1434 0.35393,0.24206 0.55855,0.31734 0,0 -0.18582,0.0226 -0.18582,0.0226 v 0 c -0.20398,-0.078 -0.39076,-0.17938 -0.55866,-0.32149 -0.36703,-0.24245 -0.69817,-0.53882 -1.05475,-0.79632 -0.43695,-0.35225 -0.84115,-0.74048 -1.26861,-1.10407 -0.50259,-0.42855 -1.00024,-0.86303 -1.4226,-1.37407 -0.39022,-0.48141 -0.8042,-0.94504 -1.14901,-1.46166 0,0 0.1868,-0.011 0.1868,-0.011 z"
       inkscape:connector-curvature="0" />
    <path
       style="opacity:1;fill:#a70c8b;fill-opacity:1;fill-rule:nonzero;stroke:#0000a2;stroke-width:0.5;stroke-linecap:round;stroke-linejoin:round;stroke-miterlimit:4;stroke-dasharray:none;stroke-dashoffset:0;stroke-opacity:1;paint-order:markers fill stroke"
       id="path4609"
       d="m 216.51505,213.18952 c -0.58162,0.35921 -1.01486,0.88838 -1.4294,1.42066 -0.47029,0.65425 -0.87147,1.35384 -1.32326,2.02092 -0.48739,0.68029 -0.98066,1.35661 -1.49029,2.02047 -0.32652,0.42254 -0.61793,0.86977 -0.95603,1.28315 0,0 -0.18559,-0.0128 -0.18559,-0.0128 v 0 c 0.33929,-0.41261 0.6312,-0.85956 0.95745,-1.28246 0.51023,-0.66316 1.00288,-1.33968 1.49082,-2.01934 0.4521,-0.66716 0.85307,-1.36708 1.32256,-2.02218 0.41502,-0.53358 0.84764,-1.06445 1.42787,-1.42806 0,0 0.18587,0.0196 0.18587,0.0196 z"
       inkscape:connector-curvature="0" />
    <path
       style="opacity:1;fill:#a70c8b;fill-opacity:1;fill-rule:nonzero;stroke:#0000a2;stroke-width:0.5;stroke-linecap:round;stroke-linejoin:round;stroke-miterlimit:4;stroke-dasharray:none;stroke-dashoffset:0;stroke-opacity:1;paint-order:markers fill stroke"
       id="path4611"
       d="m 140.62444,146.88362 c 0.37826,0.42889 0.75956,0.85658 1.17872,1.24634 0.31751,0.31388 0.68134,0.56385 1.13182,0.61128 0.28814,-0.038 0.50653,-0.16396 0.70154,-0.37418 0.2571,-0.28442 0.36204,-0.65358 0.48087,-1.00905 0.11049,-0.35437 0.13109,-0.72423 0.22229,-1.08286 0.21176,-0.608 0.47294,0.20648 0.52647,0.38326 0.20503,0.61054 0.35871,1.23691 0.4943,1.86612 0.19679,0.8945 0.4415,1.77693 0.67164,2.66305 0.22574,0.82866 0.5052,1.64124 0.69934,2.47833 0.19968,0.72921 0.30079,1.47702 0.35809,2.22919 0.0604,0.60083 -0.0399,1.1934 -0.20518,1.76903 -0.16233,0.49791 -0.46552,0.90326 -0.86463,1.23385 -0.41942,0.28712 -0.86774,0.37739 -1.36519,0.39117 -0.57194,0.0139 -1.08556,-0.17242 -1.5912,-0.41689 -0.46255,-0.23475 -0.72988,-0.67402 -0.94852,-1.12545 -0.22995,-0.50069 -0.14675,-1.03491 -0.0267,-1.55168 0.17797,-0.66263 0.59271,-1.19435 1.04285,-1.69506 0.57143,-0.67276 1.21767,-1.27419 1.82705,-1.91145 0.43818,-0.43084 0.22228,-0.21437 0.64781,-0.64931 0,0 0.18324,0.0142 0.18324,0.0142 v 0 c -0.42552,0.43525 -0.20958,0.21884 -0.64792,0.64909 -0.60887,0.63733 -1.25511,1.23827 -1.82612,1.91097 -0.44869,0.49802 -0.86313,1.02623 -1.04124,1.68579 -0.1194,0.51282 -0.20267,1.04243 0.0269,1.53904 0.21859,0.44862 0.48579,0.88248 0.94772,1.11299 0.38926,0.18626 0.79624,0.34629 1.22214,0.40908 0.49649,-0.0113 0.94255,-0.0954 1.36357,-0.37893 0.3993,-0.32589 0.70191,-0.72791 0.86456,-1.22263 0.16551,-0.57333 0.26566,-1.16373 0.20589,-1.76242 -0.0571,-0.75125 -0.15794,-1.49807 -0.35744,-2.22639 -0.19416,-0.83684 -0.47333,-1.6493 -0.69856,-2.47786 -0.23023,-0.88641 -0.47491,-1.76914 -0.67231,-2.6638 -0.13635,-0.62872 -0.29086,-1.2545 -0.49648,-1.86452 -0.0582,-0.18924 -0.0534,-0.19877 -0.13164,-0.36704 -0.0187,-0.0401 -0.0726,-0.075 -0.0613,-0.11779 0.0107,-0.0406 0.0675,-0.0569 0.10897,-0.063 0.0586,-0.009 -0.24105,0.21579 -0.069,0.16369 -0.0918,0.35901 -0.1127,0.72917 -0.2227,1.0842 -0.11919,0.35764 -0.2244,0.72934 -0.48094,1.0169 -0.29187,0.32278 -0.63727,0.4221 -1.07296,0.38741 -0.45054,-0.0569 -0.81404,-0.30731 -1.13235,-0.62312 -0.41897,-0.3911 -0.7999,-0.82018 -1.17986,-1.24862 0,0 0.18651,-0.013 0.18651,-0.013 z"
       inkscape:connector-curvature="0" />
    <g
       id="g4661"
       transform="rotate(-42.553922,129.53827,197.67971)"
       style="stroke:#a70c8b;stroke-opacity:1;stroke-width:0.5;stroke-miterlimit:4;stroke-dasharray:none">
      <path
         inkscape:connector-curvature="0"
         d="m 124.63674,148.6136 c -0.001,0.52991 0.0867,1.0556 0.13645,1.5825 0.029,0.42106 0.13419,0.83125 0.18894,1.24942 0.086,0.3785 0.16001,0.75831 0.26135,1.13298 0.11395,0.36861 0.11596,0.75629 0.18103,1.13301 0.0915,0.39105 0.13434,0.7886 0.15752,1.18867 0.0199,0.42637 0.0205,0.85331 0.0209,1.28004 0.01,0.45212 0.005,0.89943 -0.0551,1.34769 -0.0766,0.48596 -0.10585,0.97712 -0.12344,1.46818 -0.0133,0.45804 -0.0133,0.91632 -0.0134,1.3745 2.5e-4,0.42337 7.9e-4,0.84673 0.001,1.2701 1.3e-4,0.42745 1.2e-4,0.85491 2e-4,1.28236 9e-5,0.43269 -9e-5,0.86538 -4e-5,1.29806 -0.0507,0.47272 -0.11991,0.94226 -0.15487,1.41667 -0.031,0.49428 -0.0329,0.98977 -0.0351,1.48483 -0.001,0.47825 -2e-4,0.95651 2.6e-4,1.43476 2e-4,0.45809 5.3e-4,0.91618 7.9e-4,1.37428 0.008,0.41854 -0.0201,0.8382 0.0226,1.25502 0.0746,0.43586 0.11978,0.87442 0.1451,1.31564 0.0201,0.41248 0.0217,0.82553 0.0227,1.2384 0.0505,0.38031 0.11829,0.75716 0.15392,1.13948 0.0299,0.37706 0.0324,0.75552 0.0346,1.13353 0.001,0.37793 1.9e-4,0.75587 -2.2e-4,1.13381 -5.3e-4,0.37798 -5.3e-4,0.75595 -5.3e-4,1.13393 -4e-5,0.37798 -3e-5,0.75595 -3e-5,1.13393 0.0264,0.38436 -0.0221,0.75795 -0.0856,1.13548 -0.0688,0.39196 -0.0864,0.7895 -0.0973,1.18644 -0.009,0.44734 -0.008,0.8948 -0.008,1.34221 8e-4,0.44341 8e-4,0.88682 0.001,1.33024 -0.006,0.4236 0.0928,0.83911 0.13718,1.25911 0.0401,0.43504 0.0476,0.8721 0.0517,1.30869 0.003,0.43347 0.002,0.86696 0.001,1.30044 -5.3e-4,0.42308 -8e-4,0.84617 -8e-4,1.26925 0.0464,0.40245 0.11753,0.8008 0.15481,1.20448 0.006,0.41163 0.0598,0.81572 0.12045,1.2221 0.0626,0.40765 0.0849,0.81952 0.0971,1.23127 8e-4,0.42864 -0.002,0.85258 0.0606,1.27716 0.0691,0.39206 0.10342,0.78825 0.12201,1.18551 -0.0148,0.3837 0.0707,0.75701 0.12722,1.13392 0.0628,0.37525 0.0419,0.75773 0.0942,1.1333 0.0776,0.3822 0.12504,0.76818 0.14826,1.1572 0.0198,0.42622 0.0208,0.85301 0.0217,1.2796 0.0492,0.38583 0.11786,0.76799 0.15385,1.1556 0.0233,0.41776 0.0265,0.83203 0.0883,1.24641 0.07,0.39922 0.10435,0.80267 0.1229,1.20712 0.0142,0.39705 0.0128,0.79443 0.0129,1.19167 -2.1e-4,0.4366 -7.9e-4,0.87319 -10e-4,1.30979 0.0456,0.4318 0.11987,0.8591 0.15451,1.29219 0.0293,0.43764 0.033,0.87641 0.035,1.31486 -0.008,0.45378 -0.006,0.9028 0.0535,1.35285 0.0755,0.46851 0.10537,0.94194 0.12232,1.41562 0.0136,0.47259 0.0134,0.94541 0.0136,1.41815 -2e-4,0.43469 -5.2e-4,0.86937 -0.001,1.30406 -0.01,0.45057 -0.006,0.89636 0.0534,1.34314 0.0748,0.46083 0.10433,0.9266 0.123,1.39252 0.0144,0.43483 0.0134,0.86996 0.0136,1.30497 -1.6e-4,0.41105 -5.3e-4,0.82211 -8e-4,1.23316 -5.3e-4,0.43918 -2.6e-4,0.87835 -5.3e-4,1.31753 -5e-5,0.47559 -1.2e-4,0.95118 -1e-5,1.42677 -0.006,0.45757 -0.0118,0.91096 0.0539,1.36433 0.0702,0.45248 0.1052,0.90888 0.12289,1.36607 -0.0134,0.47059 0.0711,0.9334 0.12737,1.3987 0.0426,0.43661 0.0587,0.87221 0.12543,1.30606 0.0665,0.42115 0.0954,0.84445 0.18015,1.26244 0.0835,0.42558 0.10833,0.85705 0.18933,1.28309 0.0953,0.40728 0.0993,0.82669 0.15791,1.23862 0.0877,0.44393 0.1319,0.89292 0.15733,1.34412 0.0206,0.46013 0.0204,0.92088 0.0212,1.38138 -0.0277,0.44714 0.0548,0.88659 0.11272,1.32772 0.0553,0.44641 0.0652,0.8968 0.0721,1.34607 0.005,0.48163 0.004,0.9633 0.004,1.44494 -5.3e-4,0.46139 -7.9e-4,0.92278 -7.9e-4,1.38416 -0.0263,0.42312 0.0255,0.83764 0.0854,1.25511 0.0652,0.42532 0.0859,0.8549 0.0972,1.28441 0.008,0.42125 0.008,0.84261 0.008,1.26392 -0.027,0.38755 0.0207,0.76415 0.0846,1.14487 0.0369,0.38369 0.14233,0.75427 0.21081,1.13257 0.0605,0.38073 0.16306,0.75165 0.21708,1.13402 0.0186,0.38269 0.0727,0.75691 0.13975,1.13359 0.0669,0.37489 0.0858,0.75543 0.0972,1.1353 0.008,0.37801 0.007,0.75614 0.007,1.13422 -5.3e-4,0.37797 -8e-4,0.75595 -0.001,1.13393 0.009,0.37764 -0.0227,0.75725 0.0224,1.13281 0.0712,0.37535 0.11898,0.75342 0.14513,1.1344 0.0211,0.37778 0.0216,0.75629 0.0225,1.13454 2.2e-4,0.37799 -5.3e-4,0.75598 -7.9e-4,1.13396 -2.7e-4,0.37798 -2.7e-4,0.75595 -5.3e-4,1.13392 -3e-5,0.37798 -2e-5,0.75595 -2e-5,1.13393 0.0525,0.32655 0.12073,0.64875 0.15484,0.97823 0.031,0.36571 0.0328,0.73303 0.0349,1.0998 -0.002,0.36299 -0.0167,0.72137 0.0538,1.07856 0.0776,0.33262 0.10533,0.67271 0.1223,1.01288 -0.0137,0.3788 0.0715,0.74735 0.12729,1.11948 0.0565,0.2045 0.0226,0.11303 0.0947,0.27683 0,0 -0.18743,0.008 -0.18743,0.008 v 0 c -0.0712,-0.16738 -0.0377,-0.0742 -0.0941,-0.28171 -0.056,-0.37272 -0.14093,-0.74193 -0.12744,-1.12132 -0.017,-0.3393 -0.045,-0.67844 -0.12248,-1.0102 -0.07,-0.35838 -0.0555,-0.71799 -0.0535,-1.08207 -0.002,-0.36616 -0.004,-0.73288 -0.0351,-1.09798 -0.0344,-0.33007 -0.10376,-0.65275 -0.15465,-0.98016 -1e-5,-0.37798 -1e-5,-0.75595 1e-5,-1.13393 4e-5,-0.37798 9e-5,-0.75596 5.3e-4,-1.13394 2.6e-4,-0.37796 0.001,-0.75593 7.9e-4,-1.13389 -0.001,-0.37784 -0.001,-0.75594 -0.0225,-1.13331 -0.0262,-0.38067 -0.0742,-0.75837 -0.14512,-1.13346 -0.0448,-0.37637 -0.0136,-0.75662 -0.0224,-1.13505 2e-4,-0.37797 5.3e-4,-0.75595 0.001,-1.13393 2.7e-4,-0.37788 0.002,-0.75582 -0.007,-1.13364 -0.0114,-0.37897 -0.0303,-0.7586 -0.0972,-1.13257 -0.0671,-0.37688 -0.12087,-0.7514 -0.13977,-1.13426 -0.0541,-0.38208 -0.15685,-0.75276 -0.21705,-1.13329 -0.0687,-0.37833 -0.17386,-0.74907 -0.21082,-1.13282 -0.064,-0.38172 -0.11149,-0.75945 -0.0845,-1.14798 2.7e-4,-0.42115 0.001,-0.84234 -0.007,-1.26342 -0.0114,-0.42877 -0.0323,-0.85763 -0.0972,-1.28224 -0.06,-0.41835 -0.11211,-0.83376 -0.0856,-1.25777 2.5e-4,-0.46139 7.9e-4,-0.92278 0.001,-1.38417 5.3e-4,-0.48155 0.002,-0.96311 -0.003,-1.44464 -0.007,-0.44856 -0.0168,-0.89823 -0.0724,-1.34393 -0.0579,-0.4419 -0.14028,-0.88222 -0.11272,-1.33012 -5.3e-4,-0.46016 -2.6e-4,-0.92057 -0.0211,-1.38036 -0.0254,-0.45068 -0.0701,-0.89908 -0.15737,-1.34254 -0.0584,-0.41169 -0.0632,-0.83069 -0.158,-1.23775 -0.0807,-0.42599 -0.10565,-0.85743 -0.18949,-1.28286 -0.0846,-0.4183 -0.11326,-0.84192 -0.17986,-1.26333 -0.0667,-0.43406 -0.0831,-0.86981 -0.12535,-1.30666 -0.0562,-0.46581 -0.14089,-0.9291 -0.12744,-1.40021 -0.018,-0.45653 -0.0524,-0.91235 -0.12301,-1.36412 -0.0654,-0.45427 -0.0601,-0.90859 -0.0538,-1.36701 1.1e-4,-0.47559 3e-5,-0.95118 -1e-5,-1.42677 -1.7e-4,-0.43918 1.7e-4,-0.87837 9e-5,-1.31754 2.6e-4,-0.41105 0.001,-0.8221 0.001,-1.23315 -1.4e-4,-0.43476 5.3e-4,-0.86963 -0.0135,-1.30422 -0.0185,-0.46537 -0.0483,-0.93051 -0.12289,-1.39079 -0.0599,-0.44764 -0.0635,-0.8942 -0.0536,-1.34563 7e-5,-0.43468 0.001,-0.86936 0.001,-1.30404 -1.8e-4,-0.47252 -3e-5,-0.94513 -0.0135,-1.41749 -0.0173,-0.47308 -0.0471,-0.94589 -0.12246,-1.41383 -0.0598,-0.45087 -0.0621,-0.90062 -0.0537,-1.35522 -0.002,-0.43797 -0.006,-0.87629 -0.035,-1.31346 -0.0352,-0.43352 -0.10929,-0.86136 -0.15443,-1.29369 2.1e-4,-0.43659 5.3e-4,-0.87318 0.001,-1.30978 -1.9e-4,-0.39695 7.9e-4,-0.79405 -0.0132,-1.19082 -0.0185,-0.40381 -0.0528,-0.80661 -0.12257,-1.20522 -0.0616,-0.4147 -0.0653,-0.82937 -0.0886,-1.24743 -0.0361,-0.38815 -0.10526,-0.77081 -0.15372,-1.1573 -8e-4,-0.42622 -0.002,-0.85266 -0.0215,-1.27851 -0.0237,-0.3885 -0.0711,-0.77399 -0.14848,-1.15575 -0.0519,-0.37557 -0.0316,-0.75788 -0.0942,-1.13309 -0.0567,-0.37751 -0.14193,-0.75151 -0.12723,-1.13583 -0.0186,-0.39664 -0.0529,-0.7922 -0.12174,-1.18367 -0.0622,-0.42529 -0.0599,-0.85 -0.0608,-1.27932 -0.0122,-0.41101 -0.0343,-0.82214 -0.0968,-1.22907 -0.0607,-0.40672 -0.11496,-0.81114 -0.1208,-1.22314 -0.0374,-0.40422 -0.10879,-0.8031 -0.15454,-1.20619 1.4e-4,-0.42309 7e-5,-0.84618 5.2e-4,-1.26928 5.3e-4,-0.43341 0.002,-0.86682 -10e-4,-1.30023 -0.004,-0.43598 -0.0113,-0.87246 -0.0517,-1.3069 -0.045,-0.42055 -0.14377,-0.83683 -0.1371,-1.26108 -1.7e-4,-0.44341 -7.9e-4,-0.88682 -0.001,-1.33023 -1.9e-4,-0.44758 -0.002,-0.89521 0.007,-1.34273 0.0107,-0.39781 0.028,-0.79622 0.097,-1.18904 0.0633,-0.37653 0.11213,-0.74899 0.0855,-1.13237 0,-0.37798 -1e-5,-0.75596 3e-5,-1.13393 6e-5,-0.37799 1.5e-4,-0.75597 5.3e-4,-1.13395 5.3e-4,-0.37789 10e-4,-0.75579 2.1e-4,-1.13369 -0.002,-0.37746 -0.005,-0.75538 -0.0346,-1.13189 -0.0357,-0.38287 -0.10406,-0.76021 -0.15387,-1.14118 -0.001,-0.41252 -0.002,-0.82523 -0.0223,-1.23737 -0.0253,-0.44096 -0.0711,-0.87915 -0.14513,-1.31481 -0.0425,-0.41749 -0.0155,-0.83774 -0.0227,-1.25692 3e-5,-0.45809 1e-4,-0.91618 -5.3e-4,-1.37427 -2.7e-4,-0.47828 -10e-4,-0.95657 -6e-5,-1.43485 0.002,-0.49549 0.004,-0.99141 0.035,-1.48612 0.0349,-0.47396 0.1037,-0.94306 0.15461,-1.4153 6e-5,-0.43268 -10e-5,-0.86537 -4e-5,-1.29806 4e-5,-0.42745 1e-5,-0.8549 -2.6e-4,-1.28235 -2.5e-4,-0.42337 -8e-4,-0.84674 -8e-4,-1.27012 1.3e-4,-0.45841 -3e-5,-0.9169 0.0137,-1.37515 0.0176,-0.49166 0.0466,-0.98345 0.12326,-1.47002 0.0602,-0.44739 0.0644,-0.89391 0.0549,-1.34516 -7.9e-4,-0.42638 -7.9e-4,-0.85297 -0.0208,-1.27898 -0.0234,-0.39938 -0.0668,-0.79617 -0.15783,-1.18658 -0.0645,-0.37625 -0.0672,-0.76321 -0.18095,-1.13126 -0.10149,-0.37545 -0.17565,-0.75612 -0.2614,-1.13548 -0.0548,-0.41833 -0.15993,-0.82879 -0.18836,-1.2501 -0.0495,-0.52758 -0.13666,-1.05376 -0.13747,-1.58425 0,0 0.18718,0 0.18718,0 z"
         id="path4621"
         style="opacity:1;fill:#a70c8b;fill-opacity:1;fill-rule:nonzero;stroke:#a70c8b;stroke-width:0.5;stroke-linecap:round;stroke-linejoin:round;stroke-miterlimit:4;stroke-dasharray:none;stroke-dashoffset:0;stroke-opacity:1;paint-order:markers fill stroke" />
      <path
         inkscape:connector-curvature="0"
         d="m 123.6918,149.18057 c -1.1e-4,0.61459 -0.0901,1.22528 -0.19175,1.83006 -0.12974,0.60659 -0.26406,1.21197 -0.43743,1.80774 -0.12242,0.48456 -0.29276,0.95518 -0.40535,1.44215 -0.11556,0.27474 -0.16171,0.57155 -0.25455,0.85269 -0.29932,0.22016 -0.22547,-0.73855 -0.22545,-0.78984 0.006,-0.52452 -0.0118,-1.04924 0.027,-1.57255 0.0554,-0.63249 0.1516,-1.26186 0.28247,-1.88304 0.10254,-0.54372 0.26855,-1.07334 0.48509,-1.58195 0.17392,-0.39297 0.34573,-0.79092 0.56408,-1.16168 0.25614,-0.3692 0.5834,-0.35508 0.99076,-0.34078 0.33537,0.0873 0.54208,0.38516 0.73231,0.65462 0.29714,0.42073 0.58424,0.84833 0.876,1.2728 0.36325,0.51341 0.73632,1.01952 1.10943,1.52578 0.341,0.45863 0.72895,0.87798 1.08294,1.32614 0.18692,0.27916 0.36704,0.56753 0.50493,0.87465 0,0 -0.18685,0.008 -0.18685,0.008 v 0 c -0.13813,-0.3053 -0.31659,-0.59295 -0.50374,-0.87013 -0.35403,-0.44813 -0.742,-0.8676 -1.08225,-1.32682 -0.37309,-0.50652 -0.74653,-1.01262 -1.10965,-1.52637 -0.2918,-0.42459 -0.57977,-0.85176 -0.87718,-1.27245 -0.18975,-0.26614 -0.39495,-0.56118 -0.73119,-0.63824 0.0569,-0.0144 0.14706,-0.0337 -0.0955,-0.01 -0.15713,0.0155 -0.29679,0.0906 -0.41004,0.19948 -0.042,0.0404 -0.0756,0.0888 -0.11348,0.1332 -0.21983,0.36906 -0.38987,0.76741 -0.56451,1.15921 -0.21717,0.50714 -0.38339,1.03567 -0.48576,1.5783 -0.13133,0.62025 -0.2269,1.2489 -0.28247,1.88054 -0.0385,0.52287 -0.0202,1.04713 -0.0258,1.57117 9e-5,0.0585 0.0255,0.64829 0.0119,0.66856 -0.0368,0.0549 -0.25147,0.0924 -0.1613,0.11514 0.0972,-0.2789 0.13727,-0.57786 0.25617,-0.85076 0.11263,-0.48743 0.28369,-0.95823 0.40635,-1.44318 0.17333,-0.59506 0.308,-1.19968 0.43772,-1.80557 0.10147,-0.60368 0.19235,-1.2134 0.18978,-1.82697 0,0 0.18718,0 0.18718,0 z"
         id="path4623"
         style="opacity:1;fill:#a70c8b;fill-opacity:1;fill-rule:nonzero;stroke:#a70c8b;stroke-width:0.5;stroke-linecap:round;stroke-linejoin:round;stroke-miterlimit:4;stroke-dasharray:none;stroke-dashoffset:0;stroke-opacity:1;paint-order:markers fill stroke" />
    </g>
    <g
       id="g4657"
       transform="rotate(-42.523129,152.52541,207.81592)"
       style="stroke:#a70c8b;stroke-opacity:1;stroke-width:0.5;stroke-miterlimit:4;stroke-dasharray:none">
      <path
         inkscape:connector-curvature="0"
         d="m 63.56547,199.61386 c 0.5182,-0.1465 1.049385,-0.23459 1.584058,-0.29177 0.41533,-0.0396 0.832752,-0.0438 1.249598,-0.046 0.484968,-5.2e-4 0.969936,10e-4 1.454904,0.002 0.505801,5.3e-4 1.011603,8e-4 1.517404,8e-4 0.454165,3e-5 0.90833,2e-5 1.362496,1e-5 0.528978,1e-5 1.05796,-1e-5 1.586941,0 0.566643,-1e-5 1.133285,3e-5 1.699927,3e-5 0.616228,0.0394 1.221666,-0.0554 1.833115,-0.11298 0.600176,-0.0524 1.202648,-0.0654 1.804737,-0.0734 0.63261,-0.005 1.265256,-0.004 1.89788,-0.004 0.495879,-0.008 0.989517,-0.0928 1.485254,-0.13527 0.52936,-0.0412 1.060543,-0.0478 1.591225,-0.0523 0.511427,0.0262 1.015752,-0.058 1.522066,-0.11405 0.524669,-0.0235 1.040866,-0.11862 1.560825,-0.18558 0.475215,-0.0673 0.957606,-0.0425 1.433031,-0.0988 0.440573,-0.0711 0.883571,-0.12058 1.328872,-0.1483 0.388586,-0.0203 0.777809,-0.0212 1.166813,-0.0221 0.439166,-2.6e-4 0.878329,5.3e-4 1.317492,10e-4 0.305134,-0.017 0.624981,-0.0955 0.948661,-0.13544 0.376526,-0.0419 0.755626,-0.0482 1.134055,-0.0527 0.439486,-0.003 0.878988,-0.002 1.318482,-0.001 0.377976,5.3e-4 0.755952,5.3e-4 1.133927,7.9e-4 0.316466,6e-5 0.632934,6e-5 0.949402,6e-5 0.383601,0.0256 0.756817,-0.0207 1.133713,-0.0841 0.374714,-0.0654 0.754597,-0.0861 1.134097,-0.0984 0.471411,-0.03 0.938117,0.0118 1.404095,0.0792 0.43582,0.0675 0.87635,0.0856 1.31649,0.0971 0.40463,0.008 0.80936,0.008 1.21405,0.007 0.47424,-5.3e-4 0.94848,-8e-4 1.42272,-0.001 0.46595,0.005 0.92823,0.0126 1.39018,-0.0527 0.43921,-0.0745 0.88387,-0.10476 1.32839,-0.12387 0.43288,-0.0149 0.86609,-0.0137 1.29917,-0.0139 0.46371,0 0.92741,7.9e-4 1.39112,10e-4 0.37889,2.2e-4 0.75779,2.5e-4 1.13668,2.6e-4 0.32372,10e-6 0.64745,-1e-5 0.97117,2e-5 0.4263,2e-5 0.85259,0 1.27889,-1e-5 0.50601,4e-5 1.01201,1e-5 1.51802,2e-5 0.46627,-1e-5 0.93253,2e-5 1.3988,1e-5 0.45563,-2e-5 0.91127,0 1.3669,-1e-5 0.41238,1e-5 0.82476,1e-5 1.23714,1e-5 0.49493,0 0.98986,2e-5 1.48479,2e-5 0.48238,0.0279 0.95773,-0.0535 1.43437,-0.11273 0.48478,-0.0548 0.97275,-0.0659 1.46008,-0.0736 0.48853,0.003 0.97303,0.003 1.45822,-0.0563 0.47323,-0.072 0.95057,-0.10373 1.42841,-0.12283 0.48603,-0.0649 0.9707,-0.13135 1.45991,-0.16786 0.5069,-0.002 1.00607,-0.0873 1.50794,-0.1474 0.5075,-0.0286 1.00954,-0.0851 1.51244,-0.15752 0.50872,-0.0707 1.02206,-0.09 1.53489,-0.10123 0.53191,0.0181 1.05696,-0.0291 1.58422,-0.0912 0.54206,-0.0689 1.08841,-0.0856 1.63409,-0.0969 0.64196,-0.009 1.28402,-0.008 1.92603,-0.007 0.51154,0.0149 1.01615,0.004 1.52289,-0.0518 0.59019,-0.0739 1.18417,-0.10522 1.7783,-0.1235 0.61777,-0.0143 1.23576,-0.0137 1.85366,-0.0138 0.66657,10e-5 1.33314,8e-4 1.9997,10e-4 0.5778,2.2e-4 1.1556,2.6e-4 1.7334,2.6e-4 0.48605,2e-5 0.9721,-2e-5 1.45816,0 0.55663,0 1.11327,-1e-5 1.66991,10e-6 0.57029,0.0272 1.13393,-0.022 1.69971,-0.0846 0.59836,-0.0655 1.20002,-0.0862 1.80141,-0.098 0.63524,0.018 1.26519,-0.0652 1.89653,-0.12067 0.64141,-0.023 1.27569,-0.12022 1.91338,-0.18531 0.65855,-0.0313 1.3128,-0.0931 1.96833,-0.16152 0.67774,-0.0459 1.35224,-0.11424 2.02774,-0.18534 0.6763,-0.0467 1.34921,-0.11192 2.02266,-0.18913 0.65556,-0.083 1.31781,-0.0687 1.97484,-0.12631 0.61337,-0.0778 1.22907,-0.12584 1.84663,-0.15181 0.58573,0.007 1.165,-0.0417 1.74624,-0.10627 0.56494,-0.0746 1.13607,-0.0641 1.7022,-0.11885 0.52825,-0.0749 1.05871,-0.12603 1.59148,-0.15267 0.52737,0.006 1.04766,-0.0418 1.57015,-0.10636 0.52167,-0.0637 1.04679,-0.0846 1.57174,-0.0971 0.4961,-0.053 0.98903,-0.12504 1.48688,-0.16136 0.49984,-0.004 0.99264,-0.0548 1.48762,-0.11903 0.51775,-0.0652 1.03923,-0.0855 1.56043,-0.0978 0.4827,-0.003 0.95871,-0.0971 1.43841,-0.14322 0.48967,-0.0421 0.98141,-0.0473 1.47255,-0.0514 0.49989,0.0222 0.99239,-0.0189 1.48696,-0.0854 0.46064,-0.0657 0.92594,-0.0856 1.39055,-0.0974 0.53383,-0.01 1.06778,-0.008 1.60166,-0.008 0.44383,-0.0147 0.88661,-0.0964 1.3323,-0.1351 0.52719,-0.0421 1.05622,-0.0479 1.58478,-0.0522 0.56358,0.0254 1.12114,-0.0578 1.68013,-0.11412 0.57317,-0.054 1.14897,-0.0656 1.72425,-0.0727 0.62031,0.0232 1.23491,-0.0624 1.8512,-0.11659 0.66318,-0.0544 1.32863,-0.0653 1.99365,-0.0724 0.68539,-0.0581 1.36937,-0.12383 2.05658,-0.15779 0.67713,-0.026 1.34907,-0.12079 2.02478,-0.17089 0.62108,-0.0405 1.24357,-0.0477 1.86573,-0.052 0.5568,0.0279 1.06785,-0.0181 1.6158,-0.0851 0.49912,-0.0614 1.00137,-0.0849 1.50371,-0.0973 0.54685,-0.01 1.09382,-0.008 1.64073,-0.008 0.49277,5.3e-4 0.98554,7.9e-4 1.47831,0.001 0.48639,1.4e-4 0.97278,1.6e-4 1.45917,1.6e-4 0.41269,0.0219 0.81838,-0.0236 1.22569,-0.0842 0.43384,-0.0675 0.87309,-0.0857 1.31132,-0.0983 0.48448,-0.0102 0.96913,-0.008 1.45368,-0.008 0.41055,5.2e-4 0.82109,7.9e-4 1.23164,0.001 0.25617,9e-5 0.12834,6e-5 0.3835,1.2e-4 0,0 -0.18451,0.0292 -0.18451,0.0292 v 0 c -0.25513,-7e-5 -0.12731,-3e-5 -0.38345,-1.3e-4 -0.41044,-2.2e-4 -0.82089,-5.3e-4 -1.23132,-0.001 -0.36174,-10e-4 -0.72353,1.7e-4 -1.0852,0.007 -0.43807,0.012 -0.87725,0.0294 -1.31102,0.0961 -0.53019,0.0793 -1.05677,0.11637 -1.59431,0.0869 -0.48632,-2e-5 -0.97265,-1e-5 -1.45898,-2e-4 -0.49281,-1.7e-4 -0.98561,-5.3e-4 -1.47842,-0.001 -0.4243,-7.9e-4 -0.84863,-4e-5 -1.27287,0.007 -0.50227,0.0119 -1.00449,0.0346 -1.5036,0.0955 -0.53708,0.0659 -1.07481,0.10544 -1.61647,0.0872 -0.62223,0.004 -1.24479,0.0109 -1.86597,0.0507 -0.67595,0.0494 -1.34799,0.14449 -2.02519,0.17129 -0.68726,0.0334 -1.37137,0.0978 -2.05658,0.15851 -0.66482,0.007 -1.33009,0.0174 -1.99313,0.0711 -0.61635,0.0537 -1.23084,0.1415 -1.85119,0.118 -0.57509,0.007 -1.15071,0.0179 -1.72375,0.0711 -0.55911,0.056 -1.11659,0.14138 -1.68026,0.11583 -0.52846,0.004 -1.0574,0.01 -1.58456,0.0508 -0.56674,0.0484 -1.12946,0.15298 -1.70017,0.13673 -0.41121,-0.001 -0.82246,1.9e-4 -1.23362,0.007 -0.46445,0.0113 -0.92967,0.0303 -1.39022,0.0954 -0.49481,0.0668 -0.9872,0.11147 -1.48752,0.0877 -0.491,0.004 -0.98258,0.009 -1.47217,0.0498 -0.47999,0.0452 -0.95599,0.13981 -1.43869,0.14452 -0.52109,0.0118 -1.04249,0.0313 -1.5602,0.0958 -0.49506,0.0642 -0.98757,0.11844 -1.48767,0.1201 -0.49802,0.0355 -0.99121,0.10584 -1.48706,0.16225 -0.52487,0.012 -1.04995,0.0321 -1.57161,0.0952 -0.52261,0.0647 -1.04269,0.11556 -1.57034,0.10772 -0.53282,0.0259 -1.06349,0.0757 -1.59165,0.15171 -0.56592,0.0572 -1.13723,0.044 -1.7022,0.11864 -0.58142,0.0645 -1.16057,0.11631 -1.74661,0.1075 -0.61755,0.0254 -1.23337,0.0722 -1.84662,0.15092 -0.65686,0.0599 -1.3193,0.0429 -1.97491,0.12584 -0.67362,0.0769 -1.34641,0.14424 -2.02301,0.18925 -0.67548,0.0708 -1.3497,0.14102 -2.02753,0.18538 -0.65549,0.0682 -1.30942,0.13228 -1.96806,0.16161 -0.63782,0.0644 -1.27196,0.16335 -1.9135,0.18556 -0.63141,0.0551 -1.26128,0.14025 -1.89658,0.12194 -0.60119,0.0114 -1.20269,0.0315 -1.80091,0.0963 -0.56593,0.0625 -1.12943,0.11505 -1.69999,0.0866 -0.5566,1e-5 -1.11319,1e-5 -1.66978,1e-5 -0.6084,3e-5 -1.2168,0 -1.82521,0 -0.57774,-4e-5 -1.15549,-6e-5 -1.73324,-2.7e-4 -0.54441,-2.6e-4 -1.08881,-5.3e-4 -1.63322,-0.001 -0.61782,1.6e-4 -1.23572,-5.3e-4 -1.85343,0.0133 -0.59396,0.0178 -1.18785,0.0482 -1.77789,0.12205 -0.62834,0.0705 -1.25886,0.0557 -1.89015,0.0538 -0.5197,-7.9e-4 -1.03944,-2e-4 -1.55909,0.007 -0.54548,0.011 -1.09169,0.0268 -1.63362,0.0951 -0.5274,0.0622 -1.05229,0.11262 -1.58447,0.093 -0.51259,0.0108 -1.02572,0.0293 -1.53432,0.099 -0.50298,0.0723 -1.00468,0.13171 -1.5125,0.15797 -0.50199,0.0596 -1.001,0.14726 -1.508,0.14824 -0.4893,0.0357 -0.97422,0.10016 -1.45985,0.16852 -0.47782,0.0185 -0.95528,0.049 -1.42845,0.12124 -0.48529,0.0608 -0.96954,0.0632 -1.45841,0.0583 -0.48715,0.007 -0.97494,0.0179 -1.45964,0.0717 -0.47692,0.0588 -0.95232,0.14311 -1.43498,0.11495 -0.49489,0 -0.98977,2e-5 -1.48466,1e-5 -0.53507,0 -1.07014,0 -1.6052,2e-5 -0.4556,-1e-5 -0.91119,1e-5 -1.36678,-1e-5 -0.46628,-1e-5 -0.93257,1e-5 -1.39886,0 -0.38319,1.3e-4 -0.76638,-9e-5 -1.14957,3e-5 -0.42633,-10e-6 -0.85267,-3e-5 -1.279,-10e-6 -0.44666,5e-5 -0.89331,3e-5 -1.33997,2e-5 -0.37888,-2e-5 -0.75776,-5e-5 -1.13664,-2.6e-4 -0.34082,-2.5e-4 -0.68163,-5.3e-4 -1.02244,-0.001 -0.43302,1.2e-4 -0.86616,-10e-4 -1.299,0.0132 -0.4444,0.0184 -0.88911,0.0475 -1.32818,0.12202 -0.46217,0.0669 -0.92427,0.0618 -1.39075,0.0553 -0.47426,1.9e-4 -0.94851,5.2e-4 -1.42277,0.001 -0.52739,1.6e-4 -1.05486,0.002 -1.58218,-0.008 -0.44031,-0.012 -0.88094,-0.0313 -1.316853,-0.0993 -0.350277,-0.0505 -0.677098,-0.11693 -1.034934,-0.0771 -0.379317,0.0117 -0.759113,0.0313 -1.133758,0.0959 -0.377169,0.0635 -0.749993,0.11449 -1.134144,0.0871 -0.439486,0 -0.87897,1e-5 -1.318456,-7e-5 -0.377976,-1e-4 -0.755954,-2.6e-4 -1.13393,-7.9e-4 -0.316463,-2.7e-4 -0.632931,-0.001 -0.949391,0.001 -0.378299,0.004 -0.757256,0.01 -1.133761,0.0507 -0.43893,0.0531 -0.872797,0.15873 -1.318046,0.13768 -0.316148,-2.7e-4 -0.632293,-8e-4 -0.948436,-0.001 -0.389008,7.9e-4 -0.778226,0.001 -1.166846,0.0209 -0.445284,0.0269 -0.888429,0.0749 -1.328791,0.14717 -0.47512,0.0601 -0.958067,0.0312 -1.433428,0.0986 -0.520125,0.0663 -1.036103,0.16338 -1.560922,0.18591 -0.506511,0.0556 -1.010804,0.1424 -1.522405,0.1159 -0.530635,0.004 -1.061767,0.0105 -1.591135,0.0509 -0.617072,0.0521 -1.2314,0.15523 -1.852586,0.13681 -0.510313,-2.6e-4 -1.020636,-0.001 -1.530932,0.003 -0.602049,0.008 -1.204489,0.0202 -1.804678,0.0719 -0.609859,0.0569 -1.218988,0.13973 -1.833287,0.1147 -0.566558,-10e-6 -1.133116,4e-5 -1.699671,2e-5 -0.528923,2e-5 -1.057843,0 -1.586767,3e-5 -0.57664,0 -1.153284,3e-5 -1.729927,-4e-5 -0.5059,-7e-5 -1.011799,-1.2e-4 -1.517698,-7.9e-4 -0.362151,-5.3e-4 -0.724305,-0.002 -1.086448,-0.002 -0.416928,0.002 -0.834424,0.006 -1.249923,0.0441 -0.534178,0.0558 -1.065046,0.1424 -1.582682,0.28871 0,0 -0.185545,-0.0241 -0.185545,-0.0241 z"
         id="path4651"
         style="opacity:1;fill:#a70c8b;fill-opacity:1;fill-rule:nonzero;stroke:#a70c8b;stroke-width:0.5;stroke-linecap:round;stroke-linejoin:round;stroke-miterlimit:4;stroke-dasharray:none;stroke-dashoffset:0;stroke-opacity:1;paint-order:markers fill stroke" />
      <path
         inkscape:connector-curvature="0"
         d="m 210.99909,191.13059 c 0.74434,-0.0907 1.49748,-0.039 2.23959,0.0457 0.65144,0.0555 1.28288,0.22375 1.91613,0.37573 0.39261,0.11723 0.80933,0.22068 1.10944,0.51423 0.21548,0.27274 0.15988,0.54442 0.0572,0.84723 -0.18224,0.32056 -0.42633,0.614 -0.67843,0.88341 -0.33566,0.31336 -0.66305,0.6373 -1.01592,0.93135 -0.3662,0.30841 -0.74991,0.59311 -1.13095,0.88246 -0.0631,0.0432 -0.12629,0.0865 -0.18944,0.1297 0,0 -0.18548,-0.0181 -0.18548,-0.0181 v 0 c 0.0631,-0.0429 0.1263,-0.0858 0.18945,-0.12874 0.3806,-0.28964 0.765,-0.57309 1.13088,-0.88166 0.35347,-0.29234 0.67894,-0.61742 1.01529,-0.9291 0.25202,-0.2664 0.49209,-0.55965 0.67756,-0.87546 0.10089,-0.29634 0.15897,-0.5607 -0.0567,-0.82606 -0.30231,-0.28672 -0.71664,-0.38892 -1.10696,-0.50455 -0.63258,-0.15251 -1.264,-0.31816 -1.91484,-0.3736 -0.62054,-0.0702 -1.24936,-0.12955 -1.8718,-0.0456 0,0 -0.18495,-0.0269 -0.18495,-0.0269 z"
         id="path4653"
         style="opacity:1;fill:#a70c8b;fill-opacity:1;fill-rule:nonzero;stroke:#a70c8b;stroke-width:0.5;stroke-linecap:round;stroke-linejoin:round;stroke-miterlimit:4;stroke-dasharray:none;stroke-dashoffset:0;stroke-opacity:1;paint-order:markers fill stroke" />
    </g>
    <path
       style="opacity:1;fill:#a70c8b;fill-opacity:1;fill-rule:nonzero;stroke:#a70c8b;stroke-width:0.5;stroke-linecap:round;stroke-linejoin:round;stroke-miterlimit:4;stroke-dasharray:none;stroke-dashoffset:0;stroke-opacity:1;paint-order:markers fill stroke"
       id="path4667"
       d="m 191.46227,162.35718 c 0.42403,0.44318 0.85493,0.86997 1.34596,1.23809 0.56212,0.38898 1.10043,0.81175 1.64987,1.21868 0.51726,0.40348 1.10174,0.70153 1.64892,1.05964 0.47511,0.25822 0.93429,0.54433 1.41143,0.79873 0.25998,0.14578 0.13268,0.0829 0.38013,0.19213 0,0 -0.18555,0.0215 -0.18555,0.0215 v 0 c -0.24681,-0.11154 -0.11971,-0.0481 -0.37975,-0.19351 -0.47651,-0.25579 -0.93677,-0.54029 -1.41094,-0.80042 -0.54768,-0.35734 -1.13141,-0.65697 -1.64846,-1.06078 -0.54952,-0.40701 -1.08801,-0.82968 -1.65026,-1.21877 -0.49101,-0.36963 -0.92127,-0.79884 -1.34793,-1.24055 0,0 0.18658,-0.0147 0.18658,-0.0147 z"
       inkscape:connector-curvature="0" />
    <path
       style="opacity:1;fill:#a70c8b;fill-opacity:1;fill-rule:nonzero;stroke:#a70c8b;stroke-width:0.5;stroke-linecap:round;stroke-linejoin:round;stroke-miterlimit:4;stroke-dasharray:none;stroke-dashoffset:0;stroke-opacity:1;paint-order:markers fill stroke"
       id="path4669"
       d="m 195.93812,161.97312 c -0.47666,0.35313 -0.83438,0.83728 -1.14759,1.3348 -0.30671,0.55876 -0.56516,1.14575 -0.81493,1.73214 -0.26151,0.61383 -0.53424,1.22447 -0.82682,1.82429 -0.20991,0.48638 -0.49699,0.93249 -0.75062,1.39594 0,0 -0.18612,-0.009 -0.18612,-0.009 v 0 c 0.25331,-0.46351 0.5416,-0.9088 0.75163,-1.39503 0.29306,-0.59925 0.56537,-1.20984 0.82686,-1.82333 0.24957,-0.58741 0.50898,-1.1749 0.81483,-1.73509 0.31332,-0.49948 0.67156,-0.98494 1.14655,-1.34276 0,0 0.18621,0.0184 0.18621,0.0184 z"
       inkscape:connector-curvature="0" />
    <path
       style="opacity:1;fill:#a70c8b;fill-opacity:1;fill-rule:nonzero;stroke:#a70c8b;stroke-width:0.5;stroke-linecap:round;stroke-linejoin:round;stroke-miterlimit:4;stroke-dasharray:none;stroke-dashoffset:0;stroke-opacity:1;paint-order:markers fill stroke"
       id="path4671"
       d="m 198.10783,158.44359 c -0.18514,0.556 -0.18154,1.13858 -0.17712,1.71714 0.0161,0.52824 0.0814,1.06137 0.18745,1.57956 0.0693,0.27922 0.12296,0.56131 0.16516,0.84573 0,0 -0.18666,0.003 -0.18666,0.003 v 0 c -0.0421,-0.28406 -0.0958,-0.56578 -0.16467,-0.84473 -0.10548,-0.51952 -0.17136,-1.05368 -0.18688,-1.58317 -0.005,-0.58019 -0.007,-1.16432 0.17568,-1.72248 0,0 0.18704,0.005 0.18704,0.005 z"
       inkscape:connector-curvature="0" />
    <path
       style="opacity:1;fill:#a70c8b;fill-opacity:1;fill-rule:nonzero;stroke:#a70c8b;stroke-width:0.5;stroke-linecap:round;stroke-linejoin:round;stroke-miterlimit:4;stroke-dasharray:none;stroke-dashoffset:0;stroke-opacity:1;paint-order:markers fill stroke"
       id="path4673"
       d="m 100.41487,158.93032 c 0.52386,0.2823 1.0565,0.54775 1.58279,0.82537 0.38806,0.22024 0.81061,0.32946 1.2498,0.3806 0.30849,-0.0506 0.52752,-0.24747 0.72648,-0.47907 0.20084,-0.28491 0.22818,-0.63041 0.24955,-0.96743 0.0179,-0.36039 0.0265,-0.71669 -0.0457,-1.071 -0.0297,-0.58074 0.52806,0.15688 0.60773,0.26775 0.31126,0.48082 0.6268,0.95881 0.92533,1.4477 0.38574,0.64311 0.81702,1.25654 1.23653,1.87762 0.40329,0.61118 0.80012,1.22411 1.15568,1.86422 0.26957,0.54862 0.48957,0.99237 0.53102,1.60835 0.0223,0.46267 -0.0894,0.90217 -0.34284,1.28789 -0.26651,0.34923 -0.61352,0.61544 -1.00255,0.81344 -0.37929,0.2094 -0.79632,0.32764 -1.22897,0.33745 -0.455,0.0118 -0.84803,-0.0597 -1.17274,-0.39033 -0.31597,-0.32003 -0.35341,-0.69729 -0.34863,-1.1241 0.0625,-0.55682 0.28362,-1.07831 0.51089,-1.58511 0.28498,-0.56019 0.56864,-1.12032 0.84032,-1.68697 0.20854,-0.45801 0.41356,-0.91807 0.63898,-1.36811 0,0 0.18621,0.009 0.18621,0.009 v 0 c -0.22606,0.44972 -0.43104,0.90985 -0.63988,1.36773 -0.27187,0.56642 -0.55469,1.12683 -0.84051,1.68649 -0.22614,0.50445 -0.44688,1.02336 -0.50952,1.57751 -0.005,0.4227 0.0335,0.79417 0.34852,1.10926 0.22537,0.22347 0.50978,0.34334 0.80186,0.37603 0.43171,-0.004 0.84937,-0.12123 1.228,-0.32909 0.38875,-0.19391 0.73453,-0.45799 1.00176,-0.80379 0.2545,-0.38067 0.36459,-0.81702 0.343,-1.27572 -0.0405,-0.60194 -0.26384,-1.06472 -0.52986,-1.60022 -0.35508,-0.63969 -0.7521,-1.25192 -1.15495,-1.86264 -0.41985,-0.62125 -0.85107,-1.23514 -1.23712,-1.87843 -0.29906,-0.48841 -0.61431,-0.96646 -0.92701,-1.44619 -0.0455,-0.0628 -0.15584,-0.21994 -0.21188,-0.28114 -0.0325,-0.0354 -0.10378,-0.0498 -0.10587,-0.0979 -0.002,-0.0393 0.0604,-0.0562 0.0988,-0.0643 0.0178,-0.004 -0.0233,0.0305 -0.025,0.0487 -0.004,0.0371 0.007,0.0743 0.01,0.1115 0.0719,0.35596 0.0633,0.71399 0.0456,1.07593 -0.0214,0.34082 -0.0494,0.68986 -0.24981,0.97944 -0.30148,0.35679 -0.60933,0.53955 -1.09793,0.4929 -0.43951,-0.0536 -0.86163,-0.16656 -1.24972,-0.38749 -0.52691,-0.27736 -1.05928,-0.54421 -1.58395,-0.82588 0,0 0.18587,-0.0196 0.18587,-0.0196 z"
       inkscape:connector-curvature="0" />
    <path
       style="opacity:1;fill:#a70c8b;fill-opacity:1;fill-rule:nonzero;stroke:#a70c8b;stroke-width:0.5;stroke-linecap:round;stroke-linejoin:round;stroke-miterlimit:4;stroke-dasharray:none;stroke-dashoffset:0;stroke-opacity:1;paint-order:markers fill stroke"
       id="path4679"
       d="m 105.97206,153.14672 c 0.19869,0.56064 0.38808,1.12571 0.63438,1.6676 0.22568,0.52055 0.4991,1.01768 0.72556,1.53782 0.16731,0.34583 0.26736,0.71588 0.38315,1.08037 0,0 -0.18563,0.006 -0.18563,0.006 v 0 c -0.11546,-0.36397 -0.21603,-0.73324 -0.38319,-1.07844 -0.22672,-0.51985 -0.50004,-1.01695 -0.72522,-1.53756 -0.24584,-0.54322 -0.43565,-1.10917 -0.63608,-1.67029 0,0 0.18703,-0.005 0.18703,-0.005 z"
       inkscape:connector-curvature="0" />
    <path
       style="opacity:1;fill:none;fill-opacity:1;fill-rule:nonzero;stroke:#000000;stroke-width:0.50000001;stroke-linecap:round;stroke-linejoin:round;stroke-miterlimit:4;stroke-dasharray:none;stroke-dashoffset:0;stroke-opacity:1;paint-order:markers fill stroke"
       id="path4737"
       d="m 146.29412,199.20986 c 0.3482,0.3576 0.65433,0.74962 0.97044,1.13452 0.25818,0.30217 0.43909,0.64891 0.59765,1.01043 0.17203,0.36 0.32099,0.73291 0.44187,1.11327 0.0807,0.37964 0.18594,0.75367 0.25614,1.1357 0.0617,0.3754 0.071,0.75632 0.0774,1.13585 0.0319,0.38418 -0.0552,0.75841 -0.11226,1.1355 -0.0346,0.23532 -0.0488,0.47277 -0.0636,0.70993 0,0 -0.18734,-0.001 -0.18734,-0.001 v 0 c 0.0156,-0.23765 0.0295,-0.47567 0.0641,-0.71154 0.0569,-0.37609 0.14408,-0.74923 0.11222,-1.13238 -0.006,-0.3785 -0.0156,-0.75841 -0.0774,-1.13277 -0.0702,-0.3812 -0.17505,-0.75458 -0.25602,-1.13335 -0.12116,-0.37964 -0.26999,-0.75185 -0.44185,-1.11128 -0.15859,-0.35981 -0.33961,-0.70462 -0.59701,-1.00539 -0.31479,-0.38561 -0.62206,-0.77615 -0.97105,-1.13261 0,0 0.18659,-0.0147 0.18659,-0.0147 z"
       inkscape:connector-curvature="0" />
    <path
       style="opacity:1;fill:none;fill-opacity:1;fill-rule:nonzero;stroke:#000000;stroke-width:0.5;stroke-linecap:round;stroke-linejoin:round;stroke-miterlimit:4;stroke-dasharray:none;stroke-dashoffset:0;stroke-opacity:1;paint-order:markers fill stroke"
       id="path4745"
       d="m 127.11802,198.75561 c 0.10286,-0.49383 0.24255,-0.98328 0.43666,-1.4493 0.13274,-0.33307 0.34733,-0.6235 0.57436,-0.8978 0.25344,-0.25502 0.51117,-0.50486 0.78688,-0.73581 0.29864,-0.22991 0.64345,-0.385 0.96285,-0.58107 0.30728,-0.19466 0.64703,-0.32256 0.98237,-0.45802 0.34061,-0.14436 0.70728,-0.19358 1.05946,-0.29997 0.32815,-0.10337 0.671,-0.13053 1.01245,-0.14798 0.24032,-0.0188 0.47765,-0.002 0.71773,0.0128 0,0 -0.18515,0.0269 -0.18515,0.0269 v 0 c 0.0785,-0.076 -0.32803,0.0186 -0.34781,-0.0114 -0.34093,0.0165 -0.6836,0.0416 -1.01164,0.14348 -0.35204,0.10699 -0.71805,0.15646 -1.05954,0.29824 -0.33434,0.13633 -0.6749,0.26075 -0.98198,0.45491 -0.31776,0.19763 -0.66314,0.35032 -0.96241,0.57842 -0.27548,0.23019 -0.53283,0.47899 -0.78695,0.7324 -0.2264,0.27262 -0.44101,0.56132 -0.57419,0.89229 -0.1955,0.46366 -0.33451,0.95215 -0.43595,1.44455 0,0 -0.18714,-0.003 -0.18714,-0.003 z"
       inkscape:connector-curvature="0" />
    <path
       style="opacity:1;fill:none;fill-opacity:1;fill-rule:nonzero;stroke:#000000;stroke-width:0.5;stroke-linecap:round;stroke-linejoin:round;stroke-miterlimit:4;stroke-dasharray:none;stroke-dashoffset:0;stroke-opacity:1;paint-order:markers fill stroke"
       id="path4751"
       d="m 145.9924,199.4514 c -0.001,0.52779 -8e-4,1.05558 -5.3e-4,1.58337 1.7e-4,0.20444 -1e-4,0.40888 5.3e-4,0.61331 1e-4,0.0398 0.0375,0.13485 7.9e-4,0.11939 -0.0661,-0.0279 -0.1255,-0.0697 -0.18825,-0.10453 -0.0248,-0.33987 0.0296,-0.66973 0.0861,-1.00314 0.0652,-0.37713 0.0851,-0.75947 0.0971,-1.14133 0.0545,-0.43824 0.20767,-0.50696 0.64744,-0.41391 0.28027,0.14909 0.56546,0.29086 0.84125,0.44794 0.28029,0.13919 0.57413,0.25798 0.87058,0.36004 0,0 -0.18582,0.0231 -0.18582,0.0231 v 0 c -0.29621,-0.10425 -0.59139,-0.22093 -0.8708,-0.36339 -0.27601,-0.15462 -0.55742,-0.30208 -0.84096,-0.44198 -0.0421,-0.008 -0.0906,1.5e-4 -0.12626,-0.0235 -0.0226,-0.0149 0.0824,-0.0335 0.0809,-0.007 -0.002,0.0307 -0.0589,0.021 -0.0828,0.0404 -0.11073,0.0896 -0.12952,0.24931 -0.14671,0.37842 -0.012,0.3827 -0.032,0.76589 -0.0972,1.14387 -0.0563,0.33242 -0.11085,0.66115 -0.0851,1.00002 -0.0627,0.0348 -0.12211,0.0767 -0.18825,0.10453 -0.0367,0.0154 8e-4,-0.0796 8e-4,-0.1194 5.2e-4,-0.20443 2.6e-4,-0.40887 5.2e-4,-0.61331 2e-4,-0.52779 5.3e-4,-1.05558 -5.2e-4,-1.58337 0,0 0.18717,0 0.18717,0 z"
       inkscape:connector-curvature="0" />
    <path
       style="opacity:1;fill:none;fill-opacity:1;fill-rule:nonzero;stroke:#000000;stroke-width:0.5;stroke-linecap:round;stroke-linejoin:round;stroke-miterlimit:4;stroke-dasharray:none;stroke-dashoffset:0;stroke-opacity:1;paint-order:markers fill stroke"
       id="path4753"
       d="m 127.11802,198.18865 c 0.0753,-0.52479 0.11781,-1.05334 0.14561,-1.58254 0.003,-0.14564 0.0566,-0.27992 0.0807,-0.42134 0.0122,-0.0715 0.13633,0.0698 0.17235,0.13279 0.025,0.0438 -0.009,0.10045 -0.0128,0.15067 -0.0293,0.36482 -0.12128,0.72079 -0.16863,1.08407 -0.10254,0.37511 -0.14593,0.76242 -0.23038,1.14081 -0.0301,0.14763 -0.0878,0.31266 -0.0663,0.46708 0.0134,0.096 0.0692,0.083 0.0673,0.0827 -0.0416,-0.008 -0.0823,-0.0202 -0.12353,-0.0304 0.30111,-0.25265 0.56638,-0.54678 0.84069,-0.82801 0.29612,-0.30373 0.63265,-0.55639 0.96487,-0.81704 0.1422,-0.10614 0.28782,-0.20541 0.43876,-0.29852 0,0 0.18597,0.019 0.18597,0.019 v 0 c -0.15119,0.092 -0.29614,0.19117 -0.43861,0.29634 -0.33093,0.26145 -0.66992,0.5106 -0.96544,0.81453 -0.27522,0.2824 -0.5428,0.5746 -0.83926,0.83487 -0.0836,0.01 -0.16663,0.0291 -0.25081,0.0296 -0.1419,0.001 -0.0181,-0.5169 -2.6e-4,-0.57433 0.0849,-0.37771 0.1271,-0.76473 0.2303,-1.13912 0.0472,-0.363 0.13899,-0.71873 0.16818,-1.08322 0.004,-0.0504 -0.0178,-0.1108 0.0126,-0.15116 0.0481,-0.0638 0.21643,-0.20611 0.20325,-0.12727 -0.0336,0.20108 0.0156,-0.12271 -0.0509,0.2114 -0.0136,0.0686 -0.0212,0.13832 -0.0318,0.20747 -0.0282,0.52971 -0.0715,1.05861 -0.14464,1.58421 0,0 -0.18714,-0.003 -0.18714,-0.003 z"
       inkscape:connector-curvature="0" />
  </g>
</svg>
