<?xml version="1.0" encoding="UTF-8" standalone="no"?>
<!-- Created with Inkscape (http://www.inkscape.org/) -->

<svg
   xmlns:dc="http://purl.org/dc/elements/1.1/"
   xmlns:cc="http://creativecommons.org/ns#"
   xmlns:rdf="http://www.w3.org/1999/02/22-rdf-syntax-ns#"
   xmlns:svg="http://www.w3.org/2000/svg"
   xmlns="http://www.w3.org/2000/svg"
   xmlns:sodipodi="http://sodipodi.sourceforge.net/DTD/sodipodi-0.dtd"
   xmlns:inkscape="http://www.inkscape.org/namespaces/inkscape"
   width="297mm"
   height="210mm"
   viewBox="0 0 297 210"
   version="1.1"
   id="svg8"
   inkscape:version="0.92.1 r15371"
   sodipodi:docname="conic-10-41.svg">
  <defs
     id="defs2">
    <marker
       inkscape:stockid="Arrow1Mend"
       orient="auto"
       refY="0.0"
       refX="0.0"
       id="marker5165"
       style="overflow:visible;"
       inkscape:isstock="true">
      <path
         id="path5163"
         d="M 0.0,0.0 L 5.0,-5.0 L -12.5,0.0 L 5.0,5.0 L 0.0,0.0 z "
         style="fill-rule:evenodd;stroke:#000000;stroke-width:1pt;stroke-opacity:1;fill:#000000;fill-opacity:1"
         transform="scale(0.4) rotate(180) translate(10,0)" />
    </marker>
    <marker
       inkscape:stockid="Arrow1Lend"
       orient="auto"
       refY="0.0"
       refX="0.0"
       id="Arrow1Lend"
       style="overflow:visible;"
       inkscape:isstock="true">
      <path
         id="path4846"
         d="M 0.0,0.0 L 5.0,-5.0 L -12.5,0.0 L 5.0,5.0 L 0.0,0.0 z "
         style="fill-rule:evenodd;stroke:#000000;stroke-width:1pt;stroke-opacity:1;fill:#000000;fill-opacity:1"
         transform="scale(0.8) rotate(180) translate(12.5,0)" />
    </marker>
    <marker
       inkscape:stockid="Arrow1Mend"
       orient="auto"
       refY="0.0"
       refX="0.0"
       id="Arrow1Mend"
       style="overflow:visible;"
       inkscape:isstock="true">
      <path
         id="path4852"
         d="M 0.0,0.0 L 5.0,-5.0 L -12.5,0.0 L 5.0,5.0 L 0.0,0.0 z "
         style="fill-rule:evenodd;stroke:#000000;stroke-width:1pt;stroke-opacity:1;fill:#000000;fill-opacity:1"
         transform="scale(0.4) rotate(180) translate(10,0)" />
    </marker>
  </defs>
  <sodipodi:namedview
     id="base"
     pagecolor="#ffffff"
     bordercolor="#666666"
     borderopacity="1.0"
     inkscape:pageopacity="0.0"
     inkscape:pageshadow="2"
     inkscape:zoom="2.8"
     inkscape:cx="332.10482"
     inkscape:cy="409.76316"
     inkscape:document-units="mm"
     inkscape:current-layer="layer1"
     showgrid="false"
     inkscape:window-width="1920"
     inkscape:window-height="1046"
     inkscape:window-x="-11"
     inkscape:window-y="-11"
     inkscape:window-maximized="1" />
  <metadata
     id="metadata5">
    <rdf:RDF>
      <cc:Work
         rdf:about="">
        <dc:format>image/svg+xml</dc:format>
        <dc:type
           rdf:resource="http://purl.org/dc/dcmitype/StillImage" />
        <dc:title></dc:title>
      </cc:Work>
    </rdf:RDF>
  </metadata>
  <g
     inkscape:label="Layer 1"
     inkscape:groupmode="layer"
     id="layer1"
     transform="translate(0,-87)">
    <path
       style="opacity:1;fill:none;fill-opacity:1;fill-rule:nonzero;stroke:#000000;stroke-width:1;stroke-linecap:round;stroke-linejoin:round;stroke-miterlimit:4;stroke-dasharray:none;stroke-dashoffset:0;stroke-opacity:1;paint-order:markers fill stroke"
       id="path4544"
       d="m 99.75771,162.18317 c -7.93e-4,0.33166 -5.29e-4,0.66332 -5.29e-4,0.99497 0.03747,0.34673 0.08444,0.69222 0.109421,1.03986 0.02273,0.38817 0.02294,0.77694 0.02461,1.1655 0.0084,0.42953 0.0024,0.85743 -0.03844,1.28567 -0.04749,0.47658 -0.07003,0.95383 -0.125466,1.42986 -0.04035,0.50787 -0.124505,1.01195 -0.177117,1.5189 -0.04118,0.47789 -0.117181,0.9527 -0.156858,1.43081 -0.02753,0.46982 -0.03041,0.93914 -0.07622,1.40812 -0.0516,0.45734 -0.07417,0.91624 -0.08679,1.3753 -0.0089,0.41845 -0.0089,0.83697 -0.0088,1.25547 -0.01876,0.37684 0.01497,0.75018 0.06136,1.12452 0.05241,0.3474 0.04265,0.69856 0.08499,1.0463 0.05607,0.3328 0.08928,0.6673 0.107918,1.00286 -0.0046,0.33536 0.02963,0.66685 0.07569,0.99951 0.02693,0.33525 0.07464,0.66743 0.128487,1.00029 0.0328,0.33497 0.08029,0.66744 0.134215,1.00047 0.0465,0.34853 0.05926,0.69806 0.111215,1.0461 0.05578,0.35127 0.07829,0.705 0.0914,1.05885 0.008,0.34209 0.0743,0.68074 0.10551,1.02176 0.0489,0.35393 -0.008,0.70679 -0.0448,1.05925 -0.0366,0.36632 -0.0452,0.73395 -0.0508,1.10131 -0.004,0.37058 -0.003,0.74118 -0.003,1.11176 -0.03685,0.38076 -0.08418,0.76047 -0.108948,1.14201 -0.02167,0.37968 -0.02307,0.75987 -0.02466,1.13989 -7.94e-4,0.39033 -1.46e-4,0.78066 6.9e-5,1.17099 2.64e-4,0.38721 5.29e-4,0.77441 5.29e-4,1.16162 -2.9e-5,0.39101 3.4e-5,0.78204 -3.5e-5,1.17305 -0.0019,0.39781 0.06324,0.79331 0.09688,1.18984 0.03065,0.4053 0.03356,0.81155 0.03643,1.21749 0.009,0.42334 -0.0161,0.84742 0.0168,1.27009 0.0518,0.42057 0.0831,0.84227 0.10208,1.26465 0.0508,0.40373 0.0987,0.80733 0.12536,1.21273 0.0228,0.41288 0.0863,0.82321 0.12097,1.23563 0.0308,0.41333 0.0334,0.8276 0.0361,1.24156 0.0385,0.44047 0.0851,0.88011 0.10975,1.32135 0.0154,0.42944 0.0852,0.85571 0.1212,1.28415 0.0737,0.44072 0.11948,0.88321 0.14556,1.3275 0.057,0.46158 0.1076,0.92321 0.13468,1.38672 0.0195,0.44295 0.085,0.88332 0.12105,1.32555 0.0624,0.41153 0.10994,0.82409 0.18347,1.23435 0.0582,0.4126 0.14057,0.82225 0.19252,1.23549 0.0473,0.43659 0.11747,0.87074 0.15716,1.30807 0.0329,0.41739 0.10046,0.83186 0.13466,1.24937 0.0248,0.44086 0.0282,0.88103 0.0745,1.32084 0.0533,0.44371 0.0747,0.88922 0.0872,1.33481 0.0494,0.41724 0.0775,0.83661 0.13452,1.25314 0.0639,0.40701 0.102,0.81583 0.16465,1.22292 0.0693,0.40172 0.09,0.80723 0.10252,1.21241 0.009,0.43872 0.0733,0.87503 0.10536,1.31293 0.0272,0.41781 0.0324,0.83627 0.0357,1.25458 -0.0179,0.37115 0.0149,0.73851 0.0612,1.10708 0.0453,0.3369 0.0599,0.67576 0.0683,1.01443 0.006,0.31202 0.006,0.62408 0.005,0.93613 -2.7e-4,0.18483 -5.3e-4,0.36966 -5.3e-4,0.55449 0,0 -0.13182,-1e-5 -0.13182,-1e-5 v 0 c 2.2e-4,-0.18482 5.3e-4,-0.36966 5.3e-4,-0.55449 2.5e-4,-0.31196 7.8e-4,-0.62395 -0.005,-0.93589 -0.008,-0.33837 -0.0229,-0.67691 -0.0681,-1.01352 -0.0464,-0.36893 -0.0788,-0.73667 -0.061,-1.10815 -0.003,-0.41812 -0.008,-0.83638 -0.0353,-1.25399 -0.0321,-0.43803 -0.0963,-0.87446 -0.10551,-1.31331 -0.0127,-0.40481 -0.0335,-0.80992 -0.10254,-1.21131 -0.0627,-0.40712 -0.10087,-0.81599 -0.16464,-1.22307 -0.0571,-0.41684 -0.0853,-0.83653 -0.13435,-1.25412 -0.0124,-0.44535 -0.0339,-0.89063 -0.0871,-1.33411 -0.0463,-0.43989 -0.0497,-0.88012 -0.0746,-1.32105 -0.0343,-0.41748 -0.10207,-0.83192 -0.13473,-1.2493 -0.0393,-0.43725 -0.10986,-0.87125 -0.15708,-1.30775 -0.0521,-0.41308 -0.13459,-0.82256 -0.19267,-1.235 -0.0733,-0.41058 -0.12133,-0.8234 -0.18341,-1.23524 -0.0357,-0.44232 -0.10147,-0.88272 -0.12081,-1.32575 -0.027,-0.46351 -0.0777,-0.92514 -0.13452,-1.38672 -0.0261,-0.44423 -0.0725,-0.8866 -0.14601,-1.32727 -0.036,-0.42851 -0.10546,-0.85491 -0.12096,-1.2844 -0.0246,-0.4414 -0.0714,-0.88118 -0.10985,-1.3218 -0.003,-0.41373 -0.006,-0.82776 -0.0362,-1.24086 -0.0344,-0.41251 -0.0983,-0.82285 -0.12108,-1.2358 -0.0266,-0.40547 -0.0746,-0.80911 -0.12524,-1.21291 -0.01864,-0.4223 -0.05034,-0.84388 -0.102107,-1.26435 -0.03284,-0.4229 -0.0071,-0.84718 -0.01672,-1.27074 -0.003,-0.40571 -0.0061,-0.81172 -0.03669,-1.21678 -0.03343,-0.39681 -0.09887,-0.79253 -0.0968,-1.19061 -6.7e-5,-0.39101 8e-6,-0.78204 -8e-5,-1.17305 -3.9e-5,-0.38721 -1.14e-4,-0.77441 -2.64e-4,-1.16162 -2.65e-4,-0.39034 -0.0011,-0.78068 -2.09e-4,-1.17102 0.0016,-0.3802 0.0029,-0.76059 0.02471,-1.14044 0.02458,-0.38136 0.07192,-0.76086 0.108733,-1.14142 -1.35e-4,-0.37063 -0.0011,-0.74128 0.003,-1.1119 0.0057,-0.36764 0.01413,-0.73553 0.05073,-1.10212 0.03688,-0.35187 0.09347,-0.70415 0.04482,-1.05747 -0.03145,-0.34117 -0.09817,-0.68 -0.105632,-1.02227 -0.01291,-0.35352 -0.03547,-0.70692 -0.0913,-1.05783 -0.05199,-0.348 -0.06451,-0.69752 -0.111358,-1.04599 -0.05381,-0.33303 -0.101309,-0.66552 -0.134215,-1.00047 -0.05374,-0.33294 -0.101463,-0.6652 -0.128498,-1.0005 -0.04595,-0.33291 -0.08024,-0.66466 -0.07571,-1.00026 -0.01852,-0.33536 -0.05191,-0.66965 -0.107868,-1.00226 -0.04201,-0.34776 -0.03255,-0.69888 -0.08477,-1.04628 -0.04621,-0.37473 -0.08011,-0.74843 -0.06125,-1.12564 2.25e-4,-0.41858 1.75e-4,-0.83719 0.0092,-1.25571 0.01265,-0.45928 0.03529,-0.9184 0.087,-1.37594 0.0459,-0.46894 0.04847,-0.9382 0.07607,-1.40799 0.03975,-0.47817 0.115906,-0.95304 0.157229,-1.43099 0.0526,-0.50699 0.136824,-1.0111 0.176982,-1.51902 0.05548,-0.47596 0.0777,-0.95315 0.125307,-1.42967 0.04069,-0.42795 0.04614,-0.85554 0.03795,-1.28478 -0.0013,-0.38834 -0.0021,-0.77691 -0.02492,-1.16489 -0.0249,-0.34785 -0.07239,-0.69352 -0.10941,-1.0405 -5.8e-5,-0.33165 2.14e-4,-0.66331 -5.29e-4,-0.99497 0,0 0.132355,0 0.132355,0 z"
       inkscape:connector-curvature="0" />
    <path
       style="opacity:1;fill:none;fill-opacity:1;fill-rule:nonzero;stroke:#000000;stroke-width:1;stroke-linecap:round;stroke-linejoin:round;stroke-miterlimit:4;stroke-dasharray:none;stroke-dashoffset:0;stroke-opacity:1;paint-order:markers fill stroke"
       id="path4546"
       d="m 99.442375,161.12748 c -0.16636,0.40203 -0.282419,0.82086 -0.40489,1.23736 -0.110135,0.42392 -0.184999,0.85694 -0.262104,1.28808 -0.06773,0.35579 -0.165113,0.70369 -0.255026,1.05404 -0.05687,0.29185 -0.287769,0.4119 -0.355026,0.0408 -0.02617,-0.30322 -0.01662,-0.60856 -0.01463,-0.91261 0.0375,-0.41926 0.08311,-0.8372 0.152234,-1.25243 0.06235,-0.41991 0.150749,-0.83558 0.247075,-1.24886 0.06731,-0.32249 0.11407,-0.65169 0.267161,-0.94673 0.167582,-0.26047 0.441656,-0.23798 0.686263,-0.0981 0.23319,0.18466 0.398065,0.43934 0.556418,0.68773 0.17936,0.30759 0.34138,0.62365 0.54377,0.91709 0.16082,0.28218 0.37508,0.52286 0.58554,0.76756 0.10448,0.13864 0.21633,0.26762 0.30494,0.4173 0,0 -0.13209,0.007 -0.13209,0.007 v 0 c -0.0889,-0.14844 -0.20027,-0.27726 -0.30446,-0.41503 -0.2106,-0.24501 -0.4239,-0.48689 -0.58528,-0.769 -0.20192,-0.29393 -0.36377,-0.61029 -0.544052,-0.91753 -0.157975,-0.24658 -0.321612,-0.50069 -0.556223,-0.68124 -0.226126,-0.12424 -0.233027,-0.14162 -0.422968,0.0905 -0.154708,0.29315 -0.199885,0.62215 -0.267711,0.94338 -0.09646,0.41297 -0.185097,0.82834 -0.247198,1.24802 -0.06923,0.41452 -0.11454,0.83176 -0.15195,1.25034 -0.0016,0.30323 -0.01119,0.60778 0.01566,0.91011 0.01754,0.0936 0.10178,0.18762 -0.0426,0.21158 -0.01799,0.003 0.02938,-0.0225 0.03976,-0.0375 0.04486,-0.0648 0.06694,-0.14322 0.09357,-0.21575 0.08992,-0.35006 0.187894,-0.69751 0.255495,-1.05306 0.07748,-0.43157 0.152511,-0.86502 0.262421,-1.2895 0.122854,-0.4168 0.238903,-0.83593 0.403765,-1.23896 0,0 0.132133,0.005 0.132133,0.005 z"
       inkscape:connector-curvature="0" />
    <path
       style="opacity:1;fill:none;fill-opacity:1;fill-rule:nonzero;stroke:#000000;stroke-width:1;stroke-linecap:round;stroke-linejoin:round;stroke-miterlimit:4;stroke-dasharray:none;stroke-dashoffset:0;stroke-opacity:1;paint-order:markers fill stroke"
       id="path4560"
       d="m 79.125737,218.47221 c 0.274478,-0.2657 0.534461,-0.54378 0.767142,-0.848 0.248525,-0.33828 0.513059,-0.66484 0.790022,-0.97938 0.366796,-0.42994 0.746643,-0.84785 1.117373,-1.27427 0.484953,-0.58748 1.01235,-1.13685 1.529191,-1.69501 0.568784,-0.61147 1.134912,-1.22567 1.709545,-1.83144 0.599895,-0.65993 1.230201,-1.2899 1.830035,-1.94988 0.634552,-0.65771 1.252421,-1.33072 1.854951,-2.01874 0.581876,-0.66599 1.156413,-1.33926 1.718764,-2.02244 0.538685,-0.68567 1.085171,-1.36516 1.648078,-2.03047 0.576008,-0.67428 1.171223,-1.33098 1.758353,-1.99513 0.579982,-0.6355 1.127107,-1.30064 1.69558,-1.9464 0.540115,-0.60442 1.058982,-1.22742 1.574095,-1.85376 0.488248,-0.63167 1.021554,-1.2247 1.525416,-1.8431 0.538951,-0.6184 1.061794,-1.25095 1.597328,-1.87234 0.51061,-0.56953 0.98839,-1.16843 1.469,-1.76403 0.46486,-0.59394 0.97102,-1.15045 1.47506,-1.7095 0.51153,-0.54261 0.98687,-1.11672 1.44536,-1.70571 0.44448,-0.5739 0.91115,-1.12934 1.36869,-1.69234 0.42423,-0.51277 0.85434,-1.0207 1.28787,-1.52541 0.39931,-0.48268 0.79099,-0.9719 1.17946,-1.46361 0.37819,-0.47884 0.77234,-0.94388 1.16875,-1.40714 0.33516,-0.4306 0.69596,-0.83903 1.04614,-1.25668 0.33134,-0.39814 0.66864,-0.79177 1.01702,-1.1746 0.38359,-0.39747 0.74613,-0.81489 1.1,-1.2396 0.32148,-0.37425 0.61754,-0.77 0.89822,-1.17645 0.24745,-0.34914 0.49131,-0.70078 0.73431,-1.05313 0.24241,-0.3588 0.47802,-0.72225 0.71807,-1.08267 0.21093,-0.33497 0.40019,-0.68289 0.58698,-1.03206 0.18056,-0.32895 0.36189,-0.65746 0.53295,-0.99168 0.16001,-0.34332 0.35873,-0.66591 0.57331,-0.9763 0.23252,-0.31626 0.47026,-0.62839 0.70448,-0.94335 0.24363,-0.32107 0.48293,-0.64554 0.72125,-0.9707 0.21651,-0.29448 0.46189,-0.56438 0.68588,-0.85269 0.20019,-0.23845 0.3765,-0.49557 0.56954,-0.73977 0.13401,-0.16073 0.0696,-0.0796 0.19346,-0.24312 0,0 0.11801,0.008 0.11801,0.008 v 0 c -0.12384,0.16405 -0.0594,0.0828 -0.1935,0.24338 -0.19329,0.24402 -0.36928,0.50135 -0.56963,0.73966 -0.22398,0.28835 -0.46934,0.55819 -0.68631,0.85231 -0.23839,0.32515 -0.47747,0.64981 -0.72123,0.97081 -0.23418,0.31482 -0.47153,0.62707 -0.70436,0.94293 -0.21469,0.30969 -0.41335,0.63181 -0.57306,0.97471 -0.17103,0.33434 -0.35247,0.66289 -0.53307,0.9919 -0.18721,0.34937 -0.37623,0.6979 -0.58736,1.03321 -0.24026,0.36033 -0.47568,0.72396 -0.71803,1.08287 -0.24315,0.35228 -0.48665,0.70423 -0.73454,1.0531 -0.28064,0.40696 -0.57707,0.80296 -0.8988,1.1775 -0.35382,0.42489 -0.71625,0.84256 -1.09988,1.24014 -0.34866,0.3824 -0.68543,0.77636 -1.01704,1.17411 -0.34997,0.41794 -0.71155,0.82585 -1.04646,1.25677 -0.3964,0.46317 -0.79081,0.92783 -1.1689,1.40667 -0.38846,0.49192 -0.78042,0.98113 -1.17964,1.46408 -0.43363,0.5046 -0.86369,1.01255 -1.28816,1.52507 -0.45757,0.56292 -0.92433,1.11824 -1.3688,1.69208 -0.45843,0.58941 -0.93395,1.16375 -1.4457,1.70654 -0.50371,0.55908 -1.01015,1.11503 -1.47485,1.70886 -0.48056,0.59589 -0.95869,1.19476 -1.46946,1.76439 -0.535465,0.62132 -1.058245,1.25381 -1.597277,1.87202 -0.503566,0.61863 -1.037107,1.21142 -1.525235,1.84316 -0.515337,0.62638 -1.034109,1.24968 -1.574438,1.85413 -0.568824,0.64553 -1.115638,1.31106 -1.695883,1.94641 -0.586922,0.66419 -1.182301,1.32061 -1.758157,1.99489 -0.563137,0.66506 -1.1096,1.34455 -1.648116,2.03031 -0.562279,0.68341 -1.137133,1.35657 -1.71894,2.02278 -0.602711,0.68794 -1.220084,1.36153 -1.855037,2.01895 -0.599607,0.66022 -1.230025,1.29007 -1.829785,1.95016 -0.574718,0.60553 -1.140371,1.22006 -1.709229,1.83131 -0.516444,0.55817 -1.044001,1.10706 -1.528343,1.69471 -0.370387,0.42643 -0.749691,0.84455 -1.116204,1.27444 -0.27713,0.31397 -0.541098,0.64067 -0.789611,0.97856 -0.232206,0.30484 -0.492389,0.58292 -0.766188,0.84959 0,0 -0.11846,-0.009 -0.11846,-0.009 z"
       inkscape:connector-curvature="0" />
    <path
       style="opacity:1;fill:none;fill-opacity:1;fill-rule:nonzero;stroke:#000000;stroke-width:0.99999994;stroke-linecap:round;stroke-linejoin:round;stroke-miterlimit:4;stroke-dasharray:none;stroke-dashoffset:0;stroke-opacity:1;paint-order:markers fill stroke"
       id="path4564"
       d="m 80.582004,172.86513 c 0.219032,0.26964 0.419129,0.55375 0.630132,0.82938 0.163491,0.21419 0.302208,0.44368 0.423275,0.68389 0.143998,0.29392 0.308349,0.57528 0.487702,0.84897 0.222229,0.31132 0.395516,0.6534 0.603754,0.97402 0.231049,0.35706 0.476708,0.70429 0.703677,1.06401 0.259243,0.40633 0.556855,0.7876 0.860001,1.162 0.325154,0.42524 0.663713,0.8392 1.009215,1.24806 0.382698,0.4343 0.777901,0.85672 1.146013,1.30367 0.37711,0.4383 0.756268,0.87437 1.149719,1.29819 0.378793,0.39173 0.752659,0.78816 1.131845,1.17939 0.359947,0.38211 0.727083,0.75737 1.07068,1.15452 0.355028,0.38844 0.700034,0.78758 1.023502,1.20277 0.331959,0.40542 0.667947,0.80828 0.985565,1.22512 0.337877,0.41403 0.672813,0.83025 1.049167,1.21032 0.376883,0.37994 0.756182,0.75802 1.142957,1.12803 0.411555,0.34227 0.781348,0.72996 1.175541,1.09111 0.401287,0.38048 0.808339,0.75422 1.195954,1.14883 0.390327,0.37625 0.755349,0.77763 1.129625,1.16961 0.386702,0.38465 0.773086,0.7696 1.154846,1.15939 0.369228,0.38258 0.742355,0.76017 1.138109,1.1154 0.389637,0.34318 0.767057,0.69961 1.140297,1.06038 0.37502,0.37178 0.75424,0.73901 1.14268,1.09679 0.38269,0.37536 0.78084,0.73458 1.17003,1.10323 0.37271,0.3627 0.75457,0.71563 1.1405,1.06426 0.38006,0.34072 0.7667,0.67406 1.1489,1.01251 0.39071,0.33431 0.77834,0.67274 1.15989,1.01758 0.39233,0.35936 0.77045,0.73373 1.1483,1.10809 0.39051,0.38128 0.76359,0.77964 1.13146,1.18262 0.38135,0.40543 0.78737,0.78571 1.19136,1.16829 0.40609,0.37999 0.83149,0.73831 1.24616,1.10863 0.4236,0.3646 0.83872,0.73849 1.26315,1.10209 0.41735,0.39311 0.84598,0.77388 1.27611,1.15288 0.43591,0.3439 0.85199,0.71195 1.29502,1.04669 0.42571,0.31472 0.84234,0.64124 1.26164,0.96432 0.4027,0.30393 0.79325,0.62256 1.19662,0.92573 0.38134,0.29381 0.74333,0.61094 1.1068,0.92607 0.3452,0.29182 0.67563,0.60019 1.00192,0.91275 0.30322,0.29395 0.6021,0.59232 0.901,0.89064 0.2857,0.2924 0.58625,0.57059 0.85986,0.87443 0.2462,0.28947 0.49807,0.57381 0.75805,0.85101 0.24345,0.22964 0.4509,0.49237 0.68033,0.73458 0.17059,0.1777 0.34871,0.3489 0.51393,0.53162 0.14841,0.1338 0.26606,0.29706 0.38141,0.45902 0.0831,0.12209 0.10857,0.24013 0.0861,0.38357 0,0 -0.12162,-0.002 -0.12162,-0.002 v 0 c 0.023,-0.14037 -0.004,-0.25506 -0.0858,-0.37411 -0.11576,-0.16134 -0.2333,-0.32375 -0.38131,-0.45761 -0.16588,-0.18192 -0.34256,-0.35414 -0.51338,-0.53141 -0.22846,-0.2431 -0.43726,-0.50439 -0.67997,-0.73466 -0.25981,-0.27737 -0.51136,-0.562 -0.75783,-0.85126 -0.27415,-0.30315 -0.57394,-0.58186 -0.85991,-0.87379 -0.29872,-0.29833 -0.59735,-0.59681 -0.90075,-0.89042 -0.32611,-0.31245 -0.65663,-0.62038 -1.00157,-0.91218 -0.3632,-0.31511 -0.72533,-0.63178 -1.10664,-0.92525 -0.40321,-0.3033 -0.79376,-0.62194 -1.19641,-0.92589 -0.41914,-0.32319 -0.83606,-0.64924 -1.26151,-0.96422 -0.44278,-0.33536 -0.85945,-0.703 -1.29504,-1.04758 -0.42984,-0.37925 -0.85847,-0.75993 -1.27605,-1.15272 -0.42455,-0.36357 -0.83961,-0.73765 -1.26323,-1.10232 -0.41505,-0.37005 -0.84006,-0.72893 -1.24622,-1.10899 -0.40421,-0.38266 -0.81011,-0.76338 -1.19141,-1.16916 -0.36794,-0.4027 -0.74103,-0.80085 -1.13145,-1.18201 -0.37791,-0.37421 -0.75604,-0.74845 -1.14853,-1.10752 -0.38157,-0.34478 -0.76924,-0.6831 -1.15985,-1.01747 -0.38239,-0.33823 -0.76877,-0.67186 -1.14878,-1.01263 -0.38606,-0.3486 -0.76768,-0.70192 -1.14056,-1.06455 -0.3891,-0.36865 -0.7872,-0.72784 -1.16997,-1.10307 -0.38824,-0.35813 -0.76772,-0.72523 -1.14284,-1.09705 -0.37313,-0.36071 -0.75073,-0.7168 -1.140214,-1.05995 -0.395534,-0.35569 -0.768654,-0.73352 -1.137979,-1.11619 -0.381876,-0.38976 -0.768481,-0.77459 -1.154991,-1.15952 -0.37406,-0.39209 -0.739323,-0.79312 -1.129477,-1.16945 -0.387812,-0.3942 -0.794614,-0.76799 -1.19594,-1.14821 -0.393928,-0.36156 -0.764526,-0.7485 -1.175671,-1.09136 -0.386513,-0.37037 -0.766162,-0.74816 -1.142875,-1.12837 -0.376072,-0.3809 -0.711615,-0.79718 -1.049393,-1.21183 -0.317941,-0.41655 -0.653727,-0.8195 -0.985546,-1.225 -0.323771,-0.41475 -0.668591,-0.81378 -1.023479,-1.20216 -0.343877,-0.39662 -0.710619,-0.77198 -1.070534,-1.15386 -0.378905,-0.39154 -0.753388,-0.78739 -1.131647,-1.17965 -0.393452,-0.42405 -0.772721,-0.86028 -1.149726,-1.2989 -0.368414,-0.44668 -0.763709,-0.86901 -1.146161,-1.30352 -0.345587,-0.40894 -0.683997,-0.82319 -1.00955,-1.24828 -0.303183,-0.37494 -0.601229,-0.75642 -0.860361,-1.16338 -0.227349,-0.35949 -0.472961,-0.70678 -0.704029,-1.06386 -0.207834,-0.32085 -0.381649,-0.66264 -0.603934,-0.97394 -0.179425,-0.2742 -0.343885,-0.556 -0.488171,-0.8503 -0.121326,-0.2393 -0.260025,-0.46805 -0.423069,-0.68168 -0.21011,-0.27628 -0.410784,-0.55975 -0.630528,-0.82882 0,0 0.121111,-0.008 0.121111,-0.008 z"
       inkscape:connector-curvature="0" />
    <path
       style="opacity:1;fill:none;fill-opacity:1;fill-rule:nonzero;stroke:#f81786;stroke-width:1;stroke-linecap:round;stroke-linejoin:round;stroke-miterlimit:4;stroke-dasharray:none;stroke-dashoffset:0;stroke-opacity:1;paint-order:markers fill stroke"
       id="path4566"
       d="m 113.8866,178.61385 c -0.0141,-0.14676 -0.002,-0.29484 0.0341,-0.43782 0.01,-0.0382 0.0108,-0.11449 0.0495,-0.10732 0.0566,0.0105 0.10693,0.0428 0.1604,0.0641 0.0165,0.26672 -0.184,0.4693 -0.3438,0.65869 -0.19246,0.20895 -0.44753,0.35032 -0.72792,0.20906 -0.18202,-0.15515 -0.1818,-0.36671 -0.15833,-0.58502 0.0529,-0.24159 0.19138,-0.42534 0.36384,-0.59503 0.25329,-0.18533 0.57829,-0.18115 0.82144,0.0174 0.18434,0.20289 0.16818,0.43918 0.0958,0.68453 -0.0884,0.18814 -0.20852,0.35923 -0.37729,0.48204 -0.21373,0.15396 -0.46682,0.2169 -0.71737,0.10327 -0.21643,-0.1584 -0.17807,-0.3935 -0.12542,-0.62416 0.0745,-0.2505 0.22961,-0.42179 0.4302,-0.57878 0.21803,-0.14858 0.48532,-0.12344 0.6966,0.0256 0.15936,0.16584 0.20214,0.39907 0.19125,0.62171 -0.0199,0.24544 -0.16107,0.43107 -0.36939,0.55196 -0.30894,0.10872 -0.42709,0.0246 -0.50359,-0.25358 -0.0595,-0.23786 -0.0286,-0.46817 0.0179,-0.70363 0.0121,-0.0333 0.0242,-0.0666 0.0362,-0.0999 0,0 0.13235,0.005 0.13235,0.005 v 0 c -0.0121,0.0326 -0.0242,0.0652 -0.0363,0.0979 -0.0461,0.2335 -0.0778,0.46157 -0.0178,0.69745 0.0594,0.21056 0.11201,0.3018 0.23948,0.24321 0.20804,-0.11425 0.34858,-0.29721 0.36874,-0.53866 0.0112,-0.21831 -0.0311,-0.44831 -0.19076,-0.60826 -0.0272,-0.0184 -0.0527,-0.0396 -0.0816,-0.0551 -0.0295,-0.0157 -0.0709,-0.0128 -0.0928,-0.038 -0.01,-0.0114 0.0526,-0.02 0.0382,-0.0247 -0.10041,-0.033 -0.21567,0.0493 -0.29684,0.0913 -0.19936,0.15476 -0.35496,0.32139 -0.42969,0.56976 -0.0515,0.22483 -0.0919,0.45579 0.1249,0.60585 0.0308,0.0128 0.0664,0.0174 0.0923,0.0384 0.008,0.007 -0.0392,0.0128 -0.0287,0.013 0.14551,0.003 0.2746,-0.0734 0.39022,-0.15193 0.16929,-0.11857 0.2873,-0.28844 0.37693,-0.47328 0.0717,-0.24051 0.0892,-0.47174 -0.0953,-0.66889 -0.23091,-0.18101 -0.29029,-0.18665 -0.55806,-0.0188 -0.17141,0.16714 -0.3095,0.34702 -0.36311,0.58595 -0.0229,0.21297 -0.0253,0.42131 0.15764,0.56874 0.0289,0.0131 0.0631,0.018 0.0866,0.0393 0.008,0.007 -0.0428,0.0125 -0.0319,0.0102 0.16538,-0.0348 0.29738,-0.12821 0.40983,-0.25297 0.15612,-0.18493 0.35776,-0.38291 0.34272,-0.6439 0.0351,-0.0201 0.0681,-0.0441 0.10521,-0.0602 0.0106,-0.005 -0.0187,0.0146 -0.0239,0.0249 -0.0119,0.0238 -0.0197,0.0497 -0.0263,0.0755 -0.0363,0.14136 -0.0485,0.28808 -0.034,0.43335 0,0 -0.13233,0.002 -0.13233,0.002 z"
       inkscape:connector-curvature="0" />
    <path
       style="opacity:1;fill:none;fill-opacity:1;fill-rule:nonzero;stroke:#f81786;stroke-width:1;stroke-linecap:round;stroke-linejoin:round;stroke-miterlimit:4;stroke-dasharray:none;stroke-dashoffset:0;stroke-opacity:1;paint-order:markers fill stroke"
       id="path4636"
       d="m 87.910765,182.45817 c 0.34079,0.17558 0.687639,0.34338 1.048423,0.47758 0.292248,0.11535 0.589185,0.22311 0.891841,0.31065 0.267584,0.10678 0.546211,0.17062 0.832672,0.20515 0.279525,0.026 0.552543,0.0914 0.831507,0.12474 0.276363,0.0287 0.554572,0.0319 0.832238,0.0343 0.232315,0.001 0.464632,5.2e-4 0.696951,2.1e-4 0.27747,-2.6e-4 0.554943,-5.3e-4 0.832416,-5.3e-4 0.27747,-0.006 0.556204,0.015 0.832295,-0.0152 0.302618,-0.0564 0.608833,-0.085 0.916153,-0.10298 0.294976,-0.0146 0.590411,-0.0156 0.885696,-0.0163 0.323485,-2.6e-4 0.646967,2.7e-4 0.97045,5.3e-4 0.223886,-0.012 0.458613,-0.0675 0.69616,-0.0958 0.276386,-0.0296 0.554658,-0.0341 0.832438,-0.0373 0.250633,-0.01 0.502663,0.0106 0.753113,-0.001 0.0613,-0.003 0.11917,-0.0284 0.17982,-0.0368 0.287882,-0.0487 0.578692,-0.0736 0.870372,-0.0871 0.27743,-0.0439 0.55309,-0.0927 0.83319,-0.11865 0.33302,-0.0304 0.66216,-0.0888 0.99546,-0.12082 0.31297,-0.056 0.62451,-0.11463 0.94144,-0.14565 0.27704,-0.0626 0.56086,-0.0924 0.8386,-0.14982 0.27942,-0.0537 0.55435,-0.12234 0.83109,-0.18708 0.28188,-0.0553 0.55839,-0.13397 0.83218,-0.21846 0.27973,-0.0804 0.55644,-0.17066 0.83241,-0.26251 0.27065,-0.0798 0.54972,-0.13534 0.81571,-0.22918 0.2472,-0.0814 0.48627,-0.18145 0.7259,-0.28117 0.24922,-0.11103 0.48738,-0.24113 0.73222,-0.3607 0.26096,-0.11872 0.5227,-0.23628 0.77982,-0.36267 0.28859,-0.1297 0.56499,-0.28531 0.83012,-0.455 0.26217,-0.17296 0.548,-0.30847 0.81638,-0.47107 0.2057,-0.11113 0.38025,-0.26457 0.56235,-0.40702 0.21987,-0.147 0.40255,-0.32673 0.58354,-0.51446 0.14438,-0.17311 0.27409,-0.35868 0.34983,-0.56937 0.0453,-0.26095 -0.04,-0.4948 -0.14264,-0.731 -0.11616,-0.25734 -0.27597,-0.48907 -0.46419,-0.70222 -0.19896,-0.20509 -0.448,-0.35803 -0.68967,-0.51204 -0.2756,-0.16714 -0.56787,-0.3014 -0.86356,-0.43099 -0.35501,-0.1564 -0.72815,-0.26397 -1.10403,-0.36213 -0.41593,-0.13939 -0.85184,-0.20506 -1.28191,-0.2898 -0.44114,-0.0884 -0.88674,-0.15299 -1.3295,-0.23246 -0.43564,-0.0726 -0.87201,-0.14057 -1.3088,-0.20725 -0.44447,-0.0405 -0.88416,-0.11554 -1.32765,-0.16425 -0.43795,-0.025 -0.87272,-0.0656 -1.30828,-0.11587 -0.3973,-0.0482 -0.79766,-0.0612 -1.19758,-0.0695 -0.31585,-0.005 -0.63173,-0.005 -0.94759,-0.004 -0.33793,-0.006 -0.67269,-0.005 -1.00788,0.038 -0.323562,0.0503 -0.649812,0.075 -0.976992,0.0877 -0.310695,0.0395 -0.618971,0.0912 -0.931255,0.11869 -0.283343,0.0181 -0.559687,0.0856 -0.841211,0.12063 -0.273647,0.0704 -0.555477,0.10244 -0.831351,0.161 -0.279596,0.0548 -0.555031,0.1234 -0.832199,0.1882 -0.28003,0.0481 -0.55953,0.10167 -0.832378,0.18005 -0.285288,0.0708 -0.559514,0.17057 -0.832366,0.27619 -0.251442,0.0788 -0.502458,0.15889 -0.748722,0.2522 -0.259741,0.0988 -0.519764,0.20332 -0.76244,0.33707 -0.203927,0.11366 -0.418311,0.20904 -0.622952,0.32104 -0.205495,0.104 -0.401143,0.22301 -0.59392,0.34734 -0.223809,0.12541 -0.427752,0.28036 -0.642235,0.41947 -0.20185,0.14697 -0.398171,0.30048 -0.593303,0.45578 -0.26239,0.21493 -0.508203,0.44768 -0.753959,0.67988 -0.261104,0.24314 -0.515059,0.49303 -0.75097,0.75903 -0.206855,0.21253 -0.360275,0.4628 -0.532496,0.69991 -0.147863,0.20732 -0.237987,0.44816 -0.312983,0.68765 -0.08504,0.23454 -0.04198,0.46557 -0.0072,0.70327 0.02858,0.22609 0.100993,0.44892 0.207012,0.65226 0.09851,0.1806 0.245303,0.32149 0.397674,0.45934 0,0 -0.136424,0.0107 -0.136424,0.0107 v 0 c -0.15286,-0.13922 -0.299592,-0.28209 -0.398313,-0.46395 -0.10589,-0.20499 -0.17881,-0.42892 -0.207309,-0.65652 -0.03518,-0.23951 -0.07769,-0.47263 0.0074,-0.70899 0.07495,-0.24082 0.165301,-0.48314 0.313253,-0.69188 0.173373,-0.23671 0.32518,-0.48861 0.532713,-0.70113 0.235656,-0.2667 0.490447,-0.51643 0.751484,-0.76017 0.245741,-0.2324 0.491497,-0.46538 0.753423,-0.68103 0.19509,-0.15595 0.392128,-0.30901 0.593508,-0.4571 0.214994,-0.1383 0.417798,-0.29488 0.642037,-0.41949 0.192555,-0.12497 0.388107,-0.2443 0.593813,-0.34827 0.203507,-0.11394 0.419718,-0.20662 0.623313,-0.32099 0.241893,-0.13557 0.50289,-0.23944 0.762539,-0.33899 0.245745,-0.0947 0.497265,-0.17398 0.748971,-0.25212 0.273086,-0.10547 0.546691,-0.20735 0.832463,-0.27735 0.272353,-0.0802 0.552273,-0.13341 0.832454,-0.1808 0.277374,-0.0642 0.552391,-0.13435 0.832224,-0.18841 0.275507,-0.0605 0.558407,-0.0887 0.831501,-0.16223 0.281795,-0.0342 0.558094,-0.10198 0.841355,-0.1211 0.312523,-0.0268 0.621101,-0.0773 0.931615,-0.11931 0.327104,-0.0122 0.653374,-0.0359 0.976856,-0.0864 0.33531,-0.0437 0.66988,-0.0463 1.00815,-0.0397 0.40586,-2.7e-4 0.81176,-0.001 1.21759,0.005 0.3999,0.009 0.80023,0.0222 1.19746,0.0708 0.43552,0.0504 0.87048,0.0892 1.30823,0.11581 0.44344,0.0494 0.88338,0.12326 1.32778,0.16481 0.43671,0.0671 0.87326,0.13428 1.30877,0.20758 0.44302,0.0785 0.88828,0.14481 1.32959,0.23271 0.4302,0.0849 0.86596,0.15142 1.28214,0.29061 0.37607,0.099 0.74956,0.20689 1.10465,0.36418 0.29622,0.12952 0.58836,0.26532 0.86403,0.43304 0.2425,0.15451 0.49188,0.30877 0.69027,0.51576 0.18765,0.2151 0.34832,0.44746 0.46426,0.70626 0.10385,0.23926 0.18824,0.47659 0.14306,0.74061 -0.0755,0.21282 -0.20549,0.39974 -0.35033,0.57489 -0.18179,0.18751 -0.36236,0.37 -0.58352,0.51631 -0.18238,0.14283 -0.35691,0.29699 -0.56284,0.40854 -0.26753,0.16387 -0.55457,0.29755 -0.81661,0.47073 -0.26475,0.17062 -0.54136,0.32674 -0.83013,0.45652 -0.25666,0.1271 -0.51859,0.24424 -0.77958,0.36274 -0.24475,0.12022 -0.48386,0.24874 -0.73242,0.36152 -0.23988,0.0994 -0.47828,0.20109 -0.72586,0.28186 -0.26514,0.0962 -0.54512,0.1501 -0.81593,0.22946 -0.2761,0.0916 -0.55255,0.18276 -0.83244,0.2628 -0.27391,0.0845 -0.55015,0.16462 -0.83228,0.21942 -0.27694,0.0641 -0.55147,0.13437 -0.83112,0.18737 -0.27742,0.0595 -0.56227,0.0855 -0.83885,0.15133 -0.31719,0.0301 -0.6291,0.0874 -0.94184,0.14561 -0.33327,0.0315 -0.66229,0.0895 -0.99501,0.12093 -0.28026,0.0252 -0.55628,0.0724 -0.8333,0.11927 -0.29165,0.0129 -0.58255,0.0369 -0.87037,0.0858 -0.309652,0.0441 -0.620692,0.0419 -0.932987,0.0397 -0.277685,0.003 -0.555853,0.007 -0.832221,0.0358 -0.322137,0.0375 -0.640552,0.11224 -0.967327,0.0974 -0.233183,-2.1e-4 -0.466367,-5.3e-4 -0.69955,-5.3e-4 -0.295308,5.3e-4 -0.590762,0.001 -0.885782,0.0155 -0.307179,0.0174 -0.613541,0.0446 -0.915809,0.10224 -0.275888,0.0333 -0.554968,0.01 -0.832528,0.0168 -0.277471,6e-5 -0.554944,1.6e-4 -0.832415,5.3e-4 -0.32263,5.3e-4 -0.645266,0.001 -0.967894,-2.7e-4 -0.277762,-0.003 -0.556089,-0.006 -0.832463,-0.0358 -0.278761,-0.0342 -0.55187,-0.0994 -0.831512,-0.12477 -0.28653,-0.0359 -0.564662,-0.10191 -0.832895,-0.20734 -0.302342,-0.0888 -0.599392,-0.196 -0.891608,-0.3117 -0.360503,-0.13568 -0.70702,-0.30404 -1.049079,-0.47796 0,0 0.136357,-0.0154 0.136357,-0.0154 z"
       inkscape:connector-curvature="0" />
    <path
       style="opacity:1;fill:none;fill-opacity:1;fill-rule:nonzero;stroke:#000000;stroke-width:0.2;stroke-linecap:round;stroke-linejoin:round;stroke-miterlimit:4;stroke-dasharray:0.2,0.6;stroke-dashoffset:0;stroke-opacity:1;paint-order:markers fill stroke"
       id="path4841"
       d="m 85.019338,189.31986 c 0.315074,1.1e-4 0.630146,6e-5 0.945221,5e-5 0.20579,-0.0519 0.424125,-0.0751 0.63624,-0.0958 0.229239,-0.001 0.451999,-0.0554 0.677252,-0.0922 0.226363,-0.0378 0.453727,-0.0842 0.676002,-0.14372 0.233127,-0.0525 0.455721,-0.13705 0.677003,-0.22783 0.209769,-0.0923 0.414613,-0.19696 0.625919,-0.28525 0.202008,-0.0968 0.414909,-0.164 0.619198,-0.25514 0.226019,-0.0888 0.449824,-0.18264 0.672699,-0.27982 0.224362,-0.0907 0.451041,-0.17391 0.67778,-0.2579 0.231937,-0.0718 0.45786,-0.16341 0.677204,-0.26951 0.192278,-0.0847 0.373067,-0.1982 0.530376,-0.34123 0.143712,-0.15703 0.292317,-0.30849 0.450585,-0.44962 0.150715,-0.16852 0.327407,-0.30727 0.494662,-0.45647 0.18519,-0.15163 0.373124,-0.3001 0.553205,-0.45817 0.171921,-0.1261 0.305548,-0.29534 0.431551,-0.46836 0.13226,-0.17583 0.249005,-0.36376 0.389003,-0.53313 0.117938,-0.15956 0.242338,-0.31657 0.336398,-0.49303 0.04567,-0.11756 0.03059,-0.0591 0.0483,-0.17457 0,0 0.111907,0.002 0.111907,0.002 v 0 c -0.01791,0.11855 -0.0025,0.0588 -0.04857,0.17859 -0.09351,0.17766 -0.218782,0.33487 -0.336587,0.49547 -0.140956,0.16827 -0.256685,0.35679 -0.388939,0.53237 -0.125697,0.17396 -0.259589,0.34452 -0.43199,0.4709 -0.179491,0.15868 -0.367771,0.30677 -0.553117,0.45809 -0.166707,0.14977 -0.344788,0.28701 -0.494601,0.4565 -0.158399,0.14087 -0.3077,0.29144 -0.450365,0.44947 -0.15651,0.14504 -0.338471,0.25916 -0.531099,0.34448 -0.219016,0.1071 -0.445154,0.19913 -0.677279,0.27063 -0.226784,0.0836 -0.45317,0.16741 -0.677731,0.25726 -0.222985,0.0968 -0.446197,0.19205 -0.672649,0.27969 -0.203918,0.0922 -0.417154,0.15839 -0.61903,0.25551 -0.211871,0.087 -0.416359,0.19289 -0.626153,0.28525 -0.221484,0.0907 -0.443587,0.17736 -0.67712,0.22922 -0.221888,0.0611 -0.450014,0.10586 -0.676122,0.14488 -0.225419,0.0363 -0.447998,0.0925 -0.677374,0.0929 -0.28639,0.0271 -0.568384,0.0894 -0.856362,0.0968 -0.315271,-1e-5 -0.630542,-6e-5 -0.945813,5e-5 0,0 0.110401,-0.0182 0.110401,-0.0182 z"
       inkscape:connector-curvature="0" />
    <path
       style="opacity:1;fill:none;fill-opacity:1;fill-rule:nonzero;stroke:#f81786;stroke-width:1;stroke-linecap:round;stroke-linejoin:round;stroke-miterlimit:4;stroke-dasharray:none;stroke-dashoffset:0;stroke-opacity:1;paint-order:markers fill stroke"
       id="path4566-1"
       d="m 95.028452,183.75146 c 0.14509,-0.0262 0.29366,-0.0264 0.43914,-0.002 0.0389,0.007 0.11499,0.001 0.11106,0.0404 -0.006,0.0573 -0.0338,0.11011 -0.0506,0.16516 -0.26443,0.0386 -0.48294,-0.14445 -0.68493,-0.28799 -0.22419,-0.17447 -0.38623,-0.41694 -0.2687,-0.70808 0.13952,-0.19426 0.35037,-0.21158 0.56987,-0.2063 0.24515,0.0327 0.43975,0.15545 0.62315,0.31325 0.2057,0.23705 0.22848,0.56127 0.0508,0.82005 -0.1869,0.20053 -0.42372,0.20402 -0.67423,0.15224 -0.19482,-0.0725 -0.37528,-0.17802 -0.51166,-0.33602 -0.17116,-0.20023 -0.25487,-0.44723 -0.1624,-0.70634 0.1399,-0.22882 0.37737,-0.21008 0.6116,-0.17674 0.25582,0.0535 0.43938,0.19384 0.61247,0.38072 0.16614,0.20496 0.16326,0.47341 0.0322,0.69632 -0.15205,0.17257 -0.38093,0.23454 -0.60371,0.24215 -0.24624,5.2e-4 -0.44294,-0.12477 -0.58069,-0.32235 -0.13396,-0.29886 -0.0599,-0.42358 0.21095,-0.52288 0.2321,-0.079 0.46418,-0.0673 0.70269,-0.0405 0.0342,0.009 0.0684,0.0186 0.10255,0.0278 0,0 0.006,0.13231 0.006,0.13231 v 0 c -0.0335,-0.009 -0.067,-0.0187 -0.10058,-0.0281 -0.23651,-0.0266 -0.46643,-0.0393 -0.69652,0.0401 -0.20491,0.0767 -0.29147,0.13665 -0.22251,0.25882 0.1311,0.19785 0.32509,0.32274 0.56738,0.32281 0.21849,-0.007 0.44419,-0.0682 0.59035,-0.24055 0.0161,-0.0286 0.0351,-0.0558 0.0481,-0.0859 0.0132,-0.0307 0.007,-0.0717 0.0302,-0.0956 0.0105,-0.0109 0.0243,0.0508 0.0278,0.036 0.0246,-0.1028 -0.067,-0.21084 -0.11561,-0.28824 -0.17075,-0.18584 -0.34971,-0.32709 -0.60343,-0.38097 -0.22832,-0.0327 -0.46184,-0.0538 -0.5934,0.17471 -0.0102,0.0318 -0.0118,0.0676 -0.0306,0.0952 -0.006,0.009 -0.016,-0.038 -0.0153,-0.0275 0.009,0.14525 0.0959,0.26756 0.18377,0.37627 0.1322,0.15888 0.31127,0.2624 0.5029,0.33639 0.24563,0.0515 0.47751,0.0498 0.65869,-0.15044 0.16123,-0.24513 0.16193,-0.30477 -0.0275,-0.5577 -0.18077,-0.15696 -0.37149,-0.27965 -0.61404,-0.31327 -0.21413,-0.005 -0.42196,0.01 -0.55371,0.20426 -0.0107,0.0299 -0.0127,0.0644 -0.032,0.0896 -0.006,0.009 -0.016,-0.0416 -0.0128,-0.0309 0.0484,0.16192 0.15243,0.28572 0.28608,0.38744 0.19724,0.14025 0.41126,0.32478 0.6701,0.28814 0.0229,0.0333 0.0496,0.0642 0.0687,0.0999 0.006,0.0102 -0.0161,-0.0174 -0.0268,-0.0217 -0.0247,-0.01 -0.0512,-0.0155 -0.0774,-0.0199 -0.14388,-0.0245 -0.2911,-0.0245 -0.43467,0.002 0,0 -0.013,-0.13171 -0.013,-0.13171 z"
       inkscape:connector-curvature="0"
       inkscape:transform-center-x="-35.342356"
       inkscape:transform-center-y="0.00016687083" />
    <path
       style="opacity:1;fill:none;fill-opacity:1;fill-rule:nonzero;stroke:#f81786;stroke-width:1;stroke-linecap:round;stroke-linejoin:round;stroke-miterlimit:4;stroke-dasharray:none;stroke-dashoffset:0;stroke-opacity:1;paint-order:markers fill stroke"
       id="path4566-5"
       d="m 87.574906,182.32712 c 0.11324,-0.0944 0.24235,-0.16793 0.38078,-0.21875 0.0372,-0.0133 0.10064,-0.0556 0.11654,-0.0197 0.0233,0.0527 0.025,0.11244 0.0375,0.16861 -0.21095,0.16404 -0.49132,0.11272 -0.73784,0.0876 -0.28109,-0.0411 -0.54168,-0.172 -0.58316,-0.48321 0.0255,-0.23781 0.2003,-0.35694 0.39381,-0.46068 0.22934,-0.0926 0.45918,-0.0818 0.69657,-0.0351 0.29589,0.10464 0.47573,0.37538 0.4489,0.68815 -0.0636,0.26665 -0.26783,0.38657 -0.51125,0.46517 -0.20522,0.0331 -0.41425,0.0304 -0.61085,-0.0397 -0.24768,-0.0897 -0.44239,-0.26317 -0.48986,-0.53416 0.009,-0.26806 0.22453,-0.36897 0.4447,-0.45558 0.24888,-0.0798 0.4778,-0.0483 0.72057,0.0288 0.24566,0.0963 0.37564,0.33116 0.37172,0.58969 -0.0471,0.22513 -0.21555,0.39199 -0.40554,0.50856 -0.21391,0.12199 -0.44682,0.1101 -0.66413,0.006 -0.26402,-0.19381 -0.26118,-0.33882 -0.0746,-0.55888 0.16287,-0.18328 0.37049,-0.28765 0.59115,-0.38204 0.0343,-0.009 0.0686,-0.0176 0.10291,-0.0265 0,0 0.0705,0.11212 0.0705,0.11212 v 0 c -0.0337,0.008 -0.0675,0.0168 -0.10132,0.0252 -0.21882,0.0936 -0.42504,0.19607 -0.58599,0.37864 -0.14038,0.16781 -0.18605,0.26271 -0.0658,0.33493 0.21167,0.10736 0.44202,0.12024 0.65278,7.1e-4 0.1866,-0.11387 0.35267,-0.27851 0.39471,-0.50057 -1.4e-4,-0.0328 0.003,-0.0658 -5.1e-4,-0.0985 -0.004,-0.0332 -0.0294,-0.0658 -0.021,-0.0981 0.004,-0.0147 0.0462,0.0322 0.0419,0.0176 -0.0294,-0.10153 -0.16234,-0.1503 -0.2428,-0.19364 -0.24024,-0.0773 -0.46559,-0.11187 -0.71284,-0.0335 -0.21471,0.0843 -0.42822,0.18116 -0.42987,0.44482 0.007,0.0327 0.0231,0.0647 0.0203,0.0979 -10e-4,0.0106 -0.0327,-0.0251 -0.0269,-0.0164 0.0796,0.12185 0.21548,0.18537 0.34554,0.23656 0.19339,0.0729 0.40022,0.0746 0.60341,0.0444 0.23905,-0.0764 0.43987,-0.19239 0.49862,-0.45593 0.0192,-0.29277 -0.01,-0.34499 -0.29921,-0.47145 -0.23469,-0.0473 -0.46111,-0.0599 -0.68865,0.0306 -0.18879,0.10119 -0.36219,0.21671 -0.38076,0.45093 0.005,0.0312 0.0207,0.0623 0.0164,0.0937 -10e-4,0.0106 -0.0345,-0.0283 -0.0264,-0.0206 0.12201,0.11695 0.27359,0.17327 0.44003,0.19577 0.24076,0.0246 0.51797,0.0795 0.72502,-0.0801 0.0364,0.0177 0.0748,0.0314 0.10904,0.0529 0.0101,0.006 -0.0226,-0.007 -0.034,-0.006 -0.0264,0.004 -0.0522,0.0118 -0.0772,0.0209 -0.1372,0.0497 -0.26524,0.12241 -0.37703,0.21632 0,0 -0.0763,-0.10815 -0.0763,-0.10815 z"
       inkscape:connector-curvature="0" />
    <path
       style="opacity:1;fill:none;fill-opacity:1;fill-rule:nonzero;stroke:#f81786;stroke-width:0.5;stroke-linecap:round;stroke-linejoin:round;stroke-miterlimit:4;stroke-dasharray:none;stroke-dashoffset:0;stroke-opacity:1;paint-order:markers fill stroke"
       id="path4729"
       d="m 95.742349,201.79062 c 0.235429,0.14112 0.46878,0.28666 0.718783,0.40081 0.193487,0.10328 0.405288,0.15939 0.613701,0.2231 0.187949,0.0569 0.383582,0.0722 0.578649,0.0804 0.204941,0.006 0.409995,0.005 0.615,0.005 0.283607,-5.3e-4 0.567216,-8e-4 0.850823,-0.001 0.354595,0.0134 0.706763,-0.0124 1.059655,-0.0425 0.36117,-0.0239 0.71894,-0.0822 1.0753,-0.14357 0.3475,-0.0493 0.69178,-0.12089 1.03032,-0.21319 0.32148,-0.0787 0.63421,-0.18971 0.93946,-0.31683 0.27071,-0.11231 0.54017,-0.23135 0.7965,-0.37387 0.18904,-0.10419 0.37741,-0.21643 0.53647,-0.36347 0,0 0.093,0.008 0.093,0.008 v 0 c -0.15853,0.14855 -0.34756,0.2612 -0.5371,0.36567 -0.25617,0.14336 -0.52605,0.26232 -0.79692,0.37488 -0.30519,0.12774 -0.61803,0.2392 -0.93965,0.318 -0.33846,0.0931 -0.68296,0.16473 -1.03057,0.21406 -0.35644,0.0613 -0.71423,0.12042 -1.07551,0.14434 -0.352824,0.0302 -0.704857,0.0571 -1.059423,0.0433 -0.283495,1.6e-4 -0.566994,5.3e-4 -0.850489,0.001 -0.266364,2.6e-4 -0.532818,0.002 -0.799106,-0.005 -0.195315,-0.009 -0.391062,-0.025 -0.579035,-0.0828 -0.208449,-0.064 -0.420058,-0.12079 -0.613542,-0.22437 -0.249849,-0.11538 -0.483696,-0.26087 -0.719466,-0.40221 0,0 0.09311,-0.009 0.09311,-0.009 z"
       inkscape:connector-curvature="0" />
    <path
       style="opacity:1;fill:none;fill-opacity:1;fill-rule:nonzero;stroke:#f81786;stroke-width:0.5;stroke-linecap:round;stroke-linejoin:round;stroke-miterlimit:4;stroke-dasharray:none;stroke-dashoffset:0;stroke-opacity:1;paint-order:markers fill stroke"
       id="path4733"
       d="m 93.062768,204.00059 c 0.111204,0.22155 0.231619,0.43781 0.389972,0.62917 0.116279,0.16371 0.268967,0.29315 0.427992,0.41309 0.188537,0.12775 0.384025,0.24097 0.589579,0.33897 0.230579,0.11372 0.470279,0.20993 0.711722,0.29833 0.273243,0.0862 0.55123,0.15448 0.830691,0.21717 0.343776,0.0746 0.696539,0.0731 1.04517,0.10479 0.363191,0.0436 0.730123,0.0185 1.094695,0.01 0.446651,-0.0153 0.893911,-0.003 1.340186,-0.0268 0.470839,-0.0284 0.940875,-0.0606 1.408005,-0.12739 0.4563,-0.0557 0.90872,-0.13486 1.36101,-0.21591 0.40886,-0.0755 0.81153,-0.17716 1.20852,-0.30018 0.3464,-0.099 0.6876,-0.21607 1.02368,-0.34568 0.31585,-0.14599 0.63054,-0.29578 0.9415,-0.4521 0.27189,-0.13921 0.53318,-0.30002 0.78516,-0.47258 0.17142,-0.1274 0.34095,-0.26491 0.44131,-0.45644 0,0 0.0934,0.004 0.0934,0.004 v 0 c -0.0999,0.19356 -0.26965,0.33237 -0.44217,0.46096 -0.25197,0.17316 -0.51379,0.33385 -0.78567,0.47379 -0.31096,0.15674 -0.62621,0.3058 -0.94172,0.45298 -0.33604,0.13008 -0.67737,0.24731 -1.0239,0.34628 -0.39707,0.12363 -0.80002,0.22532 -1.20904,0.30127 -0.45239,0.0809 -0.90478,0.16079 -1.3612,0.21619 -0.46709,0.0675 -0.93716,0.0996 -1.408041,0.12822 -0.446212,0.0243 -0.893469,0.0117 -1.340091,0.0271 -0.425207,0.0103 -0.853244,0.037 -1.276969,-0.0102 -0.348917,-0.0309 -0.701863,-0.0306 -1.045708,-0.10594 -0.279588,-0.0631 -0.557903,-0.13113 -0.831082,-0.21835 -0.241446,-0.0889 -0.481293,-0.1851 -0.711949,-0.29918 -0.20555,-0.0988 -0.401619,-0.21213 -0.589979,-0.34081 -0.159305,-0.12052 -0.311412,-0.25127 -0.428106,-0.41527 -0.158081,-0.19255 -0.278413,-0.40983 -0.39038,-0.63181 0,0 0.09343,-0.004 0.09343,-0.004 z"
       inkscape:connector-curvature="0" />
    <path
       style="opacity:1;fill:none;fill-opacity:1;fill-rule:nonzero;stroke:#f81786;stroke-width:0.5;stroke-linecap:round;stroke-linejoin:round;stroke-miterlimit:4;stroke-dasharray:none;stroke-dashoffset:0;stroke-opacity:1;paint-order:markers fill stroke"
       id="path4741"
       d="m 89.705946,208.68837 c 0.246923,0.16428 0.522108,0.27763 0.780169,0.42167 0.186817,0.11916 0.387287,0.2038 0.595111,0.27832 0.224767,0.0843 0.439516,0.19129 0.65844,0.28927 0.273823,0.11853 0.556678,0.2119 0.840608,0.30237 0.33325,0.0888 0.668951,0.16906 1.005199,0.24586 0.361887,0.0982 0.732856,0.15551 1.097196,0.24302 0.350244,0.0801 0.705905,0.13804 1.061696,0.18789 0.372396,0.0476 0.748091,0.0558 1.122984,0.0616 0.347708,0.004 0.695441,0.003 1.043162,0.002 0.405104,0.0142 0.808088,-0.0284 1.211496,-0.0574 0.385987,-0.0209 0.76953,-0.073 1.151363,-0.13144 0.40701,-0.0501 0.81105,-0.12209 1.21121,-0.21133 0.36939,-0.0832 0.73817,-0.16897 1.10824,-0.24931 0.33721,-0.0832 0.67619,-0.16232 1.00535,-0.27389 0.31979,-0.10946 0.64256,-0.20979 0.96325,-0.31635 0.31998,-0.0913 0.63013,-0.2122 0.9455,-0.31777 0.31499,-0.10367 0.62082,-0.2313 0.92905,-0.35265 0.31221,-0.12735 0.62148,-0.2627 0.92886,-0.40155 0.28835,-0.14529 0.56974,-0.30443 0.85067,-0.46358 0.23878,-0.1468 0.48105,-0.28756 0.71176,-0.44695 0.20741,-0.13852 0.41697,-0.27414 0.62076,-0.41797 0.17347,-0.1405 0.36875,-0.2495 0.5424,-0.38935 0.13721,-0.10264 0.22066,-0.23749 0.27676,-0.39618 0,0 0.0934,0.003 0.0934,0.003 v 0 c -0.056,0.16025 -0.13899,0.29734 -0.27716,0.40132 -0.17332,0.1407 -0.36915,0.24908 -0.54266,0.38994 -0.20359,0.14425 -0.41347,0.27959 -0.62102,0.41803 -0.23061,0.15994 -0.47311,0.3007 -0.71198,0.44776 -0.28097,0.15953 -0.5629,0.31811 -0.85096,0.46441 -0.30732,0.13913 -0.61678,0.27415 -0.92882,0.40202 -0.30848,0.12089 -0.61401,0.24953 -0.92913,0.35313 -0.31551,0.1052 -0.62543,0.22674 -0.94551,0.31777 -0.32057,0.10697 -0.64359,0.20661 -0.96333,0.31628 -0.32904,0.11248 -0.66829,0.19121 -1.00555,0.27494 -0.37022,0.08 -0.73903,0.16601 -1.10851,0.24921 -0.40006,0.0898 -0.80415,0.16193 -1.21118,0.21197 -0.381904,0.0585 -0.76546,0.11135 -1.151542,0.13215 -0.403424,0.0288 -0.806376,0.0722 -1.21149,0.0581 -0.408527,5.2e-4 -0.817068,0.002 -1.225579,-0.002 -0.374989,-0.006 -0.750779,-0.0145 -1.123204,-0.0627 -0.355833,-0.0503 -0.711626,-0.10801 -1.061845,-0.18876 -0.364471,-0.0869 -0.735253,-0.14505 -1.097205,-0.24292 -0.336315,-0.0771 -0.672333,-0.15679 -1.005457,-0.24661 -0.28421,-0.0904 -0.567142,-0.18449 -0.841076,-0.30336 -0.218892,-0.0979 -0.433673,-0.20482 -0.658624,-0.28854 -0.20778,-0.0752 -0.408094,-0.16075 -0.595114,-0.27984 -0.258567,-0.14342 -0.5329,-0.25851 -0.780593,-0.42173 0,0 0.09293,-0.01 0.09293,-0.01 z"
       inkscape:connector-curvature="0" />
    <path
       style="opacity:1;fill:none;fill-opacity:1;fill-rule:nonzero;stroke:#f81786;stroke-width:0.5;stroke-linecap:round;stroke-linejoin:round;stroke-miterlimit:4;stroke-dasharray:none;stroke-dashoffset:0;stroke-opacity:1;paint-order:markers fill stroke"
       id="path4747"
       d="m 86.871124,211.99566 c 0.259762,0.15721 0.522449,0.31026 0.791397,0.4513 0.20882,0.1193 0.416624,0.24039 0.625055,0.36045 0.202835,0.10946 0.400941,0.22504 0.609806,0.3232 0.244327,0.10954 0.492556,0.21099 0.745943,0.29772 0.283723,0.10427 0.572772,0.19425 0.861517,0.28366 0.305705,0.0978 0.612431,0.19276 0.920478,0.28321 0.312991,0.0993 0.63215,0.18141 0.954913,0.24198 0.364961,0.0928 0.740256,0.11809 1.112692,0.16144 0.392644,0.0529 0.787932,0.0773 1.183581,0.0919 0.356172,0.0105 0.712545,0.01 1.068835,0.01 0.329359,-2.6e-4 0.658717,-5.3e-4 0.988076,-7.9e-4 0.361939,-0.011 0.721828,0.007 1.081762,0.043 0.272542,0.0424 0.540629,0.0307 0.813134,0.006 0.257754,-0.0273 0.516646,-0.0389 0.775641,-0.0452 0.275016,-0.009 0.550445,0.005 0.824886,-0.0153 0.32547,-0.0252 0.64805,-0.0707 0.97131,-0.11464 0.32201,-0.0447 0.64517,-0.0866 0.96606,-0.13939 0.29411,-0.0498 0.58943,-0.0865 0.87995,-0.1555 0.30309,-0.0605 0.60149,-0.13986 0.90084,-0.21599 0.296,-0.0895 0.59289,-0.17467 0.89084,-0.2574 0.28744,-0.0763 0.5721,-0.16306 0.85453,-0.25612 0.27596,-0.0836 0.54361,-0.18999 0.81125,-0.29653 0.23972,-0.10567 0.47844,-0.2129 0.72128,-0.31128 0.22314,-0.0905 0.43451,-0.20474 0.64932,-0.31282 0.24302,-0.11306 0.48735,-0.22382 0.72633,-0.34525 0.24875,-0.13912 0.50111,-0.27168 0.75575,-0.39974 0.23716,-0.13124 0.47962,-0.25244 0.71785,-0.38171 0.22988,-0.12503 0.45508,-0.25608 0.67803,-0.39324 0.20057,-0.12708 0.39423,-0.26474 0.59342,-0.39388 0.16416,-0.12851 0.3298,-0.25558 0.48947,-0.38982 0.17789,-0.15028 0.34225,-0.31527 0.49482,-0.49095 0.11439,-0.11927 0.24767,-0.22092 0.389,-0.30638 0.15028,-0.0998 0.29855,-0.19968 0.42727,-0.32678 0.0644,-0.1024 0.0379,-0.0489 0.0798,-0.16026 0,0 0.0934,0.003 0.0934,0.003 v 0 c -0.042,0.11391 -0.0155,0.0591 -0.0802,0.16429 -0.12835,0.12831 -0.27678,0.22861 -0.42726,0.32905 -0.14143,0.0841 -0.27403,0.1857 -0.38896,0.3034 -0.15241,0.17633 -0.31732,0.34139 -0.49504,0.4924 -0.15967,0.13473 -0.32579,0.26156 -0.48961,0.39099 -0.19962,0.12862 -0.39293,0.26698 -0.59358,0.39409 -0.22326,0.13684 -0.44792,0.26907 -0.67813,0.39372 -0.23815,0.12961 -0.48099,0.25031 -0.71802,0.38199 -0.25459,0.12814 -0.50729,0.26005 -0.75573,0.39969 -0.23869,0.12191 -0.48308,0.23253 -0.72617,0.34531 -0.21482,0.10838 -0.42634,0.22249 -0.6494,0.31358 -0.2431,0.098 -0.48183,0.20532 -0.7215,0.31131 -0.26783,0.10636 -0.53518,0.21383 -0.81139,0.29707 -0.28235,0.0935 -0.56714,0.18017 -0.85459,0.25656 -0.29792,0.0831 -0.59518,0.16711 -0.89096,0.2576 -0.2994,0.0758 -0.59752,0.15622 -0.90074,0.21613 -0.29046,0.0699 -0.58588,0.10651 -0.88016,0.15613 -0.32079,0.0535 -0.64422,0.0944 -0.96617,0.13966 -0.32327,0.0437 -0.64571,0.0899 -0.97116,0.1152 -0.27434,0.0219 -0.549773,0.007 -0.824762,0.0158 -0.259003,0.006 -0.517927,0.0173 -0.775689,0.0445 -0.332542,0.0307 -0.664515,0.0386 -0.996665,-0.006 -0.299685,-0.0299 -0.596683,-0.059 -0.898718,-0.0421 -0.390242,2.3e-4 -0.780481,7.9e-4 -1.170723,7.9e-4 -0.356309,-1.3e-4 -0.712705,5.3e-4 -1.06889,-0.0103 -0.395613,-0.0148 -0.790821,-0.0398 -1.183444,-0.0926 -0.372711,-0.0429 -0.747935,-0.0698 -1.113176,-0.16204 -0.322787,-0.0613 -0.641991,-0.14349 -0.955138,-0.24288 -0.308002,-0.0908 -0.614834,-0.18547 -0.920584,-0.28334 -0.288737,-0.0897 -0.577884,-0.17956 -0.861681,-0.28392 -0.253363,-0.0875 -0.501968,-0.18856 -0.746284,-0.29871 -0.208682,-0.0988 -0.407175,-0.21419 -0.610008,-0.32393 -0.208446,-0.11974 -0.415647,-0.24156 -0.624707,-0.36013 -0.268812,-0.14178 -0.531572,-0.29498 -0.791972,-0.45157 0,0 0.09293,-0.01 0.09293,-0.01 z"
       inkscape:connector-curvature="0" />
    <path
       style="opacity:1;fill:none;fill-opacity:1;fill-rule:nonzero;stroke:#f81786;stroke-width:0.5;stroke-linecap:round;stroke-linejoin:round;stroke-miterlimit:4;stroke-dasharray:none;stroke-dashoffset:0;stroke-opacity:1;paint-order:markers fill stroke"
       id="path4753"
       d="m 84.097121,214.28828 c 0.159321,0.21346 0.316357,0.42548 0.505187,0.61396 0.182499,0.17608 0.36693,0.34911 0.565264,0.50719 0.202618,0.15808 0.384913,0.339 0.594617,0.48783 0.252005,0.17378 0.512225,0.33506 0.777719,0.48732 0.339487,0.20387 0.701542,0.36022 1.065755,0.51299 0.40346,0.16345 0.798935,0.34642 1.203229,0.50758 0.396621,0.15415 0.786329,0.32248 1.187768,0.46378 0.408043,0.1541 0.829749,0.26791 1.252913,0.37174 0.427776,0.11317 0.862473,0.19274 1.296744,0.27529 0.412401,0.0722 0.828186,0.12631 1.244026,0.17493 0.418176,0.0319 0.835803,0.0665 1.253701,0.10251 0.425191,0.05 0.851715,0.0143 1.277398,-0.006 0.473274,-0.008 0.943962,-0.0582 1.415886,-0.0902 0.442148,-0.0125 0.881483,-0.0628 1.322279,-0.0956 0.413848,-0.039 0.824093,-0.10521 1.236233,-0.15764 0.41032,-0.064 0.81874,-0.13908 1.22743,-0.21269 0.40075,-0.0731 0.80068,-0.15049 1.20124,-0.22489 0.38236,-0.0765 0.76046,-0.17148 1.14,-0.26038 0.37416,-0.0934 0.74824,-0.18697 1.12189,-0.2825 0.35284,-0.10184 0.71036,-0.18631 1.06124,-0.29485 0.35548,-0.0985 0.7057,-0.21286 1.05433,-0.33293 0.31893,-0.11026 0.62871,-0.24383 0.94156,-0.36946 0.27715,-0.12352 0.5553,-0.24611 0.82326,-0.38896 0.27476,-0.13286 0.53912,-0.28432 0.8006,-0.44129 0.28474,-0.15085 0.56614,-0.30697 0.84324,-0.47148 0.27625,-0.14581 0.54712,-0.30073 0.8235,-0.44623 0.23296,-0.13152 0.45269,-0.28652 0.66813,-0.44493 0.19461,-0.16469 0.38963,-0.32459 0.59965,-0.46934 0.21565,-0.16194 0.42914,-0.32392 0.65415,-0.47277 0.2202,-0.16669 0.44725,-0.32073 0.67786,-0.47254 0.21884,-0.14765 0.4139,-0.32584 0.62168,-0.488 0.14926,-0.15289 0.31581,-0.28427 0.48119,-0.41846 0.14202,-0.12139 0.29016,-0.23425 0.42203,-0.36711 0.14142,-0.13828 0.24733,-0.30372 0.35079,-0.47066 0,0 0.0931,0.005 0.0931,0.005 v 0 c -0.10367,0.16743 -0.20918,0.33381 -0.35071,0.47277 -0.13142,0.13375 -0.28015,0.24635 -0.42223,0.36811 -0.16504,0.13471 -0.3333,0.26437 -0.48152,0.41862 -0.20806,0.16217 -0.40337,0.34029 -0.62192,0.48872 -0.2305,0.152 -0.45823,0.30497 -0.67784,0.47253 -0.22498,0.14885 -0.43903,0.30991 -0.6541,0.47259 -0.21,0.14466 -0.40569,0.30348 -0.59952,0.46906 -0.21548,0.15896 -0.43576,0.31381 -0.66855,0.4463 -0.27635,0.14549 -0.54721,0.3003 -0.82366,0.44574 -0.27701,0.1646 -0.55802,0.32137 -0.84318,0.47143 -0.26144,0.15713 -0.52547,0.30936 -0.80053,0.44177 -0.26788,0.14351 -0.54634,0.26588 -0.82349,0.38995 -0.31315,0.12513 -0.62267,0.25965 -0.94173,0.3699 -0.34879,0.11992 -0.69883,0.23515 -1.05457,0.33319 -0.35076,0.10911 -0.70841,0.1932 -1.06122,0.29532 -0.37376,0.0953 -0.74783,0.18914 -1.12203,0.28268 -0.37966,0.0886 -0.75771,0.1841 -1.14009,0.26079 -0.40066,0.0742 -0.80062,0.1518 -1.20143,0.22492 -0.40866,0.074 -0.81725,0.14828 -1.22747,0.21317 -0.412251,0.0521 -0.82249,0.11865 -1.236365,0.1581 -0.440912,0.0326 -0.880287,0.0835 -1.322551,0.0956 -0.471945,0.0318 -0.942594,0.0821 -1.415884,0.0904 -0.486002,0.0233 -0.9736,0.0592 -1.459113,0.006 -0.417933,-0.0362 -0.835692,-0.07 -1.253839,-0.10277 -0.415827,-0.0489 -0.831678,-0.10279 -1.244005,-0.17559 -0.434398,-0.0823 -0.868974,-0.16289 -1.296876,-0.27577 -0.423162,-0.10434 -0.844876,-0.21834 -1.252977,-0.37264 -0.401418,-0.14148 -0.791112,-0.31016 -1.187834,-0.46415 -0.404119,-0.16181 -0.799933,-0.3441 -1.203404,-0.50772 -0.364458,-0.15292 -0.726382,-0.31027 -1.066178,-0.5141 -0.265684,-0.15253 -0.526222,-0.31393 -0.77828,-0.48817 -0.209193,-0.1497 -0.392049,-0.33026 -0.594826,-0.48832 -0.198289,-0.15846 -0.382637,-0.33202 -0.565253,-0.50825 -0.188722,-0.1893 -0.345781,-0.40222 -0.505865,-0.61574 0,0 0.0934,-0.006 0.0934,-0.006 z"
       inkscape:connector-curvature="0" />
    <path
       style="opacity:1;fill:none;fill-opacity:1;fill-rule:nonzero;stroke:#000000;stroke-width:0.5;stroke-linecap:round;stroke-linejoin:round;stroke-miterlimit:4;stroke-dasharray:none;stroke-dashoffset:0;stroke-opacity:1;paint-order:markers fill stroke"
       id="path4755"
       d="m 91.5746,161.90782 c 0.192648,-0.17396 0.4084,-0.31936 0.646964,-0.42149 0.192757,-0.0741 0.398349,-0.0876 0.602464,-0.0943 0.237212,-0.0187 0.436007,0.016 0.579763,0.21091 0.09631,0.16777 0.0744,0.35356 0.03189,0.5341 -0.04661,0.20486 -0.124407,0.39993 -0.193759,0.59765 -0.08148,0.22746 -0.193892,0.4407 -0.300906,0.6567 -0.12673,0.21997 -0.24198,0.44532 -0.343905,0.67779 -0.08499,0.19209 -0.174633,0.38291 -0.250634,0.5788 -0.08287,0.16404 -0.126022,0.33937 -0.150027,0.52033 -0.01934,0.16182 -0.02899,0.32974 0.07565,0.46378 0.123209,0.12003 0.293553,0.17932 0.454803,0.23062 0.199803,0.0509 0.405921,0.0594 0.608849,0.0935 0.257241,0.0432 0.517966,0.0548 0.778213,0.0628 0.122658,-0.005 0.24715,0.014 0.369726,0.005 0.06317,-0.005 0.158137,-0.0312 0.224293,-0.0416 0.102677,-0.0172 0.206544,-0.0253 0.309335,-0.0416 0,0 0.09308,0.0132 0.09308,0.0132 v 0 c -0.102941,0.0168 -0.207126,0.0243 -0.310031,0.0415 -0.258183,0.0406 -0.51698,0.0526 -0.778243,0.0375 -0.260429,-0.008 -0.521303,-0.0204 -0.778666,-0.064 -0.203089,-0.0339 -0.409755,-0.0417 -0.609227,-0.0949 -0.162229,-0.0527 -0.33351,-0.11267 -0.455662,-0.23625 -0.102855,-0.13805 -0.09577,-0.3064 -0.07556,-0.4711 0.02397,-0.18165 0.06667,-0.35796 0.150029,-0.52256 0.07578,-0.19616 0.16623,-0.38685 0.251084,-0.57918 0.101844,-0.23268 0.21676,-0.45834 0.343953,-0.67823 0.1069,-0.21565 0.219028,-0.42859 0.300736,-0.65557 0.06908,-0.19746 0.146833,-0.39219 0.193503,-0.59667 0.0423,-0.17782 0.06445,-0.36116 -0.03185,-0.52594 -0.09727,-0.12846 -0.236741,-0.2136 -0.394155,-0.20259 -0.203816,0.006 -0.409263,0.0185 -0.602263,0.0909 -0.238538,0.10029 -0.453874,0.24474 -0.646165,0.41796 0,0 -0.09329,-0.007 -0.09329,-0.007 z"
       inkscape:connector-curvature="0" />
    <path
       style="opacity:1;fill:none;fill-opacity:1;fill-rule:nonzero;stroke:#000000;stroke-width:0.5;stroke-linecap:round;stroke-linejoin:round;stroke-miterlimit:4;stroke-dasharray:none;stroke-dashoffset:0;stroke-opacity:1;paint-order:markers fill stroke"
       id="path4757"
       d="m 90.839794,163.96895 c 0.286519,0.0776 0.581742,0.12666 0.879104,0.11708 0.352277,-0.006 0.702257,-0.0293 1.049039,-0.0923 0.307768,-0.0562 0.615296,-0.11745 0.918069,-0.19667 0.114896,-0.0339 0.231463,-0.0608 0.348555,-0.0857 0,0 0.09236,0.0127 0.09236,0.0127 v 0 c -0.117213,0.0246 -0.233905,0.0511 -0.348795,0.0852 -0.302715,0.0802 -0.610719,0.14055 -0.918564,0.19731 -0.346779,0.0641 -0.696847,0.0876 -1.04929,0.0938 -0.359476,0.003 -0.716624,-0.0125 -1.063247,-0.11935 0,0 0.09277,-0.0121 0.09277,-0.0121 z"
       inkscape:connector-curvature="0" />
    <path
       style="opacity:1;fill:none;fill-opacity:1;fill-rule:nonzero;stroke:#000000;stroke-width:0.5;stroke-linecap:round;stroke-linejoin:round;stroke-miterlimit:4;stroke-dasharray:none;stroke-dashoffset:0;stroke-opacity:1;paint-order:markers fill stroke"
       id="path4761"
       d="m 123.75172,167.84134 c 0.0324,-0.30975 0.0799,-0.61803 0.14126,-0.9234 0.0748,-0.3352 0.1027,-0.67753 0.12016,-1.01971 0.0249,-0.32515 0.005,-0.64762 -0.0303,-0.97073 -0.0373,-0.25663 -0.11476,-0.50156 -0.23817,-0.72939 -0.0778,-0.12559 -0.15203,-0.31348 -0.31705,-0.32992 0.0117,0.006 0.0389,0.005 0.0352,0.0177 -0.006,0.0208 -0.0369,0.0235 -0.0522,0.0389 -0.0206,0.0206 -0.0384,0.044 -0.0547,0.0681 -0.0591,0.0876 -0.10384,0.18752 -0.14847,0.28283 -0.0957,0.27469 -0.17943,0.55363 -0.23622,0.83897 -0.0773,0.38265 -0.14456,0.76776 -0.20136,1.15402 -0.0412,0.3519 -0.0753,0.70715 -0.0574,1.06157 0.0164,0.28152 0.0698,0.5587 0.13839,0.8317 0.0555,0.23388 0.14214,0.45925 0.24371,0.67667 0.0816,0.18031 0.16421,0.36199 0.28237,0.52163 0.0847,0.12446 0.18774,0.23399 0.31084,0.32065 0.12729,0.0637 0.18277,0.0266 0.33583,-0.0521 0.21954,-0.12694 0.38396,-0.31875 0.54937,-0.50642 0.19652,-0.198 0.3321,-0.44156 0.48399,-0.67238 0,0 0.093,0.005 0.093,0.005 v 0 c -0.15281,0.23065 -0.28746,0.47542 -0.48436,0.67365 -0.16575,0.18831 -0.32993,0.38108 -0.54913,0.50988 -0.16037,0.0849 -0.34964,0.14179 -0.52185,0.0509 -0.12278,-0.0883 -0.2261,-0.19839 -0.31103,-0.32363 -0.1172,-0.16094 -0.2006,-0.34255 -0.28214,-0.52349 -0.1014,-0.2181 -0.18813,-0.44398 -0.24354,-0.67844 -0.0687,-0.27359 -0.12173,-0.55143 -0.1381,-0.83352 -0.0178,-0.35504 0.0166,-0.71087 0.0578,-1.06338 0.0568,-0.38641 0.12421,-0.77163 0.20113,-1.15449 0.0564,-0.28613 0.14041,-0.56562 0.23556,-0.84123 0.0404,-0.0868 0.15647,-0.36765 0.25544,-0.39759 0.0485,-0.0147 0.10053,-0.0129 0.15079,-0.0193 0.16424,0.0275 0.23868,0.20981 0.31726,0.33877 0.12276,0.22934 0.201,0.47513 0.23791,0.73297 0.0355,0.32362 0.0549,0.6466 0.0301,0.97221 -0.0175,0.34262 -0.0454,0.68542 -0.12011,1.02109 -0.0614,0.30512 -0.10939,0.61319 -0.14031,0.92289 0,0 -0.0936,-0.001 -0.0936,-0.001 z"
       inkscape:connector-curvature="0" />
    <path
       style="opacity:1;fill:none;fill-opacity:1;fill-rule:nonzero;stroke:#000000;stroke-width:0.5;stroke-linecap:round;stroke-linejoin:round;stroke-miterlimit:4;stroke-dasharray:none;stroke-dashoffset:0;stroke-opacity:1;paint-order:markers fill stroke"
       id="path4763"
       d="m 116.28577,180.09482 c 0.0232,0.267 0.0849,0.52781 0.12922,0.79158 0.0523,0.20797 0.095,0.4177 0.15198,0.6244 0.0514,0.17773 0.0676,0.36178 0.0805,0.54544 -0.0649,0.29601 -0.20936,-0.065 -0.23195,-0.14421 -0.0498,-0.19989 -0.0922,-0.39923 -0.11421,-0.60436 -0.0234,-0.26739 -0.0244,-0.53609 -0.0262,-0.8043 -0.003,-0.24631 -0.009,-0.49094 0.0269,-0.73502 0.0262,-0.18311 0.0284,-0.3786 0.19985,-0.48406 0.2247,-0.0623 0.32152,0.0771 0.41439,0.24847 0.095,0.1824 0.18504,0.36774 0.27144,0.55444 0.0942,0.184 0.17589,0.37538 0.2408,0.5717 0.0659,0.14675 0.1136,0.30095 0.20472,0.43469 -0.0429,0.006 0.10008,0.0651 0.0819,0.0407 -0.0108,-0.0144 -0.0499,0.002 -0.0514,-0.0162 -0.002,-0.02 0.033,-0.0234 0.047,-0.0378 0.0254,-0.0262 0.0737,-0.0988 0.0925,-0.12598 0.0944,-0.17312 0.16793,-0.35754 0.24475,-0.53912 0.0881,-0.1857 0.16807,-0.37617 0.23216,-0.57156 0.0411,-0.16807 0.0749,-0.3393 0.14112,-0.49985 0.14207,-0.22232 0.21489,0.0958 0.24173,0.19155 0.0561,0.2213 0.0504,0.45109 0.0758,0.67654 0.0414,0.29161 0.0638,0.58503 0.0769,0.87912 0.0276,0.23306 0.0672,0.46419 0.0881,0.69807 0.0207,0.10248 0.0448,0.20442 0.0727,0.30519 0,0 -0.0938,0.002 -0.0938,0.002 v 0 c -0.0275,-0.10141 -0.0521,-0.20374 -0.0722,-0.30686 -0.0208,-0.234 -0.0604,-0.46527 -0.0876,-0.6985 -0.013,-0.29387 -0.0354,-0.5871 -0.077,-0.87849 -0.0254,-0.22495 -0.0199,-0.45427 -0.0763,-0.675 -0.0128,-0.0453 -0.0737,-0.1883 -0.0648,-0.20741 0.0148,-0.0318 0.11485,-0.0951 0.0101,0.017 -0.0672,0.15989 -0.10015,0.33136 -0.14138,0.49911 -0.0639,0.19569 -0.14396,0.38646 -0.23223,0.57234 -0.0769,0.18217 -0.15109,0.36686 -0.24464,0.54103 -0.0817,0.11893 -0.20207,0.29133 -0.35686,0.13922 -0.0901,-0.13519 -0.13922,-0.28944 -0.20451,-0.43725 -0.065,-0.19593 -0.14667,-0.38691 -0.2407,-0.57064 -0.0865,-0.18648 -0.17622,-0.37179 -0.27158,-0.55383 -0.0381,-0.0694 -0.0779,-0.14854 -0.13949,-0.20118 -0.0172,-0.0147 -0.0466,-0.0162 -0.0576,-0.0359 -0.005,-0.01 0.04,-0.0127 0.0293,-0.0149 -0.0198,-0.004 -0.04,0.006 -0.06,0.009 -0.17405,0.0988 -0.17311,0.29553 -0.19978,0.47573 -0.0358,0.24358 -0.0298,0.48776 -0.0272,0.7336 0.002,0.26791 0.003,0.53629 0.0263,0.80336 0.0223,0.20458 0.0647,0.4034 0.11469,0.60274 0.0163,0.0562 0.0223,0.0885 0.0495,0.13973 0.009,0.0172 0.0386,0.0303 0.0324,0.0488 -0.007,0.0214 -0.0374,0.0275 -0.0595,0.0322 -0.025,0.005 0.10508,-0.0959 0.0223,-0.0733 -0.0122,-0.1831 -0.029,-0.36645 -0.0802,-0.54358 -0.057,-0.20699 -0.0996,-0.41704 -0.15173,-0.62536 -0.0442,-0.26389 -0.10535,-0.52486 -0.12973,-0.7918 0,0 0.0936,-0.001 0.0936,-0.001 z"
       inkscape:connector-curvature="0" />
    <path
       style="opacity:1;fill:none;fill-opacity:1;fill-rule:nonzero;stroke:#000000;stroke-width:0.5;stroke-linecap:round;stroke-linejoin:round;stroke-miterlimit:4;stroke-dasharray:none;stroke-dashoffset:0;stroke-opacity:1;paint-order:markers fill stroke"
       id="path4765"
       d="m 120.54927,181.5116 c 0.0757,0.23083 0.19512,0.44175 0.30611,0.65647 0.0181,0.0286 0.0341,0.0586 0.0543,0.0857 0.0527,0.0707 0.11458,0.12504 0.20221,0.14427 0.11574,0.0254 0.0959,0.0177 0.0609,-0.001 0.14989,-0.056 0.22171,-0.1642 0.26539,-0.31171 0.045,-0.18054 0.0235,-0.35799 -0.0581,-0.52372 -0.079,-0.161 -0.20334,-0.28589 -0.37827,-0.33178 -0.0287,-0.003 -0.0573,-0.009 -0.0861,-0.008 -0.006,2e-4 0.0194,0.007 0.0144,0.0104 -0.0467,0.0299 -0.10482,0.038 -0.1532,0.0652 -0.0578,0.0325 -0.0851,0.0597 -0.13585,0.10252 -0.0797,0.0902 -0.0405,0.0431 -0.1173,0.14144 0,0 -0.0932,-0.006 -0.0932,-0.006 v 0 c 0.0769,-0.0992 0.0377,-0.0515 0.11736,-0.14336 0.15971,-0.13693 0.32831,-0.21671 0.5466,-0.17413 0.175,0.0511 0.29967,0.17665 0.37888,0.33967 0.0811,0.16832 0.10357,0.34775 0.0583,0.53063 -0.0439,0.15085 -0.1156,0.26063 -0.26626,0.32237 -0.25597,0.0162 -0.37067,-5.3e-4 -0.50319,-0.23762 -0.11134,-0.21524 -0.23013,-0.42713 -0.30652,-0.65832 0,0 0.0935,-0.003 0.0935,-0.003 z"
       inkscape:connector-curvature="0" />
    <path
       style="opacity:1;fill:none;fill-opacity:1;fill-rule:nonzero;stroke:#000000;stroke-width:0.5;stroke-linecap:round;stroke-linejoin:round;stroke-miterlimit:4;stroke-dasharray:none;stroke-dashoffset:0;stroke-opacity:1;paint-order:markers fill stroke"
       id="path4775"
       d="m 112.81602,184.51778 c -0.19545,0.20353 -0.35303,0.43369 -0.47431,0.68775 -0.11898,0.26152 -0.19414,0.54134 -0.25092,0.8223 -0.058,0.30133 -0.0673,0.60581 -0.0414,0.91055 0.029,0.27864 0.12444,0.53617 0.24823,0.78492 0.10857,0.20811 0.26547,0.37471 0.4664,0.49398 0.15562,0.0757 0.29897,0.10248 0.44265,0.0822 0.0263,-0.008 0.0526,-0.0164 0.0788,-0.0246 0,0 0.0928,0.0117 0.0928,0.0117 v 0 c -0.0263,0.009 -0.0527,0.0174 -0.079,0.0261 -0.21646,0.0329 -0.43067,0.0123 -0.62809,-0.0859 -0.20076,-0.12179 -0.358,-0.28978 -0.46657,-0.49929 -0.12371,-0.24998 -0.21898,-0.50872 -0.24803,-0.78841 -0.0259,-0.30561 -0.0166,-0.61099 0.0414,-0.91319 0.0566,-0.28173 0.13195,-0.56224 0.25085,-0.82458 0.1213,-0.25497 0.27886,-0.48589 0.47382,-0.69097 0,0 0.0933,0.007 0.0933,0.007 z"
       inkscape:connector-curvature="0" />
    <path
       style="opacity:1;fill:none;fill-opacity:1;fill-rule:nonzero;stroke:#000000;stroke-width:0.5;stroke-linecap:round;stroke-linejoin:round;stroke-miterlimit:4;stroke-dasharray:none;stroke-dashoffset:0;stroke-opacity:1;paint-order:markers fill stroke"
       id="path4777"
       d="m 114.16868,185.72664 c 0.24407,0.16295 0.4883,0.32384 0.71878,0.50593 0.19992,0.17124 0.39968,0.34332 0.61378,0.49682 0.12096,0.083 0.22111,0.19664 0.35095,0.26571 0,0 -0.0932,0.01 -0.0932,0.01 v 0 c -0.12825,-0.072 -0.22971,-0.18327 -0.35045,-0.26692 -0.21354,-0.1543 -0.41343,-0.32609 -0.61347,-0.49725 -0.23072,-0.1818 -0.47506,-0.34263 -0.71947,-0.50512 0,0 0.0931,-0.009 0.0931,-0.009 z"
       inkscape:connector-curvature="0" />
    <path
       style="opacity:1;fill:none;fill-opacity:1;fill-rule:nonzero;stroke:#000000;stroke-width:0.5;stroke-linecap:round;stroke-linejoin:round;stroke-miterlimit:4;stroke-dasharray:none;stroke-dashoffset:0;stroke-opacity:1;paint-order:markers fill stroke"
       id="path4779"
       d="m 115.37871,185.18962 c -0.15494,0.24078 -0.26263,0.50383 -0.35881,0.77206 -0.0881,0.27688 -0.16043,0.55899 -0.21072,0.84525 -0.0488,0.24373 -0.10971,0.48414 -0.16769,0.72572 0,0 -0.0932,-0.002 -0.0932,-0.002 v 0 c 0.058,-0.24141 0.1191,-0.4816 0.16794,-0.72515 0.0505,-0.28676 0.12285,-0.5694 0.21095,-0.84682 0.0962,-0.26889 0.20404,-0.53236 0.35811,-0.77437 0,0 0.0934,0.005 0.0934,0.005 z"
       inkscape:connector-curvature="0" />
    <path
       style="opacity:1;fill:none;fill-opacity:1;fill-rule:nonzero;stroke:#000000;stroke-width:0.5;stroke-linecap:round;stroke-linejoin:round;stroke-miterlimit:4;stroke-dasharray:none;stroke-dashoffset:0;stroke-opacity:1;paint-order:markers fill stroke"
       id="path4781"
       d="m 117.04171,186.04796 c 0.054,0.27166 0.12869,0.53857 0.24471,0.79034 0.0218,0.0345 0.0409,0.0709 0.0654,0.10359 0.0524,0.07 0.168,0.19072 0.27227,0.15913 0.0105,-0.003 -0.021,-0.007 -0.0315,-0.01 0.1519,-0.065 0.22639,-0.22147 0.30617,-0.35646 0.10601,-0.17502 0.14211,-0.35535 0.10639,-0.55531 -0.0353,-0.17039 -0.10639,-0.32358 -0.25697,-0.41629 -0.0725,-0.0274 -0.15585,-0.0652 -0.23616,-0.0472 -0.006,0.001 0.009,0.0149 0.004,0.0183 -0.1211,0.0501 -0.0636,0.0195 -0.17241,0.0916 -0.0223,0.0223 -0.0446,0.0446 -0.0669,0.0669 0,0 -0.0931,-0.007 -0.0931,-0.007 v 0 c 0.0224,-0.0229 0.0447,-0.0458 0.0671,-0.0687 0.17718,-0.12111 0.39218,-0.15766 0.59061,-0.063 0.14989,0.0968 0.22181,0.25175 0.25719,0.42408 0.0356,0.20204 2.6e-4,0.38479 -0.10653,0.56192 -0.0808,0.13705 -0.15561,0.29355 -0.30654,0.36457 -0.28378,0.0206 -0.33658,-0.006 -0.49194,-0.26183 -0.11578,-0.25287 -0.19038,-0.52066 -0.24541,-0.79302 0,0 0.0936,-0.001 0.0936,-0.001 z"
       inkscape:connector-curvature="0" />
    <path
       style="opacity:1;fill:none;fill-opacity:1;fill-rule:nonzero;stroke:#000000;stroke-width:0.5;stroke-linecap:round;stroke-linejoin:round;stroke-miterlimit:4;stroke-dasharray:none;stroke-dashoffset:0;stroke-opacity:1;paint-order:markers fill stroke"
       id="path4783"
       d="m 119.13186,186.70878 c 0.0705,0.2612 0.11038,0.52864 0.17178,0.79192 0.0315,0.0993 0.0339,0.20068 0.0336,0.30343 0,0 -0.0935,-3e-5 -0.0935,-3e-5 v 0 c 5.3e-4,-0.10204 -0.002,-0.20266 -0.0332,-0.30127 -0.0612,-0.26321 -0.10051,-0.53068 -0.17227,-0.79145 0,0 0.0935,-0.003 0.0935,-0.003 z"
       inkscape:connector-curvature="0" />
    <path
       style="opacity:1;fill:none;fill-opacity:1;fill-rule:nonzero;stroke:#000000;stroke-width:0.5;stroke-linecap:round;stroke-linejoin:round;stroke-miterlimit:4;stroke-dasharray:none;stroke-dashoffset:0;stroke-opacity:1;paint-order:markers fill stroke"
       id="path4785"
       d="m 119.63813,184.98291 c 0.185,0.16828 0.36284,0.34294 0.57778,0.47298 0.15319,0.0698 0.19978,0.0639 0.31096,-0.0828 0.10969,-0.15265 0.14881,-0.33304 0.17314,-0.51566 0.0142,-0.13579 0.0172,-0.27242 0.0181,-0.40884 0.0312,0.018 0.0729,0.0246 0.0937,0.054 8e-4,0.001 0.005,0.44222 0.01,0.4861 0.0282,0.27783 0.12103,0.54169 0.21027,0.80432 0.1027,0.31092 0.26139,0.59801 0.43083,0.87665 0.14452,0.24504 0.27957,0.49721 0.38453,0.7619 0.0822,0.20194 0.0514,0.38776 -0.0412,0.57656 -0.0921,0.15764 -0.24952,0.20029 -0.41864,0.22527 -0.20621,0.0215 -0.42274,0.0197 -0.57052,-0.13904 -0.0823,-0.14466 -0.0164,-0.285 0.0447,-0.42295 0.0898,-0.1773 0.22701,-0.32445 0.34386,-0.48378 0.1113,-0.17113 0.20291,-0.35283 0.3021,-0.5306 0,0 0.0933,0.005 0.0933,0.005 v 0 c -0.10003,0.17765 -0.19093,0.36021 -0.30226,0.53172 -0.1161,0.15916 -0.25334,0.30551 -0.34364,0.48179 -0.0594,0.13402 -0.12707,0.27156 -0.0447,0.41195 0.10397,0.10728 0.24508,0.15047 0.38462,0.13283 0.16701,-0.0231 0.32508,-0.0614 0.4178,-0.21623 0.0922,-0.18648 0.12349,-0.36883 0.0416,-0.56877 -0.10492,-0.26414 -0.2396,-0.51584 -0.38395,-0.76037 -0.16948,-0.27937 -0.32828,-0.56707 -0.43105,-0.87866 -0.0894,-0.26333 -0.18246,-0.5279 -0.21076,-0.80645 -0.006,-0.0563 -0.0345,-0.45349 -0.0104,-0.48708 0.0212,-0.0294 0.063,-0.0359 0.0945,-0.0538 -0.004,0.13674 -0.004,0.27383 -0.0191,0.40997 -0.0244,0.18404 -0.0635,0.366 -0.1731,0.52041 -0.13189,0.18055 -0.30129,0.17436 -0.49708,0.0863 -0.21444,-0.13172 -0.39285,-0.30668 -0.57839,-0.47516 0,0 0.0933,-0.007 0.0933,-0.007 z"
       inkscape:connector-curvature="0" />
    <path
       style="opacity:1;fill:none;fill-opacity:1;fill-rule:nonzero;stroke:#000000;stroke-width:0.5;stroke-linecap:round;stroke-linejoin:round;stroke-miterlimit:4;stroke-dasharray:none;stroke-dashoffset:0;stroke-opacity:1;paint-order:markers fill stroke"
       id="path4787"
       d="m 122.61686,185.3865 c 0.0479,0.26379 0.12961,0.5172 0.23352,0.76358 0.0874,0.17593 0.23281,0.30825 0.38344,0.42965 0.14528,0.096 0.14631,0.0816 0.26118,-0.0674 0.10115,-0.15593 0.12558,-0.33931 0.14215,-0.52028 0.0185,-0.17044 0.002,-0.34089 -0.0577,-0.50167 -0.0486,-0.15317 -0.17622,-0.23158 -0.31649,-0.29172 -0.0311,-0.006 -0.11055,-0.0243 -0.14349,-0.0157 -0.0104,0.003 0.0369,0.006 0.0294,0.0135 -0.0154,0.0158 -0.0427,0.0117 -0.0627,0.0208 -0.0555,0.0251 -0.0577,0.0354 -0.0993,0.0781 0,0 -0.0935,-0.007 -0.0935,-0.007 v 0 c 0.11943,-0.12876 0.29673,-0.14194 0.46253,-0.10039 0.1416,0.0628 0.26838,0.14396 0.31717,0.29924 0.0592,0.16249 0.0764,0.3339 0.0575,0.50582 -0.0166,0.18263 -0.0414,0.36752 -0.14214,0.52553 -0.13199,0.17513 -0.25448,0.19943 -0.4477,0.0696 -0.15084,-0.12313 -0.29683,-0.2563 -0.38342,-0.43424 -0.1038,-0.24726 -0.1849,-0.50171 -0.234,-0.76597 0,0 0.0936,-10e-4 0.0936,-10e-4 z"
       inkscape:connector-curvature="0" />
    <path
       style="opacity:1;fill:none;fill-opacity:1;fill-rule:nonzero;stroke:#000000;stroke-width:0.5;stroke-linecap:round;stroke-linejoin:round;stroke-miterlimit:4;stroke-dasharray:none;stroke-dashoffset:0;stroke-opacity:1;paint-order:markers fill stroke"
       id="path4789"
       d="m 125.1682,186.14245 c 0.0366,0.2628 0.0582,0.52725 0.0723,0.7921 7.9e-4,0.10956 -0.0163,0.21434 -0.0446,0.31945 0,0 -0.0934,-0.002 -0.0934,-0.002 v 0 c 0.0286,-0.10407 0.0454,-0.20783 0.0448,-0.31647 -0.0139,-0.2646 -0.0351,-0.52887 -0.0728,-0.79127 0,0 0.0936,-0.001 0.0936,-0.001 z"
       inkscape:connector-curvature="0" />
    <path
       style="opacity:1;fill:none;fill-opacity:1;fill-rule:nonzero;stroke:#000000;stroke-width:0.5;stroke-linecap:round;stroke-linejoin:round;stroke-miterlimit:4;stroke-dasharray:none;stroke-dashoffset:0;stroke-opacity:1;paint-order:markers fill stroke"
       id="path4791"
       d="m 126.18236,183.96716 c 0.29204,-0.0498 0.5804,-0.028 0.83026,0.13586 0.15043,0.11924 0.15598,0.27682 0.15191,0.45356 0.008,0.16787 -0.0439,0.32636 -0.0767,0.48865 -0.0183,0.17891 -0.0488,0.35448 -0.0828,0.53104 -0.0415,0.19017 -0.0148,0.33176 0.088,0.49234 0.11169,0.10362 0.2734,0.0906 0.4159,0.0916 -0.001,-0.004 -0.007,-0.0102 -0.003,-0.0114 0.13843,-0.0439 0.29325,-0.0513 0.44126,-0.0985 0.0225,-0.0112 0.045,-0.0224 0.0676,-0.0336 0,0 0.0931,0.0103 0.0931,0.0103 v 0 c -0.0226,0.0117 -0.0452,0.0234 -0.0678,0.0351 -0.20165,0.0651 -0.41136,0.10411 -0.62341,0.11276 -0.14473,-0.002 -0.30715,0.009 -0.41701,-0.10087 -0.0983,-0.15527 -0.13082,-0.3165 -0.0879,-0.49942 0.034,-0.17659 0.0646,-0.35213 0.0827,-0.53113 0.0326,-0.1618 0.0848,-0.31964 0.0767,-0.487 0.004,-0.17413 -10e-4,-0.32808 -0.15109,-0.44407 -0.20035,-0.12833 -0.40909,-0.18054 -0.64491,-0.13181 0,0 -0.0926,-0.0133 -0.0926,-0.0133 z"
       inkscape:connector-curvature="0" />
    <path
       style="opacity:1;fill:none;fill-opacity:1;fill-rule:nonzero;stroke:#000000;stroke-width:0.5;stroke-linecap:round;stroke-linejoin:round;stroke-miterlimit:4;stroke-dasharray:none;stroke-dashoffset:0;stroke-opacity:1;paint-order:markers fill stroke"
       id="path4793"
       d="m 125.80431,185.18491 c 0.30618,-0.0817 0.61011,-0.16527 0.92367,-0.21411 0.28012,-0.0599 0.55741,-0.1156 0.84423,-0.11515 0,0 -0.0923,0.0145 -0.0923,0.0145 v 0 c -0.2213,0.0248 -0.44122,0.0696 -0.66024,0.11371 -0.31334,0.048 -0.61693,0.13093 -0.92262,0.21309 0,0 -0.0928,-0.0121 -0.0928,-0.0121 z"
       inkscape:connector-curvature="0" />
    <path
       style="opacity:1;fill:none;fill-opacity:1;fill-rule:nonzero;stroke:#000000;stroke-width:0.5;stroke-linecap:round;stroke-linejoin:round;stroke-miterlimit:4;stroke-dasharray:none;stroke-dashoffset:0;stroke-opacity:1;paint-order:markers fill stroke"
       id="path4795"
       d="m 128.79276,185.10125 c 0.14746,0.23622 0.27112,0.49083 0.46255,0.6955 0.18455,0.14506 0.21665,0.14935 0.3968,0.0317 0.13482,-0.12155 0.20515,-0.29466 0.23444,-0.47073 0.0175,-0.15603 0.0146,-0.31001 -0.0523,-0.45384 -0.0622,-0.1385 -0.17588,-0.23586 -0.32142,-0.27561 -0.0785,-0.0195 -0.15561,0.0198 -0.26348,0.0764 0,0 -0.0931,-0.0101 -0.0931,-0.0101 v 0 c 0.14552,-0.0774 0.27946,-0.11577 0.44945,-0.0784 0.14594,0.0445 0.25974,0.14305 0.32211,0.28363 0.0661,0.14611 0.0702,0.30145 0.0523,0.4594 -0.0294,0.17832 -0.10045,0.35352 -0.23502,0.47838 -0.20212,0.13688 -0.39999,0.12792 -0.58274,-0.0339 -0.1902,-0.20659 -0.31451,-0.46119 -0.46292,-0.69762 0,0 0.0933,-0.005 0.0933,-0.005 z"
       inkscape:connector-curvature="0" />
    <path
       style="opacity:1;fill:none;fill-opacity:1;fill-rule:nonzero;stroke:#000000;stroke-width:0.5;stroke-linecap:round;stroke-linejoin:round;stroke-miterlimit:4;stroke-dasharray:none;stroke-dashoffset:0;stroke-opacity:1;paint-order:markers fill stroke"
       id="path4799"
       d="m 130.69391,182.3488 c 0.21934,0.25534 0.39295,0.54643 0.55074,0.84268 0.14646,0.28036 0.24299,0.58045 0.32684,0.88419 0.0868,0.28066 0.0808,0.5656 0.0591,0.85426 -0.035,0.28752 -0.11809,0.5647 -0.20511,0.83985 -0.0788,0.25018 -0.17902,0.49195 -0.28143,0.73307 -0.0625,0.13042 -0.0302,0.0704 -0.0949,0.18113 0,0 -0.0933,-0.005 -0.0933,-0.005 v 0 c 0.0651,-0.10973 0.0327,-0.0501 0.0952,-0.1799 0.10237,-0.24086 0.20306,-0.48217 0.28165,-0.73218 0.087,-0.27443 0.16997,-0.55088 0.20513,-0.83769 0.0215,-0.28762 0.0277,-0.57143 -0.059,-0.85106 -0.0839,-0.30304 -0.18012,-0.6025 -0.32648,-0.88217 -0.15785,-0.29579 -0.33135,-0.58658 -0.55163,-0.84071 0,0 0.0933,-0.006 0.0933,-0.006 z"
       inkscape:connector-curvature="0" />
    <path
       style="opacity:1;fill:none;fill-opacity:1;fill-rule:nonzero;stroke:#000000;stroke-width:0.5;stroke-linecap:round;stroke-linejoin:round;stroke-miterlimit:4;stroke-dasharray:none;stroke-dashoffset:0;stroke-opacity:1;paint-order:markers fill stroke"
       id="path4803"
       d="m 80.378029,188.5048 c 0.0232,0.26699 0.08486,0.5278 0.12922,0.79157 0.03408,0.20685 0.04317,0.41635 0.04775,0.62555 0.0047,0.16331 0.02461,0.33185 0.07011,0.48951 0.04614,0.0301 -0.06599,-0.0202 -0.08819,-0.0445 -0.019,-0.0208 -0.04196,-0.27688 -0.04679,-0.31601 -0.0066,-0.21675 -0.05226,-0.42851 -0.08401,-0.64229 -0.03024,-0.22216 -0.03996,-0.44331 -0.01056,-0.66549 0.037,-0.14651 -0.0056,-0.35296 0.129632,-0.45338 0.04589,2.7e-4 0.09247,-0.007 0.137679,8e-4 0.07997,0.0139 0.199453,0.2426 0.234265,0.30607 0.100753,0.18463 0.196273,0.37246 0.286501,0.56252 0.104794,0.18734 0.204928,0.37906 0.322506,0.55883 0.08121,0.12854 0.16804,0.30664 0.33946,0.31431 -0.01722,-0.006 -0.04886,-10e-4 -0.0517,-0.0195 -0.003,-0.0194 0.02992,-0.0259 0.0422,-0.0413 0.0145,-0.0182 0.02682,-0.0381 0.03763,-0.0587 0.03976,-0.0757 0.06871,-0.16033 0.09888,-0.24008 0.06214,-0.18882 0.123317,-0.37783 0.187007,-0.56617 0.0618,-0.1884 0.126283,-0.37376 0.161422,-0.56939 0.02,-0.0363 0.04603,-0.28717 0.126522,-0.27369 0.04875,0.008 0.09443,0.0293 0.141647,0.0439 0.0948,0.14509 0.1524,0.3136 0.21717,0.47414 0.07619,0.20989 0.134858,0.42509 0.201287,0.63811 0.0726,0.19766 0.151225,0.39351 0.214521,0.59442 0.05644,0.12783 0.114729,0.25405 0.126215,0.39448 0,0 -0.09367,7.9e-4 -0.09367,7.9e-4 v 0 c -0.01138,-0.13967 -0.07086,-0.26486 -0.125846,-0.39239 -0.06348,-0.20085 -0.142039,-0.3967 -0.214392,-0.59446 -0.06633,-0.2128 -0.124828,-0.42783 -0.201404,-0.63734 -0.0644,-0.15915 -0.120909,-0.32733 -0.217302,-0.46978 0.01511,-0.0137 0.03564,-0.0231 0.04528,-0.0411 0.0049,-0.009 -0.02096,0.004 -0.02891,0.0106 -0.07023,0.0574 -0.06287,0.1784 -0.09774,0.25393 -0.03509,0.19613 -0.09946,0.38197 -0.161512,0.57078 -0.06368,0.18845 -0.125077,0.37748 -0.186934,0.5665 -0.02558,0.068 -0.105942,0.31927 -0.178678,0.34699 -0.04252,0.0162 -0.08969,0.0154 -0.134541,0.0231 -0.171042,-0.0196 -0.257238,-0.19086 -0.339809,-0.32288 -0.116981,-0.18061 -0.218179,-0.37203 -0.322498,-0.56008 -0.09035,-0.18982 -0.185616,-0.37761 -0.286589,-0.56196 -0.0422,-0.0762 -0.08534,-0.15602 -0.142073,-0.22292 -0.01474,-0.0174 -0.03107,-0.0336 -0.04883,-0.0478 -0.01307,-0.0105 -0.04602,-0.01 -0.04302,-0.026 0.0029,-0.0161 0.03254,-0.004 0.04881,-0.006 -0.139457,0.0892 -0.09185,0.30543 -0.129897,0.44555 -0.02948,0.2213 -0.01987,0.4416 0.01056,0.66287 0.03174,0.21387 0.07717,0.42573 0.0842,0.64252 0.0034,0.0271 0.04999,0.31225 0.04719,0.31665 -0.06404,0.10069 -0.07274,0.082 -0.09965,0.0477 -0.04371,-0.15904 -0.06544,-0.32756 -0.06952,-0.49189 -0.0045,-0.20875 -0.01352,-0.4178 -0.04741,-0.62421 -0.04423,-0.26389 -0.105355,-0.52486 -0.129736,-0.79179 0,0 0.09357,-0.001 0.09357,-0.001 z"
       inkscape:connector-curvature="0" />
    <path
       style="opacity:1;fill:none;fill-opacity:1;fill-rule:nonzero;stroke:#000000;stroke-width:0.5;stroke-linecap:round;stroke-linejoin:round;stroke-miterlimit:4;stroke-dasharray:none;stroke-dashoffset:0;stroke-opacity:1;paint-order:markers fill stroke"
       id="path4805"
       d="m 79.009829,191.90914 c -0.110794,0.30977 -0.190582,0.63076 -0.260895,0.95198 -0.06526,0.284 -0.06261,0.57279 -0.01392,0.85858 0.04385,0.25692 0.134773,0.50292 0.228954,0.74499 0.101791,0.22493 0.240676,0.43268 0.402143,0.61893 0.124807,0.11925 0.238321,0.24479 0.416785,0.26548 -0.05327,-0.0157 -0.04654,-0.004 0.01005,-0.0392 0,0 0.0934,0.009 0.0934,0.009 v 0 c -0.08755,0.0609 -0.02764,0.0309 -0.196231,0.0434 -0.177586,-0.0257 -0.292627,-0.15217 -0.417002,-0.27231 -0.161388,-0.18745 -0.300448,-0.39617 -0.402082,-0.62212 -0.0942,-0.24274 -0.185259,-0.48928 -0.229016,-0.74687 -0.04841,-0.28704 -0.05123,-0.57695 0.01434,-0.86214 0.07053,-0.32172 0.150781,-0.64293 0.260046,-0.95377 0,0 0.09343,0.004 0.09343,0.004 z"
       inkscape:connector-curvature="0" />
    <path
       style="opacity:1;fill:none;fill-opacity:1;fill-rule:nonzero;stroke:#000000;stroke-width:0.5;stroke-linecap:round;stroke-linejoin:round;stroke-miterlimit:4;stroke-dasharray:none;stroke-dashoffset:0;stroke-opacity:1;paint-order:markers fill stroke"
       id="path4807"
       d="m 80.067398,193.34467 c 0.251796,0.0487 0.48606,0.14848 0.714237,0.26245 0.196784,0.11098 0.3897,0.22752 0.580689,0.34789 0.103005,0.0763 0.206264,0.14351 0.255606,0.26576 0,0 -0.09376,0.004 -0.09376,0.004 v 0 c -0.04981,-0.11938 -0.153763,-0.18518 -0.254786,-0.26002 -0.190481,-0.12063 -0.383572,-0.23641 -0.58022,-0.34698 -0.228235,-0.11316 -0.462445,-0.21266 -0.714397,-0.25942 0,0 0.09263,-0.0133 0.09263,-0.0133 z"
       inkscape:connector-curvature="0" />
    <path
       style="opacity:1;fill:none;fill-opacity:1;fill-rule:nonzero;stroke:#000000;stroke-width:0.5;stroke-linecap:round;stroke-linejoin:round;stroke-miterlimit:4;stroke-dasharray:none;stroke-dashoffset:0;stroke-opacity:1;paint-order:markers fill stroke"
       id="path4809"
       d="m 80.911056,192.6645 c -0.06511,0.27209 -0.131104,0.54428 -0.18824,0.81824 -0.04655,0.22579 -0.06303,0.45568 -0.07086,0.68556 -5.3e-4,0.0328 -0.0013,0.0656 -0.0019,0.0983 0,0 -0.09337,-1.8e-4 -0.09337,-1.8e-4 v 0 c 5.29e-4,-0.0328 0.0013,-0.0657 0.0019,-0.0985 0.0079,-0.23044 0.02461,-0.46085 0.07134,-0.68716 0.05719,-0.27414 0.123621,-0.54636 0.187581,-0.81893 0,0 0.09352,0.003 0.09352,0.003 z"
       inkscape:connector-curvature="0" />
    <path
       style="opacity:1;fill:none;fill-opacity:1;fill-rule:nonzero;stroke:#000000;stroke-width:0.5;stroke-linecap:round;stroke-linejoin:round;stroke-miterlimit:4;stroke-dasharray:none;stroke-dashoffset:0;stroke-opacity:1;paint-order:markers fill stroke"
       id="path4811"
       d="m 82.585215,193.21611 c 0.157004,0.19999 0.305059,0.40683 0.45125,0.61474 0.0872,0.10668 0.148407,0.22651 0.19672,0.35446 0,0 -0.09334,0.003 -0.09334,0.003 v 0 c -0.04841,-0.12711 -0.109911,-0.24593 -0.196408,-0.35213 -0.146347,-0.20799 -0.294145,-0.41515 -0.451618,-0.61496 0,0 0.0934,-0.006 0.0934,-0.006 z"
       inkscape:connector-curvature="0" />
    <path
       style="opacity:1;fill:none;fill-opacity:1;fill-rule:nonzero;stroke:#000000;stroke-width:0.5;stroke-linecap:round;stroke-linejoin:round;stroke-miterlimit:4;stroke-dasharray:none;stroke-dashoffset:0;stroke-opacity:1;paint-order:markers fill stroke"
       id="path4813"
       d="m 83.352417,192.16445 c 0.160342,0.17574 0.316439,0.35623 0.485253,0.524 0.07498,0.10039 0.178293,0.13149 0.284388,0.17774 0.01027,0.004 -0.03894,0.006 -0.03343,-0.003 0.0086,-0.0153 0.03185,-0.0147 0.04778,-0.022 0.131461,-0.10319 0.159853,-0.26974 0.182695,-0.42576 0.0021,-0.0371 0.02466,-0.35744 0.06182,-0.35573 0.03956,0.002 0.07607,0.022 0.114109,0.033 0.06597,0.15455 0.107673,0.31858 0.163259,0.47745 0.08208,0.24795 0.171333,0.49299 0.285969,0.72792 0.135798,0.26773 0.320723,0.50329 0.495189,0.74562 0.135451,0.19265 0.295389,0.37239 0.388507,0.59068 0.0513,0.15557 0.04224,0.28157 -0.108038,0.36282 -0.195977,0.0728 -0.404254,0.0431 -0.605216,0.0111 -0.171489,-0.0201 -0.343109,-0.0527 -0.502716,-0.12013 -0.128061,-0.0764 -0.112747,-0.17659 -0.05316,-0.2938 0.105074,-0.14916 0.241006,-0.27381 0.354904,-0.41659 0.134453,-0.15711 0.240221,-0.33335 0.343869,-0.51136 0.0489,-0.1035 0.02729,-0.0509 0.06499,-0.15789 0,0 0.09347,0.003 0.09347,0.003 v 0 c -0.03776,0.10826 -0.01609,0.055 -0.06513,0.15965 -0.10365,0.17847 -0.209682,0.35506 -0.344074,0.51271 -0.113044,0.14281 -0.248124,0.26726 -0.354391,0.41478 -0.05889,0.11336 -0.07391,0.20668 0.05251,0.27834 0.16028,0.0651 0.330814,0.0982 0.502206,0.11797 0.151469,0.0239 0.268015,0.0511 0.419568,-0.008 0.150387,-0.075 0.158515,-0.19627 0.107839,-0.34883 -0.09338,-0.21735 -0.253188,-0.39636 -0.387858,-0.58867 -0.174789,-0.24264 -0.35936,-0.47903 -0.495191,-0.7472 -0.11452,-0.23539 -0.204119,-0.48071 -0.286422,-0.72899 -0.05552,-0.15826 -0.09676,-0.32205 -0.163992,-0.47542 0.02461,-0.0109 0.04716,-0.0289 0.07379,-0.0328 0.0097,-10e-4 -0.01283,0.0153 -0.01662,0.0244 -0.04339,0.10354 -0.03007,0.21878 -0.04575,0.32731 -0.02305,0.15892 -0.05238,0.32666 -0.182833,0.43478 -0.18397,0.0989 -0.358933,-0.0289 -0.485097,-0.15537 -0.168116,-0.16857 -0.324387,-0.34881 -0.485489,-0.52399 0,0 0.09329,-0.007 0.09329,-0.007 z"
       inkscape:connector-curvature="0" />
    <path
       style="opacity:1;fill:none;fill-opacity:1;fill-rule:nonzero;stroke:#000000;stroke-width:0.5;stroke-linecap:round;stroke-linejoin:round;stroke-miterlimit:4;stroke-dasharray:none;stroke-dashoffset:0;stroke-opacity:1;paint-order:markers fill stroke"
       id="path4815"
       d="m 86.459472,192.83813 c 0.170291,0.24211 0.357444,0.4713 0.519583,0.71919 0.113551,0.14999 0.184394,0.32016 0.246097,0.49584 0,0 -0.09353,0.003 -0.09353,0.003 v 0 c -0.06092,-0.17518 -0.132628,-0.34406 -0.245314,-0.49361 -0.162377,-0.24783 -0.349316,-0.47729 -0.520237,-0.71907 0,0 0.0934,-0.005 0.0934,-0.005 z"
       inkscape:connector-curvature="0" />
    <path
       style="opacity:1;fill:none;fill-opacity:1;fill-rule:nonzero;stroke:#000000;stroke-width:0.5;stroke-linecap:round;stroke-linejoin:round;stroke-miterlimit:4;stroke-dasharray:none;stroke-dashoffset:0;stroke-opacity:1;paint-order:markers fill stroke"
       id="path4817"
       d="m 87.239268,191.68383 c 0.177202,-0.1515 0.382711,-0.25349 0.615201,-0.27456 0.255243,-0.0165 0.358851,0.11147 0.489333,0.30134 0.09559,0.14536 0.123571,0.31905 0.168122,0.48423 0.0544,0.18093 0.09224,0.36805 0.151209,0.54745 0.05207,0.15729 0.125288,0.3079 0.226171,0.43956 0.08101,0.13051 0.199978,0.20434 0.352743,0.21309 -0.008,-0.002 -0.03135,-0.001 -0.02405,-0.005 0.04609,-0.0236 0.100873,-0.0251 0.148545,-0.0453 0.0713,-0.0302 0.137118,-0.0728 0.199099,-0.11841 0.01632,-0.0179 0.03267,-0.0359 0.049,-0.0538 0,0 0.0934,0.007 0.0934,0.007 v 0 c -0.0164,0.0185 -0.03278,0.0371 -0.04918,0.0556 -0.151506,0.11439 -0.315907,0.18533 -0.509479,0.17393 -0.153606,-0.0139 -0.271719,-0.0894 -0.353494,-0.22099 -0.100224,-0.1333 -0.174286,-0.28428 -0.226197,-0.44269 -0.05828,-0.17984 -0.09702,-0.36673 -0.151173,-0.54793 -0.04438,-0.16423 -0.07229,-0.33691 -0.168063,-0.48107 -0.06683,-0.0975 -0.122275,-0.19523 -0.231254,-0.25196 -0.02418,-0.0126 -0.05248,-0.0164 -0.07618,-0.0299 -0.0035,-0.002 0.0026,-0.008 0.0039,-0.0113 -0.23219,0.0179 -0.43861,0.11729 -0.614497,0.26989 0,0 -0.09311,-0.009 -0.09311,-0.009 z"
       inkscape:connector-curvature="0" />
    <path
       style="opacity:1;fill:none;fill-opacity:1;fill-rule:nonzero;stroke:#000000;stroke-width:0.5;stroke-linecap:round;stroke-linejoin:round;stroke-miterlimit:4;stroke-dasharray:none;stroke-dashoffset:0;stroke-opacity:1;paint-order:markers fill stroke"
       id="path4819"
       d="m 87.534296,192.6606 c 0.26629,-0.025 0.528995,-0.0671 0.791914,-0.11513 0.194506,-0.0509 0.393433,-0.091 0.570339,-0.18978 0.02188,-0.0127 0.04377,-0.0254 0.06566,-0.0381 0,0 0.09311,0.01 0.09311,0.01 v 0 c -0.02191,0.0127 -0.04381,0.0255 -0.06571,0.0382 -0.176369,0.10148 -0.376362,0.14064 -0.571233,0.19283 -0.262827,0.0478 -0.52519,0.0912 -0.791456,0.11556 0,0 -0.09263,-0.0133 -0.09263,-0.0133 z"
       inkscape:connector-curvature="0" />
    <path
       style="opacity:1;fill:none;fill-opacity:1;fill-rule:nonzero;stroke:#000000;stroke-width:0.5;stroke-linecap:round;stroke-linejoin:round;stroke-miterlimit:4;stroke-dasharray:none;stroke-dashoffset:0;stroke-opacity:1;paint-order:markers fill stroke"
       id="path4821"
       d="m 89.95575,190.85376 c 0.173487,0.23881 0.336867,0.48465 0.516697,0.71884 0.161951,0.1979 0.313864,0.40378 0.459581,0.61383 0.124206,0.2058 0.216736,0.42263 0.264086,0.6581 0.05049,0.22524 0.01781,0.44074 -0.04421,0.65858 -0.06948,0.21013 -0.170148,0.40144 -0.314838,0.56881 0,0 -0.09299,-0.007 -0.09299,-0.007 v 0 c 0.145065,-0.1656 0.244948,-0.3559 0.314579,-0.56473 0.06186,-0.21641 0.09485,-0.43026 0.04432,-0.65413 -0.04754,-0.23414 -0.139649,-0.44998 -0.26393,-0.65431 -0.1456,-0.20991 -0.297653,-0.41544 -0.459218,-0.61341 -0.179721,-0.23464 -0.343131,-0.48084 -0.517478,-0.71941 0,0 0.0934,-0.006 0.0934,-0.006 z"
       inkscape:connector-curvature="0" />
    <path
       style="opacity:1;fill:none;fill-opacity:1;fill-rule:nonzero;stroke:#055bce;stroke-width:1;stroke-linecap:round;stroke-linejoin:round;stroke-miterlimit:4;stroke-dasharray:none;stroke-dashoffset:0;stroke-opacity:1;paint-order:markers fill stroke"
       id="path5229"
       d="m 99.896969,195.44001 c -0.107872,-0.12385 -0.160393,-0.28137 -0.128421,-0.45163 0.05869,-0.15836 0.179891,-0.17183 0.315652,-0.17105 0.10844,0.0284 0.16396,0.12659 0.18112,0.24349 0.0116,0.14135 -0.0454,0.25802 -0.10867,0.3736 -0.0746,0.12587 -0.185141,0.1982 -0.306796,0.25451 -0.159338,0.0635 -0.330265,0.0684 -0.494405,0.0279 -0.142175,-0.0485 -0.247334,-0.15527 -0.324423,-0.29436 -0.07504,-0.12515 -0.08044,-0.26521 -0.06138,-0.40921 0.03094,-0.14878 0.121154,-0.26033 0.234991,-0.33759 0.167376,-0.11661 0.326373,-0.12905 0.518188,-0.1276 0.174054,0.013 0.333245,0.0816 0.487505,0.16792 0.12208,0.0747 0.17411,0.19449 0.19958,0.34121 0.004,0.13716 -0.0639,0.25449 -0.14104,0.35408 -0.11293,0.11661 -0.24285,0.2111 -0.385091,0.27521 -0.169232,0.0674 -0.320615,0.064 -0.480335,-0.031 -0.117054,-0.0898 -0.187361,-0.22379 -0.227015,-0.37346 -0.03441,-0.15936 -0.0125,-0.32234 0.03231,-0.47577 0.06433,-0.17444 0.158941,-0.33315 0.294396,-0.44613 0.161435,-0.13614 0.304302,-0.14337 0.498475,-0.14279 0.15733,0.0145 0.286,0.11068 0.39817,0.22863 0.10223,0.11907 0.14646,0.24838 0.15468,0.41025 -0.001,0.17649 -0.0911,0.30272 -0.19195,0.42633 -0.11035,0.12992 -0.24661,0.19931 -0.399991,0.23861 -0.179341,0.0401 -0.361732,0.0304 -0.533918,-0.0369 -0.141771,-0.0651 -0.238721,-0.19086 -0.31877,-0.33242 -0.07335,-0.13339 -0.06625,-0.267 -0.03439,-0.41268 0.03772,-0.14647 0.134005,-0.24336 0.243117,-0.32521 0.13992,-0.0896 0.285485,-0.11574 0.443744,-0.11907 0.198647,-0.0194 0.375908,0.0514 0.552378,0.14381 0.13638,0.0751 0.23894,0.19018 0.30259,0.3438 0.0469,0.13253 0.0427,0.26428 -0.0129,0.39115 -0.066,0.125 -0.17821,0.1962 -0.29435,0.25064 -0.1244,0.0421 -0.27953,0.0913 -0.393621,-0.001 -0.008,-0.0145 -0.0158,-0.0276 -0.0237,-0.0414 0,0 0.0603,-0.004 0.0603,-0.004 v 0 c 0.008,0.013 0.0157,0.0259 0.0235,0.0388 0.0894,0.0674 0.175831,0.0365 0.273731,-2.3e-4 0.11551,-0.0528 0.22757,-0.12269 0.29394,-0.24581 0.0556,-0.12471 0.0596,-0.25453 0.0129,-0.38509 -0.0638,-0.15213 -0.16648,-0.26526 -0.30202,-0.33912 -0.1371,-0.0712 -0.279931,-0.13904 -0.433606,-0.14106 -0.157986,0.003 -0.302854,0.0269 -0.443088,0.1153 -0.108558,0.08 -0.204961,0.17532 -0.242822,0.3202 -0.03165,0.1441 -0.03888,0.27544 0.03424,0.40723 0.08006,0.14034 0.176778,0.26463 0.318287,0.32791 0.137245,0.0522 0.272113,0.0728 0.414928,0.0362 0.153071,-0.0379 0.289091,-0.10561 0.399581,-0.23454 0.10003,-0.12196 0.19061,-0.24611 0.19171,-0.42095 -0.008,-0.16017 -0.0527,-0.28784 -0.15442,-0.40511 -0.11228,-0.11676 -0.24069,-0.21127 -0.397641,-0.22366 -0.140999,-0.006 -0.265061,0.0486 -0.379438,0.1386 -0.135768,0.11082 -0.229689,0.26889 -0.294116,0.44198 -0.0446,0.15207 -0.06665,0.31367 -0.03223,0.47167 0.03978,0.14805 0.10977,0.28048 0.226648,0.36809 0.0116,0.007 0.133817,0.0739 0.142654,0.0747 0.0749,0.007 0.147742,-0.0221 0.218376,-0.0444 0.142186,-0.0626 0.271517,-0.15692 0.384777,-0.27201 0.0764,-0.0975 0.14402,-0.21308 0.14073,-0.34795 -0.0255,-0.14512 -0.0777,-0.26227 -0.199,-0.33506 -0.154211,-0.0855 -0.313262,-0.15367 -0.487075,-0.16493 -0.141776,-0.007 -0.276982,0.0478 -0.399198,0.12414 -0.11338,0.0746 -0.203406,0.18482 -0.234578,0.33163 -0.019,0.14265 -0.01347,0.28073 0.06123,0.40443 0.07722,0.13759 0.182271,0.24255 0.323897,0.28899 0.129188,0.0304 0.249635,0.0272 0.375202,-0.0268 0.121191,-0.055 0.231492,-0.12573 0.306332,-0.25027 0.0626,-0.11429 0.12033,-0.22878 0.10849,-0.36877 -0.0173,-0.11458 -0.0731,-0.21013 -0.18047,-0.23413 0.0387,-0.004 -0.0303,0.004 -0.0364,0.006 -0.051,0.0155 -0.10249,0.0509 -0.133235,0.1 -0.01083,0.0174 -0.01747,0.0376 -0.0262,0.0564 -0.03243,0.16828 0.02122,0.32331 0.128365,0.44488 0,0 -0.0601,0.006 -0.0601,0.006 z"
       inkscape:connector-curvature="0" />
    <path
       style="opacity:1;fill:none;fill-opacity:1;fill-rule:nonzero;stroke:#000000;stroke-width:1;stroke-linecap:round;stroke-linejoin:round;stroke-miterlimit:4;stroke-dasharray:none;stroke-dashoffset:0;stroke-opacity:1;paint-order:markers fill stroke"
       id="path5233"
       d="m 81.86453,212.105 c 0.238622,-0.11109 0.457592,-0.25313 0.671613,-0.40506 0.157975,-0.13277 0.300588,-0.28139 0.438431,-0.43458 0.150034,-0.16917 0.282096,-0.35294 0.429011,-0.52501 0.135175,-0.16908 0.279016,-0.33062 0.417147,-0.49748 0.146656,-0.14481 0.281432,-0.29998 0.405747,-0.46414 0.135128,-0.15066 0.262067,-0.30791 0.381095,-0.47147 0.130929,-0.16672 0.273688,-0.32484 0.416274,-0.48194 0.137978,-0.18245 0.279398,-0.35897 0.446977,-0.51501 0.18656,-0.16447 0.369141,-0.33323 0.548833,-0.50514 0.172797,-0.16134 0.333123,-0.33512 0.483661,-0.51724 0.124113,-0.14033 0.226473,-0.29593 0.331171,-0.4503 0.06805,-0.12781 0.141057,-0.25091 0.222517,-0.37066 0.08825,-0.13428 0.186169,-0.26215 0.26988,-0.3995 0.08998,-0.12766 0.176335,-0.26057 0.242443,-0.40239 -7.93e-4,-0.0179 0.03962,-0.10563 0.0016,-0.12136 -0.0098,-0.004 -0.03986,-0.005 -0.03188,0.002 0.03011,0.0266 0.111794,-0.0174 -0.01831,0.0326 -0.158568,0.0869 -0.319916,0.16707 -0.475308,0.25977 -0.151959,0.0814 -0.308285,0.15353 -0.465037,0.2252 -0.151152,0.0649 -0.311635,0.0992 -0.462357,0.16574 -0.280321,0.0373 0.116745,-0.15675 0.142864,-0.17175 0.177467,-0.088 0.342025,-0.19886 0.515168,-0.2948 0.162219,-0.10409 0.325157,-0.20773 0.477988,-0.32531 0.138565,-0.10563 0.289245,-0.19396 0.423487,-0.30516 0.115075,-0.0802 0.227896,-0.17646 0.366646,-0.20983 0.05129,0.003 0.103558,-0.002 0.153877,0.008 0.105587,0.0217 0.102936,0.23029 0.108278,0.30394 -0.01646,0.18081 -0.04869,0.35917 -0.103595,0.53211 -0.05046,0.17618 -0.124222,0.34507 -0.204282,0.50962 -0.01397,0.0305 -0.02796,0.061 -0.04194,0.0916 0,0 -0.09325,-0.004 -0.09325,-0.004 v 0 c 0.01397,-0.0306 0.02796,-0.0612 0.04194,-0.0918 0.0801,-0.16403 0.153606,-0.33258 0.204039,-0.50827 0.05481,-0.17179 0.08713,-0.34883 0.103539,-0.52855 -0.0053,-0.0716 -0.0062,-0.14992 -0.03576,-0.21708 -0.0073,-0.0167 -0.0163,-0.0333 -0.02896,-0.0464 -0.01185,-0.0122 -0.03801,-0.0115 -0.04285,-0.0278 -0.0031,-0.0106 0.02127,-0.006 0.0319,-0.009 -0.139446,0.0285 -0.251142,0.12687 -0.36635,0.20536 -0.133519,0.11233 -0.284916,0.19991 -0.423695,0.30549 -0.152506,0.11856 -0.31632,0.22161 -0.478264,0.32674 -0.173381,0.0953 -0.337312,0.20697 -0.514853,0.29464 -0.136675,0.0792 -0.206298,0.13 -0.366021,0.15841 -0.01233,0.002 0.02461,-0.005 0.0369,-0.007 0.150474,-0.0677 0.310882,-0.1018 0.462645,-0.1656 0.156366,-0.0722 0.312981,-0.14313 0.464987,-0.22418 0.155326,-0.0934 0.317306,-0.17265 0.475204,-0.26129 0.145106,-0.06 0.294741,-0.0904 0.235302,0.10161 -0.06558,0.14239 -0.152212,0.27574 -0.242625,0.40342 -0.08328,0.13779 -0.181576,0.26549 -0.269701,0.4 -0.08121,0.11994 -0.155628,0.24217 -0.222652,0.37066 -0.105539,0.15411 -0.206724,0.3109 -0.331475,0.45115 -0.150614,0.18251 -0.311129,0.35659 -0.484066,0.5183 -0.179599,0.172 -0.361971,0.34099 -0.548666,0.50529 -0.167855,0.15551 -0.309774,0.33125 -0.446879,0.51423 -0.142438,0.15686 -0.284887,0.31487 -0.416134,0.48093 -0.11893,0.16368 -0.245232,0.32158 -0.381116,0.47165 -0.124188,0.16437 -0.258255,0.32042 -0.405794,0.46455 -0.1382,0.16692 -0.281927,0.32863 -0.417317,0.4976 -0.147074,0.172 -0.279159,0.35574 -0.428805,0.52526 -0.138123,0.15378 -0.280988,0.30273 -0.438812,0.43662 -0.2141,0.15237 -0.433199,0.29456 -0.671433,0.40707 0,0 -0.09287,-0.0109 -0.09287,-0.0109 z"
       inkscape:connector-curvature="0" />
    <path
       style="opacity:1;fill:none;fill-opacity:1;fill-rule:nonzero;stroke:#000000;stroke-width:0.5;stroke-linecap:round;stroke-linejoin:round;stroke-miterlimit:4;stroke-dasharray:none;stroke-dashoffset:0;stroke-opacity:1;paint-order:markers fill stroke"
       id="path5235"
       d="m 82.095447,205.96161 c -0.145261,-0.0726 -0.314952,-0.12926 -0.48039,-0.11517 -0.0082,7.9e-4 -0.01064,0.0137 -0.01841,0.0165 -0.03263,0.0115 -0.06708,0.017 -0.100621,0.0255 -0.195922,0.0667 -0.337731,0.21726 -0.445109,0.38862 -0.104481,0.17321 -0.177176,0.36486 -0.23721,0.55754 -0.05718,0.18797 -0.02193,0.37811 0.05438,0.55458 0.06021,0.0917 0.189019,0.20692 0.313309,0.16803 0.0082,-0.003 -0.01357,-0.0104 -0.02037,-0.0156 0.158012,-0.0641 0.257376,-0.18844 0.352566,-0.32339 0.103452,-0.17305 0.201932,-0.34961 0.277296,-0.53682 0.07873,-0.18556 0.149225,-0.37549 0.207722,-0.56847 0.01304,-0.11555 0.09059,-0.42843 0.206258,-0.0952 0.07681,0.18674 0.133779,0.37973 0.196985,0.57117 0.06371,0.21983 0.169659,0.425 0.290878,0.6182 0.08649,0.18285 0.246475,0.31698 0.322739,0.5041 0,0 -0.09357,0.004 -0.09357,0.004 v 0 c -0.07684,-0.18593 -0.236397,-0.32016 -0.322197,-0.50254 -0.12116,-0.19407 -0.227165,-0.39989 -0.290967,-0.62044 -0.06308,-0.19147 -0.120719,-0.38424 -0.197496,-0.57097 -0.03294,-0.0927 -0.04174,-0.0515 0.04119,-0.11957 0.0028,-0.002 -0.0069,0.004 -0.0083,0.007 -0.02843,0.0653 -0.02748,0.14122 -0.0522,0.20753 -0.05838,0.19329 -0.129003,0.38347 -0.207777,0.56929 -0.07526,0.18798 -0.174141,0.365 -0.277304,0.53898 -0.09582,0.13662 -0.195112,0.26208 -0.353026,0.33023 -0.199578,0.0212 -0.364276,0.0323 -0.479115,-0.1612 -0.07598,-0.17887 -0.111943,-0.37101 -0.05431,-0.56117 0.06001,-0.19345 0.132961,-0.38583 0.237326,-0.55993 0.107206,-0.17315 0.249512,-0.32612 0.445809,-0.39569 0.266322,-0.0698 0.540607,-0.0575 0.785022,0.0762 0,0 -0.09311,0.009 -0.09311,0.009 z"
       inkscape:connector-curvature="0" />
    <path
       style="opacity:1;fill:none;fill-opacity:1;fill-rule:nonzero;stroke:#000000;stroke-width:0.5;stroke-linecap:round;stroke-linejoin:round;stroke-miterlimit:4;stroke-dasharray:none;stroke-dashoffset:0;stroke-opacity:1;paint-order:markers fill stroke"
       id="path5239"
       d="m 80.258255,204.28337 c 0.302728,-0.0398 0.607435,-0.0594 0.912296,-0.0729 0.272579,0.011 0.538785,0.0389 0.811001,0.0234 0.207584,-0.0231 0.41887,-0.0102 0.625263,-0.0415 0.168982,-0.0449 0.100894,-0.0827 0.0082,-0.14477 -0.12087,-0.0642 -0.250098,-0.11232 -0.370626,-0.17718 -0.128879,-0.0711 -0.225237,-0.12044 0.02693,-0.10478 0.132103,0.0197 0.253444,0.0751 0.382923,0.10657 0.14877,0.0552 0.296672,0.0936 0.413869,0.20497 0.111027,0.13353 0.05933,0.26978 -0.03177,0.39676 -0.145073,0.18344 -0.32835,0.32341 -0.519625,0.45449 -0.122116,0.0964 -0.240356,0.19716 -0.362069,0.2941 0,0 -0.09284,-0.008 -0.09284,-0.008 v 0 c 0.121928,-0.097 0.240633,-0.19754 0.362344,-0.29475 0.190738,-0.13038 0.373785,-0.26885 0.518793,-0.45134 0.0899,-0.12279 0.142456,-0.25402 0.03189,-0.38324 -0.117563,-0.10814 -0.265843,-0.1465 -0.413367,-0.20022 -0.129156,-0.0323 -0.251097,-0.087 -0.383355,-0.10616 0.116425,-0.0129 -0.02299,0.008 0.15942,0.0818 0.121478,0.0636 0.25033,0.1128 0.370922,0.17809 0.100687,0.0666 0.155043,0.12177 -0.009,0.16717 -0.206203,0.0339 -0.418148,0.0183 -0.625825,0.0424 -0.27134,0.0159 -0.541829,0.0172 -0.811278,-0.0233 -0.304552,0.0132 -0.608968,0.0325 -0.911395,0.0722 0,0 -0.09262,-0.0133 -0.09262,-0.0133 z"
       inkscape:connector-curvature="0" />
  </g>
</svg>
