<?xml version="1.0" encoding="UTF-8" standalone="no"?>
<!-- Created with Inkscape (http://www.inkscape.org/) -->

<svg
   xmlns:dc="http://purl.org/dc/elements/1.1/"
   xmlns:cc="http://creativecommons.org/ns#"
   xmlns:rdf="http://www.w3.org/1999/02/22-rdf-syntax-ns#"
   xmlns:svg="http://www.w3.org/2000/svg"
   xmlns="http://www.w3.org/2000/svg"
   xmlns:sodipodi="http://sodipodi.sourceforge.net/DTD/sodipodi-0.dtd"
   xmlns:inkscape="http://www.inkscape.org/namespaces/inkscape"
   width="297mm"
   height="210mm"
   viewBox="0 0 297 210"
   version="1.1"
   id="svg8"
   inkscape:version="0.92.1 r15371"
   sodipodi:docname="ellipse-rotate-2.svg">
  <defs
     id="defs2" />
  <sodipodi:namedview
     id="base"
     pagecolor="#ffffff"
     bordercolor="#666666"
     borderopacity="1.0"
     inkscape:pageopacity="0.0"
     inkscape:pageshadow="2"
     inkscape:zoom="2.8"
     inkscape:cx="483.92032"
     inkscape:cy="395.31408"
     inkscape:document-units="mm"
     inkscape:current-layer="layer1"
     showgrid="false"
     inkscape:window-width="1920"
     inkscape:window-height="1046"
     inkscape:window-x="-11"
     inkscape:window-y="-11"
     inkscape:window-maximized="1" />
  <metadata
     id="metadata5">
    <rdf:RDF>
      <cc:Work
         rdf:about="">
        <dc:format>image/svg+xml</dc:format>
        <dc:type
           rdf:resource="http://purl.org/dc/dcmitype/StillImage" />
        <dc:title></dc:title>
      </cc:Work>
    </rdf:RDF>
  </metadata>
  <g
     inkscape:label="Layer 1"
     inkscape:groupmode="layer"
     id="layer1"
     transform="translate(0,-87)">
    <path
       style="opacity:1;fill:#000000;fill-opacity:1;fill-rule:nonzero;stroke:#000000;stroke-width:1;stroke-linecap:round;stroke-linejoin:round;stroke-miterlimit:4;stroke-dasharray:none;stroke-dashoffset:0;stroke-opacity:1;paint-order:markers fill stroke"
       id="path4491"
       d="m 76.966341,192.48374 c -0.258233,0.91505 -0.534686,1.82334 -0.751681,2.74952 -0.241935,1.11125 -0.293579,2.24919 -0.327425,3.38209 -0.02535,1.16335 0.245716,2.29426 0.551064,3.40743 0.354306,1.20784 0.986758,2.29528 1.663361,3.34602 0.740693,1.13557 1.674249,2.10623 2.685367,2.99995 1.168334,1.02486 2.51808,1.80015 3.872648,2.54695 1.519217,0.8624 3.129611,1.53858 4.76254,2.15089 1.86345,0.71883 3.802986,1.20556 5.737831,1.68711 2.171985,0.53285 4.372779,0.92521 6.583794,1.25255 2.33588,0.36829 4.69235,0.56153 7.04831,0.74301 2.55135,0.19595 5.11028,0.2457 7.6679,0.27841 2.63766,0.0329 5.275,-0.0626 7.91002,-0.17007 2.62821,-0.10596 5.24805,-0.31933 7.86193,-0.60773 2.58335,-0.28279 5.15266,-0.66344 7.70268,-1.16316 2.37208,-0.42274 4.69129,-1.06961 6.98698,-1.79138 1.99773,-0.64696 3.96046,-1.40019 5.88283,-2.2442 1.66577,-0.71152 3.23972,-1.60049 4.75747,-2.58386 1.26395,-0.84382 2.41256,-1.83937 3.45849,-2.9386 0.93062,-0.96962 1.6347,-2.09637 2.21415,-3.3008 0.54711,-1.09947 0.82302,-2.28505 1.03838,-3.4852 0.16874,-1.2409 0.10897,-2.4863 -0.074,-3.72008 -0.2041,-1.31541 -0.6303,-2.57645 -1.15199,-3.7962 -0.59577,-1.35367 -1.43096,-2.58358 -2.2917,-3.77988 -0.96499,-1.32462 -2.1004,-2.50589 -3.24354,-3.67491 -1.21186,-1.23446 -2.5242,-2.35487 -3.89743,-3.40382 -1.42478,-1.09249 -2.97946,-1.98173 -4.53489,-2.869 -1.61173,-0.91988 -3.32299,-1.64713 -5.04504,-2.33118 -1.79093,-0.7168 -3.62952,-1.29776 -5.49349,-1.78952 -1.91146,-0.46969 -3.83624,-0.88934 -5.77419,-1.23407 -1.92917,-0.34578 -3.87055,-0.61403 -5.82179,-0.79611 -2.01153,-0.21809 -4.03267,-0.3046 -6.05422,-0.35528 -1.97107,-0.0575 -3.94189,0.057 -5.90646,0.20674 -2.07486,0.17594 -4.13087,0.51395 -6.18207,0.86382 -2.04966,0.37057 -4.07094,0.87596 -6.0669,1.46801 -2.01966,0.62514 -4.010871,1.34075 -5.982623,2.10265 -2.058977,0.81776 -4.038648,1.81084 -5.997781,2.84051 -1.905688,1.0145 -3.781992,2.08076 -5.630162,3.19619 -1.718109,1.04566 -3.329622,2.25632 -4.915328,3.49049 -1.386369,1.09155 -2.642188,2.33692 -3.825089,3.64298 -1.015328,1.09147 -1.744872,2.37871 -2.267186,3.76575 0,0 -0.181144,-0.007 -0.181144,-0.007 v 0 c 0.522758,-1.3893 1.252678,-2.67908 2.26945,-3.77241 1.183386,-1.30705 2.43957,-2.55361 3.826677,-3.64595 1.586254,-1.23462 3.19823,-2.44591 4.916588,-3.49249 1.848427,-1.11586 3.725074,-2.18234 5.631111,-3.19713 1.95912,-1.03026 3.938714,-2.02396 5.997628,-2.84258 1.971415,-0.76266 3.962649,-1.47809 5.981969,-2.10416 1.9961,-0.59288 4.01767,-1.09852 6.06753,-1.47006 2.05118,-0.35013 4.10713,-0.68863 6.18193,-0.86551 2.08131,-0.15931 4.16888,-0.27128 6.25705,-0.20762 2.02171,0.0511 4.04295,0.13833 6.05464,0.35644 1.9514,0.18285 3.893,0.45141 5.82236,0.79752 1.93785,0.34568 3.86277,0.76498 5.77409,1.23555 1.86427,0.49257 3.70316,1.07423 5.4944,1.79156 1.72227,0.68504 3.43391,1.41264 5.04569,2.33362 1.55598,0.88746 3.1104,1.77825 4.53536,2.87137 1.37353,1.04976 2.68597,2.17128 3.89823,3.40634 1.1435,1.16986 2.27924,2.35207 3.24449,3.67756 0.86114,1.19768 1.69691,2.42871 2.29291,3.78379 0.52178,1.2214 0.94834,2.48388 1.15263,3.80084 0.18292,1.23574 0.2432,2.48315 0.0743,3.72599 -0.21553,1.20175 -0.49102,2.3891 -1.03872,3.49012 -0.57981,1.20625 -1.28414,2.33498 -2.21551,3.30638 -1.04622,1.10083 -2.19552,2.09753 -3.46017,2.94272 -1.51852,0.98415 -3.09289,1.87454 -4.75968,2.58651 -1.9228,0.84512 -3.88648,1.5982 -5.88483,2.2459 -2.29614,0.72237 -4.61576,1.37016 -6.98843,1.79315 -2.55022,0.50039 -5.11979,0.88136 -7.70341,1.16453 -2.61408,0.28889 -5.23411,0.50273 -7.86255,0.60885 -2.74949,0.11218 -5.50127,0.20788 -8.25353,0.17061 -2.55804,-0.0329 -5.11738,-0.0831 -7.66913,-0.27935 -2.35636,-0.18146 -4.71312,-0.37574 -7.04936,-0.7441 -2.211428,-0.32781 -4.412574,-0.72101 -6.584964,-1.25412 -1.935509,-0.48194 -3.875561,-0.96936 -5.739524,-1.68895 -1.633448,-0.6133 -3.244403,-1.29007 -4.764112,-2.15332 -1.355383,-0.74777 -2.705616,-1.52444 -3.874227,-2.55078 -1.011873,-0.89513 -1.945381,-1.86793 -2.686577,-3.00486 -0.677113,-1.05249 -1.309592,-2.142 -1.664149,-3.35154 -0.305668,-1.11495 -0.576744,-2.24769 -0.551344,-3.41284 0.03386,-1.13411 0.0856,-2.27323 0.327297,-3.38575 0.216458,-0.92606 0.493255,-1.834 0.747482,-2.7499 0,0 0.186799,0.005 0.186799,0.005 z"
       inkscape:connector-curvature="0" />
    <path
       style="opacity:1;fill:#000000;fill-opacity:1;fill-rule:nonzero;stroke:#000000;stroke-width:1;stroke-linecap:round;stroke-linejoin:round;stroke-miterlimit:4;stroke-dasharray:none;stroke-dashoffset:0;stroke-opacity:1;paint-order:markers fill stroke"
       id="path4503"
       d="m 119.32245,143.89023 c -0.10667,0.55921 -0.0607,1.12594 -0.0321,1.68976 0.005,0.61036 0.10378,1.21276 0.16386,1.8188 0.0623,0.71408 0.0701,1.43131 0.0766,2.1476 0.005,0.86619 0.003,1.73239 0.003,2.59859 -0.063,0.98661 -0.10022,1.97546 -0.17858,2.96096 -0.10241,1.00594 -0.15227,2.01558 -0.18026,3.02597 -0.0199,1.0613 -0.11243,2.11947 -0.15937,3.17985 -0.0416,1.08115 -0.0463,2.16323 -0.0503,3.24502 0.001,1.06399 -0.0914,2.12531 -0.13763,3.18794 -0.0488,1.07975 -0.0565,2.15853 0.003,3.2376 0.0699,1.06122 0.10324,2.12416 0.1219,3.18735 0.0147,1.08991 0.0137,2.17995 0.0142,3.26993 -1.2e-4,1.08349 -8e-4,2.16697 -10e-4,3.25045 -2.6e-4,1.08892 -1.2e-4,2.17783 -2e-4,3.26675 -1.8e-4,1.09211 -4e-5,2.18423 4e-5,3.27635 0.0279,1.06558 -0.0213,2.12761 -0.0855,3.19068 -0.064,0.99891 -0.0849,1.9997 -0.097,3.00036 0.0212,0.99394 -0.0643,1.9842 -0.1213,2.97545 -0.0528,0.95202 -0.0642,1.90559 -0.0715,2.85883 -0.007,0.94603 0.0875,1.88921 0.13362,2.83366 0.0385,0.97203 0.13771,1.94008 0.18956,2.9116 0.0838,0.93958 0.15787,1.87939 0.26155,2.81697 0.0939,0.91089 0.21965,1.81832 0.3492,2.72476 0.11868,0.88629 0.24755,1.77122 0.378,2.65589 0.10072,0.85629 0.22097,1.71023 0.30167,2.56879 0.11509,0.82031 0.18867,1.6449 0.29381,2.4664 0.0969,0.77867 0.12952,1.56212 0.21336,2.34207 0.0595,0.80993 0.13757,1.6171 0.22058,2.42492 0.0774,0.76517 0.0971,1.53424 0.10911,2.30268 0.0624,0.77339 0.12755,1.54576 0.16066,2.32112 0.0214,0.8264 0.024,1.65104 0.0875,2.47552 0.0753,0.81968 0.10511,1.64206 0.1226,2.46465 0.061,0.79027 0.13109,1.57928 0.16793,2.37119 0.0299,0.75775 0.032,1.51619 0.034,2.27441 8e-4,0.72702 1.6e-4,1.45405 -2.6e-4,2.18107 -1.3e-4,0.57227 -1.6e-4,1.14455 2e-5,1.71682 0.006,0.34972 -0.0177,0.69996 0.0229,1.04777 0,0 -0.18673,0.002 -0.18673,0.002 v 0 c -0.0401,-0.34859 -0.0169,-0.69947 -0.0223,-1.04992 2.7e-4,-0.57228 5.3e-4,-1.14456 10e-4,-1.71684 5.3e-4,-0.727 0.002,-1.45401 5.3e-4,-2.18101 -0.002,-0.75794 -0.004,-1.51612 -0.0339,-2.27359 -0.0368,-0.79207 -0.10681,-1.58123 -0.16758,-2.37166 -0.0174,-0.82226 -0.0477,-1.64427 -0.12254,-2.46362 -0.0634,-0.82471 -0.0664,-1.64954 -0.0876,-2.47616 -0.0333,-0.77551 -0.099,-1.54803 -0.16102,-2.32162 -0.0119,-0.76791 -0.0316,-1.53643 -0.10889,-2.30108 -0.0829,-0.8078 -0.16063,-1.61498 -0.22073,-2.42483 -0.0837,-0.77982 -0.11623,-1.56315 -0.21302,-2.3417 -0.10502,-0.82171 -0.17896,-1.64648 -0.29375,-2.46702 -0.0805,-0.85825 -0.20086,-1.71184 -0.30133,-2.56783 -0.13041,-0.8847 -0.25939,-1.76963 -0.37794,-2.65597 -0.12946,-0.90664 -0.25519,-1.81426 -0.34909,-2.72534 -0.10385,-0.93791 -0.1773,-1.87812 -0.26141,-2.81802 -0.0516,-0.97156 -0.15088,-1.93962 -0.18956,-2.91168 -0.0464,-0.94478 -0.14109,-1.88833 -0.13361,-2.83469 0.007,-0.95355 0.0187,-1.90743 0.0717,-2.85974 0.0569,-0.99099 0.14289,-1.98095 0.12132,-2.97463 0.0123,-1.00095 0.0328,-2.00205 0.0974,-3.00124 0.0641,-1.06271 0.1138,-2.12435 0.0856,-3.18957 8e-5,-1.09212 2e-4,-2.18424 4e-5,-3.27636 -3e-5,-1.08891 2.1e-4,-2.17783 2.7e-4,-3.26675 2e-4,-1.08348 5.2e-4,-2.16696 7.9e-4,-3.25044 -4e-5,-1.08988 2.6e-4,-2.17981 -0.0144,-3.26961 -0.0187,-1.06296 -0.0517,-2.12569 -0.12185,-3.18668 -0.0592,-1.07965 -0.0514,-2.15905 -0.003,-3.23939 0.0461,-1.0624 0.13909,-2.12345 0.13767,-3.18721 0.004,-1.08204 0.009,-2.16436 0.0503,-3.24576 0.0468,-1.06028 0.13974,-2.11834 0.15916,-3.17955 0.0278,-1.0107 0.0777,-2.02067 0.18027,-3.02691 0.0781,-0.98504 0.11527,-1.97339 0.17814,-2.95953 2.3e-4,-0.86613 0.002,-1.73228 -0.003,-2.5984 -0.007,-0.71574 -0.0147,-1.43243 -0.0774,-2.14593 -0.0604,-0.60631 -0.15865,-1.20905 -0.16407,-1.8197 -0.0288,-0.565 -0.0741,-1.13272 0.0305,-1.69336 0,0 0.18715,0.003 0.18715,0.003 z"
       inkscape:connector-curvature="0" />
    <path
       style="opacity:1;fill:none;fill-opacity:1;fill-rule:nonzero;stroke:#f81786;stroke-width:0.2;stroke-linecap:round;stroke-linejoin:round;stroke-miterlimit:4;stroke-dasharray:none;stroke-dashoffset:0;stroke-opacity:1;paint-order:markers fill stroke"
       id="path4873"
       d="m 130.92622,172.36746 c -0.41472,0.30018 -0.80506,0.62897 -1.19826,0.95622 -0.32944,0.31992 -0.62777,0.67009 -0.94026,1.00638 -0.31058,0.3536 -0.57528,0.74174 -0.85231,1.12098 -0.27004,0.38645 -0.51897,0.7844 -0.76191,1.18812 -0.25168,0.44413 -0.51123,0.8811 -0.73216,1.34184 -0.23891,0.46262 -0.46702,0.93047 -0.68339,1.40404 -0.22004,0.49206 -0.39873,0.99998 -0.58805,1.50415 -0.20475,0.52118 -0.36664,1.05583 -0.51211,1.59609 -0.14077,0.5322 -0.26973,1.0629 -0.33896,1.60961 -0.11422,0.54492 -0.15505,1.10068 -0.24047,1.64965 -0.10864,0.55304 -0.15269,1.11416 -0.17895,1.67614 -0.0206,0.56357 -0.0206,1.1276 -0.0212,1.69146 -0.0302,0.52631 0.0584,1.04515 0.11538,1.56612 0.0448,0.50591 0.0583,1.01084 0.12689,1.5143 0.0786,0.51876 0.10864,1.04268 0.12647,1.56647 0.0607,0.52008 0.12223,1.03911 0.22119,1.55335 0.0789,0.53978 0.15997,1.07853 0.2423,1.61796 0.0643,0.55028 0.18261,1.09251 0.30098,1.63317 0.10945,0.54195 0.2381,1.07995 0.37131,1.61652 0.14278,0.55068 0.33332,1.0862 0.51029,1.62608 0.1809,0.51447 0.3846,1.02065 0.56578,1.5348 0.18875,0.49657 0.37587,0.99343 0.56789,1.48868 0.18689,0.4664 0.36932,0.93356 0.53586,1.4076 0.14125,0.44881 0.31231,0.8884 0.51198,1.31439 0.2103,0.38644 0.43683,0.76379 0.6393,1.15443 0.21189,0.36439 0.36477,0.76097 0.60403,1.10868 0.23174,0.32826 0.44342,0.66895 0.68829,0.98789 0.22055,0.32489 0.47355,0.62365 0.72971,0.92007 0.24556,0.27375 0.51853,0.52458 0.79449,0.76812 0.32804,0.27176 0.66629,0.53546 1.01233,0.78455 0.34937,0.28058 0.73895,0.5026 1.10641,0.75635 0.27243,0.19997 0.52469,0.38983 0.85334,0.48326 0,0 -0.18561,0.024 -0.18561,0.024 v 0 c -0.32722,-0.0975 -0.58045,-0.2903 -0.85353,-0.48924 -0.3685,-0.25239 -0.75596,-0.47743 -1.10618,-0.75681 -0.3457,-0.25056 -0.68551,-0.51282 -1.01295,-0.78632 -0.27616,-0.24423 -0.54949,-0.4957 -0.79478,-0.77061 -0.25678,-0.29621 -0.50762,-0.59698 -0.72929,-0.92121 -0.24459,-0.31948 -0.45684,-0.66027 -0.68858,-0.98889 -0.23743,-0.34963 -0.3925,-0.74562 -0.60401,-1.11094 -0.20305,-0.39058 -0.42956,-0.76817 -0.63922,-1.15521 -0.1992,-0.42683 -0.37034,-0.8669 -0.51178,-1.31624 -0.16675,-0.47375 -0.3488,-0.94089 -0.5358,-1.40701 -0.19194,-0.49545 -0.37899,-0.99251 -0.56766,-1.48926 -0.18181,-0.51408 -0.38487,-1.02059 -0.56568,-1.53522 -0.17751,-0.54019 -0.36723,-1.07645 -0.51046,-1.62745 -0.13314,-0.53676 -0.26167,-1.07494 -0.37121,-1.61703 -0.11873,-0.541 -0.23644,-1.08373 -0.30105,-1.63437 -0.0822,-0.5392 -0.16337,-1.07773 -0.24249,-1.61724 -0.0988,-0.51522 -0.16079,-1.0352 -0.22121,-1.55625 -0.0177,-0.52317 -0.0479,-1.04645 -0.12647,-1.56458 -0.0687,-0.50359 -0.082,-1.00873 -0.12687,-1.51478 -0.0574,-0.52162 -0.14546,-1.04121 -0.1152,-1.56817 2.7e-4,-0.56415 7.9e-4,-1.12846 0.0213,-1.69232 0.0264,-0.56261 0.0697,-1.12448 0.17875,-1.67814 0.0855,-0.54879 0.12633,-1.10437 0.24043,-1.64912 0.0693,-0.54757 0.19781,-1.07921 0.33921,-1.61214 0.14516,-0.54093 0.30716,-1.07617 0.51208,-1.59789 0.1897,-0.50444 0.36761,-1.01305 0.58791,-1.50543 0.21603,-0.47384 0.44428,-0.94172 0.68329,-1.40439 0.22083,-0.46146 0.48025,-0.89901 0.73227,-1.34361 0.24318,-0.40413 0.49137,-0.803 0.76175,-1.18981 0.27768,-0.37955 0.54218,-0.76855 0.8526,-1.12315 0.31296,-0.33669 0.61186,-0.68703 0.94036,-1.00875 0.39348,-0.32735 0.78434,-0.65577 1.19759,-0.95827 0,0 0.18622,0.0184 0.18622,0.0184 z"
       inkscape:connector-curvature="0" />
    <path
       style="opacity:1;fill:#000000;fill-opacity:1;fill-rule:nonzero;stroke:#000000;stroke-width:1;stroke-linecap:round;stroke-linejoin:round;stroke-miterlimit:4;stroke-dasharray:none;stroke-dashoffset:0;stroke-opacity:1;paint-order:markers fill stroke"
       id="path4505"
       d="m 119.46609,145.02662 c -0.31974,0.63058 -0.62221,1.26892 -0.91854,1.91078 -0.29456,0.63004 -0.50747,1.29189 -0.73975,1.94595 -0.17352,0.52588 -0.34487,1.05228 -0.52223,1.57687 -0.0189,0.0882 -0.21604,0.70517 -0.30298,0.67651 -0.0823,-0.0271 -0.15503,-0.0777 -0.23254,-0.11647 -0.0825,-0.42895 -0.0584,-0.87305 -0.0571,-1.30807 0.004,-0.73712 0.007,-1.47425 0.008,-2.21137 -0.0241,-0.83102 0.019,-1.65778 0.0868,-2.48547 0.0527,-0.59179 0.0557,-1.18534 0.15007,-1.7724 0.058,-0.38128 0.13233,-0.76754 0.42924,-1.03287 0.36191,-0.21364 0.81406,-0.0982 1.18293,0.0473 0.47547,0.21841 0.809,0.63025 1.15794,1.0052 0.45498,0.50313 0.94329,0.97496 1.39495,1.4809 0.38832,0.47273 0.81766,0.91042 1.20706,1.38179 0.17014,0.20465 0.28963,0.43845 0.40306,0.67682 0,0 -0.18596,0.008 -0.18596,0.008 v 0 c -0.11332,-0.2369 -0.23273,-0.46916 -0.40258,-0.67227 -0.38975,-0.4706 -0.81757,-0.90911 -1.20613,-1.38114 -0.45237,-0.50526 -0.93998,-0.9777 -1.39531,-1.48049 -0.3484,-0.37339 -0.68185,-0.78329 -1.15841,-0.99674 -0.31359,-0.12028 -0.48428,-0.23953 -0.81103,-0.0537 -0.3003,0.25728 -0.37102,0.64279 -0.42946,1.01992 -0.0951,0.5865 -0.099,1.17961 -0.15181,1.77093 -0.0686,0.82718 -0.11135,1.65343 -0.0871,2.48399 -0.001,0.73713 -0.003,1.47425 -0.007,2.21138 -8e-4,0.4325 -0.0247,0.87451 0.059,1.30066 -0.0474,0.034 -0.0989,0.0628 -0.14209,0.10193 -0.035,0.0317 0.0803,-0.056 0.10256,-0.0977 0.0941,-0.1764 0.14343,-0.37325 0.20135,-0.56301 0.1777,-0.52467 0.35003,-1.05095 0.52325,-1.57712 0.23306,-0.65442 0.44549,-1.3171 0.74054,-1.9476 0.296,-0.64148 0.59836,-1.27935 0.91608,-1.91038 0,0 0.18686,0.008 0.18686,0.008 z"
       inkscape:connector-curvature="0" />
    <path
       style="opacity:1;fill:#000000;fill-opacity:1;fill-rule:nonzero;stroke:#000000;stroke-width:1;stroke-linecap:round;stroke-linejoin:round;stroke-miterlimit:4;stroke-dasharray:none;stroke-dashoffset:0;stroke-opacity:1;paint-order:markers fill stroke"
       id="path4507"
       d="m 42.398949,195.85544 c 0.612757,-0.0885 1.232734,-0.10002 1.847245,-0.16787 0.659595,-0.0836 1.321696,-0.13471 1.980874,-0.22126 0.686374,-0.0925 1.378151,-0.12669 2.069835,-0.14557 0.792332,-0.0152 1.584558,-0.0224 2.376366,0.0106 0.701815,0.0966 1.400993,0.0934 2.105734,0.0609 0.849538,-0.046 1.70012,-0.064 2.550713,-0.0746 0.891993,-0.0174 1.78471,0.013 2.675911,-0.0306 0.935874,-0.0718 1.872946,-0.11862 2.811129,-0.14467 0.925296,-0.0208 1.850872,-0.0217 2.776353,-0.0226 0.987861,-2.6e-4 1.97572,5.3e-4 2.963582,8e-4 0.905637,-0.003 1.808379,0.0896 2.712328,0.13782 0.80278,0.0383 1.606079,-0.0462 2.407896,-0.0853 0.898718,-0.0477 1.79713,0.0422 2.694358,0.0864 0.820174,0.0383 1.641306,0.0449 2.462213,0.0494 0.73606,-0.0654 1.473004,-0.11974 2.211255,-0.15259 0.807556,-0.0234 1.613516,-0.0228 2.418966,-0.0892 0.812837,-0.0734 1.628341,-0.105 2.443999,-0.12337 0.767069,-0.0617 1.532908,-0.13106 2.301748,-0.16752 0.75769,-0.0271 1.510614,-0.12217 2.26723,-0.17075 0.754962,-0.0519 1.51253,-0.0258 2.267289,-0.0738 0.79987,-0.0769 1.602004,-0.12026 2.404959,-0.14597 0.77298,-0.0205 1.546291,-0.0212 2.319483,-0.022 0.771517,-2.7e-4 1.543031,5.2e-4 2.314546,7.9e-4 0.738436,2.6e-4 1.476872,2.6e-4 2.215306,5.3e-4 0.694753,2e-5 1.389503,10e-6 2.084263,10e-6 0.7562,0 1.5124,0 2.2686,-10e-6 0.7587,0.0272 1.51254,-0.0213 2.26781,-0.0848 0.80598,-0.0655 1.61455,-0.0854 2.42278,-0.0978 0.7676,-0.057 1.53373,-0.12583 2.30275,-0.16193 0.72037,-0.0207 1.43496,-0.12079 2.15362,-0.17076 0.66714,-0.041 1.33563,-0.0477 2.00381,-0.0519 0.6142,0.0288 1.2174,-0.0202 1.82645,-0.0853 0.54923,-0.0647 1.10196,-0.0853 1.65441,-0.0972 0.59763,-0.01 1.19538,-0.008 1.79306,-0.008 0.43002,-0.0833 0.87227,-0.12205 1.30985,-0.15307 0.48317,-0.03 0.96738,-0.0331 1.4513,-0.0355 0.48582,0.0264 0.9645,-0.0583 1.44522,-0.11264 0.47407,-0.0533 0.9512,-0.0651 1.42775,-0.073 0.48906,0.002 0.97436,0.005 1.45997,-0.0563 0.52705,-0.0764 1.05865,-0.10517 1.59035,-0.12289 0.56796,0.0122 1.12947,-0.0342 1.69291,-0.0983 0.59101,-0.0661 1.18571,-0.0851 1.77984,-0.097 0.64554,-0.009 1.29118,-0.008 1.93677,-0.007 0.53024,0.0337 1.04768,-0.0249 1.57255,-0.0835 0.56638,-0.0648 1.13611,-0.0854 1.70561,-0.0978 0.64644,-0.0111 1.29242,-0.0154 1.93821,0.0156 0.57916,0.071 1.16007,0.11986 1.7429,0.14587 0.56752,0.021 1.13554,0.0214 1.70337,0.0223 0.47979,7e-5 0.95958,-5.3e-4 1.43938,-8e-4 0.54949,-2.6e-4 1.09899,-2.6e-4 1.64848,-5.2e-4 0.60975,-3e-5 1.21949,-3e-5 1.82923,-1e-5 0.53962,-2e-5 1.07924,1e-5 1.61886,0 0.5497,3e-5 1.09941,-2e-5 1.64911,0 0.45374,0.0122 0.90282,0.001 1.35326,-0.0527 0.501,-0.0728 1.00595,-0.10563 1.51146,-0.12374 0.53998,-0.0147 1.08024,-0.0137 1.62038,-0.0139 0.60123,0.0116 1.19693,-0.0904 1.7967,-0.13519 0.59365,-0.0406 1.18886,-0.0476 1.78366,-0.052 0.60914,-0.0333 1.21171,0.05 1.81545,0.11359 0.5308,0.0515 1.06403,0.0647 1.59692,0.0725 0.46237,0.005 0.92478,0.004 1.38717,0.003 0.60883,0.0285 1.21167,0.11682 1.82017,0.1544 0.58485,0.0309 1.17073,0.0322 1.75624,0.0344 0.52038,0.0283 1.03214,-0.0607 1.54864,-0.11315 0.54604,-0.0522 1.09448,-0.0663 1.64262,-0.074 0.61779,-0.006 1.23562,-0.004 1.85343,-0.004 0.50959,0.0271 1.01019,-0.0622 1.5163,-0.11203 0.56551,-0.0541 1.13375,-0.0658 1.70142,-0.0733 0.35981,-0.004 0.71965,-0.004 1.07948,-0.004 0.48802,10e-6 0.30996,0.0376 0.54376,-0.0215 0.55808,-0.0711 1.118,-0.1182 1.67985,-0.14453 0.53929,-0.0204 1.07902,-0.0218 1.61861,-0.0228 0.50962,0.004 1.01399,-0.0875 1.52056,-0.13528 0.47551,-0.0413 0.95312,-0.0477 1.43012,-0.0521 0.4781,0.023 0.94855,-0.0223 1.42138,-0.0856 0.43306,-0.0633 0.86987,-0.0857 1.30683,-0.0974 0.50011,-0.01 1.00035,-0.008 1.50051,-0.008 0.45151,5.2e-4 0.90302,7.9e-4 1.35453,0.001 0.443,1.4e-4 0.886,1.7e-4 1.329,1.8e-4 0.35099,-1e-5 0.70197,-3e-5 1.05295,-4e-5 0.43481,-0.003 0.86842,-0.006 1.30226,0.0238 0.32505,0.077 0.65475,0.1205 0.98745,0.14456 -0.0168,-0.004 -0.0601,0.001 -0.0505,-0.0134 0.0354,-0.0533 0.22947,-0.0215 -0.0736,-0.1805 -0.22847,-0.14763 -0.4772,-0.25728 -0.71173,-0.39627 -0.33132,-0.18421 -0.67143,-0.35154 -1.00594,-0.52975 -0.37728,-0.18052 -0.74072,-0.38883 -1.1297,-0.54371 -0.35033,-0.13809 -0.69616,-0.28897 -1.05025,-0.41731 0.20248,-0.007 -0.23509,-0.0606 -0.17432,-0.0555 0.29016,0.0243 0.51714,0.0988 0.78668,0.20028 0.47854,0.16938 0.96668,0.30627 1.45972,0.42698 0.60076,0.15787 1.19348,0.34137 1.78745,0.52215 0.50728,0.1506 0.98056,0.33909 1.39035,0.67732 0.32206,0.30041 0.36037,0.66427 0.16876,1.04503 -0.29173,0.42468 -0.72724,0.71632 -1.15095,0.99575 -0.58775,0.39222 -1.23176,0.68183 -1.86033,0.99997 -0.48966,0.22856 -0.97555,0.46307 -1.44029,0.73925 -0.0587,0.0323 -0.11729,0.0645 -0.17593,0.0968 0,0 -0.18563,-0.0199 -0.18563,-0.0199 v 0 c 0.0587,-0.032 0.11732,-0.0641 0.17598,-0.0961 0.4647,-0.27769 0.95151,-0.512 1.44206,-0.74034 0.62801,-0.31815 1.27207,-0.60649 1.85972,-0.99792 0.42188,-0.27731 0.8549,-0.56679 1.1487,-0.98627 0.19266,-0.37284 0.15051,-0.72716 -0.16774,-1.01977 -0.40991,-0.33449 -0.88389,-0.51986 -1.38872,-0.67019 -0.59364,-0.18148 -1.18668,-0.36347 -1.78737,-0.52112 -0.49348,-0.1217 -0.98233,-0.25859 -1.46131,-0.42897 -0.045,-0.0167 -0.46058,-0.14709 -0.47504,-0.17019 -0.0175,-0.028 0.0315,-0.0626 0.0604,-0.0785 0.0535,-0.0294 0.13308,0.11372 0.17348,0.0586 0.35336,0.1303 0.69996,0.27884 1.0499,0.41793 0.38833,0.15707 0.75273,0.36428 1.12988,0.5457 0.33523,0.17752 0.67517,0.34585 1.00661,0.5305 0.23509,0.13767 0.48339,0.24865 0.7123,0.39567 0.36723,0.21145 0.0387,0.25841 -0.24758,0.24175 -0.33279,-0.0251 -0.66209,-0.0711 -0.98771,-0.14568 0.0601,-0.0688 0.0281,-0.0214 -0.17024,-0.0214 -0.25414,0 -0.50828,0 -0.76242,0 -0.47384,0 -0.94767,-1e-5 -1.42151,-2e-5 -0.44299,-1e-5 -0.88598,1e-5 -1.32897,-1.9e-4 -0.45151,-2.1e-4 -0.90302,-5.3e-4 -1.35453,-0.001 -0.37742,-0.001 -0.75489,2.7e-4 -1.13225,0.007 -0.43687,0.0112 -0.87366,0.0325 -1.30667,0.0954 -0.47303,0.0635 -0.94329,0.11247 -1.42177,0.0878 -0.47692,0.004 -0.95444,0.0101 -1.42994,0.0505 -0.50683,0.0471 -1.01125,0.139 -1.52087,0.13695 -0.53965,0.001 -1.07944,0.002 -1.61879,0.022 -0.56179,0.0257 -1.1218,0.0715 -1.67966,0.14389 -0.5411,0.0276 -1.08179,0.0265 -1.62363,0.0268 -0.56757,0.007 -1.13573,0.0184 -1.7012,0.0718 -0.62657,0.0611 -1.25186,0.14515 -1.8834,0.11381 -0.49547,-2.6e-4 -0.99095,-0.001 -1.4864,0.003 -0.54807,0.007 -1.09644,0.0209 -1.64247,0.0724 -0.6372,0.0643 -1.2734,0.14645 -1.91576,0.11491 -0.5856,-0.002 -1.17158,-0.004 -1.75649,-0.0354 -0.48512,-0.0306 -0.97511,-0.0675 -1.45287,-0.15324 -0.58491,5.3e-4 -1.16984,0.002 -1.75472,-0.004 -0.53292,-0.008 -1.06618,-0.0219 -1.59694,-0.0742 -0.4835,-0.0513 -0.96086,-0.14112 -1.44819,-0.11182 -0.59479,0.004 -1.18999,0.0108 -1.78367,0.0508 -0.59917,0.0441 -1.19506,0.13363 -1.7966,0.1366 -0.54,1.5e-4 -1.08012,-10e-4 -1.61997,0.0132 -0.50542,0.0175 -1.01038,0.0492 -1.51126,0.12216 -0.57235,0.0701 -1.14466,0.0603 -1.72094,0.0549 -0.5497,1e-5 -1.09941,-3e-5 -1.64912,0 -0.53956,-1e-5 -1.07913,1e-5 -1.61869,-2e-5 -0.48739,1e-5 -0.97478,0 -1.46217,2e-5 -0.54949,5e-5 -1.09898,7e-5 -1.64847,5.3e-4 -0.60214,2.7e-4 -1.20428,0.001 -1.80642,7.9e-4 -0.56787,-0.001 -1.13592,-0.002 -1.70346,-0.0231 -0.58281,-0.0267 -1.16355,-0.0767 -1.74284,-0.14645 -0.51174,-0.0945 -1.05397,0.0226 -1.5712,-0.0146 -0.5694,0.012 -1.13908,0.0318 -1.70541,0.0962 -0.64504,0.0722 -1.29019,0.10677 -1.93962,0.0855 -0.52337,-5.3e-4 -1.04678,-5.3e-4 -1.57011,0.007 -0.59395,0.0115 -1.1885,0.0298 -1.77939,0.0952 -0.56353,0.0642 -1.12487,0.11362 -1.69304,0.0998 -0.53146,0.0172 -1.06293,0.0449 -1.58976,0.1212 -0.48569,0.0629 -0.97072,0.0618 -1.4601,0.0583 -0.47651,0.008 -0.95363,0.0186 -1.42773,0.0712 -0.48087,0.0539 -0.95945,0.14105 -1.44537,0.11464 -0.48391,0.002 -0.9681,0.005 -1.4513,0.0343 -0.56096,0.0388 -1.11555,0.1324 -1.67747,0.15432 -0.4753,-7.9e-4 -0.95063,-1.2e-4 -1.42589,0.007 -0.5524,0.0115 -1.10513,0.0312 -1.65435,0.0956 -0.60755,0.065 -1.21543,0.10626 -1.827,0.0871 -0.66821,0.004 -1.33675,0.0104 -2.00397,0.0507 -0.71888,0.0493 -1.43355,0.1497 -2.15401,0.17113 -0.76916,0.0356 -1.53547,0.10332 -2.30303,0.16247 -0.80809,0.0121 -1.61653,0.0315 -2.4224,0.0966 -0.75537,0.0635 -1.50916,0.11444 -2.26803,0.0864 -0.7562,0 -1.5124,0 -2.2686,1e-5 -0.81636,0 -1.63271,1e-5 -2.44907,-1e-5 -0.738516,-4e-5 -1.477031,-7e-5 -2.215544,-2.7e-4 -0.649841,-2.6e-4 -1.299681,-0.001 -1.949519,-0.001 -0.773242,8e-4 -1.546601,0.001 -2.319636,0.0215 -0.802836,0.0253 -1.604934,0.0677 -2.404613,0.14541 -0.754653,0.05 -1.512298,0.0222 -2.267286,0.0738 -0.756714,0.048 -1.509628,0.1432 -2.267286,0.17105 -0.768969,0.0359 -1.534999,0.10413 -2.30201,0.16795 -0.815573,0.018 -1.631029,0.0489 -2.443784,0.12227 -0.805553,0.0671 -1.611469,0.0677 -2.419239,0.0898 -0.859605,0.0377 -1.715516,0.12517 -2.57543,0.15328 -0.820939,-0.005 -1.642102,-0.0114 -2.46229,-0.0502 -0.776012,-0.0385 -1.553448,-0.12055 -2.330376,-0.0864 -0.923001,0.0447 -1.847259,0.1367 -2.771745,0.0852 -0.903769,-0.0486 -1.806414,-0.14049 -2.711953,-0.1369 -0.866868,-2.6e-4 -1.733735,-0.001 -2.600603,-7.9e-4 -0.92547,7.9e-4 -1.851035,0.002 -2.776328,0.0221 -0.938115,0.0257 -1.875174,0.0717 -2.81092,0.1443 -0.891125,0.0453 -1.783882,0.0137 -2.675867,0.0313 -0.850402,0.0105 -1.700813,0.0281 -2.550157,0.0741 -0.826098,0.0387 -1.648423,0.0446 -2.470586,-0.0611 -0.664888,-0.0767 -1.343285,0.01 -2.01095,-0.01 -0.691534,0.0184 -1.383223,0.0516 -2.069505,0.14368 -0.65913,0.0868 -1.321035,0.13846 -1.980671,0.22164 -0.613669,0.0697 -1.233222,0.0789 -1.845349,0.16758 0,0 -0.185254,-0.0266 -0.185254,-0.0266 z"
       inkscape:connector-curvature="0" />
    <path
       style="opacity:1;fill:none;fill-opacity:1;fill-rule:nonzero;stroke:#f81786;stroke-width:0.2;stroke-linecap:round;stroke-linejoin:round;stroke-miterlimit:4;stroke-dasharray:none;stroke-dashoffset:0;stroke-opacity:1;paint-order:markers fill stroke"
       id="path4875"
       d="m 122.23277,171.23354 c -0.38759,0.28157 -0.74855,0.59543 -1.11599,0.90186 -0.26277,0.20899 -0.46467,0.46845 -0.67385,0.72688 -0.22483,0.29651 -0.42982,0.60669 -0.64751,0.90828 -0.2778,0.36136 -0.5397,0.73472 -0.79529,1.11205 -0.26218,0.40292 -0.47039,0.83623 -0.71466,1.24934 -0.26481,0.45963 -0.4771,0.94691 -0.69795,1.42861 -0.21749,0.52654 -0.47068,1.04005 -0.66252,1.57667 -0.19007,0.51757 -0.37289,1.038 -0.54509,1.56182 -0.15607,0.53434 -0.31115,1.06903 -0.48295,1.59857 -0.16992,0.53812 -0.29704,1.08833 -0.44415,1.63275 -0.13082,0.54822 -0.23478,1.10335 -0.33164,1.65871 -0.0994,0.59088 -0.17751,1.18579 -0.27986,1.77612 -0.0914,0.57493 -0.19446,1.14772 -0.28741,1.72242 -0.0799,0.59122 -0.0963,1.18652 -0.17305,1.77805 -0.0801,0.56804 -0.11089,1.14072 -0.1286,1.71355 -0.0434,0.55972 0.044,1.11329 0.10182,1.66808 0.046,0.54937 0.06,1.09805 0.12762,1.64541 0.0722,0.55733 0.0964,1.11736 0.18066,1.67308 0.0559,0.52759 0.14182,1.04981 0.22116,1.5741 0.12327,0.52464 0.20983,1.05613 0.31807,1.58385 0.14272,0.51582 0.26341,1.03683 0.42705,1.54664 0.16255,0.48384 0.33368,0.96637 0.53459,1.43595 0.19678,0.44228 0.35305,0.89984 0.51285,1.35626 0.1696,0.44258 0.28991,0.90109 0.46594,1.3413 0.14455,0.41041 0.35444,0.78912 0.56512,1.16765 0.22778,0.37028 0.41479,0.76324 0.64408,1.13246 0.25762,0.35307 0.46648,0.73739 0.74017,1.07838 0.22485,0.30725 0.4656,0.6076 0.73893,0.87337 0.23161,0.24057 0.47294,0.47133 0.7044,0.7121 0.23588,0.20439 0.44658,0.43275 0.6533,0.66613 0.20452,0.26232 0.40615,0.52969 0.63881,0.76802 0.237,0.28891 0.4865,0.56659 0.74202,0.83914 0.20134,0.18926 0.39441,0.3799 0.62353,0.53522 0,0 -0.18598,0.0181 -0.18598,0.0181 v 0 c -0.22805,-0.15775 -0.42235,-0.34888 -0.62337,-0.5393 -0.25557,-0.27265 -0.50469,-0.55077 -0.74293,-0.83876 -0.23098,-0.24028 -0.43357,-0.50655 -0.63856,-0.76887 -0.20684,-0.23295 -0.41888,-0.45979 -0.65339,-0.66533 -0.23227,-0.23973 -0.47198,-0.47179 -0.70412,-0.71159 -0.27208,-0.26798 -0.51389,-0.5676 -0.7389,-0.87565 -0.27279,-0.34229 -0.48252,-0.7269 -0.74007,-1.08063 -0.22876,-0.36982 -0.41657,-0.76266 -0.64419,-1.13332 -0.21123,-0.37907 -0.42011,-0.75912 -0.56513,-1.17006 -0.17534,-0.44072 -0.29601,-0.89937 -0.46593,-1.34209 -0.15964,-0.45605 -0.31576,-0.9132 -0.51258,-1.35503 -0.2004,-0.47034 -0.37229,-0.95315 -0.53441,-1.43769 -0.16336,-0.51056 -0.28479,-1.03204 -0.42705,-1.54865 -0.10821,-0.52805 -0.19533,-1.05974 -0.31811,-1.58481 -0.0797,-0.52426 -0.16505,-1.04653 -0.22121,-1.57411 -0.0838,-0.55592 -0.10832,-1.11611 -0.18045,-1.67359 -0.0678,-0.54745 -0.0818,-1.09628 -0.12778,-1.64575 -0.0581,-0.55561 -0.14482,-1.11008 -0.10174,-1.6706 0.0179,-0.57343 0.0485,-1.14672 0.12872,-1.71537 0.0771,-0.59169 0.0934,-1.18717 0.17308,-1.77862 0.0927,-0.57481 0.19616,-1.14763 0.28753,-1.72264 0.10244,-0.59031 0.18063,-1.18521 0.27963,-1.77613 0.097,-0.55592 0.20098,-1.11156 0.33159,-1.66042 0.14761,-0.5446 0.27437,-1.09524 0.4444,-1.63365 0.17175,-0.52957 0.32679,-1.06429 0.4828,-1.59865 0.17216,-0.52399 0.35471,-1.04468 0.54513,-1.56229 0.19121,-0.53737 0.44553,-1.05097 0.66246,-1.5783 0.22104,-0.48223 0.43332,-0.97013 0.69783,-1.43056 0.24501,-0.41305 0.45253,-0.84704 0.71444,-1.25049 0.25568,-0.37742 0.5171,-0.7513 0.79517,-1.11262 0.21805,-0.30159 0.42261,-0.61227 0.64697,-0.90939 0.21086,-0.25828 0.41017,-0.52145 0.6746,-0.73046 0.36867,-0.30546 0.72909,-0.62048 1.11573,-0.90387 0,0 0.18622,0.0184 0.18622,0.0184 z"
       inkscape:connector-curvature="0" />
    <path
       style="opacity:1;fill:#000000;fill-opacity:1;fill-rule:nonzero;stroke:#f81786;stroke-width:1;stroke-linecap:round;stroke-linejoin:round;stroke-miterlimit:4;stroke-dasharray:none;stroke-dashoffset:0;stroke-opacity:1;paint-order:markers fill stroke"
       id="path4523"
       d="m 137.98105,173.09243 c 0.26128,-0.21601 0.57596,-0.50862 0.93768,-0.52951 0.10922,-0.006 0.21867,0.007 0.32801,0.0107 0.2883,0.13487 0.25801,0.41535 0.12808,0.65684 -0.25486,0.30348 -0.63264,0.33876 -1.00242,0.24792 -0.34696,-0.14073 -0.59693,-0.42565 -0.71831,-0.77525 -0.0668,-0.29909 0.0425,-0.54003 0.2986,-0.69502 0.30763,-0.20757 0.69173,-0.1676 1.03971,-0.099 0.33369,0.0991 0.57749,0.28559 0.75909,0.57944 0.14963,0.30702 0.1969,0.63324 0.0851,0.95768 -0.1601,0.3243 -0.47663,0.42689 -0.80784,0.49251 -0.45212,0.0836 -0.75148,0.003 -1.11987,-0.23152 -0.28245,-0.20686 -0.35255,-0.52429 -0.39668,-0.85197 -0.0447,-0.35661 0.0411,-0.70435 0.21764,-1.01331 0.19778,-0.26553 0.40542,-0.37128 0.72994,-0.38817 0.38597,-0.0102 0.66546,0.12614 0.93573,0.38478 0.229,0.26894 0.33242,0.59468 0.262,0.94086 -0.0696,0.33159 -0.32752,0.48215 -0.60145,0.63563 -0.33252,0.14846 -0.73662,0.11011 -1.05194,-0.0651 -0.30462,-0.19926 -0.40664,-0.52203 -0.47074,-0.86159 -0.0192,-0.30259 0.0622,-0.57502 0.32808,-0.73822 0.34408,-0.13019 0.6332,-0.0233 0.86331,0.23017 0.21106,0.21782 0.37836,0.48279 0.50545,0.75783 0.0674,0.29046 -0.0237,0.56041 -0.30846,0.6692 -0.39522,0.0406 -0.62494,-0.0489 -0.77158,-0.41674 -0.098,-0.31371 -0.10799,-0.59368 0.17795,-0.79213 0.28211,-0.0961 0.59609,-0.0235 0.68801,0.27127 -0.007,0.24321 -0.14504,0.39311 -0.37926,0.43208 -0.25874,5e-5 -0.35739,0.01 -0.4043,-0.22459 0,0 0.18788,-0.004 0.18788,-0.004 v 0 c 0.0358,0.16722 0.18325,0.17823 0.0306,0.2017 0.22826,-0.0275 0.36765,-0.16172 0.37732,-0.39952 -0.0357,-0.10795 -0.0736,-0.17231 -0.17957,-0.2281 -0.0331,-0.0174 -0.0928,-0.003 -0.10534,-0.0386 -0.01,-0.0273 0.11265,-0.0268 0.0847,-0.0191 -0.0375,0.0104 -0.0757,0.018 -0.11349,0.0271 -0.28788,0.18594 -0.27408,0.46009 -0.17734,0.7666 0.0702,0.17157 0.14796,0.32055 0.33935,0.37693 0.0408,0.012 0.0866,0.004 0.12608,0.0205 0.0207,0.008 -0.0448,0.002 -0.0671,0.004 0.28282,-0.0945 0.3745,-0.35425 0.30749,-0.63809 -0.12785,-0.27308 -0.29425,-0.53589 -0.50512,-0.75205 -0.19715,-0.21025 -0.38193,-0.29383 -0.48991,-0.22465 -0.26723,0.15054 -0.3457,0.41976 -0.32782,0.71526 0.064,0.33533 0.16583,0.65243 0.47011,0.84501 0.086,0.0455 0.19062,0.0546 0.27014,0.11067 0.0134,0.009 -0.0549,0.0262 -0.039,0.0302 0.14459,0.0365 0.31865,-0.019 0.44824,-0.0756 0.27071,-0.14873 0.53052,-0.29327 0.60061,-0.61955 0.0715,-0.33987 -0.0344,-0.66011 -0.26154,-0.92186 -0.13891,-0.13051 -0.28432,-0.24598 -0.46652,-0.31196 -0.0457,-0.0166 -0.0998,-0.011 -0.14128,-0.0363 -0.0141,-0.009 0.0292,-0.0155 0.0438,-0.0232 -0.35202,0.0135 -0.50293,0.0933 -0.72806,0.36952 -0.17772,0.30392 -0.26191,0.6485 -0.2176,1.00099 0.044,0.32347 0.11402,0.63485 0.3959,0.83568 0.25185,0.15873 0.49704,0.2835 0.74849,0.22461 0.3265,-0.0614 0.64387,-0.15535 0.80575,-0.4731 0.11328,-0.31826 0.0638,-0.64003 -0.0847,-0.94094 -0.18198,-0.28862 -0.42659,-0.4708 -0.75755,-0.56416 -0.0562,-0.0107 -0.1147,-0.0126 -0.16848,-0.032 -0.0101,-0.004 0.0364,-0.0185 0.0257,-0.0194 -0.18326,-0.015 -0.37622,0.041 -0.52524,0.14407 -0.25463,0.14456 -0.36426,0.3764 -0.29798,0.66925 0.12153,0.34457 0.37146,0.62417 0.71681,0.75649 0.20744,0.0454 0.40627,0.0199 0.62977,-0.23225 0.12812,-0.22958 0.16045,-0.50239 -0.12626,-0.61969 0.0142,-0.004 0.0571,-0.0158 0.0425,-0.0132 -0.0587,0.0102 -0.11825,0.0181 -0.17499,0.0363 -0.21088,0.0674 -0.41066,0.1909 -0.5832,0.32718 -0.0618,0.0488 -0.11876,0.10363 -0.17814,0.15544 0,0 -0.18658,-0.0147 -0.18658,-0.0147 z"
       inkscape:connector-curvature="0" />
    <path
       style="opacity:1;fill:#000000;fill-opacity:1;fill-rule:nonzero;stroke:#000000;stroke-width:1;stroke-linecap:round;stroke-linejoin:round;stroke-miterlimit:4;stroke-dasharray:none;stroke-dashoffset:0;stroke-opacity:1;paint-order:markers fill stroke"
       id="path4527"
       d="m 143.53555,167.7014 c -0.0274,0.54887 0.0575,1.09195 0.11315,1.63624 0.047,0.45643 0.0645,0.91496 0.0731,1.37348 0.0423,0.0122 0.0375,1.03483 -0.26888,0.29097 -0.0959,-0.33961 -0.0927,-0.69723 -0.10097,-1.04726 -0.007,-0.4571 -0.005,-0.91428 -0.005,-1.37141 -0.0259,-0.40509 0.0204,-0.79942 0.0867,-1.19756 0.0487,-0.35639 0.0829,-0.7214 0.26472,-1.03853 0.25338,-0.25386 0.58916,-0.0267 0.78989,0.17248 0.23466,0.29825 0.42214,0.63073 0.56753,0.98056 0.19269,0.35578 0.25675,0.75161 0.35502,1.13768 0.10632,0.35624 0.1505,0.72417 0.18549,1.09277 -0.16378,-0.0453 0.11978,0.16569 0.0684,0.14795 -0.035,-0.0121 -0.0924,-0.0274 -0.0906,-0.0643 0.002,-0.0462 0.0691,-0.062 0.0985,-0.0977 0.0856,-0.10381 0.10142,-0.15696 0.1595,-0.27882 0.16799,-0.31584 0.3186,-0.64011 0.50594,-0.94521 0.21129,-0.37375 0.43593,-0.73909 0.65573,-1.10773 0.0382,-0.0769 0.35104,-0.6827 0.40493,-0.68188 0.0827,0.001 0.1604,0.0401 0.24061,0.0601 0.1061,0.31555 -0.006,0.65646 -0.0496,0.97633 -0.0498,0.42615 -0.16001,0.84128 -0.2191,1.26646 -0.0239,0.43335 -0.0744,0.86016 -0.1425,1.28867 -0.0643,0.39143 -0.0854,0.78757 -0.0972,1.18347 -0.004,0.24546 -0.0114,0.12707 0.0173,0.35533 0,0 -0.18705,0.002 -0.18705,0.002 v 0 c -0.0282,-0.231 -0.0216,-0.11165 -0.017,-0.35819 0.0118,-0.3967 0.033,-0.79364 0.0975,-1.18586 0.0682,-0.42839 0.11893,-0.855 0.14234,-1.2883 0.0591,-0.4252 0.16939,-0.84029 0.21929,-1.26641 0.0426,-0.31333 0.15514,-0.652 0.0484,-0.96011 0.0448,-0.0196 0.0858,-0.0541 0.13448,-0.0588 0.025,-0.002 -0.0398,0.0314 -0.0552,0.0511 -0.14599,0.18746 -0.2314,0.42258 -0.35101,0.62569 -0.2194,0.36892 -0.44499,0.73377 -0.65555,1.10801 -0.18764,0.3042 -0.33715,0.62821 -0.50544,0.94317 -0.0876,0.18729 -0.46655,0.79592 -0.61011,0.28638 -0.0336,-0.36779 -0.0792,-0.73451 -0.18486,-1.08987 -0.0976,-0.38539 -0.16287,-0.77987 -0.35488,-1.13495 -0.14537,-0.34739 -0.33165,-0.67859 -0.56765,-0.97307 -0.0674,-0.0656 -0.12813,-0.13296 -0.20943,-0.18211 -0.0345,-0.0208 -0.0732,-0.0337 -0.10984,-0.0506 0.0286,-0.01 0.10865,-0.009 0.0859,-0.0293 -0.0549,-0.0483 -0.1601,0.0654 -0.18265,0.0846 -0.18556,0.31291 -0.21564,0.67795 -0.26521,1.03172 -0.0662,0.39715 -0.11284,0.79038 -0.087,1.1945 -7.9e-4,0.45698 -0.003,0.914 0.005,1.37094 0.008,0.34766 0.005,0.70333 0.10211,1.04022 0.0558,0.1296 0.0787,0.0974 -0.10266,0.16328 -0.0319,0.0116 2.6e-4,-0.0678 1.9e-4,-0.10168 -5.3e-4,-0.16218 -0.001,-0.167 -0.003,-0.34474 -0.008,-0.45799 -0.0255,-0.916 -0.0722,-1.37194 -0.0555,-0.54496 -0.13979,-1.0886 -0.11453,-1.63812 0,0 0.18718,0 0.18718,0 z"
       inkscape:connector-curvature="0" />
    <path
       style="opacity:1;fill:#000000;fill-opacity:1;fill-rule:nonzero;stroke:#000000;stroke-width:1;stroke-linecap:round;stroke-linejoin:round;stroke-miterlimit:4;stroke-dasharray:none;stroke-dashoffset:0;stroke-opacity:1;paint-order:markers fill stroke"
       id="path4531"
       d="m 148.99358,171.48249 c -0.0325,0.48455 0.0614,0.98183 0.33646,1.38626 0.1581,0.16957 0.35571,0.26667 0.58747,0.27536 0.013,5.3e-4 -0.0498,-0.004 -0.0379,-0.009 0.0479,-0.0206 0.10088,-0.0266 0.15133,-0.0399 0.32073,-0.13948 0.57732,-0.37645 0.73675,-0.68575 0.15817,-0.35336 0.084,-0.68813 -0.0774,-1.02348 -0.13057,-0.2898 -0.3678,-0.50702 -0.64357,-0.65696 -0.27385,-0.12303 -0.45709,-0.047 -0.70132,0.14459 -0.16947,0.1712 -0.0905,0.0796 -0.23631,0.27518 0,0 -0.18649,-0.0119 -0.18649,-0.0119 v 0 c 0.14584,-0.19888 0.0668,-0.10569 0.23644,-0.28004 0.30537,-0.24866 0.70521,-0.30573 1.07392,-0.14775 0.27619,0.15573 0.51325,0.37504 0.64405,0.66855 0.16137,0.34127 0.23643,0.68159 0.0776,1.04063 -0.15909,0.31437 -0.41609,0.55435 -0.73804,0.70121 -0.39452,0.11387 -0.7865,0.0676 -1.07288,-0.23994 -0.27309,-0.41089 -0.36836,-0.91062 -0.3372,-1.39997 0,0 0.18714,0.003 0.18714,0.003 z"
       inkscape:connector-curvature="0" />
    <path
       style="opacity:1;fill:#000000;fill-opacity:1;fill-rule:nonzero;stroke:#000000;stroke-width:1;stroke-linecap:round;stroke-linejoin:round;stroke-miterlimit:4;stroke-dasharray:none;stroke-dashoffset:0;stroke-opacity:1;paint-order:markers fill stroke"
       id="path4543"
       d="m 193.91903,199.82359 c 0.40993,0.60391 0.91759,1.12244 1.48209,1.58098 0.59186,0.46997 1.23576,0.87439 1.90437,1.22532 0.53346,0.28724 1.09522,0.51673 1.65647,0.74297 0.29825,0.10361 0.15032,0.0575 0.44349,0.13942 0,0 -0.18487,0.0241 -0.18487,0.0241 v 0 c -0.29306,-0.0835 -0.14519,-0.0367 -0.44331,-0.14148 -0.56085,-0.22724 -1.12257,-0.45663 -1.65549,-0.74496 -0.66826,-0.35317 -1.31299,-0.75722 -1.90447,-1.22899 -0.56484,-0.46087 -1.0721,-0.98179 -1.48469,-1.58576 0,0 0.18641,-0.0116 0.18641,-0.0116 z"
       inkscape:connector-curvature="0" />
    <path
       style="opacity:1;fill:#000000;fill-opacity:1;fill-rule:nonzero;stroke:#000000;stroke-width:1;stroke-linecap:round;stroke-linejoin:round;stroke-miterlimit:4;stroke-dasharray:none;stroke-dashoffset:0;stroke-opacity:1;paint-order:markers fill stroke"
       id="path4545"
       d="m 198.41773,198.86832 c -0.42347,0.55511 -0.86485,1.09588 -1.29415,1.64643 -0.45992,0.51093 -0.9169,1.02432 -1.41324,1.50041 -0.43428,0.40378 -0.8671,0.80904 -1.29357,1.22107 -0.065,0.0561 -0.13007,0.11227 -0.19511,0.1684 0,0 -0.18535,-0.016 -0.18535,-0.016 v 0 c 0.0651,-0.0558 0.13015,-0.11154 0.19523,-0.16731 0.42656,-0.41218 0.85945,-0.8176 1.29424,-1.22109 0.49648,-0.47513 0.95274,-0.98815 1.41331,-1.49773 0.42929,-0.55026 0.87129,-1.0903 1.29212,-1.64717 0,0 0.18652,0.013 0.18652,0.013 z"
       inkscape:connector-curvature="0" />
    <path
       style="opacity:1;fill:#000000;fill-opacity:1;fill-rule:nonzero;stroke:#000000;stroke-width:1;stroke-linecap:round;stroke-linejoin:round;stroke-miterlimit:4;stroke-dasharray:none;stroke-dashoffset:0;stroke-opacity:1;paint-order:markers fill stroke"
       id="path4547"
       d="m 125.36099,139.20423 c 0.55197,0.0489 1.07094,0.21918 1.50704,0.5628 0.30708,0.29367 0.38008,0.68251 0.41485,1.08725 0.0465,0.38653 -0.0474,0.76291 -0.10785,1.14178 -0.0485,0.38712 -0.15461,0.76452 -0.26957,1.13645 -0.10716,0.36715 -0.17966,0.74761 -0.15595,1.13054 0.0254,0.33138 0.16775,0.62926 0.37659,0.88295 0.21662,0.20823 0.47586,0.33986 0.74845,0.45878 0.34144,0.13433 0.70789,0.16267 1.07049,0.18201 0.25019,0.0128 0.53106,-0.0844 0.8139,-0.17723 0.22689,-0.0951 0.11869,-0.0395 0.32503,-0.16598 0,0 0.18595,0.0189 0.18595,0.0189 v 0 c -0.20649,0.13016 -0.0981,0.0731 -0.32546,0.17042 -0.38528,0.12704 -0.77197,0.22537 -1.18412,0.18208 -0.36341,-0.0205 -0.73043,-0.051 -1.07161,-0.18864 -0.27355,-0.12115 -0.53444,-0.25461 -0.74954,-0.46759 -0.20817,-0.2589 -0.35157,-0.55917 -0.3765,-0.89458 -0.0235,-0.38519 0.0483,-0.76789 0.15613,-1.13729 0.11474,-0.37107 0.2212,-0.7475 0.26944,-1.1338 0.0601,-0.3774 0.15423,-0.7522 0.1078,-1.13722 -0.0346,-0.40025 -0.10691,-0.78395 -0.41347,-1.07199 -0.43776,-0.33936 -0.95646,-0.50449 -1.50685,-0.55302 0,0 0.18525,-0.0266 0.18525,-0.0266 z"
       inkscape:connector-curvature="0" />
    <path
       style="opacity:1;fill:#000000;fill-opacity:1;fill-rule:nonzero;stroke:#000000;stroke-width:1;stroke-linecap:round;stroke-linejoin:round;stroke-miterlimit:4;stroke-dasharray:none;stroke-dashoffset:0;stroke-opacity:1;paint-order:markers fill stroke"
       id="path4549"
       d="m 124.79417,141.30697 c 0.56595,0.17771 1.1429,0.30981 1.71897,0.44952 0.59654,0.15221 1.2089,0.20635 1.82154,0.24017 0.29813,0.028 0.59352,-0.0272 0.88906,-0.0634 0,0 0.18422,0.0269 0.18422,0.0269 v 0 c -0.41681,0.0516 -0.83605,0.10039 -1.25685,0.0646 -0.61285,-0.0348 -1.22522,-0.0906 -1.82183,-0.24353 -0.57684,-0.13907 -1.15358,-0.2742 -1.72065,-0.45008 0,0 0.18554,-0.0241 0.18554,-0.0241 z"
       inkscape:connector-curvature="0" />
    <path
       style="opacity:1;fill:#000000;fill-opacity:1;fill-rule:nonzero;stroke:#000000;stroke-width:1;stroke-linecap:round;stroke-linejoin:round;stroke-miterlimit:4;stroke-dasharray:none;stroke-dashoffset:0;stroke-opacity:1;paint-order:markers fill stroke"
       id="path4551"
       d="m 156.48512,165.9834 c -0.41537,0.57625 -0.71638,1.21132 -0.98159,1.86687 -0.29796,0.77354 -0.45995,1.58193 -0.55604,2.40218 -0.0907,0.77574 -0.0786,1.5512 0.0291,2.32342 0.11739,0.64584 0.33843,1.25134 0.67692,1.81194 0.27344,0.38539 0.60314,0.75101 0.98661,1.03048 0.25725,0.20743 0.53112,0.29923 0.85586,0.31229 0,0 -0.18476,0.0284 -0.18476,0.0284 v 0 c -0.32502,-0.0176 -0.59998,-0.11608 -0.85705,-0.3232 -0.38237,-0.28398 -0.71372,-0.64907 -0.98602,-1.03789 -0.33805,-0.56334 -0.55925,-1.17132 -0.67614,-1.81943 -0.1076,-0.77381 -0.11985,-1.55084 -0.0288,-2.32813 0.0963,-0.82179 0.25834,-1.63183 0.55603,-2.40711 0.26505,-0.65645 0.56559,-1.29241 0.97914,-1.87079 0,0 0.1868,0.011 0.1868,0.011 z"
       inkscape:connector-curvature="0" />
    <path
       style="opacity:1;fill:#000000;fill-opacity:1;fill-rule:nonzero;stroke:#000000;stroke-width:1;stroke-linecap:round;stroke-linejoin:round;stroke-miterlimit:4;stroke-dasharray:none;stroke-dashoffset:0;stroke-opacity:1;paint-order:markers fill stroke"
       id="path4553"
       d="m 159.28923,168.26458 c 0.28119,0.61463 0.55692,1.23298 0.88805,1.82275 0.30235,0.48142 0.65275,0.93213 1.00187,1.38054 0.25385,0.33314 0.52675,0.65011 0.79226,0.97356 0.14277,0.14477 0.0746,0.0709 0.20484,0.22126 0,0 -0.18682,0.0134 -0.18682,0.0134 v 0 c -0.13049,-0.1494 -0.0624,-0.0754 -0.20466,-0.22179 -0.26622,-0.32285 -0.53664,-0.64174 -0.7913,-0.97414 -0.34902,-0.44925 -0.69988,-0.90046 -1.00106,-1.38338 -0.33064,-0.59103 -0.60623,-1.21024 -0.89005,-1.82463 0,0 0.18687,-0.008 0.18687,-0.008 z"
       inkscape:connector-curvature="0" />
    <path
       style="opacity:1;fill:#000000;fill-opacity:1;fill-rule:nonzero;stroke:#000000;stroke-width:1;stroke-linecap:round;stroke-linejoin:round;stroke-miterlimit:4;stroke-dasharray:none;stroke-dashoffset:0;stroke-opacity:1;paint-order:markers fill stroke"
       id="path4555"
       d="m 161.42145,168.27215 c -0.25499,0.53828 -0.50736,1.07754 -0.78113,1.60662 -0.2163,0.48227 -0.4974,0.93052 -0.74753,1.39505 -0.1716,0.31742 -0.37358,0.61567 -0.574,0.91502 0,0 -0.18648,-0.011 -0.18648,-0.011 v 0 c 0.20007,-0.29905 0.40308,-0.59604 0.5744,-0.9132 0.24988,-0.46468 0.53221,-0.91228 0.74829,-1.39471 0.2735,-0.52854 0.52675,-1.06669 0.77958,-1.60533 0,0 0.18687,0.008 0.18687,0.008 z"
       inkscape:connector-curvature="0" />
    <path
       style="opacity:1;fill:#000000;fill-opacity:1;fill-rule:nonzero;stroke:#000000;stroke-width:1;stroke-linecap:round;stroke-linejoin:round;stroke-miterlimit:4;stroke-dasharray:none;stroke-dashoffset:0;stroke-opacity:1;paint-order:markers fill stroke"
       id="path4559"
       d="m 163.92364,171.86047 c -0.0752,0.50916 -0.082,1.03454 0.15344,1.50131 0.21409,0.28844 0.41437,0.32448 0.63943,0.26971 0.27379,-0.0747 0.45845,-0.29159 0.59201,-0.53136 0.12577,-0.31143 0.1583,-0.65431 0.1284,-0.98653 -0.0335,-0.35065 -0.1821,-0.64544 -0.44093,-0.87954 -0.17704,-0.12293 -0.42364,-0.18611 -0.64092,-0.14719 -0.0124,0.002 0.0369,0.0217 0.0258,0.0276 -0.047,0.0248 -0.1028,0.0269 -0.15421,0.0403 -0.15436,0.0525 -0.26366,0.1539 -0.37466,0.26747 0,0 -0.18659,-0.0143 -0.18659,-0.0143 v 0 c 0.11093,-0.11671 0.22047,-0.2211 0.3757,-0.27759 0.37053,-0.10031 0.81179,-0.13942 1.14134,0.0882 0.25846,0.24002 0.4078,0.53878 0.44135,0.89336 0.0299,0.33597 -0.003,0.68205 -0.12814,0.99762 -0.13242,0.24298 -0.3187,0.46719 -0.59335,0.54656 -0.39298,0.10774 -0.76724,0.0539 -1.01156,-0.28571 -0.23283,-0.47181 -0.22833,-0.9993 -0.15424,-1.51259 0,0 0.18714,0.003 0.18714,0.003 z"
       inkscape:connector-curvature="0" />
    <path
       style="opacity:1;fill:#000000;fill-opacity:1;fill-rule:nonzero;stroke:#000000;stroke-width:1;stroke-linecap:round;stroke-linejoin:round;stroke-miterlimit:4;stroke-dasharray:none;stroke-dashoffset:0;stroke-opacity:1;paint-order:markers fill stroke"
       id="path4561"
       d="m 168.104,172.61509 c -0.0353,0.49266 -0.12827,0.98359 -0.29151,1.45009 -0.0705,0.21815 -0.1628,0.42434 -0.26257,0.63016 0,0 -0.18704,-0.008 -0.18704,-0.008 v 0 c 0.0997,-0.20527 0.19295,-0.41024 0.26309,-0.62803 0.16458,-0.46375 0.25703,-0.95321 0.29086,-1.44376 0,0 0.18717,0 0.18717,0 z"
       inkscape:connector-curvature="0" />
    <path
       style="opacity:1;fill:#000000;fill-opacity:1;fill-rule:nonzero;stroke:#000000;stroke-width:1;stroke-linecap:round;stroke-linejoin:round;stroke-miterlimit:4;stroke-dasharray:none;stroke-dashoffset:0;stroke-opacity:1;paint-order:markers fill stroke"
       id="path4565"
       d="m 170.34924,168.83666 c -0.0237,0.45976 -0.0202,0.91864 0.0632,1.3718 0.0398,0.3458 0.20945,0.62514 0.41187,0.89671 0.22651,0.25792 0.51644,0.39545 0.85268,0.43112 0.31815,0.0234 0.61227,-0.21003 0.87379,-0.40857 0.25205,-0.21974 0.40919,-0.52852 0.53151,-0.8356 0.0953,-0.32009 0.14001,-0.66152 0.10328,-0.99405 -0.0387,-0.3466 -0.14413,-0.66324 -0.28197,-0.98079 -0.15783,-0.33976 -0.33847,-0.66296 -0.58938,-0.9422 -0.19349,-0.25095 -0.44353,-0.46031 -0.72314,-0.6089 -0.25204,-0.18159 -0.53091,-0.28548 -0.84139,-0.28494 0.004,0.0119 0.0231,0.0287 0.0126,0.0356 -0.0536,0.0353 -0.1214,0.0434 -0.17812,0.0735 -0.24151,0.12826 -0.40846,0.33095 -0.55258,0.5562 -0.17282,0.34393 -0.23269,0.73003 -0.20492,1.11117 0.009,0.0633 0.0179,0.12664 0.0268,0.18996 0,0 -0.18677,0.003 -0.18677,0.003 v 0 c -0.009,-0.0637 -0.0179,-0.12749 -0.0269,-0.19123 -0.0276,-0.3851 0.0323,-0.77484 0.2053,-1.12308 0.25849,-0.40982 0.58365,-0.6795 1.08934,-0.68383 0.31143,0.007 0.58902,0.11299 0.84276,0.29391 0.27907,0.15309 0.52895,0.36284 0.72345,0.61538 0.25043,0.28164 0.43109,0.6071 0.58951,0.94818 0.13853,0.31918 0.24339,0.63821 0.28246,0.98642 0.036,0.33567 -0.008,0.67979 -0.10333,1.00313 -0.12218,0.31008 -0.28108,0.62186 -0.53266,0.84571 -0.38452,0.29268 -0.73344,0.49083 -1.24475,0.41856 -0.3375,-0.0411 -0.62936,-0.18515 -0.85442,-0.44631 -0.20381,-0.27369 -0.37115,-0.55775 -0.41177,-0.9053 -0.0829,-0.45524 -0.0856,-0.91609 -0.0637,-1.37784 0,0 0.18714,0.003 0.18714,0.003 z"
       inkscape:connector-curvature="0" />
    <path
       style="opacity:1;fill:#000000;fill-opacity:1;fill-rule:nonzero;stroke:#000000;stroke-width:1;stroke-linecap:round;stroke-linejoin:round;stroke-miterlimit:4;stroke-dasharray:none;stroke-dashoffset:0;stroke-opacity:1;paint-order:markers fill stroke"
       id="path4567"
       d="m 176.41948,171.29218 c -0.001,0.52779 -8e-4,1.05558 -5.3e-4,1.58336 -0.0292,0.27254 -0.011,0.14014 -0.0535,0.39735 0,0 -0.18679,-0.003 -0.18679,-0.003 v 0 c 0.0428,-0.25548 0.0244,-0.12411 0.0541,-0.39427 1.9e-4,-0.52779 5.3e-4,-1.05558 -5.3e-4,-1.58337 0,0 0.18718,0 0.18718,0 z"
       inkscape:connector-curvature="0" />
    <path
       style="opacity:1;fill:#000000;fill-opacity:1;fill-rule:nonzero;stroke:#000000;stroke-width:1;stroke-linecap:round;stroke-linejoin:round;stroke-miterlimit:4;stroke-dasharray:none;stroke-dashoffset:0;stroke-opacity:1;paint-order:markers fill stroke"
       id="path4569"
       d="m 179.03342,166.96155 c 0.44527,0.0174 0.79324,0.19277 1.01673,0.57721 0.1488,0.34616 0.15132,0.72662 0.1577,1.09694 0.0104,0.34047 -0.0937,0.6698 -0.14275,1.0047 -0.0148,0.33955 -0.0673,0.66731 -0.14007,0.99836 -0.0731,0.28318 -0.0168,0.54578 0.1468,0.78286 0.22838,0.22006 0.55386,0.23551 0.85366,0.25733 0.3061,0.0107 0.61259,0.0301 0.91675,-0.0102 0.26291,-0.0573 0.5325,-0.0765 0.77051,-0.20819 0,0 0.18629,0.0197 0.18629,0.0197 v 0 c -0.23684,0.13866 -0.50706,0.15632 -0.77166,0.2152 -0.42404,0.0623 -0.85958,0.0138 -1.28677,0.0114 -0.30356,-0.0237 -0.6307,-0.0436 -0.85598,-0.27402 -0.16237,-0.24323 -0.22093,-0.50996 -0.14673,-0.79807 0.0726,-0.33068 0.12617,-0.65774 0.14016,-0.99703 0.0487,-0.33399 0.15268,-0.66229 0.14297,-1.00166 -0.006,-0.36712 -0.008,-0.74478 -0.15755,-1.08734 -0.22492,-0.3787 -0.57515,-0.54422 -1.01494,-0.55785 0,0 0.18488,-0.0293 0.18488,-0.0293 z"
       inkscape:connector-curvature="0" />
    <path
       style="opacity:1;fill:#000000;fill-opacity:1;fill-rule:nonzero;stroke:#000000;stroke-width:1;stroke-linecap:round;stroke-linejoin:round;stroke-miterlimit:4;stroke-dasharray:none;stroke-dashoffset:0;stroke-opacity:1;paint-order:markers fill stroke"
       id="path4571"
       d="m 178.46664,169.06434 c 0.52497,0.0743 1.05352,0.11673 1.58276,0.14437 0.21942,0.0106 0.43907,0.0146 0.65869,0.0184 0,0 -0.18436,0.0289 -0.18436,0.0289 v 0 c -0.21951,-0.004 -0.43905,-0.008 -0.65836,-0.0191 -0.52966,-0.0283 -1.05856,-0.0717 -1.58398,-0.14587 0,0 0.18525,-0.0267 0.18525,-0.0267 z"
       inkscape:connector-curvature="0" />
    <path
       style="opacity:1;fill:#000000;fill-opacity:1;fill-rule:nonzero;stroke:#000000;stroke-width:1;stroke-linecap:round;stroke-linejoin:round;stroke-miterlimit:4;stroke-dasharray:none;stroke-dashoffset:0;stroke-opacity:1;paint-order:markers fill stroke"
       id="path4573"
       d="m 184.75754,169.77894 c 0.0365,0.47244 0.17231,0.90383 0.42118,1.30316 0.24016,0.2734 0.24038,0.27788 0.51594,0.1597 0.29506,-0.18381 0.5018,-0.47869 0.59461,-0.81074 0.0684,-0.35834 -0.14568,-0.59952 -0.42863,-0.78123 -0.29038,-0.14678 -0.57618,-0.18633 -0.84094,-0.14952 -0.16677,0.0325 -0.30583,0.11731 -0.44268,0.21229 0,0 -0.18642,-0.0179 -0.18642,-0.0179 v 0 c 0.1369,-0.0977 0.27618,-0.18519 0.44385,-0.22101 0.41504,-0.0622 0.83353,-0.0338 1.21227,0.15763 0.28624,0.19008 0.49863,0.43997 0.42964,0.80482 -0.0929,0.33685 -0.30009,0.63573 -0.59554,0.8272 -0.32299,0.1489 -0.67971,0.14884 -0.88865,-0.17086 -0.2487,-0.40193 -0.38222,-0.83719 -0.42177,-1.31088 0,0 0.18714,-0.003 0.18714,-0.003 z"
       inkscape:connector-curvature="0" />
    <path
       style="opacity:1;fill:#000000;fill-opacity:1;fill-rule:nonzero;stroke:#000000;stroke-width:1;stroke-linecap:round;stroke-linejoin:round;stroke-miterlimit:4;stroke-dasharray:none;stroke-dashoffset:0;stroke-opacity:1;paint-order:markers fill stroke"
       id="path4575"
       d="m 188.22698,165.02747 c 0.29223,0.46984 0.55599,0.95588 0.82507,1.43902 0.24908,0.4227 0.41366,0.88162 0.57506,1.34267 0.14994,0.47752 0.18247,0.97679 0.20227,1.47341 -0.03,0.5576 -0.10309,1.11077 -0.19827,1.66049 -0.0779,0.52739 -0.22417,1.04334 -0.40549,1.5439 -0.14328,0.44408 -0.36006,0.85422 -0.58387,1.2611 -0.10861,0.20312 -0.24436,0.3886 -0.38075,0.57336 0,0 -0.18591,-0.0119 -0.18591,-0.0119 v 0 c 0.13629,-0.1839 0.27201,-0.36849 0.38046,-0.57087 0.22329,-0.40618 0.4412,-0.81481 0.58414,-1.25821 0.18172,-0.49927 0.32752,-1.0144 0.40578,-1.5406 0.0948,-0.54847 0.168,-1.10024 0.19795,-1.65656 -0.0201,-0.49476 -0.0523,-0.99234 -0.20251,-1.46789 -0.16115,-0.46005 -0.326,-0.91769 -0.57456,-1.3395 -0.26853,-0.48314 -0.53189,-0.96917 -0.82617,-1.43747 0,0 0.1868,-0.011 0.1868,-0.011 z"
       inkscape:connector-curvature="0" />
    <path
       style="opacity:1;fill:#000000;fill-opacity:1;fill-rule:nonzero;stroke:#000000;stroke-width:1;stroke-linecap:round;stroke-linejoin:round;stroke-miterlimit:4;stroke-dasharray:none;stroke-dashoffset:0;stroke-opacity:1;paint-order:markers fill stroke"
       id="path4627"
       d="m 112.28454,198.69923 c -0.20734,0.47403 -0.28275,0.98391 -0.19041,1.49234 0.10281,0.37932 0.36568,0.63112 0.65749,0.86964 0.23972,0.20423 0.47777,0.1927 0.72221,0.14644 0.39299,-0.0691 0.71438,-0.29013 1.00396,-0.5528 0.24286,-0.27461 0.40748,-0.59033 0.44033,-0.95656 0.009,-0.3416 -0.0763,-0.67521 -0.21768,-0.98426 -0.17829,-0.33292 -0.48525,-0.52221 -0.81029,-0.69009 -0.29243,-0.1377 -0.62738,-0.18959 -0.93337,-0.1992 -0.38643,0.0193 -0.65779,0.20525 -0.83798,0.53843 0,0 -0.18681,-0.009 -0.18681,-0.009 v 0 c 0.17886,-0.33779 0.44866,-0.53531 0.84011,-0.55736 0.44898,-0.0132 0.8903,0.01 1.3037,0.207 0.3269,0.17156 0.6343,0.36512 0.81172,0.70245 0.14048,0.31301 0.22718,0.64878 0.21751,0.99388 -0.0328,0.37087 -0.19713,0.69045 -0.44098,0.97042 -0.28872,0.26556 -0.61134,0.49081 -1.00503,0.56292 -0.38013,0.0782 -0.77755,0.0931 -1.09383,-0.15552 -0.29478,-0.24068 -0.55471,-0.50112 -0.65753,-0.88287 -0.0915,-0.51192 -0.0163,-1.02514 0.19002,-1.50323 0,0 0.18686,0.008 0.18686,0.008 z"
       inkscape:connector-curvature="0" />
    <path
       style="opacity:1;fill:none;fill-opacity:1;fill-rule:nonzero;stroke:#f81786;stroke-width:0.2;stroke-linecap:round;stroke-linejoin:round;stroke-miterlimit:4;stroke-dasharray:none;stroke-dashoffset:0;stroke-opacity:1;paint-order:markers fill stroke"
       id="path4877"
       d="m 114.31806,171.63228 c -0.34256,0.37767 -0.69101,0.75051 -1.00237,1.15493 -0.29585,0.37918 -0.57786,0.76817 -0.86627,1.15292 -0.29362,0.39359 -0.51713,0.8303 -0.77265,1.24776 -0.26253,0.42465 -0.50159,0.86193 -0.7553,1.29176 -0.30821,0.44622 -0.52759,0.94374 -0.77352,1.42477 -0.25406,0.47969 -0.43852,0.98844 -0.6027,1.50437 -0.1515,0.56963 -0.2734,1.14584 -0.4006,1.72115 -0.11565,0.60874 -0.24903,1.21401 -0.37597,1.82055 -0.0959,0.59507 -0.22055,1.18523 -0.30043,1.78291 -0.1138,0.61139 -0.19032,1.22787 -0.29387,1.84088 -0.0989,0.62636 -0.13091,1.25898 -0.2132,1.88737 -0.0833,0.60856 -0.11635,1.2218 -0.13491,1.83521 -0.013,0.57189 -0.012,1.14397 -0.0118,1.71596 5.3e-4,0.56659 0.001,1.13317 0.001,1.69975 -0.0284,0.57017 0.0568,1.13419 0.11409,1.69965 0.0203,0.55174 0.12288,1.09402 0.1865,1.64129 0.0273,0.51731 0.12128,1.02635 0.19022,1.53887 0.0525,0.48376 0.15898,0.9581 0.21218,1.44218 0.089,0.45921 0.16183,0.92046 0.26277,1.37717 0.0743,0.43644 0.19848,0.86066 0.27199,1.29722 0.10156,0.42771 0.19201,0.85707 0.29371,1.28459 0.0907,0.4367 0.21572,0.86573 0.35067,1.29059 0.11491,0.38837 0.24553,0.77205 0.37762,1.15497 0.1202,0.37952 0.24841,0.75643 0.37838,1.13282 0.16442,0.36455 0.2706,0.75218 0.4502,1.1097 0.16459,0.34307 0.37061,0.66253 0.56607,0.98807 0.18053,0.37717 0.3752,0.74518 0.57577,1.1118 0.18528,0.36747 0.33307,0.75412 0.53646,1.11203 0.18188,0.33834 0.39031,0.66058 0.58894,0.98894 0.24687,0.35377 0.45716,0.73199 0.69944,1.08834 0.21126,0.36097 0.48165,0.67891 0.76054,0.98838 0.23974,0.2418 0.47514,0.46977 0.78245,0.62081 0,0 -0.18582,0.0207 -0.18582,0.0207 v 0 c -0.30594,-0.15518 -0.54277,-0.38479 -0.78241,-0.62784 -0.27918,-0.31031 -0.54928,-0.62939 -0.76113,-0.99092 -0.24097,-0.35761 -0.45343,-0.7346 -0.69943,-1.08928 -0.19926,-0.3282 -0.40705,-0.65107 -0.58913,-0.9895 -0.20167,-0.35894 -0.35095,-0.74472 -0.5362,-1.11229 -0.20076,-0.36628 -0.39411,-0.73475 -0.57584,-1.11104 -0.19619,-0.32564 -0.40166,-0.64602 -0.56638,-0.98953 -0.17805,-0.35904 -0.28645,-0.74649 -0.45013,-1.11214 -0.13007,-0.37634 -0.25795,-0.75337 -0.37838,-1.13282 -0.13221,-0.38302 -0.2625,-0.76696 -0.3775,-1.15544 -0.13496,-0.42532 -0.25942,-0.85492 -0.35053,-1.29196 -0.10231,-0.42781 -0.19217,-0.85771 -0.29372,-1.28584 -0.0737,-0.43615 -0.19799,-0.8601 -0.27189,-1.29629 -0.10091,-0.45736 -0.17427,-0.91923 -0.26271,-1.37917 -0.0533,-0.48389 -0.1598,-0.95812 -0.21223,-1.44174 -0.0687,-0.51264 -0.16254,-1.02181 -0.18979,-1.5392 -0.0639,-0.54732 -0.16598,-1.08976 -0.18646,-1.64157 -0.0572,-0.56609 -0.14252,-1.13072 -0.11412,-1.70151 -2e-4,-0.56658 -7.9e-4,-1.13317 -0.001,-1.69976 -7e-5,-0.57218 -0.001,-1.14445 0.0119,-1.71653 0.0189,-0.61402 0.0519,-1.22787 0.13522,-1.83706 0.0823,-0.62863 0.11454,-1.26142 0.2132,-1.88806 0.10343,-0.6128 0.18001,-1.22903 0.29365,-1.84023 0.0797,-0.59819 0.20479,-1.18872 0.3007,-1.78428 0.12662,-0.60665 0.26053,-1.21189 0.3758,-1.82076 0.12708,-0.57587 0.24956,-1.15246 0.40023,-1.72283 0.16429,-0.51692 0.34861,-1.02679 0.60298,-1.50743 0.24634,-0.48114 0.46465,-0.97966 0.77335,-1.42592 0.25419,-0.42966 0.49217,-0.86761 0.75525,-1.29206 0.25627,-0.41757 0.47901,-0.85527 0.77256,-1.24951 0.28874,-0.38461 0.57026,-0.77406 0.8664,-1.15313 0.3109,-0.40541 0.66058,-0.77773 1.00154,-1.15742 0,0 0.18658,0.0147 0.18658,0.0147 z"
       inkscape:connector-curvature="0" />
    <path
       style="opacity:1;fill:none;fill-opacity:1;fill-rule:nonzero;stroke:#f81786;stroke-width:0;stroke-linecap:round;stroke-linejoin:round;stroke-miterlimit:4;stroke-dasharray:none;stroke-dashoffset:0;stroke-opacity:1;paint-order:markers fill stroke"
       id="path4823"
       d="m 139.82629,170.75566 c -0.29362,0.39595 -0.62213,0.76462 -0.90324,1.16981 -0.22447,0.31489 -0.40984,0.65389 -0.61148,0.98265 -0.14699,0.26009 -0.27568,0.52874 -0.40269,0.7991 -0.14051,0.36059 -0.27892,0.72286 -0.40746,1.08818 -0.11534,0.42939 -0.29803,0.83533 -0.44127,1.25507 -0.12729,0.40889 -0.23863,0.82168 -0.35453,1.234 -0.087,0.41266 -0.21175,0.81582 -0.2944,1.22943 -0.12569,0.37177 -0.17452,0.76113 -0.26249,1.14138 -0.12447,0.40561 -0.13516,0.83095 -0.2044,1.24614 -0.10029,0.41444 -0.12194,0.84084 -0.18884,1.26014 -0.0906,0.43338 -0.14052,0.87181 -0.16613,1.31328 -0.0747,0.45948 -0.139,0.9194 -0.17598,1.38357 -0.0212,0.48528 -0.0549,0.97316 -0.0113,1.45771 0.0689,0.46641 0.11737,0.93502 0.14587,1.40554 0.0744,0.44103 0.1397,0.8827 0.17785,1.32841 0.0831,0.41075 0.15377,0.82112 0.18891,1.23887 0.0866,0.45399 0.15101,0.91035 0.18914,1.37092 0.0824,0.44959 0.1496,0.90088 0.18905,1.35627 0.0695,0.39836 0.14056,0.79524 0.24289,1.18645 0.0751,0.38206 0.19398,0.75279 0.27107,1.13439 0.11049,0.37467 0.18927,0.75631 0.29394,1.13241 0.0986,0.38296 0.22359,0.75891 0.35059,1.13336 0.10293,0.33989 0.2477,0.66602 0.37767,0.99653 0.16938,0.35265 0.29128,0.7247 0.45037,1.08184 0.16119,0.37055 0.28504,0.75534 0.42639,1.13337 0.138,0.38799 0.30663,0.76531 0.49046,1.13369 0.21605,0.37635 0.4395,0.74863 0.63961,1.13383 0.1708,0.35316 0.38934,0.6788 0.58191,1.01974 0.16899,0.34357 0.30207,0.70469 0.48951,1.03874 0.1564,0.27843 0.28551,0.57202 0.44436,0.84874 0.13781,0.28083 0.32714,0.5311 0.46841,0.80941 0.1447,0.26101 0.33718,0.48916 0.49419,0.74231 0.19592,0.26415 0.37688,0.5386 0.5592,0.8121 0.2021,0.29882 0.37949,0.61304 0.56757,0.92076 0.1667,0.293 0.36576,0.56163 0.56721,0.83072 0.23254,0.326 0.50918,0.61024 0.81155,0.87074 0.3381,0.29791 0.72536,0.53229 1.0835,0.80387 0.0793,0.13283 0.61065,0.25859 0.38202,0.2399 0,0 0.18547,0.0288 0.18547,0.0288 v 0 c -0.34854,5.3e-4 -0.48027,-0.0307 -0.7533,-0.25152 -0.35926,-0.27052 -0.74532,-0.50689 -1.08345,-0.80509 -0.3027,-0.26185 -0.57907,-0.54822 -0.81267,-0.87469 -0.20232,-0.26904 -0.39906,-0.53991 -0.56705,-0.83251 -0.18827,-0.30737 -0.36471,-0.62196 -0.56765,-0.92001 -0.18297,-0.2733 -0.36366,-0.54805 -0.55925,-0.81268 -0.15834,-0.25272 -0.35065,-0.48178 -0.49432,-0.74391 -0.14234,-0.27737 -0.33035,-0.52827 -0.46852,-0.80854 -0.15709,-0.27779 -0.28837,-0.57 -0.44388,-0.84894 -0.18575,-0.33495 -0.32018,-0.69522 -0.48953,-1.03862 -0.19334,-0.34064 -0.41043,-0.66732 -0.58162,-1.02042 -0.20065,-0.38503 -0.42412,-0.75737 -0.63964,-1.13415 -0.18361,-0.3692 -0.35266,-0.74695 -0.49065,-1.13565 -0.14078,-0.37786 -0.26523,-0.76204 -0.42632,-1.13223 -0.15868,-0.3576 -0.28154,-0.72959 -0.4507,-1.08263 -0.1304,-0.33059 -0.27467,-0.6572 -0.37745,-0.99743 -0.12717,-0.37475 -0.25189,-0.75115 -0.35067,-1.1344 -0.10475,-0.37652 -0.1837,-0.7586 -0.294,-1.13375 -0.0773,-0.38118 -0.19587,-0.75167 -0.27101,-1.13335 -0.10244,-0.39221 -0.17354,-0.79019 -0.24271,-1.18961 -0.0393,-0.45545 -0.10691,-0.90666 -0.18894,-1.35634 -0.038,-0.4606 -0.1031,-0.91681 -0.18919,-1.3709 -0.0354,-0.4177 -0.10694,-0.82795 -0.189,-1.23884 -0.0381,-0.4459 -0.10379,-0.88762 -0.17779,-1.32888 -0.0283,-0.47035 -0.0768,-0.93875 -0.1456,-1.405 -0.0432,-0.48564 -0.0101,-0.9745 0.0111,-1.46085 0.0371,-0.46401 0.10083,-0.92391 0.17599,-1.38317 0.0255,-0.44211 0.0751,-0.88119 0.16613,-1.31516 0.0671,-0.41929 0.0879,-0.84588 0.18877,-1.26027 0.0697,-0.41548 0.0794,-0.84136 0.20411,-1.2473 0.0884,-0.37994 0.13609,-0.76942 0.26254,-1.14081 0.0826,-0.41415 0.20786,-0.81767 0.29478,-1.23086 0.11595,-0.41265 0.22695,-0.82583 0.35434,-1.23502 0.14296,-0.41992 0.32655,-0.82562 0.4415,-1.25523 0.12829,-0.36598 0.26691,-0.72869 0.40673,-1.09012 0.1275,-0.27092 0.25561,-0.54041 0.40282,-0.8012 0.20348,-0.32802 0.3868,-0.66887 0.61229,-0.98359 0.28019,-0.40563 0.60932,-0.7735 0.90249,-1.16953 0,0 0.1868,0.011 0.1868,0.011 z"
       inkscape:connector-curvature="0" />
    <path
       style="opacity:1;fill:none;fill-opacity:1;fill-rule:nonzero;stroke:#f81786;stroke-width:0.2;stroke-linecap:round;stroke-linejoin:round;stroke-miterlimit:4;stroke-dasharray:none;stroke-dashoffset:0;stroke-opacity:1;paint-order:markers fill stroke"
       id="path4881"
       d="m 105.22384,173.69038 c -0.43716,0.24899 -0.84282,0.54152 -1.21602,0.87803 -0.34817,0.32556 -0.63049,0.7132 -0.94139,1.07338 -0.34812,0.38046 -0.63504,0.81417 -0.91521,1.246 -0.28695,0.41905 -0.57827,0.83239 -0.85083,1.2612 -0.32119,0.43933 -0.56316,0.92467 -0.76884,1.42646 -0.24592,0.51307 -0.44535,1.04296 -0.612163,1.58646 -0.193424,0.56133 -0.342236,1.13807 -0.462225,1.71929 -0.14904,0.63804 -0.2888,1.27802 -0.434684,1.91674 -0.135623,0.66837 -0.282734,1.33358 -0.371202,2.01022 -0.07714,0.66796 -0.178467,1.33184 -0.233342,2.00242 -0.05561,0.65684 -0.02521,1.31718 -0.07525,1.97382 -0.0621,0.61414 -0.142134,1.22781 -0.122134,1.84587 0.05098,0.6255 0.09822,1.25086 0.123415,1.878 0.01487,0.61431 0.110156,1.22293 0.160488,1.83504 0.08351,0.57262 0.155879,1.14613 0.259818,1.71544 0.09857,0.5367 0.217125,1.06993 0.349591,1.59932 0.105723,0.5202 0.204476,1.04208 0.323641,1.55952 0.123725,0.52777 0.235027,1.05871 0.36721,1.58436 0.105426,0.51437 0.255237,1.01508 0.409427,1.51619 0.136,0.49175 0.27915,0.98265 0.46473,1.45832 0.18481,0.44839 0.34043,0.90712 0.49969,1.36494 0.16808,0.44415 0.34425,0.88463 0.52562,1.3236 0.17603,0.35008 0.3834,0.6827 0.56486,1.02979 0.19614,0.36265 0.38826,0.72805 0.56741,1.09948 0.18713,0.35143 0.41887,0.68613 0.6982,0.97078 0.30772,0.28925 0.64939,0.53746 0.97955,0.80001 0.32316,0.21515 0.59882,0.48696 0.89689,0.73318 0.185,0.17374 0.0935,0.0847 0.27449,0.26721 0,0 -0.1862,0.0146 -0.1862,0.0146 v 0 c -0.18094,-0.18151 -0.0895,-0.0931 -0.27429,-0.26544 -0.29699,-0.24743 -0.57505,-0.51607 -0.89687,-0.73282 -0.3299,-0.26375 -0.67335,-0.5107 -0.97971,-0.80234 -0.27863,-0.28774 -0.51188,-0.62288 -0.69848,-0.97679 -0.1795,-0.37109 -0.37128,-0.73645 -0.56752,-1.09887 -0.18227,-0.34715 -0.3899,-0.68019 -0.56453,-1.0315 -0.18149,-0.43926 -0.35742,-0.88022 -0.52569,-1.32467 -0.15913,-0.45761 -0.31463,-0.91612 -0.49944,-1.36426 -0.18494,-0.47634 -0.32859,-0.96749 -0.46465,-1.45967 -0.15469,-0.50129 -0.303253,-1.00266 -0.409259,-1.51717 -0.131842,-0.52588 -0.243908,-1.05674 -0.367225,-1.58473 -0.11919,-0.51733 -0.217845,-1.03912 -0.323758,-1.55917 -0.132239,-0.52983 -0.251084,-1.06341 -0.349393,-1.60053 -0.103801,-0.56994 -0.176427,-1.14402 -0.25977,-1.71726 -0.05009,-0.61239 -0.145413,-1.22125 -0.160243,-1.83582 -0.02527,-0.62719 -0.07244,-1.2526 -0.123475,-1.87815 -0.02,-0.61874 0.05975,-1.23309 0.122264,-1.84788 0.05052,-0.65663 0.01971,-1.31706 0.07537,-1.97392 0.05489,-0.67088 0.156215,-1.33508 0.233621,-2.00331 0.08824,-0.67726 0.235313,-1.34302 0.371068,-2.01197 0.145804,-0.63858 0.285459,-1.27843 0.434271,-1.91636 0.120065,-0.58176 0.268277,-1.15927 0.462153,-1.72103 0.166394,-0.54417 0.365606,-1.07476 0.612056,-1.58816 0.20557,-0.50283 0.44668,-0.9899 0.76886,-1.42977 0.27254,-0.4289 0.56275,-0.84295 0.85076,-1.26137 0.28007,-0.43264 0.56719,-0.86726 0.91524,-1.24856 0.3115,-0.36047 0.59399,-0.74863 0.94148,-1.07568 0.37279,-0.33761 0.77773,-0.63178 1.2154,-0.88084 0,0 0.18622,0.0184 0.18622,0.0184 z"
       inkscape:connector-curvature="0" />
    <path
       style="opacity:1;fill:none;fill-opacity:1;fill-rule:nonzero;stroke:#000000;stroke-width:1;stroke-linecap:round;stroke-linejoin:round;stroke-miterlimit:4;stroke-dasharray:none;stroke-dashoffset:0;stroke-opacity:1;paint-order:markers fill stroke"
       id="path4839"
       d="m 139.5668,175.07194 c -0.0155,0.52017 0.0288,1.04342 -0.023,1.5617 -0.0285,0.18958 -0.0614,0.3784 -0.091,0.5678 0,0 -0.18688,-0.003 -0.18688,-0.003 v 0 c 0.0296,-0.18909 0.0625,-0.37759 0.0915,-0.56678 0.0532,-0.51749 0.009,-1.04035 0.0222,-1.55982 0,0 0.18718,0 0.18718,0 z"
       inkscape:connector-curvature="0" />
    <path
       style="opacity:1;fill:none;fill-opacity:1;fill-rule:nonzero;stroke:#000000;stroke-width:1;stroke-linecap:round;stroke-linejoin:round;stroke-miterlimit:4;stroke-dasharray:none;stroke-dashoffset:0;stroke-opacity:1;paint-order:markers fill stroke"
       id="path4841"
       d="m 139.02242,179.79531 c 0.0298,0.49349 0.23695,0.94739 0.34479,1.42306 0,0 -0.1866,0.004 -0.1866,0.004 v 0 c -0.1077,-0.47621 -0.31374,-0.93082 -0.34533,-1.42456 0,0 0.18714,-0.003 0.18714,-0.003 z"
       inkscape:connector-curvature="0" />
    <path
       style="opacity:1;fill:none;fill-opacity:1;fill-rule:nonzero;stroke:#000000;stroke-width:1;stroke-linecap:round;stroke-linejoin:round;stroke-miterlimit:4;stroke-dasharray:none;stroke-dashoffset:0;stroke-opacity:1;paint-order:markers fill stroke"
       id="path4843"
       d="m 139.37781,183.00944 c -0.0151,0.25018 0.0226,0.49832 0.0533,0.74567 0,0 -0.18607,0.002 -0.18607,0.002 v 0 c -0.0307,-0.24813 -0.0679,-0.49702 -0.0544,-0.74796 0,0 0.18717,0 0.18717,0 z"
       inkscape:connector-curvature="0" />
    <path
       style="opacity:1;fill:none;fill-opacity:1;fill-rule:nonzero;stroke:#000000;stroke-width:1;stroke-linecap:round;stroke-linejoin:round;stroke-miterlimit:4;stroke-dasharray:none;stroke-dashoffset:0;stroke-opacity:1;paint-order:markers fill stroke"
       id="path4845"
       d="m 139.58939,186.78787 c 0.0425,0.33315 0.0215,0.16066 0.0623,0.51753 0,0 -0.18579,0.002 -0.18579,0.002 v 0 c -0.0413,-0.35654 -0.0199,-0.18423 -0.0636,-0.51699 0,0 0.18714,-0.003 0.18714,-0.003 z"
       inkscape:connector-curvature="0" />
    <path
       style="opacity:1;fill:none;fill-opacity:1;fill-rule:nonzero;stroke:#000000;stroke-width:1;stroke-linecap:round;stroke-linejoin:round;stroke-miterlimit:4;stroke-dasharray:none;stroke-dashoffset:0;stroke-opacity:1;paint-order:markers fill stroke"
       id="path4847"
       d="m 139.5668,190.37997 c -1.6e-4,0.0804 -2.6e-4,0.1607 -5.3e-4,0.24105 0,0 -0.18623,0 -0.18623,0 v 0 c -1.6e-4,-0.0803 -2.6e-4,-0.1607 -5.3e-4,-0.24105 0,0 0.18718,0 0.18718,0 z"
       inkscape:connector-curvature="0" />
    <path
       style="opacity:1;fill:none;fill-opacity:1;fill-rule:nonzero;stroke:#000000;stroke-width:1;stroke-linecap:round;stroke-linejoin:round;stroke-miterlimit:4;stroke-dasharray:none;stroke-dashoffset:0;stroke-opacity:1;paint-order:markers fill stroke"
       id="path4871"
       d="m 138.90327,193.1044 c 0.19341,-0.22361 0.43198,-0.6128 0.77437,-0.61016 0.10545,8e-4 0.20986,0.0209 0.3148,0.0314 0.23517,0.14338 0.1364,0.40745 0.0812,0.62386 -0.1221,0.33186 -0.44007,0.46706 -0.76495,0.28802 -0.23323,-0.22659 -0.17498,-0.56653 -0.10331,-0.852 0.0821,-0.26292 0.41755,-0.44369 0.61365,-0.15413 0.11109,0.24067 0.0276,0.47854 -0.0966,0.69508 -0.31596,0.27288 -0.43738,-0.0134 -0.48908,-0.28078 0.001,-0.0449 0.003,-0.0899 0.004,-0.13478 0,0 0.18747,5.3e-4 0.18747,5.3e-4 v 0 c -0.001,0.0435 -0.003,0.087 -0.004,0.13056 0.0166,0.0834 0.026,0.16267 0.0631,0.24018 0.0121,0.0252 0.0651,0.0475 0.0473,0.069 -0.0374,0.0454 -0.23549,0.0864 0.004,-0.0347 0.12362,-0.20829 0.20771,-0.44087 0.0967,-0.67359 -0.11927,-0.16068 -0.0415,-0.005 0.0569,-0.1145 0.0921,-0.10271 -0.51086,0.22905 -0.29594,0.26168 -0.0701,0.27676 -0.13226,0.61194 0.10264,0.82695 0.036,0.0176 0.0873,0.0185 0.10804,0.0528 0.012,0.0198 -0.0884,0.0244 -0.0683,0.0129 0.18891,-0.10776 0.26381,-0.0912 0.35133,-0.33799 0.0524,-0.20593 0.1558,-0.46599 -0.0796,-0.5942 0.0188,-0.01 0.0776,-0.0281 0.0564,-0.0301 -0.24941,-0.0236 -0.48322,0.24288 -0.62603,0.40838 -0.0517,0.0599 -0.098,0.12435 -0.14695,0.18652 0,0 -0.1868,-0.011 -0.1868,-0.011 z"
       inkscape:connector-curvature="0" />
    <path
       style="opacity:1;fill:none;fill-opacity:1;fill-rule:nonzero;stroke:#f81786;stroke-width:0.2;stroke-linecap:round;stroke-linejoin:round;stroke-miterlimit:4;stroke-dasharray:none;stroke-dashoffset:0;stroke-opacity:1;paint-order:markers fill stroke"
       id="path4883"
       d="m 95.396475,177.30276 c -0.489019,0.39375 -0.937393,0.83103 -1.384975,1.26974 -0.355028,0.3006 -0.612801,0.68405 -0.88129,1.05802 -0.244192,0.42996 -0.48686,0.86061 -0.732523,1.28977 -0.256384,0.45061 -0.459404,0.92619 -0.670351,1.39861 -0.181006,0.48888 -0.398269,0.963 -0.552944,1.46115 -0.17086,0.49653 -0.300183,1.00778 -0.415957,1.51981 -0.152215,0.53081 -0.236815,1.07641 -0.34598,1.61683 -0.108294,0.54738 -0.142825,1.1046 -0.162764,1.66101 -0.01426,0.54864 -0.01198,1.09755 -0.01159,1.64633 0.0098,0.56798 0.009,1.13222 -0.05203,1.69712 -0.09581,0.54852 -0.08448,1.09389 -0.03694,1.64527 0.05362,0.52584 0.07243,1.05411 0.08352,1.58227 -0.01937,0.5393 0.0662,1.07171 0.122397,1.6062 0.0195,0.51096 0.12079,1.01173 0.185832,1.51753 0.100616,0.47578 0.178631,0.95506 0.284565,1.42961 0.11026,0.48593 0.209211,0.97483 0.320109,1.46063 0.101655,0.46985 0.197855,0.94046 0.294846,1.41145 0.09279,0.47523 0.176861,0.95343 0.278554,1.42691 0.09584,0.47939 0.233336,0.94851 0.316206,1.43046 0.101587,0.47694 0.208293,0.95189 0.357706,1.41635 0.121883,0.43672 0.278932,0.85998 0.446905,1.28054 0.117996,0.37005 0.275468,0.72249 0.469276,1.05852 0.168039,0.3263 0.353441,0.64158 0.553619,0.9491 0.242239,0.29864 0.491805,0.59022 0.752724,0.87273 0.337777,0.34051 0.650785,0.70514 0.932127,1.09358 0.237164,0.32341 0.490021,0.62871 0.758597,0.92579 0.19004,0.19881 0.373145,0.37914 0.624613,0.49517 0,0 -0.186045,0.0211 -0.186045,0.0211 v 0 c -0.249954,-0.12031 -0.434845,-0.30284 -0.624885,-0.50256 -0.269256,-0.29709 -0.520549,-0.60439 -0.758243,-0.92784 -0.281868,-0.38738 -0.594561,-0.75134 -0.932063,-1.09138 -0.261456,-0.28325 -0.512316,-0.57507 -0.753441,-0.87584 -0.199927,-0.308 -0.384948,-0.6239 -0.553664,-0.95012 -0.193361,-0.33713 -0.35037,-0.69062 -0.469027,-1.06119 -0.168095,-0.42092 -0.324281,-0.84488 -0.446548,-1.28184 -0.149228,-0.46541 -0.256469,-0.94106 -0.357714,-1.41896 -0.08335,-0.48161 -0.220652,-0.95052 -0.316267,-1.4297 -0.101404,-0.47364 -0.185904,-0.95175 -0.278728,-1.42706 -0.09686,-0.47086 -0.193019,-0.94136 -0.294627,-1.41106 -0.110593,-0.48593 -0.209997,-0.97472 -0.320214,-1.46072 -0.105858,-0.47511 -0.184312,-0.9549 -0.284499,-1.4313 -0.06541,-0.50588 -0.165862,-1.00693 -0.185597,-1.51798 -0.05617,-0.53501 -0.141994,-1.06793 -0.122328,-1.60775 -0.01135,-0.52776 -0.0302,-1.05561 -0.08365,-1.58107 -0.04744,-0.55256 -0.05881,-1.09919 0.03721,-1.64886 0.06088,-0.56425 0.06179,-1.12778 0.05196,-1.6951 -5.29e-4,-0.54901 -0.0028,-1.09815 0.01146,-1.64702 0.01982,-0.55742 0.05493,-1.11561 0.162899,-1.66405 0.109304,-0.54053 0.193495,-1.08633 0.345762,-1.61726 0.115928,-0.51246 0.244891,-1.02434 0.415944,-1.52127 0.154495,-0.49901 0.372263,-0.97359 0.553045,-1.46337 0.211545,-0.47278 0.413811,-0.94933 0.670505,-1.40045 0.245554,-0.42981 0.489579,-0.86025 0.732147,-1.29173 0.2692,-0.37464 0.525915,-0.76035 0.882216,-1.06119 0.448487,-0.43784 0.89577,-0.87634 1.3839,-1.27131 0,0 0.186251,0.0164 0.186251,0.0164 z"
       inkscape:connector-curvature="0" />
    <path
       style="opacity:1;fill:none;fill-opacity:1;fill-rule:nonzero;stroke:#f81786;stroke-width:1;stroke-linecap:round;stroke-linejoin:round;stroke-miterlimit:4;stroke-dasharray:none;stroke-dashoffset:0;stroke-opacity:1;paint-order:markers fill stroke"
       id="path4895"
       d="m 136.64137,203.78102 c -0.24453,0.28285 -0.65404,0.69722 -1.05894,0.44445 -0.20393,-0.26328 -0.10968,-0.57955 -0.009,-0.86452 0.22976,-0.4583 0.46586,-0.49662 0.9515,-0.49357 0.34887,0.0805 0.55627,0.27238 0.68266,0.59965 0.0694,0.32339 -0.078,0.5814 -0.27903,0.82146 -0.30192,0.28386 -0.66809,0.26722 -1.05417,0.24707 -0.3078,-0.088 -0.40803,-0.37414 -0.4152,-0.66804 0.007,-0.30317 0.17903,-0.48434 0.47391,-0.51193 0,0 0.18552,0.028 0.18552,0.028 v 0 c -0.29032,0.0165 -0.46531,0.18283 -0.47207,0.48353 0.007,0.28843 0.10841,0.56383 0.41313,0.64124 -0.0123,0.005 -0.0502,0.0136 -0.037,0.0155 0.25706,0.0369 0.52642,-0.0914 0.71908,-0.24846 0.19935,-0.23266 0.34699,-0.4846 0.27878,-0.80135 -0.12639,-0.32054 -0.33573,-0.50725 -0.68046,-0.57781 -0.21862,0.047 -0.46503,0.19705 -0.57965,0.47113 -0.0974,0.27461 -0.19782,0.58801 0.009,0.83854 0.0307,0.0163 0.0757,0.0183 0.0921,0.049 0.01,0.0186 -0.0815,0.0154 -0.063,0.005 0.0473,-0.0261 0.10447,-0.0299 0.15253,-0.0545 0.19998,-0.10245 0.35978,-0.26708 0.50376,-0.43547 0,0 0.1868,0.011 0.1868,0.011 z"
       inkscape:connector-curvature="0" />
    <path
       style="opacity:1;fill:none;fill-opacity:1;fill-rule:nonzero;stroke:#f81786;stroke-width:0.2;stroke-linecap:round;stroke-linejoin:round;stroke-miterlimit:4;stroke-dasharray:none;stroke-dashoffset:0;stroke-opacity:1;paint-order:markers fill stroke"
       id="path4887"
       d="m 86.181545,181.48042 c -0.336682,0.44343 -0.596762,0.93384 -0.872077,1.415 -0.200202,0.3419 -0.334915,0.71372 -0.478972,1.08077 -0.121267,0.37659 -0.260414,0.7456 -0.407935,1.11263 -0.141346,0.42769 -0.269753,0.85899 -0.408527,1.28748 -0.151165,0.41837 -0.238038,0.85317 -0.348967,1.28254 -0.103995,0.45348 -0.205142,0.90854 -0.294709,1.36539 -0.05999,0.47594 -0.163391,0.94421 -0.232426,1.41884 -0.100242,0.48703 -0.182541,0.97683 -0.286824,1.46296 -0.08542,0.53932 -0.164359,1.07932 -0.24575,1.61951 -0.08061,0.5699 -0.0984,1.14557 -0.109554,1.72019 -0.008,0.58987 -0.0062,1.17981 -0.0057,1.76972 -0.02875,0.57328 0.05922,1.14008 0.115205,1.70871 0.05574,0.53196 0.132686,1.06497 0.232502,1.59083 0.08864,0.48256 0.205288,0.95985 0.336865,1.4324 0.12894,0.49015 0.30267,0.96616 0.485521,1.4383 0.183973,0.47693 0.365824,0.95572 0.563491,1.42725 0.211976,0.42285 0.418227,0.84952 0.667941,1.25168 0.230113,0.38774 0.47227,0.76954 0.730893,1.13903 0.249957,0.37865 0.494368,0.76143 0.75574,1.13239 0.210664,0.39969 0.520837,0.71585 0.81934,1.04703 0.283991,0.31709 0.542478,0.65429 0.81202,0.9834 0.257955,0.31759 0.480994,0.66238 0.704839,1.00452 0.138443,0.24031 0.06623,0.1252 0.215641,0.34595 0,0 -0.186412,0.0111 -0.186412,0.0111 v 0 c -0.148892,-0.22195 -0.07681,-0.10671 -0.215443,-0.34621 -0.223562,-0.3417 -0.44691,-0.68564 -0.704929,-1.00251 -0.269745,-0.32859 -0.526926,-0.66655 -0.811776,-0.98253 -0.299551,-0.33108 -0.606811,-0.65037 -0.819277,-1.0493 -0.260948,-0.37127 -0.505621,-0.75388 -0.755751,-1.13245 -0.25832,-0.37007 -0.500808,-0.75196 -0.730961,-1.14005 -0.249344,-0.40335 -0.456393,-0.83057 -0.667785,-1.25464 -0.197223,-0.4719 -0.379817,-0.95051 -0.563443,-1.42775 -0.183148,-0.47266 -0.356484,-0.94948 -0.485759,-1.44013 -0.131363,-0.47314 -0.248471,-0.95079 -0.336675,-1.43395 -0.09984,-0.52641 -0.176763,-1.05997 -0.232256,-1.5925 -0.05626,-0.56919 -0.14395,-1.13665 -0.115168,-1.71052 -5.29e-4,-0.59003 -0.0021,-1.18009 0.0058,-1.77009 0.01085,-0.57544 0.02884,-1.15188 0.109308,-1.72262 0.08152,-0.54055 0.160435,-1.08088 0.245432,-1.62066 0.104228,-0.48571 0.186524,-0.9751 0.286671,-1.46172 0.06911,-0.47493 0.172437,-0.9435 0.232495,-1.41973 0.08911,-0.45729 0.191026,-0.91259 0.294537,-1.36653 0.11149,-0.42956 0.197281,-0.86507 0.348906,-1.28366 0.138956,-0.42884 0.268139,-0.86032 0.408402,-1.28877 0.147363,-0.36703 0.287282,-0.73568 0.407819,-1.11249 0.144735,-0.36775 0.278606,-0.74093 0.479657,-1.08347 0.276773,-0.4805 0.535345,-0.97205 0.871242,-1.4163 0,0 0.186801,0.011 0.186801,0.011 z"
       inkscape:connector-curvature="0" />
    <path
       style="opacity:1;fill:none;fill-opacity:1;fill-rule:nonzero;stroke:#000000;stroke-width:1;stroke-linecap:round;stroke-linejoin:round;stroke-miterlimit:4;stroke-dasharray:none;stroke-dashoffset:0;stroke-opacity:1;paint-order:markers fill stroke"
       id="path4897"
       d="m 139.1662,194.53904 c -0.0594,0.23862 -0.12027,0.47672 -0.1774,0.71589 0,0 -0.18597,-0.004 -0.18597,-0.004 v 0 c 0.0568,-0.23857 0.11743,-0.4761 0.17623,-0.71419 0,0 0.18714,0.003 0.18714,0.003 z"
       inkscape:connector-curvature="0" />
    <path
       style="opacity:1;fill:none;fill-opacity:1;fill-rule:nonzero;stroke:#000000;stroke-width:1;stroke-linecap:round;stroke-linejoin:round;stroke-miterlimit:4;stroke-dasharray:none;stroke-dashoffset:0;stroke-opacity:1;paint-order:markers fill stroke"
       id="path4899"
       d="m 138.22126,197.56285 c -0.10555,0.39713 -0.20007,0.79598 -0.26956,1.20101 0,0 -0.18619,-0.003 -0.18619,-0.003 v 0 c 0.0695,-0.40479 0.16378,-0.80345 0.26861,-1.20051 0,0 0.18714,0.003 0.18714,0.003 z"
       inkscape:connector-curvature="0" />
    <path
       style="opacity:1;fill:none;fill-opacity:1;fill-rule:nonzero;stroke:#000000;stroke-width:1;stroke-linecap:round;stroke-linejoin:round;stroke-miterlimit:4;stroke-dasharray:none;stroke-dashoffset:0;stroke-opacity:1;paint-order:markers fill stroke"
       id="path4901"
       d="m 137.63164,200.77692 c -0.10129,0.23317 -0.18168,0.46932 -0.24599,0.71482 0,0 -0.18595,-0.005 -0.18595,-0.005 v 0 c 0.0639,-0.24566 0.14354,-0.48206 0.2449,-0.71527 0,0 0.18704,0.005 0.18704,0.005 z"
       inkscape:connector-curvature="0" />
    <path
       style="opacity:1;fill:none;fill-opacity:1;fill-rule:nonzero;stroke:#000000;stroke-width:1;stroke-linecap:round;stroke-linejoin:round;stroke-miterlimit:4;stroke-dasharray:none;stroke-dashoffset:0;stroke-opacity:1;paint-order:markers fill stroke"
       id="path4903"
       d="m 142.06879,198.88183 c 0.13307,0.48626 0.31801,0.95356 0.42684,1.447 0.0333,0.20691 0.15128,0.55349 -0.23546,0.22695 -0.0304,-0.0256 -0.10727,-0.28083 -0.11665,-0.30979 -0.12593,-0.36394 -0.25116,-0.72914 -0.35739,-1.09949 -0.13681,-0.36962 -0.26319,-0.7445 -0.26694,-1.14134 0.0875,-0.47733 0.32382,-0.50099 0.75017,-0.47219 0.2917,0.0794 0.49135,0.31436 0.70706,0.51039 0.20642,0.20732 0.33364,0.47087 0.48363,0.71726 0.14638,0.25924 0.28801,0.52183 0.46762,0.76004 -0.0157,-0.003 0.16102,0.13983 0.1748,0.0776 0.007,-0.0315 -0.0973,0.005 -0.093,-0.0274 0.005,-0.0375 0.0708,-0.0277 0.10316,-0.0474 0.0766,-0.0466 0.136,-0.11335 0.19908,-0.17546 0.2416,-0.3079 0.44112,-0.64475 0.66273,-0.96659 0.21105,-0.3107 0.41677,-0.62309 0.61139,-0.94453 0.22871,-0.37062 0.42524,0.0203 0.4997,0.2462 0.0823,0.32843 0.0867,0.66945 0.0944,1.00605 0.0403,0.38846 0.12702,0.76672 0.26548,1.1315 0.11464,0.32243 0.30219,0.61226 0.4446,0.92197 0.0106,0.0366 0.0211,0.0731 0.0317,0.10968 0,0 -0.18763,0.005 -0.18763,0.005 v 0 c -0.0105,-0.0356 -0.0209,-0.0713 -0.0314,-0.1069 -0.14318,-0.3097 -0.32911,-0.60061 -0.44374,-0.92332 -0.13837,-0.36699 -0.22575,-0.74725 -0.26582,-1.13783 -0.008,-0.33473 -0.0119,-0.67405 -0.0949,-1.00045 -0.0351,-0.10418 -0.0381,-0.12972 -0.09,-0.22322 -0.016,-0.0289 -0.0697,-0.0544 -0.0537,-0.0833 0.0248,-0.0447 0.0893,-0.0511 0.13762,-0.068 0.0561,-0.0196 -0.29035,0.16569 -0.11938,0.13244 -0.19434,0.32218 -0.40123,0.6343 -0.6122,0.94561 -0.22242,0.32234 -0.42249,0.6596 -0.66208,0.97008 -0.19358,0.19479 -0.50647,0.40341 -0.75807,0.17002 -0.17744,-0.24036 -0.32103,-0.50207 -0.46749,-0.76187 -0.14779,-0.24594 -0.27695,-0.50673 -0.48313,-0.7119 -0.21356,-0.19566 -0.41437,-0.42686 -0.70631,-0.49985 0.0244,-0.007 0.0984,-0.0192 0.0732,-0.0201 -0.26585,-0.01 -0.41715,0.23354 -0.45064,0.46598 0.004,0.39517 0.13155,0.76804 0.26678,1.13629 0.10651,0.37009 0.23153,0.73515 0.35769,1.09882 0.0592,0.18049 0.19502,0.29526 0.001,0.43702 -0.016,0.0117 0.0136,-0.0377 0.015,-0.0575 0.009,-0.12008 -0.0109,-0.16092 -0.0376,-0.28678 -0.1088,-0.49307 -0.29308,-0.96028 -0.42755,-1.44583 0,0 0.18704,-0.005 0.18704,-0.005 z"
       inkscape:connector-curvature="0" />
    <path
       style="opacity:1;fill:none;fill-opacity:1;fill-rule:nonzero;stroke:#000000;stroke-width:1;stroke-linecap:round;stroke-linejoin:round;stroke-miterlimit:4;stroke-dasharray:none;stroke-dashoffset:0;stroke-opacity:1;paint-order:markers fill stroke"
       id="path4939"
       d="m 141.01073,202.85697 c -0.21873,0.51879 -0.43454,1.03505 -0.57273,1.58189 -0.0949,0.40926 -0.11117,0.82943 -0.11887,1.24763 0.0134,0.36502 0.13181,0.70261 0.24184,1.04557 0.0986,0.2716 0.27972,0.48723 0.45653,0.70918 0.12654,0.12518 0.0654,0.0603 0.18329,0.19476 0,0 -0.18696,0.0135 -0.18696,0.0135 v 0 c -0.11831,-0.13353 -0.0572,-0.0683 -0.18334,-0.19566 -0.17878,-0.22294 -0.3579,-0.44266 -0.45654,-0.71599 -0.11087,-0.34477 -0.22798,-0.6849 -0.2416,-1.05173 0.008,-0.41964 0.0243,-0.84124 0.11962,-1.2519 0.13841,-0.54768 0.35486,-1.06447 0.5719,-1.58485 0,0 0.18686,0.008 0.18686,0.008 z"
       inkscape:connector-curvature="0" />
    <path
       style="opacity:1;fill:none;fill-opacity:1;fill-rule:nonzero;stroke:#000000;stroke-width:1;stroke-linecap:round;stroke-linejoin:round;stroke-miterlimit:4;stroke-dasharray:none;stroke-dashoffset:0;stroke-opacity:1;paint-order:markers fill stroke"
       id="path4941"
       d="m 142.32537,204.31254 c 0.34997,0.37783 0.6829,0.77081 1.02401,1.15679 0.27995,0.33743 0.61519,0.61091 0.96097,0.87481 0.0945,0.0826 0.2045,0.12148 0.32144,0.1567 0,0 -0.18663,0.0238 -0.18663,0.0238 v 0 c -0.11632,-0.0381 -0.22648,-0.0814 -0.32105,-0.16327 -0.34696,-0.26357 -0.67891,-0.54207 -0.96023,-0.87855 -0.3409,-0.38606 -0.6734,-0.7793 -1.0251,-1.15556 0,0 0.18659,-0.0147 0.18659,-0.0147 z"
       inkscape:connector-curvature="0" />
    <path
       style="opacity:1;fill:none;fill-opacity:1;fill-rule:nonzero;stroke:#000000;stroke-width:1;stroke-linecap:round;stroke-linejoin:round;stroke-miterlimit:4;stroke-dasharray:none;stroke-dashoffset:0;stroke-opacity:1;paint-order:markers fill stroke"
       id="path4943"
       d="m 143.84555,203.9909 c -0.24759,0.51722 -0.48167,1.04309 -0.67616,1.5828 -0.12985,0.31427 -0.27689,0.62075 -0.43607,0.92109 0,0 -0.18652,-0.009 -0.18652,-0.009 v 0 c 0.1593,-0.29947 0.30571,-0.60542 0.4367,-0.91841 0.19453,-0.53993 0.42934,-1.06566 0.67519,-1.58394 0,0 0.18686,0.008 0.18686,0.008 z"
       inkscape:connector-curvature="0" />
    <path
       style="opacity:1;fill:none;fill-opacity:1;fill-rule:nonzero;stroke:#000000;stroke-width:1;stroke-linecap:round;stroke-linejoin:round;stroke-miterlimit:4;stroke-dasharray:none;stroke-dashoffset:0;stroke-opacity:1;paint-order:markers fill stroke"
       id="path4945"
       d="m 146.39296,205.49769 c 0.0371,0.26622 0.0639,0.53363 0.0905,0.80104 0,0 -0.18572,0.002 -0.18572,0.002 v 0 c -0.0267,-0.26718 -0.0534,-0.53441 -0.0919,-0.80022 0,0 0.18714,-0.003 0.18714,-0.003 z"
       inkscape:connector-curvature="0" />
    <path
       style="opacity:1;fill:none;fill-opacity:1;fill-rule:nonzero;stroke:#000000;stroke-width:1;stroke-linecap:round;stroke-linejoin:round;stroke-miterlimit:4;stroke-dasharray:none;stroke-dashoffset:0;stroke-opacity:1;paint-order:markers fill stroke"
       id="path4947"
       d="m 146.83859,203.20306 c 0.0489,0.0699 0.0934,0.14313 0.14687,0.20964 0.14758,0.18364 0.34242,0.38251 0.56313,0.4781 0.0558,0.0241 0.11727,0.0325 0.17675,0.0451 0.0118,0.002 -0.022,-0.01 -0.0329,-0.0147 0.27512,-0.10722 0.30986,-0.39537 0.37095,-0.64988 0.23859,-0.23032 0.41584,0.44834 0.44774,0.55216 0.0825,0.37715 0.21206,0.74197 0.36797,1.09456 0.14948,0.3827 0.30723,0.76158 0.46731,1.14001 0.16537,0.34928 0.33702,0.70194 0.41197,1.083 0.0568,0.3228 -0.0696,0.61277 -0.30392,0.83031 -0.26518,0.28896 -0.5229,0.30054 -0.89228,0.26323 -0.25878,-0.0873 -0.44326,-0.26835 -0.55811,-0.51114 -0.10925,-0.30347 -0.12825,-0.61464 -0.0141,-0.91718 0.11764,-0.27863 0.32087,-0.50575 0.54196,-0.70704 0.2892,-0.27079 0.61365,-0.49936 0.9082,-0.76361 0.17008,-0.16829 0.0904,-0.0799 0.2393,-0.26478 0,0 0.18653,0.0126 0.18653,0.0126 v 0 c -0.14891,0.18737 -0.0691,0.0981 -0.23951,0.26781 -0.29333,0.26563 -0.61944,0.49217 -0.90816,0.76355 -0.21997,0.19882 -0.42313,0.42253 -0.54106,0.69832 -0.11551,0.29682 -0.0946,0.60396 0.014,0.90195 0.11548,0.23793 0.30076,0.41329 0.55696,0.49477 -0.0249,0.009 -0.0988,0.0159 -0.0746,0.0264 0.17693,0.077 0.48154,-0.17204 0.59415,-0.28046 0.23461,-0.20916 0.35948,-0.49422 0.30348,-0.81108 -0.0751,-0.37974 -0.24703,-0.73082 -0.41134,-1.07917 -0.16024,-0.37826 -0.31725,-0.75737 -0.46728,-1.13973 -0.1556,-0.35356 -0.28525,-0.71895 -0.36854,-1.09671 -0.0447,-0.14392 -0.0952,-0.27799 -0.15883,-0.41451 -0.0138,-0.0297 -0.0592,-0.0614 -0.0415,-0.089 0.0246,-0.0385 0.18288,-0.10339 0.12772,-0.0497 -0.0649,0.26037 -0.0988,0.55232 -0.37384,0.67309 -0.11252,0.004 -0.22529,0.0198 -0.33755,0.0113 -0.39434,-0.03 -0.67705,-0.46737 -0.88826,-0.74617 0,0 0.1868,-0.011 0.1868,-0.011 z"
       inkscape:connector-curvature="0" />
    <path
       style="opacity:1;fill:none;fill-opacity:1;fill-rule:nonzero;stroke:#000000;stroke-width:1;stroke-linecap:round;stroke-linejoin:round;stroke-miterlimit:4;stroke-dasharray:none;stroke-dashoffset:0;stroke-opacity:1;paint-order:markers fill stroke"
       id="path4949"
       d="m 151.70718,204.92945 c 0.1594,0.50898 0.19884,1.04333 0.3125,1.56137 0.0165,0.0665 0.0329,0.13302 0.0494,0.19952 0,0 -0.18658,0.005 -0.18658,0.005 v 0 c -0.0164,-0.0667 -0.0328,-0.13336 -0.0492,-0.20004 -0.11202,-0.51807 -0.15199,-1.05197 -0.31319,-1.56016 0,0 0.18703,-0.005 0.18703,-0.005 z"
       inkscape:connector-curvature="0" />
    <path
       style="opacity:1;fill:none;fill-opacity:1;fill-rule:nonzero;stroke:#000000;stroke-width:1;stroke-linecap:round;stroke-linejoin:round;stroke-miterlimit:4;stroke-dasharray:none;stroke-dashoffset:0;stroke-opacity:1;paint-order:markers fill stroke"
       id="path4951"
       d="m 152.57508,201.92435 c 0.44527,0.0174 0.79325,0.19276 1.01674,0.57721 0.1488,0.34616 0.15131,0.72661 0.15769,1.09694 0.005,0.36627 0.0138,0.72852 -0.0596,1.08838 -0.0568,0.24718 -0.0976,0.5577 0.17289,0.67811 0.0635,0.009 0.20978,0.0345 0.27101,0.0197 0.0173,-0.004 -0.0609,-0.0161 -0.0463,-0.0262 0.0781,-0.054 0.31912,-0.0939 0.4234,-0.13951 0.17667,-0.065 0.30842,-0.16502 0.39488,-0.33128 0,0 0.18752,0.009 0.18752,0.009 v 0 c -0.0854,0.17125 -0.21491,0.2778 -0.39633,0.34395 -0.31654,0.14442 -0.67515,0.2189 -1.02068,0.14539 -0.26502,-0.14112 -0.23407,-0.44455 -0.17344,-0.7028 0.0737,-0.35847 0.0646,-0.71928 0.0599,-1.08428 -0.006,-0.36711 -0.008,-0.74478 -0.15755,-1.08734 -0.22493,-0.37869 -0.57515,-0.54422 -1.01494,-0.55785 0,0 0.18487,-0.0293 0.18487,-0.0293 z"
       inkscape:connector-curvature="0" />
    <path
       style="opacity:1;fill:none;fill-opacity:1;fill-rule:nonzero;stroke:#000000;stroke-width:1;stroke-linecap:round;stroke-linejoin:round;stroke-miterlimit:4;stroke-dasharray:none;stroke-dashoffset:0;stroke-opacity:1;paint-order:markers fill stroke"
       id="path4953"
       d="m 151.81932,203.27119 c 0.52497,0.0742 1.05352,0.11672 1.58276,0.14437 0.22767,0.0371 0.41406,0.003 0.62177,-0.0319 0,0 0.18518,0.0261 0.18518,0.0261 v 0 c -0.32815,0.057 -0.65936,0.0558 -0.99098,0.0339 -0.52966,-0.0283 -1.05856,-0.0717 -1.58398,-0.14587 0,0 0.18525,-0.0267 0.18525,-0.0267 z"
       inkscape:connector-curvature="0" />
    <path
       style="opacity:1;fill:none;fill-opacity:1;fill-rule:nonzero;stroke:#000000;stroke-width:1;stroke-linecap:round;stroke-linejoin:round;stroke-miterlimit:4;stroke-dasharray:none;stroke-dashoffset:0;stroke-opacity:1;paint-order:markers fill stroke"
       id="path4955"
       d="m 155.01001,201.47688 c 0.45757,0.3733 0.85315,0.81395 1.19276,1.2956 0.26286,0.37497 0.49276,0.77124 0.63482,1.20749 0.14954,0.36513 0.23041,0.7474 0.27436,1.13782 0.0605,0.38278 -0.0248,0.7582 -0.0805,1.13536 -0.0594,0.2173 -0.0189,0.11623 -0.11776,0.3047 0,0 -0.18701,-0.009 -0.18701,-0.009 v 0 c 0.0992,-0.18336 0.0585,-0.0845 0.11798,-0.29828 0.0554,-0.37559 0.14088,-0.74934 0.0804,-1.13053 -0.0439,-0.38919 -0.1253,-0.76997 -0.27413,-1.13402 -0.14223,-0.43421 -0.37205,-0.82855 -0.6338,-1.20196 -0.33983,-0.48025 -0.73498,-0.91994 -1.19345,-1.29067 0,0 0.18625,-0.0163 0.18625,-0.0163 z"
       inkscape:connector-curvature="0" />
    <path
       style="opacity:1;fill:none;fill-opacity:1;fill-rule:nonzero;stroke:#f81786;stroke-width:1;stroke-linecap:round;stroke-linejoin:round;stroke-miterlimit:4;stroke-dasharray:none;stroke-dashoffset:0;stroke-opacity:1;paint-order:markers fill stroke"
       id="path4969"
       d="m 131.906,182.88189 c 0.20926,0.34223 0.4168,0.68388 0.56739,1.05641 0.12796,0.31246 0.24356,0.6314 0.3392,0.95536 0.1134,0.26016 0.15525,0.53966 0.22265,0.81252 0.0831,0.26032 0.0949,0.5342 0.14611,0.80042 0.0201,0.0711 0.0235,0.11588 0.0711,0.17278 0.0117,0.014 0.0582,0.0439 0.0443,0.0321 -0.11075,-0.0943 -0.021,-0.0611 0.0901,-0.20392 0.15436,-0.25221 0.31436,-0.50054 0.47535,-0.74894 0.20715,-0.28188 0.39404,-0.57511 0.58269,-0.86954 0.18049,-0.26854 0.36381,-0.5351 0.56094,-0.79187 0.15314,-0.24513 0.35992,-0.443 0.58353,-0.62237 0.11997,-0.0733 0.2292,-0.16124 0.33755,-0.25024 0,0 0.13154,0.0116 0.13154,0.0116 v 0 c -0.10809,0.0894 -0.21674,0.17836 -0.33767,0.25041 -0.22333,0.17837 -0.4311,0.37428 -0.5833,0.61922 -0.19732,0.25633 -0.38069,0.52255 -0.56131,0.79071 -0.18881,0.29431 -0.37452,0.58823 -0.58238,0.86962 -0.16081,0.24879 -0.32203,0.4966 -0.47491,0.75004 -0.15735,0.20733 -0.4085,0.34608 -0.46957,-0.007 -0.0508,-0.26607 -0.0632,-0.53959 -0.14609,-0.79973 -0.067,-0.27277 -0.10974,-0.55177 -0.2225,-0.81191 -0.0957,-0.32348 -0.21077,-0.64207 -0.33855,-0.95411 -0.15073,-0.37165 -0.35797,-0.71294 -0.56825,-1.05368 0,0 0.13209,-0.008 0.13209,-0.008 z"
       inkscape:connector-curvature="0" />
    <path
       style="opacity:1;fill:none;fill-opacity:1;fill-rule:nonzero;stroke:#000000;stroke-width:1;stroke-linecap:round;stroke-linejoin:round;stroke-miterlimit:4;stroke-dasharray:none;stroke-dashoffset:0;stroke-opacity:1;paint-order:markers fill stroke"
       id="path4993"
       d="m 53.317081,188.56277 c -0.33509,0.2224 -0.620686,0.50698 -0.882396,0.80995 -0.234982,0.26811 -0.432988,0.56383 -0.609262,0.87273 -0.197567,0.32436 -0.355497,0.67207 -0.495408,1.02472 -0.166526,0.38809 -0.277739,0.79393 -0.38857,1.20017 -0.104836,0.42107 -0.202234,0.84438 -0.268176,1.27349 -0.03466,0.42876 -0.102317,0.85358 -0.147852,1.2812 -0.05749,0.3815 -0.03274,0.75912 0.0087,1.13979 0.02521,0.36698 0.07544,0.72969 0.127722,1.09354 0.04329,0.35549 0.116936,0.70643 0.209717,1.05202 0.09082,0.29398 0.22747,0.56925 0.356116,0.8476 0.111461,0.25222 0.265324,0.48063 0.400637,0.71981 0.158433,0.24024 0.295977,0.4944 0.456309,0.73318 0.147431,0.25465 0.338076,0.47806 0.534215,0.69573 0.220567,0.24478 0.454109,0.47811 0.670896,0.72611 0.193714,0.19475 0.353549,0.4185 0.552939,0.6078 0.174496,0.18287 0.365739,0.34751 0.557655,0.51169 0.203059,0.19197 0.428262,0.35832 0.633809,0.5472 0.125523,0.17113 -0.175572,0.1637 -0.27676,0.17008 -0.305247,0.0102 -0.613677,-0.0375 -0.909626,-0.11092 -0.254977,-0.0725 -0.516652,-0.10476 -0.770681,-0.17973 -0.215448,-0.0348 -0.423789,-0.11831 -0.639181,-0.14744 -0.01849,-5.3e-4 -0.0687,-0.0142 -0.05548,-0.001 0.03351,0.0328 0.08818,0.0366 0.123285,0.0677 0.01683,0.0149 0.01267,0.0436 0.02426,0.0629 0.01471,0.0244 0.03314,0.0468 0.05367,0.0665 0.04892,0.047 0.106746,0.0838 0.159054,0.12701 0.197252,0.13944 0.421066,0.23317 0.653381,0.29552 0.255997,0.0952 0.52161,0.14867 0.792194,0.17854 0.275616,0.0236 0.384315,0.0566 0.61831,-0.0866 0.212169,-0.16169 0.279053,-0.40416 0.320395,-0.65519 0.03419,-0.29287 0.02925,-0.58857 0.02892,-0.88293 -0.03962,-0.34167 -0.0866,-0.68176 -0.112501,-1.02493 -0.0037,-0.32908 -0.03818,-0.65282 -0.08601,-0.97793 -0.02745,-0.23013 -0.04741,-0.45767 -0.102749,-0.68297 0,0 0.132236,-0.003 0.132236,-0.003 v 0 c 0.05503,0.22573 0.07468,0.45377 0.102301,0.68422 0.04773,0.32541 0.08225,0.6495 0.08588,0.97885 0.02582,0.34353 0.07322,0.6839 0.112704,1.02591 2.65e-4,0.29508 0.0054,0.59149 -0.02867,0.8851 -0.04149,0.25412 -0.108771,0.5 -0.320845,0.66638 -0.263527,0.16962 -0.58239,0.11089 -0.880665,0.0924 -0.270725,-0.031 -0.535959,-0.0866 -0.792533,-0.18054 -0.232704,-0.0643 -0.45752,-0.15918 -0.654272,-0.30106 -0.104111,-0.0856 -0.466196,-0.36106 -0.04162,-0.35323 0.215109,0.0341 0.424167,0.11065 0.639127,0.14932 0.253913,0.0742 0.515861,0.10597 0.770345,0.17916 0.217565,0.0522 0.44858,0.0987 0.647859,0.10851 0.08602,-0.005 0.393944,0.0143 0.275654,-0.13917 -0.205931,-0.18819 -0.429819,-0.35578 -0.633458,-0.54678 -0.192167,-0.16405 -0.382675,-0.32975 -0.557538,-0.51243 -0.19848,-0.19051 -0.359719,-0.41346 -0.553013,-0.60897 -0.217416,-0.24734 -0.449694,-0.48164 -0.670653,-0.72594 -0.196371,-0.21829 -0.386821,-0.44253 -0.534675,-0.6976 -0.159478,-0.23974 -0.298593,-0.49318 -0.456454,-0.73415 -0.135943,-0.23915 -0.288843,-0.46848 -0.400479,-0.72091 -0.129074,-0.2789 -0.265464,-0.55508 -0.356012,-0.84987 -0.09263,-0.34612 -0.166027,-0.69765 -0.209466,-1.05359 -0.05228,-0.36399 -0.102679,-0.72684 -0.127767,-1.09399 -0.0417,-0.38159 -0.06604,-0.76021 -0.0084,-1.1426 0.04545,-0.42784 0.113495,-0.85282 0.147844,-1.28182 0.06612,-0.42957 0.16334,-0.85343 0.268311,-1.27498 0.110871,-0.40667 0.221758,-0.81306 0.388292,-1.20163 0.139859,-0.35324 0.297685,-0.70169 0.495374,-1.02658 0.176416,-0.3097 0.373935,-0.60657 0.60955,-0.87526 0.26181,-0.30375 0.547285,-0.58923 0.881811,-0.81359 0,0 0.131678,0.013 0.131678,0.013 z"
       inkscape:connector-curvature="0" />
    <path
       style="opacity:1;fill:none;fill-opacity:1;fill-rule:nonzero;stroke:#f81786;stroke-width:1;stroke-linecap:round;stroke-linejoin:round;stroke-miterlimit:4;stroke-dasharray:none;stroke-dashoffset:0;stroke-opacity:1;paint-order:markers fill stroke"
       id="path5037"
       d="m 138.03455,173.3679 c -0.23489,0.19615 -0.44012,0.4249 -0.65097,0.64601 -0.17873,0.23139 -0.34469,0.47322 -0.49898,0.72157 -0.15846,0.27446 -0.31606,0.54935 -0.47706,0.82233 -0.19231,0.32384 -0.32444,0.67826 -0.4871,1.01715 -0.14662,0.35941 -0.29741,0.71692 -0.43751,1.07893 -0.14395,0.35907 -0.26314,0.72743 -0.39221,1.09197 -0.13778,0.33817 -0.23594,0.69014 -0.36201,1.03246 -0.11845,0.33625 -0.21975,0.67795 -0.32482,1.01851 -0.0928,0.33292 -0.19768,0.6621 -0.27585,0.99893 -0.0826,0.32037 -0.15492,0.64307 -0.23349,0.96436 -0.0776,0.31836 -0.15551,0.63642 -0.22442,0.95683 -0.0734,0.33672 -0.12382,0.67683 -0.17885,1.01676 -0.0616,0.34706 -0.0895,0.69822 -0.10445,1.04996 0.002,0.34166 -0.0406,0.68056 -0.0676,1.02056 -0.027,0.34513 -0.0319,0.69138 -0.0354,1.03738 -0.002,0.37231 -0.002,0.74463 -0.002,1.11694 0.005,0.37805 -0.0109,0.75657 0.0117,1.13409 0.0317,0.37838 0.0554,0.7568 0.0995,1.13396 0.0333,0.37865 0.0743,0.75611 0.11552,1.13398 0.0303,0.36135 0.0889,0.71959 0.15039,1.07672 0.0439,0.34781 0.10785,0.69254 0.14727,1.04095 0.0544,0.32448 0.0949,0.65071 0.14732,0.97547 0.0528,0.31546 0.11576,0.6281 0.14827,0.94663 0.0513,0.31942 0.0856,0.64069 0.13616,0.96018 0.0376,0.33642 0.1269,0.66331 0.18991,0.9951 0.0776,0.32864 0.14881,0.6587 0.22621,0.98735 0.0661,0.32311 0.16731,0.63751 0.24116,0.95873 0.0773,0.31474 0.18445,0.62132 0.28622,0.92882 0.092,0.30487 0.1677,0.6145 0.25142,0.92181 0.089,0.30851 0.18323,0.61545 0.27325,0.92371 0.10563,0.32333 0.21545,0.6452 0.322,0.96827 0.11214,0.32893 0.23534,0.65374 0.36003,0.97806 0.12981,0.3146 0.26843,0.62556 0.41579,0.93241 0.13019,0.31808 0.29445,0.62022 0.43592,0.93288 0.13382,0.31389 0.30187,0.6102 0.47622,0.90281 0.18522,0.27701 0.35401,0.5627 0.51368,0.85501 0.15919,0.2787 0.33857,0.54551 0.51912,0.8107 0.19088,0.26106 0.37138,0.5295 0.56345,0.78968 0.1787,0.25865 0.37585,0.50351 0.56751,0.75248 0.20036,0.24464 0.41938,0.47442 0.6355,0.70542 0.20662,0.21776 0.39365,0.45298 0.59288,0.67748 0.1829,0.20372 0.37503,0.39884 0.56756,0.59339 0.17774,0.18778 0.368,0.36223 0.55539,0.53986 0.13298,0.0951 0.22927,0.23958 0.37203,0.32017 0.0616,0.003 0.0527,0.005 -0.0228,-0.0165 0,0 0.0936,0.009 0.0936,0.009 v 0 c -0.1373,0.0253 -0.0824,0.0288 -0.16419,0.017 -0.14071,-0.0847 -0.23952,-0.22528 -0.37157,-0.32237 -0.18764,-0.17744 -0.3771,-0.35274 -0.55519,-0.54018 -0.19257,-0.19467 -0.3847,-0.38995 -0.5675,-0.5939 -0.19899,-0.22458 -0.38601,-0.4597 -0.59273,-0.67725 -0.21616,-0.23129 -0.4355,-0.4611 -0.63557,-0.70631 -0.19164,-0.24903 -0.38871,-0.49402 -0.56747,-0.75268 -0.19187,-0.26042 -0.37275,-0.52871 -0.56343,-0.79002 -0.18055,-0.26552 -0.36026,-0.53241 -0.51916,-0.8116 -0.15975,-0.29212 -0.3287,-0.57759 -0.51358,-0.85468 -0.1745,-0.29286 -0.34226,-0.58968 -0.47621,-0.90384 -0.14177,-0.31247 -0.30556,-0.61475 -0.43594,-0.93267 -0.14751,-0.30704 -0.28603,-0.61831 -0.41586,-0.93316 -0.1247,-0.32447 -0.24783,-0.64945 -0.36,-0.97851 -0.10664,-0.32316 -0.21652,-0.64514 -0.32217,-0.96858 -0.09,-0.30834 -0.18433,-0.6153 -0.27332,-0.92388 -0.0835,-0.30718 -0.15929,-0.61663 -0.25129,-0.92131 -0.10193,-0.30775 -0.20906,-0.61465 -0.28628,-0.92969 -0.074,-0.32117 -0.17494,-0.6356 -0.24109,-0.95868 -0.0773,-0.3288 -0.1488,-0.65894 -0.22615,-0.98776 -0.0632,-0.33185 -0.15234,-0.65888 -0.19003,-0.99538 -0.0505,-0.31965 -0.085,-0.64109 -0.13619,-0.96069 -0.0326,-0.31833 -0.0956,-0.63079 -0.14822,-0.9461 -0.0525,-0.32488 -0.0929,-0.65125 -0.14722,-0.9759 -0.0395,-0.34821 -0.10324,-0.6928 -0.14722,-1.04042 -0.0615,-0.35731 -0.11984,-0.71576 -0.15026,-1.0773 -0.0413,-0.37784 -0.0822,-0.75527 -0.11552,-1.1339 -0.0441,-0.37733 -0.0678,-0.75593 -0.0995,-1.13448 -0.0226,-0.37771 -0.007,-0.75641 -0.0118,-1.13464 -2.2e-4,-0.37234 -7.9e-4,-0.74469 0.002,-1.11703 0.003,-0.34622 0.008,-0.6927 0.0354,-1.03803 0.0269,-0.33989 0.0698,-0.67868 0.0676,-1.02022 0.0149,-0.35211 0.043,-0.70361 0.10451,-1.05105 0.055,-0.34009 0.10533,-0.68037 0.17877,-1.01723 0.0687,-0.32054 0.14673,-0.63866 0.22431,-0.9571 0.0788,-0.3212 0.15081,-0.64395 0.23357,-0.96425 0.0783,-0.33703 0.18304,-0.66647 0.27596,-0.99959 0.10512,-0.3407 0.20656,-0.68252 0.32486,-1.01899 0.12624,-0.34225 0.22426,-0.69423 0.36211,-1.03236 0.12942,-0.3645 0.24825,-0.73308 0.39227,-1.09223 0.14015,-0.36223 0.29119,-0.71987 0.43754,-1.07965 0.16307,-0.33894 0.29483,-0.69372 0.48691,-1.01795 0.16091,-0.27304 0.31858,-0.54791 0.47674,-0.82255 0.15442,-0.24895 0.32094,-0.49102 0.49921,-0.72348 0.211,-0.22113 0.41633,-0.44982 0.65033,-0.64712 0,0 0.0931,0.008 0.0931,0.008 z"
       inkscape:connector-curvature="0" />
  </g>
</svg>
