<?xml version="1.0" encoding="UTF-8" standalone="no"?>
<!-- Created with Inkscape (http://www.inkscape.org/) -->

<svg
   xmlns:dc="http://purl.org/dc/elements/1.1/"
   xmlns:cc="http://creativecommons.org/ns#"
   xmlns:rdf="http://www.w3.org/1999/02/22-rdf-syntax-ns#"
   xmlns:svg="http://www.w3.org/2000/svg"
   xmlns="http://www.w3.org/2000/svg"
   xmlns:sodipodi="http://sodipodi.sourceforge.net/DTD/sodipodi-0.dtd"
   xmlns:inkscape="http://www.inkscape.org/namespaces/inkscape"
   width="297mm"
   height="210mm"
   viewBox="0 0 297 210"
   version="1.1"
   id="svg8"
   inkscape:version="0.92.1 r15371"
   sodipodi:docname="combined-example.svg">
  <defs
     id="defs2" />
  <sodipodi:namedview
     id="base"
     pagecolor="#ffffff"
     bordercolor="#666666"
     borderopacity="1.0"
     inkscape:pageopacity="0.0"
     inkscape:pageshadow="2"
     inkscape:zoom="0.98994949"
     inkscape:cx="575.35244"
     inkscape:cy="465.82689"
     inkscape:document-units="mm"
     inkscape:current-layer="layer1"
     showgrid="false"
     inkscape:window-width="1920"
     inkscape:window-height="1046"
     inkscape:window-x="-11"
     inkscape:window-y="-11"
     inkscape:window-maximized="1" />
  <metadata
     id="metadata5">
    <rdf:RDF>
      <cc:Work
         rdf:about="">
        <dc:format>image/svg+xml</dc:format>
        <dc:type
           rdf:resource="http://purl.org/dc/dcmitype/StillImage" />
        <dc:title></dc:title>
      </cc:Work>
    </rdf:RDF>
  </metadata>
  <g
     inkscape:label="Layer 1"
     inkscape:groupmode="layer"
     id="layer1"
     transform="translate(0,-87)">
    <path
       style="opacity:1;fill:#da03ae;fill-opacity:1;fill-rule:nonzero;stroke:#000000;stroke-width:1;stroke-linecap:round;stroke-linejoin:round;stroke-miterlimit:4;stroke-dasharray:none;stroke-dashoffset:0;stroke-opacity:1;paint-order:markers fill stroke"
       id="path4728"
       d="m 76.155126,224.0341 c -0.384771,0.63386 -0.802733,1.25669 -0.963465,1.98926 -0.100502,0.53347 -0.0053,1.03786 0.124966,1.55235 0.08825,0.49736 0.238088,0.97942 0.335028,1.47504 0.14215,0.45939 0.332148,0.90308 0.519198,1.34594 0.201316,0.53061 0.472551,1.03012 0.676888,1.55929 0.26425,0.57611 0.380945,1.20239 0.544722,1.81118 0.11389,0.66137 0.367128,1.28397 0.546573,1.92722 0.196634,0.63596 0.480582,1.24288 0.782029,1.83529 0.252413,0.56672 0.59263,1.09047 0.969484,1.5815 0.399309,0.48062 0.854139,0.90618 1.339615,1.29739 0.537829,0.43054 1.044731,0.89528 1.587179,1.32 0.572876,0.4572 1.221637,0.81411 1.882905,1.12635 0.840317,0.36952 1.716979,0.643 2.611998,0.84203 1.038532,0.23747 2.088722,0.42959 3.142128,0.58892 1.073288,0.17897 2.132717,0.42368 3.210889,0.57285 1.102653,0.2004 2.217822,0.30921 3.328402,0.45382 1.155137,0.11625 2.304201,0.28066 3.460535,0.38596 1.21027,0.16519 2.42482,0.27776 3.64455,0.33772 1.23408,0.12298 2.46947,0.21893 3.70856,0.27084 1.24476,0.0435 2.49046,0.0451 3.73582,0.0474 1.30936,8e-4 2.61871,-5.2e-4 3.92806,-0.001 1.3077,-5.3e-4 2.6154,-7.9e-4 3.9231,-7.9e-4 1.28579,-6e-5 2.57159,-4e-5 3.85738,-4e-5 1.2662,0.0133 2.53352,-0.0318 3.79847,0.0322 1.23256,0.11273 2.47112,0.13667 3.70413,0.23747 1.18922,0.14067 2.38722,0.1679 3.57922,0.26908 1.17327,0.14506 2.35609,0.16727 3.53258,0.26786 1.15461,0.13202 2.31401,0.19785 3.47502,0.23489 1.15399,0.0168 2.30965,0.0606 3.46264,-0.002 1.11641,-0.0864 2.23273,-0.15374 3.34514,-0.28242 1.13873,-0.12703 2.27264,-0.29511 3.40408,-0.47531 1.09941,-0.19549 2.18242,-0.46636 3.26938,-0.7191 1.07226,-0.21568 2.14417,-0.43476 3.20752,-0.69129 1.07036,-0.25051 2.13987,-0.50649 3.20395,-0.78279 1.07845,-0.24392 2.1411,-0.5444 3.20429,-0.84572 1.07235,-0.30451 2.13941,-0.62528 3.20404,-0.95597 1.00925,-0.30315 2.02834,-0.56609 3.05696,-0.79428 0.96731,-0.2477 1.93652,-0.48035 2.91024,-0.70081 1.04064,-0.23415 2.08582,-0.44385 3.13364,-0.64353 0.99513,-0.24437 2.00651,-0.40471 3.01598,-0.5754 1.03507,-0.13391 2.07316,-0.24061 3.11003,-0.36246 0.95943,-0.0986 1.92172,-0.1232 2.88037,-0.22921 0.89927,-0.11414 1.80476,-0.15781 2.7102,-0.18243 0.92976,0.0191 1.85174,-0.0476 2.776,-0.13774 0.93195,-0.1012 1.86546,-0.21599 2.79207,-0.36035 1.01298,-0.15364 2.02724,-0.30212 3.03616,-0.48102 0.9992,-0.18336 1.98727,-0.42706 2.96985,-0.68431 0.94953,-0.31632 1.91339,-0.58738 2.85245,-0.93407 0.92619,-0.36755 1.85139,-0.7359 2.74602,-1.17574 0.86021,-0.3648 1.69534,-0.77597 2.47276,-1.29509 0.57669,-0.44338 1.17017,-0.86576 1.68799,-1.3784 0.43476,-0.42649 0.76762,-0.94016 1.05841,-1.47175 0.28723,-0.49769 0.51376,-1.03168 0.69333,-1.57715 0.15179,-0.50892 0.17914,-1.04031 0.19673,-1.56752 0.05,-0.63217 -0.0294,-1.25186 -0.11425,-1.87622 -0.15421,-0.72248 -0.30684,-1.44427 -0.50823,-2.15534 -0.21932,-0.79653 -0.45519,-1.58694 -0.81742,-2.33096 -0.32851,-0.77912 -0.72485,-1.5222 -1.20392,-2.21834 -0.42295,-0.71479 -0.85664,-1.42321 -1.33477,-2.10258 -0.4835,-0.75532 -1.14629,-1.36671 -1.74098,-2.03037 -0.61301,-0.67702 -1.30713,-1.2667 -2.00431,-1.85314 -0.71682,-0.58173 -1.48066,-1.1001 -2.23895,-1.62513 -0.80724,-0.55563 -1.63492,-1.07961 -2.46648,-1.59781 -0.83991,-0.55368 -1.75063,-0.97791 -2.64326,-1.43658 -0.89876,-0.46144 -1.82828,-0.86143 -2.77045,-1.2253 -0.94383,-0.41286 -1.89422,-0.8118 -2.86503,-1.15747 -0.97772,-0.37118 -1.96146,-0.71968 -2.95781,-1.03765 -0.95899,-0.36848 -1.94716,-0.64992 -2.91953,-0.97889 -0.9821,-0.32281 -1.94452,-0.69861 -2.93417,-0.99877 -0.97324,-0.34414 -1.95345,-0.66362 -2.94051,-0.96579 -0.98197,-0.33822 -1.96031,-0.68572 -2.94383,-1.01941 -1.03352,-0.3882 -2.07947,-0.73998 -3.09291,-1.17921 -0.99585,-0.41631 -2.01535,-0.76808 -3.02753,-1.1411 -0.96505,-0.43155 -1.97343,-0.74756 -2.96839,-1.09946 -1.05223,-0.33287 -2.0914,-0.70369 -3.15181,-1.01037 -1.11072,-0.26994 -2.22738,-0.51782 -3.35428,-0.71044 -1.14445,-0.24597 -2.30915,-0.36535 -3.46742,-0.52457 -1.14669,-0.1621 -2.30469,-0.20248 -3.46089,-0.22939 -1.10319,-0.0253 -2.20225,0.11023 -3.30236,0.17772 -1.07259,0.0442 -2.13843,0.18516 -3.19912,0.34427 -1.11366,0.15024 -2.22018,0.35683 -3.31844,0.59415 -1.11843,0.23619 -2.2322,0.49701 -3.33952,0.78098 -0.99958,0.26508 -1.99938,0.53012 -2.99687,0.80323 -1.01249,0.29932 -2.01844,0.62202 -3.03389,0.91112 -1.01825,0.29762 -2.04413,0.57091 -3.07472,0.82275 -1.07635,0.27036 -2.14912,0.55731 -3.23172,0.80187 -1.13211,0.28333 -2.27426,0.51845 -3.41602,0.75778 -1.10492,0.20992 -2.20983,0.41581 -3.32807,0.54024 -1.11928,0.19204 -2.25311,0.25773 -3.3796,0.38588 -1.04812,0.1431 -2.10317,0.21513 -3.15957,0.25667 -0.93136,0.0202 -1.85916,0.0109 -2.7865,0.10504 -0.84788,0.1047 -1.69253,0.16392 -2.5444,0.0959 -0.76642,-0.0845 -1.53588,-0.12851 -2.30619,-0.15494 -0.72449,-0.0282 -1.44399,-0.0363 -2.1637,0.0544 -0.69816,0.0991 -1.40094,0.14952 -2.10513,0.17595 -0.65372,-0.0181 -1.29589,0.0501 -1.94178,0.13944 -0.63247,0.0553 -1.249819,0.2022 -1.876762,0.29668 -0.646084,0.13901 -1.293593,0.26052 -1.918679,0.47879 -0.644091,0.18111 -1.275445,0.39408 -1.90069,0.6315 -0.610473,0.25913 -1.21139,0.53781 -1.799871,0.84367 -0.583803,0.27026 -1.141946,0.5861 -1.700297,0.90384 -0.590515,0.33316 -1.181123,0.66379 -1.767734,1.00423 -0.560885,0.33193 -1.097404,0.69522 -1.614961,1.08992 -0.455845,0.37074 -0.920771,0.73155 -1.347663,1.13574 -0.434496,0.39123 -0.840875,0.80919 -1.243137,1.23354 -0.438481,0.51785 -0.968094,0.94013 -1.455756,1.40675 -0.460206,0.46307 -0.901636,0.94131 -1.306745,1.45314 -0.439719,0.52081 -0.858483,1.05669 -1.278022,1.59369 -0.408771,0.53137 -0.825995,1.05871 -1.219912,1.60143 -0.381971,0.60575 -0.775877,1.20799 -1.114216,1.83937 -0.378145,0.63972 -0.703225,1.30467 -1.024239,1.97397 -0.12927,0.32346 -0.291137,0.63025 -0.460187,0.93401 -0.09202,0.16508 -0.325467,0.0349 -0.23345,-0.13013 v 0 c 0.16683,-0.29878 0.32535,-0.6011 0.45266,-0.91948 0.32285,-0.67293 0.649769,-1.34154 1.029776,-1.98487 0.345414,-0.6413 0.743191,-1.25509 1.133425,-1.86996 0.396248,-0.54491 0.814673,-1.07517 1.225534,-1.6089 0.419918,-0.53741 0.839031,-1.07377 1.279075,-1.59502 0.412862,-0.52144 0.862497,-1.00896 1.33168,-1.48051 0.485267,-0.46286 1.010431,-0.88318 1.446406,-1.39736 0.405595,-0.42787 0.81575,-0.84894 1.253429,-1.24383 0.434081,-0.41034 0.905719,-0.77785 1.369277,-1.1541 0.526518,-0.40146 1.072383,-0.77097 1.642896,-1.10858 0.587332,-0.34069 1.178602,-0.67172 1.769702,-1.00535 0.561377,-0.31929 1.122405,-0.63699 1.709262,-0.90872 0.597794,-0.31035 1.207926,-0.59379 1.828194,-0.85636 0.62757,-0.23829 1.261202,-0.45253 1.907746,-0.63406 0.64113,-0.22226 1.303978,-0.35025 1.966706,-0.49066 0.627983,-0.0945 1.246423,-0.24185 1.879943,-0.29713 0.65461,-0.0905 1.30593,-0.15946 1.96838,-0.14177 0.69639,-0.0261 1.39137,-0.076 2.08179,-0.17405 0.73388,-0.0921 1.46753,-0.0857 2.20622,-0.0564 0.77437,0.0266 1.54791,0.0708 2.31838,0.15565 0.83571,0.0673 1.6642,0.007 2.49606,-0.0954 0.93287,-0.0945 1.8661,-0.0867 2.80298,-0.1062 1.04984,-0.0412 2.09832,-0.11285 3.13991,-0.25516 1.12676,-0.12779 2.26069,-0.19422 3.38023,-0.38596 1.10978,-0.12323 2.2062,-0.32817 3.30278,-0.53619 1.14043,-0.23896 2.2812,-0.47392 3.41198,-0.7569 1.08113,-0.24395 2.15227,-0.53104 3.22716,-0.8008 1.02736,-0.25091 2.04994,-0.52353 3.06499,-0.82018 1.01637,-0.28912 2.02303,-0.61257 3.03647,-0.91184 0.99891,-0.27342 2.00008,-0.5389 3.00107,-0.80434 1.11065,-0.28469 2.22768,-0.54647 3.34947,-0.78333 1.10386,-0.2383 2.2159,-0.44623 3.33521,-0.59721 1.06841,-0.16027 2.14203,-0.30199 3.22241,-0.34673 1.10762,-0.0679 2.21418,-0.20433 3.32494,-0.17815 1.16629,0.0272 2.33438,0.0683 3.49107,0.23181 1.16116,0.15961 2.32876,0.27942 3.47608,0.52591 1.13671,0.19453 2.26324,0.44413 3.38351,0.71714 1.06532,0.3084 2.10958,0.68032 3.16664,1.01514 0.99603,0.35236 2.00561,0.66858 2.9717,1.10065 1.01684,0.37479 2.04105,0.72823 3.04141,1.14666 1.00663,0.43656 2.04595,0.78529 3.07247,1.17133 0.98099,0.33283 1.95686,0.67932 2.93619,1.01695 0.98685,0.30211 1.96696,0.62128 2.9399,0.9656 0.99224,0.30133 1.9576,0.67719 2.94221,1.00136 0.97086,0.32859 1.95768,0.60926 2.91513,0.97743 0.99918,0.31888 1.98575,0.66832 2.96625,1.04051 0.97287,0.34685 1.92589,0.74552 2.87163,1.15991 0.95096,0.36731 1.88911,0.77122 2.7963,1.2369 0.89916,0.46203 1.81631,0.88992 2.66247,1.44747 0.8352,0.5205 1.66649,1.04683 2.47726,1.6049 0.76515,0.52979 1.5358,1.05302 2.25886,1.64034 0.70678,0.59452 1.41002,1.19291 2.03135,1.87935 0.60137,0.6717 1.27176,1.29031 1.76048,2.0549 0.47844,0.6803 0.91399,1.38871 1.33641,2.10495 0.48604,0.70753 0.89066,1.46134 1.2241,2.25298 0.36781,0.75881 0.61191,1.56274 0.83418,2.37497 0.20443,0.7232 0.36059,1.45707 0.51589,2.19211 0.0869,0.63912 0.16664,1.27418 0.11654,1.92117 -0.0186,0.55266 -0.0492,1.10936 -0.21006,1.64236 -0.18558,0.56059 -0.41724,1.11003 -0.71275,1.62183 -0.30413,0.55374 -0.65112,1.08894 -1.10485,1.53331 -0.53051,0.52408 -1.13626,0.95837 -1.7276,1.41071 -0.78759,0.52492 -1.63177,0.94404 -2.50321,1.31262 -0.90307,0.44352 -1.83642,0.81616 -2.77137,1.18662 -0.94731,0.34937 -1.91923,0.62375 -2.8773,0.94188 -0.98956,0.25893 -1.98458,0.50442 -2.99089,0.68892 -1.01081,0.17897 -2.02685,0.32817 -3.04171,0.48194 -0.93172,0.14472 -1.87015,0.26074 -2.8072,0.36227 -0.93044,0.0908 -1.85875,0.1578 -2.79469,0.1389 -0.89806,0.0244 -1.79616,0.0676 -2.68809,0.18091 -0.95807,0.10589 -1.91966,0.13132 -2.87854,0.229 -1.03241,0.12132 -2.066,0.22778 -3.09668,0.36055 -1.00765,0.17035 -2.01717,0.33048 -3.01051,0.57441 -1.04482,0.19906 -2.08701,0.40813 -3.12465,0.64166 -0.97411,0.22048 -1.94365,0.45346 -2.91139,0.70107 -1.02145,0.22643 -2.03333,0.48769 -3.03554,0.78859 -1.06677,0.33132 -2.13597,0.65271 -3.21045,0.95787 -1.0651,0.3018 -2.12963,0.60291 -3.21,0.84727 -1.0656,0.27658 -2.13657,0.53311 -3.20846,0.78392 -1.06409,0.25653 -2.1366,0.47628 -3.20965,0.6918 -1.09308,0.2541 -2.18219,0.52649 -3.28786,0.72272 -1.13521,0.18079 -2.2729,0.34934 -3.41541,0.47686 -1.11786,0.12928 -2.23962,0.19717 -3.3615,0.2838 -1.16067,0.062 -2.32387,0.0198 -3.48552,0.002 -1.16577,-0.0372 -2.32996,-0.10323 -3.48931,-0.23573 -1.17638,-0.10103 -2.35924,-0.1224 -3.53241,-0.26785 -1.19168,-0.10157 -2.38949,-0.12799 -3.5784,-0.269 -1.23021,-0.101 -2.46609,-0.12398 -3.69586,-0.23693 -1.26038,-0.0644 -2.52327,-0.0179 -3.78491,-0.0318 -1.28579,0 -2.57158,-2e-5 -3.85736,3e-5 -1.30766,8e-5 -2.61532,2.1e-4 -3.92298,8e-4 -1.30957,7.9e-4 -2.61914,0.002 -3.9287,0.001 -1.24893,-0.002 -2.4982,-0.004 -3.74651,-0.0477 -1.23973,-0.052 -2.47582,-0.1474 -3.7105,-0.27093 -1.22343,-0.0602 -2.44175,-0.17259 -3.65567,-0.3385 -1.159754,-0.10571 -2.312247,-0.27035 -3.470794,-0.38709 -1.111298,-0.14471 -2.227197,-0.25358 -3.330557,-0.45411 -1.079256,-0.14963 -2.13996,-0.39336 -3.214216,-0.57333 -1.059455,-0.16044 -2.11573,-0.35344 -3.160255,-0.59231 -0.91417,-0.20402 -1.809962,-0.48278 -2.668056,-0.86125 -0.679029,-0.32101 -1.344906,-0.68819 -1.933503,-1.15757 -0.54342,-0.42555 -1.051589,-0.89071 -1.590138,-1.32235 -0.501912,-0.40471 -0.972135,-0.84526 -1.384125,-1.34304 -0.385451,-0.50494 -0.736648,-1.04089 -0.99549,-1.62281 -0.309041,-0.60843 -0.600562,-1.23141 -0.801267,-1.88477 -0.178742,-0.64418 -0.433948,-1.26713 -0.547179,-1.92943 -0.161351,-0.59978 -0.275572,-1.21703 -0.536033,-1.78454 -0.20244,-0.52686 -0.474575,-1.02307 -0.673753,-1.55151 -0.193652,-0.45991 -0.392713,-0.92002 -0.53525,-1.3986 -0.09554,-0.49083 -0.24497,-0.96804 -0.3318,-1.46063 -0.140574,-0.55519 -0.236406,-1.10237 -0.126596,-1.67674 0.176176,-0.76322 0.59213,-1.41914 1.001805,-2.07873 0.104831,-0.15725 0.327213,-0.009 0.222383,0.14825 z"
       inkscape:connector-curvature="0" />
    <path
       style="opacity:1;fill:#da03ae;fill-opacity:1;fill-rule:nonzero;stroke:#0a34ff;stroke-width:1;stroke-linecap:round;stroke-linejoin:round;stroke-miterlimit:4;stroke-dasharray:none;stroke-dashoffset:0;stroke-opacity:1;paint-order:markers fill stroke"
       id="path4730"
       d="m 98.786716,162.76832 c 0.105545,0.74667 0.166558,1.49835 0.206388,2.25107 0.02779,0.59096 0.03059,1.18267 0.03203,1.77416 2.65e-4,0.53483 -7.94e-4,1.06966 -0.0013,1.60449 -5.29e-4,0.53366 -5.29e-4,1.06732 -5.29e-4,1.60098 0.0149,0.52902 -0.03391,1.06156 0.03101,1.58756 0.103632,0.54362 0.171916,1.0912 0.205934,1.6433 0.02894,0.63117 0.161427,1.25103 0.225102,1.87969 0.07037,0.64055 0.16393,1.28515 0.295465,1.91671 0.122338,0.59913 0.242714,1.1944 0.428844,1.77753 0.19803,0.60945 0.42359,1.20992 0.64303,1.81215 0.20359,0.60621 0.37024,1.22281 0.55898,1.83355 0.2066,0.642 0.43522,1.2791 0.60594,1.93181 0.19575,0.66845 0.39613,1.33701 0.54545,2.01758 0.17812,0.745 0.41832,1.47217 0.6471,2.20249 0.2428,0.77052 0.53512,1.5237 0.78897,2.29036 0.26967,0.74654 0.63021,1.45595 0.881,2.20955 0.27459,0.7548 0.48245,1.52963 0.69395,2.30361 0.19738,0.79545 0.35173,1.60349 0.48909,2.4117 0.12429,0.79466 0.27722,1.58235 0.36483,2.38258 0.0901,0.72195 0.26946,1.42525 0.41786,2.13585 0.17339,0.66402 0.35952,1.32458 0.52508,1.99065 0.10543,0.67944 0.26072,1.34919 0.35949,2.0298 0.10151,0.66047 0.19291,1.32779 0.33468,1.98136 0.12888,0.6405 0.26374,1.27842 0.40179,1.91721 0.11481,0.64965 0.28161,1.28611 0.36491,1.9415 0.13327,0.65495 0.23275,1.31468 0.37426,1.96781 0.17677,0.5895 0.34825,1.18016 0.58733,1.74794 0.25126,0.60087 0.4822,1.20995 0.75467,1.8017 0.27007,0.61692 0.54911,1.22771 0.84496,1.83278 0.31352,0.58502 0.65614,1.15428 1.05321,1.68652 0.42096,0.53589 0.82429,1.08331 1.26903,1.6003 0.41308,0.53778 0.84034,1.06329 1.24094,1.61043 0.39182,0.52164 0.75503,1.06445 1.11453,1.60877 0.33394,0.51132 0.58691,1.06328 0.81822,1.62655 0.21901,0.5113 0.33724,1.05594 0.51624,1.57944 0.14187,0.47624 0.33452,0.93226 0.52702,1.38948 0.24153,0.52775 0.5096,1.04248 0.75984,1.56601 0.18982,0.45122 0.3961,0.89534 0.61621,1.33254 0.22917,0.30887 0.38582,0.66151 0.62507,0.96301 0.22562,0.34363 0.45488,0.68778 0.65723,1.04662 0.25988,0.38361 0.51129,0.7718 0.76658,1.15826 0.21669,0.36852 0.41822,0.7435 0.62213,1.11929 0.1705,0.36156 0.35171,0.71754 0.53783,1.07165 0.19751,0.44989 0.39317,0.90086 0.61174,1.34108 0.26277,0.52034 0.49261,1.05422 0.70767,1.59588 0.17389,0.4177 0.44741,0.76646 0.72458,1.11719 0.14487,0.15353 0.30591,0.29058 0.46333,0.43079 0.14113,0.1257 -0.0366,0.32528 -0.17776,0.19958 v 0 c -0.16901,-0.15055 -0.34219,-0.29753 -0.49533,-0.46475 -0.29287,-0.37124 -0.58021,-0.74224 -0.76324,-1.18423 -0.21215,-0.53492 -0.43907,-1.062 -0.69869,-1.57572 -0.21723,-0.43853 -0.41353,-0.88699 -0.60891,-1.33552 -0.18543,-0.35312 -0.36585,-0.70829 -0.53617,-1.06856 -0.20002,-0.36917 -0.39773,-0.73745 -0.61024,-1.09945 -0.2585,-0.39192 -0.51417,-0.78486 -0.77648,-1.17448 -0.19483,-0.34749 -0.41794,-0.67954 -0.63461,-1.01274 -0.24676,-0.31801 -0.41926,-0.6808 -0.65347,-1.00773 -0.22087,-0.43886 -0.42793,-0.88472 -0.61863,-1.3375 -0.25182,-0.52743 -0.5223,-1.04568 -0.76502,-1.57753 -0.19488,-0.46309 -0.38965,-0.92516 -0.53378,-1.4073 -0.17493,-0.51931 -0.29523,-1.05695 -0.51041,-1.56386 -0.22439,-0.54746 -0.46966,-1.08376 -0.79397,-1.58071 -0.35712,-0.54074 -0.71779,-1.08007 -1.10716,-1.59817 -0.39647,-0.54152 -0.81953,-1.06145 -1.22793,-1.59405 -0.44866,-0.52181 -0.85605,-1.07393 -1.28068,-1.61484 -0.4065,-0.54584 -0.75854,-1.12876 -1.07903,-1.72886 -0.29673,-0.607 -0.57661,-1.2197 -0.84766,-1.83848 -0.27326,-0.59467 -0.50633,-1.20607 -0.75827,-1.80989 -0.2444,-0.5833 -0.42284,-1.18895 -0.60213,-1.79485 -0.14313,-0.66073 -0.24423,-1.3281 -0.3782,-1.99083 -0.0817,-0.64777 -0.2485,-1.27643 -0.361,-1.91863 -0.13797,-0.63881 -0.27274,-1.27681 -0.4018,-1.91726 -0.14178,-0.65991 -0.23608,-1.33272 -0.33794,-1.99941 -0.0972,-0.67188 -0.25145,-1.33283 -0.35437,-2.0037 -0.16618,-0.66938 -0.35377,-1.33302 -0.52732,-2.00048 -0.15001,-0.71904 -0.33139,-1.43081 -0.42192,-2.1614 -0.0868,-0.79501 -0.23942,-1.57741 -0.36264,-2.3669 -0.13564,-0.79961 -0.2886,-1.59897 -0.48341,-2.386 -0.21017,-0.7694 -0.41664,-1.53964 -0.6898,-2.28989 -0.2494,-0.75407 -0.61432,-1.46207 -0.88107,-2.20975 -0.25394,-0.76812 -0.54746,-1.52242 -0.79028,-2.29443 -0.23109,-0.7378 -0.47363,-1.47248 -0.65314,-2.22522 -0.14793,-0.67727 -0.34894,-1.34206 -0.54298,-2.0073 -0.1687,-0.64909 -0.39817,-1.2819 -0.60268,-1.92034 -0.18743,-0.60652 -0.35304,-1.2188 -0.55474,-1.82097 -0.22064,-0.60566 -0.44739,-1.20959 -0.646571,-1.8225 -0.188325,-0.59212 -0.312293,-1.19613 -0.43589,-1.80444 -0.132189,-0.64091 -0.228801,-1.29417 -0.299672,-1.94404 -0.06385,-0.63215 -0.197774,-1.25539 -0.225955,-1.89021 -0.03345,-0.54702 -0.102465,-1.08926 -0.204544,-1.62793 -0.06246,-0.53723 -0.02175,-1.07926 -0.0329,-1.61934 5.3e-5,-0.53373 1.24e-4,-1.06746 5.29e-4,-1.60119 5.29e-4,-0.53454 0.0016,-1.06907 0.0011,-1.6036 -0.0013,-0.58701 -0.0042,-1.17422 -0.03166,-1.7607 -0.03935,-0.74479 -0.09969,-1.48857 -0.204073,-2.22738 -0.02673,-0.18709 0.237858,-0.22489 0.264583,-0.0378 z"
       inkscape:connector-curvature="0" />
    <path
       style="opacity:1;fill:#da03ae;fill-opacity:1;fill-rule:nonzero;stroke:#0a34ff;stroke-width:1;stroke-linecap:round;stroke-linejoin:round;stroke-miterlimit:4;stroke-dasharray:none;stroke-dashoffset:0;stroke-opacity:1;paint-order:markers fill stroke"
       id="path4732"
       d="m 98.22155,161.53783 c -0.01048,-0.67889 0.0901,-1.35424 0.274865,-2.00593 0.104738,-0.45519 0.32163,-0.86789 0.620408,-1.22381 0.330751,-0.33181 0.727308,-0.589 1.098927,-0.87252 0.45243,-0.30216 0.94783,-0.5314 1.42355,-0.7943 0.45553,-0.29596 0.94561,-0.52178 1.43905,-0.74425 0.52455,-0.23352 1.05694,-0.44567 1.59383,-0.64927 0.46316,-0.21958 0.919,-0.44635 1.37068,-0.6884 0.46532,-0.26438 0.92088,-0.53978 1.39411,-0.78995 0.47334,-0.30652 0.99973,-0.51322 1.50549,-0.75769 0.52259,-0.24374 1.07178,-0.4205 1.61075,-0.62228 0.53201,-0.19037 1.07488,-0.34958 1.60684,-0.53978 0.53249,-0.17295 1.07288,-0.32594 1.61549,-0.46519 0.54256,-0.0885 1.0722,-0.23577 1.61297,-0.33392 0.53712,-0.0882 1.08202,-0.10253 1.62506,-0.1122 0.54884,0.002 1.10431,0.0978 1.63762,0.22665 0.50574,0.10532 0.99516,0.25518 1.48923,0.40272 0.48339,0.19055 0.98636,0.32375 1.45464,0.55079 0.46751,0.24407 0.93186,0.49533 1.39375,0.75026 0.54404,0.25977 1.0454,0.59645 1.57306,0.88638 0.53045,0.25054 1.07186,0.4767 1.59925,0.73366 0.53935,0.25372 1.0777,0.51093 1.60709,0.78508 0.52713,0.2385 1.06186,0.46112 1.59448,0.68778 0.589,0.24141 1.12707,0.55689 1.63233,0.94191 0.48438,0.42407 0.99381,0.82054 1.46152,1.26317 0.43238,0.35656 0.85102,0.72824 1.2603,1.111 0.44279,0.42879 0.92033,0.81844 1.3943,1.21195 0.44043,0.39183 0.86563,0.80326 1.24985,1.25108 0.32035,0.44622 0.69026,0.84971 0.99118,1.31043 0.27377,0.46324 0.57987,0.90712 0.84906,1.37328 0.28228,0.50528 0.57455,1.00407 0.87687,1.49789 0.29347,0.5481 0.64387,1.06205 0.9474,1.60436 0.25729,0.4959 0.57075,0.95852 0.84793,1.44291 0.27199,0.47248 0.52578,0.95348 0.80175,1.42358 0.29141,0.4638 0.5591,0.94307 0.80528,1.43238 0.25857,0.506 0.51538,1.01043 0.79824,1.5031 0.24061,0.47517 0.45603,0.96234 0.69601,1.43776 0.25182,0.51614 0.43124,1.06192 0.63411,1.59773 0.21623,0.52409 0.30644,1.07982 0.35592,1.64069 0.0328,0.53813 0.16036,1.06435 0.22576,1.59952 0.0421,0.47662 0.19126,0.93304 0.2629,1.40618 0.0651,0.51362 0.0701,1.03214 0.0755,1.54906 0.003,0.53452 0.001,1.06906 5.3e-4,1.60358 -7.9e-4,0.53484 -0.001,1.06967 -0.001,1.60451 -0.0467,0.54233 0.0697,1.05147 0.23085,1.56357 0.20335,0.47033 0.47767,0.9058 0.78829,1.31193 0.33296,0.40102 0.46346,0.90311 0.61637,1.38977 0.17177,0.51496 0.16532,1.06108 0.25449,1.59018 0.0801,0.54417 0.26259,1.063 0.37888,1.59926 0.059,0.40052 0.20061,0.7807 0.28725,1.17567 0.0404,0.18463 -0.22074,0.24171 -0.2611,0.0571 v 0 c -0.0861,-0.3952 -0.2292,-0.77533 -0.28737,-1.17623 -0.11671,-0.54049 -0.30178,-1.06327 -0.38131,-1.61195 -0.0849,-0.51741 -0.0825,-1.04997 -0.24583,-1.55393 -0.14351,-0.4573 -0.26149,-0.93076 -0.57399,-1.3079 -0.32769,-0.43181 -0.62064,-0.89215 -0.83062,-1.39367 -0.16908,-0.53767 -0.28971,-1.07494 -0.24318,-1.64385 1.4e-4,-0.53494 2.7e-4,-1.06988 0.001,-1.60482 8e-4,-0.53348 0.002,-1.06697 -5.3e-4,-1.60045 -0.005,-0.50451 -0.01,-1.01057 -0.0725,-1.51195 -0.0715,-0.47561 -0.22347,-0.93416 -0.26393,-1.41368 -0.0655,-0.53816 -0.1945,-1.06722 -0.22669,-1.6085 -0.0469,-0.53663 -0.13216,-1.06828 -0.33968,-1.56955 -0.19909,-0.52722 -0.37595,-1.06384 -0.62275,-1.5719 -0.23748,-0.4713 -0.45201,-0.95355 -0.68916,-1.42504 -0.28528,-0.49701 -0.54446,-1.00578 -0.80526,-1.51615 -0.24315,-0.48436 -0.50878,-0.95815 -0.79697,-1.41711 -0.27642,-0.47106 -0.53091,-0.95286 -0.80331,-1.42627 -0.27694,-0.48542 -0.59178,-0.9483 -0.84915,-1.44508 -0.30133,-0.5395 -0.65088,-1.04993 -0.94208,-1.59527 -0.30344,-0.49586 -0.5969,-0.9967 -0.88046,-1.50393 -0.26603,-0.46235 -0.57064,-0.90159 -0.84147,-1.3609 -0.29331,-0.4517 -0.65834,-0.84434 -0.9701,-1.2823 -0.37424,-0.4366 -0.78879,-0.83728 -1.2177,-1.21944 -0.478,-0.39688 -0.9594,-0.79013 -1.40614,-1.22238 -0.40972,-0.38323 -0.82932,-0.75471 -1.26167,-1.11229 -0.45971,-0.43714 -0.96377,-0.82544 -1.43971,-1.2446 -0.48719,-0.3722 -1.00628,-0.67568 -1.57489,-0.90848 -0.53875,-0.22942 -1.07991,-0.45417 -1.61277,-0.69639 -0.5273,-0.27344 -1.06396,-0.52923 -1.60127,-0.78215 -0.53111,-0.25929 -1.07724,-0.48567 -1.61089,-0.7397 -0.52758,-0.29042 -1.0295,-0.62635 -1.57345,-0.8866 -0.45791,-0.25295 -0.91847,-0.50189 -1.38191,-0.7441 -0.45361,-0.22363 -0.94566,-0.34593 -1.41385,-0.53485 -0.48966,-0.14655 -0.97447,-0.29513 -1.47594,-0.39911 -0.51045,-0.12546 -1.04411,-0.21559 -1.56961,-0.21911 -0.52865,0.009 -1.05917,0.0228 -1.58216,0.10797 -0.53452,0.0967 -1.05787,0.24316 -1.59425,0.32983 -0.53478,0.13691 -1.06722,0.28801 -1.59205,0.45802 -0.53098,0.18902 -1.07205,0.34922 -1.60305,0.5384 -0.5315,0.19841 -1.07259,0.37322 -1.5881,0.6126 -0.50305,0.24277 -1.02616,0.4486 -1.49684,0.75332 -0.47278,0.24985 -0.92779,0.5253 -1.39279,0.78924 -0.46189,0.24736 -0.92802,0.47939 -1.40215,0.70273 -0.53187,0.20153 -1.05922,0.41158 -1.57875,0.64302 -0.48692,0.21937 -0.97033,0.44214 -1.41962,0.73452 -0.46439,0.25653 -0.94721,0.48128 -1.39073,0.77289 -0.35663,0.27187 -0.736352,0.51909 -1.057358,0.83309 -0.278659,0.3229 -0.469784,0.70786 -0.566941,1.1237 -0.178512,0.62784 -0.275164,1.27875 -0.264705,1.93294 0,0.18899 -0.267269,0.18899 -0.267269,0 z"
       inkscape:connector-curvature="0" />
    <path
       style="opacity:1;fill:#da03ae;fill-opacity:1;fill-rule:nonzero;stroke:#0a34ff;stroke-width:1;stroke-linecap:round;stroke-linejoin:round;stroke-miterlimit:4;stroke-dasharray:none;stroke-dashoffset:0;stroke-opacity:1;paint-order:markers fill stroke"
       id="path4734"
       d="m 126.94827,247.39414 c 0.51283,0.64817 0.95332,1.34603 1.38415,2.04977 0.2709,0.52426 0.57039,1.03954 0.74945,1.60424 0.13137,0.50252 0.13851,1.02448 0.14691,1.54046 -0.0399,0.53595 0.0596,1.02888 0.29867,1.50783 0.24886,0.37761 0.45648,0.77112 0.66719,1.17087 0.15808,0.3926 0.36939,0.75794 0.56313,1.13347 0.16354,0.44366 0.35731,0.8766 0.47763,1.33512 0.0822,0.44353 0.23954,0.86984 0.39009,1.29405 0.21708,0.5135 0.44102,1.02408 0.7255,1.50418 0.28996,0.52522 0.54543,1.07011 0.79403,1.61614 0.20376,0.46886 0.38315,0.95287 0.62734,1.40293 0.24194,0.4836 0.51677,0.94749 0.81218,1.40006 0.27819,0.46268 0.45203,0.98378 0.60189,1.50048 0.18321,0.4519 0.33993,0.91312 0.54224,1.3571 0.17876,0.47569 0.41833,0.9243 0.56534,1.41158 0.14045,0.46603 0.32095,0.91582 0.48056,1.37496 0.18658,0.41812 0.42679,0.80955 0.70176,1.17489 0.29839,0.43139 0.62338,0.84253 0.93446,1.26436 0.30862,0.44732 0.70848,0.81978 1.10444,1.18837 0.40678,0.33374 0.8055,0.67773 1.2213,1.00119 0.4374,0.28802 0.84942,0.61303 1.28439,0.90466 0.46598,0.34303 0.9856,0.58795 1.50887,0.82675 0.53878,0.27511 1.06649,0.57133 1.60787,0.84127 0.532,0.27521 1.06308,0.55328 1.60305,0.81275 0.50847,0.23038 1.0222,0.4238 1.57106,0.52894 0.52168,0.15216 1.05189,0.25461 1.59195,0.30977 0.45841,0.11372 0.91542,0.21548 1.38547,0.26588 0.50992,0.0548 1.01303,0.0545 1.51845,-0.0275 0.53435,-0.10297 1.07593,-0.14991 1.61867,-0.17656 0.53678,-0.018 1.06199,-0.14728 1.59465,-0.21285 0.49001,-0.004 0.95693,-0.14121 1.43423,-0.23132 0.50526,-0.0876 0.99782,-0.22523 1.50661,-0.29856 0.53743,-0.10145 1.05605,-0.27021 1.58256,-0.41358 0.53523,-0.17142 1.06328,-0.36536 1.60181,-0.52616 0.54651,-0.17254 1.06519,-0.4138 1.58769,-0.64602 0.55526,-0.26589 1.06575,-0.61116 1.58739,-0.93515 0.40736,-0.26276 0.76436,-0.5864 1.13156,-0.89942 0.41423,-0.35925 0.83506,-0.71141 1.24288,-1.07757 0.46108,-0.41972 0.86809,-0.89074 1.28935,-1.34822 0.33448,-0.39256 0.69202,-0.76796 1.06853,-1.12082 0.34889,-0.38745 0.70453,-0.76721 1.05081,-1.15738 0.33825,-0.38782 0.62512,-0.79976 0.85626,-1.25948 0.19057,-0.44036 0.38613,-0.87764 0.56339,-1.32411 0.14899,-0.49992 0.30997,-0.99699 0.41591,-1.50853 0.12809,-0.52264 0.0759,-1.03327 -0.003,-1.55621 -0.10153,-0.52994 -0.0844,-1.0732 -0.16734,-1.6043 -0.0764,-0.53944 -0.21125,-1.06405 -0.33652,-1.59317 -0.0604,-0.49338 -0.22501,-0.96138 -0.3295,-1.44526 -0.0944,-0.50313 -0.10529,-1.01626 -0.11479,-1.52652 -0.006,-0.53376 -0.004,-1.06757 -0.003,-1.60135 0.003,-0.53445 -0.12653,-1.05912 -0.19114,-1.58851 -0.0589,-0.5374 -0.0677,-1.07837 -0.0739,-1.61841 0.0332,-0.49662 -0.0228,-0.97324 -0.12004,-1.45782 -0.0858,-0.46223 -0.0992,-0.9277 -0.21125,-1.38464 -0.11502,-0.41635 -0.29152,-0.80429 -0.37916,-1.23053 -0.057,-0.50801 -0.0906,-1.00948 -0.2408,-1.50083 -0.20704,-0.51337 -0.36478,-1.04691 -0.5649,-1.56241 -0.19456,-0.45271 -0.27434,-0.93985 -0.39991,-1.41369 -0.0706,-0.25946 -0.11012,-0.52506 -0.14826,-0.79066 -0.0268,-0.18709 0.23779,-0.22496 0.26457,-0.0379 v 0 c 0.0364,0.25533 0.0742,0.51066 0.14205,0.76007 0.12308,0.46447 0.20078,0.94207 0.39091,1.38595 0.20049,0.52267 0.36359,1.06087 0.57135,1.58121 0.14982,0.49975 0.19488,1.00788 0.24686,1.52478 0.0856,0.423 0.26696,0.80585 0.3769,1.22047 0.1125,0.46089 0.13061,0.92915 0.21368,1.39557 0.10046,0.50063 0.15817,0.99462 0.12525,1.50733 0.006,0.53026 0.0145,1.06145 0.072,1.58914 0.0658,0.54026 0.19818,1.07559 0.19311,1.62131 -8e-4,0.53197 -0.003,1.06397 0.003,1.59592 0.009,0.49304 0.0189,0.9889 0.10885,1.47524 0.10345,0.48212 0.26862,0.94841 0.3283,1.43997 0.12678,0.53605 0.26288,1.0678 0.34062,1.61421 0.0802,0.53202 0.0692,1.07438 0.16747,1.60516 0.083,0.5538 0.13383,1.09719 -5e-5,1.6502 -0.10968,0.52649 -0.27389,1.03876 -0.4292,1.55287 -0.18042,0.45374 -0.3792,0.89823 -0.57315,1.34579 -0.24259,0.47949 -0.54144,0.91167 -0.89499,1.31652 -0.35173,0.39631 -0.71279,0.78221 -1.068,1.17503 -0.37192,0.34823 -0.72467,0.71907 -1.0547,1.10688 -0.42735,0.46338 -0.83962,0.94117 -1.30746,1.36608 -0.41003,0.36721 -0.8318,0.7217 -1.2481,1.08214 -0.37784,0.32094 -0.74461,0.65388 -1.16381,0.92295 -0.53216,0.33019 -1.05284,0.68239 -1.61983,0.95231 -0.53298,0.23677 -1.06226,0.48242 -1.61985,0.65791 -0.54071,0.16094 -1.07042,0.35681 -1.60801,0.52793 -0.53708,0.14598 -1.06619,0.31833 -1.61471,0.42023 -0.50497,0.0723 -0.99351,0.21049 -1.49514,0.29666 -0.48274,0.0908 -0.95565,0.2294 -1.45111,0.23395 -0.53914,0.0661 -1.07064,0.19762 -1.61417,0.21451 -0.53286,0.0261 -1.06456,0.0721 -1.58914,0.17348 -0.52909,0.0851 -1.05611,0.087 -1.58968,0.0294 -0.46937,-0.0508 -0.92729,-0.14741 -1.3841,-0.26573 -0.54773,-0.0563 -1.08629,-0.15802 -1.61526,-0.31321 -0.57118,-0.1106 -1.10728,-0.30968 -1.63632,-0.55051 -0.54101,-0.26031 -1.07348,-0.53849 -1.60656,-0.81447 -0.53847,-0.26889 -1.06396,-0.56266 -1.59952,-0.83727 -0.53646,-0.24491 -1.06878,-0.49705 -1.54689,-0.84802 -0.43973,-0.29573 -0.85745,-0.62331 -1.2995,-0.91559 -0.42204,-0.32835 -0.82671,-0.67765 -1.23945,-1.01665 -0.40744,-0.38045 -0.81945,-0.7642 -1.13736,-1.22532 -0.31029,-0.42154 -0.63549,-0.83166 -0.93319,-1.26266 -0.2898,-0.38855 -0.54674,-0.80204 -0.74035,-1.24753 -0.16021,-0.46287 -0.34259,-0.9162 -0.48407,-1.38581 -0.14176,-0.4761 -0.38037,-0.91261 -0.55264,-1.37772 -0.20685,-0.45606 -0.36981,-0.92872 -0.55567,-1.39343 -0.1418,-0.49156 -0.30666,-0.98767 -0.569,-1.42872 -0.29918,-0.45884 -0.57815,-0.92895 -0.82347,-1.41904 -0.24565,-0.45628 -0.4304,-0.94422 -0.63547,-1.4193 -0.24441,-0.53747 -0.49611,-1.07361 -0.78083,-1.5908 -0.2923,-0.49541 -0.52517,-1.02074 -0.74731,-1.55082 -0.15306,-0.43136 -0.31238,-0.86521 -0.39683,-1.31599 -0.11399,-0.43994 -0.30325,-0.85361 -0.4566,-1.28016 -0.19298,-0.37508 -0.40454,-0.73984 -0.56225,-1.13178 -0.21018,-0.4028 -0.42144,-0.79602 -0.67025,-1.17687 -0.25086,-0.51527 -0.36969,-1.04626 -0.32613,-1.62159 -0.008,-0.49026 -0.0131,-0.98637 -0.13462,-1.46455 -0.1701,-0.5446 -0.46478,-1.0387 -0.72246,-1.54494 -0.42407,-0.6927 -0.85718,-1.37986 -1.36153,-2.01822 -0.12098,-0.14518 0.0843,-0.31628 0.20533,-0.1711 z"
       inkscape:connector-curvature="0" />
    <path
       style="opacity:1;fill:#da03ae;fill-opacity:1;fill-rule:nonzero;stroke:#0a34ff;stroke-width:1;stroke-linecap:round;stroke-linejoin:round;stroke-miterlimit:4;stroke-dasharray:none;stroke-dashoffset:0;stroke-opacity:1;paint-order:markers fill stroke"
       id="path4736"
       d="m 150.93244,196.96101 c 0.2261,0.73401 0.29625,1.5004 0.44504,2.25001 0.0789,0.57936 0.34953,1.09114 0.57545,1.61987 0.13966,0.24909 0.0703,0.1231 0.20806,0.37803 0.0899,0.16626 -0.14527,0.29333 -0.23513,0.12707 v 0 c -0.14063,-0.26025 -0.0678,-0.12681 -0.21876,-0.40021 -0.23257,-0.54594 -0.51013,-1.07511 -0.59181,-1.67291 -0.14635,-0.74261 -0.21732,-1.5012 -0.43983,-2.22844 -0.0519,-0.18171 0.20507,-0.25514 0.25698,-0.0734 z"
       inkscape:connector-curvature="0" />
    <path
       style="opacity:1;fill:#da03ae;fill-opacity:1;fill-rule:nonzero;stroke:#0a34ff;stroke-width:1;stroke-linecap:round;stroke-linejoin:round;stroke-miterlimit:4;stroke-dasharray:none;stroke-dashoffset:0;stroke-opacity:1;paint-order:markers fill stroke"
       id="path4738"
       d="m 153.87241,204.97909 c 0.2671,0.70861 0.45339,1.44159 0.70305,2.15574 0.12531,0.43743 0.31585,0.85656 0.6104,1.20551 0.18597,0.2409 0.38332,0.4712 0.56255,0.71718 0.11109,0.15288 -0.10512,0.31 -0.21621,0.15711 v 0 c -0.17516,-0.24172 -0.37015,-0.46653 -0.55183,-0.70339 -0.31016,-0.37752 -0.52538,-0.81749 -0.65721,-1.28822 -0.25134,-0.71904 -0.43945,-1.45685 -0.70774,-2.1705 -0.0519,-0.18172 0.20507,-0.25514 0.25699,-0.0734 z"
       inkscape:connector-curvature="0" />
    <path
       style="opacity:1;fill:#da03ae;fill-opacity:1;fill-rule:nonzero;stroke:#0a34ff;stroke-width:1;stroke-linecap:round;stroke-linejoin:round;stroke-miterlimit:4;stroke-dasharray:none;stroke-dashoffset:0;stroke-opacity:1;paint-order:markers fill stroke"
       id="path4740"
       d="m 157.58601,213.8168 c 0.16763,0.65868 0.30569,1.32716 0.56821,1.95612 0.16934,0.42004 0.42765,0.80081 0.74337,1.12428 0.18015,0.20666 0.0891,0.1011 0.2731,0.31676 0.12266,0.14377 -0.0807,0.31725 -0.20332,0.17348 v 0 c -0.1793,-0.21015 -0.0919,-0.1087 -0.26195,-0.30448 -0.33605,-0.35055 -0.61741,-0.75479 -0.79807,-1.20763 -0.26839,-0.65071 -0.41746,-1.33901 -0.58592,-2.02073 -0.0267,-0.18709 0.23786,-0.22489 0.26458,-0.0378 z"
       inkscape:connector-curvature="0" />
    <path
       style="opacity:1;fill:#da03ae;fill-opacity:1;fill-rule:nonzero;stroke:#0a34ff;stroke-width:1;stroke-linecap:round;stroke-linejoin:round;stroke-miterlimit:4;stroke-dasharray:none;stroke-dashoffset:0;stroke-opacity:1;paint-order:markers fill stroke"
       id="path4742"
       d="m 161.9168,221.80115 c 0.26345,0.72942 0.52781,1.45495 0.85141,2.16001 0.22626,0.44472 0.47437,0.87722 0.66853,1.33723 0.0733,0.17419 -0.17305,0.27785 -0.24635,0.10366 v 0 c -0.19201,-0.45778 -0.44202,-0.88632 -0.66509,-1.3294 -0.32453,-0.70712 -0.5909,-1.43434 -0.85416,-2.16622 -0.0744,-0.17371 0.17122,-0.27899 0.24566,-0.10528 z"
       inkscape:connector-curvature="0" />
    <path
       style="opacity:1;fill:#da03ae;fill-opacity:1;fill-rule:nonzero;stroke:#0a34ff;stroke-width:1;stroke-linecap:round;stroke-linejoin:round;stroke-miterlimit:4;stroke-dasharray:none;stroke-dashoffset:0;stroke-opacity:1;paint-order:markers fill stroke"
       id="path4744"
       d="m 165.89954,229.83516 c 0.22499,0.63919 0.50299,1.25646 0.74653,1.88804 0.15231,0.53053 0.31192,1.0605 0.4181,1.6029 0.0307,0.31908 0.1376,0.62276 0.21782,0.93137 0.0475,0.18291 -0.21117,0.25011 -0.25869,0.0672 v 0 c -0.0815,-0.31385 -0.18955,-0.62301 -0.22145,-0.94736 -0.10263,-0.52727 -0.25916,-1.04186 -0.40518,-1.55804 -0.24589,-0.63915 -0.52825,-1.26333 -0.75412,-1.91068 -0.0519,-0.18171 0.20507,-0.25514 0.25699,-0.0734 z"
       inkscape:connector-curvature="0" />
    <path
       style="opacity:1;fill:#da03ae;fill-opacity:1;fill-rule:nonzero;stroke:#0a34ff;stroke-width:1;stroke-linecap:round;stroke-linejoin:round;stroke-miterlimit:4;stroke-dasharray:none;stroke-dashoffset:0;stroke-opacity:1;paint-order:markers fill stroke"
       id="path4746"
       d="m 168.35644,238.09093 c 0.2419,0.4668 0.11313,0.23399 0.38728,0.69791 0.0961,0.16276 -0.1341,0.29861 -0.23017,0.13586 v 0 c -0.27934,-0.47378 -0.15035,-0.23965 -0.38917,-0.70117 -0.0938,-0.16409 0.13829,-0.29669 0.23206,-0.1326 z"
       inkscape:connector-curvature="0" />
    <path
       style="opacity:1;fill:#da03ae;fill-opacity:1;fill-rule:nonzero;stroke:#da03ae;stroke-width:1;stroke-linecap:round;stroke-linejoin:round;stroke-miterlimit:4;stroke-dasharray:none;stroke-dashoffset:0;stroke-opacity:1;paint-order:markers fill stroke"
       id="path4752"
       d="m 148.96945,197.28389 c -0.0834,0.759 -0.2096,1.5145 -0.40115,2.25394 -0.16222,0.58791 -0.31295,1.1838 -0.538,1.75139 -0.17961,0.45141 -0.33043,0.91644 -0.45995,1.38495 -0.16296,0.54617 -0.35636,1.07208 -0.59454,1.58944 -0.28792,0.51557 -0.49203,1.07059 -0.7402,1.60509 -0.24273,0.54236 -0.49675,1.08045 -0.76847,1.60902 -0.27033,0.51708 -0.50247,1.05019 -0.71831,1.59199 -0.23003,0.54556 -0.49552,1.07447 -0.74582,1.61068 -0.26352,0.5363 -0.54055,1.06602 -0.79889,1.60487 -0.26773,0.52972 -0.49869,1.07381 -0.76342,1.60539 -0.28262,0.53217 -0.57074,1.06192 -0.83625,1.60295 -0.27154,0.53273 -0.54832,1.06324 -0.80684,1.6025 -0.22024,0.53906 -0.44042,1.07853 -0.69241,1.60369 -0.22382,0.4927 -0.51231,0.95446 -0.78747,1.42007 -0.27967,0.50136 -0.5315,1.01714 -0.7991,1.52484 -0.32778,0.53071 -0.61355,1.0857 -0.94892,1.61159 -0.36985,0.51322 -0.71776,1.04245 -1.02224,1.59713 -0.32017,0.53226 -0.63384,1.06791 -0.94412,1.60609 -0.28729,0.5534 -0.60397,1.09313 -0.951,1.61126 -0.32793,0.53224 -0.65914,1.06233 -0.98123,1.59809 -0.32408,0.54078 -0.71858,1.03345 -1.09378,1.53836 -0.26638,0.39319 -0.49949,0.80949 -0.76868,1.20038 -0.23487,0.35255 -0.41265,0.7379 -0.62321,1.10406 -0.24109,0.41452 -0.46187,0.84 -0.69167,1.26083 -0.22293,0.46151 -0.42722,0.93101 -0.63647,1.39896 -0.18286,0.42571 -0.4025,0.8355 -0.62279,1.24319 -0.17448,0.36465 -0.35945,0.72394 -0.54861,1.08157 -0.16342,0.41435 -0.42555,0.77667 -0.66002,1.15182 -0.31495,0.40891 -0.60404,0.83619 -0.8543,1.28761 -0.28657,0.43458 -0.56499,0.87459 -0.80924,1.33452 -0.16794,0.32485 -0.35219,0.63851 -0.53705,0.9539 -0.0956,0.16303 -0.32615,0.0279 -0.23056,-0.13517 v 0 c 0.18306,-0.31219 0.3656,-0.6225 0.53165,-0.94425 0.24561,-0.46099 0.52276,-0.90373 0.81157,-1.3388 0.25324,-0.45492 0.54214,-0.88807 0.86136,-1.29957 0.23143,-0.36954 0.48975,-0.72647 0.65036,-1.13508 0.18968,-0.35826 0.37528,-0.71802 0.54972,-1.08363 0.21726,-0.40182 0.43422,-0.80545 0.61397,-1.2253 0.2125,-0.47422 0.41903,-0.95043 0.64586,-1.41791 0.23102,-0.42266 0.45278,-0.85013 0.69491,-1.26659 0.21633,-0.37089 0.39345,-0.76521 0.63472,-1.12222 0.27258,-0.39205 0.5039,-0.81351 0.77399,-1.20778 0.37027,-0.49775 0.75916,-0.9837 1.07925,-1.51667 0.32462,-0.53933 0.6576,-1.07344 0.98825,-1.60914 0.34411,-0.51287 0.65672,-1.04803 0.94146,-1.59595 0.30945,-0.53655 0.62199,-1.07078 0.94144,-1.60133 0.30793,-0.55941 0.65724,-1.09467 1.03118,-1.61219 0.33188,-0.51936 0.61302,-1.06855 0.93779,-1.59245 0.26981,-0.51142 0.52321,-1.03127 0.80543,-1.53618 0.27141,-0.45894 0.55612,-0.91406 0.77664,-1.39979 0.25247,-0.52489 0.471,-1.065 0.69234,-1.60355 0.25915,-0.53988 0.53583,-1.07136 0.80792,-1.60473 0.26605,-0.54132 0.55371,-1.07185 0.83692,-1.60429 0.26418,-0.53034 0.49455,-1.07327 0.76168,-1.60184 0.2582,-0.53789 0.53431,-1.06702 0.7977,-1.60236 0.24831,-0.53147 0.51128,-1.05589 0.73971,-1.59654 0.21922,-0.54961 0.45478,-1.0906 0.72892,-1.61529 0.2704,-0.52524 0.52237,-1.06037 0.76377,-1.59942 0.24846,-0.53397 0.4516,-1.08913 0.73978,-1.6042 0.23218,-0.50432 0.4211,-1.01642 0.57975,-1.54903 0.13264,-0.47777 0.28601,-0.95224 0.4693,-1.41269 0.2237,-0.55593 0.36592,-1.1434 0.52754,-1.71952 0.19026,-0.72944 0.31216,-1.47566 0.39524,-2.22451 0.0267,-0.18709 0.29131,-0.14929 0.26459,0.0378 z"
       inkscape:connector-curvature="0" />
    <rect
       style="opacity:1;fill:#ffffff;fill-opacity:1;fill-rule:nonzero;stroke:none;stroke-width:1;stroke-linecap:round;stroke-linejoin:round;stroke-miterlimit:4;stroke-dasharray:none;stroke-dashoffset:0;stroke-opacity:1;paint-order:markers fill stroke"
       id="rect4754"
       width="3.7417734"
       height="8.5526247"
       x="112.2532"
       y="198.64481" />
    <rect
       style="opacity:1;fill:#ffffff;fill-opacity:1;fill-rule:nonzero;stroke:none;stroke-width:1;stroke-linecap:round;stroke-linejoin:round;stroke-miterlimit:4;stroke-dasharray:none;stroke-dashoffset:0;stroke-opacity:1;paint-order:markers fill stroke"
       id="rect4754-9"
       width="3.7417734"
       height="8.5526247"
       x="121.34573"
       y="197.84302" />
    <rect
       style="opacity:1;fill:#ffffff;fill-opacity:1;fill-rule:nonzero;stroke:none;stroke-width:1;stroke-linecap:round;stroke-linejoin:round;stroke-miterlimit:4;stroke-dasharray:none;stroke-dashoffset:0;stroke-opacity:1;paint-order:markers fill stroke"
       id="rect4754-8"
       width="3.7417734"
       height="8.5526247"
       x="130.17641"
       y="195.70485" />
    <rect
       style="opacity:1;fill:#ffffff;fill-opacity:1;fill-rule:nonzero;stroke:none;stroke-width:1;stroke-linecap:round;stroke-linejoin:round;stroke-miterlimit:4;stroke-dasharray:none;stroke-dashoffset:0;stroke-opacity:1;paint-order:markers fill stroke"
       id="rect4754-5"
       width="3.7417734"
       height="8.5526247"
       x="139.03188"
       y="192.74982" />
    <path
       style="opacity:1;fill:#ffffff;fill-opacity:1;fill-rule:nonzero;stroke:#da03ae;stroke-width:1;stroke-linecap:round;stroke-linejoin:round;stroke-miterlimit:4;stroke-dasharray:none;stroke-dashoffset:0;stroke-opacity:1;paint-order:markers fill stroke"
       id="path4783"
       d="m 144.06463,228.12131 c 0.20486,-0.72504 0.32707,-1.46842 0.40606,-2.21656 0.0723,-0.58305 -0.0473,-1.15875 -0.20201,-1.71776 -0.1388,-0.53247 -0.3227,-1.05976 -0.58498,-1.54445 -0.19163,-0.28978 -0.25629,-0.15664 -0.40254,0.0605 -0.20678,0.4334 -0.33148,0.908 -0.45148,1.37281 -0.12383,0.51958 -0.14934,1.05401 -0.16582,1.58567 -0.0111,0.5342 -0.008,1.06858 -0.007,1.60286 0.088,0.52381 0.13768,1.0568 0.25004,1.57593 0.12094,0.52271 0.24476,1.051 0.4418,1.551 0.15947,0.40249 0.31708,0.81008 0.52547,1.19033 0.20139,0.37799 0.40586,0.7571 0.67621,1.09084 0.34886,0.34592 0.7372,0.0328 1.08224,-0.16182 0.44327,-0.35095 0.9048,-0.6873 1.30594,-1.08738 0.13407,-0.1332 0.32244,0.0564 0.18837,0.1896 v 0 c -0.41951,0.41529 -0.89697,0.77026 -1.36305,1.1306 -0.47024,0.26503 -0.97045,0.56928 -1.42191,0.0963 -0.27763,-0.34842 -0.496,-0.73705 -0.70276,-1.13078 -0.21048,-0.39185 -0.3782,-0.80642 -0.53947,-1.2205 -0.19935,-0.51466 -0.33229,-1.05457 -0.45418,-1.5922 -0.11422,-0.53774 -0.17135,-1.08837 -0.25597,-1.63141 -0.001,-0.53723 -0.004,-1.07455 0.007,-1.61171 0.0172,-0.55143 0.0448,-1.1056 0.17421,-1.64428 0.128,-0.49409 0.25912,-1.0003 0.48949,-1.45658 0.28297,-0.40996 0.55347,-0.49196 0.85873,-0.0363 0.26892,0.50385 0.46495,1.04694 0.60714,1.59971 0.16342,0.59138 0.28602,1.20057 0.21019,1.81709 -0.0809,0.76344 -0.20563,1.52204 -0.41486,2.26189 -0.0519,0.18171 -0.30891,0.10829 -0.25699,-0.0734 z"
       inkscape:connector-curvature="0" />
    <path
       style="opacity:1;fill:#ffffff;fill-opacity:1;fill-rule:nonzero;stroke:#0a34ff;stroke-width:1;stroke-linecap:round;stroke-linejoin:round;stroke-miterlimit:4;stroke-dasharray:none;stroke-dashoffset:0;stroke-opacity:1;paint-order:markers fill stroke"
       id="path4785"
       d="m 141.62465,149.85219 c 0.40246,0.64081 0.71177,1.33871 0.81034,2.09139 0.0677,0.63055 -0.10849,1.21541 -0.32205,1.79829 -0.2353,0.53188 -0.53444,1.0384 -0.90059,1.49063 -0.27285,0.43054 -0.66888,0.62001 -1.15083,0.72172 -0.53298,0.11302 -1.03457,0.0117 -1.53373,-0.17686 -0.50404,-0.24196 -0.80931,-0.67704 -1.08537,-1.14243 -0.27619,-0.48982 -0.4088,-1.01465 -0.36443,-1.57321 0.11585,-0.50997 0.48406,-0.7993 0.98497,-0.87213 0.50968,-0.0187 1.00086,0.18571 1.44318,0.42143 0.4606,0.26745 0.92546,0.52713 1.38959,0.78861 0.53256,0.35711 1.09957,0.64985 1.68425,0.9107 0.5694,0.28388 1.15438,0.52986 1.74001,0.77679 0.40171,0.15405 0.7679,0.37376 1.1771,0.50983 0.17921,0.06 0.0944,0.31344 -0.0849,0.25344 v 0 c -0.41519,-0.1399 -0.78932,-0.35757 -1.19613,-0.51702 -0.58722,-0.24789 -1.1741,-0.49419 -1.74509,-0.779 -0.59197,-0.26457 -1.16718,-0.56012 -1.70649,-0.9219 -0.46252,-0.26073 -0.92594,-0.51939 -1.38493,-0.78605 -0.39054,-0.21204 -0.83094,-0.39734 -1.28177,-0.39185 -0.37549,0.0424 -0.65396,0.25193 -0.75348,0.62924 -0.0437,0.50237 0.0812,0.97364 0.32798,1.41482 0.2446,0.4128 0.5061,0.80626 0.95008,1.02876 0.45158,0.17128 0.90128,0.26863 1.38484,0.16513 0.42639,-0.0867 0.75937,-0.24543 0.99784,-0.62876 0.34993,-0.42725 0.62993,-0.91128 0.85691,-1.41385 0.19894,-0.54274 0.36955,-1.08494 0.30783,-1.67288 -0.0859,-0.71199 -0.39277,-1.37025 -0.76755,-1.97659 -0.10483,-0.15725 0.11755,-0.3055 0.22238,-0.14825 z"
       inkscape:connector-curvature="0" />
    <path
       style="opacity:1;fill:#ffffff;fill-opacity:1;fill-rule:nonzero;stroke:#000000;stroke-width:1;stroke-linecap:round;stroke-linejoin:round;stroke-miterlimit:4;stroke-dasharray:none;stroke-dashoffset:0;stroke-opacity:1;paint-order:markers fill stroke"
       id="path4789"
       d="m 201.62423,254.03199 c -0.0672,-0.75402 -0.24055,-1.49084 -0.36572,-2.236 -0.0584,-0.59396 -0.1459,-1.17866 -0.25519,-1.76507 -0.10984,-0.58893 -0.12794,-1.18882 -0.14342,-1.78607 -0.0113,-0.66737 -0.009,-1.33487 -0.009,-2.00232 8e-4,-0.6106 0.001,-1.22121 0.002,-1.83181 -0.005,-0.52862 -0.0236,-1.05082 0.0789,-1.57105 0.13985,-0.47805 0.40669,-0.75549 0.87059,-0.91882 0.51423,-0.13509 1.03499,-0.1245 1.55491,-0.042 0.5817,0.12062 0.97002,0.47912 1.10324,1.05441 0.0421,0.5145 -0.23786,0.9706 -0.41504,1.43595 -0.17523,0.43022 -0.17978,0.8216 -0.0145,1.24621 0.17957,0.31916 0.44907,0.56452 0.69334,0.83142 0.23939,0.32253 0.47048,0.65153 0.61752,1.02688 0.13144,0.44906 0.0395,0.84769 -0.22186,1.22304 -0.3589,0.38698 -0.86365,0.5294 -1.37731,0.53205 -0.52417,-0.0297 -0.96491,-0.28523 -1.21064,-0.74811 -0.14784,-0.39611 -0.0101,-0.7721 0.14551,-1.13971 0.0738,-0.17398 0.31985,-0.0696 0.24605,0.10437 v 0 c -0.12407,0.29174 -0.25734,0.59517 -0.15311,0.91461 0.17986,0.38102 0.56187,0.57259 0.97344,0.60157 0.42377,0.007 0.85273,-0.11298 1.15812,-0.4195 0.21606,-0.29705 0.2896,-0.61201 0.18977,-0.97387 -0.1248,-0.34733 -0.35533,-0.6412 -0.56493,-0.94118 -0.26541,-0.29183 -0.56064,-0.5595 -0.74521,-0.91523 -0.187,-0.4871 -0.18338,-0.94688 0.0141,-1.43779 0.15905,-0.41642 0.41324,-0.82846 0.40331,-1.28523 -0.0872,-0.47025 -0.42351,-0.74652 -0.88385,-0.84596 -0.47675,-0.0764 -0.95335,-0.0888 -1.42627,0.031 -0.37686,0.12452 -0.57507,0.33298 -0.695,0.71789 -0.10014,0.50275 -0.076,1.00819 -0.0738,1.51925 -2.7e-4,0.61064 -8e-4,1.22128 -0.002,1.83191 -5.3e-4,0.66507 -0.003,1.33019 0.009,1.99518 0.0151,0.58314 0.032,1.16894 0.13898,1.74402 0.10956,0.58792 0.19784,1.1743 0.25603,1.76978 0.1254,0.74731 0.2993,1.48628 0.36672,2.24245 0.0267,0.18709 -0.23785,0.22488 -0.26458,0.0378 z"
       inkscape:connector-curvature="0" />
    <path
       style="opacity:1;fill:#ffffff;fill-opacity:1;fill-rule:nonzero;stroke:#000000;stroke-width:1;stroke-linecap:round;stroke-linejoin:round;stroke-miterlimit:4;stroke-dasharray:none;stroke-dashoffset:0;stroke-opacity:1;paint-order:markers fill stroke"
       id="path4791"
       d="m 172.59156,175.13187 c 0.19927,-0.74646 0.36566,-1.5057 0.37336,-2.28024 -8e-4,-0.68971 -0.13396,-1.36192 -0.2603,-2.0361 -0.14849,-0.59193 -0.35573,-1.16849 -0.57667,-1.73691 -0.14302,-0.47936 -0.33995,-0.92488 -0.5953,-1.35292 -0.11335,-0.23697 -0.28113,-0.61819 -0.60605,-0.52469 -0.26763,0.21014 -0.44456,0.48466 -0.58483,0.79145 -0.25729,0.56898 -0.37508,1.18569 -0.51895,1.78986 -0.16796,0.70556 -0.20281,1.43168 -0.22764,2.1536 -0.0571,0.75779 0.0151,1.50551 0.10443,2.25666 0.0637,0.70588 0.15455,1.41096 0.32981,2.09857 0.10377,0.52918 0.33578,1.01592 0.4792,1.53298 0.12921,0.41012 0.34818,0.75944 0.64013,1.07171 0.33664,0.27524 0.7718,0.35137 1.1955,0.32759 0.51092,-0.0412 0.97129,-0.26256 1.40785,-0.51589 0.48856,-0.24915 0.93466,-0.56822 1.38522,-0.87796 0.23639,-0.18021 0.45357,-0.37425 0.65788,-0.58976 0.13014,-0.13703 0.32394,0.047 0.19379,0.18406 v 0 c -0.21743,0.22856 -0.44862,0.43525 -0.7003,0.62597 -0.45635,0.31347 -0.90815,0.63653 -1.40273,0.88903 -0.47426,0.2737 -0.9747,0.50964 -1.52927,0.55153 -0.50521,0.0196 -1.011,-0.072 -1.40403,-0.41296 -0.31765,-0.34583 -0.56259,-0.73 -0.70166,-1.18217 -0.1427,-0.51901 -0.37819,-1.00703 -0.48064,-1.53844 -0.17644,-0.69924 -0.27267,-1.41499 -0.33616,-2.13269 -0.0909,-0.7646 -0.16343,-1.52616 -0.10613,-2.29744 0.0256,-0.73968 0.0623,-1.48349 0.23476,-2.20631 0.14802,-0.62146 0.2703,-1.25539 0.53635,-1.84013 0.17756,-0.38015 0.40169,-0.74358 0.78524,-0.94318 0.4557,-0.0473 0.70852,0.25489 0.87777,0.65168 0.26297,0.44083 0.46716,0.89997 0.61493,1.39317 0.22623,0.58401 0.44007,1.17577 0.5902,1.78436 0.12956,0.69144 0.26462,1.38126 0.26485,2.08858 -0.0114,0.79835 -0.17532,1.58114 -0.38363,2.35041 -0.0519,0.18172 -0.3089,0.10829 -0.25698,-0.0734 z"
       inkscape:connector-curvature="0" />
    <path
       style="opacity:1;fill:#ffffff;fill-opacity:1;fill-rule:nonzero;stroke:#000000;stroke-width:1;stroke-linecap:round;stroke-linejoin:round;stroke-miterlimit:4;stroke-dasharray:none;stroke-dashoffset:0;stroke-opacity:1;paint-order:markers fill stroke"
       id="path4793"
       d="m 179.31327,172.88662 c 0.74206,0.12067 1.49657,0.1304 2.23949,0.23724 0.58128,0.11437 1.16675,0.19493 1.75755,0.23601 0.0727,-0.006 0.14529,-0.0126 0.21794,-0.019 0.18838,-0.0151 0.20974,0.25132 0.0214,0.26642 v 0 c -0.086,0.006 -0.17191,0.0128 -0.25787,0.0192 -0.59738,-0.0417 -1.18956,-0.12224 -1.7773,-0.23813 -0.74241,-0.10843 -1.49738,-0.11455 -2.23896,-0.23716 -0.18709,-0.0267 -0.14929,-0.29131 0.0378,-0.26459 z"
       inkscape:connector-curvature="0" />
    <path
       style="opacity:1;fill:#ffffff;fill-opacity:1;fill-rule:nonzero;stroke:#000000;stroke-width:1;stroke-linecap:round;stroke-linejoin:round;stroke-miterlimit:4;stroke-dasharray:none;stroke-dashoffset:0;stroke-opacity:1;paint-order:markers fill stroke"
       id="path4795"
       d="m 180.40016,174.79328 c 0.74873,0.17147 1.48118,0.40403 2.23132,0.56945 0.39411,0.0841 0.79529,0.11881 1.19652,0.14532 0.18857,0.0125 0.17089,0.27919 -0.0177,0.26668 v 0 c -0.41464,-0.0276 -0.8292,-0.0639 -1.23645,-0.15102 -0.75538,-0.16693 -1.49322,-0.40022 -2.24712,-0.57345 -0.18172,-0.0519 -0.1083,-0.3089 0.0734,-0.25698 z"
       inkscape:connector-curvature="0" />
    <path
       style="opacity:1;fill:#ffffff;fill-opacity:1;fill-rule:nonzero;stroke:#000000;stroke-width:1;stroke-linecap:round;stroke-linejoin:round;stroke-miterlimit:4;stroke-dasharray:none;stroke-dashoffset:0;stroke-opacity:1;paint-order:markers fill stroke"
       id="path4797"
       d="m 195.09383,169.31052 c 0.56386,0.58189 0.90342,1.30215 1.03171,2.09556 0.0957,0.75251 -0.0783,1.47469 -0.28683,2.19078 -0.17191,0.61474 -0.50857,1.13832 -0.8654,1.65796 -0.36512,0.46818 -0.84511,0.81012 -1.37604,1.06465 -0.52679,0.20678 -1.09414,0.28498 -1.65647,0.24288 -0.57559,-0.0199 -1.00714,-0.23505 -1.44339,-0.58831 -0.42959,-0.37522 -0.51559,-0.84212 -0.41904,-1.38094 0.0969,-0.51038 0.4066,-0.9126 0.82706,-1.2016 0.48002,-0.24802 0.99655,-0.28914 1.51401,-0.16049 0.58733,0.16499 1.10953,0.4801 1.63365,0.78135 0.56099,0.34379 1.10366,0.71566 1.64715,1.08626 0.57862,0.3719 1.19147,0.68305 1.79691,1.00739 0.5134,0.27989 1.03144,0.52332 1.60251,0.6549 0.22846,0.0661 0.44958,0.0399 0.67985,0.0125 0.18774,-0.0217 0.21838,0.24384 0.0306,0.26551 v 0 c -0.25958,0.0292 -0.51401,0.0548 -0.77088,-0.0177 -0.59358,-0.13853 -1.13474,-0.38735 -1.66835,-0.67968 -0.61373,-0.32893 -1.23507,-0.64442 -1.82126,-1.02216 -0.53782,-0.36679 -1.07481,-0.73482 -1.62978,-1.07536 -0.50324,-0.28935 -1.0037,-0.59401 -1.5671,-0.75424 -0.43993,-0.11809 -0.88453,-0.0773 -1.29791,0.12326 -0.36619,0.24112 -0.62976,0.59408 -0.71388,1.02963 -0.0886,0.44058 -0.0264,0.81313 0.32465,1.12364 0.39508,0.32012 0.77083,0.51517 1.29648,0.52957 0.51453,0.0442 1.03674,-0.035 1.5202,-0.21775 0.48968,-0.23165 0.93153,-0.54724 1.2707,-0.9747 0.34115,-0.49632 0.66498,-0.99368 0.82909,-1.58139 0.19771,-0.6783 0.36794,-1.3613 0.27937,-2.07469 -0.11117,-0.73821 -0.43708,-1.40657 -0.95664,-1.94789 -0.13364,-0.13363 0.0554,-0.32262 0.18899,-0.18899 z"
       inkscape:connector-curvature="0" />
    <path
       style="opacity:1;fill:#ffffff;fill-opacity:1;fill-rule:nonzero;stroke:#000000;stroke-width:1;stroke-linecap:round;stroke-linejoin:round;stroke-miterlimit:4;stroke-dasharray:none;stroke-dashoffset:0;stroke-opacity:1;paint-order:markers fill stroke"
       id="path4799"
       d="m 205.09873,177.32563 c -0.0721,-0.84977 -0.19807,-1.69036 -0.32609,-2.53298 -0.1087,-0.67524 -0.17592,-1.3471 -0.0937,-2.02709 0.042,-0.57471 0.2125,-1.11563 0.40874,-1.65265 0.20094,-0.51011 0.4504,-0.98924 0.81059,-1.40371 0.39769,-0.3886 0.91512,-0.53625 1.45845,-0.53757 0.61265,0.0319 1.16123,0.28824 1.66863,0.61438 0.54314,0.31943 1.00286,0.76066 1.4106,1.23675 0.4043,0.51073 0.61488,1.11415 0.81793,1.72347 0.20391,0.68929 0.24962,1.40698 0.27934,2.1208 0.0189,0.60244 0.0159,1.20528 0.0143,1.80794 0.007,0.36561 -0.0537,0.76884 0.13476,1.09941 0.0874,0.16755 -0.14952,0.2912 -0.23695,0.12365 v 0 c -0.18861,-0.38365 -0.17714,-0.80361 -0.16507,-1.22375 0.002,-0.59873 0.005,-1.19763 -0.0141,-1.79616 -0.0286,-0.68888 -0.071,-1.38171 -0.26588,-2.04745 -0.19196,-0.57693 -0.38725,-1.14897 -0.76761,-1.63436 -0.38943,-0.45756 -0.83175,-0.87971 -1.35221,-1.1857 -0.46339,-0.29998 -0.96495,-0.53898 -1.52544,-0.57171 -0.46344,-0.008 -0.9121,0.12213 -1.25543,0.44606 -0.34046,0.38814 -0.57019,0.84127 -0.7609,1.31968 -0.18928,0.51794 -0.35532,1.03855 -0.39447,1.59324 -0.0805,0.65561 -0.011,1.3034 0.0926,1.95463 0.12812,0.84338 0.25435,1.68478 0.32644,2.53533 0.0267,0.18708 -0.23786,0.22488 -0.26459,0.0378 z"
       inkscape:connector-curvature="0" />
    <path
       style="opacity:1;fill:#ffffff;fill-opacity:1;fill-rule:nonzero;stroke:#000000;stroke-width:1;stroke-linecap:round;stroke-linejoin:round;stroke-miterlimit:4;stroke-dasharray:none;stroke-dashoffset:0;stroke-opacity:1;paint-order:markers fill stroke"
       id="path4805"
       d="m 217.76011,186.08991 c 0.21003,-0.73907 0.2038,-1.51767 0.21164,-2.27999 -0.061,-0.79568 -0.16106,-1.587 -0.30225,-2.3722 -0.14203,-0.8247 -0.19084,-1.65921 -0.30438,-2.48772 -0.16455,-0.82615 -0.0884,-1.66021 -0.0328,-2.49212 0.0622,-0.78546 0.16871,-1.57289 0.31355,-2.34782 0.12228,-0.69854 0.26108,-1.39181 0.40687,-2.08581 0.077,-0.59177 0.30788,-1.14237 0.48817,-1.70605 0.17156,-0.50483 0.4061,-0.86618 0.90434,-1.0758 0.51251,-0.12987 0.82694,0.13882 1.16956,0.47452 0.3595,0.3724 0.45851,0.85779 0.5184,1.35299 -0.0141,0.46152 -0.1117,0.9128 -0.26415,1.34674 -0.1636,0.38179 -0.05,0.67023 0.15049,1.00058 0.32164,0.38659 0.72974,0.68528 1.10824,1.01146 0.35812,0.28807 0.71296,0.58489 1.0347,0.91371 0.35852,0.37401 0.60425,0.82502 0.76937,1.31216 0.16734,0.50712 0.14682,0.95409 -0.16366,1.39023 -0.36316,0.35141 -0.86855,0.38194 -1.34668,0.41387 -0.57576,0.0484 -1.11121,0.0322 -1.63274,-0.23142 -0.51111,-0.31934 -0.79085,-0.84911 -1.00385,-1.39433 -0.0266,-0.0918 -0.0531,-0.18361 -0.0797,-0.27542 -0.0522,-0.18164 0.2047,-0.25544 0.25688,-0.0738 v 0 c 0.024,0.0841 0.048,0.16831 0.072,0.25247 0.18665,0.48396 0.42972,0.96348 0.87739,1.25362 0.47214,0.25044 0.9688,0.23968 1.4924,0.20219 0.39626,-0.026 0.83051,-0.0382 1.14894,-0.30543 0.27291,-0.35598 0.25929,-0.72713 0.12572,-1.1468 -0.15,-0.44994 -0.37789,-0.86554 -0.70753,-1.2109 -0.3146,-0.3249 -0.66694,-0.61342 -1.01781,-0.89781 -0.39893,-0.34465 -0.83252,-0.65851 -1.16222,-1.07531 -0.24052,-0.3977 -0.36187,-0.77414 -0.17404,-1.22774 0.13937,-0.39594 0.22797,-0.80566 0.2509,-1.2263 -0.0514,-0.43397 -0.12704,-0.86465 -0.44007,-1.19386 -0.26357,-0.25825 -0.47773,-0.49982 -0.88146,-0.418 -0.42793,0.16809 -0.60146,0.48449 -0.75085,0.90987 -0.17784,0.55489 -0.40562,1.09682 -0.48115,1.67951 -0.14546,0.69211 -0.28398,1.38343 -0.40574,2.08012 -0.14388,0.7643 -0.24745,1.5416 -0.30956,2.31636 -0.0544,0.81398 -0.13114,1.62968 0.031,2.43802 0.11303,0.82486 0.16209,1.65557 0.30264,2.47672 0.14409,0.80163 0.2467,1.60972 0.30646,2.42226 -0.008,0.78626 -0.004,1.58859 -0.22192,2.35065 -0.0519,0.18172 -0.3089,0.10829 -0.25698,-0.0734 z"
       inkscape:connector-curvature="0" />
    <path
       style="opacity:1;fill:#ffffff;fill-opacity:1;fill-rule:nonzero;stroke:#000000;stroke-width:1;stroke-linecap:round;stroke-linejoin:round;stroke-miterlimit:4;stroke-dasharray:none;stroke-dashoffset:0;stroke-opacity:1;paint-order:markers fill stroke"
       id="path4809"
       d="m 117.69891,166.5479 c -0.17386,0.75024 -0.31451,1.50631 -0.50288,2.25301 -0.1152,0.66418 -0.29235,1.31504 -0.41442,1.97781 -0.14686,0.60926 -0.31376,1.213 -0.46188,1.82195 -0.15885,0.6032 -0.27287,1.21628 -0.41444,1.8234 -0.12265,0.5855 -0.26916,1.16397 -0.40804,1.74566 -0.20425,0.57876 -0.3132,1.18214 -0.46382,1.77568 -0.20375,0.56201 -0.35375,1.13973 -0.52811,1.71088 -0.10953,0.49802 -0.22909,0.9896 -0.35989,1.48259 -0.14851,0.43752 -0.3675,0.63006 -0.68706,0.19735 -0.17788,-0.41857 -0.27065,-0.87587 -0.37329,-1.31963 -0.1746,-0.52453 -0.29478,-1.06315 -0.44754,-1.5939 -0.0552,-0.19313 -0.0873,-0.39346 -0.16272,-0.58048 -0.004,-0.01 -7e-5,0.0247 0.009,0.0306 0.0602,0.0401 0.15686,0.0389 0.19124,0.10256 0.0355,0.0657 -0.0101,0.14902 -0.0151,0.22352 -0.057,0.55359 0.0184,1.09262 0.10835,1.6368 0.0943,0.54563 0.12586,1.09847 0.144,1.65097 0.0261,0.5145 0.0933,1.04392 0.232,1.54157 0.01,-0.10131 0.11063,0.54439 0.22534,0.4375 0.0312,-0.0291 0.0416,-0.0751 0.0684,-0.10836 0.28148,-0.26556 0.45525,-0.62368 0.65976,-0.94912 0.23803,-0.44595 0.48873,-0.88284 0.76143,-1.30857 0.25505,-0.4548 0.51754,-0.90341 0.80154,-1.34085 0.13299,-0.2273 0.26633,-0.45311 0.38986,-0.6857 0.0888,-0.16685 0.32472,-0.0413 0.23596,0.12552 v 0 c -0.12749,0.23929 -0.26413,0.47214 -0.40169,0.70577 -0.28393,0.4369 -0.54521,0.88547 -0.80065,1.33949 -0.27256,0.42498 -0.52165,0.86171 -0.76018,1.30658 -0.21681,0.34475 -0.40265,0.7225 -0.70349,1.00209 -0.47256,0.38969 -0.61538,-0.0434 -0.73405,-0.45367 -0.14039,-0.51931 -0.21668,-1.06716 -0.24138,-1.60351 -0.0177,-0.54082 -0.0482,-1.08203 -0.14057,-1.61614 -0.0933,-0.56451 -0.16923,-1.12482 -0.11128,-1.69886 0.0783,-1.10366 0.48722,-0.23624 0.50131,0.16838 0.15408,0.53532 0.27576,1.0784 0.45112,1.60768 0.0949,0.41142 0.18733,0.83013 0.33131,1.22577 0.0324,0.0495 0.1254,0.0811 0.1111,0.13857 -0.007,0.0274 -0.0535,0.0198 -0.0765,0.0361 -2.6e-4,2.6e-4 0.24604,-0.29927 0.17572,-0.28657 0.13187,-0.49616 0.25121,-0.99094 0.36259,-1.49203 0.17313,-0.56707 0.3215,-1.14089 0.52468,-1.69858 0.1503,-0.59228 0.25872,-1.19464 0.46292,-1.77204 0.13896,-0.58127 0.28529,-1.15929 0.40775,-1.74443 0.14259,-0.60765 0.25599,-1.2218 0.41499,-1.82573 0.14712,-0.60404 0.31216,-1.20308 0.45873,-1.80722 0.12344,-0.6684 0.30127,-1.32497 0.41811,-1.99472 0.18611,-0.73763 0.32443,-1.48458 0.49745,-2.22543 0.0267,-0.18709 0.29131,-0.14929 0.26458,0.0378 z"
       inkscape:connector-curvature="0" />
    <path
       style="opacity:1;fill:#ffffff;fill-opacity:1;fill-rule:nonzero;stroke:#000000;stroke-width:1;stroke-linecap:round;stroke-linejoin:round;stroke-miterlimit:4;stroke-dasharray:none;stroke-dashoffset:0;stroke-opacity:1;paint-order:markers fill stroke"
       id="path4811"
       d="m 124.57218,175.75996 c -0.65922,-0.0763 -1.13308,0.0327 -1.69821,0.35553 -0.39436,0.27899 -0.60317,0.70632 -0.73793,1.15694 -0.12029,0.5051 -0.12548,1.02697 -0.13267,1.54332 0.0232,0.4444 0.18216,0.76416 0.55288,1.00742 0.39817,0.13658 0.7578,0.0243 1.08366,-0.21531 0.33889,-0.30562 0.56422,-0.6792 0.75917,-1.08646 0.14287,-0.44877 0.32499,-0.88519 0.43602,-1.34388 0.1123,-0.41084 0.0472,-0.81158 -0.044,-1.21794 -0.008,-0.0204 -0.0464,-0.0658 -0.0249,-0.0612 0.0984,0.0212 0.20858,0.0438 0.27889,0.11578 0.007,0.007 0.16622,0.82325 0.18801,0.90403 0.12672,0.5189 0.23063,1.04823 0.4169,1.54993 0.12064,0.41433 0.31847,0.78093 0.55206,1.13929 0.19662,0.23461 0.39521,0.46689 0.61924,0.676 0.13771,0.12944 -0.0453,0.32418 -0.18305,0.19474 v 0 c -0.23797,-0.22505 -0.45343,-0.47084 -0.6601,-0.7248 -0.24444,-0.37509 -0.4511,-0.76048 -0.57901,-1.19301 -0.18596,-0.51037 -0.29841,-1.04491 -0.42409,-1.57254 -0.0363,-0.13474 -0.24634,-0.82935 -0.19535,-0.94201 0.0465,-0.10286 0.13644,-0.18987 0.23617,-0.2428 0.0308,-0.0164 0.024,0.0656 0.036,0.0983 0.0991,0.44574 0.16527,0.88931 0.0428,1.33938 -0.11658,0.47643 -0.30262,0.93121 -0.45479,1.39642 -0.2152,0.44641 -0.46679,0.85705 -0.84375,1.18748 -0.4234,0.30051 -0.88937,0.42586 -1.38966,0.21998 -0.43929,-0.30384 -0.64808,-0.69441 -0.67046,-1.2326 0.008,-0.54125 0.0144,-1.08819 0.1441,-1.61696 0.15781,-0.51662 0.40354,-0.99824 0.86136,-1.31174 0.61773,-0.35154 1.1524,-0.4708 1.86839,-0.38793 0.18709,0.0267 0.14929,0.29131 -0.0378,0.26458 z"
       inkscape:connector-curvature="0" />
    <path
       style="opacity:1;fill:#ffffff;fill-opacity:1;fill-rule:nonzero;stroke:#000000;stroke-width:1;stroke-linecap:round;stroke-linejoin:round;stroke-miterlimit:4;stroke-dasharray:none;stroke-dashoffset:0;stroke-opacity:1;paint-order:markers fill stroke"
       id="path4813"
       d="m 129.25544,178.8045 c 0.12262,0.74158 0.12873,1.49655 0.23716,2.23896 0.0561,0.3094 0.10777,0.61942 0.15539,0.93022 0.0286,0.18681 -0.23558,0.22727 -0.26419,0.0405 v 0 c -0.0477,-0.31152 -0.0997,-0.62221 -0.15571,-0.93236 -0.10683,-0.74292 -0.11656,-1.49742 -0.23723,-2.23948 -0.0267,-0.18709 0.23785,-0.22489 0.26458,-0.0378 z"
       inkscape:connector-curvature="0" />
    <path
       style="opacity:1;fill:#ffffff;fill-opacity:1;fill-rule:nonzero;stroke:#000000;stroke-width:1;stroke-linecap:round;stroke-linejoin:round;stroke-miterlimit:4;stroke-dasharray:none;stroke-dashoffset:0;stroke-opacity:1;paint-order:markers fill stroke"
       id="path4815"
       d="m 121.06158,172.58604 c 0.81482,0 1.62964,0 2.44446,0 0.59392,-0.0199 1.19292,0.04 1.78376,-0.0311 0.39055,-0.0375 0.7071,-0.14248 0.66417,-0.57094 -0.1681,-0.35546 -0.36488,-0.6346 0.094,-0.84893 0.47226,-0.035 0.91838,0.19142 1.30054,0.44815 0.34198,0.29381 0.56428,0.58675 0.59756,1.04125 -0.0156,0.20671 -0.0905,0.37615 -0.18871,0.5539 -0.0941,0.16391 -0.32588,0.0309 -0.2318,-0.13304 v 0 c 0.077,-0.12729 0.13014,-0.25481 0.15381,-0.40338 -0.0207,-0.37115 -0.20698,-0.59135 -0.4811,-0.83768 -0.31367,-0.21612 -0.6836,-0.40404 -1.07125,-0.41389 -0.24639,-0.0763 0.0777,0.51459 0.0936,0.57514 0.0302,0.62052 -0.33535,0.78468 -0.89979,0.85488 -0.60185,0.0684 -1.20999,0.017 -1.81477,0.0329 -0.81482,0 -1.62964,0 -2.44446,0 -0.18898,0 -0.18898,-0.26727 0,-0.26727 z"
       inkscape:connector-curvature="0" />
    <path
       style="opacity:1;fill:#ffffff;fill-opacity:1;fill-rule:nonzero;stroke:#000000;stroke-width:1;stroke-linecap:round;stroke-linejoin:round;stroke-miterlimit:4;stroke-dasharray:none;stroke-dashoffset:0;stroke-opacity:1;paint-order:markers fill stroke"
       id="path4817"
       d="m 143.66622,267.81084 c 0.742,-0.0177 1.48739,0.0379 2.22698,-0.0314 0.58823,-0.0887 1.17707,-0.16548 1.7707,-0.20549 0.53458,-0.0188 1.06269,-0.0174 1.59086,-0.1064 0.60717,-0.10396 1.22166,-0.14801 1.83635,-0.17441 0.6018,-0.0337 1.20643,0.0137 1.80592,-0.05 0.56067,-0.10963 1.13526,-0.12972 1.69569,-0.23418 0.53339,-0.12898 1.076,-0.19952 1.62252,-0.23856 0.53871,0.0104 1.06243,-0.11042 1.5918,-0.19049 0.34546,-0.12632 0.91943,0.0698 1.20874,-0.19872 -0.18211,0.0179 -0.35913,-0.17207 -0.5354,-0.25128 -0.38274,-0.1914 -0.73139,-0.42868 -1.04347,-0.72146 -0.31819,-0.50908 0.39826,-0.49321 0.7084,-0.45178 0.46427,0.0639 0.90351,0.24486 1.32522,0.44232 0.42118,0.22196 0.68003,0.50872 0.83074,0.9584 0.0876,0.45065 -0.11553,0.79724 -0.35985,1.1525 -0.26859,0.35401 -0.61029,0.61494 -0.97527,0.86085 -0.29147,0.16476 -0.57088,0.35051 -0.85101,0.53397 -0.15811,0.10351 -0.30451,-0.1201 -0.14639,-0.22362 v 0 c 0.27917,-0.1827 0.55758,-0.36802 0.84808,-0.53201 0.33728,-0.22718 0.65483,-0.46424 0.90437,-0.79063 0.1956,-0.28442 0.38126,-0.55316 0.32607,-0.9179 -0.12162,-0.38242 -0.33506,-0.60841 -0.69008,-0.79951 -0.39737,-0.18608 -0.8104,-0.35927 -1.24791,-0.41954 -0.16502,-0.0229 -0.29869,-0.0152 -0.45671,-0.019 -0.003,-7e-5 -0.0609,-0.0557 -0.0612,-0.053 -0.002,0.0235 0.0194,0.0431 0.0291,0.0646 0.28892,0.27525 0.61575,0.49223 0.97106,0.67268 0.27782,0.12887 0.77699,0.34151 0.57931,0.71204 -0.38957,0.2502 -0.8871,0.15949 -1.32384,0.24529 -0.53622,0.081 -1.06714,0.20264 -1.61276,0.19281 -0.5367,0.0381 -1.06935,0.10799 -1.5931,0.23481 -0.56788,0.10345 -1.14845,0.12872 -1.7165,0.23718 -0.6053,0.0615 -1.21457,0.0203 -1.82207,0.0512 -0.60368,0.0259 -1.20718,0.0689 -1.80348,0.17096 -0.53706,0.0901 -1.07375,0.0921 -1.61724,0.10949 -0.59148,0.0397 -1.17797,0.11734 -1.76415,0.20497 -0.74807,0.0677 -1.50107,0.0173 -2.25147,0.0325 -0.18899,0 -0.18899,-0.26727 0,-0.26727 z"
       inkscape:connector-curvature="0" />
    <path
       style="opacity:1;fill:#ffffff;fill-opacity:1;fill-rule:nonzero;stroke:#000000;stroke-width:1;stroke-linecap:round;stroke-linejoin:round;stroke-miterlimit:4;stroke-dasharray:none;stroke-dashoffset:0;stroke-opacity:1;paint-order:markers fill stroke"
       id="path4819"
       d="m 156.98981,255.76951 c -0.71925,-0.25124 -1.39228,-0.14606 -2.07549,0.13641 -0.46542,0.23923 -0.71944,0.66249 -0.87591,1.14429 -0.1485,0.46945 -0.10598,0.92382 -0.0176,1.39582 0.0998,0.37353 0.34228,0.44916 0.68911,0.43816 0.40208,-0.11416 0.68811,-0.46103 0.95026,-0.76815 0.33885,-0.39769 0.59553,-0.84956 0.76023,-1.34407 0.0339,-0.10185 0.1624,-0.87675 0.16993,-0.87669 0.10125,7.9e-4 0.19867,0.0392 0.29801,0.0588 0.16548,0.40446 0.24343,0.84832 0.33758,1.27647 0.0969,0.53879 0.25092,1.06577 0.41538,1.58735 0.12471,0.31131 0.28537,0.60047 0.46954,0.87963 0.10384,0.15791 -0.11947,0.30476 -0.22331,0.14685 v 0 c -0.19683,-0.30021 -0.36996,-0.61072 -0.50113,-0.94611 -0.16684,-0.52914 -0.32275,-1.0639 -0.42153,-1.61038 -0.0858,-0.39127 -0.16978,-0.78719 -0.28668,-1.16867 0.0532,-0.0401 0.16845,-0.19026 0.15617,-0.12477 -0.0539,0.28741 -0.0706,0.58228 -0.16058,0.86258 -0.17792,0.52638 -0.44842,1.00939 -0.8107,1.43298 -0.31389,0.36469 -0.6536,0.76172 -1.1465,0.86138 -0.47804,0.009 -0.82978,-0.1583 -0.9585,-0.65619 -0.0965,-0.51606 -0.1354,-1.01676 0.0265,-1.52856 0.1854,-0.55632 0.48674,-1.03693 1.02794,-1.30781 0.73878,-0.3035 1.47465,-0.4134 2.25075,-0.14629 0.18172,0.0519 0.1083,0.30891 -0.0734,0.25699 z"
       inkscape:connector-curvature="0" />
    <path
       style="opacity:1;fill:#ffffff;fill-opacity:1;fill-rule:nonzero;stroke:#000000;stroke-width:1;stroke-linecap:round;stroke-linejoin:round;stroke-miterlimit:4;stroke-dasharray:none;stroke-dashoffset:0;stroke-opacity:1;paint-order:markers fill stroke"
       id="path4821"
       d="m 159.30828,259.2543 c 0.56676,-0.15954 1.24151,-0.30884 1.71191,0.1326 0.2369,0.4075 0.11682,0.83623 0.0114,1.26162 -0.13826,0.39463 -0.34999,0.75503 -0.51177,1.13864 -0.0979,0.20687 -0.39713,0.50617 -0.0865,0.63374 0.41879,0.13268 0.85673,0.007 1.27889,-0.0533 0.40519,-0.15304 0.86961,-0.17146 1.23385,-0.41459 0.15918,-0.10188 0.30326,0.12323 0.14408,0.22511 v 0 c -0.40607,0.25179 -0.89031,0.30607 -1.34027,0.45408 -0.48136,0.0685 -0.97705,0.20491 -1.4486,0.021 -0.41769,-0.27054 -0.25482,-0.61097 -0.0275,-0.97045 0.15783,-0.37032 0.35833,-0.71981 0.49841,-1.09858 0.0832,-0.33568 0.19432,-0.67205 0.0563,-1.01111 -0.32902,-0.40509 -1.03463,-0.15571 -1.44678,-0.0618 -0.18171,0.0519 -0.25514,-0.20507 -0.0734,-0.25699 z"
       inkscape:connector-curvature="0" />
    <path
       style="opacity:1;fill:#ffffff;fill-opacity:1;fill-rule:nonzero;stroke:#000000;stroke-width:1;stroke-linecap:round;stroke-linejoin:round;stroke-miterlimit:4;stroke-dasharray:none;stroke-dashoffset:0;stroke-opacity:1;paint-order:markers fill stroke"
       id="path4823"
       d="m 152.93052,252.36409 c 0.77178,0 1.54355,0 2.31533,0 0.6471,0 1.2942,0 1.9413,0 0.28259,-0.0132 0.64781,-0.14627 0.53673,-0.48901 -0.12785,-0.32597 -0.40379,-0.55255 -0.49372,-0.89783 0.0855,-0.53534 0.66039,-0.36171 1.01905,-0.23306 0.46408,0.22229 0.64231,0.66952 0.66442,1.15819 -0.01,0.47612 -0.29073,0.83435 -0.57646,1.18631 -0.11912,0.14673 -0.32662,-0.0217 -0.2075,-0.16845 v 0 c 0.24374,-0.30022 0.50197,-0.60272 0.51683,-1.00953 -0.005,-0.37544 -0.13795,-0.73587 -0.48788,-0.91507 -0.18016,-0.0652 -0.4938,-0.22063 -0.66768,-0.0769 0.0556,0.34639 0.43369,0.55097 0.49471,0.90243 0.0796,0.52476 -0.30164,0.78526 -0.7985,0.81021 -0.6471,0 -1.2942,0 -1.9413,0 -0.77178,0 -1.54355,0 -2.31533,0 -0.18898,0 -0.18898,-0.26727 0,-0.26727 z"
       inkscape:connector-curvature="0" />
    <path
       style="opacity:1;fill:#ffffff;fill-opacity:1;fill-rule:nonzero;stroke:#000000;stroke-width:1;stroke-linecap:round;stroke-linejoin:round;stroke-miterlimit:4;stroke-dasharray:none;stroke-dashoffset:0;stroke-opacity:1;paint-order:markers fill stroke"
       id="path4827"
       d="m 91.715025,231.72168 c 0.74713,0.25024 1.48854,0.51965 2.24179,0.75109 0.61109,0.15389 1.22855,0.28232 1.838199,0.44209 0.681117,0.17561 1.368174,0.32843 2.048081,0.50891 0.780354,0.19147 1.566531,0.35641 2.350215,0.53312 0.83355,0.16089 1.65854,0.35059 2.47567,0.58079 0.68956,0.18792 1.37967,0.37251 2.06334,0.58084 0.5683,0.16082 1.12909,0.34791 1.68792,0.53911 0.32745,0.0841 0.6315,0.2335 0.94899,0.34698 0.17792,0.0637 0.0878,0.31535 -0.0901,0.25162 v 0 c -0.31621,-0.1135 -0.61924,-0.26165 -0.94538,-0.34572 -0.55598,-0.19025 -1.11383,-0.37655 -1.67931,-0.53633 -0.68186,-0.20777 -1.37016,-0.39184 -2.05791,-0.57924 -0.81261,-0.22894 -1.63305,-0.41736 -2.462,-0.57733 -0.786944,-0.17761 -1.576491,-0.343 -2.360065,-0.53554 -0.679507,-0.18091 -1.366544,-0.33284 -2.047318,-0.50871 -0.613032,-0.16141 -1.234552,-0.28885 -1.848852,-0.44513 -0.75146,-0.23121 -1.49149,-0.49914 -2.23666,-0.74956 -0.18172,-0.0519 -0.10829,-0.30891 0.0734,-0.25699 z"
       inkscape:connector-curvature="0" />
    <path
       style="opacity:1;fill:#ffffff;fill-opacity:1;fill-rule:nonzero;stroke:#000000;stroke-width:1;stroke-linecap:round;stroke-linejoin:round;stroke-miterlimit:4;stroke-dasharray:none;stroke-dashoffset:0;stroke-opacity:1;paint-order:markers fill stroke"
       id="path4829"
       d="m 92.716035,231.97331 c 0.24159,0.63349 0.46911,1.2694 0.77331,1.87627 0.0276,0.0541 0.5222,0.83364 0.39127,0.87244 -0.0992,0.0294 -0.20681,-0.002 -0.31022,-0.002 -0.30817,-0.26557 -0.58433,-0.5645 -0.88422,-0.83871 -0.27883,-0.27603 -0.54373,-0.56733 -0.83286,-0.83278 -0.28322,-0.32553 -0.58838,-0.62842 -0.91533,-0.90991 -0.32621,-0.33919 -0.66697,-0.66093 -1.01837,-0.974 -0.31064,-0.35754 -0.70119,-0.65212 -0.95103,-1.05788 -0.1363,-0.52087 0.48072,-0.54715 0.84329,-0.57868 0.56456,-0.0623 1.11861,0.0708 1.67542,0.14347 0.58867,0.0734 1.18176,0.0945 1.7743,0.10637 0.54036,0.008 1.0808,0.006 1.6212,0.006 0.267,-2.6e-4 0.534002,-5.3e-4 0.801002,-7.9e-4 0.188987,-1.8e-4 0.189237,0.26709 2.5e-4,0.26727 v 0 c -0.26699,2.5e-4 -0.533982,5.2e-4 -0.800962,7.9e-4 -0.54229,5.3e-4 -1.08462,0.002 -1.62687,-0.006 -0.6023,-0.0121 -1.20516,-0.0338 -1.80351,-0.10857 -0.53789,-0.0703 -1.07276,-0.20084 -1.61804,-0.14219 -0.13024,0.011 -0.62936,0.006 -0.63686,0.17494 0.22431,0.38786 0.61874,0.6511 0.8996,0.99577 0.35025,0.31204 0.69058,0.6323 1.015,0.97105 0.32899,0.28348 0.63807,0.58733 0.92216,0.91598 0.28774,0.26668 0.55473,0.55527 0.8323,0.83227 0.29027,0.26716 0.56073,0.55481 0.85626,0.81632 -0.0329,0.0484 -0.0734,0.0923 -0.0986,0.1451 -0.007,0.0146 0.0122,0.0633 0.006,0.0483 -0.10184,-0.24909 -0.23356,-0.49502 -0.38027,-0.72464 -0.31077,-0.62198 -0.5459,-1.27274 -0.79128,-1.92245 -0.0519,-0.18172 0.20507,-0.25514 0.25699,-0.0734 z"
       inkscape:connector-curvature="0" />
    <path
       style="opacity:1;fill:#ffffff;fill-opacity:1;fill-rule:nonzero;stroke:#000000;stroke-width:1;stroke-linecap:round;stroke-linejoin:round;stroke-miterlimit:4;stroke-dasharray:none;stroke-dashoffset:0;stroke-opacity:1;paint-order:markers fill stroke"
       id="path4837"
       d="m 97.34188,220.96459 c 0.39744,-0.60759 0.64501,-1.2845 0.80169,-1.98898 0.10074,-0.53418 0.14855,-1.07072 0.0502,-1.60647 -0.0559,-0.18371 -0.0398,-0.86562 -0.37942,-0.70495 -0.35492,0.24444 -0.52909,0.68461 -0.6763,1.07483 -0.16818,0.52199 -0.32243,1.04279 -0.40683,1.58541 -0.0686,0.52758 -0.0728,1.06044 -0.0771,1.59157 -0.0127,0.53178 -0.0122,1.05593 0.0758,1.58086 0.0442,0.58218 0.35399,1.02426 0.70046,1.4671 0.22072,0.2628 0.47512,0.4368 0.79426,0.2448 0.34817,-0.25974 0.44056,-0.67864 0.51096,-1.08361 0.0275,-0.43509 -0.12932,-0.73665 -0.48548,-0.97475 -0.25697,-0.13862 -0.5457,-0.17796 -0.82949,-0.22392 -0.18654,-0.0303 -0.14373,-0.29409 0.0428,-0.26382 v 0 c 0.32303,0.0525 0.6496,0.10216 0.93843,0.26774 0.43604,0.3082 0.64092,0.6981 0.59695,1.24104 -0.0869,0.48881 -0.21698,0.97546 -0.64863,1.27326 -0.4517,0.22256 -0.81834,0.0648 -1.13033,-0.31605 -0.3735,-0.47746 -0.70202,-0.96261 -0.75357,-1.58774 -0.09,-0.54034 -0.0932,-1.07982 -0.0794,-1.62706 0.004,-0.5442 0.009,-1.09018 0.0803,-1.63066 0.0879,-0.56079 0.24605,-1.09973 0.42102,-1.63901 0.18129,-0.47507 0.39749,-1.00162 0.87442,-1.2422 0.62316,-0.0659 0.59707,0.45322 0.69413,0.91937 0.10294,0.57141 0.0572,1.14322 -0.0523,1.7125 -0.16503,0.73629 -0.42399,1.44409 -0.84016,2.079 -0.10483,0.15725 -0.32721,0.009 -0.22238,-0.14826 z"
       inkscape:connector-curvature="0" />
    <path
       style="opacity:1;fill:#ffffff;fill-opacity:1;fill-rule:nonzero;stroke:#000000;stroke-width:1;stroke-linecap:round;stroke-linejoin:round;stroke-miterlimit:4;stroke-dasharray:none;stroke-dashoffset:0;stroke-opacity:1;paint-order:markers fill stroke"
       id="path4839"
       d="m 94.89519,213.91394 c 0.76287,0.0995 1.51431,0.27531 2.25564,0.47842 0.53186,0.13206 1.02687,0.36095 1.56523,0.47049 0.36117,0.0373 0.49856,-0.17502 0.49179,-0.50318 -0.0464,-0.42452 -0.0107,-0.77695 0.49162,-0.76798 0.53166,0.0933 0.85121,0.41834 0.98011,0.92848 0.0339,0.46428 -0.17527,0.8662 -0.33895,1.28343 -0.0691,0.17589 -0.31788,0.0781 -0.24874,-0.0978 v 0 c 0.14429,-0.36639 0.332,-0.71766 0.32772,-1.12359 -0.0887,-0.40214 -0.33298,-0.6466 -0.74845,-0.72477 -0.27433,-0.10347 -0.2143,0.35464 -0.19605,0.50276 -0.009,0.49697 -0.28552,0.82405 -0.81266,0.76446 -0.54395,-0.112 -1.04569,-0.33774 -1.58225,-0.47455 -0.73054,-0.20018 -1.47098,-0.37386 -2.22281,-0.47161 -0.18709,-0.0267 -0.14929,-0.2913 0.0378,-0.26458 z"
       inkscape:connector-curvature="0" />
    <path
       style="opacity:1;fill:#ffffff;fill-opacity:1;fill-rule:nonzero;stroke:#000000;stroke-width:1;stroke-linecap:round;stroke-linejoin:round;stroke-miterlimit:4;stroke-dasharray:none;stroke-dashoffset:0;stroke-opacity:1;paint-order:markers fill stroke"
       id="path4845"
       d="m 100.66606,224.66157 c 0,0.7464 0,1.49281 0,2.23922 -0.0556,0.52363 -0.16647,1.03785 -0.21951,1.56208 -0.0694,0.30867 -0.0321,0.15809 -0.11118,0.45192 -0.0492,0.18247 -0.30725,0.1129 -0.25805,-0.0696 v 0 c 0.0738,-0.2733 0.0394,-0.13685 0.10332,-0.40932 0.0524,-0.51526 0.15754,-1.02118 0.21815,-1.5351 0,-0.74641 0,-1.49282 0,-2.23922 0,-0.18899 0.26727,-0.18899 0.26727,0 z"
       inkscape:connector-curvature="0" />
    <path
       style="opacity:1;fill:#ffffff;fill-opacity:1;fill-rule:nonzero;stroke:#000000;stroke-width:1;stroke-linecap:round;stroke-linejoin:round;stroke-miterlimit:4;stroke-dasharray:none;stroke-dashoffset:0;stroke-opacity:1;paint-order:markers fill stroke"
       id="path4847"
       d="m 178.13514,214.90478 c 0,0.74641 0,1.49281 0,2.23922 -0.0575,0.59546 -0.1646,1.18374 -0.21939,1.77969 -0.01,0.59699 -0.082,1.18345 -0.17154,1.77284 -0.0882,0.55859 -0.11877,1.12327 -0.13567,1.68776 0.0258,0.55022 -0.042,1.08588 -0.13257,1.6265 -0.0616,0.48745 -0.10564,0.96964 -0.26205,1.43792 -0.24029,0.4329 -0.56643,0.10765 -0.7319,-0.18901 -0.22632,-0.45606 -0.44421,-0.91722 -0.65587,-1.38056 -0.10577,-0.20616 -0.23756,-0.39779 -0.35377,-0.59727 -0.0305,-0.0523 -0.1393,-0.16642 -0.0788,-0.16376 0.0896,0.004 0.17633,0.0328 0.26449,0.0492 0.14854,0.43053 0.22761,0.87664 0.2808,1.32751 0.10974,0.5064 0.19233,1.01519 0.34851,1.50949 0.0981,0.37951 0.2369,0.7365 0.58704,0.93738 0.3267,0.14601 0.64074,0.0477 0.919,-0.15004 0.36778,-0.32808 0.71183,-0.67806 1.04588,-1.04036 0.2095,-0.21475 0.39077,-0.45257 0.58971,-0.67679 0.12551,-0.1413 0.32533,0.0362 0.19983,0.17749 v 0 c -0.20027,0.22521 -0.38202,0.4649 -0.59305,0.68047 -0.34751,0.37689 -0.70546,0.74186 -1.09127,1.07965 -0.37351,0.24914 -0.78204,0.36214 -1.20796,0.15855 -0.40032,-0.24954 -0.59355,-0.63262 -0.70405,-1.08588 -0.16104,-0.51037 -0.24789,-1.03559 -0.35909,-1.55876 -0.0532,-0.45411 -0.14066,-0.89932 -0.28156,-1.33504 0.0812,-0.0623 0.15454,-0.13628 0.24349,-0.18682 0.0146,-0.008 0.004,0.0348 0.0599,0.13024 0.12395,0.21119 0.2632,0.41433 0.37399,0.63372 0.20902,0.4581 0.42466,0.91387 0.64806,1.36483 0.0745,0.14541 0.15886,0.38466 0.24326,0.23052 0.15406,-0.45435 0.18814,-0.92398 0.25177,-1.39685 0.0886,-0.52888 0.15538,-1.05191 0.12902,-1.59036 0.0173,-0.57524 0.0487,-1.15065 0.13858,-1.71988 0.0887,-0.58431 0.16025,-1.16531 0.16963,-1.75723 0.0542,-0.58779 0.15713,-1.16835 0.21827,-1.75517 0,-0.74641 0,-1.49281 0,-2.23922 0,-0.18899 0.26727,-0.18899 0.26727,0 z"
       inkscape:connector-curvature="0" />
    <path
       style="opacity:1;fill:#ffffff;fill-opacity:1;fill-rule:nonzero;stroke:#000000;stroke-width:1;stroke-linecap:round;stroke-linejoin:round;stroke-miterlimit:4;stroke-dasharray:none;stroke-dashoffset:0;stroke-opacity:1;paint-order:markers fill stroke"
       id="path4849"
       d="m 184.43266,221.89859 c 0.37871,-0.63952 0.72484,-1.29959 0.96677,-2.00342 0.20924,-0.55193 0.12951,-1.10859 0.0627,-1.67643 -0.13632,-0.38136 -0.0957,-0.94074 -0.43286,-1.21798 -0.25029,0.07 -0.41567,0.46151 -0.54257,0.66662 -0.25572,0.48636 -0.46489,0.99714 -0.60206,1.52951 -0.11569,0.52003 -0.12892,1.05414 -0.13882,1.58449 -0.0309,0.53073 0.0477,1.05655 0.1879,1.56737 0.12705,0.54353 0.32197,1.05958 0.60992,1.53806 0.2068,0.43809 0.52766,0.64469 0.98312,0.75332 0.51422,0.0315 0.89993,-0.2581 1.16776,-0.66998 0.19257,-0.44145 -0.026,-0.80464 -0.31148,-1.14207 -0.39645,-0.37767 -0.87456,-0.58471 -1.40019,-0.70574 -0.22088,-0.003 -0.59252,-0.0563 -0.70697,0.19101 -0.10606,0.15643 -0.32728,0.006 -0.22122,-0.14999 v 0 c 0.24558,-0.31602 0.60703,-0.34223 0.98869,-0.30135 0.58192,0.13638 1.11168,0.3702 1.54505,0.79502 0.35904,0.43681 0.59398,0.90931 0.32868,1.4611 -0.34023,0.50251 -0.82051,0.84087 -1.45372,0.78164 -0.52037,-0.12957 -0.90935,-0.37706 -1.14912,-0.87583 -0.29753,-0.50081 -0.50706,-1.03714 -0.63842,-1.60504 -0.1445,-0.53573 -0.22994,-1.08621 -0.19723,-1.64253 0.0104,-0.55124 0.0253,-1.10628 0.14731,-1.64645 0.14504,-0.55793 0.36273,-1.09433 0.63352,-1.60317 0.20704,-0.33455 0.47268,-0.92174 0.9523,-0.7213 0.3625,0.36355 0.39134,0.90582 0.51585,1.38208 0.0714,0.6072 0.14787,1.20526 -0.0755,1.79475 -0.25061,0.72494 -0.60484,1.40639 -0.99706,2.06456 -0.10484,0.15725 -0.32722,0.009 -0.22239,-0.14825 z"
       inkscape:connector-curvature="0" />
    <path
       style="opacity:1;fill:#ffffff;fill-opacity:1;fill-rule:nonzero;stroke:#000000;stroke-width:1;stroke-linecap:round;stroke-linejoin:round;stroke-miterlimit:4;stroke-dasharray:none;stroke-dashoffset:0;stroke-opacity:1;paint-order:markers fill stroke"
       id="path4851"
       d="m 189.96626,223.06935 c 0.58748,-0.0533 1.18404,0.0505 1.49698,0.59006 0.16207,0.49747 -0.10018,0.97961 -0.2566,1.44492 -0.14219,0.37308 -0.46322,0.77932 -0.3451,1.19554 0.23689,0.25898 0.65332,0.26401 0.97856,0.23992 0.52035,-0.0642 1.03845,-0.18999 1.52705,-0.38075 0.1672,-0.10019 0.31801,-0.19761 0.4392,-0.35017 0.1221,-0.14425 0.3261,0.0284 0.204,0.17268 v 0 c -0.15925,0.18025 -0.331,0.31469 -0.54683,0.42678 -0.51528,0.19743 -1.05782,0.33457 -1.60625,0.39818 -0.46068,0.026 -1.00127,-0.006 -1.25647,-0.44794 -0.0927,-0.48608 0.1492,-0.90933 0.35252,-1.33946 0.13192,-0.39183 0.36666,-0.81089 0.27477,-1.23268 -0.21719,-0.45378 -0.7801,-0.48227 -1.22404,-0.4525 -0.18708,0.0267 -0.22488,-0.23785 -0.0378,-0.26458 z"
       inkscape:connector-curvature="0" />
    <path
       style="opacity:1;fill:#ffffff;fill-opacity:1;fill-rule:nonzero;stroke:#000000;stroke-width:1;stroke-linecap:round;stroke-linejoin:round;stroke-miterlimit:4;stroke-dasharray:none;stroke-dashoffset:0;stroke-opacity:1;paint-order:markers fill stroke"
       id="path4853"
       d="m 183.57069,213.74555 c 0.7464,0 1.49281,0 2.23922,0 0.22248,-0.0368 0.69079,-0.0174 0.81806,-0.27611 0.0336,-0.0683 -7e-5,-0.15237 -0.005,-0.22833 -0.12492,-0.33061 -0.34895,-0.62803 0.007,-0.88225 0.35545,-0.0486 0.69888,0.1544 1.00776,0.31031 0.45994,0.21791 0.80007,0.47698 1.01691,0.94354 0.12025,0.49186 -0.0356,0.96985 -0.24588,1.41334 -0.0793,0.19753 -0.21293,0.36391 -0.33103,0.53867 -0.10583,0.15658 -0.32726,0.007 -0.22144,-0.14966 v 0 c 0.11103,-0.16425 0.23784,-0.31874 0.31163,-0.5049 0.18025,-0.36805 0.31679,-0.77433 0.24338,-1.18692 -0.18301,-0.41474 -0.49223,-0.62115 -0.894,-0.81548 -0.24527,-0.12379 -0.50462,-0.26822 -0.77802,-0.30501 -0.002,-0.0117 0.005,-0.0307 -0.006,-0.035 -0.0376,-0.0145 -0.0372,0.0765 -0.0322,0.1164 0.0245,0.19535 0.1664,0.35325 0.18922,0.54988 5.3e-4,0.6751 -0.50824,0.72804 -1.08014,0.7788 -0.74641,0 -1.49282,0 -2.23923,0 -0.18898,0 -0.18898,-0.26726 0,-0.26726 z"
       inkscape:connector-curvature="0" />
  </g>
</svg>
