<?xml version="1.0" encoding="UTF-8" standalone="no"?>
<!-- Created with Inkscape (http://www.inkscape.org/) -->

<svg
   xmlns:dc="http://purl.org/dc/elements/1.1/"
   xmlns:cc="http://creativecommons.org/ns#"
   xmlns:rdf="http://www.w3.org/1999/02/22-rdf-syntax-ns#"
   xmlns:svg="http://www.w3.org/2000/svg"
   xmlns="http://www.w3.org/2000/svg"
   xmlns:sodipodi="http://sodipodi.sourceforge.net/DTD/sodipodi-0.dtd"
   xmlns:inkscape="http://www.inkscape.org/namespaces/inkscape"
   width="297mm"
   height="210mm"
   viewBox="0 0 297 210"
   version="1.1"
   id="svg8"
   inkscape:version="0.92.1 r15371"
   sodipodi:docname="direct-sum.svg">
  <defs
     id="defs2" />
  <sodipodi:namedview
     id="base"
     pagecolor="#ffffff"
     bordercolor="#666666"
     borderopacity="1.0"
     inkscape:pageopacity="0.0"
     inkscape:pageshadow="2"
     inkscape:zoom="0.98994949"
     inkscape:cx="575.35244"
     inkscape:cy="385.01469"
     inkscape:document-units="mm"
     inkscape:current-layer="layer1"
     showgrid="false"
     inkscape:window-width="1920"
     inkscape:window-height="1046"
     inkscape:window-x="-11"
     inkscape:window-y="-11"
     inkscape:window-maximized="1" />
  <metadata
     id="metadata5">
    <rdf:RDF>
      <cc:Work
         rdf:about="">
        <dc:format>image/svg+xml</dc:format>
        <dc:type
           rdf:resource="http://purl.org/dc/dcmitype/StillImage" />
        <dc:title></dc:title>
      </cc:Work>
    </rdf:RDF>
  </metadata>
  <g
     inkscape:label="Layer 1"
     inkscape:groupmode="layer"
     id="layer1"
     transform="translate(0,-87)">
    <path
       style="opacity:1;fill:none;fill-opacity:1;fill-rule:nonzero;stroke:#0731ff;stroke-width:1;stroke-linecap:round;stroke-linejoin:round;stroke-miterlimit:4;stroke-dasharray:none;stroke-dashoffset:0;stroke-opacity:1;paint-order:markers fill stroke"
       id="path4497"
       d="m 71.344273,197.57442 c -0.378703,0.63952 -0.724839,1.29958 -0.966764,2.00342 -0.176413,0.54955 -0.224136,1.10601 -0.147878,1.67442 0.06274,0.56393 0.325652,1.07574 0.618001,1.5532 0.388051,0.61783 0.933754,1.09421 1.475589,1.57098 0.761121,0.62914 1.619914,1.12924 2.509896,1.5511 1.159499,0.52914 2.390566,0.85184 3.624206,1.15219 1.457616,0.33803 2.934939,0.56323 4.417156,0.75971 1.708607,0.17584 3.423988,0.28849 5.137893,0.40329 1.849147,0.12601 3.699571,0.14895 5.550773,0.0765 1.837357,-0.0541 3.670393,-0.17303 5.504577,-0.28765 1.844718,-0.0685 3.676698,-0.29822 5.512798,-0.4729 1.8164,-0.17915 3.62398,-0.4298 5.43223,-0.67511 1.74678,-0.24335 3.48769,-0.5247 5.23083,-0.79202 1.59226,-0.24942 3.19585,-0.39707 4.79674,-0.57365 1.52153,-0.14509 3.03811,-0.3356 4.56165,-0.45965 1.54076,-0.10957 3.07786,-0.25166 4.62113,-0.32598 1.5452,-0.0633 3.0919,-0.0705 4.63815,-0.0754 1.49724,-0.002 2.99447,-5.2e-4 4.49171,2.7e-4 1.53736,-0.0393 3.06971,0.0317 4.60354,0.12246 1.4872,0.0888 2.97684,0.11959 4.46629,0.13726 1.41021,-0.0313 2.81499,0.0925 4.22142,0.17173 1.43123,0.0784 2.86461,-0.0373 4.29504,-0.0925 1.40439,-0.0438 2.80293,-0.18725 4.20601,-0.26198 1.32423,-0.14424 2.65563,-0.20406 3.98142,-0.32642 1.29956,-0.12251 2.59851,-0.26171 3.89069,-0.44765 1.22331,-0.15897 2.4254,-0.43921 3.63928,-0.65245 1.06436,-0.18245 2.1111,-0.44186 3.15883,-0.69935 0.93925,-0.26351 1.86389,-0.58149 2.787,-0.89741 0.85319,-0.29274 1.66076,-0.68775 2.48066,-1.05822 0.74721,-0.36761 1.49179,-0.74922 2.2064,-1.17777 0.58295,-0.32216 1.06051,-0.77538 1.56638,-1.19871 0.43093,-0.3542 0.72813,-0.81659 1.01721,-1.28514 0.32954,-0.48913 0.63979,-0.98818 0.83518,-1.54651 0.15578,-0.51878 0.31032,-1.0143 0.29867,-1.55917 -0.0307,-0.50516 -0.0519,-1.00661 -0.17334,-1.49878 -0.17654,-0.48486 -0.39852,-0.95174 -0.66677,-1.39229 -0.35837,-0.45345 -0.71317,-0.91033 -1.13638,-1.30549 -0.49647,-0.48587 -1.09431,-0.83431 -1.66881,-1.21547 -0.58305,-0.44273 -1.18348,-0.86014 -1.78635,-1.27535 -0.65708,-0.4531 -1.34381,-0.87262 -2.04262,-1.25985 -0.75515,-0.40675 -1.53004,-0.77595 -2.31393,-1.12417 -0.82826,-0.38347 -1.66924,-0.73749 -2.52002,-1.06839 -0.93865,-0.40274 -1.90766,-0.71846 -2.88193,-1.02103 -1.04632,-0.35096 -2.1048,-0.66624 -3.17263,-0.94495 -1.05326,-0.30921 -2.13673,-0.49301 -3.20612,-0.73512 -1.09298,-0.21631 -2.18556,-0.43615 -3.27975,-0.64701 -1.21201,-0.21482 -2.42878,-0.39841 -3.64565,-0.5831 -1.28043,-0.15699 -2.56409,-0.289 -3.84287,-0.45974 -1.28591,-0.17187 -2.57398,-0.3297 -3.85753,-0.51831 -1.34982,-0.19127 -2.70418,-0.3485 -4.05466,-0.53449 -1.40199,-0.1827 -2.81067,-0.29637 -4.21079,-0.49492 -1.38934,-0.20188 -2.7831,-0.3715 -4.17295,-0.56923 -1.44066,-0.20798 -2.88082,-0.41877 -4.32298,-0.61685 -1.50177,-0.2293 -3.00647,-0.44677 -4.5159,-0.6199 -1.46314,-0.16258 -2.93105,-0.27863 -4.39522,-0.42992 -1.39594,-0.18092 -2.80403,-0.2081 -4.20547,-0.317 -1.37407,-0.13274 -2.75267,-0.19846 -4.13219,-0.23556 -1.28242,-0.0283 -2.56523,-0.0285 -3.84789,-0.0293 -1.18925,-0.008 -2.37368,0.126 -3.56005,0.19529 -1.15002,0.10977 -2.2975,0.23294 -3.43385,0.44351 -1.03507,0.16836 -2.05644,0.40241 -3.07946,0.62993 -0.95811,0.23822 -1.917687,0.47386 -2.849769,0.80122 -0.882936,0.28975 -1.728674,0.67574 -2.575314,1.05552 -0.812713,0.40353 -1.640803,0.77687 -2.439813,1.20785 -0.786492,0.45397 -1.568767,0.91444 -2.358636,1.36298 -0.741743,0.46127 -1.493935,0.9029 -2.248736,1.34212 -0.781669,0.43222 -1.507474,0.95464 -2.247365,1.4527 -0.749676,0.53022 -1.497127,1.06355 -2.247411,1.59301 -0.77661,0.51736 -1.52427,1.07598 -2.292011,1.60613 -0.768564,0.5455 -1.562955,1.05319 -2.328797,1.60249 -0.76052,0.52688 -1.510961,1.06767 -2.264812,1.60391 -0.708265,0.49627 -1.363617,1.06111 -2.039596,1.59926 -0.670716,0.4943 -1.240758,1.09173 -1.794393,1.70931 -0.563288,0.58804 -1.064483,1.22561 -1.533414,1.88988 -0.210593,0.2816 -0.398989,0.57655 -0.608722,0.85871 -0.112845,0.1516 -0.327239,-0.008 -0.214394,-0.15959 v 0 c 0.208764,-0.28005 0.394967,-0.57387 0.604774,-0.85327 0.474929,-0.67269 0.982575,-1.31841 1.552752,-1.91414 0.563602,-0.62863 1.144725,-1.2363 1.826932,-1.74 0.679746,-0.54115 1.338807,-1.10907 2.051148,-1.60796 0.753605,-0.53599 1.503704,-1.07666 2.263971,-1.6033 0.767225,-0.55011 1.562711,-1.059 2.332696,-1.60524 0.767045,-0.52955 1.51385,-1.0878 2.289765,-1.60456 0.751901,-0.53058 1.500902,-1.06512 2.252265,-1.59635 0.744755,-0.50129 1.475415,-1.02695 2.262199,-1.462 0.755647,-0.43963 1.5085,-0.88197 2.251175,-1.34352 0.791572,-0.4495 1.575469,-0.91107 2.363774,-1.36583 0.804897,-0.43375 1.638552,-0.81042 2.457276,-1.21646 0.853524,-0.38274 1.706144,-0.77172 2.596192,-1.06384 0.942242,-0.33034 1.911684,-0.56982 2.880244,-0.80993 1.02615,-0.22816 2.05064,-0.46288 3.08884,-0.63183 1.14734,-0.21214 2.30575,-0.33746 3.46691,-0.44753 1.19161,-0.0696 2.38126,-0.2041 3.57579,-0.19574 1.285,7.9e-4 2.57015,0.001 3.85492,0.0294 1.38404,0.0373 2.76716,0.10315 4.14573,0.23628 1.40366,0.1094 2.81407,0.1361 4.21223,0.31761 1.46514,0.15157 2.93408,0.26747 4.39819,0.43024 1.5114,0.17348 3.01808,0.39097 4.52181,0.62065 1.44259,0.19817 2.88318,0.409 4.32427,0.61702 1.38979,0.19787 2.78355,0.36726 4.17283,0.56922 1.39974,0.19871 2.80814,0.31167 4.20973,0.49477 1.35125,0.18622 2.70645,0.34334 4.05705,0.53483 1.28236,0.18862 2.56932,0.34599 3.85404,0.51783 1.28034,0.17111 2.56564,0.30281 3.84759,0.46041 1.22038,0.18524 2.44065,0.36937 3.65613,0.5849 1.09701,0.21145 2.19244,0.43175 3.28821,0.64879 1.07218,0.2429 2.15858,0.427 3.21461,0.73718 1.0717,0.27994 2.13421,0.59596 3.18437,0.9483 0.98021,0.30442 1.95509,0.62226 2.89956,1.0272 0.85464,0.33255 1.69956,0.68807 2.53165,1.07323 0.79097,0.35161 1.57303,0.72404 2.33502,1.13468 0.70611,0.39185 1.40038,0.81548 2.06461,1.27347 0.60158,0.41435 1.20098,0.83059 1.78253,1.27276 0.58681,0.38948 1.19675,0.7467 1.70376,1.24314 0.43945,0.4131 0.81268,0.88606 1.18207,1.36176 0.28132,0.46414 0.51676,0.95508 0.69787,1.46719 0.12556,0.51164 0.15077,1.03249 0.18103,1.55754 0.01,0.57719 -0.14546,1.10443 -0.31379,1.65305 -0.20386,0.57563 -0.5176,1.0939 -0.85982,1.59807 -0.30415,0.49296 -0.62013,0.9774 -1.07325,1.34985 -0.51694,0.43166 -1.00538,0.89387 -1.60042,1.22292 -0.72373,0.43339 -1.477,0.82053 -2.23378,1.19209 -0.82771,0.37358 -1.6429,0.77224 -2.50412,1.06752 -0.93061,0.31841 -1.86271,0.63904 -2.80976,0.90408 -1.05355,0.25886 -2.10614,0.51955 -3.17639,0.70304 -1.21661,0.21356 -2.42136,0.49471 -3.64746,0.65376 -1.2967,0.1863 -2.6001,0.32649 -3.9042,0.44924 -1.32926,0.12238 -2.66403,0.18306 -3.99173,0.32717 -1.40439,0.0748 -2.80422,0.21847 -4.20992,0.26216 -1.43888,0.0555 -2.8807,0.17172 -4.32038,0.0923 -1.40248,-0.079 -2.80331,-0.20266 -4.20956,-0.17133 -1.49366,-0.0177 -2.98751,-0.0487 -4.4789,-0.1377 -1.52864,-0.0904 -3.05576,-0.16135 -4.58791,-0.122 -1.4969,-8e-4 -2.9938,-0.003 -4.49069,-2.7e-4 -1.54226,0.005 -3.08496,0.0121 -4.62617,0.0751 -1.54032,0.0741 -3.07448,0.21612 -4.6123,0.32541 -1.521,0.12375 -3.03504,0.31418 -4.55404,0.45892 -1.59716,0.17606 -3.19698,0.32337 -4.78552,0.57217 -1.74467,0.26753 -3.4871,0.54915 -5.23541,0.79268 -1.81179,0.24578 -3.6229,0.49687 -5.44285,0.67634 -1.83898,0.17492 -3.67383,0.405 -5.521439,0.47358 -1.836256,0.11474 -3.671372,0.23376 -5.510797,0.28797 -1.860643,0.0727 -3.720521,0.0498 -5.579087,-0.0769 -1.71967,-0.11521 -3.440837,-0.22814 -5.155154,-0.40501 -1.491655,-0.19781 -2.978386,-0.42464 -4.44526,-0.76497 -1.251315,-0.3047 -2.499749,-0.63317 -3.675597,-1.17043 -0.911912,-0.43357 -1.792546,-0.94543 -2.571839,-1.5919 -0.561957,-0.49453 -1.125776,-0.99097 -1.527133,-1.63234 -0.310544,-0.50991 -0.587912,-1.05586 -0.654831,-1.65728 -0.08035,-0.60995 -0.02987,-1.20769 0.160139,-1.79674 0.250606,-0.72494 0.604835,-1.40639 0.997059,-2.06456 0.104833,-0.15725 0.327215,-0.009 0.222382,0.14825 z"
       inkscape:connector-curvature="0" />
    <path
       style="opacity:1;fill:#da03ae;fill-opacity:1;fill-rule:nonzero;stroke:#da03ae;stroke-width:1;stroke-linecap:round;stroke-linejoin:round;stroke-miterlimit:4;stroke-dasharray:none;stroke-dashoffset:0;stroke-opacity:1;paint-order:markers fill stroke"
       id="path4499"
       d="m 164.03813,131.27997 c -0.57345,0.57962 -1.0864,1.21584 -1.62998,1.82338 -0.56768,0.6915 -1.12977,1.38619 -1.70384,2.07223 -0.64533,0.84128 -1.30827,1.6687 -1.93434,2.52459 -0.70192,0.88504 -1.34307,1.81472 -2.02112,2.71757 -0.72271,0.93112 -1.46351,1.84874 -2.17025,2.79214 -0.63757,0.89903 -1.34108,1.74696 -1.96562,2.65532 -0.62539,0.93111 -1.30875,1.82042 -1.98772,2.71242 -0.65124,0.92921 -1.34924,1.82402 -2.01174,2.74502 -0.64464,0.85336 -1.28833,1.70967 -1.95523,2.54583 -0.6521,0.86237 -1.38984,1.65334 -2.04328,2.51416 -0.68975,0.85447 -1.3918,1.69861 -2.0802,2.55416 -0.73388,0.81453 -1.37426,1.70212 -2.04223,2.5693 -0.67791,0.80702 -1.26607,1.68211 -1.86249,2.54933 -0.5477,0.81424 -1.08385,1.63618 -1.63201,2.45012 -0.5785,0.79907 -1.23103,1.5396 -1.82426,2.32763 -0.55127,0.73487 -1.10848,1.46544 -1.65154,2.20642 -0.51782,0.73825 -1.06288,1.45554 -1.60426,2.17639 -0.50259,0.66893 -1.05655,1.28969 -1.52259,1.98501 -0.42721,0.61151 -0.86568,1.21587 -1.31266,1.81326 -0.44511,0.52954 -0.85145,1.08934 -1.28966,1.62446 -0.34496,0.52591 -0.79305,0.96542 -1.19847,1.44234 -0.44343,0.47031 -0.82611,0.99307 -1.25883,1.4717 -0.3809,0.47714 -0.80955,0.91365 -1.19327,1.38783 -0.37783,0.44331 -0.7608,0.88608 -1.11238,1.3508 -0.36293,0.46346 -0.68167,0.96018 -1.06345,1.40852 -0.34128,0.35434 -0.66151,0.72672 -0.98106,1.10082 -0.32654,0.39201 -0.60626,0.81843 -0.91039,1.2268 -0.27684,0.38924 -0.51435,0.80426 -0.8166,1.17482 -0.26109,0.30049 -0.49825,0.6136 -0.71511,0.94796 -0.15953,0.28826 -0.3293,0.53245 -0.33722,0.86912 -0.006,0.1889 -0.27283,0.18087 -0.26715,-0.008 v 0 c 0.0136,-0.38671 0.19061,-0.67903 0.38033,-1.00682 0.22295,-0.34185 0.46559,-0.66373 0.73253,-0.97177 0.30192,-0.36547 0.53148,-0.78161 0.80907,-1.16519 0.30867,-0.41215 0.59034,-0.84457 0.92132,-1.24048 0.31956,-0.37409 0.63987,-0.74649 0.98109,-1.10086 0.37998,-0.44293 0.6922,-0.93839 1.05362,-1.39631 0.35408,-0.46652 0.73758,-0.91248 1.11776,-1.35767 0.38754,-0.47744 0.81807,-0.9187 1.20286,-1.399 0.43186,-0.47547 0.81095,-0.99789 1.25325,-1.46535 0.40445,-0.4757 0.85127,-0.91393 1.19533,-1.43859 0.43584,-0.532 0.8396,-1.08889 1.28244,-1.61523 0.44433,-0.59362 0.87994,-1.19434 1.30465,-1.80195 0.46892,-0.69923 1.02452,-1.32467 1.53089,-1.9967 0.54083,-0.71996 1.0852,-1.43647 1.6024,-2.17389 0.54383,-0.74182 1.10157,-1.47344 1.65359,-2.20918 0.59062,-0.78413 1.23906,-1.52187 1.8161,-2.31616 0.54867,-0.81463 1.08521,-1.63735 1.63347,-2.45227 0.59913,-0.87117 1.19012,-1.75016 1.87097,-2.56098 0.6692,-0.8686 1.31065,-1.75777 2.04573,-2.57375 0.68683,-0.8536 1.38719,-1.6959 2.07559,-2.54826 0.6551,-0.86225 1.39325,-1.65558 2.04721,-2.51921 0.66452,-0.83235 1.30489,-1.68566 1.94718,-2.53521 0.66399,-0.92289 1.36324,-1.81975 2.01603,-2.75082 0.6764,-0.88857 1.35722,-1.77441 1.98017,-2.70199 0.62688,-0.91118 1.33195,-1.76238 1.97195,-2.66413 0.70697,-0.94336 1.44753,-1.86128 2.17044,-2.79239 0.67745,-0.9019 1.31783,-1.83075 2.01912,-2.71487 0.62962,-0.86048 1.29587,-1.69268 1.94507,-2.5383 0.57599,-0.68828 1.13966,-1.38549 1.70963,-2.07893 0.5469,-0.61119 1.06288,-1.25133 1.64017,-1.83414 0.13364,-0.13364 0.32263,0.0554 0.18899,0.18899 z"
       inkscape:connector-curvature="0" />
    <path
       style="opacity:1;fill:none;fill-opacity:1;fill-rule:nonzero;stroke:#da03ae;stroke-width:1;stroke-linecap:round;stroke-linejoin:round;stroke-miterlimit:4;stroke-dasharray:none;stroke-dashoffset:0;stroke-opacity:1;paint-order:markers fill stroke"
       id="path4519"
       d="m 116.24555,193.56537 c -0.43129,0.60037 -0.82465,1.22517 -1.23254,1.84078 -0.14321,0.22964 -0.2885,0.45654 -0.42228,0.69181 -0.0935,0.16422 -0.32578,0.0319 -0.23223,-0.13229 v 0 c 0.13713,-0.24033 0.28489,-0.47278 0.43179,-0.70726 0.40863,-0.61533 0.80109,-1.24104 1.23288,-1.84129 0.10483,-0.15725 0.32721,-0.009 0.22238,0.14825 z"
       inkscape:connector-curvature="0" />
    <path
       style="opacity:1;fill:none;fill-opacity:1;fill-rule:nonzero;stroke:#da03ae;stroke-width:1;stroke-linecap:round;stroke-linejoin:round;stroke-miterlimit:4;stroke-dasharray:none;stroke-dashoffset:0;stroke-opacity:1;paint-order:markers fill stroke"
       id="path4521"
       d="m 112.50378,199.17803 c -0.3212,0.44575 -0.63302,0.89803 -0.96572,1.33525 -0.1145,0.15035 -0.32714,-0.0116 -0.21264,-0.16193 v 0 c 0.32963,-0.43252 0.6376,-0.88069 0.95598,-1.32157 0.10483,-0.15725 0.32721,-0.009 0.22238,0.14825 z"
       inkscape:connector-curvature="0" />
    <path
       style="opacity:1;fill:none;fill-opacity:1;fill-rule:nonzero;stroke:#da03ae;stroke-width:1;stroke-linecap:round;stroke-linejoin:round;stroke-miterlimit:4;stroke-dasharray:none;stroke-dashoffset:0;stroke-opacity:1;paint-order:markers fill stroke"
       id="path4523"
       d="m 109.83109,203.18708 c -0.4018,0.55162 -0.84977,1.06511 -1.28527,1.58936 -0.12081,0.14533 -0.32635,-0.0255 -0.20554,-0.17085 v 0 c 0.42984,-0.51678 0.87125,-1.02345 1.26842,-1.56677 0.10484,-0.15725 0.32722,-0.009 0.22239,0.14826 z"
       inkscape:connector-curvature="0" />
    <path
       style="opacity:1;fill:#da03ae;fill-opacity:1;fill-rule:nonzero;stroke:#da03ae;stroke-width:1;stroke-linecap:round;stroke-linejoin:round;stroke-miterlimit:4;stroke-dasharray:none;stroke-dashoffset:0;stroke-opacity:1;paint-order:markers fill stroke"
       id="path4527"
       d="m 106.08931,209.06701 c -0.35016,0.60095 -0.76182,1.16214 -1.17077,1.72381 -0.26477,0.42809 -0.5843,0.81667 -0.89225,1.2136 -0.36226,0.44198 -0.74717,0.86409 -1.10626,1.30859 -0.28507,0.33597 -0.60373,0.64051 -0.89788,0.96771 -0.26569,0.27065 -0.54739,0.52647 -0.80381,0.80612 -0.33812,0.38314 -0.67161,0.76972 -0.98739,1.17141 -0.323459,0.34239 -0.600033,0.72487 -0.870596,1.10924 -0.338924,0.42033 -0.606359,0.88965 -0.9124,1.33233 -0.224949,0.3926 -0.463206,0.77282 -0.721135,1.14457 -0.266264,0.35168 -0.486918,0.73187 -0.725514,1.10135 -0.228589,0.39327 -0.470453,0.77672 -0.724599,1.15405 -0.265303,0.47053 -0.575923,0.91175 -0.879766,1.35728 -0.32372,0.38291 -0.612052,0.79397 -0.929954,1.18105 -0.304541,0.36272 -0.59276,0.73201 -0.854695,1.12707 -0.228943,0.42406 -0.521739,0.80676 -0.809032,1.19204 -0.28874,0.39969 -0.60457,0.77685 -0.913334,1.16072 -0.280834,0.30332 -0.579874,0.58805 -0.815773,0.92921 -0.247185,0.34684 -0.535234,0.65875 -0.808914,0.98371 -0.260294,0.34936 -0.530577,0.69062 -0.798158,1.0347 -0.284882,0.28132 -0.489992,0.62786 -0.712242,0.95834 -0.194786,0.39907 -0.407212,0.78324 -0.647499,1.15689 -0.288039,0.40136 -0.565901,0.81157 -0.892265,1.1832 -0.295749,0.34801 -0.534736,0.73779 -0.830852,1.08517 -0.279181,0.34412 -0.563777,0.67824 -0.83941,1.02501 -0.263578,0.36391 -0.484367,0.7553 -0.767699,1.10468 -0.24606,0.31669 -0.516638,0.6179 -0.808132,0.89377 -0.328076,0.38154 -0.679202,0.74341 -0.994696,1.13537 -0.327594,0.363 -0.632233,0.76042 -0.851125,1.19935 -0.214688,0.35489 -0.383736,0.73175 -0.594834,1.08928 -0.24467,0.4584 -0.506396,0.9076 -0.702228,1.38973 -0.182147,0.44327 -0.471307,0.82468 -0.714322,1.2337 -0.289449,0.39272 -0.555299,0.8017 -0.787924,1.23052 -0.186068,0.32782 -0.0976,0.16284 -0.265713,0.49477 -0.08548,0.16856 -0.323847,0.0477 -0.238368,-0.12088 v 0 c 0.1734,-0.34149 0.08351,-0.17439 0.269264,-0.50154 0.23496,-0.43139 0.500131,-0.84515 0.793104,-1.23961 0.23703,-0.39721 0.517382,-0.76804 0.696463,-1.19785 0.201967,-0.49379 0.467471,-0.95558 0.719674,-1.4249 0.208574,-0.35205 0.374039,-0.72394 0.586153,-1.07339 0.230531,-0.45428 0.539649,-0.87073 0.881814,-1.24696 0.323871,-0.40084 0.68149,-0.77327 1.019553,-1.16221 0.284536,-0.26616 0.544812,-0.56141 0.784254,-0.86814 0.284949,-0.34663 0.498732,-0.74209 0.765715,-1.10222 0.278413,-0.34867 0.564213,-0.68596 0.845513,-1.03239 0.298829,-0.34662 0.533659,-0.74162 0.833364,-1.08806 0.319153,-0.36001 0.585962,-0.76201 0.867918,-1.15099 0.241421,-0.37517 0.451942,-0.76209 0.650509,-1.16147 0.225603,-0.33536 0.434735,-0.68743 0.723168,-0.97342 0.270298,-0.34643 0.541842,-0.69102 0.804791,-1.04288 0.269165,-0.31803 0.550854,-0.62431 0.793789,-0.96401 0.241583,-0.3448 0.538525,-0.63914 0.826966,-0.94415 0.307224,-0.38087 0.620411,-0.7558 0.907225,-1.15283 0.284445,-0.38137 0.57423,-0.75991 0.800531,-1.17995 0.267044,-0.40276 0.561181,-0.77916 0.871106,-1.14925 0.313724,-0.3801 0.595312,-0.78642 0.915519,-1.16181 0.303752,-0.44499 0.613439,-0.88612 0.878893,-1.356 0.253442,-0.37598 0.494014,-0.75823 0.721998,-1.15011 0.241564,-0.37081 0.461695,-0.7549 0.730229,-1.10837 0.258146,-0.37152 0.495072,-0.7523 0.721,-1.14438 0.307467,-0.44246 0.573645,-0.9137 0.913632,-1.3341 0.27381,-0.38777 0.552043,-0.77504 0.879024,-1.12054 0.32057,-0.40672 0.65772,-0.79929 1.00088,-1.18724 0.25719,-0.27774 0.53565,-0.53522 0.8019,-0.80403 0.29212,-0.32266 0.60532,-0.62549 0.8885,-0.95673 0.35844,-0.4427 0.74096,-0.86446 1.1029,-1.30435 0.30632,-0.39482 0.62424,-0.78109 0.88736,-1.2071 0.40683,-0.55868 0.81632,-1.11683 1.16445,-1.71474 0.10483,-0.15724 0.32721,-0.009 0.22238,0.14826 z"
       inkscape:connector-curvature="0" />
    <path
       style="opacity:1;fill:none;fill-opacity:1;fill-rule:nonzero;stroke:#0a34ff;stroke-width:1;stroke-linecap:round;stroke-linejoin:round;stroke-miterlimit:4;stroke-dasharray:none;stroke-dashoffset:0;stroke-opacity:1;paint-order:markers fill stroke"
       id="path4529"
       d="m 139.11379,210.89574 c -0.0152,0.78064 -0.1007,1.56634 -0.22744,2.33709 -0.11712,0.66255 -0.21837,1.32493 -0.43683,1.96302 -0.16665,0.53888 -0.36786,1.05945 -0.62002,1.56344 -0.15942,0.41352 -0.41687,0.77332 -0.67475,1.12957 -0.30458,0.38884 -0.64291,0.65909 -1.11272,0.81324 -0.57142,0.16514 -1.09219,-0.0431 -1.60755,-0.27452 -0.49141,-0.25161 -0.8915,-0.57835 -1.17848,-1.05076 -0.285,-0.39407 -0.46285,-0.83359 -0.4771,-1.32048 0.0301,-0.57927 0.30721,-0.79487 0.8632,-0.82802 0.53359,0.0417 0.98028,0.32132 1.43954,0.56658 0.49506,0.28113 0.99542,0.55434 1.50606,0.80634 0.4602,0.27208 0.91196,0.55799 1.38483,0.80784 0.48495,0.29466 0.98252,0.56404 1.48068,0.83545 0.26355,0.13488 0.5398,0.21849 0.83511,0.22499 0.18886,0.007 0.17909,0.274 -0.01,0.26709 v 0 c -0.33677,-0.0161 -0.65298,-0.0983 -0.95325,-0.2574 -0.49707,-0.27104 -0.99394,-0.53958 -1.47777,-0.8339 -0.47036,-0.24923 -0.92133,-0.53162 -1.37818,-0.80444 -0.51302,-0.2536 -1.01623,-0.5275 -1.51365,-0.81023 -0.41654,-0.22263 -0.82013,-0.48094 -1.30071,-0.53536 -0.37338,0.0126 -0.60139,0.1465 -0.60886,0.55635 0.001,0.43979 0.18829,0.83331 0.43909,1.18775 0.25306,0.42861 0.61997,0.71439 1.05879,0.9444 0.45323,0.20368 0.91057,0.40606 1.416,0.26394 0.41767,-0.13193 0.70636,-0.37322 0.97828,-0.71563 0.24967,-0.34457 0.49916,-0.69162 0.65219,-1.09239 0.24688,-0.49341 0.44336,-1.00306 0.60632,-1.53081 0.21561,-0.62328 0.30906,-1.27237 0.42585,-1.9196 0.12543,-0.75614 0.20796,-1.52765 0.22387,-2.29355 0,-0.18899 0.26727,-0.18899 0.26727,0 z"
       inkscape:connector-curvature="0" />
    <path
       style="opacity:1;fill:#da03ae;fill-opacity:1;fill-rule:nonzero;stroke:#da03ae;stroke-width:1;stroke-linecap:round;stroke-linejoin:round;stroke-miterlimit:4;stroke-dasharray:none;stroke-dashoffset:0;stroke-opacity:1;paint-order:markers fill stroke"
       id="path4533"
       d="m 168.93103,144.12316 c 0.40919,-0.63191 0.76789,-1.28305 0.99861,-2.0009 0.17242,-0.60404 0.18269,-1.23475 0.19405,-1.85799 -7.9e-4,-0.56061 -0.0918,-1.12942 -0.22508,-1.67402 -0.0925,-0.22857 -0.11957,-1.0297 -0.49388,-1.00933 -0.33293,0.2521 -0.5322,0.64762 -0.72365,1.00949 -0.27903,0.62463 -0.52951,1.26269 -0.73481,1.91553 -0.18017,0.63861 -0.3417,1.27869 -0.42582,1.93743 -0.0664,0.62104 -0.0745,1.24609 -0.0791,1.87003 -0.0427,0.54639 0.0799,1.078 0.16114,1.61426 0.0495,0.53579 0.14268,1.0672 0.29329,1.58405 0.13601,0.44583 0.22004,0.93342 0.55195,1.28047 0.37489,0.27279 0.79533,0.0568 1.16899,-0.10385 0.5338,-0.26468 1.05566,-0.55445 1.5413,-0.9003 0.27994,-0.15664 0.48581,-0.3607 0.64401,-0.63521 0.0962,-0.16266 0.32625,-0.0266 0.23003,0.13608 v 0 c -0.1827,0.30251 -0.40594,0.54245 -0.71934,0.71707 -0.50204,0.35529 -1.03864,0.6569 -1.59053,0.92794 -0.48795,0.20934 -1.00477,0.41707 -1.47094,0.0395 -0.35024,-0.39036 -0.47609,-0.89053 -0.6122,-1.38734 -0.15207,-0.52852 -0.25125,-1.07065 -0.30081,-1.61836 -0.0832,-0.55002 -0.20713,-1.09591 -0.16416,-1.65627 0.005,-0.63463 0.0132,-1.2704 0.0813,-1.90204 0.0869,-0.67431 0.25063,-1.33006 0.43598,-1.9837 0.21068,-0.66815 0.46626,-1.32176 0.75363,-1.96051 0.23383,-0.43963 0.4899,-1.02241 1.01593,-1.14553 0.54591,0.17144 0.56476,0.72481 0.69745,1.20762 0.13657,0.56746 0.23353,1.15799 0.23257,1.74192 -0.0119,0.64946 -0.0248,1.30631 -0.20692,1.93516 -0.23986,0.74073 -0.60678,1.4151 -1.03059,2.06709 -0.10483,0.15725 -0.32721,0.009 -0.22238,-0.14825 z"
       inkscape:connector-curvature="0" />
  </g>
</svg>
