<?xml version="1.0" encoding="UTF-8" standalone="no"?>
<!-- Created with Inkscape (http://www.inkscape.org/) -->

<svg
   xmlns:dc="http://purl.org/dc/elements/1.1/"
   xmlns:cc="http://creativecommons.org/ns#"
   xmlns:rdf="http://www.w3.org/1999/02/22-rdf-syntax-ns#"
   xmlns:svg="http://www.w3.org/2000/svg"
   xmlns="http://www.w3.org/2000/svg"
   xmlns:sodipodi="http://sodipodi.sourceforge.net/DTD/sodipodi-0.dtd"
   xmlns:inkscape="http://www.inkscape.org/namespaces/inkscape"
   width="297mm"
   height="210mm"
   viewBox="0 0 297 210"
   version="1.1"
   id="svg8"
   inkscape:version="0.92.1 r15371"
   sodipodi:docname="indirect-sum-example.svg">
  <defs
     id="defs2" />
  <sodipodi:namedview
     id="base"
     pagecolor="#ffffff"
     bordercolor="#666666"
     borderopacity="1.0"
     inkscape:pageopacity="0.0"
     inkscape:pageshadow="2"
     inkscape:zoom="0.98994949"
     inkscape:cx="575.35244"
     inkscape:cy="425.42079"
     inkscape:document-units="mm"
     inkscape:current-layer="layer1"
     showgrid="false"
     inkscape:window-width="1920"
     inkscape:window-height="1046"
     inkscape:window-x="-11"
     inkscape:window-y="-11"
     inkscape:window-maximized="1" />
  <metadata
     id="metadata5">
    <rdf:RDF>
      <cc:Work
         rdf:about="">
        <dc:format>image/svg+xml</dc:format>
        <dc:type
           rdf:resource="http://purl.org/dc/dcmitype/StillImage" />
        <dc:title></dc:title>
      </cc:Work>
    </rdf:RDF>
  </metadata>
  <g
     inkscape:label="Layer 1"
     inkscape:groupmode="layer"
     id="layer1"
     transform="translate(0,-87)">
    <path
       style="opacity:1;fill:#da03ae;fill-opacity:1;fill-rule:nonzero;stroke:#0a34ff;stroke-width:1;stroke-linecap:round;stroke-linejoin:round;stroke-miterlimit:4;stroke-dasharray:none;stroke-dashoffset:0;stroke-opacity:1;paint-order:markers fill stroke"
       id="path4499"
       d="m 164.03813,131.27997 c -0.57345,0.57962 -1.0864,1.21584 -1.62998,1.82338 -0.56768,0.6915 -1.12977,1.38619 -1.70384,2.07223 -0.64533,0.84128 -1.30827,1.6687 -1.93434,2.52459 -0.70192,0.88504 -1.34307,1.81472 -2.02112,2.71757 -0.72271,0.93112 -1.46351,1.84874 -2.17025,2.79214 -0.63757,0.89903 -1.34108,1.74696 -1.96562,2.65532 -0.62539,0.93111 -1.30875,1.82042 -1.98772,2.71242 -0.65124,0.92921 -1.34924,1.82402 -2.01174,2.74502 -0.64464,0.85336 -1.28833,1.70967 -1.95523,2.54583 -0.6521,0.86237 -1.38984,1.65334 -2.04328,2.51416 -0.68975,0.85447 -1.3918,1.69861 -2.0802,2.55416 -0.73388,0.81453 -1.37426,1.70212 -2.04223,2.5693 -0.67791,0.80702 -1.26607,1.68211 -1.86249,2.54933 -0.5477,0.81424 -1.08385,1.63618 -1.63201,2.45012 -0.5785,0.79907 -1.23103,1.5396 -1.82426,2.32763 -0.55127,0.73487 -1.10848,1.46544 -1.65154,2.20642 -0.51782,0.73825 -1.06288,1.45554 -1.60426,2.17639 -0.50259,0.66893 -1.05655,1.28969 -1.52259,1.98501 -0.42721,0.61151 -0.86568,1.21587 -1.31266,1.81326 -0.44511,0.52954 -0.85145,1.08934 -1.28966,1.62446 -0.34496,0.52591 -0.79305,0.96542 -1.19847,1.44234 -0.44343,0.47031 -0.82611,0.99307 -1.25883,1.4717 -0.3809,0.47714 -0.80955,0.91365 -1.19327,1.38783 -0.37783,0.44331 -0.7608,0.88608 -1.11238,1.3508 -0.36293,0.46346 -0.68167,0.96018 -1.06345,1.40852 -0.34128,0.35434 -0.66151,0.72672 -0.98106,1.10082 -0.32654,0.39201 -0.60626,0.81843 -0.91039,1.2268 -0.27684,0.38924 -0.51435,0.80426 -0.8166,1.17482 -0.26109,0.30049 -0.49825,0.6136 -0.71511,0.94796 -0.15953,0.28826 -0.3293,0.53245 -0.33722,0.86912 -0.006,0.1889 -0.27283,0.18087 -0.26715,-0.008 v 0 c 0.0136,-0.38671 0.19061,-0.67903 0.38033,-1.00682 0.22295,-0.34185 0.46559,-0.66373 0.73253,-0.97177 0.30192,-0.36547 0.53148,-0.78161 0.80907,-1.16519 0.30867,-0.41215 0.59034,-0.84457 0.92132,-1.24048 0.31956,-0.37409 0.63987,-0.74649 0.98109,-1.10086 0.37998,-0.44293 0.6922,-0.93839 1.05362,-1.39631 0.35408,-0.46652 0.73758,-0.91248 1.11776,-1.35767 0.38754,-0.47744 0.81807,-0.9187 1.20286,-1.399 0.43186,-0.47547 0.81095,-0.99789 1.25325,-1.46535 0.40445,-0.4757 0.85127,-0.91393 1.19533,-1.43859 0.43584,-0.532 0.8396,-1.08889 1.28244,-1.61523 0.44433,-0.59362 0.87994,-1.19434 1.30465,-1.80195 0.46892,-0.69923 1.02452,-1.32467 1.53089,-1.9967 0.54083,-0.71996 1.0852,-1.43647 1.6024,-2.17389 0.54383,-0.74182 1.10157,-1.47344 1.65359,-2.20918 0.59062,-0.78413 1.23906,-1.52187 1.8161,-2.31616 0.54867,-0.81463 1.08521,-1.63735 1.63347,-2.45227 0.59913,-0.87117 1.19012,-1.75016 1.87097,-2.56098 0.6692,-0.8686 1.31065,-1.75777 2.04573,-2.57375 0.68683,-0.8536 1.38719,-1.6959 2.07559,-2.54826 0.6551,-0.86225 1.39325,-1.65558 2.04721,-2.51921 0.66452,-0.83235 1.30489,-1.68566 1.94718,-2.53521 0.66399,-0.92289 1.36324,-1.81975 2.01603,-2.75082 0.6764,-0.88857 1.35722,-1.77441 1.98017,-2.70199 0.62688,-0.91118 1.33195,-1.76238 1.97195,-2.66413 0.70697,-0.94336 1.44753,-1.86128 2.17044,-2.79239 0.67745,-0.9019 1.31783,-1.83075 2.01912,-2.71487 0.62962,-0.86048 1.29587,-1.69268 1.94507,-2.5383 0.57599,-0.68828 1.13966,-1.38549 1.70963,-2.07893 0.5469,-0.61119 1.06288,-1.25133 1.64017,-1.83414 0.13364,-0.13364 0.32263,0.0554 0.18899,0.18899 z"
       inkscape:connector-curvature="0" />
    <path
       style="opacity:1;fill:#da03ae;fill-opacity:1;fill-rule:nonzero;stroke:#000000;stroke-width:1;stroke-linecap:round;stroke-linejoin:round;stroke-miterlimit:4;stroke-dasharray:none;stroke-dashoffset:0;stroke-opacity:1;paint-order:markers fill stroke"
       id="path4684"
       d="m 100.71713,170.44788 c 0.86709,-0.0723 1.73086,-0.16082 2.5907,-0.29337 0.91585,-0.1475 1.82704,-0.32448 2.73955,-0.49257 1.06767,-0.23331 2.14067,-0.44586 3.22181,-0.60651 1.17948,-0.19825 2.36155,-0.38479 3.54684,-0.54554 1.22034,-0.19733 2.44794,-0.34294 3.6642,-0.56512 1.19194,-0.21033 2.36792,-0.49945 3.55896,-0.71447 1.11132,-0.20251 2.21113,-0.45806 3.31306,-0.70489 1.10066,-0.20406 2.18885,-0.46652 3.29312,-0.6507 1.13243,-0.18875 2.25201,-0.43972 3.37287,-0.68566 1.06965,-0.2759 2.1474,-0.51224 3.2266,-0.74624 1.00243,-0.20602 1.98561,-0.49191 2.98893,-0.69345 0.9744,-0.22555 1.95593,-0.42559 2.94362,-0.58393 0.9818,-0.20246 1.97493,-0.33515 2.96473,-0.49027 0.94367,-0.10914 1.8605,-0.36025 2.79011,-0.54422 0.87969,-0.20212 1.76186,-0.39638 2.64839,-0.5668 0.80687,-0.16796 1.60628,-0.36938 2.41325,-0.53606 0.76716,-0.14773 1.53018,-0.3012 2.30705,-0.38986 0.79541,-0.16133 1.60573,-0.21526 2.40725,-0.33107 0.81059,-0.10611 1.61481,-0.24697 2.42205,-0.37459 0.80772,-0.082 1.60556,-0.23261 2.41146,-0.32932 0.79738,-0.14775 1.59951,-0.25951 2.39714,-0.40495 0.83363,-0.12034 1.6608,-0.2795 2.4962,-0.38837 0.76336,-0.15604 1.53477,-0.25839 2.29809,-0.41346 0.7313,-0.10732 1.45091,-0.27501 2.18131,-0.38806 0.66187,-0.16717 1.34367,-0.23142 2.01028,-0.36954 0.62421,-0.14245 1.25934,-0.21742 1.89725,-0.25978 0.58059,-0.12318 1.17353,-0.17136 1.75609,-0.27875 0.57622,-0.12426 1.15948,-0.19444 1.73358,-0.32749 0.53649,-0.13292 1.08664,-0.18099 1.63696,-0.20812 0.24488,0.018 0.46083,-0.0339 0.68681,-0.11648 0.17819,-0.063 0.26723,0.18904 0.089,0.252 v 0 c -0.25098,0.0862 -0.49295,0.15058 -0.76273,0.13143 -0.53444,0.0262 -1.06877,0.0723 -1.58976,0.20155 -0.57819,0.13391 -1.1654,0.20538 -1.74576,0.33001 -0.59291,0.1079 -1.19537,0.16062 -1.78656,0.28254 -0.62575,0.0414 -1.24874,0.11495 -1.861,0.25486 -0.67135,0.1375 -1.35679,0.20533 -2.02335,0.3719 -0.72628,0.11221 -1.44176,0.27945 -2.16896,0.38585 -0.76951,0.15629 -1.5471,0.25993 -2.31678,0.41657 -0.83091,0.10814 -1.65359,0.26679 -2.48277,0.38627 -0.80297,0.14642 -1.61044,0.2592 -2.41327,0.40739 -0.8026,0.0961 -1.59713,0.24654 -2.40155,0.32794 -0.80846,0.12769 -1.61389,0.26879 -2.42566,0.37514 -0.80424,0.11554 -1.61694,0.17111 -2.41509,0.33207 -0.76894,0.0875 -1.52398,0.24008 -2.28331,0.38608 -0.80822,0.16656 -1.6087,0.36893 -2.41682,0.53676 -0.88609,0.17021 -1.76773,0.36464 -2.64698,0.56653 -0.93313,0.18438 -1.85335,0.43675 -2.80058,0.54607 -0.98951,0.15507 -1.98232,0.28777 -2.96384,0.49013 -0.98428,0.15756 -1.96227,0.35747 -2.9333,0.58208 -1.00204,0.20089 -1.98368,0.48745 -2.9849,0.6926 -1.079,0.23388 -2.15647,0.47038 -3.22595,0.74611 -1.12528,0.24687 -2.2493,0.49873 -3.3862,0.68822 -1.09946,0.18311 -2.18275,0.44512 -3.27865,0.64788 -1.10557,0.2476 -2.20902,0.50395 -3.32401,0.7071 -1.19089,0.21477 -2.3666,0.50441 -3.55842,0.71438 -1.22033,0.22262 -2.45187,0.3694 -3.67629,0.56704 -1.18419,0.1605 -2.36512,0.34706 -3.5435,0.54507 -1.07811,0.15997 -2.14795,0.37258 -3.21265,0.60498 -0.91506,0.16853 -1.82882,0.34594 -2.74724,0.49387 -0.87326,0.13459 -1.75065,0.22492 -2.63142,0.29649 -0.18899,0 -0.18899,-0.26727 0,-0.26727 z"
       inkscape:connector-curvature="0" />
    <path
       style="opacity:1;fill:#da03ae;fill-opacity:1;fill-rule:nonzero;stroke:#da03ae;stroke-width:1;stroke-linecap:round;stroke-linejoin:round;stroke-miterlimit:4;stroke-dasharray:none;stroke-dashoffset:0;stroke-opacity:1;paint-order:markers fill stroke"
       id="path4696"
       d="m 111.43847,132.42733 c 0.53438,0.53286 1.02865,1.10337 1.52082,1.67508 0.48192,0.51547 0.93167,1.05565 1.37487,1.60421 0.47549,0.56781 0.98204,1.10662 1.45566,1.67608 0.50217,0.61423 1.04029,1.19716 1.58808,1.77054 0.57132,0.55202 1.09404,1.14643 1.6102,1.74926 0.50977,0.59869 1.05099,1.1692 1.59828,1.73339 0.52886,0.54104 1.08462,1.05174 1.53869,1.65888 0.42459,0.52136 0.85248,1.04111 1.23909,1.59173 0.38243,0.50921 0.71797,1.04801 1.04462,1.59375 0.32173,0.55383 0.69824,1.06926 1.06138,1.59548 0.37517,0.53246 0.75665,1.06124 1.11293,1.60667 0.32454,0.54896 0.68456,1.07286 1.03922,1.60234 0.36826,0.57414 0.81811,1.08689 1.27856,1.5875 0.51892,0.58921 1.13315,1.0796 1.72364,1.59325 0.59089,0.51557 1.15504,1.06044 1.71511,1.60897 0.54029,0.48715 0.9873,1.06013 1.45661,1.61257 0.47228,0.52333 0.94089,1.05038 1.41972,1.5674 0.45982,0.44447 0.90097,0.90581 1.34628,1.36409 0.45483,0.41891 0.86412,0.883 1.23068,1.38047 0.35849,0.50162 0.70691,1.00642 1.08334,1.49442 0.39137,0.46822 0.76419,0.94967 1.13927,1.43097 0.31797,0.54754 0.75361,0.99237 1.17501,1.45633 0.4315,0.50192 0.88154,0.98702 1.33908,1.46514 0.49275,0.50454 0.91992,1.06763 1.38454,1.59776 0.45811,0.53841 0.84403,1.12759 1.24698,1.70588 0.40957,0.50446 0.79664,1.02672 1.21143,1.52714 0.48741,0.53958 0.85835,1.1679 1.2934,1.74846 0.44239,0.56793 0.86206,1.15098 1.32904,1.69957 0.41179,0.55596 0.84761,1.0914 1.30951,1.60629 0.50128,0.54677 1.02555,1.07179 1.54887,1.59728 0.50966,0.50221 0.94504,1.07264 1.41702,1.60953 0.46631,0.51779 0.88189,1.0776 1.33832,1.60435 0.46321,0.51939 0.87902,1.07771 1.33521,1.60356 0.49047,0.50613 0.91745,1.06644 1.3703,1.6052 0.35039,0.50662 0.7802,0.94914 1.13549,1.45158 0.27815,0.407 0.6295,0.75712 0.90714,1.16293 0.23155,0.28843 0.49393,0.53436 0.56233,0.90892 0.0263,0.18714 -0.23834,0.22437 -0.26467,0.0372 v 0 c -0.0205,-0.32934 -0.35474,-0.53389 -0.51872,-0.79591 -0.27385,-0.40604 -0.62989,-0.75178 -0.90449,-1.15912 -0.34963,-0.49711 -0.77732,-0.93203 -1.12168,-1.43366 -0.45191,-0.53776 -0.87803,-1.09694 -1.3676,-1.60203 -0.45614,-0.52598 -0.87231,-1.08406 -1.33531,-1.60368 -0.45593,-0.52635 -0.87146,-1.08536 -1.33706,-1.60291 -0.46828,-0.53277 -0.90037,-1.09871 -1.40566,-1.59738 -0.5266,-0.52879 -1.05413,-1.05713 -1.55845,-1.60742 -0.46335,-0.51667 -0.90146,-1.05331 -1.31409,-1.61154 -0.47043,-0.55293 -0.89383,-1.14007 -1.3394,-1.71254 -0.43227,-0.57721 -0.80132,-1.20146 -1.28529,-1.73817 -0.41943,-0.50625 -0.81139,-1.03416 -1.22498,-1.54495 -0.3969,-0.57047 -0.77753,-1.15114 -1.22865,-1.68245 -0.462,-0.52725 -0.88697,-1.08708 -1.37663,-1.58912 -0.45916,-0.47984 -0.91088,-0.9666 -1.3439,-1.47032 -0.42534,-0.46914 -0.86653,-0.91866 -1.18791,-1.47166 -0.37532,-0.4817 -0.74845,-0.96343 -1.1401,-1.43203 -0.37759,-0.48972 -0.72754,-0.9959 -1.08701,-1.49931 -0.3584,-0.48844 -0.76164,-0.94165 -1.20711,-1.35261 -0.44649,-0.46013 -0.88986,-0.92224 -1.35069,-1.36875 -0.48101,-0.52018 -0.95288,-1.04933 -1.42725,-1.57589 -0.46402,-0.54626 -0.90549,-1.11319 -1.43993,-1.59466 -0.55631,-0.54486 -1.11662,-1.08613 -1.70351,-1.59827 -0.59796,-0.52016 -1.2195,-1.01728 -1.74495,-1.61398 -0.46964,-0.51076 -0.92809,-1.03419 -1.30393,-1.61973 -0.35496,-0.53052 -0.71581,-1.05518 -1.04095,-1.60496 -0.35459,-0.54382 -0.73561,-1.07018 -1.10913,-1.601 -0.36608,-0.53114 -0.74596,-1.05126 -1.07069,-1.60996 -0.32333,-0.54024 -0.65529,-1.07366 -1.03413,-1.57757 -0.38441,-0.54896 -0.81246,-1.06531 -1.23446,-1.58534 -0.44574,-0.5989 -0.99742,-1.09823 -1.51632,-1.63262 -0.55113,-0.56817 -1.0961,-1.14275 -1.60946,-1.74565 -0.51302,-0.59916 -1.03241,-1.18996 -1.60043,-1.73846 -0.55201,-0.57783 -1.09423,-1.16532 -1.60031,-1.78426 -0.47441,-0.57045 -0.98221,-1.10986 -1.45808,-1.67903 -0.44145,-0.54642 -0.88941,-1.0844 -1.36952,-1.5978 -0.48783,-0.56668 -0.9775,-1.13238 -1.50726,-1.66046 -0.13364,-0.13364 0.0553,-0.32262 0.18899,-0.18899 z"
       inkscape:connector-curvature="0" />
    <path
       style="opacity:1;fill:#da03ae;fill-opacity:1;fill-rule:nonzero;stroke:#da03ae;stroke-width:1;stroke-linecap:round;stroke-linejoin:round;stroke-miterlimit:4;stroke-dasharray:none;stroke-dashoffset:0;stroke-opacity:1;paint-order:markers fill stroke"
       id="path4702"
       d="m 123.11093,130.78294 c 0.0897,-0.91695 0.24948,-1.8244 0.36595,-2.73809 0.0818,-0.80221 0.24158,-1.59235 0.32796,-2.3944 0.0557,-0.58626 -0.0157,-1.18942 -0.14626,-1.76255 -0.001,-0.13557 -0.29603,-1.06564 -0.51848,-0.88535 -0.2622,0.317 -0.25713,0.76814 -0.33299,1.15451 -0.16681,0.68565 -0.18265,1.39268 -0.27204,2.08917 -0.13113,0.78553 -0.19566,1.57867 -0.23191,2.3735 -0.009,0.73407 -0.0683,1.47261 0.002,2.20465 0.0684,0.58332 0.15705,1.15951 0.35303,1.71449 0.15362,0.51715 0.47361,0.93024 0.91032,1.23764 0.4206,0.26776 0.80811,0.22997 1.25826,0.0906 0.313,-0.14221 0.59492,-0.33472 0.84627,-0.56804 0.13918,-0.12785 0.31999,0.069 0.18081,0.19683 v 0 c -0.28271,0.2574 -0.59506,0.47559 -0.94836,0.62662 -0.53047,0.16284 -1.0031,0.18563 -1.49213,-0.12838 -0.47786,-0.34444 -0.83697,-0.79492 -1.00736,-1.36676 -0.201,-0.57621 -0.29815,-1.17266 -0.36694,-1.77806 -0.0684,-0.74477 -0.0145,-1.49508 -0.003,-2.24177 0.0367,-0.80216 0.10163,-1.60267 0.23384,-2.39548 0.0909,-0.70221 0.10576,-1.41537 0.27488,-2.10666 0.096,-0.48571 0.0766,-1.09614 0.56241,-1.3681 0.0705,8e-4 0.14363,-0.0167 0.21153,0.002 0.40321,0.11293 0.49955,0.76834 0.60049,1.08953 0.13444,0.6026 0.21176,1.23385 0.15126,1.84996 -0.0867,0.80376 -0.24618,1.59568 -0.32857,2.39956 -0.1167,0.91502 -0.27655,1.8238 -0.36649,2.74208 -0.0267,0.18709 -0.29131,0.14929 -0.26458,-0.0378 z"
       inkscape:connector-curvature="0" />
    <path
       style="opacity:1;fill:#da03ae;fill-opacity:1;fill-rule:nonzero;stroke:#da03ae;stroke-width:1;stroke-linecap:round;stroke-linejoin:round;stroke-miterlimit:4;stroke-dasharray:none;stroke-dashoffset:0;stroke-opacity:1;paint-order:markers fill stroke"
       id="path4704"
       d="m 130.52785,130.46651 c -0.10438,0.73881 -0.16473,1.48258 -0.20407,2.22738 -0.0343,0.58386 -0.0496,1.16133 0.0428,1.73936 0.0149,0.0897 0.0298,0.17933 0.0447,0.26899 0.031,0.18644 -0.2327,0.23022 -0.26366,0.0438 v 0 c -0.015,-0.0902 -0.03,-0.18051 -0.045,-0.27076 -0.0947,-0.59677 -0.0821,-1.19286 -0.0457,-1.7955 0.0398,-0.75271 0.10084,-1.50439 0.20639,-2.25106 0.0267,-0.18709 0.29131,-0.14929 0.26458,0.0378 z"
       inkscape:connector-curvature="0" />
    <path
       style="opacity:1;fill:#da03ae;fill-opacity:1;fill-rule:nonzero;stroke:#0a34ff;stroke-width:1;stroke-linecap:round;stroke-linejoin:round;stroke-miterlimit:4;stroke-dasharray:none;stroke-dashoffset:0;stroke-opacity:1;paint-order:markers fill stroke"
       id="path4706"
       d="m 171.25521,137.1796 c 0.3087,-0.80416 0.50174,-1.64127 0.62555,-2.49159 0.12848,-0.68911 0.0787,-1.36666 -0.008,-2.05449 -0.047,-0.51767 -0.19754,-1.01741 -0.40023,-1.49331 -0.0642,-0.15572 -0.10773,-0.35451 -0.24327,-0.47085 -0.008,-0.007 -0.0386,-0.007 -0.0315,8e-4 0.0684,0.0739 0.0954,-0.0227 0.0181,0.10291 -0.18892,0.43011 -0.29522,0.89928 -0.39362,1.35833 -0.14651,0.68372 -0.25417,1.37534 -0.39339,2.06024 -0.16131,0.67321 -0.23819,1.36127 -0.28378,2.05071 -0.0671,0.56345 -0.004,1.11075 0.0882,1.6654 0.0453,0.50072 0.14093,0.98429 0.25898,1.47157 0.11718,0.33379 0.25235,0.64982 0.6281,0.7256 0.37957,0.0389 0.69516,-0.15191 1.0235,-0.31133 0.19993,-0.10697 0.3567,-0.25878 0.50897,-0.42284 0.12944,-0.1377 0.32418,0.0454 0.19473,0.18306 v 0 c -0.17674,0.18597 -0.3564,0.35996 -0.58698,0.48022 -0.3861,0.1874 -0.759,0.39505 -1.20505,0.33017 -0.46951,-0.13171 -0.68177,-0.47268 -0.82303,-0.92196 -0.1195,-0.49352 -0.21672,-0.98387 -0.26289,-1.49077 -0.0953,-0.57471 -0.15913,-1.14323 -0.0912,-1.72679 0.0465,-0.70141 0.12479,-1.40143 0.28857,-2.08641 0.14011,-0.68564 0.24696,-1.37844 0.39397,-2.063 0.10683,-0.49647 0.21762,-1.01003 0.44387,-1.46617 0.36118,-0.41949 0.60119,0.0787 0.71362,0.42649 0.21223,0.49864 0.36915,1.02252 0.41949,1.56455 0.0898,0.71156 0.13883,1.41388 0.007,2.12653 -0.12595,0.86191 -0.31999,1.71122 -0.63303,2.52643 -0.0519,0.18172 -0.30891,0.10829 -0.25699,-0.0734 z"
       inkscape:connector-curvature="0" />
    <path
       style="opacity:1;fill:#da03ae;fill-opacity:1;fill-rule:nonzero;stroke:#0a34ff;stroke-width:1;stroke-linecap:round;stroke-linejoin:round;stroke-miterlimit:4;stroke-dasharray:none;stroke-dashoffset:0;stroke-opacity:1;paint-order:markers fill stroke"
       id="path4708"
       d="m 175.49996,138.55771 c 0.61647,-0.21913 1.14203,-0.31877 1.59435,0.22722 0.25958,0.45121 0.19209,0.93212 0.0529,1.40859 -0.16178,0.50989 -0.32704,1.01941 -0.512,1.52146 -0.11103,0.38038 -0.41463,0.88778 -0.13355,1.25281 0.27695,0.18082 0.65558,0.0655 0.96546,0.0328 0.48073,-0.11453 0.96298,-0.20788 1.4319,-0.36429 0.30251,-0.0864 0.59888,-0.19478 0.8783,-0.33905 0.1683,-0.086 0.28987,0.15207 0.12156,0.23803 v 0 c -0.29257,0.148 -0.59916,0.26604 -0.91533,0.35457 -0.48716,0.16234 -0.98831,0.26103 -1.48843,0.37654 -0.42103,0.0444 -0.87522,0.16958 -1.21649,-0.15137 -0.29313,-0.48627 -0.0758,-0.99664 0.10585,-1.49265 0.18365,-0.49637 0.34606,-1.00081 0.50654,-1.50502 0.11812,-0.38958 0.18832,-0.78979 -0.007,-1.16739 -0.31589,-0.43627 -0.82946,-0.31155 -1.27887,-0.14663 -0.17371,0.0744 -0.27899,-0.17122 -0.10529,-0.24566 z"
       inkscape:connector-curvature="0" />
    <path
       style="opacity:1;fill:#da03ae;fill-opacity:1;fill-rule:nonzero;stroke:#000000;stroke-width:1;stroke-linecap:round;stroke-linejoin:round;stroke-miterlimit:4;stroke-dasharray:none;stroke-dashoffset:0;stroke-opacity:1;paint-order:markers fill stroke"
       id="path4712"
       d="m 173.59156,169.82319 c 0,-0.81097 0,-1.62194 0,-2.43291 0.015,-0.68653 -0.11901,-1.36448 -0.1929,-2.04494 -0.0739,-0.34243 -0.005,-1.00535 -0.34291,-1.23182 -0.15499,0.13864 -0.22224,0.435 -0.29385,0.6282 -0.16312,0.48702 -0.20031,1.00064 -0.22634,1.50982 -0.021,0.58925 -0.0169,1.17904 -0.0161,1.76857 0.001,0.57997 0.002,1.15994 0.003,1.73992 0.0681,0.60164 0.16545,1.19866 0.21874,1.80212 0.0627,0.53708 0.25435,1.03067 0.49208,1.51045 0.20952,0.37502 0.448,0.6202 0.85709,0.75193 0.44945,0.0433 0.87175,-0.0681 1.276,-0.25412 0.30074,-0.19591 0.57493,-0.4269 0.82253,-0.6862 0.13096,-0.13626 0.32366,0.0489 0.1927,0.1852 v 0 c -0.27236,0.28177 -0.57025,0.53735 -0.90436,0.74419 -0.46622,0.2108 -0.95526,0.33722 -1.47094,0.26463 -0.47452,-0.16093 -0.77169,-0.44765 -1.01251,-0.88698 -0.25241,-0.50958 -0.45314,-1.03552 -0.51883,-1.60563 -0.0538,-0.6112 -0.15528,-1.21552 -0.21977,-1.82538 -5.3e-4,-0.57994 -0.001,-1.15987 -0.003,-1.7398 -7.9e-4,-0.5942 -0.005,-1.18868 0.0165,-1.7826 0.0276,-0.53631 0.0689,-1.07689 0.24274,-1.58925 0.12369,-0.33175 0.25475,-0.90364 0.72025,-0.73631 0.36439,0.35341 0.37684,0.92994 0.43274,1.40422 0.0748,0.69004 0.21045,1.3775 0.19446,2.07378 0,0.81097 0,1.62194 0,2.43291 0,0.18899 -0.26727,0.18899 -0.26727,0 z"
       inkscape:connector-curvature="0" />
    <path
       style="opacity:1;fill:#da03ae;fill-opacity:1;fill-rule:nonzero;stroke:#000000;stroke-width:1;stroke-linecap:round;stroke-linejoin:round;stroke-miterlimit:4;stroke-dasharray:none;stroke-dashoffset:0;stroke-opacity:1;paint-order:markers fill stroke"
       id="path4714"
       d="m 179.88908,171.11738 c 0.34936,-0.4771 0.76596,-0.92497 1.38759,-0.9442 0.50761,0.14002 0.41752,0.59442 0.31363,1.00052 -0.1925,0.44684 -0.45414,0.85115 -0.61064,1.31356 -0.12667,0.38925 -0.0743,0.76235 0.15315,1.09811 0.24653,0.34446 0.54516,0.64909 0.79908,0.9895 0.34255,0.37162 0.62137,0.76991 0.56697,1.29 -0.17245,0.47675 -0.5518,0.72732 -0.98184,0.95039 -0.47756,0.21675 -0.97305,0.30071 -1.47735,0.14442 -0.48824,-0.15723 -0.7001,-0.54325 -0.74316,-1.02972 0.004,-0.0848 0.009,-0.1697 0.0131,-0.25455 0.0105,-0.1887 0.27732,-0.17389 0.26685,0.0148 v 0 c -0.004,0.0737 -0.009,0.14734 -0.0133,0.22101 0.0172,0.37994 0.18265,0.67368 0.55935,0.79434 0.42927,0.14925 0.86383,0.0483 1.27204,-0.12786 0.35358,-0.18116 0.66915,-0.37271 0.83947,-0.74861 0.08,-0.43656 -0.25192,-0.78428 -0.51657,-1.09473 -0.25609,-0.34546 -0.56134,-0.65175 -0.8084,-1.00286 -0.26171,-0.41214 -0.33879,-0.85797 -0.18235,-1.33046 0.1561,-0.4553 0.40089,-0.85991 0.60477,-1.2939 0.0546,-0.21117 0.19915,-0.5409 -0.0539,-0.6667 -0.52181,-0.0207 -0.87487,0.45429 -1.1661,0.82519 -0.10483,0.15724 -0.32721,0.009 -0.22238,-0.14826 z"
       inkscape:connector-curvature="0" />
  </g>
</svg>
