<?xml version="1.0" encoding="UTF-8" standalone="no"?>
<!-- Created with Inkscape (http://www.inkscape.org/) -->

<svg
   xmlns:dc="http://purl.org/dc/elements/1.1/"
   xmlns:cc="http://creativecommons.org/ns#"
   xmlns:rdf="http://www.w3.org/1999/02/22-rdf-syntax-ns#"
   xmlns:svg="http://www.w3.org/2000/svg"
   xmlns="http://www.w3.org/2000/svg"
   xmlns:sodipodi="http://sodipodi.sourceforge.net/DTD/sodipodi-0.dtd"
   xmlns:inkscape="http://www.inkscape.org/namespaces/inkscape"
   width="297mm"
   height="210mm"
   viewBox="0 0 297 210"
   version="1.1"
   id="svg8"
   inkscape:version="0.92.1 r15371"
   sodipodi:docname="projection.svg">
  <defs
     id="defs2" />
  <sodipodi:namedview
     id="base"
     pagecolor="#ffffff"
     bordercolor="#666666"
     borderopacity="1.0"
     inkscape:pageopacity="0.0"
     inkscape:pageshadow="2"
     inkscape:zoom="0.98994949"
     inkscape:cx="575.35244"
     inkscape:cy="425.42079"
     inkscape:document-units="mm"
     inkscape:current-layer="layer1"
     showgrid="false"
     inkscape:window-width="1920"
     inkscape:window-height="1046"
     inkscape:window-x="-11"
     inkscape:window-y="-11"
     inkscape:window-maximized="1" />
  <metadata
     id="metadata5">
    <rdf:RDF>
      <cc:Work
         rdf:about="">
        <dc:format>image/svg+xml</dc:format>
        <dc:type
           rdf:resource="http://purl.org/dc/dcmitype/StillImage" />
        <dc:title></dc:title>
      </cc:Work>
    </rdf:RDF>
  </metadata>
  <g
     inkscape:label="Layer 1"
     inkscape:groupmode="layer"
     id="layer1"
     transform="translate(0,-87)">
    <path
       style="opacity:1;fill:none;fill-opacity:1;fill-rule:nonzero;stroke:#0731ff;stroke-width:1;stroke-linecap:round;stroke-linejoin:round;stroke-miterlimit:4;stroke-dasharray:none;stroke-dashoffset:0;stroke-opacity:1;paint-order:markers fill stroke"
       id="path4497"
       d="m 71.344273,197.57442 c -0.378703,0.63952 -0.724839,1.29958 -0.966764,2.00342 -0.176413,0.54955 -0.224136,1.10601 -0.147878,1.67442 0.06274,0.56393 0.325652,1.07574 0.618001,1.5532 0.388051,0.61783 0.933754,1.09421 1.475589,1.57098 0.761121,0.62914 1.619914,1.12924 2.509896,1.5511 1.159499,0.52914 2.390566,0.85184 3.624206,1.15219 1.457616,0.33803 2.934939,0.56323 4.417156,0.75971 1.708607,0.17584 3.423988,0.28849 5.137893,0.40329 1.849147,0.12601 3.699571,0.14895 5.550773,0.0765 1.837357,-0.0541 3.670393,-0.17303 5.504577,-0.28765 1.844718,-0.0685 3.676698,-0.29822 5.512798,-0.4729 1.8164,-0.17915 3.62398,-0.4298 5.43223,-0.67511 1.74678,-0.24335 3.48769,-0.5247 5.23083,-0.79202 1.59226,-0.24942 3.19585,-0.39707 4.79674,-0.57365 1.52153,-0.14509 3.03811,-0.3356 4.56165,-0.45965 1.54076,-0.10957 3.07786,-0.25166 4.62113,-0.32598 1.5452,-0.0633 3.0919,-0.0705 4.63815,-0.0754 1.49724,-0.002 2.99447,-5.2e-4 4.49171,2.7e-4 1.53736,-0.0393 3.06971,0.0317 4.60354,0.12246 1.4872,0.0888 2.97684,0.11959 4.46629,0.13726 1.41021,-0.0313 2.81499,0.0925 4.22142,0.17173 1.43123,0.0784 2.86461,-0.0373 4.29504,-0.0925 1.40439,-0.0438 2.80293,-0.18725 4.20601,-0.26198 1.32423,-0.14424 2.65563,-0.20406 3.98142,-0.32642 1.29956,-0.12251 2.59851,-0.26171 3.89069,-0.44765 1.22331,-0.15897 2.4254,-0.43921 3.63928,-0.65245 1.06436,-0.18245 2.1111,-0.44186 3.15883,-0.69935 0.93925,-0.26351 1.86389,-0.58149 2.787,-0.89741 0.85319,-0.29274 1.66076,-0.68775 2.48066,-1.05822 0.74721,-0.36761 1.49179,-0.74922 2.2064,-1.17777 0.58295,-0.32216 1.06051,-0.77538 1.56638,-1.19871 0.43093,-0.3542 0.72813,-0.81659 1.01721,-1.28514 0.32954,-0.48913 0.63979,-0.98818 0.83518,-1.54651 0.15578,-0.51878 0.31032,-1.0143 0.29867,-1.55917 -0.0307,-0.50516 -0.0519,-1.00661 -0.17334,-1.49878 -0.17654,-0.48486 -0.39852,-0.95174 -0.66677,-1.39229 -0.35837,-0.45345 -0.71317,-0.91033 -1.13638,-1.30549 -0.49647,-0.48587 -1.09431,-0.83431 -1.66881,-1.21547 -0.58305,-0.44273 -1.18348,-0.86014 -1.78635,-1.27535 -0.65708,-0.4531 -1.34381,-0.87262 -2.04262,-1.25985 -0.75515,-0.40675 -1.53004,-0.77595 -2.31393,-1.12417 -0.82826,-0.38347 -1.66924,-0.73749 -2.52002,-1.06839 -0.93865,-0.40274 -1.90766,-0.71846 -2.88193,-1.02103 -1.04632,-0.35096 -2.1048,-0.66624 -3.17263,-0.94495 -1.05326,-0.30921 -2.13673,-0.49301 -3.20612,-0.73512 -1.09298,-0.21631 -2.18556,-0.43615 -3.27975,-0.64701 -1.21201,-0.21482 -2.42878,-0.39841 -3.64565,-0.5831 -1.28043,-0.15699 -2.56409,-0.289 -3.84287,-0.45974 -1.28591,-0.17187 -2.57398,-0.3297 -3.85753,-0.51831 -1.34982,-0.19127 -2.70418,-0.3485 -4.05466,-0.53449 -1.40199,-0.1827 -2.81067,-0.29637 -4.21079,-0.49492 -1.38934,-0.20188 -2.7831,-0.3715 -4.17295,-0.56923 -1.44066,-0.20798 -2.88082,-0.41877 -4.32298,-0.61685 -1.50177,-0.2293 -3.00647,-0.44677 -4.5159,-0.6199 -1.46314,-0.16258 -2.93105,-0.27863 -4.39522,-0.42992 -1.39594,-0.18092 -2.80403,-0.2081 -4.20547,-0.317 -1.37407,-0.13274 -2.75267,-0.19846 -4.13219,-0.23556 -1.28242,-0.0283 -2.56523,-0.0285 -3.84789,-0.0293 -1.18925,-0.008 -2.37368,0.126 -3.56005,0.19529 -1.15002,0.10977 -2.2975,0.23294 -3.43385,0.44351 -1.03507,0.16836 -2.05644,0.40241 -3.07946,0.62993 -0.95811,0.23822 -1.917687,0.47386 -2.849769,0.80122 -0.882936,0.28975 -1.728674,0.67574 -2.575314,1.05552 -0.812713,0.40353 -1.640803,0.77687 -2.439813,1.20785 -0.786492,0.45397 -1.568767,0.91444 -2.358636,1.36298 -0.741743,0.46127 -1.493935,0.9029 -2.248736,1.34212 -0.781669,0.43222 -1.507474,0.95464 -2.247365,1.4527 -0.749676,0.53022 -1.497127,1.06355 -2.247411,1.59301 -0.77661,0.51736 -1.52427,1.07598 -2.292011,1.60613 -0.768564,0.5455 -1.562955,1.05319 -2.328797,1.60249 -0.76052,0.52688 -1.510961,1.06767 -2.264812,1.60391 -0.708265,0.49627 -1.363617,1.06111 -2.039596,1.59926 -0.670716,0.4943 -1.240758,1.09173 -1.794393,1.70931 -0.563288,0.58804 -1.064483,1.22561 -1.533414,1.88988 -0.210593,0.2816 -0.398989,0.57655 -0.608722,0.85871 -0.112845,0.1516 -0.327239,-0.008 -0.214394,-0.15959 v 0 c 0.208764,-0.28005 0.394967,-0.57387 0.604774,-0.85327 0.474929,-0.67269 0.982575,-1.31841 1.552752,-1.91414 0.563602,-0.62863 1.144725,-1.2363 1.826932,-1.74 0.679746,-0.54115 1.338807,-1.10907 2.051148,-1.60796 0.753605,-0.53599 1.503704,-1.07666 2.263971,-1.6033 0.767225,-0.55011 1.562711,-1.059 2.332696,-1.60524 0.767045,-0.52955 1.51385,-1.0878 2.289765,-1.60456 0.751901,-0.53058 1.500902,-1.06512 2.252265,-1.59635 0.744755,-0.50129 1.475415,-1.02695 2.262199,-1.462 0.755647,-0.43963 1.5085,-0.88197 2.251175,-1.34352 0.791572,-0.4495 1.575469,-0.91107 2.363774,-1.36583 0.804897,-0.43375 1.638552,-0.81042 2.457276,-1.21646 0.853524,-0.38274 1.706144,-0.77172 2.596192,-1.06384 0.942242,-0.33034 1.911684,-0.56982 2.880244,-0.80993 1.02615,-0.22816 2.05064,-0.46288 3.08884,-0.63183 1.14734,-0.21214 2.30575,-0.33746 3.46691,-0.44753 1.19161,-0.0696 2.38126,-0.2041 3.57579,-0.19574 1.285,7.9e-4 2.57015,0.001 3.85492,0.0294 1.38404,0.0373 2.76716,0.10315 4.14573,0.23628 1.40366,0.1094 2.81407,0.1361 4.21223,0.31761 1.46514,0.15157 2.93408,0.26747 4.39819,0.43024 1.5114,0.17348 3.01808,0.39097 4.52181,0.62065 1.44259,0.19817 2.88318,0.409 4.32427,0.61702 1.38979,0.19787 2.78355,0.36726 4.17283,0.56922 1.39974,0.19871 2.80814,0.31167 4.20973,0.49477 1.35125,0.18622 2.70645,0.34334 4.05705,0.53483 1.28236,0.18862 2.56932,0.34599 3.85404,0.51783 1.28034,0.17111 2.56564,0.30281 3.84759,0.46041 1.22038,0.18524 2.44065,0.36937 3.65613,0.5849 1.09701,0.21145 2.19244,0.43175 3.28821,0.64879 1.07218,0.2429 2.15858,0.427 3.21461,0.73718 1.0717,0.27994 2.13421,0.59596 3.18437,0.9483 0.98021,0.30442 1.95509,0.62226 2.89956,1.0272 0.85464,0.33255 1.69956,0.68807 2.53165,1.07323 0.79097,0.35161 1.57303,0.72404 2.33502,1.13468 0.70611,0.39185 1.40038,0.81548 2.06461,1.27347 0.60158,0.41435 1.20098,0.83059 1.78253,1.27276 0.58681,0.38948 1.19675,0.7467 1.70376,1.24314 0.43945,0.4131 0.81268,0.88606 1.18207,1.36176 0.28132,0.46414 0.51676,0.95508 0.69787,1.46719 0.12556,0.51164 0.15077,1.03249 0.18103,1.55754 0.01,0.57719 -0.14546,1.10443 -0.31379,1.65305 -0.20386,0.57563 -0.5176,1.0939 -0.85982,1.59807 -0.30415,0.49296 -0.62013,0.9774 -1.07325,1.34985 -0.51694,0.43166 -1.00538,0.89387 -1.60042,1.22292 -0.72373,0.43339 -1.477,0.82053 -2.23378,1.19209 -0.82771,0.37358 -1.6429,0.77224 -2.50412,1.06752 -0.93061,0.31841 -1.86271,0.63904 -2.80976,0.90408 -1.05355,0.25886 -2.10614,0.51955 -3.17639,0.70304 -1.21661,0.21356 -2.42136,0.49471 -3.64746,0.65376 -1.2967,0.1863 -2.6001,0.32649 -3.9042,0.44924 -1.32926,0.12238 -2.66403,0.18306 -3.99173,0.32717 -1.40439,0.0748 -2.80422,0.21847 -4.20992,0.26216 -1.43888,0.0555 -2.8807,0.17172 -4.32038,0.0923 -1.40248,-0.079 -2.80331,-0.20266 -4.20956,-0.17133 -1.49366,-0.0177 -2.98751,-0.0487 -4.4789,-0.1377 -1.52864,-0.0904 -3.05576,-0.16135 -4.58791,-0.122 -1.4969,-8e-4 -2.9938,-0.003 -4.49069,-2.7e-4 -1.54226,0.005 -3.08496,0.0121 -4.62617,0.0751 -1.54032,0.0741 -3.07448,0.21612 -4.6123,0.32541 -1.521,0.12375 -3.03504,0.31418 -4.55404,0.45892 -1.59716,0.17606 -3.19698,0.32337 -4.78552,0.57217 -1.74467,0.26753 -3.4871,0.54915 -5.23541,0.79268 -1.81179,0.24578 -3.6229,0.49687 -5.44285,0.67634 -1.83898,0.17492 -3.67383,0.405 -5.521439,0.47358 -1.836256,0.11474 -3.671372,0.23376 -5.510797,0.28797 -1.860643,0.0727 -3.720521,0.0498 -5.579087,-0.0769 -1.71967,-0.11521 -3.440837,-0.22814 -5.155154,-0.40501 -1.491655,-0.19781 -2.978386,-0.42464 -4.44526,-0.76497 -1.251315,-0.3047 -2.499749,-0.63317 -3.675597,-1.17043 -0.911912,-0.43357 -1.792546,-0.94543 -2.571839,-1.5919 -0.561957,-0.49453 -1.125776,-0.99097 -1.527133,-1.63234 -0.310544,-0.50991 -0.587912,-1.05586 -0.654831,-1.65728 -0.08035,-0.60995 -0.02987,-1.20769 0.160139,-1.79674 0.250606,-0.72494 0.604835,-1.40639 0.997059,-2.06456 0.104833,-0.15725 0.327215,-0.009 0.222382,0.14825 z"
       inkscape:connector-curvature="0" />
    <path
       style="opacity:1;fill:#da03ae;fill-opacity:1;fill-rule:nonzero;stroke:#da03ae;stroke-width:1;stroke-linecap:round;stroke-linejoin:round;stroke-miterlimit:4;stroke-dasharray:none;stroke-dashoffset:0;stroke-opacity:1;paint-order:markers fill stroke"
       id="path4499"
       d="m 164.03813,131.27997 c -0.57345,0.57962 -1.0864,1.21584 -1.62998,1.82338 -0.56768,0.6915 -1.12977,1.38619 -1.70384,2.07223 -0.64533,0.84128 -1.30827,1.6687 -1.93434,2.52459 -0.70192,0.88504 -1.34307,1.81472 -2.02112,2.71757 -0.72271,0.93112 -1.46351,1.84874 -2.17025,2.79214 -0.63757,0.89903 -1.34108,1.74696 -1.96562,2.65532 -0.62539,0.93111 -1.30875,1.82042 -1.98772,2.71242 -0.65124,0.92921 -1.34924,1.82402 -2.01174,2.74502 -0.64464,0.85336 -1.28833,1.70967 -1.95523,2.54583 -0.6521,0.86237 -1.38984,1.65334 -2.04328,2.51416 -0.68975,0.85447 -1.3918,1.69861 -2.0802,2.55416 -0.73388,0.81453 -1.37426,1.70212 -2.04223,2.5693 -0.67791,0.80702 -1.26607,1.68211 -1.86249,2.54933 -0.5477,0.81424 -1.08385,1.63618 -1.63201,2.45012 -0.5785,0.79907 -1.23103,1.5396 -1.82426,2.32763 -0.55127,0.73487 -1.10848,1.46544 -1.65154,2.20642 -0.51782,0.73825 -1.06288,1.45554 -1.60426,2.17639 -0.50259,0.66893 -1.05655,1.28969 -1.52259,1.98501 -0.42721,0.61151 -0.86568,1.21587 -1.31266,1.81326 -0.44511,0.52954 -0.85145,1.08934 -1.28966,1.62446 -0.34496,0.52591 -0.79305,0.96542 -1.19847,1.44234 -0.44343,0.47031 -0.82611,0.99307 -1.25883,1.4717 -0.3809,0.47714 -0.80955,0.91365 -1.19327,1.38783 -0.37783,0.44331 -0.7608,0.88608 -1.11238,1.3508 -0.36293,0.46346 -0.68167,0.96018 -1.06345,1.40852 -0.34128,0.35434 -0.66151,0.72672 -0.98106,1.10082 -0.32654,0.39201 -0.60626,0.81843 -0.91039,1.2268 -0.27684,0.38924 -0.51435,0.80426 -0.8166,1.17482 -0.26109,0.30049 -0.49825,0.6136 -0.71511,0.94796 -0.15953,0.28826 -0.3293,0.53245 -0.33722,0.86912 -0.006,0.1889 -0.27283,0.18087 -0.26715,-0.008 v 0 c 0.0136,-0.38671 0.19061,-0.67903 0.38033,-1.00682 0.22295,-0.34185 0.46559,-0.66373 0.73253,-0.97177 0.30192,-0.36547 0.53148,-0.78161 0.80907,-1.16519 0.30867,-0.41215 0.59034,-0.84457 0.92132,-1.24048 0.31956,-0.37409 0.63987,-0.74649 0.98109,-1.10086 0.37998,-0.44293 0.6922,-0.93839 1.05362,-1.39631 0.35408,-0.46652 0.73758,-0.91248 1.11776,-1.35767 0.38754,-0.47744 0.81807,-0.9187 1.20286,-1.399 0.43186,-0.47547 0.81095,-0.99789 1.25325,-1.46535 0.40445,-0.4757 0.85127,-0.91393 1.19533,-1.43859 0.43584,-0.532 0.8396,-1.08889 1.28244,-1.61523 0.44433,-0.59362 0.87994,-1.19434 1.30465,-1.80195 0.46892,-0.69923 1.02452,-1.32467 1.53089,-1.9967 0.54083,-0.71996 1.0852,-1.43647 1.6024,-2.17389 0.54383,-0.74182 1.10157,-1.47344 1.65359,-2.20918 0.59062,-0.78413 1.23906,-1.52187 1.8161,-2.31616 0.54867,-0.81463 1.08521,-1.63735 1.63347,-2.45227 0.59913,-0.87117 1.19012,-1.75016 1.87097,-2.56098 0.6692,-0.8686 1.31065,-1.75777 2.04573,-2.57375 0.68683,-0.8536 1.38719,-1.6959 2.07559,-2.54826 0.6551,-0.86225 1.39325,-1.65558 2.04721,-2.51921 0.66452,-0.83235 1.30489,-1.68566 1.94718,-2.53521 0.66399,-0.92289 1.36324,-1.81975 2.01603,-2.75082 0.6764,-0.88857 1.35722,-1.77441 1.98017,-2.70199 0.62688,-0.91118 1.33195,-1.76238 1.97195,-2.66413 0.70697,-0.94336 1.44753,-1.86128 2.17044,-2.79239 0.67745,-0.9019 1.31783,-1.83075 2.01912,-2.71487 0.62962,-0.86048 1.29587,-1.69268 1.94507,-2.5383 0.57599,-0.68828 1.13966,-1.38549 1.70963,-2.07893 0.5469,-0.61119 1.06288,-1.25133 1.64017,-1.83414 0.13364,-0.13364 0.32263,0.0554 0.18899,0.18899 z"
       inkscape:connector-curvature="0" />
    <path
       style="opacity:1;fill:none;fill-opacity:1;fill-rule:nonzero;stroke:#da03ae;stroke-width:1;stroke-linecap:round;stroke-linejoin:round;stroke-miterlimit:4;stroke-dasharray:none;stroke-dashoffset:0;stroke-opacity:1;paint-order:markers fill stroke"
       id="path4519"
       d="m 116.24555,193.56537 c -0.43129,0.60037 -0.82465,1.22517 -1.23254,1.84078 -0.14321,0.22964 -0.2885,0.45654 -0.42228,0.69181 -0.0935,0.16422 -0.32578,0.0319 -0.23223,-0.13229 v 0 c 0.13713,-0.24033 0.28489,-0.47278 0.43179,-0.70726 0.40863,-0.61533 0.80109,-1.24104 1.23288,-1.84129 0.10483,-0.15725 0.32721,-0.009 0.22238,0.14825 z"
       inkscape:connector-curvature="0" />
    <path
       style="opacity:1;fill:none;fill-opacity:1;fill-rule:nonzero;stroke:#da03ae;stroke-width:1;stroke-linecap:round;stroke-linejoin:round;stroke-miterlimit:4;stroke-dasharray:none;stroke-dashoffset:0;stroke-opacity:1;paint-order:markers fill stroke"
       id="path4521"
       d="m 112.50378,199.17803 c -0.3212,0.44575 -0.63302,0.89803 -0.96572,1.33525 -0.1145,0.15035 -0.32714,-0.0116 -0.21264,-0.16193 v 0 c 0.32963,-0.43252 0.6376,-0.88069 0.95598,-1.32157 0.10483,-0.15725 0.32721,-0.009 0.22238,0.14825 z"
       inkscape:connector-curvature="0" />
    <path
       style="opacity:1;fill:none;fill-opacity:1;fill-rule:nonzero;stroke:#da03ae;stroke-width:1;stroke-linecap:round;stroke-linejoin:round;stroke-miterlimit:4;stroke-dasharray:none;stroke-dashoffset:0;stroke-opacity:1;paint-order:markers fill stroke"
       id="path4523"
       d="m 109.83109,203.18708 c -0.4018,0.55162 -0.84977,1.06511 -1.28527,1.58936 -0.12081,0.14533 -0.32635,-0.0255 -0.20554,-0.17085 v 0 c 0.42984,-0.51678 0.87125,-1.02345 1.26842,-1.56677 0.10484,-0.15725 0.32722,-0.009 0.22239,0.14826 z"
       inkscape:connector-curvature="0" />
    <path
       style="opacity:1;fill:#da03ae;fill-opacity:1;fill-rule:nonzero;stroke:#da03ae;stroke-width:1;stroke-linecap:round;stroke-linejoin:round;stroke-miterlimit:4;stroke-dasharray:none;stroke-dashoffset:0;stroke-opacity:1;paint-order:markers fill stroke"
       id="path4527"
       d="m 106.08931,209.06701 c -0.35016,0.60095 -0.76182,1.16214 -1.17077,1.72381 -0.26477,0.42809 -0.5843,0.81667 -0.89225,1.2136 -0.36226,0.44198 -0.74717,0.86409 -1.10626,1.30859 -0.28507,0.33597 -0.60373,0.64051 -0.89788,0.96771 -0.26569,0.27065 -0.54739,0.52647 -0.80381,0.80612 -0.33812,0.38314 -0.67161,0.76972 -0.98739,1.17141 -0.323459,0.34239 -0.600033,0.72487 -0.870596,1.10924 -0.338924,0.42033 -0.606359,0.88965 -0.9124,1.33233 -0.224949,0.3926 -0.463206,0.77282 -0.721135,1.14457 -0.266264,0.35168 -0.486918,0.73187 -0.725514,1.10135 -0.228589,0.39327 -0.470453,0.77672 -0.724599,1.15405 -0.265303,0.47053 -0.575923,0.91175 -0.879766,1.35728 -0.32372,0.38291 -0.612052,0.79397 -0.929954,1.18105 -0.304541,0.36272 -0.59276,0.73201 -0.854695,1.12707 -0.228943,0.42406 -0.521739,0.80676 -0.809032,1.19204 -0.28874,0.39969 -0.60457,0.77685 -0.913334,1.16072 -0.280834,0.30332 -0.579874,0.58805 -0.815773,0.92921 -0.247185,0.34684 -0.535234,0.65875 -0.808914,0.98371 -0.260294,0.34936 -0.530577,0.69062 -0.798158,1.0347 -0.284882,0.28132 -0.489992,0.62786 -0.712242,0.95834 -0.194786,0.39907 -0.407212,0.78324 -0.647499,1.15689 -0.288039,0.40136 -0.565901,0.81157 -0.892265,1.1832 -0.295749,0.34801 -0.534736,0.73779 -0.830852,1.08517 -0.279181,0.34412 -0.563777,0.67824 -0.83941,1.02501 -0.263578,0.36391 -0.484367,0.7553 -0.767699,1.10468 -0.24606,0.31669 -0.516638,0.6179 -0.808132,0.89377 -0.328076,0.38154 -0.679202,0.74341 -0.994696,1.13537 -0.327594,0.363 -0.632233,0.76042 -0.851125,1.19935 -0.214688,0.35489 -0.383736,0.73175 -0.594834,1.08928 -0.24467,0.4584 -0.506396,0.9076 -0.702228,1.38973 -0.182147,0.44327 -0.471307,0.82468 -0.714322,1.2337 -0.289449,0.39272 -0.555299,0.8017 -0.787924,1.23052 -0.186068,0.32782 -0.0976,0.16284 -0.265713,0.49477 -0.08548,0.16856 -0.323847,0.0477 -0.238368,-0.12088 v 0 c 0.1734,-0.34149 0.08351,-0.17439 0.269264,-0.50154 0.23496,-0.43139 0.500131,-0.84515 0.793104,-1.23961 0.23703,-0.39721 0.517382,-0.76804 0.696463,-1.19785 0.201967,-0.49379 0.467471,-0.95558 0.719674,-1.4249 0.208574,-0.35205 0.374039,-0.72394 0.586153,-1.07339 0.230531,-0.45428 0.539649,-0.87073 0.881814,-1.24696 0.323871,-0.40084 0.68149,-0.77327 1.019553,-1.16221 0.284536,-0.26616 0.544812,-0.56141 0.784254,-0.86814 0.284949,-0.34663 0.498732,-0.74209 0.765715,-1.10222 0.278413,-0.34867 0.564213,-0.68596 0.845513,-1.03239 0.298829,-0.34662 0.533659,-0.74162 0.833364,-1.08806 0.319153,-0.36001 0.585962,-0.76201 0.867918,-1.15099 0.241421,-0.37517 0.451942,-0.76209 0.650509,-1.16147 0.225603,-0.33536 0.434735,-0.68743 0.723168,-0.97342 0.270298,-0.34643 0.541842,-0.69102 0.804791,-1.04288 0.269165,-0.31803 0.550854,-0.62431 0.793789,-0.96401 0.241583,-0.3448 0.538525,-0.63914 0.826966,-0.94415 0.307224,-0.38087 0.620411,-0.7558 0.907225,-1.15283 0.284445,-0.38137 0.57423,-0.75991 0.800531,-1.17995 0.267044,-0.40276 0.561181,-0.77916 0.871106,-1.14925 0.313724,-0.3801 0.595312,-0.78642 0.915519,-1.16181 0.303752,-0.44499 0.613439,-0.88612 0.878893,-1.356 0.253442,-0.37598 0.494014,-0.75823 0.721998,-1.15011 0.241564,-0.37081 0.461695,-0.7549 0.730229,-1.10837 0.258146,-0.37152 0.495072,-0.7523 0.721,-1.14438 0.307467,-0.44246 0.573645,-0.9137 0.913632,-1.3341 0.27381,-0.38777 0.552043,-0.77504 0.879024,-1.12054 0.32057,-0.40672 0.65772,-0.79929 1.00088,-1.18724 0.25719,-0.27774 0.53565,-0.53522 0.8019,-0.80403 0.29212,-0.32266 0.60532,-0.62549 0.8885,-0.95673 0.35844,-0.4427 0.74096,-0.86446 1.1029,-1.30435 0.30632,-0.39482 0.62424,-0.78109 0.88736,-1.2071 0.40683,-0.55868 0.81632,-1.11683 1.16445,-1.71474 0.10483,-0.15724 0.32721,-0.009 0.22238,0.14826 z"
       inkscape:connector-curvature="0" />
    <path
       style="opacity:1;fill:none;fill-opacity:1;fill-rule:nonzero;stroke:#0a34ff;stroke-width:1;stroke-linecap:round;stroke-linejoin:round;stroke-miterlimit:4;stroke-dasharray:none;stroke-dashoffset:0;stroke-opacity:1;paint-order:markers fill stroke"
       id="path4529"
       d="m 139.11379,210.89574 c -0.0152,0.78064 -0.1007,1.56634 -0.22744,2.33709 -0.11712,0.66255 -0.21837,1.32493 -0.43683,1.96302 -0.16665,0.53888 -0.36786,1.05945 -0.62002,1.56344 -0.15942,0.41352 -0.41687,0.77332 -0.67475,1.12957 -0.30458,0.38884 -0.64291,0.65909 -1.11272,0.81324 -0.57142,0.16514 -1.09219,-0.0431 -1.60755,-0.27452 -0.49141,-0.25161 -0.8915,-0.57835 -1.17848,-1.05076 -0.285,-0.39407 -0.46285,-0.83359 -0.4771,-1.32048 0.0301,-0.57927 0.30721,-0.79487 0.8632,-0.82802 0.53359,0.0417 0.98028,0.32132 1.43954,0.56658 0.49506,0.28113 0.99542,0.55434 1.50606,0.80634 0.4602,0.27208 0.91196,0.55799 1.38483,0.80784 0.48495,0.29466 0.98252,0.56404 1.48068,0.83545 0.26355,0.13488 0.5398,0.21849 0.83511,0.22499 0.18886,0.007 0.17909,0.274 -0.01,0.26709 v 0 c -0.33677,-0.0161 -0.65298,-0.0983 -0.95325,-0.2574 -0.49707,-0.27104 -0.99394,-0.53958 -1.47777,-0.8339 -0.47036,-0.24923 -0.92133,-0.53162 -1.37818,-0.80444 -0.51302,-0.2536 -1.01623,-0.5275 -1.51365,-0.81023 -0.41654,-0.22263 -0.82013,-0.48094 -1.30071,-0.53536 -0.37338,0.0126 -0.60139,0.1465 -0.60886,0.55635 0.001,0.43979 0.18829,0.83331 0.43909,1.18775 0.25306,0.42861 0.61997,0.71439 1.05879,0.9444 0.45323,0.20368 0.91057,0.40606 1.416,0.26394 0.41767,-0.13193 0.70636,-0.37322 0.97828,-0.71563 0.24967,-0.34457 0.49916,-0.69162 0.65219,-1.09239 0.24688,-0.49341 0.44336,-1.00306 0.60632,-1.53081 0.21561,-0.62328 0.30906,-1.27237 0.42585,-1.9196 0.12543,-0.75614 0.20796,-1.52765 0.22387,-2.29355 0,-0.18899 0.26727,-0.18899 0.26727,0 z"
       inkscape:connector-curvature="0" />
    <path
       style="opacity:1;fill:#da03ae;fill-opacity:1;fill-rule:nonzero;stroke:#da03ae;stroke-width:1;stroke-linecap:round;stroke-linejoin:round;stroke-miterlimit:4;stroke-dasharray:none;stroke-dashoffset:0;stroke-opacity:1;paint-order:markers fill stroke"
       id="path4533"
       d="m 168.93103,144.12316 c 0.40919,-0.63191 0.76789,-1.28305 0.99861,-2.0009 0.17242,-0.60404 0.18269,-1.23475 0.19405,-1.85799 -7.9e-4,-0.56061 -0.0918,-1.12942 -0.22508,-1.67402 -0.0925,-0.22857 -0.11957,-1.0297 -0.49388,-1.00933 -0.33293,0.2521 -0.5322,0.64762 -0.72365,1.00949 -0.27903,0.62463 -0.52951,1.26269 -0.73481,1.91553 -0.18017,0.63861 -0.3417,1.27869 -0.42582,1.93743 -0.0664,0.62104 -0.0745,1.24609 -0.0791,1.87003 -0.0427,0.54639 0.0799,1.078 0.16114,1.61426 0.0495,0.53579 0.14268,1.0672 0.29329,1.58405 0.13601,0.44583 0.22004,0.93342 0.55195,1.28047 0.37489,0.27279 0.79533,0.0568 1.16899,-0.10385 0.5338,-0.26468 1.05566,-0.55445 1.5413,-0.9003 0.27994,-0.15664 0.48581,-0.3607 0.64401,-0.63521 0.0962,-0.16266 0.32625,-0.0266 0.23003,0.13608 v 0 c -0.1827,0.30251 -0.40594,0.54245 -0.71934,0.71707 -0.50204,0.35529 -1.03864,0.6569 -1.59053,0.92794 -0.48795,0.20934 -1.00477,0.41707 -1.47094,0.0395 -0.35024,-0.39036 -0.47609,-0.89053 -0.6122,-1.38734 -0.15207,-0.52852 -0.25125,-1.07065 -0.30081,-1.61836 -0.0832,-0.55002 -0.20713,-1.09591 -0.16416,-1.65627 0.005,-0.63463 0.0132,-1.2704 0.0813,-1.90204 0.0869,-0.67431 0.25063,-1.33006 0.43598,-1.9837 0.21068,-0.66815 0.46626,-1.32176 0.75363,-1.96051 0.23383,-0.43963 0.4899,-1.02241 1.01593,-1.14553 0.54591,0.17144 0.56476,0.72481 0.69745,1.20762 0.13657,0.56746 0.23353,1.15799 0.23257,1.74192 -0.0119,0.64946 -0.0248,1.30631 -0.20692,1.93516 -0.23986,0.74073 -0.60678,1.4151 -1.03059,2.06709 -0.10483,0.15725 -0.32721,0.009 -0.22238,-0.14825 z"
       inkscape:connector-curvature="0" />
    <path
       style="opacity:1;fill:#da03ae;fill-opacity:1;fill-rule:nonzero;stroke:#000000;stroke-width:1;stroke-linecap:round;stroke-linejoin:round;stroke-miterlimit:4;stroke-dasharray:none;stroke-dashoffset:0;stroke-opacity:1;paint-order:markers fill stroke"
       id="path4541"
       d="m 109.71871,121.37223 c 0.27147,0.75266 0.55639,1.49941 0.854,2.24217 0.26627,0.5917 0.52015,1.19005 0.85106,1.74916 0.35609,0.5634 0.61697,1.17593 0.90412,1.77528 0.34296,0.65232 0.67386,1.31082 0.99918,1.97236 0.37582,0.63928 0.67131,1.31923 1.01946,1.97262 0.34043,0.63755 0.61185,1.30789 0.92297,1.95947 0.27738,0.61341 0.6131,1.196 0.89716,1.80685 0.2771,0.58193 0.56825,1.15714 0.84351,1.73994 0.22445,0.50425 0.52824,0.96407 0.79857,1.44335 0.19521,0.47641 0.45642,0.92048 0.6657,1.3896 0.22184,0.48946 0.45938,0.97151 0.68526,1.45913 0.22799,0.41626 0.4787,0.82312 0.67461,1.25577 0.21572,0.47488 0.44477,0.94354 0.66319,1.41724 0.26926,0.52853 0.50869,1.07161 0.81375,1.58095 0.28582,0.53297 0.63567,1.02595 0.97849,1.52244 0.27723,0.38403 0.60051,0.73945 0.94814,1.06142 0.27716,0.27322 0.54304,0.55943 0.83141,0.82108 0.26795,0.26522 0.52325,0.54446 0.80157,0.79907 0.27649,0.27626 0.56182,0.49419 0.5376,0.91484 -0.0215,0.18777 -0.28701,0.1574 -0.26554,-0.0304 v 0 c 0.0753,-0.30288 -0.29575,-0.48418 -0.45297,-0.68775 -0.27684,-0.25574 -0.53411,-0.53226 -0.80075,-0.79831 -0.28784,-0.26364 -0.55641,-0.54812 -0.83337,-0.82289 -0.36043,-0.33671 -0.69863,-0.70431 -0.98605,-1.10528 -0.34595,-0.50138 -0.69924,-0.9991 -0.98793,-1.53711 -0.30916,-0.51802 -0.5545,-1.06866 -0.82709,-1.60624 -0.21854,-0.4745 -0.44811,-0.94378 -0.66415,-1.41937 -0.19356,-0.43259 -0.44873,-0.83638 -0.67345,-1.25322 -0.22623,-0.48894 -0.4646,-0.97212 -0.68694,-1.46284 -0.20459,-0.46191 -0.46457,-0.89744 -0.65434,-1.36699 -0.27293,-0.48511 -0.58062,-0.9502 -0.8074,-1.46044 -0.27526,-0.58338 -0.56702,-1.1589 -0.84419,-1.74139 -0.28339,-0.61018 -0.61933,-1.1916 -0.896,-1.80438 -0.30915,-0.64819 -0.57965,-1.31461 -0.91768,-1.94898 -0.34905,-0.65619 -0.64662,-1.33822 -1.02338,-1.98029 -0.3257,-0.66238 -0.65692,-1.32174 -1.00039,-1.97485 -0.28365,-0.59248 -0.54102,-1.19806 -0.8932,-1.75479 -0.33685,-0.57138 -0.59846,-1.18094 -0.86903,-1.78569 -0.29679,-0.74079 -0.58144,-1.4854 -0.85156,-2.23629 -0.0744,-0.1737 0.17121,-0.27899 0.24566,-0.10528 z"
       inkscape:connector-curvature="0" />
    <path
       style="opacity:1;fill:#da03ae;fill-opacity:1;fill-rule:nonzero;stroke:#000000;stroke-width:1;stroke-linecap:round;stroke-linejoin:round;stroke-miterlimit:4;stroke-dasharray:none;stroke-dashoffset:0;stroke-opacity:1;paint-order:markers fill stroke"
       id="path4545"
       d="m 110.06143,122.01206 c -0.31822,0.75954 -0.61872,1.52466 -0.88167,2.30535 -0.24679,0.65169 -0.49725,1.30194 -0.75696,1.94849 -0.19557,0.51971 -0.53679,0.61489 -0.63102,-0.0131 -0.0412,-0.50151 -0.0341,-1.00559 -0.0336,-1.50838 0.002,-0.5406 0.003,-1.0812 0.004,-1.6218 0.0845,-0.46208 0.13502,-0.93647 0.25623,-1.3906 0.12199,-0.52131 0.41902,-0.87668 0.93457,-1.02114 0.55527,-0.0836 1.01322,0.19333 1.41151,0.5478 0.40798,0.31786 0.75026,0.70558 1.16429,1.01582 0.39977,0.33688 0.82462,0.64211 1.25496,0.93836 0.2361,0.13099 0.45278,0.29172 0.67923,0.43808 0.15869,0.10263 0.0136,0.32705 -0.14514,0.22442 v 0 c -0.22855,-0.1479 -0.44739,-0.30985 -0.68564,-0.44235 -0.43343,-0.29837 -0.86139,-0.6058 -1.26412,-0.94495 -0.41895,-0.31652 -0.76962,-0.70559 -1.18189,-1.03028 -0.32773,-0.29556 -0.7054,-0.54649 -1.16733,-0.48787 -0.42784,0.093 -0.64338,0.42037 -0.74253,0.83221 -0.11939,0.43016 -0.15707,0.88359 -0.24687,1.32089 -7.9e-4,0.54056 -0.002,1.08111 -0.004,1.62167 -5.2e-4,0.49016 -0.007,0.98149 0.0309,1.47053 0.01,0.0726 0.0774,0.16702 0.025,0.21826 -0.0234,0.0229 -0.0661,0.008 -0.0958,0.0221 -0.0575,0.0267 0.36084,-0.30543 0.18915,-0.28941 0.25823,-0.64164 0.50605,-1.28746 0.75166,-1.93413 0.2654,-0.78736 0.5683,-1.55919 0.88929,-2.32529 0.0744,-0.17371 0.32011,-0.0684 0.24566,0.10528 z"
       inkscape:connector-curvature="0" />
    <path
       style="opacity:1;fill:#da03ae;fill-opacity:1;fill-rule:nonzero;stroke:#000000;stroke-width:1;stroke-linecap:round;stroke-linejoin:round;stroke-miterlimit:4;stroke-dasharray:none;stroke-dashoffset:0;stroke-opacity:1;paint-order:markers fill stroke"
       id="path4564"
       d="m 106.27603,124.13973 c -0.46109,0.56341 -0.90718,1.1412 -1.39915,1.67836 -0.35043,0.42791 -0.77967,0.78237 -1.18408,1.15737 -0.36559,0.3734 -0.70316,0.77385 -1.07519,1.14065 -0.33977,0.37106 -0.64845,0.76838 -0.97754,1.1481 -0.32984,0.42163 -0.6612,0.84146 -0.97918,1.27191 -0.33268,0.36729 -0.61654,0.77448 -0.930715,1.15647 -0.30235,0.38289 -0.55045,0.80379 -0.861946,1.17932 -0.315013,0.40593 -0.632505,0.8111 -0.966899,1.20103 -0.293156,0.35969 -0.522039,0.75964 -0.732443,1.17114 -0.183148,0.46814 -0.454491,0.89229 -0.664726,1.34673 -0.207579,0.39625 -0.469813,0.75833 -0.745422,1.10967 -0.269089,0.39694 -0.587949,0.75531 -0.887534,1.12899 -0.341288,0.4396 -0.772583,0.79219 -1.117425,1.22853 -0.320133,0.35627 -0.5999,0.74822 -0.935659,1.09011 -0.326798,0.33816 -0.583703,0.73314 -0.893628,1.08541 -0.24683,0.33357 -0.482195,0.68046 -0.686927,1.04252 -0.222012,0.37259 -0.509222,0.69359 -0.784553,1.02546 -0.242499,0.33768 -0.448024,0.70072 -0.685467,1.04147 -0.239035,0.39479 -0.527037,0.75976 -0.742016,1.16839 -0.234894,0.38567 -0.469445,0.76987 -0.711657,1.15077 -0.279456,0.34956 -0.537972,0.71461 -0.792959,1.08203 -0.246954,0.32811 -0.540843,0.61387 -0.812478,0.92008 -0.275801,0.31765 -0.614116,0.55899 -0.939273,0.82057 -0.350933,0.21804 -0.617342,0.51082 -0.875485,0.82514 -0.252182,0.35333 -0.461881,0.73308 -0.733682,1.07226 -0.143658,0.20295 -0.287779,0.40984 -0.403802,0.63021 -0.0891,0.16666 -0.324799,0.0407 -0.235704,-0.126 v 0 c 0.126529,-0.23379 0.27545,-0.45706 0.431488,-0.67202 0.274683,-0.3379 0.477533,-0.72378 0.735269,-1.07422 0.270195,-0.32808 0.549598,-0.63481 0.914686,-0.86386 0.314301,-0.25143 0.641003,-0.48325 0.906878,-0.7898 0.26562,-0.2974 0.550323,-0.5768 0.792625,-0.89489 0.253347,-0.3641 0.508286,-0.72746 0.786945,-1.07299 0.238628,-0.37478 0.469078,-0.75317 0.700972,-1.13239 0.222403,-0.41729 0.51218,-0.79362 0.759256,-1.19658 0.243213,-0.3455 0.449268,-0.71728 0.698878,-1.05903 0.265914,-0.31927 0.542626,-0.62821 0.757613,-0.98648 0.214816,-0.37752 0.4591,-0.74073 0.719109,-1.08761 0.314732,-0.35448 0.570717,-0.75699 0.903769,-1.09627 0.330972,-0.33284 0.600723,-0.72134 0.916432,-1.0684 0.346845,-0.43554 0.773504,-0.79236 1.118269,-1.22959 0.29904,-0.37299 0.617442,-0.73048 0.885838,-1.12686 0.263279,-0.33504 0.513816,-0.67995 0.713238,-1.05719 0.212984,-0.457 0.483462,-0.88508 0.669168,-1.35585 0.22003,-0.43024 0.460912,-0.84784 0.767681,-1.22362 0.33424,-0.38829 0.649509,-0.79368 0.964356,-1.19802 0.313187,-0.37336 0.555741,-0.79818 0.860988,-1.17817 0.312058,-0.3776 0.591352,-0.7826 0.922042,-1.14537 0.32254,-0.43572 0.65735,-0.86169 0.99225,-1.2882 0.33431,-0.38447 0.64592,-0.78868 0.99204,-1.16352 0.37507,-0.36729 0.71152,-0.77263 1.08079,-1.14601 0.39914,-0.3701 0.82321,-0.71954 1.16884,-1.14206 0.48355,-0.52628 0.91909,-1.09498 1.37374,-1.64595 0.10483,-0.15725 0.32722,-0.009 0.22238,0.14826 z"
       inkscape:connector-curvature="0" />
    <path
       style="opacity:1;fill:#da03ae;fill-opacity:1;fill-rule:nonzero;stroke:#000000;stroke-width:1;stroke-linecap:round;stroke-linejoin:round;stroke-miterlimit:4;stroke-dasharray:none;stroke-dashoffset:0;stroke-opacity:1;paint-order:markers fill stroke"
       id="path4574"
       d="m 85.936726,152.33798 c 0.746408,0 1.492816,0 2.239222,0 0.604586,-0.0373 1.194382,0.0249 1.789131,0.12281 0.524348,0.0903 1.055714,0.11888 1.586587,0.1357 0.544269,1.2e-4 1.080786,1.1e-4 1.618544,0.0884 0.524144,0.10133 1.055632,0.14566 1.58806,0.17078 0.537869,0.0307 1.077984,-0.0108 1.61326,0.0517 0.528431,0.0994 1.060516,0.1667 1.596763,0.20308 0.53108,0.0293 1.06316,0.0299 1.594874,0.0311 0.534393,2.7e-4 1.068783,-7.9e-4 1.603173,-0.001 0.53596,0.0392 1.05772,-0.0813 1.58398,-0.16009 0.53489,-0.0651 1.06884,-0.0799 1.5991,-0.17809 0.53427,-0.11089 1.0777,-0.15546 1.62169,-0.18094 0.53096,-0.0343 1.06577,0.0161 1.59398,-0.0491 0.53286,-0.10061 1.06968,-0.16735 1.61043,-0.20421 0.47423,-0.0165 0.9313,-0.15726 1.4002,-0.22412 0.51349,-0.062 1.03138,-0.0677 1.54788,-0.0732 0.53454,-0.003 1.06909,-0.002 1.60363,-0.001 0.53484,7.9e-4 1.06967,7.9e-4 1.60451,0.001 0.53456,1e-4 1.06912,9e-5 1.60368,9e-5 0.53454,-1e-5 1.06907,-1e-5 1.60361,-1e-5 0.53564,0.0377 1.05547,-0.0308 1.58146,-0.11919 0.47863,-0.0744 0.93097,-0.24668 1.40899,-0.33093 0.52705,-0.11173 1.04936,0.003 1.57217,0.0766 0.52576,0.072 1.05645,0.09 1.58632,0.10135 0.0835,-0.009 0.16702,-0.0185 0.25054,-0.0278 0.18792,-0.02 0.21624,0.24575 0.0283,0.26577 v 0 c -0.0949,0.01 -0.18973,0.0195 -0.28459,0.0292 -0.54038,-0.0116 -1.08156,-0.0303 -1.61772,-0.10388 -0.49534,-0.0695 -0.98936,-0.18315 -1.48886,-0.078 -0.47866,0.0836 -0.93088,0.2596 -1.41086,0.33125 -0.54042,0.0909 -1.07565,0.16016 -1.62577,0.12288 -0.53454,1e-5 -1.06907,1e-5 -1.60361,1e-5 -0.53458,1e-5 -1.06916,2e-5 -1.60374,-8e-5 -0.53493,-1.3e-4 -1.06987,-2.6e-4 -1.6048,-0.001 -0.53347,-7.9e-4 -1.06695,-0.002 -1.60042,0.001 -0.50488,0.005 -1.01113,0.0106 -1.51313,0.0706 -0.47533,0.0673 -0.93854,0.21131 -1.41967,0.22616 -0.53626,0.0364 -1.06834,0.10365 -1.59681,0.20293 -0.5353,0.0623 -1.07538,0.0204 -1.61327,0.0507 -0.53187,0.0248 -1.06322,0.0681 -1.58557,0.17677 -0.5334,0.0985 -1.07003,0.11633 -1.60814,0.17961 -0.53914,0.0806 -1.07427,0.20239 -1.62328,0.16303 -0.53469,5.3e-4 -1.06938,0.002 -1.604071,0.001 -0.537546,-0.001 -1.075465,-0.002 -1.61236,-0.0318 -0.540782,-0.0369 -1.07763,-0.10361 -1.610482,-0.20437 -0.528201,-0.0653 -1.063069,-0.0154 -1.59403,-0.0501 -0.542732,-0.0257 -1.084516,-0.071 -1.61884,-0.17402 -0.526052,-0.0868 -1.051068,-0.0836 -1.583623,-0.0849 -0.542571,-0.0173 -1.08561,-0.0469 -1.621507,-0.13911 -0.580562,-0.0956 -1.155367,-0.15679 -1.745729,-0.11926 -0.746406,0 -1.492814,0 -2.239222,0 -0.188986,0 -0.188986,-0.26727 0,-0.26727 z"
       inkscape:connector-curvature="0" />
    <path
       style="opacity:1;fill:#da03ae;fill-opacity:1;fill-rule:nonzero;stroke:#000000;stroke-width:1;stroke-linecap:round;stroke-linejoin:round;stroke-miterlimit:4;stroke-dasharray:none;stroke-dashoffset:0;stroke-opacity:1;paint-order:markers fill stroke"
       id="path4576"
       d="m 85.700011,153.07151 c 0.534879,0.51389 1.148467,0.92087 1.798029,1.27299 0.530712,0.24063 1.104424,0.38125 1.670662,0.51462 0.153532,-0.0178 0.515395,0.10039 0.636793,-0.0488 0.0167,-0.0205 -0.04337,0.0331 -0.05562,0.0566 -0.261543,-0.16543 -0.59037,-0.24559 -0.886505,-0.34631 -0.466251,-0.11843 -0.901158,-0.32485 -1.365329,-0.44909 -0.431599,-0.15758 -0.855401,-0.33678 -1.293519,-0.47567 -0.454126,-0.20791 -0.922221,-0.27264 -0.966624,-0.85062 0.186627,-0.4991 0.709219,-0.69515 1.162595,-0.89437 0.534454,-0.20293 1.076971,-0.38065 1.617806,-0.5655 0.645416,-0.16683 1.278914,-0.37682 1.903764,-0.60829 0.603721,-0.22558 1.213395,-0.45576 1.776918,-0.77107 0.07755,-0.0428 0.155099,-0.0856 0.232648,-0.12847 0.165439,-0.0914 0.294635,0.14262 0.129194,0.23397 v 0 c -0.07728,0.0427 -0.154551,0.0853 -0.231826,0.12801 -0.576863,0.31973 -1.19657,0.55967 -1.814176,0.78822 -0.627063,0.23182 -1.262351,0.44382 -1.910093,0.61054 -0.5338,0.18239 -1.069187,0.35789 -1.596935,0.55738 -0.364236,0.15924 -0.769141,0.31177 -1.002634,0.65169 -0.08252,0.35679 0.560425,0.46852 0.780344,0.5938 0.434067,0.1384 0.855242,0.31319 1.281986,0.47229 0.469661,0.127 0.910539,0.33286 1.382146,0.45422 0.361765,0.12372 0.735198,0.21255 1.033399,0.46861 0.01183,0.0645 0.04734,0.12896 0.03548,0.19343 -0.05918,0.32173 -0.725056,0.19201 -0.91118,0.18961 -0.589121,-0.13918 -1.186048,-0.28564 -1.736818,-0.53987 -0.671631,-0.36514 -1.306727,-0.78642 -1.859497,-1.31888 -0.133633,-0.13363 0.05535,-0.32262 0.188989,-0.18899 z"
       inkscape:connector-curvature="0" />
    <path
       style="opacity:1;fill:#da03ae;fill-opacity:1;fill-rule:nonzero;stroke:#000000;stroke-width:1;stroke-linecap:round;stroke-linejoin:round;stroke-miterlimit:4;stroke-dasharray:none;stroke-dashoffset:0;stroke-opacity:1;paint-order:markers fill stroke"
       id="path4582"
       d="m 82.939921,153.03074 c 0.178464,-0.73897 0.329393,-1.48249 0.423754,-2.23693 0.05354,-0.59498 0.199442,-1.17534 0.275124,-1.76779 0.02061,-0.35973 0.117395,-0.8153 -0.07613,-1.14977 0.06453,0.029 0.14615,0.0344 0.193601,0.0869 0.01757,0.0194 -0.159923,0.9088 -0.176575,0.99726 -0.05654,0.54333 -0.200324,1.07022 -0.294752,1.60719 -0.08458,0.526 -0.09936,1.05925 -0.109315,1.59083 0.04227,0.30199 0.01045,0.62565 0.347009,0.70294 0.412938,-0.0142 0.785858,-0.17713 1.169906,-0.3083 0.484322,-0.19554 0.973121,-0.38455 1.472001,-0.54012 0.322641,-0.0677 0.626772,-0.19646 0.940753,-0.29422 0.180472,-0.0561 0.259805,0.19912 0.07934,0.25522 v 0 c -0.313992,0.0974 -0.61808,0.22666 -0.940673,0.2942 -0.496782,0.15425 -0.982753,0.34394 -1.465117,0.53787 -0.433361,0.14767 -0.85916,0.33556 -1.328431,0.31268 -0.499224,-0.15579 -0.488603,-0.49804 -0.542004,-0.96529 0.01027,-0.54543 0.02598,-1.09254 0.113318,-1.63217 0.0949,-0.53801 0.238477,-1.06591 0.295318,-1.61031 0.01691,-0.0896 0.179705,-1.05293 0.20194,-1.07078 0.07659,-0.0615 0.18822,-0.0562 0.282327,-0.0843 0.190288,0.40511 0.151024,0.87249 0.102597,1.30405 -0.07595,0.59221 -0.22076,1.17246 -0.275034,1.76707 -0.09481,0.75587 -0.243689,1.50148 -0.424368,2.24151 -0.02673,0.18709 -0.291312,0.1493 -0.264583,-0.0378 z"
       inkscape:connector-curvature="0" />
    <path
       style="opacity:1;fill:#da03ae;fill-opacity:1;fill-rule:nonzero;stroke:#000000;stroke-width:1;stroke-linecap:round;stroke-linejoin:round;stroke-miterlimit:4;stroke-dasharray:none;stroke-dashoffset:0;stroke-opacity:1;paint-order:markers fill stroke"
       id="path4626"
       d="m 120.12539,107.02287 c -0.4608,0.54394 -0.93952,1.08221 -1.32268,1.68509 -0.10162,0.15935 -0.32697,0.0156 -0.22535,-0.1437 v 0 c 0.3954,-0.61809 0.88306,-1.17368 1.35905,-1.73037 0.13363,-0.13364 0.32262,0.0553 0.18898,0.18898 z"
       inkscape:connector-curvature="0" />
    <path
       style="opacity:1;fill:#da03ae;fill-opacity:1;fill-rule:nonzero;stroke:#000000;stroke-width:1;stroke-linecap:round;stroke-linejoin:round;stroke-miterlimit:4;stroke-dasharray:none;stroke-dashoffset:0;stroke-opacity:1;paint-order:markers fill stroke"
       id="path4628"
       d="m 115.89775,111.84533 c -0.32955,0.6027 -0.78031,1.12652 -1.13229,1.71398 -0.19703,0.28877 -0.10452,0.14702 -0.27858,0.42456 -0.10048,0.16007 -0.32684,0.018 -0.22637,-0.14209 v 0 c 0.17707,-0.28183 0.0852,-0.14173 0.27587,-0.42014 0.35572,-0.59021 0.80563,-1.11923 1.13899,-1.72457 0.10483,-0.15724 0.32721,-0.009 0.22238,0.14826 z"
       inkscape:connector-curvature="0" />
    <path
       style="opacity:1;fill:#da03ae;fill-opacity:1;fill-rule:nonzero;stroke:#000000;stroke-width:1;stroke-linecap:round;stroke-linejoin:round;stroke-miterlimit:4;stroke-dasharray:none;stroke-dashoffset:0;stroke-opacity:1;paint-order:markers fill stroke"
       id="path4630"
       d="m 111.35417,116.65618 c -0.33249,0.611 -0.68052,1.21001 -1.05681,1.79506 -0.056,0.0715 -0.11206,0.14309 -0.16809,0.21463 -0.11685,0.14853 -0.32691,-0.0167 -0.21005,-0.16525 v 0 c 0.0511,-0.0647 0.10223,-0.12931 0.15335,-0.19396 0.37715,-0.58627 0.72465,-1.18718 1.05921,-1.79873 0.10484,-0.15725 0.32722,-0.009 0.22239,0.14825 z"
       inkscape:connector-curvature="0" />
    <path
       style="opacity:1;fill:#da03ae;fill-opacity:1;fill-rule:nonzero;stroke:#000000;stroke-width:1;stroke-linecap:round;stroke-linejoin:round;stroke-miterlimit:4;stroke-dasharray:none;stroke-dashoffset:0;stroke-opacity:1;paint-order:markers fill stroke"
       id="path4632"
       d="m 81.103998,155.9332 c -0.426585,0.51361 -0.935411,0.95651 -1.32728,1.49814 -0.290689,0.3644 -0.547592,0.75666 -0.869153,1.09523 -0.130652,0.13655 -0.323766,-0.0482 -0.193114,-0.18478 v 0 c 0.315788,-0.32728 0.560292,-0.71504 0.846105,-1.06764 0.402675,-0.55121 0.915723,-1.00808 1.354455,-1.52994 0.133633,-0.13364 0.322623,0.0554 0.188987,0.18899 z"
       inkscape:connector-curvature="0" />
    <path
       style="opacity:1;fill:#da03ae;fill-opacity:1;fill-rule:nonzero;stroke:#000000;stroke-width:1;stroke-linecap:round;stroke-linejoin:round;stroke-miterlimit:4;stroke-dasharray:none;stroke-dashoffset:0;stroke-opacity:1;paint-order:markers fill stroke"
       id="path4634"
       d="m 76.301313,161.83615 c -0.374962,0.51346 -0.72299,1.04639 -1.079278,1.57323 -0.10587,0.15655 -0.327265,0.007 -0.221392,-0.14972 v 0 c 0.361288,-0.53421 0.713859,-1.07487 1.095348,-1.59461 0.120989,-0.14518 0.326311,0.0259 0.205322,0.1711 z"
       inkscape:connector-curvature="0" />
    <path
       style="opacity:1;fill:#da03ae;fill-opacity:1;fill-rule:nonzero;stroke:#000000;stroke-width:1;stroke-linecap:round;stroke-linejoin:round;stroke-miterlimit:4;stroke-dasharray:none;stroke-dashoffset:0;stroke-opacity:1;paint-order:markers fill stroke"
       id="path4636"
       d="m 72.559541,166.647 c -0.442788,0.57617 -0.885774,1.15595 -1.37705,1.69213 -0.05652,0.0669 -0.113046,0.13373 -0.169569,0.20059 -0.122068,0.14428 -0.326107,-0.0283 -0.204041,-0.17263 v 0 c 0.0589,-0.0696 0.117808,-0.13913 0.176715,-0.2087 0.489373,-0.5321 0.927441,-1.11059 1.368623,-1.68249 0.120986,-0.14518 0.326308,0.0259 0.205322,0.1711 z"
       inkscape:connector-curvature="0" />
    <path
       style="opacity:1;fill:#da03ae;fill-opacity:1;fill-rule:nonzero;stroke:#000000;stroke-width:1;stroke-linecap:round;stroke-linejoin:round;stroke-miterlimit:4;stroke-dasharray:none;stroke-dashoffset:0;stroke-opacity:1;paint-order:markers fill stroke"
       id="path4640"
       d="m 120.9878,128.7909 c 0.51466,0.63637 0.93934,1.33189 1.3122,2.05858 0.28339,0.5543 0.55446,1.11245 0.85968,1.65492 0.0144,0.0471 0.36129,0.78807 0.47191,0.5286 0.18731,-0.29118 0.31498,-0.61422 0.44173,-0.93676 0.17641,-0.53978 0.29146,-1.09659 0.44358,-1.64314 0.1903,-0.65208 0.41507,-1.29615 0.67786,-1.92288 0.15771,-0.39315 0.32901,-0.78131 0.53499,-1.15143 0.0922,-0.16496 0.32551,-0.0345 0.23329,0.13043 v 0 c -0.20256,0.36054 -0.36671,0.74123 -0.52185,1.12447 -0.25909,0.61616 -0.47932,1.25005 -0.66686,1.89124 -0.15526,0.55512 -0.27053,1.12146 -0.45231,1.66918 -0.14792,0.3754 -0.28651,0.76126 -0.5558,1.06977 -0.49145,0.20603 -0.65889,-0.25337 -0.83948,-0.62843 -0.30688,-0.54552 -0.57976,-1.10663 -0.86459,-1.66405 -0.36331,-0.70949 -0.77788,-1.38801 -1.27967,-2.0094 -0.12099,-0.14518 0.0843,-0.31629 0.20532,-0.1711 z"
       inkscape:connector-curvature="0" />
    <path
       style="opacity:1;fill:#da03ae;fill-opacity:1;fill-rule:nonzero;stroke:#000000;stroke-width:1;stroke-linecap:round;stroke-linejoin:round;stroke-miterlimit:4;stroke-dasharray:none;stroke-dashoffset:0;stroke-opacity:1;paint-order:markers fill stroke"
       id="path4642"
       d="m 71.006344,124.8783 c 0.722083,0.18483 1.456,0.36533 2.204345,0.37337 0.586846,-0.0344 1.170482,-0.10463 1.75727,-0.1413 0.269832,-0.0156 0.540054,-0.0215 0.810225,-0.0274 0.188942,-0.004 0.194813,0.26306 0.0059,0.26721 v 0 c -0.266576,0.006 -0.533199,0.0116 -0.799446,0.027 -0.593546,0.037 -1.18382,0.10941 -1.777588,0.14179 -0.772094,-0.0127 -1.529294,-0.18899 -2.274101,-0.38362 -0.181716,-0.0519 -0.108292,-0.3089 0.07342,-0.25699 z"
       inkscape:connector-curvature="0" />
    <path
       style="opacity:1;fill:#da03ae;fill-opacity:1;fill-rule:nonzero;stroke:#000000;stroke-width:1;stroke-linecap:round;stroke-linejoin:round;stroke-miterlimit:4;stroke-dasharray:none;stroke-dashoffset:0;stroke-opacity:1;paint-order:markers fill stroke"
       id="path4644"
       d="m 72.71705,127.05643 c -0.104383,0.73881 -0.164727,1.48259 -0.204073,2.22738 -0.0831,0.51956 -0.196826,1.03141 -0.251208,1.55538 -0.02426,0.33135 -0.01405,0.16486 -0.03054,0.49948 -0.0093,0.18876 -0.276273,0.17556 -0.266943,-0.0132 v 0 c 0.01704,-0.34373 0.0065,-0.1724 0.03165,-0.51397 0.05426,-0.51938 0.163016,-1.02754 0.250145,-1.54181 0.03983,-0.75271 0.100844,-1.5044 0.206386,-2.25106 0.02673,-0.18709 0.291312,-0.14929 0.264583,0.0378 z"
       inkscape:connector-curvature="0" />
    <path
       style="opacity:1;fill:#da03ae;fill-opacity:1;fill-rule:nonzero;stroke:#000000;stroke-width:1;stroke-linecap:round;stroke-linejoin:round;stroke-miterlimit:4;stroke-dasharray:none;stroke-dashoffset:0;stroke-opacity:1;paint-order:markers fill stroke"
       id="path4646"
       d="m 74.320669,128.12551 c -0.104384,0.73881 -0.164727,1.48259 -0.204073,2.22738 0.01741,0.6018 -0.106141,1.18849 -0.194107,1.78004 -0.108873,0.52686 -0.05912,1.03995 0.01947,1.56459 0.01243,0.0893 0.02484,0.17858 0.03728,0.26788 0.02603,0.18718 -0.238673,0.22402 -0.264718,0.0368 v 0 c -0.0123,-0.0884 -0.02458,-0.17675 -0.03689,-0.26513 -0.0824,-0.5504 -0.131582,-1.09108 -0.0195,-1.6435 0.08683,-0.58328 0.209536,-1.16135 0.191568,-1.75482 0.03983,-0.75271 0.100841,-1.5044 0.206386,-2.25107 0.02673,-0.18709 0.291309,-0.14929 0.264583,0.0378 z"
       inkscape:connector-curvature="0" />
    <path
       style="opacity:1;fill:#da03ae;fill-opacity:1;fill-rule:nonzero;stroke:#000000;stroke-width:1;stroke-linecap:round;stroke-linejoin:round;stroke-miterlimit:4;stroke-dasharray:none;stroke-dashoffset:0;stroke-opacity:1;paint-order:markers fill stroke"
       id="path4650"
       d="m 77.760207,136.44837 c 0.486317,-0.50076 0.797608,-1.10891 0.992492,-1.77215 0.09512,-0.42014 0.1294,-0.92129 -0.126553,-1.29147 -0.30498,-0.16331 -0.543983,0.242 -0.692751,0.45543 -0.239466,0.47026 -0.407127,0.97677 -0.521395,1.49146 -0.108773,0.46282 0.0081,0.91369 0.144118,1.35551 0.149344,0.39491 0.416997,0.70939 0.678664,1.03157 0.252638,0.30554 0.511355,0.5112 0.892432,0.62303 0.262771,0.0374 0.479062,-0.0454 0.709006,-0.16005 0.169911,-0.0828 0.286931,0.15754 0.11702,0.24029 v 0 c -0.293835,0.14036 -0.571881,0.23593 -0.902896,0.17574 -0.43017,-0.13166 -0.738285,-0.36356 -1.023112,-0.71062 -0.282823,-0.34896 -0.569333,-0.69221 -0.726569,-1.12138 -0.149582,-0.48655 -0.268854,-0.98338 -0.149527,-1.49225 0.122762,-0.54844 0.300678,-1.08981 0.563891,-1.5874 0.273243,-0.3831 0.665019,-0.84057 1.135462,-0.4466 0.280842,0.4543 0.285263,1.00264 0.158514,1.51251 -0.20969,0.70536 -0.541181,1.35306 -1.059807,1.88537 -0.133635,0.13363 -0.322625,-0.0554 -0.188989,-0.18899 z"
       inkscape:connector-curvature="0" />
    <path
       style="opacity:1;fill:#da03ae;fill-opacity:1;fill-rule:nonzero;stroke:#000000;stroke-width:1;stroke-linecap:round;stroke-linejoin:round;stroke-miterlimit:4;stroke-dasharray:none;stroke-dashoffset:0;stroke-opacity:1;paint-order:markers fill stroke"
       id="path4658"
       d="m 83.104793,126.53971 c -0.302133,0.81444 -0.494012,1.6634 -0.704236,2.50469 -0.190654,0.73829 -0.250756,1.49862 -0.283255,2.25753 0.03572,0.69594 0.138324,1.38337 0.275905,2.06531 0.181589,0.61696 0.320079,1.25032 0.589317,1.83671 0.19154,0.4225 0.413324,0.8612 0.854612,1.05795 0.133223,0.0216 0.170119,-0.014 0.239834,-0.11608 0.12813,-0.13892 0.324593,0.0423 0.196461,0.18121 v 0 c -0.175477,0.16716 -0.299265,0.24581 -0.550254,0.17663 -0.493659,-0.24208 -0.771184,-0.6944 -0.983864,-1.18889 -0.274439,-0.60646 -0.425135,-1.25657 -0.608097,-1.89467 -0.141814,-0.70296 -0.247592,-1.41206 -0.280937,-2.12963 0.03342,-0.77689 0.09584,-1.55511 0.290981,-2.31087 0.210965,-0.84415 0.403415,-1.69611 0.706548,-2.51332 0.05192,-0.18171 0.308904,-0.10829 0.256985,0.0734 z"
       inkscape:connector-curvature="0" />
    <path
       style="opacity:1;fill:#da03ae;fill-opacity:1;fill-rule:nonzero;stroke:#000000;stroke-width:1;stroke-linecap:round;stroke-linejoin:round;stroke-miterlimit:4;stroke-dasharray:none;stroke-dashoffset:0;stroke-opacity:1;paint-order:markers fill stroke"
       id="path4664"
       d="m 85.417468,129.06959 c 0.403733,0.67204 0.817864,1.3393 1.145889,2.05235 0.225703,0.56646 0.400844,1.15581 0.681948,1.69821 0.235945,0.29125 0.418163,0.16935 0.613773,-0.069 0.287152,-0.46792 0.400208,-1.01458 0.564652,-1.53206 0.15812,-0.57203 0.365403,-1.12859 0.498488,-1.70739 0.146122,-0.3705 0.225785,-0.76197 0.360508,-1.13527 0.0648,-0.17753 0.315868,-0.0859 0.251066,0.0916 v 0 c -0.133773,0.36176 -0.204846,0.74494 -0.351139,1.10367 -0.13543,0.58575 -0.343289,1.14958 -0.504235,1.72838 -0.175289,0.5501 -0.294656,1.13284 -0.614669,1.6229 -0.354428,0.41448 -0.688634,0.47785 -1.056069,0.0195 -0.280217,-0.54749 -0.464436,-1.13682 -0.687207,-1.70902 -0.321181,-0.70075 -0.730203,-1.35492 -1.125387,-2.01563 -0.104831,-0.15725 0.117552,-0.3055 0.222382,-0.14826 z"
       inkscape:connector-curvature="0" />
    <path
       style="opacity:1;fill:#da03ae;fill-opacity:1;fill-rule:nonzero;stroke:#000000;stroke-width:1;stroke-linecap:round;stroke-linejoin:round;stroke-miterlimit:4;stroke-dasharray:none;stroke-dashoffset:0;stroke-opacity:1;paint-order:markers fill stroke"
       id="path4666"
       d="m 91.785298,127.53536 c 0.22828,0.7908 0.337408,1.60708 0.415005,2.42431 0.0945,0.72267 0.03537,1.43368 -0.05786,2.15081 -0.10327,0.66273 -0.350412,1.28207 -0.604729,1.89761 -0.23405,0.51744 -0.485727,1.03041 -0.846053,1.47224 -0.215201,0.283 -0.445119,0.55039 -0.701365,0.79646 -0.13661,0.1306 -0.321294,-0.0626 -0.184685,-0.19319 v 0 c 0.249695,-0.23751 0.469935,-0.49943 0.679622,-0.77303 0.347216,-0.41817 0.578755,-0.91393 0.805466,-1.40454 0.245393,-0.59393 0.485788,-1.1907 0.586706,-1.83001 0.09068,-0.69745 0.149973,-1.38809 0.05682,-2.09112 -0.07586,-0.80095 -0.182277,-1.60104 -0.405913,-2.37611 -0.05192,-0.18172 0.205065,-0.25515 0.256984,-0.0734 z"
       inkscape:connector-curvature="0" />
    <path
       style="opacity:1;fill:#da03ae;fill-opacity:1;fill-rule:nonzero;stroke:#000000;stroke-width:1;stroke-linecap:round;stroke-linejoin:round;stroke-miterlimit:4;stroke-dasharray:none;stroke-dashoffset:0;stroke-opacity:1;paint-order:markers fill stroke"
       id="path4668"
       d="m 94.756622,158.48518 c 0.746517,0.0356 1.482955,-0.0243 2.222079,-0.11993 0.546897,-0.0212 1.065226,-0.18614 1.596396,-0.2967 0.245951,-0.0485 0.495718,-0.0684 0.745114,-0.0885 0.188383,-0.0151 0.209772,0.25129 0.02138,0.26641 v 0 c -0.238336,0.019 -0.477046,0.0377 -0.712139,0.0838 -0.53776,0.11148 -1.062956,0.27819 -1.616477,0.30008 -0.750427,0.0971 -1.498502,0.15757 -2.256361,0.12214 -0.18899,0 -0.18899,-0.26727 0,-0.26727 z"
       inkscape:connector-curvature="0" />
    <path
       style="opacity:1;fill:#da03ae;fill-opacity:1;fill-rule:nonzero;stroke:#000000;stroke-width:1;stroke-linecap:round;stroke-linejoin:round;stroke-miterlimit:4;stroke-dasharray:none;stroke-dashoffset:0;stroke-opacity:1;paint-order:markers fill stroke"
       id="path4670"
       d="m 96.23677,160.46512 c -0.06742,0.75617 -0.241324,1.49515 -0.366723,2.24245 -0.05069,0.30468 -0.07675,0.61227 -0.101314,0.91983 -0.01508,0.18839 -0.281501,0.16706 -0.266417,-0.0213 v 0 c 0.02529,-0.31523 0.05212,-0.6305 0.10415,-0.94276 0.12517,-0.74516 0.29854,-1.48198 0.365721,-2.23599 0.02672,-0.18709 0.291309,-0.14929 0.264583,0.0378 z"
       inkscape:connector-curvature="0" />
    <path
       style="opacity:1;fill:#da03ae;fill-opacity:1;fill-rule:nonzero;stroke:#000000;stroke-width:1;stroke-linecap:round;stroke-linejoin:round;stroke-miterlimit:4;stroke-dasharray:none;stroke-dashoffset:0;stroke-opacity:1;paint-order:markers fill stroke"
       id="path4672"
       d="m 98.107657,160.99966 c -0.104383,0.73881 -0.164729,1.48259 -0.204073,2.22738 -0.02751,0.58649 -0.03024,1.1737 -0.03166,1.7607 -0.05179,0.4531 -0.13871,0.90065 -0.193712,1.35348 -0.02283,0.1876 -0.288136,0.15533 -0.265316,-0.0323 v 0 c 0.05389,-0.44234 0.135982,-0.87989 0.191759,-1.32185 0.0013,-0.59149 0.0042,-1.18319 0.03203,-1.77416 0.03983,-0.75271 0.100843,-1.5044 0.206388,-2.25107 0.02673,-0.18709 0.291309,-0.14929 0.264583,0.0378 z"
       inkscape:connector-curvature="0" />
    <path
       style="opacity:1;fill:#da03ae;fill-opacity:1;fill-rule:nonzero;stroke:#000000;stroke-width:1;stroke-linecap:round;stroke-linejoin:round;stroke-miterlimit:4;stroke-dasharray:none;stroke-dashoffset:0;stroke-opacity:1;paint-order:markers fill stroke"
       id="path4674"
       d="m 103.75365,162.04984 c -0.052,0.73467 -0.14414,1.46114 -0.37885,2.16091 -0.19734,0.57017 -0.47173,1.12666 -0.8842,1.57076 -0.30221,0.36928 -0.64373,0.52761 -1.10193,0.3615 -0.45741,-0.1915 -0.69615,-0.61601 -0.88177,-1.05163 -0.10041,-0.22143 -0.47641,-0.76114 -0.14754,-0.97251 0.0633,-0.0407 0.14677,-0.0332 0.22016,-0.0498 0.44765,0.0813 0.8541,0.3545 1.22423,0.61081 0.36184,0.24819 0.75735,0.43904 1.13468,0.66029 0.36267,0.21888 0.77296,0.32031 1.19405,0.30139 0.18888,-0.007 0.19816,0.26054 0.009,0.26711 v 0 c -0.47284,0.0125 -0.9315,-0.0893 -1.33913,-0.3383 -0.38172,-0.22666 -0.78549,-0.41721 -1.1516,-0.67115 -0.32268,-0.22601 -0.67858,-0.45826 -1.05954,-0.56315 -0.20161,-0.23229 0.0838,0.62912 0.16163,0.65139 0.15426,0.36924 0.34847,0.74243 0.73428,0.90722 0.34194,0.1558 0.58548,-0.0282 0.80847,-0.29619 0.39132,-0.41035 0.63736,-0.94327 0.82568,-1.47314 0.228,-0.67154 0.31103,-1.37031 0.36482,-2.07547 0,-0.18899 0.26727,-0.18899 0.26727,0 z"
       inkscape:connector-curvature="0" />
    <path
       style="opacity:1;fill:#da03ae;fill-opacity:1;fill-rule:nonzero;stroke:#000000;stroke-width:1;stroke-linecap:round;stroke-linejoin:round;stroke-miterlimit:4;stroke-dasharray:none;stroke-dashoffset:0;stroke-opacity:1;paint-order:markers fill stroke"
       id="path4676"
       d="m 110.55719,158.1071 c -0.3905,0.69754 -0.63137,1.46205 -0.88647,2.21577 -0.19294,0.55951 -0.26137,1.14481 -0.29441,1.73212 0.0529,0.5254 0.1121,1.0543 0.30385,1.54867 0.17151,0.46669 0.43444,0.88161 0.81662,1.20008 0.20569,0.22032 0.47197,0.35577 0.7192,0.52007 0.15728,0.10479 0.009,0.32722 -0.14819,0.22243 v 0 c -0.25505,-0.17037 -0.53039,-0.31117 -0.74333,-0.5382 -0.41318,-0.35215 -0.70786,-0.79709 -0.89386,-1.30871 -0.2013,-0.53071 -0.27415,-1.09541 -0.32113,-1.65942 0.0347,-0.61132 0.10729,-1.22042 0.3081,-1.80274 0.26069,-0.76997 0.50771,-1.55055 0.90757,-2.26267 0.0938,-0.16409 0.32582,-0.0315 0.23205,0.1326 z"
       inkscape:connector-curvature="0" />
    <path
       style="opacity:1;fill:#da03ae;fill-opacity:1;fill-rule:nonzero;stroke:#000000;stroke-width:1;stroke-linecap:round;stroke-linejoin:round;stroke-miterlimit:4;stroke-dasharray:none;stroke-dashoffset:0;stroke-opacity:1;paint-order:markers fill stroke"
       id="path4678"
       d="m 113.99502,160.12631 c 0.29866,0.75361 0.61282,1.50207 0.9603,2.23462 0.2179,0.49626 0.48037,0.9808 0.83825,1.39052 0.28395,0.26636 0.57615,0.11935 0.83723,-0.094 0.32803,-0.34215 0.40095,-0.80458 0.45459,-1.25649 0.0449,-0.52905 0.0392,-1.0607 0.0381,-1.59116 -0.002,-0.42543 -0.003,-0.85087 -0.005,-1.2763 -5.3e-4,-0.18899 0.26661,-0.18991 0.26727,-0.001 v 0 c 0.002,0.42555 0.003,0.85109 0.005,1.27663 0.001,0.54128 0.007,1.08378 -0.04,1.62356 -0.0633,0.52343 -0.16194,1.04762 -0.55313,1.43349 -0.38084,0.29884 -0.8155,0.43711 -1.20613,0.0601 -0.3703,-0.43108 -0.65229,-0.93038 -0.87768,-1.45096 -0.34861,-0.73574 -0.6648,-1.48699 -0.96446,-2.24383 -0.0744,-0.1737 0.17122,-0.27899 0.24566,-0.10528 z"
       inkscape:connector-curvature="0" />
    <path
       style="opacity:1;fill:#da03ae;fill-opacity:1;fill-rule:nonzero;stroke:#000000;stroke-width:1;stroke-linecap:round;stroke-linejoin:round;stroke-miterlimit:4;stroke-dasharray:none;stroke-dashoffset:0;stroke-opacity:1;paint-order:markers fill stroke"
       id="path4680"
       d="m 120.38318,158.27136 c 0.17323,0.7539 0.40652,1.49174 0.57345,2.24712 0.11763,0.58714 0.13401,1.18377 0.24342,1.77182 0.10283,0.59287 0.18893,1.19804 0.14638,1.80014 -0.0972,0.48182 -0.11595,0.97813 -0.22345,1.45688 -0.099,0.51685 -0.43736,0.82935 -0.89874,1.03754 -0.0768,0.0151 -0.15354,0.0302 -0.23031,0.0453 -0.186,0.0335 -0.23333,-0.22957 -0.0473,-0.26304 v 0 c 0.0565,-0.009 0.11299,-0.0178 0.16949,-0.0267 0.38827,-0.1677 0.6661,-0.4198 0.74637,-0.85282 0.10885,-0.46432 0.11771,-0.94963 0.21745,-1.41712 0.0459,-0.57838 -0.0479,-1.16161 -0.14263,-1.73137 -0.10866,-0.58527 -0.12749,-1.17841 -0.24163,-1.76304 -0.16542,-0.75014 -0.39798,-1.48259 -0.56945,-2.23132 -0.0519,-0.18172 0.20507,-0.25514 0.25698,-0.0734 z"
       inkscape:connector-curvature="0" />
  </g>
</svg>
