<?xml version="1.0" encoding="UTF-8" standalone="no"?>
<svg
   xmlns:dc="http://purl.org/dc/elements/1.1/"
   xmlns:cc="http://creativecommons.org/ns#"
   xmlns:rdf="http://www.w3.org/1999/02/22-rdf-syntax-ns#"
   xmlns:svg="http://www.w3.org/2000/svg"
   xmlns="http://www.w3.org/2000/svg"
   xmlns:sodipodi="http://sodipodi.sourceforge.net/DTD/sodipodi-0.dtd"
   xmlns:inkscape="http://www.inkscape.org/namespaces/inkscape"
   version="1.0"
   width="1280.000000pt"
   height="853.000000pt"
   viewBox="0 0 1280.000000 853.000000"
   preserveAspectRatio="xMidYMid meet"
   id="svg14"
   sodipodi:docname="baloon.svg"
   inkscape:version="0.92.1 r15371">
  <defs
     id="defs18" />
  <sodipodi:namedview
     pagecolor="#ffffff"
     bordercolor="#666666"
     borderopacity="1"
     objecttolerance="10"
     gridtolerance="10"
     guidetolerance="10"
     inkscape:pageopacity="0"
     inkscape:pageshadow="2"
     inkscape:window-width="1920"
     inkscape:window-height="1046"
     id="namedview16"
     showgrid="false"
     inkscape:zoom="0.58690692"
     inkscape:cx="950.12804"
     inkscape:cy="645.28592"
     inkscape:window-x="-11"
     inkscape:window-y="-11"
     inkscape:window-maximized="1"
     inkscape:current-layer="svg14" />
  <metadata
     id="metadata2">
Created by potrace 1.15, written by Peter Selinger 2001-2017
<rdf:RDF>
  <cc:Work
     rdf:about="">
    <dc:format>image/svg+xml</dc:format>
    <dc:type
       rdf:resource="http://purl.org/dc/dcmitype/StillImage" />
    <dc:title></dc:title>
  </cc:Work>
</rdf:RDF>
</metadata>
  <g
     id="g5083">
    <path
       sodipodi:nodetypes="ccccccccccccccccsccccsccscccccccccccccc"
       d="m 650.24205,59.775688 c -18.45328,2.60515 -46.89304,13.025821 -64.69502,23.663592 -33.2159,19.75587 -68.16859,61.00436 -81.84572,96.82542 -10.42069,27.57137 -14.32844,48.62983 -14.32844,79.02346 0.21709,68.81987 26.05169,131.9952 70.77377,172.59243 l 13.67712,12.37453 -8.03259,-1.51966 c -9.11809,-1.73679 -19.97298,0.21708 -18.23619,3.03936 0.65129,1.08549 3.69066,1.30258 6.73001,0.65128 6.07875,-1.08547 19.75587,1.95389 32.56462,7.38132 l 8.46681,3.47355 -12.80877,5.42745 c -14.9797,6.29582 -29.30814,16.28229 -25.18327,17.58487 1.51968,0.43421 4.34194,-0.65129 6.29581,-2.60516 5.21034,-4.55904 28.65686,-14.97971 30.17653,-13.46003 0.65129,0.6513 -3.25645,5.86163 -8.90098,11.28906 -5.42745,5.64452 -9.98649,10.85486 -9.98649,11.94035 0,0.86839 4.77614,3.47355 10.42068,5.42744 l 10.63779,3.90776 -0.47922,7.76471 c 0.21709,13.46005 3.30147,24.1486 16.76149,44.12156 12.80877,18.88747 16.93361,29.09105 16.93361,43.20238 0,23.66363 -13.24293,47.54432 -35.60397,64.04374 -16.4994,12.37453 -33.43299,20.84134 -76.85249,38.86042 -55.14274,23.01233 -74.2473,35.16977 -74.2473,47.54433 0,7.3813 1.51968,6.73002 5.21034,-1.95387 4.55904,-10.85487 20.40716,-20.40717 63.17534,-38.42625 46.24176,-19.10455 67.5173,-29.74233 84.66799,-41.8998 23.01233,-16.4994 35.82107,-38.20912 37.55784,-63.39243 1.08549,-18.01909 -2.17096,-26.92007 -19.10457,-52.97176 -15.19681,-23.22943 -19.53877,-47.54432 -7.81551,-44.72206 9.7694,2.38807 27.35429,3.90775 30.61074,2.82227 2.82227,-1.30258 2.60517,-2.82227 -1.30258,-13.46005 -2.38808,-6.51293 -4.77615,-14.97973 -5.21034,-18.45327 -0.86838,-6.51292 -0.65129,-6.51292 9.33519,-6.51292 41.46561,-0.2171 98.12802,-30.82782 132.6465,-71.85924 43.41948,-51.66918 63.82664,-106.16061 60.13598,-161.95465 -5.21035,-85.53637 -61.87277,-155.875918 -135.90297,-169.118842 -18.23618,-3.25646 -27.78847,-3.47359 -46.24174,-0.65129 z"
       id="path8-0"
       inkscape:connector-curvature="0"
       style="fill:#da03ae;fill-opacity:1;stroke:none;stroke-width:0.10000002" />
    <rect
       y="503.76413"
       x="557.96698"
       height="52.45982"
       width="57.58828"
       id="rect5035-5"
       style="opacity:1;fill:#ffffff;fill-opacity:1;fill-rule:nonzero;stroke:none;stroke-width:1.41732287;stroke-linecap:round;stroke-linejoin:round;stroke-miterlimit:4;stroke-dasharray:none;stroke-dashoffset:0;stroke-opacity:1;paint-order:markers fill stroke" />
    <rect
       y="531.09851"
       x="403.94717"
       height="221.83423"
       width="243.52066"
       id="rect5035"
       style="opacity:1;fill:#ffffff;fill-opacity:1;fill-rule:nonzero;stroke:none;stroke-width:1.41732287;stroke-linecap:round;stroke-linejoin:round;stroke-miterlimit:4;stroke-dasharray:none;stroke-dashoffset:0;stroke-opacity:1;paint-order:markers fill stroke" />
    <path
       inkscape:connector-curvature="0"
       d="m 441.89703,741.15793 c 0.23813,-0.39422 0.48477,-0.78414 0.73656,-1.17001 0.45649,-0.66111 0.91769,-1.3195 1.39658,-1.96461 0.69022,-0.94256 1.42852,-1.84793 2.17924,-2.74251 1.02462,-1.17951 2.10031,-2.31332 3.17408,-3.44785 1.36443,-1.39302 2.78838,-2.72648 4.25159,-4.01484 1.68143,-1.49051 3.44411,-2.8838 5.21266,-4.26834 2.00087,-1.55786 4.0857,-3.00142 6.19508,-4.40709 2.27536,-1.53254 4.63186,-2.93674 6.99844,-4.32206 2.45593,-1.43118 4.94612,-2.80165 7.44672,-4.15279 2.56764,-1.37573 5.16803,-2.68812 7.78957,-3.95766 2.64889,-1.27628 5.3357,-2.471 8.03245,-3.64191 2.70563,-1.18228 5.44625,-2.27978 8.20631,-3.32761 2.73712,-1.02892 5.48715,-2.02296 8.23878,-3.01225 2.76712,-1.0115 5.56032,-1.94754 8.35857,-2.8684 2.77041,-0.90764 5.54141,-1.81349 8.31165,-2.72162 2.73565,-0.91082 5.48679,-1.77373 8.23441,-2.64745 2.61662,-0.8343 5.22381,-1.69761 7.82222,-2.58688 2.46383,-0.83864 4.91432,-1.71476 7.34433,-2.64671 2.35087,-0.90182 4.68619,-1.84336 7.02105,-2.78564 2.17991,-0.8827 4.34672,-1.79851 6.49174,-2.76293 1.98188,-0.91458 3.94694,-1.86544 5.88978,-2.8602 1.83132,-0.94626 3.63381,-1.94484 5.41016,-2.99025 1.79446,-1.05793 3.55841,-2.16658 5.30976,-3.29413 1.7879,-1.15095 3.52698,-2.3732 5.25057,-3.61754 1.70494,-1.23554 3.36876,-2.52541 4.998,-3.85879 1.56555,-1.29509 3.0629,-2.66702 4.52855,-4.07311 1.45347,-1.41021 2.82389,-2.9028 4.16511,-4.41917 1.37914,-1.53138 2.66666,-3.14013 3.94738,-4.75349 1.28056,-1.60646 2.49233,-3.26541 3.67685,-4.94338 1.17594,-1.69592 2.27707,-3.44143 3.34794,-5.20498 1.10168,-1.77736 2.08212,-3.62433 3.06078,-5.47095 0.99075,-1.81758 1.85342,-3.69931 2.7148,-5.58024 0.83968,-1.84367 1.60308,-3.72029 2.31176,-5.61779 0.71586,-1.88704 1.29784,-3.81987 1.8626,-5.75622 0.56592,-1.90126 0.94945,-3.84714 1.295,-5.79815 0.32167,-1.89806 0.49328,-3.8155 0.57056,-5.7377 0.0887,-1.96365 -0.0204,-3.92726 -0.16019,-5.88551 -0.15092,-2.03136 -0.46699,-4.04402 -0.83037,-6.04657 -0.38523,-2.09309 -0.89375,-4.16013 -1.42543,-6.21994 -0.58427,-2.11693 -1.24512,-4.21223 -1.95883,-6.28884 -0.73488,-2.14918 -1.55691,-4.26616 -2.40415,-6.37301 -0.86907,-2.10458 -1.79126,-4.18595 -2.7736,-6.23997 -0.99603,-2.06767 -2.0258,-4.11884 -3.09118,-6.15161 -1.07243,-2.03078 -2.15511,-4.05595 -3.24667,-6.07651 -1.06004,-1.99408 -2.16355,-3.96441 -3.25827,-5.93952 -1.0762,-1.9295 -2.08375,-3.89626 -3.09639,-5.85957 -0.97145,-1.90742 -1.87543,-3.84824 -2.75087,-5.80127 -0.82841,-1.89635 -1.59388,-3.81927 -2.30538,-5.76228 -0.6886,-1.89379 -1.23434,-3.83382 -1.72994,-5.78555 -0.48875,-1.89838 -0.82101,-3.83069 -1.0834,-5.77176 -0.25945,-1.88594 -0.32259,-3.79022 -0.30275,-5.69143 0.0352,-1.83852 0.22129,-3.66636 0.49567,-5.48305 0.27066,-1.72856 0.71411,-3.42079 1.23141,-5.08986 0.44102,-1.47659 1.00279,-2.91101 1.65848,-4.30437 0.11084,-0.21426 0.22167,-0.42852 0.33251,-0.64278 4.45289,-8.56042 8.48837,-6.46132 4.03547,2.09909 v 0 c -0.0853,0.16272 -0.17051,0.32544 -0.25577,0.48816 -0.57019,1.19847 -1.04564,2.43829 -1.42693,3.7101 -0.45229,1.45014 -0.83972,2.9206 -1.07799,4.42275 -0.24576,1.60738 -0.40973,3.2248 -0.44437,4.85177 -0.021,1.68125 0.0345,3.36557 0.26247,5.03345 0.23646,1.76904 0.53987,3.52972 0.98436,5.25966 0.45635,1.8016 0.95828,3.59266 1.59263,5.34095 0.67366,1.84305 1.40089,3.66611 2.18468,5.46527 0.84074,1.87728 1.70984,3.74241 2.64245,5.57605 0.99183,1.92301 1.97817,3.84967 3.03221,5.73959 1.10265,1.98943 2.21399,3.97414 3.28185,5.98261 1.1007,2.03748 2.19239,4.07965 3.27378,6.12747 1.09073,2.08241 2.14629,4.18299 3.16604,6.30112 1.02291,2.14142 1.98558,4.31028 2.8899,6.50458 0.87623,2.1795 1.72582,4.36972 2.48604,6.5929 0.75082,2.18919 1.44895,4.39708 2.06104,6.62938 0.55913,2.16752 1.09246,4.34298 1.49686,6.5456 0.39145,2.16434 0.73042,4.33973 0.89179,6.53507 0.15056,2.12774 0.26471,4.26119 0.16777,6.39461 -0.089,2.12571 -0.27716,4.24651 -0.6366,6.34518 -0.37511,2.11269 -0.79478,4.21904 -1.40721,6.278 -0.59657,2.0437 -1.21298,4.08309 -1.96848,6.07488 -0.7479,1.99893 -1.55126,3.97668 -2.43685,5.91898 -0.89797,1.96073 -1.79946,3.92123 -2.83132,5.81639 -1.02024,1.92489 -2.0444,3.849 -3.19209,5.7021 -1.12551,1.85275 -2.2831,3.68637 -3.51995,5.46735 -1.23399,1.74728 -2.49633,3.4748 -3.83001,5.14785 -1.3311,1.6768 -2.67075,3.34761 -4.1035,4.93973 -1.42411,1.60873 -2.87912,3.1922 -4.42296,4.68759 -1.55224,1.4885 -3.13862,2.94035 -4.7969,4.31092 -1.70061,1.39091 -3.43653,2.73748 -5.21603,4.02641 -1.78929,1.2914 -3.59497,2.55949 -5.45085,3.75414 -1.80279,1.16025 -3.61833,2.30141 -5.46549,3.39002 -1.85349,1.08981 -3.73344,2.13236 -5.64419,3.11882 -2.01164,1.02901 -4.04528,2.01459 -6.0976,2.95999 -2.199,0.98766 -4.41923,1.92796 -6.65389,2.83205 -2.35938,0.95215 -4.71927,1.90345 -7.09486,2.81468 -2.48173,0.95135 -4.98389,1.84698 -7.50007,2.7032 -2.62978,0.89986 -5.26836,1.77374 -7.91655,2.61801 -2.73476,0.86963 -5.47307,1.72838 -8.19589,2.635 -2.76862,0.9076 -5.53797,1.81292 -8.30674,2.72002 -2.75906,0.90791 -5.51324,1.8305 -8.24148,2.8281 -2.72647,0.98022 -5.45137,1.9651 -8.16351,2.98444 -2.6938,1.02234 -5.3685,2.09347 -8.00902,3.24739 -2.63934,1.14579 -5.26905,2.31471 -7.8616,3.56349 -2.56106,1.2399 -5.10126,2.52206 -7.60973,3.86558 -2.45503,1.32632 -4.89982,2.67161 -7.31103,4.07646 -2.29062,1.34077 -4.57237,2.69837 -6.77445,4.18207 -2.01326,1.3407 -4.00316,2.71745 -5.91307,4.20323 -1.70031,1.33092 -3.39597,2.66905 -5.01237,4.10209 -1.36046,1.19518 -2.68136,2.4356 -3.9521,3.72608 -1.01179,1.06898 -2.02546,2.13715 -2.99397,3.24583 -0.69452,0.82689 -1.37769,1.66366 -2.01547,2.53555 -0.42597,0.56884 -0.82885,1.1549 -1.2372,1.73644 -0.26013,0.39658 -0.50983,0.79991 -0.75873,1.20358 -5.35252,8.02865 -9.13732,5.50549 -3.7848,-2.52317 z"
       id="path5033"
       style="opacity:1;fill:#000000;fill-opacity:1;fill-rule:nonzero;stroke:#000000;stroke-width:1.41732287;stroke-linecap:round;stroke-linejoin:round;stroke-miterlimit:4;stroke-dasharray:none;stroke-dashoffset:0;stroke-opacity:1;paint-order:markers fill stroke" />
    <path
       inkscape:connector-curvature="0"
       d="m 556.87192,478.88601 c 0.67503,-0.81566 1.40843,-1.58152 2.18577,-2.29976 0.63451,-0.58905 1.34552,-1.0884 2.06196,-1.57143 0.73346,-0.55135 1.51625,-1.02478 2.30203,-1.49575 0.85187,-0.58334 1.76888,-1.05845 2.669,-1.56086 0.91456,-0.53701 1.76834,-1.16767 2.67405,-1.71876 0.90714,-0.53106 1.79655,-1.09048 2.68516,-1.65169 1.06348,-0.7145 2.18936,-1.30244 3.35147,-1.83679 1.22769,-0.53096 2.41515,-1.14734 3.62619,-1.7129 1.09695,-0.48988 2.16506,-1.0382 3.27357,-1.50255 0.96085,-0.38633 1.92594,-0.76393 2.90688,-1.09647 0.93789,-0.26636 1.86069,-0.58051 2.80551,-0.82204 0.8129,-0.24001 1.62657,-0.48015 2.44968,-0.68298 0.4747,-0.14723 1.25602,-0.25078 1.68574,-0.45822 2.13147,-0.7483 3.18971,2.26605 1.05825,3.01435 v 0 c -0.65127,0.21238 -1.31864,0.391 -1.98511,0.54714 -0.81538,0.19743 -1.61784,0.44535 -2.42406,0.67661 -0.86742,0.21713 -1.7105,0.51619 -2.57235,0.75344 -0.91125,0.30266 -1.80238,0.66318 -2.69475,1.0167 -1.07057,0.44416 -2.09588,0.98381 -3.15623,1.45081 -1.21733,0.56323 -2.4058,1.18955 -3.63945,1.71904 -1.03465,0.47504 -2.03592,0.99301 -2.97954,1.63506 -0.90606,0.57211 -1.81305,1.14228 -2.73769,1.68415 -0.94066,0.56439 -1.81358,1.23541 -2.77028,1.77469 -0.87173,0.48657 -1.75981,0.94559 -2.58413,1.51176 -0.7373,0.44158 -1.47119,0.88501 -2.15808,1.40421 -0.58277,0.39287 -1.16637,0.79236 -1.68257,1.27149 -0.67641,0.62168 -1.31063,1.28825 -1.89678,1.99596 -1.44618,1.73541 -3.90042,-0.30979 -2.45424,-2.04521 z"
       id="path4714"
       style="opacity:1;fill:#000000;fill-opacity:1;fill-rule:nonzero;stroke:#000000;stroke-width:1.41732287;stroke-linecap:round;stroke-linejoin:round;stroke-miterlimit:4;stroke-dasharray:none;stroke-dashoffset:0;stroke-opacity:1;paint-order:markers fill stroke" />
    <path
       inkscape:connector-curvature="0"
       d="m 547.51356,444.02265 c 0.85035,-0.24261 1.6748,-0.55137 2.53978,-0.74609 0.77115,-0.15909 1.5588,-0.18765 2.34338,-0.20081 0.73534,-0.0176 1.46389,-0.15377 2.1971,-0.22367 0.91599,-0.11857 1.82474,-0.0557 2.73502,0.0673 0.80194,0.10806 1.6113,0.13138 2.41923,0.14839 1.20377,-0.026 2.39959,0.11951 3.59776,0.21051 1.23387,0.0963 2.46817,0.2337 3.6948,0.40141 1.15389,0.13553 2.28725,0.37842 3.41507,0.65143 1.04575,0.21014 2.06624,0.52421 3.11243,0.73179 1.1589,0.26483 2.32118,0.5132 3.47948,0.7797 1.09228,0.23664 2.16957,0.54306 3.23099,0.89214 0.92757,0.36285 1.84004,0.76425 2.78117,1.09122 0.92799,0.33819 1.85948,0.67078 2.80186,0.96737 0.95789,0.3485 1.90373,0.73745 2.8327,1.15798 0.89445,0.43447 1.76457,0.91975 2.61288,1.4384 0.75795,0.47036 1.53811,0.89838 2.30649,1.35083 0.72949,0.4585 1.44553,0.93661 2.16556,1.40959 0.54,0.41722 1.07436,0.84115 1.63064,1.23611 0.73915,0.59641 1.15018,1.17422 1.4571,2.07185 0.55342,2.19017 -2.54394,2.97282 -3.09736,0.78265 v 0 c 0.22998,0.41873 -0.0966,-0.18705 -0.22757,-0.2627 -0.51449,-0.37414 -1.02859,-0.75033 -1.51735,-1.15812 -0.67751,-0.44545 -1.35149,-0.89526 -2.0365,-1.32911 -0.7815,-0.46405 -1.57845,-0.8995 -2.35156,-1.37797 -0.73521,-0.45293 -1.49262,-0.87132 -2.26644,-1.25415 -0.81045,-0.37205 -1.64081,-0.70504 -2.47432,-1.02012 -0.9728,-0.31037 -1.93745,-0.64784 -2.89614,-0.99888 -0.92072,-0.32682 -1.82399,-0.69954 -2.72669,-1.07261 -0.96594,-0.32374 -1.95123,-0.59452 -2.94632,-0.81216 -1.12719,-0.26317 -2.26084,-0.49855 -3.38865,-0.76006 -1.08604,-0.22085 -2.14907,-0.53358 -3.23412,-0.75873 -1.02478,-0.24814 -2.05316,-0.47279 -3.10241,-0.59205 -1.16043,-0.16392 -2.33052,-0.28706 -3.4982,-0.38031 -1.14033,-0.087 -2.27776,-0.22895 -3.42345,-0.20202 -0.92856,-0.02 -1.85847,-0.0511 -2.77995,-0.17658 -0.66997,-0.0911 -1.32915,-0.15324 -2.00504,-0.0526 -0.81586,0.0766 -1.62591,0.23103 -2.44625,0.23747 -0.57068,0.009 -1.14441,0.0204 -1.70712,0.12622 -0.80288,0.17162 -1.5573,0.49151 -2.35034,0.69819 -2.17209,0.6206 -3.04975,-2.4512 -0.87766,-3.0718 z"
       id="path4778"
       style="opacity:1;fill:#000000;fill-opacity:1;fill-rule:nonzero;stroke:#000000;stroke-width:1.41732287;stroke-linecap:round;stroke-linejoin:round;stroke-miterlimit:4;stroke-dasharray:none;stroke-dashoffset:0;stroke-opacity:1;paint-order:markers fill stroke" />
    <path
       inkscape:connector-curvature="0"
       d="m 602.41477,458.63687 c -1.01438,-0.0306 -2.02483,0.0352 -3.03636,0.1 -1.06495,0.0758 -2.11255,0.27284 -3.15742,0.48186 -0.64211,0.19781 -1.3588,0.25955 -1.95068,0.59702 -0.0892,-0.027 -0.60816,0.48341 -0.27584,0.20279 10e-4,0.0204 -0.005,0.043 0.004,0.0613 0.01,0.0198 0.0317,-0.10308 0.0468,-0.0927 0.0751,0.0521 0.12414,0.1341 0.18608,0.20127 0.47658,0.47009 1.07751,0.74519 1.66509,1.04587 1.2315,0.63818 2.55228,1.06187 3.87996,1.44634 1.94981,0.54848 3.93403,0.95966 5.91814,1.36107 2.28756,0.48168 4.58567,0.89821 6.90207,1.21309 2.26249,0.3132 4.54022,0.50788 6.81821,0.66659 1.87565,0.13447 3.75746,0.0775 5.63089,-0.0558 0.98659,-0.12059 2.0039,-0.19328 2.93986,-0.55189 0.27166,-0.11257 0.20073,-0.2789 0.12643,-0.16907 -0.008,0.0211 -0.0104,0.046 -0.025,0.0632 -0.0277,0.0325 -0.0901,-0.0928 -0.18994,-0.2158 -0.15942,-0.19634 -0.11504,-0.14369 -0.29471,-0.31043 -0.61455,-0.59124 -1.36288,-1.01211 -2.09724,-1.43424 -1.36845,-0.69951 -2.81237,-1.23085 -4.25454,-1.75438 -2.29284,-0.78453 -4.66785,-1.2846 -7.04913,-1.7106 -2.95551,-0.55347 -5.95818,-0.73394 -8.95697,-0.84954 -2.41824,-0.09 -4.84101,-0.10083 -7.25038,0.14167 -1.2304,0.13968 -2.4421,0.35555 -3.54099,0.94383 -1.41612,0.73902 -2.46125,-1.26368 -1.04513,-2.00269 v 0 c 1.38032,-0.70801 2.82149,-1.03128 4.36222,-1.18902 2.51321,-0.24795 5.03917,-0.24928 7.56154,-0.1511 3.1031,0.12029 6.2098,0.3108 9.26806,0.88325 2.50777,0.44988 5.00852,0.97974 7.42177,1.81084 1.56545,0.56852 3.13274,1.14819 4.61182,1.92068 0.89941,0.51986 1.80693,1.04795 2.55329,1.78102 0.61922,0.62618 1.15299,1.31732 1.17834,2.23821 -0.0236,0.16401 -0.0311,0.33117 -0.071,0.49203 -0.19355,0.7829 -0.82504,1.32083 -1.53347,1.63401 -1.14428,0.40603 -2.34955,0.56967 -3.55488,0.68333 -1.97905,0.14021 -3.96684,0.198 -5.94811,0.056 -2.32731,-0.16257 -4.65434,-0.36163 -6.96584,-0.68178 -2.36418,-0.32254 -4.7104,-0.7451 -7.04524,-1.23729 -2.04526,-0.4139 -4.09039,-0.83903 -6.09993,-1.40577 -1.46498,-0.42628 -2.92067,-0.89963 -4.2794,-1.60487 -0.83476,-0.42735 -1.66935,-0.85778 -2.32029,-1.55156 -0.54755,-0.62304 -0.93256,-1.31209 -0.75563,-2.17285 0.0396,-0.13883 0.0619,-0.28378 0.1188,-0.41646 0.25862,-0.60323 0.76971,-1.01207 1.33967,-1.30373 0.80109,-0.38717 1.66401,-0.59721 2.5284,-0.79695 1.14339,-0.22873 2.2908,-0.43945 3.45612,-0.52112 1.05951,-0.0679 2.11836,-0.1345 3.18078,-0.10461 1.59735,0 1.59735,2.259 0,2.259 z"
       id="path4842"
       style="opacity:1;fill:#000000;fill-opacity:1;fill-rule:nonzero;stroke:#000000;stroke-width:1.41732287;stroke-linecap:round;stroke-linejoin:round;stroke-miterlimit:4;stroke-dasharray:none;stroke-dashoffset:0;stroke-opacity:1;paint-order:markers fill stroke" />
  </g>
</svg>
