<?xml version="1.0" encoding="UTF-8" standalone="no"?>
<!-- Created with Inkscape (http://www.inkscape.org/) -->

<svg
   xmlns:dc="http://purl.org/dc/elements/1.1/"
   xmlns:cc="http://creativecommons.org/ns#"
   xmlns:rdf="http://www.w3.org/1999/02/22-rdf-syntax-ns#"
   xmlns:svg="http://www.w3.org/2000/svg"
   xmlns="http://www.w3.org/2000/svg"
   xmlns:sodipodi="http://sodipodi.sourceforge.net/DTD/sodipodi-0.dtd"
   xmlns:inkscape="http://www.inkscape.org/namespaces/inkscape"
   width="297mm"
   height="210mm"
   viewBox="0 0 297 210"
   version="1.1"
   id="svg8"
   inkscape:version="0.92.1 r15371"
   sodipodi:docname="self-adjo-on-the-way-to-understand.svg">
  <defs
     id="defs2">
    <marker
       inkscape:isstock="true"
       style="overflow:visible;"
       id="marker5336"
       refX="0.0"
       refY="0.0"
       orient="auto"
       inkscape:stockid="Arrow2Lend">
      <path
         transform="scale(1.1) rotate(180) translate(1,0)"
         d="M 8.7185878,4.0337352 L -2.2072895,0.016013256 L 8.7185884,-4.0017078 C 6.9730900,-1.6296469 6.9831476,1.6157441 8.7185878,4.0337352 z "
         style="fill-rule:evenodd;stroke-width:0.625;stroke-linejoin:round;stroke:#000000;stroke-opacity:1;fill:#000000;fill-opacity:1"
         id="path5334" />
    </marker>
    <marker
       inkscape:stockid="Arrow2Lend"
       orient="auto"
       refY="0.0"
       refX="0.0"
       id="marker5276"
       style="overflow:visible;"
       inkscape:isstock="true"
       inkscape:collect="always">
      <path
         id="path5274"
         style="fill-rule:evenodd;stroke-width:0.625;stroke-linejoin:round;stroke:#000000;stroke-opacity:1;fill:#000000;fill-opacity:1"
         d="M 8.7185878,4.0337352 L -2.2072895,0.016013256 L 8.7185884,-4.0017078 C 6.9730900,-1.6296469 6.9831476,1.6157441 8.7185878,4.0337352 z "
         transform="scale(1.1) rotate(180) translate(1,0)" />
    </marker>
    <marker
       inkscape:isstock="true"
       style="overflow:visible;"
       id="marker5222"
       refX="0.0"
       refY="0.0"
       orient="auto"
       inkscape:stockid="Arrow2Lend"
       inkscape:collect="always">
      <path
         transform="scale(1.1) rotate(180) translate(1,0)"
         d="M 8.7185878,4.0337352 L -2.2072895,0.016013256 L 8.7185884,-4.0017078 C 6.9730900,-1.6296469 6.9831476,1.6157441 8.7185878,4.0337352 z "
         style="fill-rule:evenodd;stroke-width:0.625;stroke-linejoin:round;stroke:#000000;stroke-opacity:1;fill:#000000;fill-opacity:1"
         id="path5220" />
    </marker>
    <marker
       inkscape:stockid="Arrow2Lend"
       orient="auto"
       refY="0.0"
       refX="0.0"
       id="Arrow2Lend"
       style="overflow:visible;"
       inkscape:isstock="true"
       inkscape:collect="always">
      <path
         id="path4933"
         style="fill-rule:evenodd;stroke-width:0.625;stroke-linejoin:round;stroke:#000000;stroke-opacity:1;fill:#000000;fill-opacity:1"
         d="M 8.7185878,4.0337352 L -2.2072895,0.016013256 L 8.7185884,-4.0017078 C 6.9730900,-1.6296469 6.9831476,1.6157441 8.7185878,4.0337352 z "
         transform="scale(1.1) rotate(180) translate(1,0)" />
    </marker>
    <marker
       inkscape:stockid="Arrow1Mend"
       orient="auto"
       refY="0.0"
       refX="0.0"
       id="marker5045"
       style="overflow:visible;"
       inkscape:isstock="true">
      <path
         id="path5043"
         d="M 0.0,0.0 L 5.0,-5.0 L -12.5,0.0 L 5.0,5.0 L 0.0,0.0 z "
         style="fill-rule:evenodd;stroke:#0549ff;stroke-width:1pt;stroke-opacity:1;fill:#0549ff;fill-opacity:1"
         transform="scale(0.4) rotate(180) translate(10,0)" />
    </marker>
    <marker
       inkscape:stockid="Arrow1Lend"
       orient="auto"
       refY="0.0"
       refX="0.0"
       id="Arrow1Lend"
       style="overflow:visible;"
       inkscape:isstock="true">
      <path
         id="path4490"
         d="M 0.0,0.0 L 5.0,-5.0 L -12.5,0.0 L 5.0,5.0 L 0.0,0.0 z "
         style="fill-rule:evenodd;stroke:#000000;stroke-width:1pt;stroke-opacity:1;fill:#000000;fill-opacity:1"
         transform="scale(0.8) rotate(180) translate(12.5,0)" />
    </marker>
    <marker
       inkscape:stockid="Arrow1Mend"
       orient="auto"
       refY="0"
       refX="0"
       id="marker5045-0"
       style="overflow:visible"
       inkscape:isstock="true">
      <path
         inkscape:connector-curvature="0"
         id="path5043-3"
         d="M 0,0 5,-5 -12.5,0 5,5 Z"
         style="fill:#da03ae;fill-opacity:1;fill-rule:evenodd;stroke:#da03ae;stroke-width:1.00000003pt;stroke-opacity:1"
         transform="matrix(-0.4,0,0,-0.4,-4,0)" />
    </marker>
  </defs>
  <sodipodi:namedview
     id="base"
     pagecolor="#ffffff"
     bordercolor="#666666"
     borderopacity="1.0"
     inkscape:pageopacity="0.0"
     inkscape:pageshadow="2"
     inkscape:zoom="1.979899"
     inkscape:cx="537.46745"
     inkscape:cy="446.43277"
     inkscape:document-units="mm"
     inkscape:current-layer="layer1"
     showgrid="false"
     inkscape:window-width="1920"
     inkscape:window-height="1046"
     inkscape:window-x="-11"
     inkscape:window-y="-11"
     inkscape:window-maximized="1" />
  <metadata
     id="metadata5">
    <rdf:RDF>
      <cc:Work
         rdf:about="">
        <dc:format>image/svg+xml</dc:format>
        <dc:type
           rdf:resource="http://purl.org/dc/dcmitype/StillImage" />
        <dc:title></dc:title>
      </cc:Work>
    </rdf:RDF>
  </metadata>
  <g
     inkscape:label="Layer 1"
     inkscape:groupmode="layer"
     id="layer1"
     transform="translate(0,-87)">
    <circle
       style="opacity:1;fill:none;fill-opacity:1;fill-rule:nonzero;stroke:#000000;stroke-width:0.26499999;stroke-linecap:round;stroke-linejoin:round;stroke-miterlimit:4;stroke-dasharray:none;stroke-dashoffset:0;stroke-opacity:1;paint-order:markers fill stroke"
       id="path4814"
       cx="149.67094"
       cy="201.31749"
       r="55.59206" />
    <circle
       style="opacity:1;fill:#000000;fill-opacity:1;fill-rule:nonzero;stroke:#000000;stroke-width:0.26499999;stroke-linecap:round;stroke-linejoin:round;stroke-miterlimit:4;stroke-dasharray:none;stroke-dashoffset:0;stroke-opacity:1;paint-order:markers fill stroke"
       id="path4894"
       cx="149.67094"
       cy="201.31749"
       r="0.36750001" />
    <path
       style="fill:none;stroke:#000000;stroke-width:0.265;stroke-linecap:butt;stroke-linejoin:miter;stroke-opacity:1;stroke-miterlimit:4;stroke-dasharray:none;marker-end:url(#Arrow2Lend)"
       d="m 149.67093,201.33421 52.25119,-18.72557"
       id="path4898"
       inkscape:connector-curvature="0" />
    <path
       style="fill:none;stroke:#000000;stroke-width:0.26458332;stroke-linecap:butt;stroke-linejoin:miter;stroke-miterlimit:4;stroke-dasharray:1.05833327, 1.05833327;stroke-dashoffset:0;stroke-opacity:1;marker-end:url(#marker5222)"
       d="M 150.2001,200.80504 91.935344,143.05812"
       id="path5212"
       inkscape:connector-curvature="0" />
    <path
       style="fill:none;stroke:#000000;stroke-width:0.26458332px;stroke-linecap:butt;stroke-linejoin:miter;stroke-opacity:1;marker-end:url(#marker5276)"
       d="M 149.67093,201.33421 110.18006,162.15699"
       id="path5266"
       inkscape:connector-curvature="0" />
    <path
       style="fill:none;stroke:#000000;stroke-width:0.26458332;stroke-linecap:butt;stroke-linejoin:miter;stroke-miterlimit:4;stroke-dasharray:1.05833327, 1.05833327;stroke-dashoffset:0;stroke-opacity:1;marker-end:url(#marker5336)"
       d="m 149.74477,201.28513 33.94493,-6.55221"
       id="path5326"
       inkscape:connector-curvature="0" />
    <g
       id="g5541"
       transform="matrix(0.76829782,0,0,0.77052089,43.296723,42.332429)"
       style="stroke-width:1.29969954">
      <path
         inkscape:connector-curvature="0"
         d="m 183.72185,177.07521 c 0.44158,0.49945 0.86754,1.01154 1.2935,1.52428 0.45936,0.51502 0.91157,1.03525 1.35729,1.56213 0.3901,0.43356 0.74148,0.89843 1.15157,1.31354 0.32696,0.30958 0.60775,0.6628 0.93433,0.97272 0.38592,0.36986 -0.13714,0.91564 -0.52306,0.54578 v 0 c -0.32903,-0.31772 -0.62081,-0.67003 -0.94963,-0.9878 -0.42275,-0.42968 -0.78915,-0.90659 -1.19035,-1.356 -0.44718,-0.52862 -0.9012,-1.05022 -1.36163,-1.56731 -0.42571,-0.51247 -0.85151,-1.02415 -1.29276,-1.52339 -0.3422,-0.41065 0.23853,-0.89459 0.58074,-0.48395 z"
         id="path5474"
         style="opacity:1;fill:#000000;fill-opacity:1;fill-rule:nonzero;stroke:#000000;stroke-width:0.34387884;stroke-linecap:round;stroke-linejoin:round;stroke-miterlimit:4;stroke-dasharray:none;stroke-dashoffset:0;stroke-opacity:1;paint-order:markers fill stroke" />
      <path
         inkscape:connector-curvature="0"
         d="m 187.81941,176.8059 c -0.4561,0.40657 -0.80267,0.90571 -1.12739,1.41859 -0.38691,0.61269 -0.75976,1.23454 -1.12473,1.86057 -0.36141,0.59573 -0.72856,1.18703 -1.07815,1.78973 -0.24613,0.38963 -0.49728,0.7769 -0.76448,1.15256 -0.31016,0.43536 -0.92584,-0.003 -0.61569,-0.43862 v 0 c 0.25414,-0.35611 0.49137,-0.72435 0.72626,-1.09325 0.34991,-0.60319 0.71694,-1.19523 1.07902,-1.79121 0.36982,-0.63412 0.74744,-1.2641 1.13943,-1.88473 0.35516,-0.55882 0.73593,-1.1026 1.23119,-1.54818 0.37798,-0.37798 0.91252,0.15656 0.53454,0.53454 z"
         id="path5476"
         style="opacity:1;fill:#000000;fill-opacity:1;fill-rule:nonzero;stroke:#000000;stroke-width:0.34387884;stroke-linecap:round;stroke-linejoin:round;stroke-miterlimit:4;stroke-dasharray:none;stroke-dashoffset:0;stroke-opacity:1;paint-order:markers fill stroke" />
    </g>
    <g
       id="g5537"
       transform="matrix(0.93677703,0,0,0.93646108,-4.2715918,27.262391)"
       style="stroke-width:1.06766999">
      <path
         inkscape:connector-curvature="0"
         d="m 103.50898,139.08949 c -0.15974,0.69528 -0.23212,1.40549 -0.27981,2.11594 -0.0393,0.66742 -0.0421,1.33622 -0.0442,2.00457 -5.3e-4,0.47445 7.9e-4,0.9489 0.002,1.42335 1e-4,0.0657 1.9e-4,0.1314 2.7e-4,0.19709 7e-5,0.0492 1.3e-4,0.0985 2e-4,0.14772 5e-5,0.0331 0.033,0.10315 2.3e-4,0.0992 -0.80052,-0.0975 -0.75595,0.14296 -0.75583,-0.24381 5e-5,-0.4453 2e-5,-0.8906 1e-5,-1.3359 -0.0241,-0.66588 0.06,-1.32746 0.11513,-1.98973 0.0843,-0.66611 0.17503,-1.33113 0.34712,-1.98086 0.11335,-0.48109 0.25531,-0.95468 0.42893,-1.41745 0.18409,-0.5021 0.29893,-0.79462 0.84022,-0.95439 0.0939,0.0146 0.19243,0.0109 0.28159,0.0437 0.35685,0.13115 0.56368,0.56255 0.71748,0.8772 0.24683,0.53139 0.42525,1.09406 0.5902,1.6556 0.19086,0.66289 0.38078,1.32614 0.56776,1.99026 0.19056,0.57066 0.30799,1.16185 0.50174,1.7313 0.13947,0.42407 0.2654,0.85301 0.42352,1.27087 0.15113,0.33788 0.19831,0.67197 0.13439,1.03378 -0.11875,0.52118 -0.85582,0.35324 -0.73707,-0.16794 v 0 c 0.094,-0.18436 -0.0571,-0.42671 -0.10519,-0.60054 -0.15862,-0.42655 -0.29173,-0.86179 -0.4319,-1.29442 -0.19529,-0.5826 -0.32188,-1.18425 -0.51317,-1.76822 -0.18619,-0.66163 -0.3753,-1.32239 -0.56559,-1.98272 -0.15264,-0.52344 -0.31898,-1.0481 -0.54753,-1.54364 -0.063,-0.13894 -0.13388,-0.27131 -0.22297,-0.39576 -0.018,-0.0252 -0.048,-0.0425 -0.0596,-0.0712 -0.0126,-0.0312 0.17068,0.0143 0.0953,-0.0334 0.0125,-0.0118 0.0334,-0.0186 0.0374,-0.0353 0.008,-0.0328 -0.0644,0.028 -0.0854,0.0544 -0.10664,0.13406 -0.15573,0.30022 -0.21427,0.45811 -0.16784,0.43803 -0.29621,0.88942 -0.40565,1.34522 -0.16411,0.60535 -0.24062,1.22753 -0.32401,1.84813 -0.0535,0.64144 -0.13641,1.28202 -0.11252,1.92695 1e-5,0.44539 4e-5,0.89077 -1e-5,1.33615 -1.2e-4,0.38674 0.0447,0.14936 -0.75607,0.24765 -0.006,7.9e-4 -8e-5,-0.0128 -1e-4,-0.0192 -1.1e-4,-0.0463 -2.6e-4,-0.20826 -2.6e-4,-0.23066 -9e-5,-0.0656 -1.8e-4,-0.13123 -2.7e-4,-0.19685 -7.9e-4,-0.47564 -0.002,-0.95129 -0.002,-1.42694 0.002,-0.68455 0.005,-1.36956 0.0459,-2.05314 0.0512,-0.75506 0.12922,-1.50981 0.30067,-2.24841 0.12965,-0.51859 0.86303,-0.33524 0.73338,0.18334 z"
         id="path5508"
         style="opacity:1;fill:#000000;fill-opacity:1;fill-rule:nonzero;stroke:#000000;stroke-width:0.28248766;stroke-linecap:round;stroke-linejoin:round;stroke-miterlimit:4;stroke-dasharray:none;stroke-dashoffset:0;stroke-opacity:1;paint-order:markers fill stroke" />
      <path
         inkscape:connector-curvature="0"
         d="m 101.85644,141.84077 c 0.60469,0 1.20938,0 1.81407,0 0.45648,0 0.91296,0 1.36944,0 0.0649,0 0.12977,0 0.19466,0 0.53453,0 0.53453,0.75596 0,0.75596 v 0 c -0.0649,0 -0.12977,0 -0.19466,0 -0.45648,0 -0.91296,0 -1.36944,0 -0.60469,0 -1.20938,0 -1.81407,0 -0.53454,0 -0.53454,-0.75596 0,-0.75596 z"
         id="path5510"
         style="opacity:1;fill:#000000;fill-opacity:1;fill-rule:nonzero;stroke:#000000;stroke-width:0.28248766;stroke-linecap:round;stroke-linejoin:round;stroke-miterlimit:4;stroke-dasharray:none;stroke-dashoffset:0;stroke-opacity:1;paint-order:markers fill stroke" />
      <path
         inkscape:connector-curvature="0"
         d="m 108.85946,140.74159 c 0.37836,0.43924 0.75705,0.87778 1.14942,1.30464 0.36124,0.38553 0.8059,0.692 1.24169,0.98891 0.26262,0.18596 0.53006,0.36388 0.79871,0.54095 0.4463,0.29418 0.0303,0.92536 -0.41604,0.63117 v 0 c -0.27219,-0.17942 -0.54314,-0.35985 -0.80934,-0.54808 -0.48234,-0.33082 -0.97293,-0.67124 -1.37161,-1.10142 -0.38508,-0.41907 -0.7591,-0.8477 -1.12736,-1.28163 -0.37798,-0.37797 0.15656,-0.91251 0.53453,-0.53454 z"
         id="path5512"
         style="opacity:1;fill:#000000;fill-opacity:1;fill-rule:nonzero;stroke:#000000;stroke-width:0.28248766;stroke-linecap:round;stroke-linejoin:round;stroke-miterlimit:4;stroke-dasharray:none;stroke-dashoffset:0;stroke-opacity:1;paint-order:markers fill stroke" />
      <path
         inkscape:connector-curvature="0"
         d="m 111.53806,139.54024 c -0.31601,0.54488 -0.48947,1.14718 -0.66948,1.74547 -0.17791,0.6453 -0.29411,1.30501 -0.43704,1.95827 -0.11514,0.63338 -0.33234,1.24166 -0.59106,1.8291 -0.10488,0.27279 -0.23965,0.53091 -0.37925,0.78692 -0.25695,0.46873 -0.91983,0.10535 -0.66288,-0.36339 v 0 c 0.13046,-0.23649 0.25386,-0.47611 0.35062,-0.72895 0.23966,-0.54091 0.43931,-1.10182 0.54421,-1.6858 0.14807,-0.67173 0.26588,-1.35082 0.45151,-2.01397 0.20147,-0.66946 0.40195,-1.3423 0.76438,-1.94697 0.2965,-0.44477 0.9255,-0.0254 0.62899,0.41932 z"
         id="path5514"
         style="opacity:1;fill:#000000;fill-opacity:1;fill-rule:nonzero;stroke:#000000;stroke-width:0.28248766;stroke-linecap:round;stroke-linejoin:round;stroke-miterlimit:4;stroke-dasharray:none;stroke-dashoffset:0;stroke-opacity:1;paint-order:markers fill stroke" />
    </g>
    <path
       style="opacity:1;fill:#000000;fill-opacity:1;fill-rule:nonzero;stroke:#000000;stroke-width:0.26458332;stroke-linecap:round;stroke-linejoin:round;stroke-miterlimit:4;stroke-dasharray:none;stroke-dashoffset:0;stroke-opacity:1;paint-order:markers fill stroke"
       id="path5516"
       d="m 114.2773,175.62947 c -0.20831,0.3047 -0.31989,0.6334 -0.30066,1.00133 0.055,0.26734 0.24419,0.45605 0.45389,0.61434 0.22285,0.15742 0.40879,0.11978 0.64774,0.0273 0.23173,-0.13458 0.38803,-0.35265 0.50217,-0.5905 0.15398,-0.27023 0.22675,-0.56559 0.26591,-0.87116 -2.2e-4,-0.0662 0.0555,-0.40456 -0.009,-0.44803 -0.0137,-0.009 -0.004,0.045 0.0118,0.0481 0.17137,0.0337 0.34722,0.0378 0.52082,0.0567 0.0776,0.19995 0.077,0.45412 0.11789,0.67198 0.10016,0.56136 0.18668,1.12518 0.28911,1.68615 0.11361,0.6934 0.25352,1.38259 0.41598,2.0661 0.1572,0.64784 0.29852,1.29891 0.4394,1.95048 0.10516,0.50019 0.18222,1.00741 0.16261,1.51918 -0.0274,0.50514 -0.20457,0.83343 -0.63414,1.09629 -0.38151,0.17932 -0.78591,0.10197 -1.17527,-0.003 -0.39463,-0.13284 -0.74537,-0.36935 -1.06081,-0.63746 -0.35423,-0.32772 -0.46306,-0.76954 -0.47687,-1.23535 8.6e-4,-0.53882 0.24013,-1.0152 0.4979,-1.47281 0.35365,-0.55126 0.83914,-0.9879 1.32426,-1.41877 0.5492,-0.43344 1.11038,-0.85176 1.67794,-1.26098 0.37328,-0.26914 0.75271,0.26041 0.37943,0.52956 v 0 c -0.54984,0.39644 -1.09317,0.80194 -1.62668,1.21994 -0.43204,0.38283 -0.86667,0.76785 -1.18959,1.25221 -0.20206,0.35516 -0.4058,0.72405 -0.41319,1.14351 -0.006,0.27375 0.0497,0.54755 0.249,0.74677 0.24011,0.2078 0.50896,0.39119 0.80713,0.50351 0.21877,0.0593 0.46277,0.13572 0.68588,0.0651 0.22924,-0.1067 0.29633,-0.31353 0.30561,-0.55968 0.0267,-0.45421 -0.0634,-0.90617 -0.14856,-1.3504 -0.13986,-0.64732 -0.28019,-1.2941 -0.43649,-1.93765 -0.16464,-0.69483 -0.30773,-1.39513 -0.42307,-2.09993 -0.10186,-0.56067 -0.18912,-1.12396 -0.2889,-1.685 -0.066,-0.36529 -0.16524,-0.76865 -0.0358,-1.12636 0.19704,-0.0202 0.39428,-0.0828 0.59111,-0.0607 0.0492,0.005 0.0481,0.0874 0.0643,0.13437 0.077,0.22199 0.0411,0.46345 0.0222,0.69102 -0.0508,0.37686 -0.14241,0.74344 -0.32936,1.07816 -0.19819,0.38601 -0.46245,0.72536 -0.86483,0.91225 -0.44813,0.15287 -0.86731,0.1677 -1.26592,-0.12734 -0.35859,-0.28694 -0.64741,-0.63014 -0.70377,-1.10432 -0.0138,-0.5051 0.12202,-0.96815 0.40939,-1.38737 0.255,-0.38369 0.79592,-0.0219 0.54093,0.36176 z"
       inkscape:connector-curvature="0" />
    <g
       id="g5531"
       transform="matrix(0.84903915,0,0,0.84896983,19.813067,31.457034)"
       style="stroke-width:1.17785013">
      <path
         inkscape:connector-curvature="0"
         d="m 180.15441,201.15083 c -0.30062,0.60605 -0.51369,1.24436 -0.65277,1.90502 -0.12011,0.65851 -0.23122,1.31697 -0.29304,1.98372 -0.0513,0.47798 -0.0234,0.96023 -0.0754,1.43743 -0.002,0.0499 -0.006,0.0998 -0.007,0.14977 -0.002,0.069 -5.3e-4,0.1704 0.004,0.24295 5.3e-4,0.009 0.0125,0.0286 0.004,0.0266 -0.76657,-0.17775 -0.76688,0.0414 -0.66947,-0.34502 0.0702,-0.41742 0.14534,-0.83472 0.20899,-1.25367 0.12838,-0.61616 0.22949,-1.23678 0.37845,-1.84856 0.14197,-0.63125 0.32825,-1.25159 0.53839,-1.86328 0.14579,-0.51754 0.40701,-0.98812 0.64675,-1.46551 0.20757,-0.39854 0.45441,-0.77028 0.86036,-0.97856 0.57597,-0.13197 0.84868,0.32843 1.07775,0.76964 0.22526,0.5067 0.36783,1.04717 0.51749,1.58021 0.18927,0.61965 0.34286,1.25083 0.47012,1.88607 0.10734,0.54858 0.25983,1.08605 0.38425,1.63039 0.0899,0.37713 0.15665,0.77111 0.28636,1.13737 0.0942,0.22388 0.14332,0.4526 0.16265,0.69325 0.0249,0.53396 -0.73019,0.56922 -0.75513,0.0353 v 0 c 0.0103,-0.16982 -0.076,-0.33014 -0.12458,-0.48915 -0.127,-0.39476 -0.21819,-0.8045 -0.30646,-1.20921 -0.12439,-0.55102 -0.28097,-1.0945 -0.38838,-1.64977 -0.12289,-0.61652 -0.27292,-1.22877 -0.45667,-1.83 -0.13561,-0.48368 -0.26492,-0.97373 -0.46086,-1.43664 -0.0484,-0.0936 -0.0859,-0.19325 -0.14163,-0.28276 -0.0854,-0.13728 -0.068,-0.0674 0.0411,-0.14342 -0.15719,-0.009 -0.41369,0.50593 -0.49095,0.62683 -0.22491,0.44702 -0.47205,0.88664 -0.60735,1.37196 -0.20322,0.58967 -0.3822,1.18808 -0.51889,1.79683 -0.14483,0.58993 -0.23951,1.1892 -0.36549,1.78315 -0.0679,0.44264 -0.14539,0.88385 -0.22327,1.32438 -0.0976,0.3872 -0.008,0.2309 -0.81535,0.23919 -0.0267,2.7e-4 -0.006,-0.0531 -0.007,-0.0797 -0.005,-0.0894 -0.006,-0.22358 -0.003,-0.30761 0.002,-0.0665 0.007,-0.13279 0.011,-0.19919 0.0609,-0.46923 0.0105,-0.94903 0.0735,-1.41935 0.0651,-0.69596 0.17986,-1.3836 0.3063,-2.07083 0.15787,-0.73624 0.39414,-1.44983 0.73585,-2.12288 0.26521,-0.46411 0.92156,-0.089 0.65635,0.37506 z"
         id="path5522"
         style="opacity:1;fill:#000000;fill-opacity:1;fill-rule:nonzero;stroke:#000000;stroke-width:0.31163949;stroke-linecap:round;stroke-linejoin:round;stroke-miterlimit:4;stroke-dasharray:none;stroke-dashoffset:0;stroke-opacity:1;paint-order:markers fill stroke" />
      <path
         inkscape:connector-curvature="0"
         d="m 179.64348,203.81006 c 0.58855,-0.0756 1.18048,-0.11918 1.77295,-0.14846 0.32363,-0.031 0.64522,0.0221 0.96446,0.0681 0.52907,0.0762 0.42123,0.82447 -0.10784,0.74822 v 0 c -0.27143,-0.0392 -0.54403,-0.0902 -0.8194,-0.0613 -0.56916,0.028 -1.1378,0.0697 -1.70327,0.14178 -0.52916,0.0756 -0.63607,-0.67276 -0.1069,-0.74836 z"
         id="path5524"
         style="opacity:1;fill:#000000;fill-opacity:1;fill-rule:nonzero;stroke:#000000;stroke-width:0.31163949;stroke-linecap:round;stroke-linejoin:round;stroke-miterlimit:4;stroke-dasharray:none;stroke-dashoffset:0;stroke-opacity:1;paint-order:markers fill stroke" />
      <path
         inkscape:connector-curvature="0"
         d="m 185.93788,201.20574 c -0.0296,0.47825 0.0169,0.95353 0.18205,1.40392 0.11608,0.34871 0.32251,0.64947 0.62865,0.8543 0.21851,0.0579 0.40249,-0.074 0.56704,-0.20183 0.2869,-0.27312 0.43269,-0.64556 0.60449,-0.99442 0.16056,-0.3709 0.31826,-0.74496 0.41545,-1.13814 0.008,-0.0326 0.0837,-0.54771 0.12985,-0.53754 0.76112,0.16769 0.70504,0.0819 0.71451,0.48064 0.0276,0.52611 0.0999,1.04967 0.13528,1.57638 0.0421,0.74432 0.0465,1.49007 0.0506,2.23536 0.055,0.75312 0.12029,1.50497 0.15536,2.25943 0.0283,0.67807 0.0533,1.35439 -0.0214,2.02975 -0.089,0.50351 -0.25605,0.98799 -0.52549,1.4225 -0.22883,0.41485 -0.58869,0.6275 -1.03558,0.73754 -0.47106,0.10074 -0.8993,-0.0378 -1.30886,-0.26134 -0.43488,-0.24405 -0.70077,-0.63565 -0.84712,-1.10078 -0.13065,-0.59684 0.036,-1.14435 0.28137,-1.6845 0.3396,-0.70035 0.85859,-1.28649 1.39797,-1.8385 0.60213,-0.60983 1.28937,-1.12115 1.93443,-1.68146 0.28326,-0.23963 0.56413,-0.48199 0.84378,-0.72581 0.40292,-0.35126 0.89968,0.21856 0.49676,0.56982 v 0 c -0.28021,0.24427 -0.56158,0.48718 -0.84542,0.72723 -0.63066,0.54554 -1.29985,1.04577 -1.88924,1.63893 -0.47947,0.48926 -0.94628,1.00609 -1.25154,1.6258 -0.17606,0.37635 -0.31582,0.75 -0.23815,1.17198 0.0394,0.26947 0.25711,0.49538 0.48068,0.63447 0.24354,0.13434 0.4874,0.24851 0.77446,0.18778 0.26534,-0.055 0.43942,-0.15666 0.56975,-0.40867 0.22065,-0.32705 0.3265,-0.71756 0.41093,-1.09903 0.0719,-0.63555 0.0417,-1.27245 0.0175,-1.91068 -0.0354,-0.76479 -0.1043,-1.52667 -0.15616,-2.29034 -0.004,-0.72985 -0.008,-1.46014 -0.0489,-2.18907 -0.0358,-0.5378 -0.11101,-1.07211 -0.13677,-1.6097 -0.001,-0.0511 -0.0537,-0.14495 -0.003,-0.15323 0.2292,-0.0377 0.46415,0.0579 0.69569,0.0395 0.0343,-0.003 0.0139,-0.0696 0.0339,-0.0977 0.014,-0.0196 -0.0104,0.0471 -0.0147,0.0708 -0.11921,0.64427 0.0986,-0.50373 -0.0671,0.36489 -0.11328,0.444 -0.28434,0.86958 -0.47041,1.28774 -0.22494,0.4565 -0.43037,0.9323 -0.83113,1.26667 -0.4454,0.32312 -0.93546,0.48398 -1.45649,0.21169 -0.42293,-0.31092 -0.73875,-0.71406 -0.90341,-1.21847 -0.19588,-0.56886 -0.27007,-1.16139 -0.2177,-1.76282 0.0756,-0.52917 0.82395,-0.42226 0.74836,0.1069 z"
         id="path5526"
         style="opacity:1;fill:#000000;fill-opacity:1;fill-rule:nonzero;stroke:#000000;stroke-width:0.31163949;stroke-linecap:round;stroke-linejoin:round;stroke-miterlimit:4;stroke-dasharray:none;stroke-dashoffset:0;stroke-opacity:1;paint-order:markers fill stroke" />
    </g>
  </g>
</svg>
