<?xml version="1.0" encoding="UTF-8" standalone="no"?>
<!-- Created with Inkscape (http://www.inkscape.org/) -->

<svg
   xmlns:dc="http://purl.org/dc/elements/1.1/"
   xmlns:cc="http://creativecommons.org/ns#"
   xmlns:rdf="http://www.w3.org/1999/02/22-rdf-syntax-ns#"
   xmlns:svg="http://www.w3.org/2000/svg"
   xmlns="http://www.w3.org/2000/svg"
   xmlns:sodipodi="http://sodipodi.sourceforge.net/DTD/sodipodi-0.dtd"
   xmlns:inkscape="http://www.inkscape.org/namespaces/inkscape"
   width="297mm"
   height="210mm"
   viewBox="0 0 297 210"
   version="1.1"
   id="svg8"
   inkscape:version="0.92.1 r15371"
   sodipodi:docname="from-ellipse-to-ellipse.svg">
  <defs
     id="defs2" />
  <sodipodi:namedview
     id="base"
     pagecolor="#ffffff"
     bordercolor="#666666"
     borderopacity="1.0"
     inkscape:pageopacity="0.0"
     inkscape:pageshadow="2"
     inkscape:zoom="0.49497475"
     inkscape:cx="-104.10612"
     inkscape:cy="92.639177"
     inkscape:document-units="mm"
     inkscape:current-layer="layer1"
     showgrid="false"
     inkscape:window-width="1920"
     inkscape:window-height="1046"
     inkscape:window-x="-11"
     inkscape:window-y="-11"
     inkscape:window-maximized="1" />
  <metadata
     id="metadata5">
    <rdf:RDF>
      <cc:Work
         rdf:about="">
        <dc:format>image/svg+xml</dc:format>
        <dc:type
           rdf:resource="http://purl.org/dc/dcmitype/StillImage" />
        <dc:title />
      </cc:Work>
    </rdf:RDF>
  </metadata>
  <g
     inkscape:label="Layer 1"
     inkscape:groupmode="layer"
     id="layer1"
     transform="translate(0,-87)">
    <ellipse
       style="opacity:1;fill:none;fill-opacity:1;fill-rule:nonzero;stroke:#0b34bc;stroke-width:1;stroke-linecap:round;stroke-linejoin:round;stroke-miterlimit:4;stroke-dasharray:none;stroke-dashoffset:0;stroke-opacity:1;paint-order:markers fill stroke"
       id="path4512"
       cx="104.43117"
       cy="259.48416"
       rx="9.7328863"
       ry="6.5200891" />
    <ellipse
       style="opacity:1;fill:none;fill-opacity:1;fill-rule:nonzero;stroke:#e422a7;stroke-width:1;stroke-linecap:round;stroke-linejoin:round;stroke-miterlimit:4;stroke-dasharray:none;stroke-dashoffset:0;stroke-opacity:1;paint-order:markers fill stroke"
       id="path4529"
       cx="-80.089409"
       cy="201.34122"
       rx="38.931545"
       ry="27.686756"
       transform="rotate(-39.235796)" />
    <ellipse
       style="opacity:1;fill:none;fill-opacity:1;fill-rule:nonzero;stroke:#000000;stroke-width:0.50000001;stroke-linecap:round;stroke-linejoin:round;stroke-miterlimit:4;stroke-dasharray:none;stroke-dashoffset:0;stroke-opacity:1;paint-order:markers fill stroke"
       id="path4512-3"
       cx="-83.240082"
       cy="267.03741"
       rx="9.7328863"
       ry="6.5200891"
       transform="rotate(-39.235796)" />
    <ellipse
       style="opacity:1;fill:none;fill-opacity:1;fill-rule:nonzero;stroke:#000000;stroke-width:0.50000001;stroke-linecap:round;stroke-linejoin:round;stroke-miterlimit:4;stroke-dasharray:none;stroke-dashoffset:0;stroke-opacity:1;paint-order:markers fill stroke"
       id="path4512-3-5"
       cx="-80.089394"
       cy="201.34122"
       rx="9.7328863"
       ry="6.5200891"
       transform="rotate(-39.235795)" />
    <ellipse
       style="opacity:1;fill:none;fill-opacity:1;fill-rule:nonzero;stroke:#000000;stroke-width:0.50000001;stroke-linecap:round;stroke-linejoin:round;stroke-miterlimit:4;stroke-dasharray:none;stroke-dashoffset:0;stroke-opacity:1;paint-order:markers fill stroke"
       id="path4529-6"
       cx="-80.095734"
       cy="201.34372"
       rx="36.504284"
       ry="25.960239"
       transform="matrix(0.77456936,-0.63248898,0.63253769,0.77452958,0,0)" />
    <path
       style="opacity:1;fill:none;fill-opacity:1;fill-rule:nonzero;stroke:#000000;stroke-width:0.50000001;stroke-linecap:round;stroke-linejoin:round;stroke-miterlimit:4;stroke-dasharray:0.50000001,2.00000006;stroke-dashoffset:0;stroke-opacity:1;paint-order:markers fill stroke"
       id="path4611"
       d="m 104.67964,259.83918 c 0.37309,1.3e-4 0.74618,8e-5 1.11926,6e-5 0.29464,-2e-5 0.58929,-3e-5 0.88393,-4e-5 0.26735,0 0.53469,0 0.80204,0 0.26685,0 0.53369,0 0.80054,0 0.26724,0 0.53448,0 0.80173,0 0.26727,0 0.53454,0 0.80182,0 0.26727,0 0.53454,0 0.80181,0 0.26727,0 0.53454,0 0.80181,0 0.26727,0 0.53454,0 0.80181,0 0.26726,0 0.53454,0 0.8018,0 0.26727,0 0.53454,0 0.80181,0 0.26727,0 0.53454,0 0.80181,0 0.17651,-0.0149 0.35854,0.0196 0.53454,0 0.005,-5.3e-4 -0.002,-0.0139 0.003,-0.0152 0.0436,-0.0118 0.0891,-0.0145 0.1336,-0.0218 0.26468,-0.0514 0.53301,-0.0746 0.80191,-0.0877 0.27114,0.008 0.53526,-0.0244 0.80171,-0.0693 0.26496,-0.0461 0.5336,-0.0603 0.80192,-0.0688 0.31072,-0.007 0.62155,-0.005 0.93233,-0.005 0.26727,2.6e-4 0.53453,5.3e-4 0.8018,7.9e-4 0.26727,1.1e-4 0.53454,1.2e-4 0.80181,1.3e-4 0.22378,0 0.44755,-10e-6 0.67133,-10e-6 0.28425,-0.0201 0.55724,0.0595 0.83567,0.0977 0.12329,0.006 0.2487,0.0334 0.37262,0.0276 0.007,-2.6e-4 -0.0239,-0.009 -0.0174,-0.0114 0.0703,-0.0233 0.14575,-0.026 0.21847,-0.0398 0.24138,-0.0476 0.48728,-0.0604 0.73256,-0.0689 0.30912,-0.008 0.61839,-0.006 0.92758,-0.006 0.23888,-0.005 0.47039,0.0659 0.70598,0.0984 0.2539,0.0299 0.50986,0.033 0.76518,0.0359 0.21436,0.011 0.42196,0.005 0.63215,-0.0361 0,0 0.13108,0.0181 0.13108,0.0181 v 0 c -0.2953,0.0597 -0.594,0.0375 -0.89376,0.0384 -0.25548,-0.003 -0.51163,-0.006 -0.76557,-0.0375 -0.23516,-0.0333 -0.46669,-0.10319 -0.70553,-0.0966 -0.22218,7e-5 -0.44439,1e-5 -0.66652,0.006 -0.24504,0.008 -0.49079,0.0199 -0.73205,0.0669 -0.27713,0.0531 -0.55552,0.0689 -0.83575,0.0243 -0.20959,-0.0296 -0.40081,-0.0898 -0.57427,-0.096 -0.31076,0 -0.62152,1e-5 -0.93228,0 -0.26728,0 -0.53454,-10e-6 -0.80181,-1.3e-4 -0.26728,-1.4e-4 -0.53454,-5.2e-4 -0.80181,-7.9e-4 -0.22377,-9e-5 -0.44757,-2.3e-4 -0.6713,0.005 -0.2682,0.008 -0.53676,0.0216 -0.80169,0.0671 -0.2666,0.045 -0.53041,0.0808 -0.80191,0.0709 -0.26879,0.0126 -0.53715,0.0347 -0.80171,0.0862 -0.30869,0.0516 -0.62065,0.0387 -0.93244,0.0391 -0.26727,0 -0.53453,0 -0.80181,0 -0.26726,0 -0.53453,0 -0.8018,0 -0.26727,0 -0.53454,0 -0.80181,0 -0.26727,0 -0.53454,0 -0.80181,0 -0.26727,0 -0.53454,0 -0.80181,0 -0.26727,0 -0.53454,0 -0.80181,0 -0.26727,0 -0.53455,0 -0.80182,0 -0.26724,0 -0.53449,0 -0.80173,0 -0.26685,0 -0.53369,0 -0.80054,0 -0.26734,0 -0.53467,0 -0.80201,0 -0.2945,-10e-6 -0.589,-2e-5 -0.8835,-4e-5 -0.37332,-2e-5 -0.74664,-7e-5 -1.11996,6e-5 0,0 0.13073,-0.0207 0.13073,-0.0207 z"
       inkscape:connector-curvature="0" />
    <path
       style="opacity:1;fill:none;fill-opacity:1;fill-rule:nonzero;stroke:#000000;stroke-width:0.50000001;stroke-linecap:round;stroke-linejoin:round;stroke-miterlimit:4;stroke-dasharray:0.50000001,2.00000006;stroke-dashoffset:0;stroke-opacity:1;paint-order:markers fill stroke"
       id="path4613"
       d="m 104.78361,259.49715 c 0.29089,-0.30135 0.59634,-0.58723 0.89886,-0.87644 0.20849,-0.19873 0.4148,-0.40069 0.63028,-0.59189 0.16908,-0.16747 0.35326,-0.31575 0.53621,-0.46739 0.17341,-0.12696 0.32786,-0.27647 0.49305,-0.41362 0.19256,-0.16601 0.36599,-0.35287 0.5466,-0.53158 0.14622,-0.16242 0.30302,-0.31402 0.44555,-0.47985 0.1866,-0.21237 0.37554,-0.42233 0.55356,-0.64196 0.17416,-0.19352 0.33632,-0.39634 0.50138,-0.59755 0.12839,-0.16879 0.26493,-0.33319 0.41627,-0.48205 0.16739,-0.18126 0.31942,-0.37555 0.48099,-0.56161 0.16241,-0.17934 0.30341,-0.37491 0.45186,-0.56533 0.13666,-0.20276 0.3017,-0.38406 0.46154,-0.56872 0.15017,-0.19219 0.29983,-0.38648 0.46973,-0.56184 0.13181,-0.14344 0.26483,-0.28707 0.40759,-0.41985 0.1331,-0.13335 0.26194,-0.27151 0.40025,-0.39959 0.15824,-0.156 0.32168,-0.30609 0.48141,-0.46087 0.17132,-0.19593 0.37836,-0.35491 0.55492,-0.54571 0.16383,-0.17475 0.33364,-0.34435 0.49347,-0.52279 0.14972,-0.15504 0.30027,-0.30942 0.44479,-0.4696 0.15686,-0.18466 0.28666,-0.38893 0.42951,-0.58376 0.14058,-0.21263 0.29531,-0.41489 0.4446,-0.62123 0.10689,-0.19119 0.23771,-0.36635 0.36747,-0.54228 0.13382,-0.18927 0.25632,-0.38726 0.39178,-0.57533 0.13334,-0.1994 0.26452,-0.39953 0.40086,-0.59697 0.13384,-0.21423 0.2479,-0.44017 0.40102,-0.64167 0.11081,-0.17275 0.22524,-0.34171 0.346,-0.50778 0.14264,-0.15391 0.26482,-0.32499 0.38603,-0.49582 0.11509,-0.15202 0.27583,-0.25418 0.40126,-0.39607 0,0 0.13201,0.01 0.13201,0.01 v 0 c -0.12416,0.14306 -0.2845,0.24419 -0.40115,0.39471 -0.12063,0.17116 -0.24268,0.34268 -0.38588,0.49598 -0.12033,0.16653 -0.23669,0.3343 -0.34623,0.50812 -0.15454,0.20026 -0.26768,0.42672 -0.40107,0.64101 -0.1365,0.19747 -0.26785,0.39749 -0.40083,0.59726 -0.13641,0.18733 -0.25767,0.38641 -0.3917,0.57546 -0.12979,0.17591 -0.26136,0.35056 -0.36762,0.54214 -0.14895,0.20662 -0.3046,0.40823 -0.44456,0.62135 -0.14397,0.19439 -0.27255,0.40012 -0.42959,0.58506 -0.14418,0.16047 -0.29457,0.31492 -0.44461,0.46954 -0.15903,0.17931 -0.33036,0.34782 -0.49395,0.52298 -0.17583,0.19181 -0.38348,0.35031 -0.55474,0.5465 -0.16022,0.1542 -0.32257,0.30566 -0.4811,0.46122 -0.13931,0.12696 -0.26716,0.26629 -0.40025,0.39956 -0.14371,0.1315 -0.27567,0.2762 -0.40767,0.41915 -0.17109,0.17394 -0.31999,0.36903 -0.47,0.56103 -0.15973,0.1845 -0.32493,0.36541 -0.46129,0.56809 -0.14944,0.18984 -0.28878,0.38716 -0.45212,0.56601 -0.16237,0.18559 -0.31365,0.3808 -0.48063,0.5627 -0.15234,0.1473 -0.28794,0.31247 -0.41646,0.48059 -0.16586,0.20047 -0.32621,0.40495 -0.50152,0.59743 -0.17758,0.22003 -0.36704,0.42962 -0.55328,0.64236 -0.14241,0.1665 -0.29952,0.31806 -0.44582,0.48094 -0.18147,0.17818 -0.35409,0.36616 -0.54651,0.53272 -0.1653,0.13716 -0.31959,0.28677 -0.49316,0.41359 -0.18214,0.15233 -0.36824,0.29839 -0.5361,0.46702 -0.21657,0.18999 -0.42193,0.39328 -0.63114,0.59128 -0.30221,0.28914 -0.60863,0.57364 -0.89793,0.87622 0,0 -0.13194,-0.0104 -0.13194,-0.0104 z"
       inkscape:connector-curvature="0" />
    <path
       style="opacity:1;fill:none;fill-opacity:1;fill-rule:nonzero;stroke:#000000;stroke-width:0.50000001;stroke-linecap:round;stroke-linejoin:round;stroke-miterlimit:4;stroke-dasharray:0.50000001,2.00000006;stroke-dashoffset:0;stroke-opacity:1;paint-order:markers fill stroke"
       id="path4615"
       d="m 116.8249,249.75074 c 0.29956,0.17479 0.5794,0.38007 0.85943,0.5841 0.22243,0.15712 0.43175,0.33008 0.64426,0.49981 0.18784,0.17366 0.34273,0.37762 0.51073,0.56919 0.17629,0.21815 0.34707,0.43954 0.49239,0.67972 0.17039,0.25023 0.3149,0.51369 0.4408,0.78875 0.13463,0.24179 0.2073,0.50843 0.30583,0.76522 0.0695,0.23575 0.12503,0.47619 0.18,0.71608 0.056,0.26524 0.13218,0.52409 0.173,0.79271 0.0699,0.26424 0.12164,0.53109 0.14986,0.80287 0.0227,0.26691 0.0235,0.53499 0.0246,0.80266 2.7e-4,0.26729 -5.3e-4,0.53457 -7.9e-4,0.80185 -0.006,0.23821 0.0639,0.46924 0.0965,0.70404 -0.004,0.13037 0.003,0.0713 -0.016,0.17761 0,0 -0.13279,-0.002 -0.13279,-0.002 v 0 c 0.0195,-0.1035 0.0123,-0.0459 0.0166,-0.17338 -0.0328,-0.23534 -0.10275,-0.46701 -0.0963,-0.70588 2.7e-4,-0.26726 10e-4,-0.53452 8e-4,-0.80178 -0.001,-0.26723 -0.002,-0.53488 -0.0246,-0.80135 -0.0283,-0.27158 -0.0804,-0.5381 -0.14985,-0.80224 -0.0409,-0.26826 -0.1172,-0.52678 -0.17303,-0.79172 -0.055,-0.23927 -0.11016,-0.47921 -0.18007,-0.71423 -0.0983,-0.25655 -0.17082,-0.52293 -0.30548,-0.76439 -0.12609,-0.27447 -0.27078,-0.53728 -0.44074,-0.78722 -0.14562,-0.23922 -0.31609,-0.4601 -0.49236,-0.67744 -0.16696,-0.19175 -0.32254,-0.39449 -0.5108,-0.56685 -0.21161,-0.17048 -0.422,-0.34164 -0.64372,-0.49923 -0.28016,-0.20386 -0.55998,-0.40915 -0.85984,-0.58351 0,0 0.13167,-0.013 0.13167,-0.013 z"
       inkscape:connector-curvature="0" />
    <path
       style="opacity:1;fill:none;fill-opacity:1;fill-rule:nonzero;stroke:#000000;stroke-width:0.5;stroke-linecap:round;stroke-linejoin:round;stroke-miterlimit:4;stroke-dasharray:none;stroke-dashoffset:0;stroke-opacity:1;paint-order:markers fill stroke"
       id="path4629"
       d="m 117.03907,250.33168 c 0.13998,0.344 0.29879,0.6801 0.44246,1.02283 0.0408,0.11479 0.21107,0.31389 -0.0818,0.17673 -0.0225,-0.0106 -0.0229,-0.0443 -0.036,-0.0655 -0.0144,-0.0233 -0.0309,-0.0452 -0.0463,-0.0677 -0.0918,-0.18357 -0.19781,-0.35984 -0.29331,-0.54178 -0.12727,-0.19803 -0.25536,-0.39482 -0.38461,-0.5914 -0.0807,-0.12011 -0.25151,-0.3275 -0.0716,-0.42901 0.25083,-0.0448 0.53345,0.0102 0.77685,0.0832 0.22615,0.0864 0.46348,0.12304 0.70323,0.14399 0.22052,0.0259 0.35397,-0.009 0.57688,-0.0775 0,0 0.13121,0.0167 0.13121,0.0167 v 0 c -0.27154,0.0874 -0.55469,0.11106 -0.83884,0.0803 -0.24002,-0.022 -0.47705,-0.0608 -0.70366,-0.14655 -0.17271,-0.0495 -0.43922,-0.10756 -0.51355,-0.0855 -0.18489,0.0809 7.9e-4,0.29802 0.0716,0.40663 0.12978,0.19668 0.25773,0.39404 0.38467,0.59269 0.0958,0.18128 0.20066,0.35782 0.29362,0.54028 0.0573,0.0849 0.14422,0.13763 -0.0121,0.17809 -0.0272,0.007 -0.0414,-0.23603 -0.0878,-0.20846 -0.14369,-0.34277 -0.3017,-0.67919 -0.44302,-1.0227 0,0 0.13214,-0.005 0.13214,-0.005 z"
       inkscape:connector-curvature="0" />
    <path
       style="opacity:1;fill:none;fill-opacity:1;fill-rule:nonzero;stroke:#000000;stroke-width:0.50000001;stroke-linecap:round;stroke-linejoin:round;stroke-miterlimit:4;stroke-dasharray:0.50000001,2.00000006;stroke-dashoffset:0;stroke-opacity:1;paint-order:markers fill stroke"
       id="path4663"
       d="m 65.477384,207.55673 c 0.210084,0.31776 0.431144,0.62814 0.676526,0.91981 0.187055,0.2496 0.391306,0.48473 0.603007,0.71349 0.209992,0.23601 0.431506,0.46128 0.633904,0.70404 0.216911,0.24186 0.417505,0.49607 0.618707,0.75089 0.16687,0.23846 0.352603,0.46331 0.517565,0.70318 0.167248,0.25148 0.323623,0.51022 0.484116,0.76621 0.204002,0.27701 0.393147,0.56338 0.564415,0.86186 0.187282,0.30666 0.388538,0.6037 0.578622,0.90885 0.208016,0.32042 0.405395,0.64794 0.603533,0.97464 0.188138,0.35616 0.423635,0.68301 0.658675,1.00898 0.2715,0.35592 0.533609,0.71897 0.786045,1.08865 0.282298,0.41022 0.604155,0.79087 0.89979,1.1914 0.330274,0.41243 0.632293,0.84713 0.964023,1.25814 0.340336,0.41659 0.641564,0.86262 0.967991,1.28982 0.327224,0.45438 0.665006,0.90078 1.000366,1.34929 0.368604,0.46452 0.714616,0.94549 1.060738,1.42669 0.366525,0.48241 0.717659,0.97567 1.069618,1.46865 0.35746,0.5123 0.755915,0.99513 1.146035,1.48279 0.390004,0.49813 0.800126,0.98028 1.199822,1.47078 0.410054,0.50616 0.790609,1.03436 1.164976,1.56714 0.361622,0.52996 0.775271,1.02008 1.173072,1.52248 0.410076,0.50464 0.796052,1.02807 1.200915,1.53682 0.411377,0.48575 0.80051,0.98955 1.203087,1.48248 0.401,0.46669 0.77407,0.95702 1.144847,1.4479 0.358698,0.48003 0.722638,0.95631 1.075089,1.44103 0.331698,0.45251 0.680559,0.89175 0.995307,1.35648 0.318386,0.42515 0.644387,0.84442 0.951603,1.2778 0.280001,0.42347 0.560983,0.84644 0.826122,1.27942 0.268912,0.44055 0.595969,0.84142 0.897826,1.25922 0.285594,0.3801 0.562909,0.76601 0.838063,1.15369 0.265507,0.36621 0.533987,0.73013 0.802634,1.09404 0.259213,0.34581 0.546733,0.6712 0.785398,1.03176 0.209301,0.35019 0.455938,0.67521 0.69915,1.00202 0.251807,0.30236 0.480246,0.6216 0.70547,0.94387 0.236071,0.30275 0.45344,0.61855 0.670554,0.93497 0.183989,0.30167 0.387144,0.59089 0.562552,0.89776 0.159208,0.31232 0.333396,0.61577 0.507357,0.91987 0.168013,0.28614 0.33655,0.57103 0.492559,0.86389 0.165785,0.30192 0.344358,0.5959 0.526862,0.88795 0.193289,0.30902 0.374642,0.62481 0.588986,0.91998 0.207349,0.29628 0.402376,0.60037 0.594241,0.90675 0.200065,0.29061 0.413904,0.57212 0.628621,0.85222 0.225907,0.26445 0.446291,0.53248 0.664007,0.80375 0.22749,0.28059 0.47755,0.54153 0.72892,0.80053 0.20052,0.25556 0.43725,0.47715 0.65024,0.72157 0.21097,0.19396 0.39774,0.4102 0.61044,0.6022 0.19984,0.18251 0.37798,0.38626 0.57126,0.57505 0.17647,0.19393 0.3605,0.37963 0.53705,0.57371 0.22106,0.22918 0.42355,0.47594 0.60751,0.73575 0.12144,0.13204 0.2062,0.28936 0.30639,0.43643 0,0 -0.13205,0.008 -0.13205,0.008 v 0 c -0.0995,-0.14737 -0.18557,-0.30354 -0.30589,-0.43618 -0.18433,-0.2591 -0.38662,-0.50541 -0.60764,-0.73414 -0.17652,-0.19377 -0.36047,-0.37943 -0.53705,-0.57297 -0.19229,-0.18964 -0.37173,-0.39171 -0.57111,-0.57451 -0.21255,-0.19258 -0.40005,-0.40884 -0.61048,-0.60376 -0.21306,-0.24393 -0.44897,-0.46603 -0.64979,-0.72091 -0.25153,-0.25934 -0.50169,-0.5207 -0.72917,-0.80175 -0.217674,-0.27141 -0.438712,-0.53902 -0.664029,-0.80406 -0.214683,-0.28052 -0.429053,-0.56207 -0.628576,-0.85346 -0.191608,-0.30624 -0.386993,-0.6098 -0.594204,-0.90586 -0.21401,-0.29573 -0.395382,-0.61186 -0.589219,-0.92087 -0.182398,-0.2924 -0.361079,-0.58661 -0.526769,-0.88887 -0.156044,-0.29269 -0.325139,-0.5772 -0.492639,-0.86348 -0.174098,-0.30404 -0.347413,-0.60797 -0.507439,-0.91987 -0.17558,-0.3063 -0.377999,-0.59556 -0.562088,-0.89671 -0.21708,-0.31639 -0.435073,-0.63171 -0.670534,-0.93486 -0.225163,-0.32214 -0.454223,-0.64076 -0.705324,-0.94348 -0.243255,-0.32703 -0.489767,-0.65235 -0.699145,-1.00273 -0.239477,-0.35978 -0.526301,-0.68532 -0.78522,-1.03111 -0.268571,-0.36403 -0.537265,-0.72787 -0.80255,-1.09429 -0.274987,-0.38771 -0.55272,-0.77322 -0.837803,-1.15359 -0.302257,-0.41786 -0.629084,-0.81927 -0.897872,-1.26022 -0.265326,-0.43256 -0.545846,-0.85555 -0.826092,-1.27854 -0.307499,-0.43322 -0.633394,-0.85261 -0.951384,-1.27809 -0.315021,-0.46433 -0.663712,-0.90351 -0.995063,-1.35606 -0.352653,-0.48449 -0.716079,-0.96107 -1.075066,-1.4408 -0.370784,-0.49067 -0.743643,-0.98091 -1.144616,-1.44743 -0.40227,-0.49322 -0.79197,-0.9966 -1.203042,-1.48265 -0.404477,-0.50906 -0.790853,-1.0322 -1.200939,-1.53684 -0.398092,-0.5024 -0.811257,-0.99314 -1.173014,-1.52323 -0.374346,-0.53248 -0.754824,-1.06043 -1.16495,-1.56621 -0.399769,-0.49048 -0.810006,-0.97258 -1.199845,-1.4709 -0.390264,-0.48783 -0.788845,-0.97081 -1.146175,-1.4835 -0.351941,-0.49297 -0.703602,-0.98584 -1.069637,-1.4686 -0.346128,-0.48116 -0.692732,-0.96163 -1.06091,-1.42643 -0.33541,-0.44848 -0.673235,-0.89486 -1.000601,-1.34915 -0.326091,-0.42736 -0.627658,-0.87306 -0.968106,-1.28947 -0.331247,-0.41162 -0.634021,-0.84591 -0.964149,-1.25868 -0.296053,-0.40042 -0.617807,-0.78138 -0.900004,-1.19187 -0.252757,-0.36941 -0.514937,-0.73233 -0.786321,-1.0883 -0.235122,-0.32637 -0.470421,-0.65368 -0.659008,-1.01 -0.198242,-0.32659 -0.395385,-0.65418 -0.603507,-0.97449 -0.190137,-0.30528 -0.392141,-0.60206 -0.578741,-0.90931 -0.171577,-0.2982 -0.36135,-0.58398 -0.564663,-0.86135 -0.160301,-0.25592 -0.316778,-0.51445 -0.484235,-0.76561 -0.165405,-0.2392 -0.350214,-0.46435 -0.517234,-0.70236 -0.201092,-0.25483 -0.402294,-0.50848 -0.618906,-0.75051 -0.202507,-0.2423 -0.423717,-0.46765 -0.633605,-0.70339 -0.211712,-0.229 -0.415769,-0.4645 -0.60307,-0.71413 -0.24461,-0.29298 -0.465987,-0.60359 -0.67722,-0.92122 0,0 0.132088,-0.008 0.132088,-0.008 z"
       inkscape:connector-curvature="0" />
    <path
       style="opacity:1;fill:none;fill-opacity:1;fill-rule:nonzero;stroke:#000000;stroke-width:0.50000001;stroke-linecap:round;stroke-linejoin:round;stroke-miterlimit:4;stroke-dasharray:0.50000001,2.00000006;stroke-dashoffset:0;stroke-opacity:1;paint-order:markers fill stroke"
       id="path4683"
       d="m 51.194371,190.8351 c 0.257302,0.28469 0.486818,0.59222 0.744096,0.87669 0.20806,0.26215 0.423214,0.51785 0.648996,0.76489 0.213903,0.24896 0.441254,0.48383 0.676506,0.71274 0.231272,0.25049 0.501986,0.45774 0.749863,0.68984 0.209791,0.20161 0.421148,0.402 0.638474,0.5957 0.199358,0.19951 0.414864,0.38505 0.604917,0.59386 0.210645,0.21426 0.440796,0.40809 0.641922,0.6315 0.196368,0.19481 0.387437,0.3942 0.565144,0.60624 0.184865,0.20422 0.344223,0.42967 0.530299,0.63258 0.174998,0.19803 0.324626,0.41502 0.482296,0.62648 0.162692,0.23139 0.2951,0.48259 0.47013,0.7051 0.14237,0.18258 0.29196,0.36073 0.445228,0.53475 0.156472,0.19478 0.311137,0.39315 0.487315,0.57074 0.01746,0.021 0.03495,0.0419 0.05243,0.0628 0,0 -0.132384,0.009 -0.132384,0.009 v 0 c -0.01736,-0.0206 -0.03469,-0.0412 -0.05204,-0.0618 -0.175004,-0.17897 -0.330428,-0.37654 -0.487024,-0.5715 -0.153374,-0.17423 -0.303374,-0.35234 -0.445487,-0.53551 -0.173524,-0.22366 -0.306906,-0.47414 -0.46981,-0.70542 -0.157387,-0.21128 -0.307464,-0.4276 -0.482523,-0.62516 -0.184973,-0.20406 -0.345588,-0.4286 -0.530276,-0.63313 -0.177863,-0.2116 -0.369165,-0.41053 -0.564747,-0.60577 -0.201912,-0.2227 -0.432171,-0.41642 -0.642102,-0.63141 -0.190727,-0.20773 -0.405005,-0.39398 -0.604882,-0.59252 -0.217146,-0.19391 -0.428408,-0.39444 -0.638247,-0.59602 -0.248642,-0.23139 -0.517903,-0.44028 -0.749847,-0.69012 -0.235342,-0.22905 -0.462055,-0.46475 -0.676421,-0.71352 -0.225647,-0.24718 -0.440473,-0.50316 -0.648954,-0.76497 -0.256691,-0.28493 -0.485725,-0.59288 -0.744802,-0.87597 0,0 0.131934,-0.0104 0.131934,-0.0104 z"
       inkscape:connector-curvature="0" />
    <path
       style="opacity:1;fill:none;fill-opacity:1;fill-rule:nonzero;stroke:#000000;stroke-width:0.5;stroke-linecap:round;stroke-linejoin:round;stroke-miterlimit:4;stroke-dasharray:none;stroke-dashoffset:0;stroke-opacity:1;paint-order:markers fill stroke"
       id="path4693"
       d="m 49.966479,189.41177 c 0.05205,0.37571 0.143812,0.74407 0.199099,1.11959 0.04057,0.29313 0.04864,0.58913 0.05271,0.88458 0.0011,0.12351 0.0011,0.24703 0.0013,0.37055 1.6e-5,0.0231 0.02201,0.0765 -2.4e-5,0.0694 -0.05118,-0.0164 -0.09972,-0.0401 -0.149579,-0.0601 -0.05965,-0.19961 -0.08975,-0.40507 -0.141055,-0.60699 -0.05728,-0.25983 -0.108122,-0.52347 -0.199311,-0.77397 -0.07109,-0.21512 -0.151828,-0.42627 -0.223586,-0.64117 -0.07806,-0.22284 -0.0076,-0.35822 0.206227,-0.43592 0.262001,-0.0313 0.516086,0.0268 0.765532,0.0975 0.245912,0.0675 0.498631,0.0871 0.744665,0.15317 0.206115,0.022 0.362714,-0.002 0.585361,-0.0134 0.153117,0.007 0.298268,-0.0434 0.448958,-0.0584 0,0 0.131101,0.0196 0.131101,0.0196 v 0 c -0.15146,0.0122 -0.295751,0.0661 -0.44941,0.0589 -0.281697,0.0137 -0.566113,0.0434 -0.847191,0.0107 -0.246033,-0.0652 -0.499303,-0.084 -0.744572,-0.15338 -0.190587,-0.0536 -0.40005,-0.10511 -0.502941,-0.0982 -0.211799,0.0706 -0.283429,0.19492 -0.205399,0.41531 0.07213,0.21464 0.151953,0.42599 0.223375,0.64086 0.09017,0.25133 0.142113,0.51495 0.199332,0.77527 0.05137,0.20188 0.08159,0.40738 0.141774,0.60682 -0.03892,0.0211 -0.07627,0.0454 -0.116776,0.0632 -0.02109,0.009 0.0011,-0.0461 0.0011,-0.0691 5.29e-4,-0.12345 1.96e-4,-0.2469 -7.94e-4,-0.37035 -0.004,-0.29486 -0.01193,-0.59027 -0.05224,-0.88284 -0.05511,-0.37561 -0.146323,-0.74406 -0.199816,-1.11963 0,0 0.132328,-0.002 0.132328,-0.002 z"
       inkscape:connector-curvature="0" />
    <path
       style="opacity:1;fill:none;fill-opacity:1;fill-rule:nonzero;stroke:#000000;stroke-width:0.50000001;stroke-linecap:round;stroke-linejoin:round;stroke-miterlimit:4;stroke-dasharray:0.50000001,2.00000006;stroke-dashoffset:0;stroke-opacity:1;paint-order:markers fill stroke"
       id="path4695"
       d="m 76.052137,198.29243 c 0.248443,-0.22704 0.503047,-0.44843 0.741203,-0.6864 0.158412,-0.15158 0.320821,-0.30013 0.470379,-0.4606 0.162235,-0.1367 0.302157,-0.29614 0.45488,-0.44269 0.184232,-0.17074 0.382497,-0.3251 0.582342,-0.47705 0.199428,-0.14457 0.410144,-0.27359 0.610418,-0.41669 0.1803,-0.13551 0.366713,-0.26399 0.546349,-0.40052 0.222316,-0.15173 0.429755,-0.32277 0.647157,-0.48128 0.2563,-0.1926 0.497401,-0.40401 0.748194,-0.60346 0.175763,-0.16682 0.371676,-0.30994 0.568712,-0.45015 0.168261,-0.1459 0.350999,-0.27356 0.533363,-0.40088 0.1695,-0.15025 0.362844,-0.26742 0.533923,-0.4154 0.209183,-0.17937 0.375545,-0.39979 0.563394,-0.59967 0.176511,-0.19221 0.367474,-0.36917 0.558755,-0.54666 0.195625,-0.16502 0.397806,-0.32376 0.580951,-0.50282 0.147036,-0.15353 0.316536,-0.2785 0.481991,-0.41044 0.170606,-0.14073 0.352914,-0.26603 0.528635,-0.40001 0.174254,-0.13883 0.357886,-0.26562 0.534985,-0.4007 0.179009,-0.11199 0.356206,-0.22454 0.528878,-0.3464 0.183745,-0.11916 0.356568,-0.2519 0.529688,-0.38567 0.148336,-0.1264 0.281562,-0.26853 0.424802,-0.40027 0.194114,-0.14031 0.364588,-0.30863 0.548132,-0.46193 0.167177,-0.15967 0.313451,-0.34195 0.457126,-0.52306 0.125864,-0.14617 0.265572,-0.27915 0.395369,-0.42157 0.128638,-0.14333 0.27853,-0.25719 0.43828,-0.36347 0.117414,-0.0779 0.239252,-0.14172 0.341145,-0.24016 0,0 0.132231,0.0105 0.132231,0.0105 v 0 c -0.101287,0.10064 -0.222901,0.16481 -0.341489,0.24269 -0.159978,0.10474 -0.309222,0.21799 -0.437971,0.36014 -0.128714,0.14313 -0.26943,0.27488 -0.395406,0.42068 -0.143417,0.18231 -0.291584,0.36405 -0.457705,0.52578 -0.184055,0.15231 -0.352542,0.32268 -0.547622,0.46137 -0.144431,0.13087 -0.276677,0.27449 -0.425003,0.40136 -0.173778,0.13307 -0.345194,0.26789 -0.52968,0.38625 -0.173082,0.12115 -0.348379,0.23637 -0.529002,0.34583 -0.176186,0.13614 -0.361397,0.26113 -0.534985,0.4007 -0.17476,0.13499 -0.358595,0.25843 -0.528574,0.39973 -0.164372,0.13264 -0.335579,0.25522 -0.481849,0.40911 -0.182176,0.18028 -0.385569,0.33822 -0.581429,0.50316 -0.19094,0.17747 -0.382167,0.35378 -0.558406,0.54582 -0.189114,0.19917 -0.354412,0.42092 -0.563483,0.60096 -0.170688,0.14918 -0.364718,0.2656 -0.533937,0.41684 -0.182867,0.12648 -0.365498,0.25454 -0.533374,0.40077 -0.19758,0.13919 -0.393361,0.28266 -0.568973,0.44941 -0.251603,0.19868 -0.492162,0.41094 -0.74835,0.60398 -0.217271,0.15844 -0.424405,0.32953 -0.646703,0.48101 -0.178776,0.13768 -0.366826,0.26447 -0.546449,0.40091 -0.199279,0.14426 -0.411245,0.27172 -0.610481,0.41633 -0.199546,0.15174 -0.397851,0.30524 -0.581956,0.4756 -0.153477,0.14545 -0.291323,0.30669 -0.454719,0.44187 -0.148632,0.16161 -0.312475,0.30925 -0.470932,0.46105 -0.237487,0.23852 -0.493032,0.45889 -0.74087,0.68644 0,0 -0.131934,-0.0104 -0.131934,-0.0104 z"
       inkscape:connector-curvature="0" />
    <path
       style="opacity:1;fill:none;fill-opacity:1;fill-rule:nonzero;stroke:#000000;stroke-width:0.5;stroke-linecap:round;stroke-linejoin:round;stroke-miterlimit:4;stroke-dasharray:none;stroke-dashoffset:0;stroke-opacity:1;paint-order:markers fill stroke"
       id="path4699"
       d="m 88.560655,185.99684 c 0.35242,-0.0261 0.69351,-0.11678 1.039321,-0.18278 0.265279,-0.0544 0.516551,-0.14875 0.771488,-0.23632 0.207549,-0.0876 0.502213,-0.22916 0.667636,-0.006 0.08983,0.21558 0.08166,0.4566 0.08482,0.68621 7.94e-4,0.26901 -0.0019,0.53802 -0.003,0.80703 0.01318,0.14058 -0.0173,0.27086 -0.05524,0.40439 0,0 -0.131987,-0.004 -0.131987,-0.004 v 0 c 0.03809,-0.13234 0.06834,-0.26127 0.05513,-0.40077 0.0013,-0.26893 0.0039,-0.53786 0.003,-0.80679 -0.0032,-0.22659 0.0059,-0.46572 -0.08513,-0.67769 -0.01614,-0.0201 -0.02847,-0.044 -0.0484,-0.0604 -0.01905,-0.0157 -0.05481,-0.0116 -0.06593,-0.0337 -0.0069,-0.0136 0.06004,-0.0111 0.04524,-0.007 -0.115271,0.0294 -0.227661,0.0603 -0.334841,0.11501 -0.255667,0.0867 -0.506447,0.18342 -0.772173,0.23812 -0.345877,0.0652 -0.686544,0.15756 -1.038911,0.18344 0,0 -0.130995,-0.0188 -0.130995,-0.0188 z"
       inkscape:connector-curvature="0" />
    <path
       style="opacity:1;fill:none;fill-opacity:1;fill-rule:nonzero;stroke:#000000;stroke-width:0.5;stroke-linecap:round;stroke-linejoin:round;stroke-miterlimit:4;stroke-dasharray:none;stroke-dashoffset:0;stroke-opacity:1;paint-order:markers fill stroke"
       id="path4701"
       d="m 65.563183,207.7093 c 0.08921,0.36989 0.164282,0.74215 0.211677,1.11973 0.0608,0.2457 0.112824,0.49192 0.15058,0.74217 -0.0405,0.3024 -0.289933,0.006 -0.367898,-0.13107 -0.108032,-0.2409 -0.187862,-0.49217 -0.273031,-0.74167 -0.09679,-0.24217 -0.205788,-0.48144 -0.335796,-0.70769 -0.07124,-0.14079 -0.206928,-0.34682 -0.111234,-0.50374 0.209807,-0.10086 0.470069,-5.3e-4 0.687732,0.0383 0.262776,0.0438 0.529328,0.0535 0.795123,0.06 0.198892,0.0225 0.293153,-0.0179 0.480054,-0.0556 0,0 0.131091,0.0181 0.131091,0.0181 v 0 c -0.244991,0.0495 -0.491091,0.0757 -0.741664,0.0578 -0.265983,-0.007 -0.532707,-0.0172 -0.795531,-0.062 -0.212706,-0.0386 -0.29551,-0.10113 -0.423939,-0.0489 -0.103616,0.14233 0.04751,0.35921 0.110532,0.48909 0.129051,0.2277 0.239506,0.46683 0.33559,0.7102 0.08505,0.24873 0.164341,0.49945 0.273272,0.73914 0.0182,0.0315 0.03433,0.0642 0.05465,0.0944 0.01871,0.0277 0.06404,0.0455 0.06214,0.0789 -0.0016,0.0301 -0.05371,0.0321 -0.06991,0.0575 -0.01011,0.0159 0.04515,-0.009 0.0497,-0.0268 0.0052,-0.0208 0.0044,-0.0427 0.0066,-0.064 -0.03684,-0.25047 -0.09035,-0.49641 -0.149646,-0.74249 -0.04719,-0.37758 -0.122021,-0.74988 -0.212384,-1.11949 0,0 0.132329,-0.002 0.132329,-0.002 z"
       inkscape:connector-curvature="0" />
  </g>
</svg>
