<?xml version="1.0" encoding="UTF-8" standalone="no"?>
<!-- Created with Inkscape (http://www.inkscape.org/) -->

<svg
   xmlns:dc="http://purl.org/dc/elements/1.1/"
   xmlns:cc="http://creativecommons.org/ns#"
   xmlns:rdf="http://www.w3.org/1999/02/22-rdf-syntax-ns#"
   xmlns:svg="http://www.w3.org/2000/svg"
   xmlns="http://www.w3.org/2000/svg"
   xmlns:sodipodi="http://sodipodi.sourceforge.net/DTD/sodipodi-0.dtd"
   xmlns:inkscape="http://www.inkscape.org/namespaces/inkscape"
   width="297mm"
   height="210mm"
   viewBox="0 0 297 210"
   version="1.1"
   id="svg8"
   inkscape:version="0.92.1 r15371"
   sodipodi:docname="from-hyperbola-to-hyperbola.svg">
  <defs
     id="defs2" />
  <sodipodi:namedview
     id="base"
     pagecolor="#ffffff"
     bordercolor="#666666"
     borderopacity="1.0"
     inkscape:pageopacity="0.0"
     inkscape:pageshadow="2"
     inkscape:zoom="0.98994949"
     inkscape:cx="512.02263"
     inkscape:cy="424.77594"
     inkscape:document-units="mm"
     inkscape:current-layer="layer1"
     showgrid="false"
     inkscape:window-width="1920"
     inkscape:window-height="1046"
     inkscape:window-x="-11"
     inkscape:window-y="-11"
     inkscape:window-maximized="1" />
  <metadata
     id="metadata5">
    <rdf:RDF>
      <cc:Work
         rdf:about="">
        <dc:format>image/svg+xml</dc:format>
        <dc:type
           rdf:resource="http://purl.org/dc/dcmitype/StillImage" />
        <dc:title></dc:title>
      </cc:Work>
    </rdf:RDF>
  </metadata>
  <g
     inkscape:label="Layer 1"
     inkscape:groupmode="layer"
     id="layer1"
     transform="translate(0,-87)">
    <path
       style="opacity:1;fill:none;fill-opacity:1;fill-rule:nonzero;stroke:#000000;stroke-width:1;stroke-linecap:round;stroke-linejoin:round;stroke-miterlimit:4;stroke-dasharray:none;stroke-dashoffset:0;stroke-opacity:1;paint-order:markers fill stroke"
       id="path4731"
       d="m 115.3095,174.257 c -0.33873,0.23593 -0.60434,0.53043 -0.8817,0.81571 -0.24281,0.21697 -0.45732,0.45008 -0.66602,0.69089 -0.20655,0.22752 -0.44028,0.43224 -0.63861,0.66517 -0.19297,0.23608 -0.4205,0.44828 -0.65606,0.65334 -0.23062,0.20628 -0.49609,0.38289 -0.71209,0.60051 -0.2003,0.23162 -0.41653,0.45162 -0.64743,0.66126 -0.22599,0.21033 -0.49074,0.38802 -0.70632,0.60603 -0.19989,0.23191 -0.41625,0.45185 -0.6472,0.66149 -0.26081,0.22918 -0.53572,0.44631 -0.80932,0.66424 -0.28515,0.22614 -0.57073,0.45191 -0.85609,0.67786 -0.27444,0.21743 -0.54904,0.43472 -0.8234,0.65222 -0.25105,0.25528 -0.49399,0.5151 -0.75862,0.76053 -0.26644,0.25319 -0.57795,0.46846 -0.83953,0.7249 -0.26941,0.27816 -0.54658,0.54927 -0.79983,0.83834 -0.28363,0.30015 -0.56544,0.6007 -0.84291,0.90523 -0.2843,0.3376 -0.55174,0.68497 -0.83584,1.02265 -0.29794,0.37901 -0.61924,0.74339 -0.90467,1.12959 -0.29657,0.39981 -0.58656,0.80299 -0.89459,1.19668 -0.31078,0.40711 -0.58866,0.82982 -0.84311,1.26429 -0.27941,0.43249 -0.52272,0.88043 -0.795295,1.31608 -0.27836,0.45527 -0.54866,0.91396 -0.79481,1.38262 -0.29996,0.48706 -0.53239,1.00053 -0.78708,1.50509 -0.27346,0.50233 -0.49722,1.02114 -0.71082,1.5436 -0.20244,0.52746 -0.37796,1.06185 -0.56549,1.59317 -0.1808,0.55406 -0.31576,1.1192 -0.44398,1.68372 -0.13204,0.59149 -0.23674,1.18571 -0.30692,1.78481 -0.0966,0.59869 -0.10799,1.20435 -0.12936,1.80755 -0.0276,0.62655 -0.0132,1.25214 0.0319,1.87768 0.0607,0.63823 0.13997,1.27421 0.22706,1.9101 0.10524,0.66032 0.24237,1.31726 0.38677,1.9722 0.14566,0.6396 0.34617,1.26858 0.55158,1.89569 0.2141,0.64323 0.47028,1.2756 0.70831,1.91259 0.22945,0.61827 0.44559,1.24006 0.66081,1.86202 0.24006,0.58635 0.48705,1.1703 0.77869,1.73948 0.30158,0.58294 0.6234,1.15823 0.941295,1.73485 0.30885,0.50318 0.5567,1.03072 0.85193,1.53959 0.28295,0.5225 0.62362,1.01819 0.96416,1.51399 0.36149,0.49428 0.6818,1.0092 1.0449,1.50255 0.31495,0.47114 0.66828,0.92208 0.98881,1.39037 0.30278,0.45067 0.63392,0.88681 0.94475,1.33329 0.30425,0.43632 0.60369,0.87508 0.9035,1.31372 0.30654,0.426 0.61361,0.85157 0.92098,1.27714 0.29509,0.43513 0.58477,0.87351 0.89837,1.29919 0.29413,0.41635 0.58276,0.83599 0.89063,1.2451 0.28333,0.40498 0.56067,0.8136 0.86086,1.20974 0.29289,0.41241 0.57859,0.82905 0.88646,1.23354 0.29505,0.41351 0.58183,0.83177 0.89093,1.23781 0.29062,0.40935 0.57782,0.82058 0.87727,1.22534 0.26904,0.38393 0.52601,0.77389 0.80067,1.15493 0.25667,0.37009 0.49733,0.74822 0.7584,1.11601 0.26127,0.3419 0.50613,0.69269 0.74305,1.04721 0.26729,0.3534 0.54494,0.70106 0.82193,1.04921 0.30737,0.34085 0.6032,0.68727 0.8941,1.03854 0.31329,0.33768 0.60909,0.68459 0.90034,1.03627 0.29884,0.34609 0.62902,0.66904 0.92018,1.01998 0.30101,0.36757 0.63945,0.71078 0.98516,1.04787 0.3276,0.37507 0.65548,0.74918 1.00521,1.10957 0.32883,0.39571 0.66922,0.78296 1.03123,1.15699 0.39105,0.36042 0.71923,0.76374 1.07225,1.15052 0.35899,0.37925 0.73825,0.74158 1.08004,1.13244 0.32309,0.38256 0.67932,0.74311 1.04304,1.09763 0.36287,0.34825 0.67262,0.73352 1.01319,1.0977 0.34498,0.36138 0.71284,0.70613 1.08162,1.04973 0.35813,0.32897 0.71861,0.65517 1.05732,0.99883 0.29612,0.34635 0.60358,0.68501 0.92771,1.01256 0.29936,0.29751 0.61138,0.58549 0.92336,0.87334 0.27242,0.24957 0.5532,0.49211 0.77804,0.77548 0.13111,0.16707 0.0651,0.0844 0.19779,0.24798 0,0 -0.12825,-0.0884 -0.12825,-0.0884 v 0 c -0.13238,-0.16369 -0.0665,-0.081 -0.19761,-0.24803 -0.0392,-0.049 -0.062,-0.10715 -0.10468,-0.15396 -0.20235,-0.22149 -0.46824,-0.40071 -0.67455,-0.61961 -0.3119,-0.28787 -0.62391,-0.57585 -0.92273,-0.87374 -0.32361,-0.32789 -0.63034,-0.66694 -0.92724,-1.01276 -0.0989,-0.13683 -0.0292,-0.0508 -0.23463,-0.23954 -0.27488,-0.25249 -0.54998,-0.50479 -0.82355,-0.75831 -0.36887,-0.34357 -0.73638,-0.68867 -1.08085,-1.05046 -0.34011,-0.36443 -0.65003,-0.7496 -1.01372,-1.09726 -0.36344,-0.35475 -0.71904,-0.7157 -1.04206,-1.09832 -0.34224,-0.39043 -0.72244,-0.75218 -1.08015,-1.13217 -0.35265,-0.38703 -0.68216,-0.78946 -1.07266,-1.15028 -0.36155,-0.3744 -0.70079,-0.76238 -1.03132,-1.15704 -0.3493,-0.36069 -0.67609,-0.73554 -1.0056,-1.10935 -0.34549,-0.33747 -0.68337,-0.68124 -0.98425,-1.04906 -0.29165,-0.35056 -0.62277,-0.67306 -0.92016,-1.02 -0.29104,-0.35178 -0.58852,-0.69768 -0.90034,-1.03627 -0.29071,-0.35137 -0.58819,-0.69688 -0.89391,-1.03876 -0.27671,-0.34845 -0.55572,-0.69557 -0.82122,-1.05013 -0.23691,-0.35445 -0.4828,-0.70462 -0.74326,-1.04688 -0.26005,-0.36826 -0.50161,-0.74589 -0.75839,-1.11588 -0.27389,-0.38134 -0.53126,-0.77103 -0.80066,-1.15469 -0.29876,-0.40503 -0.58623,-0.81601 -0.87722,-1.2251 -0.30829,-0.40648 -0.59549,-0.82448 -0.89093,-1.23781 -0.30709,-0.40493 -0.59318,-0.82134 -0.88648,-1.23358 -0.29937,-0.39661 -0.57709,-0.805 -0.86084,-1.2098 -0.30709,-0.40954 -0.59621,-0.82888 -0.89049,-1.24517 -0.31272,-0.42613 -0.6027,-0.86429 -0.89818,-1.2992 -0.30714,-0.42578 -0.61495,-0.85104 -0.92083,-1.27747 -0.2996,-0.43869 -0.59923,-0.87731 -0.90351,-1.31357 -0.31161,-0.44598 -0.64147,-0.88271 -0.94441,-1.33318 -0.3213,-0.46777 -0.6736,-0.91916 -0.989,-1.38996 -0.36223,-0.49384 -0.6834,-1.00839 -1.0446,-1.50287 -0.34098,-0.49579 -0.67995,-0.99246 -0.96352,-1.51483 -0.29425,-0.50917 -0.54323,-1.03621 -0.85144,-1.53957 -0.318065,-0.57658 -0.639405,-1.15208 -0.940885,-1.73508 -0.29124,-0.56958 -0.53835,-1.15389 -0.77738,-1.74079 -0.21521,-0.62187 -0.43137,-1.24354 -0.66089,-1.86169 -0.23814,-0.63709 -0.49433,-1.26961 -0.70806,-1.91308 -0.20524,-0.62734 -0.40541,-1.25659 -0.55051,-1.89649 -0.14404,-0.65521 -0.28168,-1.3123 -0.38609,-1.97297 -0.0875,-0.63603 -0.16594,-1.27228 -0.22653,-1.91071 -0.0451,-0.62589 -0.0583,-1.25189 -0.0311,-1.87877 0.0216,-0.60348 0.0334,-1.20933 0.13012,-1.80828 0.0708,-0.59937 0.1756,-1.19395 0.30793,-1.78575 0.12843,-0.56492 0.26334,-1.13054 0.44495,-1.68487 0.18731,-0.53156 0.36311,-1.06606 0.56599,-1.5936 0.21369,-0.52277 0.43819,-1.04168 0.71152,-1.5444 0.25485,-0.50458 0.48745,-1.01801 0.78727,-1.50521 0.24627,-0.46899 0.5168,-0.92796 0.79534,-1.38352 0.27256,-0.43553 0.515685,-0.88343 0.794945,-1.31587 0.25524,-0.43473 0.53317,-0.85807 0.84456,-1.26551 0.30766,-0.39375 0.59789,-0.79667 0.89421,-1.19649 0.28573,-0.38638 0.6073,-0.75096 0.90517,-1.13034 0.28422,-0.33783 0.5516,-0.68549 0.83615,-1.02316 0.27754,-0.30437 0.55915,-0.60497 0.84259,-0.90513 0.25354,-0.28935 0.53105,-0.56064 0.80057,-0.8392 0.26183,-0.25642 0.57313,-0.47204 0.83992,-0.7251 0.26493,-0.24572 0.50758,-0.50621 0.75954,-0.76131 0.27439,-0.21748 0.54863,-0.4351 0.82326,-0.65237 0.2855,-0.2258 0.57098,-0.45163 0.85604,-0.67784 0.27347,-0.21761 0.54803,-0.43459 0.80842,-0.66372 0.23074,-0.20946 0.44665,-0.42938 0.64655,-0.66096 0.2159,-0.21816 0.48056,-0.39619 0.7069,-0.60659 0.23068,-0.20951 0.44651,-0.42947 0.64684,-0.66076 0.21657,-0.21767 0.48184,-0.39486 0.71296,-0.60122 0.23498,-0.20459 0.46186,-0.41634 0.65432,-0.65188 0.19844,-0.23291 0.43221,-0.43768 0.63871,-0.66526 0.20889,-0.24099 0.42394,-0.47408 0.66688,-0.69126 0.278,-0.28561 0.54497,-0.57978 0.88282,-0.81734 0,0 0.11245,0.10338 0.11245,0.10338 z"
       inkscape:connector-curvature="0" />
    <path
       style="opacity:1;fill:none;fill-opacity:1;fill-rule:nonzero;stroke:#000000;stroke-width:1;stroke-linecap:round;stroke-linejoin:round;stroke-miterlimit:4;stroke-dasharray:none;stroke-dashoffset:0;stroke-opacity:1;paint-order:markers fill stroke"
       id="path4731-8"
       d="m 34.901019,242.76244 c 0.34911,-0.22462 0.62763,-0.51032 0.91756,-0.78635 0.252096,-0.20911 0.47714,-0.43483 0.696464,-0.66864 0.216839,-0.22045 0.459283,-0.41759 0.667917,-0.64388 0.203363,-0.22961 0.440277,-0.4342 0.684812,-0.63145 0.239901,-0.19842 0.512841,-0.36645 0.738247,-0.57703 0.210523,-0.22491 0.43648,-0.43767 0.676585,-0.63963 0.235207,-0.20282 0.507764,-0.37169 0.733209,-0.5823 0.210124,-0.2252 0.436493,-0.43768 0.676357,-0.63986 0.27064,-0.22073 0.555184,-0.42862 0.83858,-0.63724 0.295202,-0.21655 0.590518,-0.43297 0.88578,-0.64946 0.284132,-0.20818 0.568084,-0.41652 0.852036,-0.62486 0.262408,-0.24681 0.516886,-0.49844 0.792126,-0.7352 0.277507,-0.24437 0.598502,-0.44927 0.871388,-0.69697 0.281655,-0.26916 0.57074,-0.53105 0.836738,-0.81165 0.296663,-0.29083 0.591921,-0.58182 0.882841,-0.87706 0.299179,-0.32809 0.581983,-0.66648 0.881007,-0.99462 0.314702,-0.369 0.652106,-0.72262 0.954589,-1.09923 0.314245,-0.38985 0.622086,-0.78327 0.947523,-1.16661 0.328778,-0.39668 0.62537,-0.81001 0.899087,-1.23586 0.298576,-0.42305 0.561768,-0.86274 0.853649,-1.28916 0.298541,-0.44584 0.589196,-0.89538 0.856135,-1.35567 0.321558,-0.47692 0.576799,-0.98241 0.853878,-1.4783 0.295772,-0.49305 0.542579,-1.00417 0.779428,-1.51928 0.225906,-0.52047 0.425239,-1.04873 0.63641,-1.57355 0.205483,-0.54775 0.365629,-1.10807 0.519048,-1.66799 0.15842,-0.58676 0.289655,-1.17713 0.386599,-1.7735 0.123352,-0.5951 0.161833,-1.19994 0.210201,-1.80201 0.05565,-0.62519 0.06921,-1.25079 0.05219,-1.87734 -0.03216,-0.63975 -0.08282,-1.27786 -0.141389,-1.91612 -0.07558,-0.66327 -0.1832,-1.32421 -0.298171,-1.98338 -0.116902,-0.64389 -0.289126,-1.27895 -0.466297,-1.91229 -0.185161,-0.64976 -0.412828,-1.29003 -0.622163,-1.93432 -0.201594,-0.62531 -0.389744,-1.25369 -0.576955,-1.88224 -0.213631,-0.59373 -0.434298,-1.18532 -0.70024,-1.7636 -0.275261,-0.59236 -0.571082,-1.17773 -0.862927,-1.76431 -0.286111,-0.51289 -0.510156,-1.04813 -0.782383,-1.56627 -0.259351,-0.53135 -0.577579,-1.03778 -0.895669,-1.54434 -0.339106,-0.50572 -0.63613,-1.03072 -0.976867,-1.53557 -0.293624,-0.48105 -0.626509,-0.9432 -0.92584,-1.42162 -0.282379,-0.4602 -0.593756,-0.90684 -0.88436,-1.36313 -0.28449,-0.44594 -0.564056,-0.89415 -0.844016,-1.34225 -0.287267,-0.43568 -0.575046,-0.87097 -0.863134,-1.30626 -0.275402,-0.44444 -0.545225,-0.89196 -0.839536,-1.32757 -0.275292,-0.42563 -0.544908,-0.85438 -0.834234,-1.27326 -0.264969,-0.41392 -0.523833,-0.83129 -0.806058,-1.23694 -0.274189,-0.42169 -0.541055,-0.84733 -0.830589,-1.26157 -0.276356,-0.4228 -0.544168,-0.85014 -0.834866,-1.26596 -0.272107,-0.41853 -0.540655,-0.83885 -0.821759,-1.25308 -0.251655,-0.39244 -0.490993,-0.7905 -0.748377,-1.18023 -0.239881,-0.3782 -0.46347,-0.76389 -0.707875,-1.13994 -0.245749,-0.35018 -0.47474,-0.70871 -0.695627,-1.07068 -0.251247,-0.3619 -0.513164,-0.71833 -0.774358,-1.07527 -0.291929,-0.35059 -0.57201,-0.70646 -0.846964,-1.06695 -0.298126,-0.34754 -0.577986,-0.70399 -0.853295,-1.06489 -0.283151,-0.35559 -0.598644,-0.68907 -0.873821,-1.04928 -0.284328,-0.37712 -0.607158,-0.73113 -0.937841,-1.07905 -0.310594,-0.38547 -0.621464,-0.77003 -0.954778,-1.14158 -0.310916,-0.40612 -0.633678,-0.80423 -0.978678,-1.1898 -0.374894,-0.37271 -0.684233,-0.78682 -1.020187,-1.18452 -0.341854,-0.39063 -0.704513,-0.76512 -1.028528,-1.16687 -0.305736,-0.39282 -0.645525,-0.76476 -0.993138,-1.13087 -0.347026,-0.35982 -0.639252,-0.75496 -0.963288,-1.12997 -0.328382,-0.37248 -0.680713,-0.72888 -1.033814,-1.08427 -0.342884,-0.34062 -0.688765,-0.67813 -1.011797,-1.03261 -0.280359,-0.3558 -0.572476,-0.70422 -0.881675,-1.04213 -0.285802,-0.30708 -0.5847,-0.60504 -0.88362,-0.9028 -0.261176,-0.25819 -0.530825,-0.50976 -0.742771,-0.80029 -0.123567,-0.1712 -0.06131,-0.0865 -0.186545,-0.25425 0,0 0.124182,0.0926 0.124182,0.0926 v 0 c 0.124995,0.16788 0.06297,0.083 0.186359,0.25431 0.03694,0.0503 0.05703,0.10915 0.09775,0.15722 0.192418,0.22786 0.449823,0.4158 0.64637,0.64114 0.298707,0.2979 0.597589,0.59585 0.882959,0.90319 0.308628,0.33826 0.600119,0.68697 0.881241,1.04227 0.09279,0.13992 0.02687,0.0517 0.223449,0.2472 0.263283,0.26134 0.526959,0.52238 0.789036,0.78461 0.35324,0.35535 0.704995,0.71221 1.033016,1.08498 0.32349,0.37528 0.615967,0.77026 0.963884,1.1295 0.347274,0.36637 0.686432,0.73868 0.992084,1.13156 0.324464,0.40134 0.688223,0.77521 1.0287,1.16658 0.335287,0.3981 0.646337,0.81113 1.020212,1.18453 0.344556,0.38591 0.666151,0.78469 0.978736,1.18988 0.332873,0.37184 0.642632,0.75707 0.95516,1.14138 0.330119,0.34849 0.652374,0.70304 0.936718,1.0803 0.275784,0.35979 0.59213,0.69293 0.873828,1.04929 0.275083,0.36102 0.556879,0.71635 0.8533,1.06488 0.274819,0.36056 0.556533,0.71559 0.846727,1.06719 0.260925,0.35722 0.524195,0.71319 0.773607,1.07616 0.22089,0.36191 0.450899,0.71985 0.695836,1.07037 0.243361,0.3765 0.467857,0.76171 0.70788,1.13981 0.256587,0.39003 0.496342,0.78781 0.748378,1.17998 0.280375,0.41452 0.549274,0.83455 0.821726,1.25283 0.289881,0.41625 0.558141,0.84333 0.834859,1.26598 0.288729,0.41465 0.555977,0.8401 0.830599,1.26162 0.281425,0.40606 0.540623,0.82323 0.806044,1.237 0.288538,0.41926 0.558665,0.84774 0.834092,1.27332 0.293394,0.43605 0.563563,0.88333 0.839353,1.32757 0.287862,0.43548 0.576401,0.87048 0.862956,1.30659 0.279712,0.44815 0.559525,0.89622 0.844025,1.34208 0.291416,0.45585 0.601498,0.903 0.884051,1.36304 0.300115,0.47791 0.631953,0.94047 0.926044,1.4212 0.339846,0.50531 0.637752,1.02997 0.976547,1.53588 0.318522,0.50655 0.635002,1.01391 0.894986,1.54517 0.271253,0.5184 0.496434,1.05317 0.781883,1.56622 0.292017,0.58655 0.58736,1.17211 0.862529,1.76452 0.265522,0.57868 0.486287,1.17061 0.698853,1.76489 0.187211,0.62842 0.375389,1.2567 0.577063,1.88191 0.209437,0.64438 0.437118,1.2848 0.621875,1.93477 0.177005,0.63358 0.348855,1.2689 0.465208,1.91307 0.11461,0.65943 0.222713,1.32053 0.297464,1.98414 0.05896,0.63842 0.108862,1.27676 0.140819,1.9167 0.01702,0.6269 0.0022,1.25287 -0.05306,1.87842 -0.04863,0.60232 -0.0875,1.20735 -0.210974,1.8027 -0.09757,0.59662 -0.228943,1.18736 -0.387675,1.77439 -0.153606,0.56033 -0.313754,1.12112 -0.52004,1.66913 -0.210982,0.52505 -0.410589,1.05344 -0.636934,1.57395 -0.236937,0.51542 -0.484517,1.02663 -0.780155,1.52006 -0.277249,0.4959 -0.532669,1.00135 -0.854083,1.47842 -0.267085,0.4606 -0.557976,0.91042 -0.856711,1.35656 -0.291846,0.42631 -0.554861,0.86594 -0.853284,1.28896 -0.274483,0.42606 -0.571165,0.84003 -0.900561,1.237 -0.325049,0.38344 -0.633139,0.77658 -0.947129,1.16644 -0.302839,0.37676 -0.640478,0.73061 -0.955133,1.09996 -0.299169,0.32831 -0.581891,0.66699 -0.881341,0.99514 -0.290702,0.29526 -0.586066,0.58608 -0.882639,0.87685 -0.266261,0.28092 -0.556018,0.54272 -0.837555,0.81246 -0.273128,0.24769 -0.593974,0.45289 -0.871698,0.69723 -0.27574,0.23691 -0.529882,0.48929 -0.793053,0.73598 -0.284139,0.20818 -0.567684,0.41693 -0.851929,0.62499 -0.295195,0.21654 -0.590779,0.43266 -0.885795,0.64937 -0.283124,0.2084 -0.567108,0.41636 -0.837737,0.63667 -0.239911,0.20181 -0.465515,0.4145 -0.675704,0.63934 -0.225776,0.21077 -0.497815,0.38036 -0.733248,0.58336 -0.239858,0.20187 -0.465376,0.4146 -0.675977,0.63914 -0.22615,0.21046 -0.499449,0.37857 -0.73912,0.57773 -0.244121,0.19662 -0.4802,0.40095 -0.68298,0.63011 -0.20872,0.22625 -0.451495,0.42324 -0.667995,0.64394 -0.219525,0.234 -0.444882,0.45988 -0.697311,0.66902 -0.290302,0.27652 -0.570542,0.56156 -0.918778,0.78793 0,0 -0.10784,-0.10691 -0.10784,-0.10691 z"
       inkscape:connector-curvature="0" />
    <path
       style="opacity:1;fill:none;fill-opacity:1;fill-rule:nonzero;stroke:#000000;stroke-width:1;stroke-linecap:round;stroke-linejoin:round;stroke-miterlimit:4;stroke-dasharray:none;stroke-dashoffset:0;stroke-opacity:1;paint-order:markers fill stroke"
       id="path4731-6"
       d="m 265.72074,185.70935 c -0.40163,0.13631 -0.73251,0.3358 -1.07479,0.52532 -0.29488,0.13817 -0.5614,0.2953 -0.82276,0.46001 -0.25709,0.15388 -0.54033,0.28339 -0.78931,0.44339 -0.2436,0.16365 -0.52122,0.30066 -0.80647,0.43012 -0.28012,0.1314 -0.59367,0.23122 -0.85956,0.37496 -0.25091,0.15852 -0.5174,0.30423 -0.7983,0.43843 -0.27566,0.1357 -0.58859,0.23658 -0.85408,0.38072 -0.25053,0.15883 -0.51715,0.30447 -0.79808,0.43866 -0.31617,0.14514 -0.64586,0.27747 -0.97425,0.41072 -0.34212,0.13803 -0.68463,0.27566 -1.02695,0.41352 -0.32923,0.13264 -0.65862,0.26517 -0.98777,0.39792 -0.30938,0.16904 -0.61063,0.34344 -0.93331,0.50162 -0.32576,0.16442 -0.69486,0.28833 -1.01584,0.45639 -0.33262,0.18497 -0.67263,0.36253 -0.98931,0.55975 -0.35125,0.20092 -0.70058,0.40251 -1.04578,0.60828 -0.35742,0.23248 -0.69799,0.47635 -1.05522,0.70893 -0.37824,0.26496 -0.77969,0.51316 -1.14541,0.78653 -0.37979,0.28279 -0.75294,0.56968 -1.14427,0.84515 -0.39627,0.28633 -0.75912,0.59198 -1.09829,0.91195 -0.36595,0.31365 -0.69501,0.64712 -1.054,0.96469 -0.36814,0.33311 -0.72804,0.67063 -1.06318,1.02106 -0.39617,0.35597 -0.72299,0.74689 -1.07262,1.12611 -0.36968,0.37382 -0.68785,0.77086 -0.99555,1.17292 -0.29631,0.40833 -0.56448,0.82755 -0.84521,1.24196 -0.27673,0.43487 -0.50538,0.88771 -0.72664,1.34125 -0.22931,0.47565 -0.42939,0.95871 -0.59275,1.45235 -0.19195,0.48836 -0.29253,0.99852 -0.40357,1.50474 -0.12123,0.5248 -0.19669,1.05665 -0.23894,1.59418 -0.0271,0.55117 -0.0343,1.1039 -0.032,1.65802 0.0179,0.57818 0.0709,1.15945 0.13206,1.74038 0.0648,0.56821 0.19054,1.13766 0.32189,1.70645 0.13844,0.58404 0.3241,1.16676 0.48937,1.75002 0.15872,0.56579 0.30249,1.13207 0.44524,1.69835 0.17486,0.54077 0.35761,1.08083 0.5909,1.61671 0.24206,0.54939 0.50719,1.09608 0.76785,1.64317 0.26159,0.48329 0.45347,0.97578 0.69944,1.46133 0.23067,0.49478 0.52783,0.97766 0.82483,1.46061 0.31993,0.4856 0.59222,0.98093 0.91403,1.46604 0.27285,0.4573 0.59025,0.90471 0.86957,1.36066 0.26265,0.43773 0.55815,0.86846 0.83012,1.30416 0.26631,0.42586 0.52707,0.8529 0.78823,1.2799 0.27032,0.41755 0.54125,0.83486 0.81251,1.25222 0.25656,0.42314 0.5068,0.84804 0.78479,1.26664 0.25826,0.40709 0.51008,0.81594 0.78429,1.21946 0.2482,0.39546 0.48938,0.79288 0.75714,1.18401 0.25749,0.40352 0.50657,0.80926 0.78144,1.20889 0.25968,0.40486 0.50968,0.81218 0.78567,1.21336 0.25548,0.40051 0.50696,0.80197 0.77267,1.20023 0.23577,0.37499 0.45759,0.75281 0.69988,1.1264 0.22438,0.36095 0.43023,0.72573 0.65972,1.08557 0.23347,0.33798 0.44785,0.68041 0.65309,1.02451 0.23832,0.34884 0.48872,0.69475 0.73832,1.04095 0.28361,0.34571 0.5539,0.69394 0.81812,1.04539 0.29049,0.34412 0.56069,0.69278 0.82523,1.04463 0.2736,0.34854 0.58455,0.68335 0.84911,1.03456 0.27283,0.36711 0.58978,0.72061 0.91551,1.07027 0.30055,0.37843 0.60156,0.75609 0.92826,1.12623 0.29887,0.39611 0.61154,0.78722 0.94955,1.17117 0.37149,0.37789 0.66856,0.78031 0.99496,1.17338 0.33399,0.38783 0.69242,0.76511 1.00606,1.15954 0.29459,0.38391 0.6283,0.7554 0.97101,1.12318 0.3427,0.36231 0.62243,0.74602 0.93862,1.11766 0.32142,0.37009 0.67004,0.73037 1.01981,1.08987 0.34038,0.34512 0.68372,0.68835 1.00089,1.04227 0.27063,0.34826 0.55466,0.69212 0.85837,1.02969 0.28124,0.30756 0.57759,0.60939 0.8739,0.91112 0.25901,0.26197 0.52812,0.51955 0.73063,0.80121 0.11781,0.16581 0.0582,0.0836 0.17832,0.24669 0,0 -0.12618,-0.0988 -0.12618,-0.0988 v 0 c -0.11967,-0.16317 -0.0603,-0.0808 -0.17811,-0.2467 -0.0353,-0.0488 -0.0515,-0.10224 -0.0911,-0.14976 -0.18712,-0.22513 -0.4493,-0.42637 -0.6411,-0.65004 -0.29624,-0.30174 -0.59258,-0.60359 -0.87319,-0.91136 -0.3031,-0.33775 -0.58627,-0.68181 -0.85781,-1.02977 -0.0873,-0.1342 -0.0242,-0.0485 -0.21949,-0.24641 -0.26125,-0.26489 -0.52278,-0.52967 -0.78246,-0.79518 -0.3499,-0.3595 -0.69809,-0.72001 -1.01888,-1.09035 -0.31566,-0.37177 -0.59559,-0.75542 -0.93928,-1.11739 -0.34236,-0.36792 -0.67534,-0.73964 -0.96983,-1.12359 -0.3142,-0.39414 -0.67373,-0.77113 -1.00621,-1.15931 -0.32598,-0.39322 -0.62463,-0.79515 -0.99546,-1.17326 -0.33746,-0.38418 -0.64876,-0.77569 -0.94965,-1.17124 -0.32618,-0.37031 -0.62589,-0.7484 -0.92871,-1.12609 -0.32541,-0.34995 -0.64169,-0.70384 -0.91432,-1.07113 -0.26515,-0.35098 -0.5772,-0.68557 -0.84909,-1.03457 -0.26431,-0.3519 -0.53647,-0.70001 -0.82524,-1.04463 -0.26401,-0.35149 -0.53621,-0.6993 -0.81789,-1.04554 -0.24925,-0.3464 -0.50119,-0.6921 -0.73742,-1.04159 -0.20523,-0.34404 -0.42083,-0.68613 -0.65338,-1.02427 -0.22829,-0.36005 -0.43519,-0.72457 -0.65972,-1.08547 -0.2414,-0.3737 -0.46367,-0.75136 -0.69989,-1.12618 -0.26493,-0.39839 -0.51674,-0.79968 -0.77266,-1.20003 -0.27504,-0.4014 -0.52554,-0.80858 -0.78566,-1.21335 -0.27396,-0.39985 -0.5235,-0.8055 -0.78145,-1.20893 -0.26682,-0.39138 -0.50844,-0.78868 -0.75713,-1.18405 -0.2733,-0.40375 -0.52568,-0.81242 -0.78411,-1.21949 -0.27699,-0.41883 -0.52758,-0.84359 -0.78458,-1.26662 -0.27099,-0.41751 -0.54278,-0.83468 -0.8123,-1.25248 -0.26093,-0.42701 -0.52192,-0.85396 -0.78828,-1.27979 -0.27288,-0.4354 -0.56691,-0.8664 -0.82974,-1.30399 -0.28024,-0.45566 -0.59647,-0.90323 -0.86985,-1.36036 -0.32081,-0.48533 -0.59407,-0.98053 -0.91366,-1.46624 -0.29748,-0.48302 -0.59266,-0.96642 -0.82402,-1.46122 -0.24485,-0.48561 -0.43804,-0.97789 -0.69889,-1.46119 -0.26087,-0.5471 -0.52545,-1.09387 -0.76739,-1.6433 -0.23281,-0.53615 -0.41561,-1.07653 -0.5893,-1.61759 -0.14273,-0.56618 -0.28655,-1.13237 -0.44536,-1.69808 -0.16539,-0.58335 -0.35103,-1.1662 -0.48902,-1.75038 -0.13115,-0.56894 -0.25651,-1.13857 -0.32063,-1.70692 -0.0607,-0.58109 -0.11423,-1.16258 -0.13121,-1.7409 -0.002,-0.55432 0.005,-1.10714 0.0328,-1.65846 0.042,-0.53785 0.11923,-1.06977 0.23998,-1.59492 0.11141,-0.50642 0.21243,-1.01667 0.4045,-1.50524 0.16409,-0.49374 0.36432,-0.97709 0.59399,-1.45295 0.22155,-0.45384 0.45022,-0.90709 0.72787,-1.34204 0.28052,-0.41464 0.54899,-0.83392 0.8458,-1.24225 0.30784,-0.40228 0.62684,-0.79926 0.99643,-1.17344 0.34983,-0.37921 0.6768,-0.77007 1.07284,-1.12617 0.33534,-0.35071 0.6955,-0.68841 1.06387,-1.02172 0.35897,-0.3175 0.68783,-0.65095 1.05359,-0.96458 0.34008,-0.32006 0.70307,-0.62623 1.10005,-0.91273 0.39094,-0.27559 0.76431,-0.5622 1.14384,-0.84505 0.36608,-0.27347 0.76784,-0.52179 1.14606,-0.78706 0.35737,-0.2327 0.69792,-0.47683 1.05563,-0.70931 0.34525,-0.20562 0.69437,-0.4073 1.04541,-0.60827 0.31706,-0.19739 0.65745,-0.37505 0.99025,-0.56034 0.32124,-0.16799 0.69017,-0.29224 1.0163,-0.45647 0.32303,-0.15839 0.62408,-0.33341 0.93442,-0.50213 0.32917,-0.13272 0.65821,-0.26557 0.98763,-0.39807 0.34244,-0.13768 0.68487,-0.2754 1.0269,-0.4135 0.32819,-0.133 0.65749,-0.26526 0.97319,-0.41045 0.28069,-0.13409 0.54682,-0.27979 0.79729,-0.43834 0.26586,-0.14422 0.57875,-0.24538 0.85481,-0.38107 0.28062,-0.13415 0.54667,-0.27989 0.79757,-0.43812 0.26653,-0.14367 0.57994,-0.24403 0.86059,-0.37542 0.28459,-0.12917 0.56142,-0.26591 0.8044,-0.4292 0.24909,-0.15995 0.53238,-0.2895 0.78942,-0.44344 0.2616,-0.16484 0.52872,-0.32183 0.82376,-0.46016 0.34301,-0.18967 0.67533,-0.38864 1.07624,-0.52649 0,0 0.10686,0.10837 0.10686,0.10837 z"
       inkscape:connector-curvature="0" />
    <path
       style="opacity:1;fill:none;fill-opacity:1;fill-rule:nonzero;stroke:#000000;stroke-width:1;stroke-linecap:round;stroke-linejoin:round;stroke-miterlimit:4;stroke-dasharray:none;stroke-dashoffset:0;stroke-opacity:1;paint-order:markers fill stroke"
       id="path4731-8-5"
       d="m 168.56004,228.63959 c 0.41122,-0.1248 0.75482,-0.31446 1.10938,-0.4938 0.30381,-0.1298 0.58068,-0.2787 0.85252,-0.43552 0.26722,-0.14597 0.55881,-0.26745 0.81798,-0.41989 0.25396,-0.15625 0.54063,-0.28504 0.83448,-0.40624 0.28901,-0.12302 0.60942,-0.21419 0.8845,-0.35022 0.261,-0.15093 0.53699,-0.2887 0.82675,-0.41469 0.28455,-0.12764 0.60467,-0.21958 0.87978,-0.35563 0.26064,-0.15124 0.53703,-0.2887 0.82654,-0.41492 0.32559,-0.13616 0.6644,-0.25887 1.00205,-0.38242 0.3516,-0.12804 0.70334,-0.25596 1.05499,-0.38393 0.33838,-0.12304 0.67661,-0.24624 1.01482,-0.36944 0.32048,-0.15977 0.63304,-0.32509 0.96596,-0.47395 0.33648,-0.15488 0.71436,-0.26826 1.04631,-0.42682 0.3446,-0.17507 0.69617,-0.3426 1.02544,-0.53028 0.36404,-0.1906 0.72656,-0.38159 1.08498,-0.577 0.37218,-0.22165 0.72809,-0.45507 1.1001,-0.6768 0.39497,-0.25334 0.81231,-0.48944 1.19514,-0.75151 0.39748,-0.27107 0.78856,-0.54636 1.19726,-0.80984 0.41427,-0.27414 0.79604,-0.56836 1.15486,-0.87746 0.38534,-0.30206 0.73474,-0.62484 1.11334,-0.93102 0.38864,-0.32136 0.76926,-0.64732 1.12574,-0.98682 0.41811,-0.34333 0.76847,-0.72324 1.14113,-1.09095 0.39252,-0.36183 0.73457,-0.74805 1.0664,-1.13954 0.32075,-0.39803 0.61383,-0.80765 0.91923,-1.21212 0.30258,-0.42495 0.55785,-0.86898 0.80575,-1.31393 0.25723,-0.46674 0.48553,-0.94158 0.6775,-1.42791 0.22044,-0.48033 0.35027,-0.98474 0.49041,-1.48497 0.15147,-0.5184 0.25718,-1.04504 0.33003,-1.57818 0.0583,-0.54714 0.0966,-1.09631 0.12582,-1.64714 0.0149,-0.57513 -0.006,-1.15427 -0.0344,-1.73329 -0.0329,-0.56644 -0.12718,-1.13577 -0.22701,-1.70455 -0.10612,-0.58417 -0.25968,-1.16824 -0.3928,-1.75231 -0.1275,-0.56655 -0.23996,-1.13319 -0.35137,-1.69979 -0.14514,-0.54209 -0.29822,-1.08369 -0.50232,-1.62248 -0.21216,-0.55243 -0.44762,-1.10281 -0.67862,-1.65345 -0.23549,-0.48725 -0.40045,-0.98181 -0.62012,-1.47091 -0.20379,-0.49785 -0.47506,-0.98564 -0.74615,-1.4735 -0.294,-0.49108 -0.53957,-0.99059 -0.83547,-1.48125 -0.24828,-0.46172 -0.54189,-0.91477 -0.79674,-1.37533 -0.23912,-0.44199 -0.51167,-0.87793 -0.76028,-1.31813 -0.24349,-0.43031 -0.48131,-0.86163 -0.71958,-1.29293 -0.24801,-0.42215 -0.49662,-0.84407 -0.74556,-1.26605 -0.23387,-0.42735 -0.46122,-0.85627 -0.71687,-1.27968 -0.23647,-0.41141 -0.46636,-0.8244 -0.71904,-1.23274 -0.227,-0.39959 -0.44686,-0.80095 -0.69377,-1.19676 -0.23584,-0.40788 -0.46319,-0.81772 -0.71677,-1.22218 -0.23804,-0.40923 -0.46616,-0.82069 -0.72079,-1.22669 -0.23406,-0.40482 -0.464,-0.81049 -0.70844,-1.21334 -0.21567,-0.37894 -0.41719,-0.76032 -0.63949,-1.13804 -0.20499,-0.36468 -0.39124,-0.73266 -0.60144,-1.09638 -0.21544,-0.34208 -0.4115,-0.68809 -0.59827,-1.03551 -0.21967,-0.35302 -0.45174,-0.70341 -0.68294,-1.0541 -0.26545,-0.35105 -0.51729,-0.70436 -0.76289,-1.06061 -0.27262,-0.34963 -0.52412,-0.70339 -0.77004,-1.06006 -0.25521,-0.35363 -0.54869,-0.69463 -0.79459,-1.05067 -0.25333,-0.37208 -0.55178,-0.7318 -0.85966,-1.08782 -0.28058,-0.38405 -0.56163,-0.76737 -0.8689,-1.14388 -0.27794,-0.40157 -0.56989,-0.79857 -0.8878,-1.18913 -0.35217,-0.38526 -0.62726,-0.79329 -0.93357,-1.1924 -0.31375,-0.39424 -0.6524,-0.77872 -0.9452,-1.17903 -0.27426,-0.38936 -0.58849,-0.76741 -0.91205,-1.14198 -0.32383,-0.36916 -0.58312,-0.75794 -0.87981,-1.13565 -0.3018,-0.37637 -0.63188,-0.74362 -0.96296,-1.11016 -0.32215,-0.35214 -0.64799,-0.7022 -0.94659,-1.06235 -0.25216,-0.3533 -0.51813,-0.70254 -0.80415,-1.04611 -0.26514,-0.31309 -0.54582,-0.62093 -0.82653,-0.92861 -0.24558,-0.26716 -0.50129,-0.53028 -0.68877,-0.81561 -0.10905,-0.16788 -0.0538,-0.0845 -0.16523,-0.24988 0,0 0.12116,0.10156 0.12116,0.10156 v 0 c 0.11106,0.16533 0.0561,0.082 0.16501,0.24991 0.0326,0.0496 0.046,0.10298 0.083,0.15123 0.17543,0.22867 0.42714,0.43569 0.60742,0.66299 0.28047,0.30776 0.56112,0.61557 0.82575,0.92882 0.28536,0.34375 0.55061,0.69313 0.80365,1.04615 0.0803,0.13568 0.0216,0.0488 0.20627,0.25081 0.24739,0.27023 0.49524,0.54024 0.7412,0.81099 0.33124,0.36653 0.66064,0.73406 0.96199,1.11061 0.29605,0.37783 0.55564,0.76653 0.88054,1.13535 0.32315,0.37473 0.63665,0.75298 0.91081,1.14238 0.29335,0.40005 0.63328,0.78419 0.94541,1.17881 0.30554,0.39934 0.58263,0.80678 0.9336,1.19242 0.31737,0.39077 0.60797,0.78812 0.88785,1.18921 0.30677,0.37667 0.58649,0.76035 0.86936,1.14378 0.30715,0.3564 0.60492,0.71647 0.85825,1.08866 0.24661,0.35581 0.54107,0.69666 0.79459,1.05069 0.24567,0.35673 0.49944,0.7099 0.77006,1.06005 0.24545,0.35628 0.49916,0.70919 0.7626,1.06078 0.23085,0.35087 0.46445,0.70111 0.68199,1.0547 0.18678,0.34738 0.38403,0.69308 0.59854,1.03529 0.20901,0.36391 0.3963,0.73165 0.60147,1.09628 0.22138,0.37781 0.42338,0.75904 0.63952,1.13782 0.24361,0.40296 0.47398,0.80846 0.70844,1.21312 0.25366,0.40621 0.48231,0.81753 0.72078,1.22671 0.25265,0.40464 0.48042,0.81441 0.71678,1.22222 0.24598,0.39601 0.46625,0.79727 0.69376,1.19681 0.25175,0.4085 0.48223,0.82137 0.71886,1.23277 0.25458,0.42361 0.48236,0.85238 0.71666,1.27963 0.24867,0.42211 0.49815,0.84392 0.74531,1.26631 0.238,0.43129 0.47612,0.86253 0.71962,1.29278 0.24957,0.43999 0.52063,0.8761 0.75997,1.31798 0.25579,0.46029 0.5482,0.91349 0.79703,1.37502 0.29485,0.49089 0.54142,0.99029 0.83507,1.48147 0.27156,0.48792 0.54078,0.97616 0.74528,1.47407 0.21859,0.48915 0.38484,0.98352 0.6196,1.47077 0.23118,0.55065 0.46609,1.10108 0.67814,1.65356 0.2036,0.53905 0.35674,1.08095 0.50064,1.6233 0.11144,0.56651 0.22394,1.13307 0.35153,1.69955 0.13321,0.58414 0.28678,1.16835 0.39242,1.75262 0.0996,0.56896 0.1934,1.13843 0.22572,1.70502 0.0282,0.57917 0.0491,1.15855 0.0336,1.7338 -0.0291,0.55102 -0.0679,1.10026 -0.12654,1.64752 -0.0728,0.53344 -0.18051,1.06006 -0.33119,1.57894 -0.14046,0.50037 -0.27078,1.00486 -0.49133,1.4854 -0.19274,0.48641 -0.42119,0.96156 -0.67882,1.42844 -0.24817,0.44528 -0.50348,0.88971 -0.80698,1.31471 -0.30523,0.40471 -0.59863,0.81438 -0.91986,1.21237 -0.33199,0.39173 -0.67488,0.77789 -1.06729,1.14007 -0.37284,0.36766 -0.7234,0.74751 -1.1414,1.09101 -0.35667,0.33973 -0.7376,0.66589 -1.12648,0.98746 -0.37852,0.3061 -0.72774,0.62885 -1.11291,0.93094 -0.35967,0.30912 -0.74166,0.60386 -1.15661,0.87813 -0.4083,0.26364 -0.79959,0.53864 -1.19682,0.80978 -0.38324,0.26213 -0.80086,0.49838 -1.19583,0.75203 -0.37219,0.22185 -0.72806,0.4555 -1.10054,0.67716 -0.3582,0.19546 -0.72081,0.3863 -1.08471,0.57685 -0.32962,0.18791 -0.68191,0.35525 -1.02646,0.53083 -0.33223,0.15851 -0.70997,0.27216 -1.04669,0.42698 -0.33348,0.1489 -0.64579,0.31492 -0.96707,0.47443 -0.33839,0.12303 -0.67623,0.24667 -1.01472,0.36957 -0.35162,0.12804 -0.70357,0.25565 -1.05502,0.38386 -0.33731,0.12342 -0.67551,0.24629 -1.00104,0.38209 -0.2895,0.1259 -0.56511,0.26368 -0.82574,0.41461 -0.2755,0.13612 -0.59516,0.22876 -0.88,0.35651 -0.28946,0.12596 -0.56496,0.2638 -0.82602,0.41439 -0.27585,0.1358 -0.59666,0.22694 -0.88552,0.35066 -0.29333,0.12072 -0.57907,0.24947 -0.8323,0.40544 -0.25928,0.15239 -0.55119,0.27368 -0.81807,0.41993 -0.27211,0.15694 -0.54936,0.30591 -0.85351,0.43568 -0.35504,0.17968 -0.7004,0.36845 -1.11096,0.4949 0,0 -0.10132,-0.1106 -0.10132,-0.1106 z"
       inkscape:connector-curvature="0" />
    <path
       style="opacity:1;fill:none;fill-opacity:1;fill-rule:nonzero;stroke:#000000;stroke-width:0.5;stroke-linecap:round;stroke-linejoin:round;stroke-miterlimit:4;stroke-dasharray:0.50000001, 2.00000006;stroke-dashoffset:0;stroke-opacity:1;paint-order:markers fill stroke"
       id="path4768"
       d="m 27.965075,161.05871 c 0.328856,0.41244 0.62859,0.84744 0.956727,1.26018 0.265419,0.32528 0.476051,0.68633 0.685477,1.04843 0.218829,0.35115 0.42813,0.70729 0.646398,1.05864 0.201756,0.31399 0.385014,0.63865 0.579213,0.95726 0.173783,0.31986 0.306591,0.66063 0.489225,0.97537 0.178739,0.31946 0.312997,0.66001 0.497827,0.97629 0.244168,0.37376 0.497411,0.74102 0.745482,1.11219 0.200382,0.36501 0.453699,0.69639 0.713814,1.02039 0.28839,0.3508 0.556326,0.71666 0.852601,1.06139 0.290089,0.36878 0.568301,0.74762 0.868646,1.10795 0.286887,0.30972 0.542181,0.6464 0.786016,0.99043 0.254563,0.37602 0.52678,0.73968 0.787217,1.11157 0.255363,0.37103 0.492252,0.75469 0.733388,1.1352 0.19939,0.336 0.412925,0.6632 0.615527,0.99756 0.200829,0.35495 0.378214,0.72208 0.568063,1.08282 0.189296,0.37729 0.371337,0.75837 0.566272,1.13283 0.161091,0.32859 0.288872,0.67401 0.458531,0.99821 0.130482,0.25803 0.240916,0.52713 0.382143,0.77952 0.166732,0.29401 0.322966,0.59371 0.485357,0.89019 0.181387,0.3841 0.418269,0.73764 0.622109,1.10964 0.200284,0.36086 0.391041,0.72556 0.598702,1.08214 0.14455,0.27446 0.289989,0.54761 0.436721,0.82104 0.152442,0.28805 0.34584,0.55062 0.510363,0.83153 0.179554,0.29002 0.400703,0.54517 0.61899,0.80578 0.215683,0.30882 0.486688,0.57107 0.723482,0.86349 0.280387,0.34199 0.528383,0.70952 0.773769,1.0771 0.270618,0.37805 0.552799,0.74829 0.811889,1.13448 0.286711,0.39651 0.528106,0.82278 0.766906,1.24947 0.224859,0.40749 0.458531,0.80924 0.701566,1.20626 0.21935,0.42392 0.40394,0.86424 0.612966,1.29307 0.188978,0.44102 0.384654,0.87603 0.599628,1.3049 0.242276,0.40983 0.423042,0.8501 0.64394,1.27072 0.214003,0.41012 0.422087,0.82346 0.639897,1.2316 0.182769,0.39575 0.425527,0.75883 0.634524,1.14051 0.228841,0.3752 0.453168,0.75275 0.674362,1.13259 0.248338,0.39174 0.495731,0.78202 0.720381,1.18777 0.231066,0.43873 0.510622,0.84489 0.785522,1.25611 0.302238,0.39697 0.568981,0.81436 0.839282,1.23324 0.30947,0.46271 0.577159,0.95193 0.878162,1.42083 0.281123,0.5135 0.607227,1.00015 0.899369,1.50696 0.270727,0.55162 0.632145,1.05048 0.931442,1.58527 0.288997,0.55808 0.61821,1.09195 0.967346,1.614 0.379666,0.52461 0.675386,1.10017 0.999037,1.65921 0.320834,0.57674 0.69037,1.12281 1.062472,1.66696 0.372123,0.51553 0.652838,1.08834 0.993987,1.62405 0.326794,0.53345 0.714134,1.02568 1.060608,1.54586 0.300443,0.51771 0.64765,1.00577 0.965237,1.51257 0.296021,0.50927 0.614209,1.00416 0.913249,1.51166 0.297429,0.49669 0.583809,0.99969 0.852985,1.51231 0.265142,0.51065 0.517224,1.02766 0.789848,1.53443 0.266705,0.51716 0.52705,1.03749 0.796472,1.55326 0.254606,0.52282 0.495237,1.0527 0.759939,1.57052 0.242779,0.53591 0.497737,1.06608 0.755518,1.59507 0.194857,0.42105 0.395224,0.83894 0.568928,1.26935 0,0 -0.18578,0.007 -0.18578,0.007 v 0 c -0.173768,-0.42987 -0.373925,-0.84739 -0.568481,-1.26807 -0.257865,-0.52883 -0.512421,-1.05911 -0.755626,-1.59472 -0.264218,-0.51801 -0.505153,-1.04766 -0.75992,-1.57035 -0.269505,-0.51563 -0.529479,-1.03605 -0.796335,-1.55303 -0.272818,-0.50678 -0.524659,-1.02403 -0.790165,-1.53461 -0.26919,-0.51229 -0.555416,-1.01506 -0.852853,-1.51141 -0.298693,-0.50751 -0.617175,-1.00205 -0.91317,-1.51115 -0.317722,-0.50652 -0.664173,-0.99485 -0.965123,-1.51206 -0.346789,-0.52006 -0.733732,-1.01269 -1.060482,-1.54627 -0.340301,-0.53593 -0.621601,-1.10817 -0.993735,-1.62344 -0.372528,-0.54437 -0.741198,-1.09151 -1.062641,-1.66835 -0.323098,-0.55895 -0.619574,-1.13369 -0.999019,-1.658 -0.348967,-0.52269 -0.678111,-1.05707 -0.967475,-1.61545 -0.300225,-0.53421 -0.660284,-1.03382 -0.931638,-1.58503 -0.29242,-0.50634 -0.617699,-0.99318 -0.899295,-1.50609 -0.300738,-0.4691 -0.568841,-0.9581 -0.878538,-1.42076 -0.270034,-0.41897 -0.538435,-0.83527 -0.839547,-1.23292 -0.275468,-0.41138 -0.553759,-0.81884 -0.785452,-1.25767 -0.224817,-0.40555 -0.473311,-0.79518 -0.720739,-1.18736 -0.221056,-0.38008 -0.44628,-0.75728 -0.674422,-1.13306 -0.209511,-0.38144 -0.451488,-0.74504 -0.634474,-1.14074 -0.217382,-0.40835 -0.425823,-0.82149 -0.639553,-1.23173 -0.220382,-0.421 -0.402627,-0.86072 -0.644105,-1.27106 -0.214995,-0.42892 -0.409829,-0.86447 -0.599736,-1.30512 -0.208256,-0.42859 -0.392613,-0.86844 -0.612921,-1.29128 -0.242792,-0.39736 -0.476551,-0.79926 -0.701339,-1.20698 -0.23891,-0.42617 -0.480433,-0.85184 -0.767061,-1.24795 -0.259723,-0.3858 -0.541539,-0.75628 -0.811929,-1.13453 -0.245137,-0.36721 -0.493435,-0.73399 -0.773888,-1.07536 -0.237133,-0.29204 -0.508066,-0.55433 -0.723776,-0.86317 -0.218892,-0.26115 -0.439957,-0.51771 -0.619225,-0.80888 -0.165526,-0.28054 -0.358167,-0.54398 -0.510752,-0.83222 -0.146976,-0.27297 -0.291222,-0.54653 -0.436229,-0.82043 -0.20774,-0.35663 -0.397402,-0.72208 -0.598353,-1.08263 -0.204356,-0.37174 -0.440494,-0.72575 -0.622334,-1.10965 -0.16224,-0.29663 -0.319379,-0.59591 -0.486005,-0.89005 -0.139555,-0.25353 -0.252101,-0.5215 -0.381974,-0.78005 -0.167725,-0.32518 -0.297236,-0.66945 -0.457875,-0.99823 -0.194529,-0.37464 -0.376949,-0.75549 -0.566293,-1.13275 -0.18938,-0.36062 -0.367101,-0.72723 -0.568198,-1.08168 -0.202411,-0.33426 -0.416295,-0.66106 -0.615166,-0.9972 -0.240824,-0.38039 -0.477849,-0.76366 -0.733261,-1.13432 -0.261009,-0.37153 -0.532146,-0.7359 -0.787379,-1.11147 -0.243808,-0.34359 -0.499949,-0.679 -0.785916,-0.98901 -0.298971,-0.36135 -0.578212,-0.73903 -0.868307,-1.10767 -0.296129,-0.34514 -0.564205,-0.71125 -0.853077,-1.06198 -0.26002,-0.32465 -0.512599,-0.65693 -0.713682,-1.02203 -0.248182,-0.37153 -0.502129,-0.73879 -0.74581,-1.11331 -0.184124,-0.31667 -0.31904,-0.65704 -0.498084,-0.97637 -0.180964,-0.31555 -0.315219,-0.65532 -0.489283,-0.97491 -0.194419,-0.31839 -0.376753,-0.64356 -0.579083,-0.95711 -0.218509,-0.35136 -0.426934,-0.70822 -0.646187,-1.05925 -0.208922,-0.36139 -0.420295,-0.72097 -0.684871,-1.04574 -0.327201,-0.41425 -0.628652,-0.84863 -0.957761,-1.26164 0,0 0.186801,-0.011 0.186801,-0.011 z"
       inkscape:connector-curvature="0" />
    <path
       style="opacity:1;fill:none;fill-opacity:1;fill-rule:nonzero;stroke:#000000;stroke-width:0.50000001;stroke-linecap:round;stroke-linejoin:round;stroke-miterlimit:4;stroke-dasharray:0.50000001,2.00000006;stroke-dashoffset:0;stroke-opacity:1;paint-order:markers fill stroke"
       id="path4768-0"
       d="m 82.483205,189.3522 c 0.328856,0.41244 0.62859,0.84744 0.956727,1.26018 0.265419,0.32528 0.476051,0.68633 0.685477,1.04843 0.218829,0.35115 0.42813,0.70729 0.646398,1.05864 0.201756,0.31399 0.385014,0.63865 0.579213,0.95726 0.173783,0.31986 0.306591,0.66063 0.489225,0.97537 0.178739,0.31946 0.312997,0.66001 0.497827,0.97629 0.244168,0.37376 0.497411,0.74102 0.745482,1.11219 0.200382,0.36501 0.453699,0.69639 0.713814,1.02039 0.28839,0.3508 0.556326,0.71666 0.852601,1.06139 0.290089,0.36878 0.568301,0.74762 0.868648,1.10795 0.28689,0.30972 0.54218,0.6464 0.78601,0.99043 0.25457,0.37602 0.52678,0.73968 0.78722,1.11157 0.25536,0.37103 0.49225,0.75469 0.73339,1.1352 0.19939,0.336 0.41292,0.6632 0.61553,0.99756 0.20083,0.35495 0.37821,0.72208 0.56806,1.08282 0.1893,0.37729 0.37134,0.75837 0.56627,1.13283 0.16109,0.32859 0.28887,0.67401 0.45853,0.99821 0.13048,0.25803 0.24092,0.52713 0.38215,0.77952 0.16673,0.29401 0.32296,0.59371 0.48535,0.89019 0.18139,0.3841 0.41827,0.73764 0.62211,1.10964 0.20029,0.36086 0.39104,0.72556 0.5987,1.08214 0.14455,0.27446 0.28999,0.54761 0.43672,0.82104 0.15245,0.28805 0.34584,0.55062 0.51037,0.83153 0.17955,0.29002 0.4007,0.54517 0.61899,0.80578 0.21568,0.30882 0.48669,0.57107 0.72348,0.86349 0.28039,0.34199 0.52838,0.70952 0.77377,1.0771 0.27062,0.37805 0.5528,0.74829 0.81189,1.13448 0.286713,0.39651 0.528103,0.82278 0.766903,1.24947 0.22486,0.40749 0.45853,0.80924 0.70157,1.20626 0.21935,0.42392 0.40394,0.86424 0.61297,1.29307 0.18897,0.44102 0.38465,0.87603 0.59962,1.3049 0.24228,0.40983 0.42305,0.8501 0.64394,1.27072 0.21401,0.41012 0.42209,0.82346 0.6399,1.2316 0.18277,0.39575 0.42553,0.75883 0.63452,1.14051 0.22885,0.3752 0.45317,0.75275 0.67437,1.13259 0.24833,0.39174 0.49573,0.78202 0.72038,1.18777 0.23106,0.43873 0.51062,0.84489 0.78552,1.25611 0.30224,0.39697 0.56898,0.81436 0.83928,1.23324 0.30947,0.46271 0.57716,0.95193 0.87816,1.42083 0.28113,0.5135 0.60723,1.00015 0.89937,1.50696 0.27073,0.55162 0.63215,1.05048 0.93144,1.58527 0.289,0.55808 0.61821,1.09195 0.96735,1.614 0.37967,0.52461 0.67539,1.10017 0.99904,1.65921 0.32083,0.57674 0.69037,1.12281 1.06247,1.66696 0.37212,0.51553 0.65284,1.08834 0.99399,1.62405 0.32679,0.53345 0.71413,1.02568 1.0606,1.54586 0.30045,0.51771 0.64765,1.00577 0.96524,1.51257 0.29602,0.50927 0.61421,1.00416 0.91325,1.51166 0.29743,0.49669 0.58381,0.99969 0.85298,1.51231 0.26515,0.51065 0.51723,1.02766 0.78985,1.53443 0.26671,0.51716 0.52705,1.03749 0.79647,1.55326 0.25461,0.52282 0.49524,1.0527 0.75994,1.57052 0.24278,0.53591 0.49774,1.06608 0.75552,1.59507 0.19486,0.42105 0.39523,0.83894 0.56893,1.26935 0,0 -0.18578,0.007 -0.18578,0.007 v 0 c -0.17377,-0.42987 -0.37393,-0.84739 -0.56848,-1.26807 -0.25786,-0.52883 -0.51242,-1.05911 -0.75563,-1.59472 -0.26422,-0.51801 -0.50515,-1.04766 -0.75992,-1.57035 -0.2695,-0.51563 -0.52948,-1.03605 -0.79633,-1.55303 -0.27282,-0.50678 -0.52466,-1.02403 -0.79017,-1.53461 -0.26919,-0.51229 -0.55541,-1.01506 -0.85285,-1.51141 -0.29869,-0.50751 -0.61718,-1.00205 -0.91317,-1.51115 -0.31772,-0.50652 -0.66417,-0.99485 -0.96512,-1.51206 -0.34679,-0.52006 -0.73374,-1.01269 -1.06049,-1.54627 -0.3403,-0.53593 -0.6216,-1.10817 -0.99373,-1.62344 -0.37253,-0.54437 -0.7412,-1.09151 -1.06264,-1.66835 -0.3231,-0.55895 -0.61957,-1.13369 -0.99902,-1.658 -0.34897,-0.52269 -0.67811,-1.05707 -0.96748,-1.61545 -0.30022,-0.53421 -0.66028,-1.03382 -0.93163,-1.58503 -0.29242,-0.50634 -0.6177,-0.99318 -0.8993,-1.50609 -0.30074,-0.4691 -0.56884,-0.9581 -0.87854,-1.42076 -0.27003,-0.41897 -0.53843,-0.83527 -0.83954,-1.23292 -0.27547,-0.41138 -0.55376,-0.81884 -0.78545,-1.25767 -0.22482,-0.40555 -0.47332,-0.79518 -0.72074,-1.18736 -0.22106,-0.38008 -0.44628,-0.75728 -0.67443,-1.13306 -0.20951,-0.38144 -0.45148,-0.74504 -0.63447,-1.14074 -0.21738,-0.40835 -0.42582,-0.82149 -0.63955,-1.23173 -0.22038,-0.421 -0.40263,-0.86072 -0.64411,-1.27106 -0.21499,-0.42892 -0.40983,-0.86447 -0.59973,-1.30512 -0.20826,-0.42859 -0.39262,-0.86844 -0.61292,-1.29128 -0.2428,-0.39736 -0.47656,-0.79926 -0.70134,-1.20698 -0.23891,-0.42617 -0.48044,-0.85184 -0.767073,-1.24795 -0.25972,-0.3858 -0.54153,-0.75628 -0.81192,-1.13453 -0.24514,-0.36721 -0.49344,-0.73399 -0.77389,-1.07536 -0.23713,-0.29204 -0.50807,-0.55433 -0.72378,-0.86317 -0.21889,-0.26115 -0.43996,-0.51771 -0.61922,-0.80888 -0.16553,-0.28054 -0.35817,-0.54398 -0.51075,-0.83222 -0.14698,-0.27297 -0.29123,-0.54653 -0.43623,-0.82043 -0.20774,-0.35663 -0.39741,-0.72208 -0.59836,-1.08263 -0.20435,-0.37174 -0.44049,-0.72575 -0.62233,-1.10965 -0.16224,-0.29663 -0.31938,-0.59591 -0.48601,-0.89005 -0.13955,-0.25353 -0.2521,-0.5215 -0.38197,-0.78005 -0.16772,-0.32518 -0.29724,-0.66945 -0.45788,-0.99823 -0.19452,-0.37464 -0.37694,-0.75549 -0.56629,-1.13275 -0.18938,-0.36062 -0.3671,-0.72723 -0.5682,-1.08168 -0.20241,-0.33426 -0.41629,-0.66106 -0.61516,-0.9972 -0.24083,-0.38039 -0.47785,-0.76366 -0.73326,-1.13432 -0.26101,-0.37153 -0.53215,-0.7359 -0.78738,-1.11147 -0.24381,-0.34359 -0.49995,-0.679 -0.785918,-0.98901 -0.298971,-0.36135 -0.578212,-0.73903 -0.868307,-1.10767 -0.296129,-0.34514 -0.564205,-0.71125 -0.853077,-1.06198 -0.26002,-0.32465 -0.512599,-0.65693 -0.713682,-1.02203 -0.248182,-0.37153 -0.502129,-0.73879 -0.74581,-1.11331 -0.184124,-0.31667 -0.31904,-0.65704 -0.498084,-0.97637 -0.180964,-0.31555 -0.315219,-0.65532 -0.489283,-0.97491 -0.194419,-0.3184 -0.376753,-0.64357 -0.579083,-0.95712 -0.218509,-0.35136 -0.426934,-0.70822 -0.646187,-1.05925 -0.208922,-0.36139 -0.420295,-0.72097 -0.684871,-1.04574 -0.327201,-0.41425 -0.628652,-0.84863 -0.957761,-1.26164 0,0 0.186801,-0.011 0.186801,-0.011 z"
       inkscape:connector-curvature="0" />
    <path
       style="opacity:1;fill:none;fill-opacity:1;fill-rule:nonzero;stroke:#000000;stroke-width:0.5;stroke-linecap:round;stroke-linejoin:round;stroke-miterlimit:4;stroke-dasharray:0.5,1.5;stroke-dashoffset:0;stroke-opacity:1;paint-order:markers fill stroke"
       id="path4799"
       d="m 195.22497,163.9592 c -0.12725,0.5549 -0.10227,1.12292 -0.0944,1.68741 0.013,0.63536 -0.003,1.2707 -0.0205,1.90579 -0.0208,0.75965 0.0421,1.51861 0.0569,2.27834 0.0112,0.83623 -0.015,1.67232 -0.0414,2.50801 -0.02,0.86484 -0.0853,1.72882 -0.0721,2.59398 0.0385,0.89877 0.0523,1.79793 0.0446,2.69741 -0.0193,0.87183 -0.0525,1.74123 -0.0201,2.61292 0.0534,0.83478 0.019,1.67159 0.0523,2.5066 0.0555,0.80038 0.0737,1.60183 0.0695,2.40387 -0.0142,0.79948 0.0511,1.59754 0.07,2.39671 0.005,0.73461 0.0805,1.46603 0.10597,2.20011 0.0807,0.72328 0.0938,1.45128 0.1493,2.17616 0.0792,0.79855 0.0937,1.60101 0.0916,2.40282 -0.0134,0.75761 0.0521,1.51374 0.075,2.27082 0.0155,0.67037 -0.004,1.34079 -0.024,2.01083 -0.0481,0.63479 -0.0248,1.26636 0.0159,1.90035 0.0404,0.59358 0.0401,1.1885 0.0304,1.783 -0.0125,0.55779 -0.0329,1.11538 -0.0543,1.67287 -0.0476,0.51465 -0.016,1.02415 0.0283,1.53705 0.0459,0.49599 0.0473,0.99423 0.0421,1.49177 -0.002,0.50722 -0.051,1.0138 -0.0263,1.52062 0.0543,0.51877 0.0805,1.03882 0.0865,1.56019 -0.0302,0.50831 0.0408,1.01157 0.0807,1.51687 0.0363,0.49404 0.0284,0.98968 0.0167,1.48444 -0.0131,0.5156 0.0576,1.029 0.083,1.54394 0.0112,0.5789 -0.002,1.15504 0.0403,1.7328 0.0575,0.619 0.0606,1.24081 0.0553,1.86182 0.0363,0.61955 0.084,1.23775 0.0991,1.85837 0.007,0.59881 -0.0124,1.1975 -0.0325,1.79589 -0.0233,0.61891 0.0453,1.23695 0.0679,1.85545 0.0186,0.60578 0.002,1.21184 -0.0159,1.81738 -0.019,0.59562 -0.0422,1.1911 -0.0649,1.7866 -0.0222,0.58066 -0.0433,1.16134 -0.0649,1.74202 -0.02,0.54142 -0.0399,1.08286 -0.0599,1.62431 -0.011,0.54269 -0.0318,1.08098 -0.11365,1.61773 -0.0927,0.52487 -0.14408,1.05503 -0.18163,1.58627 -0.0337,0.53876 -0.0532,1.07829 -0.0735,1.61771 -0.0178,0.50336 -0.0365,1.00671 -0.0552,1.51006 -0.0591,0.42664 -0.15039,0.84717 -0.20158,1.27509 -0.0457,0.43311 -0.0648,0.86843 -0.0833,1.30338 -0.0166,0.43297 -0.0321,0.86598 -0.0477,1.29898 -0.014,0.38489 -0.0281,0.76977 -0.042,1.15467 -0.0209,0.31711 0.0437,0.63188 0.079,0.94607 0,0 -0.18677,-0.004 -0.18677,-0.004 v 0 c -0.0353,-0.31509 -0.0999,-0.63081 -0.0789,-0.94883 0.014,-0.38489 0.0281,-0.76976 0.042,-1.15466 0.0156,-0.43304 0.031,-0.86608 0.0477,-1.29909 0.0177,-0.43546 0.0381,-0.87117 0.0832,-1.3048 0.0507,-0.42753 0.14204,-0.84748 0.20177,-1.27356 0.0188,-0.50335 0.0365,-1.00673 0.0552,-1.51008 0.02,-0.53963 0.0397,-1.07932 0.0733,-1.61833 0.0378,-0.53173 0.0887,-1.06242 0.18179,-1.58775 0.0811,-0.53608 0.10253,-1.07365 0.11358,-1.61561 0.0199,-0.54144 0.0398,-1.08288 0.0599,-1.62434 0.0212,-0.58068 0.0433,-1.16133 0.0652,-1.742 0.0226,-0.59545 0.0462,-1.19086 0.0649,-1.78645 0.0183,-0.60513 0.0349,-1.21079 0.016,-1.81614 -0.0222,-0.61897 -0.0914,-1.2374 -0.068,-1.85678 0.0197,-0.59803 0.0405,-1.19636 0.0323,-1.7948 -0.0148,-0.62082 -0.0626,-1.23921 -0.0988,-1.85898 0.005,-0.62056 0.002,-1.24178 -0.0554,-1.86031 -0.0421,-0.5779 -0.029,-1.15423 -0.0407,-1.73326 -0.0254,-0.51537 -0.0969,-1.02921 -0.083,-1.54529 0.0115,-0.49414 0.0191,-0.98912 -0.0166,-1.48255 -0.0399,-0.5057 -0.10998,-1.00944 -0.0798,-1.51812 -0.006,-0.52116 -0.0328,-1.04095 -0.0865,-1.55954 -0.025,-0.50715 0.0248,-1.01411 0.026,-1.52172 0.006,-0.49698 0.003,-0.99457 -0.0419,-1.48996 -0.0442,-0.51363 -0.0751,-1.02395 -0.0274,-1.53933 0.0205,-0.5574 0.0419,-1.11483 0.0544,-1.67246 0.01,-0.59401 0.01,-1.18844 -0.0304,-1.78153 -0.0408,-0.63458 -0.0639,-1.26672 -0.0159,-1.9021 0.0207,-0.66965 0.0389,-1.33972 0.0242,-2.00969 -0.0224,-0.7573 -0.0877,-1.51361 -0.0743,-2.27139 0.002,-0.80135 -0.0132,-1.60331 -0.0921,-2.40138 -0.0555,-0.72516 -0.0693,-1.45338 -0.14963,-2.17694 -0.0267,-0.73406 -0.1012,-1.46564 -0.10599,-2.20028 -0.0191,-0.79935 -0.0835,-1.59759 -0.0697,-2.39724 0.004,-0.80177 -0.0142,-1.60295 -0.0695,-2.40305 -0.0335,-0.83499 7.8e-4,-1.67184 -0.0521,-2.50664 -0.0322,-0.87199 0.002,-1.74163 0.0205,-2.61373 0.008,-0.89935 -0.006,-1.79837 -0.0449,-2.697 -0.0129,-0.86544 0.0522,-1.7297 0.0722,-2.59482 0.0269,-0.83538 0.0528,-1.67116 0.0416,-2.50707 -0.0146,-0.76004 -0.0788,-1.51924 -0.0575,-2.27925 0.0179,-0.63483 0.0317,-1.26993 0.0199,-1.90501 -0.007,-0.56569 -0.0323,-1.13468 0.093,-1.69109 0,0 0.18689,0.01 0.18689,0.01 z"
       inkscape:connector-curvature="0" />
    <path
       style="opacity:1;fill:none;fill-opacity:1;fill-rule:nonzero;stroke:#000000;stroke-width:0.5;stroke-linecap:round;stroke-linejoin:round;stroke-miterlimit:4;stroke-dasharray:0.5,1.5;stroke-dashoffset:0;stroke-opacity:1;paint-order:markers fill stroke"
       id="path4799-8"
       d="m 240.64488,245.83253 c 0.12559,-0.55528 0.0989,-1.12324 0.0893,-1.68771 -0.0139,-0.63532 -8.2e-4,-1.27071 0.0151,-1.90582 0.0191,-0.7597 -0.0467,-1.51848 -0.0638,-2.27815 -0.0135,-0.8362 0.0102,-1.67236 0.034,-2.50817 0.0175,-0.86488 0.0801,-1.72903 0.0644,-2.59414 -0.0419,-0.89863 -0.0577,-1.79778 -0.0528,-2.6973 0.0163,-0.87186 0.0473,-1.74134 0.012,-2.61294 -0.0559,-0.83461 -0.0242,-1.6715 -0.0598,-2.50643 -0.0583,-0.80018 -0.0787,-1.60159 -0.0768,-2.40364 0.0118,-0.79954 -0.0561,-1.59737 -0.0772,-2.3965 -0.006,-0.73459 -0.0849,-1.46576 -0.11325,-2.19975 -0.083,-0.72304 -0.0987,-1.45093 -0.15548,-2.17571 -0.0815,-0.79833 -0.0985,-1.60074 -0.0985,-2.40258 0.0114,-0.75762 -0.0568,-1.51355 -0.0815,-2.27058 -0.0172,-0.67029 -0.001,-1.3408 0.0172,-2.0109 0.0461,-0.63492 0.0211,-1.26643 -0.0218,-1.90028 -0.0421,-0.59347 -0.0438,-1.18837 -0.0361,-1.7829 0.0109,-0.55783 0.0299,-1.11545 0.0498,-1.67301 0.0458,-0.51478 0.0137,-1.02423 -0.0325,-1.53697 -0.0472,-0.49586 -0.0506,-0.99406 -0.0462,-1.49166 5.2e-4,-0.50721 0.0481,-1.01396 0.0217,-1.52068 -0.0559,-0.51861 -0.0831,-1.03859 -0.0912,-1.55994 0.0286,-0.50839 -0.0441,-1.01141 -0.0849,-1.51663 -0.0377,-0.49393 -0.0313,-0.98958 -0.0215,-1.48438 0.0115,-0.51565 -0.0608,-1.02882 -0.0875,-1.54367 -0.0128,-0.57888 -0.001,-1.15505 -0.0456,-1.73269 -0.0593,-0.61881 -0.0647,-1.24059 -0.0611,-1.86163 -0.0388,-0.61939 -0.0878,-1.23748 -0.10469,-1.85805 -0.01,-0.5988 0.009,-1.19754 0.027,-1.79599 0.0218,-0.61898 -0.0496,-1.23678 -0.0739,-1.85524 -0.0208,-0.6057 -0.006,-1.21182 0.0104,-1.81741 0.0173,-0.59568 0.0385,-1.19123 0.0598,-1.78676 0.0202,-0.58074 0.0405,-1.16144 0.0602,-1.74219 0.0183,-0.54149 0.0367,-1.08299 0.055,-1.6245 0.0104,-0.54269 0.0285,-1.08106 0.10873,-1.61805 0.0912,-0.52516 0.14089,-1.05547 0.17683,-1.58683 0.0322,-0.53886 0.05,-1.07845 0.0687,-1.61791 0.017,-0.50341 0.0329,-1.00683 0.05,-1.51027 0.0577,-0.42681 0.14783,-0.84758 0.19771,-1.27565 0.0444,-0.43328 0.0622,-0.86864 0.0794,-1.30366 0.0158,-0.43299 0.0299,-0.86605 0.0435,-1.29912 0.0117,-0.38497 0.0254,-0.76986 0.0383,-1.15481 0.0194,-0.31718 -0.0459,-0.63174 -0.0819,-0.94583 0,0 0.18678,0.002 0.18678,0.002 v 0 c 0.0363,0.31499 0.1019,0.63052 0.0817,0.94861 -0.0132,0.38492 -0.0254,0.76985 -0.0383,1.15478 -0.0145,0.43308 -0.0289,0.86618 -0.0444,1.29923 -0.0166,0.4355 -0.035,0.87128 -0.0793,1.30505 -0.0493,0.42766 -0.13949,0.8479 -0.19794,1.27414 -0.017,0.50342 -0.033,1.00688 -0.051,1.51024 -0.0185,0.5397 -0.0366,1.07945 -0.0686,1.61853 -0.036,0.53185 -0.0853,1.06271 -0.17699,1.58831 -0.0795,0.53631 -0.0993,1.07395 -0.10867,1.61595 -0.0183,0.54149 -0.0367,1.08301 -0.055,1.6245 -0.0198,0.58072 -0.0395,1.16148 -0.0602,1.7422 -0.0203,0.59551 -0.0424,1.19099 -0.0599,1.78661 -0.0165,0.60519 -0.0312,1.21089 -0.0105,1.81618 0.0243,0.61889 0.0948,1.23716 0.0739,1.85655 -0.0184,0.59809 -0.0367,1.1965 -0.027,1.79491 0.0164,0.62078 0.0661,1.23903 0.10441,1.85867 -0.004,0.62057 0.002,1.24178 0.061,1.86013 0.044,0.57776 0.0325,1.15414 0.0461,1.73312 0.0274,0.51529 0.0999,1.02891 0.0877,1.54504 -0.009,0.49418 -0.0164,0.98918 0.0216,1.48247 0.0417,0.50559 0.11305,1.00912 0.0846,1.51787 0.007,0.52115 0.0362,1.04083 0.0911,1.55927 0.0261,0.50711 -0.0215,1.01419 -0.0219,1.52179 -0.005,0.49699 -9.7e-4,0.99457 0.0461,1.48984 0.0462,0.5135 0.078,1.02376 0.0324,1.53925 -0.019,0.55745 -0.0389,1.11494 -0.0497,1.67261 -0.008,0.59404 -0.006,1.18847 0.0361,1.78142 0.0431,0.63444 0.0681,1.26651 0.0218,1.90206 -0.0189,0.66969 -0.0351,1.33981 -0.018,2.00974 0.0245,0.75721 0.0923,1.51332 0.0815,2.27115 0.002,0.80135 0.0175,1.60326 0.0994,2.40108 0.0579,0.72496 0.0734,1.45314 0.15651,2.17644 0.0282,0.73403 0.10571,1.46531 0.11276,2.19994 0.0211,0.79931 0.0886,1.59732 0.0769,2.39701 -0.002,0.80177 0.0193,1.60288 0.0768,2.40284 0.0354,0.83492 0.004,1.67183 0.0598,2.50646 0.0348,0.87189 0.003,1.74163 -0.013,2.61378 -0.004,0.89939 0.0114,1.79836 0.0531,2.69685 0.0153,0.86541 -0.0471,1.72985 -0.0643,2.59502 -0.0238,0.83549 -0.0477,1.67133 -0.034,2.5072 0.0173,0.75999 0.0827,1.51902 0.0643,2.27907 -0.0157,0.63487 -0.0285,1.27002 -0.014,1.90506 0.01,0.56566 0.0357,1.13458 -0.0878,1.69134 0,0 -0.18694,-0.008 -0.18694,-0.008 z"
       inkscape:connector-curvature="0" />
    <circle
       style="opacity:1;fill:#0b34bc;fill-opacity:1;fill-rule:nonzero;stroke:#0b34bc;stroke-width:0.5;stroke-linecap:round;stroke-linejoin:round;stroke-miterlimit:4;stroke-dasharray:none;stroke-dashoffset:0;stroke-opacity:1;paint-order:markers fill stroke"
       id="path4822-3"
       cx="48.569942"
       cy="194.94643"
       r="1.5119048" />
    <circle
       style="opacity:1;fill:#0b34bc;fill-opacity:1;fill-rule:nonzero;stroke:#0b34bc;stroke-width:0.5;stroke-linecap:round;stroke-linejoin:round;stroke-miterlimit:4;stroke-dasharray:none;stroke-dashoffset:0;stroke-opacity:1;paint-order:markers fill stroke"
       id="path4822-0"
       cx="100.73066"
       cy="218.00299"
       r="1.5119048" />
    <circle
       style="opacity:1;fill:#0b34bc;fill-opacity:1;fill-rule:nonzero;stroke:#0b34bc;stroke-width:0.5;stroke-linecap:round;stroke-linejoin:round;stroke-miterlimit:4;stroke-dasharray:none;stroke-dashoffset:0;stroke-opacity:1;paint-order:markers fill stroke"
       id="path4822-7"
       cx="75.028282"
       cy="207.9866"
       r="1.5119048" />
    <circle
       style="opacity:1;fill:#e422a7;fill-opacity:1;fill-rule:nonzero;stroke:#e422a7;stroke-width:0.5;stroke-linecap:round;stroke-linejoin:round;stroke-miterlimit:4;stroke-dasharray:none;stroke-dashoffset:0;stroke-opacity:1;paint-order:markers fill stroke"
       id="path4822-5"
       cx="195.60268"
       cy="205.71875"
       r="1.5119048" />
    <circle
       style="opacity:1;fill:#e422a7;fill-opacity:1;fill-rule:nonzero;stroke:#e422a7;stroke-width:0.5;stroke-linecap:round;stroke-linejoin:round;stroke-miterlimit:4;stroke-dasharray:none;stroke-dashoffset:0;stroke-opacity:1;paint-order:markers fill stroke"
       id="path4822-6"
       cx="217.90327"
       cy="206.6637"
       r="1.5119048" />
    <circle
       style="opacity:1;fill:#e422a7;fill-opacity:1;fill-rule:nonzero;stroke:#e422a7;stroke-width:0.5;stroke-linecap:round;stroke-linejoin:round;stroke-miterlimit:4;stroke-dasharray:none;stroke-dashoffset:0;stroke-opacity:1;paint-order:markers fill stroke"
       id="path4822-54"
       cx="240.20386"
       cy="207.41965"
       r="1.5119048" />
    <circle
       style="opacity:1;fill:#e422a7;fill-opacity:1;fill-rule:nonzero;stroke:#e422a7;stroke-width:0.5;stroke-linecap:round;stroke-linejoin:round;stroke-miterlimit:4;stroke-dasharray:none;stroke-dashoffset:0;stroke-opacity:1;paint-order:markers fill stroke"
       id="path4822-47"
       cx="258.53574"
       cy="242.9494"
       r="1.5119048" />
    <circle
       style="opacity:1;fill:#0b34bc;fill-opacity:1;fill-rule:nonzero;stroke:#0b34bc;stroke-width:0.5;stroke-linecap:round;stroke-linejoin:round;stroke-miterlimit:4;stroke-dasharray:none;stroke-dashoffset:0;stroke-opacity:1;paint-order:markers fill stroke"
       id="path4822-43"
       cx="110.36905"
       cy="178.88245"
       r="1.5119048" />
    <path
       style="opacity:1;fill:none;fill-opacity:1;fill-rule:nonzero;stroke:#000000;stroke-width:1;stroke-linecap:round;stroke-linejoin:round;stroke-miterlimit:4;stroke-dasharray:none;stroke-dashoffset:0;stroke-opacity:1;paint-order:markers fill stroke"
       id="path4902"
       d="m 53.743582,189.43635 c -0.157708,0.60054 -0.222587,1.21789 -0.323425,1.82871 -0.09673,0.5993 -0.206099,1.19695 -0.338965,1.78941 -0.09829,0.48906 -0.211802,0.97356 -0.32434,1.45939 -0.06373,0.24957 -0.04322,0.54115 -0.211751,0.7506 -0.05764,-0.0333 -0.133935,-0.0459 -0.172921,-0.0999 -0.02302,-0.0318 0.01159,-0.0777 0.0164,-0.11674 0.02951,-0.23992 0.03623,-0.48176 0.04458,-0.7231 0.06354,-0.51769 0.129296,-1.03427 0.221789,-1.54762 0.09517,-0.57009 0.219123,-1.13553 0.348451,-1.69889 0.102741,-0.50702 0.187259,-1.01864 0.323935,-1.51812 0.09588,-0.28292 0.09335,-0.73182 0.453014,-0.79543 0.09316,0.0106 0.18913,0.007 0.27949,0.0318 0.204767,0.0567 0.407181,0.5262 0.490588,0.69204 0.229886,0.55206 0.397491,1.12624 0.569918,1.69788 0.186621,0.65376 0.39071,1.30294 0.544367,1.96552 0.150706,0.58604 0.29051,1.17551 0.417311,1.76728 0.127574,0.4346 0.223555,0.87655 0.346459,1.31223 0.05698,0.18162 0.08646,0.36329 0.09459,0.55245 0,0 -0.187079,7.9e-4 -0.187079,7.9e-4 v 0 c -0.0078,-0.18773 -0.03764,-0.36787 -0.09409,-0.54811 -0.122835,-0.43602 -0.218638,-0.87837 -0.345683,-1.31344 -0.126466,-0.59169 -0.266309,-1.18098 -0.416613,-1.76698 -0.153786,-0.66215 -0.357703,-1.31093 -0.544269,-1.96432 -0.172456,-0.57066 -0.339934,-1.14406 -0.571146,-1.6946 -0.107547,-0.21289 -0.205028,-0.4473 -0.388966,-0.60882 -0.0307,-0.027 -0.098,-0.0277 -0.101764,-0.0683 -0.003,-0.0322 0.06187,-0.019 0.09281,-0.0285 -0.363402,0.0366 -0.357759,0.50004 -0.452688,0.7736 -0.137483,0.49905 -0.221682,1.01056 -0.324528,1.51733 -0.129445,0.56302 -0.253317,1.12821 -0.348324,1.69801 -0.09245,0.51243 -0.157781,1.02813 -0.220967,1.54494 -0.0029,0.0864 -0.01503,0.80171 -0.05967,0.8423 -0.05406,0.0491 -0.135475,0.0548 -0.203213,0.0821 0.179848,-0.19518 0.146007,-0.4986 0.213497,-0.74019 0.112668,-0.48582 0.227068,-0.97014 0.325298,-1.45924 0.132908,-0.59213 0.242305,-1.18942 0.339272,-1.78835 0.100902,-0.61056 0.165949,-1.22758 0.321501,-1.82833 0,0 0.187139,0.003 0.187139,0.003 z"
       inkscape:connector-curvature="0" />
    <path
       style="opacity:1;fill:none;fill-opacity:1;fill-rule:nonzero;stroke:#000000;stroke-width:1;stroke-linecap:round;stroke-linejoin:round;stroke-miterlimit:4;stroke-dasharray:none;stroke-dashoffset:0;stroke-opacity:1;paint-order:markers fill stroke"
       id="path4904"
       d="m 52.793296,193.58758 c 0.525418,-0.0742 1.054322,-0.11753 1.583978,-0.14587 0.257517,-0.0153 0.50573,0.0276 0.757492,0.0677 0,0 -0.185071,0.0263 -0.185071,0.0263 v 0 c -0.12142,-0.0191 -0.27415,-0.0274 -0.388387,-0.0659 -0.529241,0.0276 -1.057791,0.0701 -1.582761,0.14437 0,0 -0.185251,-0.0267 -0.185251,-0.0267 z"
       inkscape:connector-curvature="0" />
    <path
       style="opacity:1;fill:none;fill-opacity:1;fill-rule:nonzero;stroke:#000000;stroke-width:1;stroke-linecap:round;stroke-linejoin:round;stroke-miterlimit:4;stroke-dasharray:none;stroke-dashoffset:0;stroke-opacity:1;paint-order:markers fill stroke"
       id="path4906"
       d="m 93.667129,222.94608 c 0.0962,-0.54255 0.343244,-1.03406 0.65944,-1.47962 0.317939,-0.39593 0.689361,-0.38866 1.154781,-0.33861 0.322808,0.15147 0.374685,0.48905 0.413843,0.80918 -0.01548,0.36686 -0.07787,0.72864 -0.187555,1.07841 -0.105923,0.31382 -0.154858,0.63008 -0.109175,0.95792 0.08864,0.3772 0.378878,0.60525 0.675767,0.82272 0.340355,0.19267 0.668703,0.41019 1.021763,0.57906 0.276222,0.128 0.483515,0.31649 0.66608,0.55598 0.231254,0.27211 0.316291,0.57865 0.310621,0.92842 -0.04492,0.35833 -0.245425,0.60992 -0.509384,0.83969 -0.300659,0.27286 -0.665887,0.40278 -1.057476,0.47588 -0.437166,0.0495 -0.831019,-0.0634 -1.238533,-0.1901 -0.138787,-0.0581 -0.267478,-0.12534 -0.391245,-0.21018 0,0 0.186479,-0.0183 0.186479,-0.0183 v 0 c 0.123769,0.0822 0.251984,0.14941 0.390358,0.2048 0.287425,0.09 0.574281,0.19813 0.867942,0.18789 0.390408,-0.0699 0.756026,-0.19476 1.056293,-0.46603 0.262393,-0.22427 0.462381,-0.4708 0.508611,-0.82396 0.0056,-0.34623 -0.08116,-0.64742 -0.310694,-0.91584 -0.183034,-0.23614 -0.390192,-0.42151 -0.664859,-0.54734 -0.352263,-0.17167 -0.682715,-0.38663 -1.021799,-0.58251 -0.300056,-0.22109 -0.589339,-0.45577 -0.677175,-0.83761 -0.04546,-0.33052 0.0028,-0.64977 0.109434,-0.9662 0.109461,-0.34717 0.172159,-0.70603 0.187593,-1.07042 -0.03887,-0.31404 -0.08943,-0.64616 -0.412309,-0.78622 0.168146,-0.21047 -0.90112,0.18728 -0.783418,0.3249 -0.316994,0.44159 -0.563842,0.93065 -0.658241,1.47074 0,0 -0.187142,-0.003 -0.187142,-0.003 z"
       inkscape:connector-curvature="0" />
    <path
       style="opacity:1;fill:none;fill-opacity:1;fill-rule:nonzero;stroke:#000000;stroke-width:1;stroke-linecap:round;stroke-linejoin:round;stroke-miterlimit:4;stroke-dasharray:none;stroke-dashoffset:0;stroke-opacity:1;paint-order:markers fill stroke"
       id="path4908"
       d="m 93.521267,223.85012 c 0.209121,0.60038 0.442563,1.19234 0.679812,1.78211 0.168093,0.46233 0.356254,0.91852 0.475999,1.39647 0.03671,0.24233 0.08239,0.47935 0.145582,0.71614 0,0 -0.187053,0.005 -0.187053,0.005 v 0 c -0.06288,-0.23689 -0.107847,-0.47421 -0.145073,-0.71642 -0.11973,-0.47696 -0.307227,-0.93245 -0.474734,-1.39398 -0.236877,-0.59025 -0.469805,-1.18258 -0.681194,-1.78249 0,0 0.186661,-0.007 0.186661,-0.007 z"
       inkscape:connector-curvature="0" />
    <path
       style="opacity:1;fill:none;fill-opacity:1;fill-rule:nonzero;stroke:#000000;stroke-width:1;stroke-linecap:round;stroke-linejoin:round;stroke-miterlimit:4;stroke-dasharray:none;stroke-dashoffset:0;stroke-opacity:1;paint-order:markers fill stroke"
       id="path4914"
       d="m 69.739581,214.55334 c -0.334069,0.43261 -0.57893,0.91356 -0.73555,1.43546 -0.105693,0.39978 -0.118414,0.81377 -0.12478,1.22468 -0.01177,0.38651 0.08648,0.76445 0.194283,1.13227 0.138198,0.34547 0.241245,0.70472 0.439867,1.02182 0.166585,0.29978 0.399323,0.55095 0.650831,0.78082 0.265811,0.26597 0.600503,0.37941 0.96145,0.44366 0.304866,0.0524 0.498782,0.0216 0.802032,-0.0862 0.286104,-0.0956 0.494403,-0.30167 0.695391,-0.51626 0.220387,-0.29581 0.441476,-0.59671 0.614177,-0.92344 0.151673,-0.33254 0.25971,-0.67504 0.320725,-1.03494 0.02387,-0.38733 -0.0898,-0.75462 -0.183877,-1.12456 -0.121637,-0.39314 -0.274727,-0.77489 -0.478417,-1.13259 -0.226608,-0.37076 -0.504531,-0.69202 -0.815102,-0.99201 -0.240678,-0.19378 -0.502822,-0.36113 -0.798105,-0.45591 -0.33719,-0.0975 -0.465542,-0.0628 -0.76667,-0.007 -0.163301,0.0314 -0.299693,0.1227 -0.440936,0.20426 0,0 -0.186116,-0.0195 -0.186116,-0.0195 v 0 c 0.141812,-0.0824 0.277887,-0.17688 0.441643,-0.21058 0.37869,-0.0715 0.762349,-0.10134 1.137854,0.009 0.295029,0.0988 0.558821,0.26753 0.798642,0.46433 0.311544,0.3008 0.587425,0.62629 0.815044,0.99737 0.203528,0.35955 0.357415,0.74273 0.478861,1.13757 0.09482,0.37244 0.208158,0.74244 0.18401,1.13234 -0.061,0.36189 -0.169133,0.70619 -0.320771,1.04086 -0.172169,0.32874 -0.395422,0.62978 -0.614471,0.92842 -0.201355,0.21642 -0.408913,0.42704 -0.695975,0.52503 -0.373597,0.14021 -0.780754,0.15018 -1.173033,0.0893 -0.362352,-0.0675 -0.696365,-0.18666 -0.962753,-0.45411 -0.251042,-0.23248 -0.484484,-0.48452 -0.651325,-0.78588 -0.196625,-0.31988 -0.302096,-0.67956 -0.439642,-1.02689 -0.108199,-0.36964 -0.206155,-0.74956 -0.1944,-1.13788 0.0065,-0.41264 0.01947,-0.82832 0.125431,-1.22981 0.156681,-0.52341 0.40118,-1.0063 0.734883,-1.44104 0,0 0.186799,0.011 0.186799,0.011 z"
       inkscape:connector-curvature="0" />
    <path
       style="opacity:1;fill:none;fill-opacity:1;fill-rule:nonzero;stroke:#000000;stroke-width:1;stroke-linecap:round;stroke-linejoin:round;stroke-miterlimit:4;stroke-dasharray:none;stroke-dashoffset:0;stroke-opacity:1;paint-order:markers fill stroke"
       id="path4918"
       d="m 107.49447,169.54078 c -0.14898,-0.0881 -1.06059,-0.44386 -1.16723,-0.31306 -0.43729,0.0415 -0.74609,0.29632 -1.04388,0.59368 -0.29345,0.31551 -0.48334,0.69578 -0.6534,1.08677 -0.15989,0.40479 -0.18729,0.84303 -0.20859,1.2731 -0.0253,0.40338 0.0706,0.79911 0.1812,1.18359 0.0973,0.39618 0.26907,0.7764 0.50435,1.10933 0.208,0.33355 0.47829,0.60137 0.81995,0.79369 0.21673,0.0865 0.45739,0.18456 0.69684,0.15352 0.0109,-0.001 -0.0386,-0.0114 -0.0287,-0.0161 0.049,-0.0233 0.10441,-0.0298 0.15662,-0.0447 0.33957,-0.16123 0.65001,-0.38587 0.9307,-0.63501 0.16543,-0.13683 0.0871,-0.066 0.23542,-0.21178 0,0 0.18664,0.0148 0.18664,0.0148 v 0 c -0.14816,0.1476 -0.0698,0.0765 -0.23572,0.21272 -0.28053,0.25214 -0.59352,0.47518 -0.93146,0.64323 -0.4015,0.1228 -0.81837,0.0785 -1.19611,-0.0971 -0.34103,-0.19671 -0.61171,-0.46688 -0.82049,-0.80191 -0.23419,-0.33609 -0.40729,-0.71715 -0.50467,-1.11553 -0.11095,-0.38647 -0.20647,-0.78438 -0.18111,-1.18973 0.0215,-0.43221 0.0491,-0.87268 0.20867,-1.27982 0.17031,-0.39312 0.3607,-0.7754 0.65397,-1.09374 0.2979,-0.29966 0.60606,-0.5612 1.04512,-0.60642 0.54963,-0.0291 1.05233,0.0378 1.53811,0.32205 0,0 -0.18622,0.0184 -0.18622,0.0184 z"
       inkscape:connector-curvature="0" />
    <path
       style="opacity:1;fill:none;fill-opacity:1;fill-rule:nonzero;stroke:#000000;stroke-width:1;stroke-linecap:round;stroke-linejoin:round;stroke-miterlimit:4;stroke-dasharray:none;stroke-dashoffset:0;stroke-opacity:1;paint-order:markers fill stroke"
       id="path4920"
       d="m 180.88722,206.25875 c -0.26711,0.59086 -0.49034,1.20166 -0.67642,1.82261 -0.13291,0.44907 -0.17938,0.91392 -0.19909,1.37965 -0.005,0.17694 -0.007,0.35398 -0.006,0.53099 9e-5,0.0326 0.0287,0.11616 0.002,0.0977 -0.0498,-0.0344 -0.0944,-0.0758 -0.14161,-0.11372 0.0936,-0.37287 0.20223,-0.74165 0.30648,-1.11191 0.13168,-0.5894 0.30184,-1.16647 0.4824,-1.7422 0.20791,-0.66907 0.41965,-1.33596 0.66419,-1.9928 0.1683,-0.54519 0.4028,-1.06617 0.59185,-1.60363 0.11395,-0.31477 0.17874,-0.66894 0.36909,-0.94938 0.33341,-0.24816 0.46815,0.0629 0.57515,0.31747 0.13291,0.42821 0.15579,0.88152 0.22339,1.32356 0.0831,0.6382 0.11136,1.28026 0.18772,1.91929 0.0965,0.68097 0.0893,1.37049 0.15728,2.0535 0.0668,0.53741 0.1059,1.07652 0.21165,1.60793 0.0362,0.36404 0.1581,0.71468 0.20764,1.07455 0.004,0.15962 0.005,0.0867 -0.002,0.21877 0,0 -0.18798,-0.001 -0.18798,-0.001 v 0 c 0.008,-0.12981 0.006,-0.0581 0.002,-0.21512 -0.0494,-0.35944 -0.17019,-0.70995 -0.20658,-1.07345 -0.10528,-0.53207 -0.14368,-1.07181 -0.21061,-1.60976 -0.0673,-0.68295 -0.0604,-1.3723 -0.15709,-2.05313 -0.0765,-0.63882 -0.10441,-1.28075 -0.18846,-1.91866 -0.0677,-0.4405 -0.0904,-0.89258 -0.22461,-1.31889 -0.0526,-0.12326 -0.0559,-0.14305 -0.12152,-0.25358 -0.0158,-0.0266 -0.0679,-0.0509 -0.0515,-0.077 0.0246,-0.0391 0.23499,-0.0388 0.0485,-0.0336 -0.0254,0.0169 -0.0508,0.0337 -0.0761,0.0506 -0.19489,0.27519 -0.25502,0.63249 -0.3703,0.94431 -0.18911,0.53769 -0.42499,1.05838 -0.59301,1.60394 -0.24512,0.6563 -0.45659,1.32294 -0.66408,1.99182 -0.18027,0.57557 -0.3507,1.15227 -0.48147,1.74167 -0.10382,0.37107 -0.21318,0.74028 -0.30507,1.11429 -0.0782,0.0357 -0.15432,0.0764 -0.23465,0.10709 -0.0307,0.0117 -5.3e-4,-0.0657 -5.3e-4,-0.0985 5.3e-4,-0.17726 0.002,-0.35454 0.007,-0.53173 0.0199,-0.46731 0.0669,-0.93371 0.2004,-1.38426 0.18644,-0.62138 0.41021,-1.23233 0.67494,-1.82477 0,0 0.18687,0.008 0.18687,0.008 z"
       inkscape:connector-curvature="0" />
    <path
       style="opacity:1;fill:none;fill-opacity:1;fill-rule:nonzero;stroke:#000000;stroke-width:1;stroke-linecap:round;stroke-linejoin:round;stroke-miterlimit:4;stroke-dasharray:none;stroke-dashoffset:0;stroke-opacity:1;paint-order:markers fill stroke"
       id="path4922"
       d="m 180.16753,207.8069 c 0.49122,0.0711 0.99062,0.0253 1.48452,0.007 0.31584,-0.032 0.62805,-0.0906 0.94183,-0.13772 0,0 0.18462,0.0264 0.18462,0.0264 v 0 c -0.31427,0.0467 -0.62685,0.10512 -0.94282,0.13968 -0.61646,0.0225 -1.23997,0.0718 -1.8534,-0.009 0,0 0.18525,-0.0266 0.18525,-0.0266 z"
       inkscape:connector-curvature="0" />
    <path
       style="opacity:1;fill:none;fill-opacity:1;fill-rule:nonzero;stroke:#000000;stroke-width:1;stroke-linecap:round;stroke-linejoin:round;stroke-miterlimit:4;stroke-dasharray:none;stroke-dashoffset:0;stroke-opacity:1;paint-order:markers fill stroke"
       id="path4924"
       d="m 186.31452,200.58154 c 0.25429,0.54587 0.56343,1.06248 0.86576,1.58226 0.24136,0.37127 0.50125,0.72921 0.75153,1.09432 0,0 -0.18622,0.0112 -0.18622,0.0112 v 0 c -0.25038,-0.36534 -0.51093,-0.72318 -0.7508,-1.09574 -0.30264,-0.52061 -0.61083,-1.03867 -0.86713,-1.58447 0,0 0.18686,-0.008 0.18686,-0.008 z"
       inkscape:connector-curvature="0" />
    <path
       style="opacity:1;fill:none;fill-opacity:1;fill-rule:nonzero;stroke:#000000;stroke-width:1;stroke-linecap:round;stroke-linejoin:round;stroke-miterlimit:4;stroke-dasharray:none;stroke-dashoffset:0;stroke-opacity:1;paint-order:markers fill stroke"
       id="path4926"
       d="m 187.69079,201.34506 c -0.23517,0.50361 -0.33418,1.02909 -0.35012,1.57986 0.0329,0.42083 -0.0329,0.8346 -0.0839,1.25063 0,0 -0.18675,-0.002 -0.18675,-0.002 v 0 c 0.051,-0.41547 0.11711,-0.8286 0.0845,-1.2489 0.0164,-0.55287 0.11569,-1.08045 0.34943,-1.58688 0,0 0.18687,0.008 0.18687,0.008 z"
       inkscape:connector-curvature="0" />
    <path
       style="opacity:1;fill:none;fill-opacity:1;fill-rule:nonzero;stroke:#000000;stroke-width:1;stroke-linecap:round;stroke-linejoin:round;stroke-miterlimit:4;stroke-dasharray:none;stroke-dashoffset:0;stroke-opacity:1;paint-order:markers fill stroke"
       id="path4928"
       d="m 185.08471,203.37219 c 0.56329,-0.23336 1.13656,-0.44228 1.69793,-0.68044 0.24003,-0.10575 0.48855,-0.19007 0.73486,-0.27959 0,0 0.18462,0.0227 0.18462,0.0227 v 0 c -0.24626,0.0896 -0.49504,0.17307 -0.73517,0.27855 -0.56061,0.23888 -1.13395,0.4465 -1.69649,0.68056 0,0 -0.18575,-0.0217 -0.18575,-0.0217 z"
       inkscape:connector-curvature="0" />
    <path
       style="opacity:1;fill:none;fill-opacity:1;fill-rule:nonzero;stroke:#000000;stroke-width:1;stroke-linecap:round;stroke-linejoin:round;stroke-miterlimit:4;stroke-dasharray:none;stroke-dashoffset:0;stroke-opacity:1;paint-order:markers fill stroke"
       id="path4930"
       d="m 211.29166,215.68726 c -0.31279,0.47024 -0.4652,1.017 -0.6348,1.54946 -0.10373,0.46285 -0.0725,0.94035 -0.058,1.41057 0.0102,0.41218 0.0812,0.82623 0.23825,1.2079 0.12165,0.34509 0.29225,0.66019 0.49012,0.96576 0.1687,0.1954 0.36984,0.38217 0.63194,0.42195 0.12911,0.0196 0.35357,-0.0609 0.55708,-0.21149 0.29492,-0.24817 0.49619,-0.58442 0.67965,-0.91852 0.18066,-0.36114 0.31829,-0.73303 0.39474,-1.12935 0.0641,-0.413 0.0621,-0.8324 0.0648,-1.24925 -0.0327,-0.45794 -0.15719,-0.90035 -0.34684,-1.31661 -0.16652,-0.38018 -0.38121,-0.74916 -0.70423,-1.0156 -0.048,-0.0347 -0.0942,-0.0721 -0.14408,-0.10421 -0.14733,-0.0948 -0.32059,-0.17621 -0.49336,-0.21096 -0.0512,-0.0103 -0.10389,-0.0103 -0.15597,-0.0137 -0.0113,-7.9e-4 0.0223,0.004 0.0335,0.006 -0.29001,0.0103 -0.54164,0.1443 -0.76054,0.32573 -0.0864,0.10437 -0.17035,0.2087 -0.24776,0.31986 0,0 -0.18709,-0.0113 -0.18709,-0.0113 v 0 c 0.0776,-0.11296 0.16321,-0.21733 0.24812,-0.32485 0.21722,-0.18544 0.47135,-0.32406 0.76222,-0.33806 0.45377,-0.006 0.77022,0.0349 1.13125,0.33537 0.32106,0.27196 0.53722,0.64119 0.70398,1.024 0.18961,0.41909 0.31508,0.86405 0.3473,1.32467 -0.003,0.41798 -5.3e-4,0.83853 -0.0646,1.25268 -0.0765,0.39829 -0.21413,0.77199 -0.39509,1.13513 -0.1836,0.33633 -0.38571,0.67434 -0.67953,0.9265 -0.28009,0.21402 -0.57445,0.2634 -0.92948,0.22041 -0.26181,-0.0494 -0.46548,-0.2382 -0.63297,-0.43744 -0.19844,-0.30634 -0.36662,-0.62401 -0.48968,-0.96925 -0.15658,-0.3842 -0.22841,-0.80015 -0.23819,-1.21458 -0.0143,-0.47235 -0.0456,-0.95195 0.0586,-1.41688 0.17021,-0.53377 0.32306,-1.08168 0.63377,-1.55472 0,0 0.1868,0.011 0.1868,0.011 z"
       inkscape:connector-curvature="0" />
    <path
       style="opacity:1;fill:none;fill-opacity:1;fill-rule:nonzero;stroke:#000000;stroke-width:1;stroke-linecap:round;stroke-linejoin:round;stroke-miterlimit:4;stroke-dasharray:none;stroke-dashoffset:0;stroke-opacity:1;paint-order:markers fill stroke"
       id="path4932"
       d="m 216.53009,213.43391 c 0.17462,0.54289 0.46083,1.03865 0.74901,1.52721 0.14253,0.24051 0.29784,0.47146 0.45123,0.70497 0,0 -0.18658,0.0109 -0.18658,0.0109 v 0 c -0.15355,-0.23355 -0.30784,-0.4654 -0.45053,-0.70592 -0.28845,-0.49025 -0.5734,-0.98827 -0.75016,-1.53191 0,0 0.18703,-0.005 0.18703,-0.005 z"
       inkscape:connector-curvature="0" />
    <path
       style="opacity:1;fill:none;fill-opacity:1;fill-rule:nonzero;stroke:#000000;stroke-width:1;stroke-linecap:round;stroke-linejoin:round;stroke-miterlimit:4;stroke-dasharray:none;stroke-dashoffset:0;stroke-opacity:1;paint-order:markers fill stroke"
       id="path4934"
       d="m 217.69454,213.39865 c -0.36851,0.35348 -0.52972,0.79631 -0.61184,1.28733 -0.0556,0.40213 0.0464,0.80384 0.0972,1.202 0,0 -0.18675,0.002 -0.18675,0.002 v 0 c -0.0511,-0.39996 -0.15302,-0.80349 -0.0968,-1.20746 0.0824,-0.49404 0.24326,-0.94109 0.61167,-1.29893 0,0 0.18658,0.0147 0.18658,0.0147 z"
       inkscape:connector-curvature="0" />
    <path
       style="opacity:1;fill:none;fill-opacity:1;fill-rule:nonzero;stroke:#000000;stroke-width:1;stroke-linecap:round;stroke-linejoin:round;stroke-miterlimit:4;stroke-dasharray:none;stroke-dashoffset:0;stroke-opacity:1;paint-order:markers fill stroke"
       id="path4936"
       d="m 215.48895,215.44652 c 0.48367,-0.36393 1.03175,-0.6232 1.55294,-0.92595 0.42743,-0.24772 0.86496,-0.47657 1.29947,-0.7113 0.0643,-0.0391 0.12859,-0.0782 0.19288,-0.11736 0,0 0.18543,0.019 0.18543,0.019 v 0 c -0.0643,0.0394 -0.12864,0.0789 -0.19295,0.11833 -0.43426,0.23546 -0.87278,0.46278 -1.30031,0.71063 -0.52021,0.30312 -1.06917,0.55984 -1.55124,0.92499 0,0 -0.18622,-0.0184 -0.18622,-0.0184 z"
       inkscape:connector-curvature="0" />
    <path
       style="opacity:1;fill:none;fill-opacity:1;fill-rule:nonzero;stroke:#000000;stroke-width:1;stroke-linecap:round;stroke-linejoin:round;stroke-miterlimit:4;stroke-dasharray:none;stroke-dashoffset:0;stroke-opacity:1;paint-order:markers fill stroke"
       id="path4938"
       d="m 248.04778,205.37152 c 0.0179,-0.48823 0.12187,-0.94843 0.37709,-1.3665 0.19218,-0.24054 0.43626,-0.25929 0.73055,-0.16967 0.065,0.0198 0.19585,0.17254 0.23407,0.2132 0.19589,0.32599 0.18451,0.69491 0.12937,1.05705 -0.10171,0.43868 -0.24104,0.86688 -0.4796,1.25025 -0.19844,0.32491 -0.36992,0.66437 -0.56033,0.99395 -0.13554,0.24774 -0.18568,0.50713 0.065,0.68456 0.23637,0.18361 0.53178,0.25878 0.79334,0.39791 0.2646,0.13279 0.50467,0.31559 0.71473,0.52359 0.23922,0.23604 0.36754,0.54064 0.38535,0.87339 -0.002,0.28931 -0.15611,0.52935 -0.3432,0.73783 -0.22138,0.20092 -0.4621,0.326 -0.75117,0.39545 -0.41819,0.09 -0.83975,0.0463 -1.2569,-0.0213 -0.31433,-0.0644 -0.56347,-0.23929 -0.8144,-0.42605 -0.16469,-0.1264 -0.31357,-0.2744 -0.4532,-0.42787 0,0 0.18671,-0.0139 0.18671,-0.0139 v 0 c 0.14004,0.15199 0.28801,0.2996 0.45307,0.42434 0.24918,0.18627 0.50023,0.35554 0.81278,0.41719 0.31199,0.0503 0.56503,0.1047 0.88643,0.0226 0.28877,-0.0659 0.52715,-0.18659 0.74974,-0.38424 0.18635,-0.20245 0.33955,-0.43905 0.34291,-0.72302 -0.0174,-0.32896 -0.14757,-0.62774 -0.38494,-0.85951 -0.21122,-0.20527 -0.44942,-0.38708 -0.71392,-0.51817 -0.2633,-0.13676 -0.55836,-0.21498 -0.79414,-0.4007 -0.24772,-0.19099 -0.20465,-0.45571 -0.0649,-0.71185 0.19039,-0.32989 0.36304,-0.66895 0.56076,-0.99459 0.23927,-0.38035 0.37791,-0.80616 0.47915,-1.24266 0.0545,-0.35625 0.0678,-0.72088 -0.12912,-1.03999 -0.0385,-0.0399 -0.0738,-0.0832 -0.11558,-0.11971 -0.0363,-0.0317 -0.0936,-0.0422 -0.11776,-0.0839 -0.0102,-0.0176 0.0647,-0.0345 0.0454,-0.0408 -0.16376,-0.0533 -0.31173,0.0897 -0.4036,0.19698 -0.25703,0.41354 -0.36016,0.871 -0.37643,1.35619 0,0 -0.18718,0 -0.18718,0 z"
       inkscape:connector-curvature="0" />
    <path
       style="opacity:1;fill:none;fill-opacity:1;fill-rule:nonzero;stroke:#000000;stroke-width:1;stroke-linecap:round;stroke-linejoin:round;stroke-miterlimit:4;stroke-dasharray:none;stroke-dashoffset:0;stroke-opacity:1;paint-order:markers fill stroke"
       id="path4940"
       d="m 247.26726,205.52279 c -0.081,0.60695 -0.20729,1.20581 -0.2827,1.81405 -0.0286,0.49869 -0.12077,0.98922 -0.1877,1.48339 -0.0447,0.33853 -0.0596,0.67971 -0.0694,1.0207 0,0 -0.18677,-5.3e-4 -0.18677,-5.3e-4 v 0 c 0.01,-0.34165 0.0249,-0.6835 0.0698,-1.02268 0.0671,-0.4941 0.15932,-0.98456 0.18841,-1.48317 0.0758,-0.60812 0.20255,-1.20693 0.28145,-1.81408 0,0 0.18688,0.002 0.18688,0.002 z"
       inkscape:connector-curvature="0" />
    <path
       style="opacity:1;fill:none;fill-opacity:1;fill-rule:nonzero;stroke:#000000;stroke-width:1;stroke-linecap:round;stroke-linejoin:round;stroke-miterlimit:4;stroke-dasharray:none;stroke-dashoffset:0;stroke-opacity:1;paint-order:markers fill stroke"
       id="path4942"
       d="m 251.91589,202.09238 c 0.27022,0.54141 0.59409,1.0532 0.88453,1.58357 0.21023,0.32918 0.36168,0.68187 0.45803,1.05902 0,0 -0.18661,0.005 -0.18661,0.005 v 0 c -0.0964,-0.3755 -0.24823,-0.72627 -0.45697,-1.0544 -0.29049,-0.53042 -0.61292,-1.043 -0.88563,-1.58317 0,0 0.18665,-0.01 0.18665,-0.01 z"
       inkscape:connector-curvature="0" />
    <path
       style="opacity:1;fill:none;fill-opacity:1;fill-rule:nonzero;stroke:#000000;stroke-width:1;stroke-linecap:round;stroke-linejoin:round;stroke-miterlimit:4;stroke-dasharray:none;stroke-dashoffset:0;stroke-opacity:1;paint-order:markers fill stroke"
       id="path4944"
       d="m 253.29235,202.28882 c -0.17199,0.51242 -0.18199,1.04659 -0.17683,1.58068 0.0225,0.37688 0.0121,0.75603 -0.10834,1.11645 -0.0688,0.18001 -0.0273,0.0949 -0.12313,0.25589 0,0 -0.18715,-0.0102 -0.18715,-0.0102 v 0 c 0.0961,-0.15715 0.0546,-0.0735 0.12311,-0.25182 0.1223,-0.35764 0.13058,-0.73563 0.10933,-1.11018 -0.005,-0.53574 0.006,-1.07149 0.17598,-1.58605 0,0 0.18703,0.005 0.18703,0.005 z"
       inkscape:connector-curvature="0" />
    <path
       style="opacity:1;fill:none;fill-opacity:1;fill-rule:nonzero;stroke:#000000;stroke-width:1;stroke-linecap:round;stroke-linejoin:round;stroke-miterlimit:4;stroke-dasharray:none;stroke-dashoffset:0;stroke-opacity:1;paint-order:markers fill stroke"
       id="path4946"
       d="m 251.23054,204.12815 c 0.56395,-0.27298 1.15884,-0.47565 1.74377,-0.69857 0.42654,-0.14966 0.85422,-0.29665 1.292,-0.41003 0,0 0.18443,0.0245 0.18443,0.0245 v 0 c -0.43811,0.11199 -0.8655,0.25926 -1.29235,0.40788 -0.58425,0.22298 -1.17951,0.42362 -1.7421,0.698 0,0 -0.18575,-0.0217 -0.18575,-0.0217 z"
       inkscape:connector-curvature="0" />
    <path
       style="opacity:1;fill:none;fill-opacity:1;fill-rule:nonzero;stroke:#000000;stroke-width:1;stroke-linecap:round;stroke-linejoin:round;stroke-miterlimit:4;stroke-dasharray:none;stroke-dashoffset:0;stroke-opacity:1;paint-order:markers fill stroke"
       id="path4948"
       d="m 253.60469,250.9702 c -0.23343,-0.18025 -0.49548,-0.35055 -0.79302,-0.39939 -0.20083,-0.033 -0.18223,-0.0688 -0.2005,0.0244 -0.40461,0.087 -0.70545,0.36963 -0.97199,0.66976 -0.25581,0.30406 -0.46969,0.63649 -0.65892,0.98478 -0.15925,0.34261 -0.29524,0.6965 -0.38466,1.06392 -0.10762,0.38678 -0.0373,0.75192 0.0737,1.12634 0.11,0.31025 0.31447,0.55734 0.51748,0.80874 0.17881,0.21197 0.39434,0.37377 0.62571,0.52372 0.29691,0.13919 0.61133,0.24079 0.93185,0.31004 0.31219,0.0677 0.63337,-0.0251 0.93732,-0.10665 0.29816,-0.0959 0.58114,-0.22535 0.83843,-0.40387 0,0 0.18624,0.0179 0.18624,0.0179 v 0 c -0.25665,0.18197 -0.54098,0.3115 -0.83952,0.4103 -0.4255,0.11529 -0.86712,0.196 -1.30767,0.10755 -0.32089,-0.0713 -0.6375,-0.17251 -0.93316,-0.31672 -0.23123,-0.15234 -0.44782,-0.31529 -0.62611,-0.52954 -0.20493,-0.25258 -0.40728,-0.504 -0.51722,-0.81611 -0.11161,-0.37747 -0.18149,-0.74639 -0.0738,-1.13616 0.0893,-0.36908 0.22572,-0.72434 0.38476,-1.06877 0.18979,-0.34955 0.40336,-0.68335 0.65955,-0.98897 0.26604,-0.30281 0.56815,-0.59017 0.97305,-0.68216 0.59407,-0.0569 0.89019,-0.002 1.36507,0.3862 0,0 -0.18658,0.0147 -0.18658,0.0147 z"
       inkscape:connector-curvature="0" />
    <path
       style="opacity:1;fill:none;fill-opacity:1;fill-rule:nonzero;stroke:#000000;stroke-width:1;stroke-linecap:round;stroke-linejoin:round;stroke-miterlimit:4;stroke-dasharray:none;stroke-dashoffset:0;stroke-opacity:1;paint-order:markers fill stroke"
       id="path4950"
       d="m 257.56303,248.58452 c 0.21532,0.52532 0.42394,1.05298 0.62563,1.58378 0.16418,0.39933 0.26217,0.82088 0.40224,1.22744 0.0542,0.14225 0.0952,0.28869 0.14422,0.43269 0,0 -0.1875,0.006 -0.1875,0.006 v 0 c -0.0482,-0.14413 -0.0896,-0.29041 -0.14355,-0.43263 -0.13835,-0.40695 -0.23821,-0.82737 -0.40127,-1.22686 -0.20143,-0.53075 -0.409,-1.05868 -0.62663,-1.58296 0,0 0.18686,-0.008 0.18686,-0.008 z"
       inkscape:connector-curvature="0" />
    <path
       style="opacity:1;fill:none;fill-opacity:1;fill-rule:nonzero;stroke:#000000;stroke-width:1;stroke-linecap:round;stroke-linejoin:round;stroke-miterlimit:4;stroke-dasharray:none;stroke-dashoffset:0;stroke-opacity:1;paint-order:markers fill stroke"
       id="path4952"
       d="m 258.53869,248.94917 c -0.30078,0.43516 -0.44459,0.93911 -0.60344,1.43564 -0.0942,0.34708 -0.2097,0.68771 -0.30566,1.03429 0,0 -0.1866,-0.005 -0.1866,-0.005 v 0 c 0.0959,-0.3469 0.21189,-0.68765 0.30616,-1.03503 0.15977,-0.49772 0.30346,-1.00311 0.60274,-1.44086 0,0 0.1868,0.011 0.1868,0.011 z"
       inkscape:connector-curvature="0" />
    <path
       style="opacity:1;fill:none;fill-opacity:1;fill-rule:nonzero;stroke:#000000;stroke-width:1;stroke-linecap:round;stroke-linejoin:round;stroke-miterlimit:4;stroke-dasharray:none;stroke-dashoffset:0;stroke-opacity:1;paint-order:markers fill stroke"
       id="path4954"
       d="m 255.57752,250.66198 c 0.5935,-0.11763 1.17228,-0.29453 1.75173,-0.46604 0.57622,-0.17732 1.14719,-0.36878 1.71358,-0.57501 0.21932,-0.0963 0.4414,-0.18459 0.66639,-0.26651 0,0 0.18504,0.0228 0.18504,0.0228 v 0 c -0.22544,0.0812 -0.44797,0.16874 -0.6669,0.26642 -0.56684,0.20596 -1.1377,0.39866 -1.71428,0.57607 -0.57936,0.17118 -1.15766,0.34827 -1.75031,0.46897 0,0 -0.18525,-0.0267 -0.18525,-0.0267 z"
       inkscape:connector-curvature="0" />
  </g>
</svg>
