<?xml version="1.0" encoding="UTF-8" standalone="no"?>
<!-- Created with Inkscape (http://www.inkscape.org/) -->

<svg
   xmlns:dc="http://purl.org/dc/elements/1.1/"
   xmlns:cc="http://creativecommons.org/ns#"
   xmlns:rdf="http://www.w3.org/1999/02/22-rdf-syntax-ns#"
   xmlns:svg="http://www.w3.org/2000/svg"
   xmlns="http://www.w3.org/2000/svg"
   xmlns:sodipodi="http://sodipodi.sourceforge.net/DTD/sodipodi-0.dtd"
   xmlns:inkscape="http://www.inkscape.org/namespaces/inkscape"
   width="297mm"
   height="210mm"
   viewBox="0 0 297 210"
   version="1.1"
   id="svg8"
   inkscape:version="0.92.1 r15371"
   sodipodi:docname="linear-example.svg">
  <defs
     id="defs2" />
  <sodipodi:namedview
     id="base"
     pagecolor="#ffffff"
     bordercolor="#666666"
     borderopacity="1.0"
     inkscape:pageopacity="0.0"
     inkscape:pageshadow="2"
     inkscape:zoom="1.4"
     inkscape:cx="550.98969"
     inkscape:cy="319.71284"
     inkscape:document-units="mm"
     inkscape:current-layer="layer1"
     showgrid="false"
     inkscape:window-width="1920"
     inkscape:window-height="1046"
     inkscape:window-x="-11"
     inkscape:window-y="-11"
     inkscape:window-maximized="1" />
  <metadata
     id="metadata5">
    <rdf:RDF>
      <cc:Work
         rdf:about="">
        <dc:format>image/svg+xml</dc:format>
        <dc:type
           rdf:resource="http://purl.org/dc/dcmitype/StillImage" />
        <dc:title></dc:title>
      </cc:Work>
    </rdf:RDF>
  </metadata>
  <g
     inkscape:label="Layer 1"
     inkscape:groupmode="layer"
     id="layer1"
     transform="translate(0,-87)">
    <path
       style="opacity:1;fill:none;fill-opacity:1;fill-rule:nonzero;stroke:#000000;stroke-width:1;stroke-linecap:round;stroke-linejoin:round;stroke-miterlimit:4;stroke-dasharray:none;stroke-dashoffset:0;stroke-opacity:1;paint-order:markers fill stroke"
       id="path4489"
       d="m 140.30013,149.37088 c -0.079,0.54248 -0.12018,1.08904 -0.14578,1.63629 -0.0482,0.50672 0.001,1.00549 0.0632,1.50758 0.0684,0.53452 0.0863,1.07346 0.0979,1.61165 0.001,0.61999 0.0289,1.24108 -0.0149,1.85992 -0.0687,0.62862 -0.11883,1.25857 -0.14606,1.8903 -0.0193,0.62271 -0.11252,1.24007 -0.15971,1.86123 -0.0418,0.60389 -0.0468,1.20947 -0.0508,1.81454 -0.001,0.59827 -0.0928,1.19195 -0.13773,1.78813 -0.0321,0.60989 -0.0409,1.21793 -0.10485,1.82557 -0.073,0.59781 -0.10578,1.19905 -0.12387,1.80067 -0.0135,0.56979 -0.0127,1.13979 -0.0128,1.7097 5.3e-4,0.5408 8e-4,1.0816 0.001,1.6224 1.5e-4,0.56739 2.3e-4,1.13478 9e-5,1.70216 -2e-5,0.58955 1.1e-4,1.1791 4e-5,1.76865 0.0115,0.56204 -0.0254,1.12595 0.0228,1.68644 0.073,0.54219 0.11913,1.08657 0.14507,1.63287 0.0205,0.54411 0.0217,1.08866 0.0225,1.63307 -0.008,0.52289 -0.009,1.04162 0.053,1.56106 0.0729,0.5206 0.10431,1.04531 0.12256,1.57025 0.0141,0.50748 0.0134,1.01522 0.0136,1.52285 -2e-4,0.50389 -8e-4,1.00779 -0.001,1.51168 -2.7e-4,0.52796 -2.3e-4,1.05592 -2.7e-4,1.58389 -6e-5,0.55631 2e-5,1.11263 -8e-5,1.66894 0,0.5669 9e-5,1.1338 0,1.7007 -9e-5,0.59287 -1.2e-4,1.18575 0,1.77862 3e-5,0.57161 -5e-5,1.14322 4e-5,1.71483 -0.001,0.5434 0.0924,1.08153 0.13695,1.62255 0.0405,0.54337 0.0472,1.08845 0.0518,1.63307 -0.0242,0.55648 0.0238,1.10622 0.0866,1.65815 0.0653,0.53079 0.0841,1.06545 0.0966,1.5996 0.009,0.51255 0.008,1.02518 0.007,1.53778 -5.3e-4,0.51347 -10e-4,1.02695 -10e-4,1.54042 -2.4e-4,0.5032 -1.5e-4,1.00641 -2.6e-4,1.50961 -0.0294,0.53813 0.0565,1.06943 0.11384,1.6025 0.0544,0.55164 0.065,1.1061 0.0726,1.65995 0.005,0.5225 0.004,1.04505 0.004,1.56757 0.0497,0.47909 0.11656,0.95569 0.15398,1.43617 0.0304,0.48584 0.0325,0.97279 0.0349,1.45939 0.001,0.5026 1.1e-4,1.0052 -2.1e-4,1.50781 -5.3e-4,0.50415 -5.3e-4,1.00831 -5.3e-4,1.51247 5e-5,0.48748 -7e-5,0.97496 -6e-5,1.46245 0.002,0.49612 0.0929,0.98695 0.1369,1.48085 0.0416,0.51019 0.0474,1.02234 0.0517,1.53392 0.002,0.53831 0.002,1.07663 0.001,1.61493 -5.3e-4,0.54809 -5.3e-4,1.09617 -8e-4,1.64426 -9e-5,0.56557 1e-5,1.13114 -8e-5,1.69671 2.1e-4,0.54133 5e-5,1.08267 1.1e-4,1.62401 1.1e-4,0.51608 4e-5,1.03216 8e-5,1.54824 -1.2e-4,0.52844 4e-5,1.05688 -10e-5,1.58532 0.0525,0.54855 0.11753,1.09524 0.15479,1.64523 0.0296,0.52597 0.0325,1.05291 0.0352,1.57955 0.001,0.48534 2.2e-4,0.97068 -1.9e-4,1.45602 -2.7e-4,0.49454 -5.3e-4,0.98907 -5.3e-4,1.48361 8e-5,0.47802 -1e-5,0.95604 1.1e-4,1.43406 -0.007,0.4688 0.0909,0.93064 0.13692,1.39594 0.0387,0.43771 0.0471,0.87721 0.0519,1.31634 0.002,0.43661 0.002,0.87323 0.001,1.30984 -0.0298,0.39438 0.0557,0.77871 0.11318,1.16608 0.0564,0.39363 0.0658,0.79143 0.0724,1.18833 0.005,0.43674 0.004,0.87353 0.003,1.3103 0.008,0.45517 0.007,0.90589 -0.0547,1.35725 -0.0987,0.49378 -0.0839,0.98436 -0.0376,1.48179 0.0538,0.53021 0.0719,1.06281 0.0834,1.5953 0.009,0.53103 0.008,1.06215 0.009,1.59324 -2.7e-4,0.52969 -5.3e-4,1.05938 -8e-4,1.58907 -0.027,0.52373 0.0233,1.04021 0.0854,1.55912 0.0661,0.55649 0.085,1.11669 0.0971,1.67646 0.001,0.56907 -0.002,1.13473 0.0613,1.70066 0.0723,0.56489 0.10365,1.13326 0.12192,1.70206 0.0656,0.5329 0.1309,1.06494 0.16824,1.60072 0.0257,0.51518 0.12062,1.02342 0.17099,1.53677 0.0523,0.50279 0.0233,1.00984 0.0738,1.51209 0.0726,0.47456 0.1206,0.95191 0.14572,1.4312 0.0195,0.45281 0.0212,0.90611 0.0219,1.35925 0.007,0.43763 -0.0878,0.86854 -0.13773,1.30199 -0.0427,0.40105 -0.0481,0.8046 -0.0522,1.2075 -0.003,0.41848 -0.002,0.83698 -10e-4,1.25547 5.3e-4,0.38237 7.9e-4,0.76474 7.9e-4,1.1471 5e-5,0.1888 6e-5,0.37761 6e-5,0.56641 0,0 -0.18682,0 -0.18682,0 v 0 c -1e-5,-0.1888 -2e-5,-0.37761 -6e-5,-0.56641 -9e-5,-0.38236 -2.6e-4,-0.76471 -8e-4,-1.14707 -5.2e-4,-0.41857 -0.001,-0.83714 0.001,-1.25569 0.004,-0.40355 0.009,-0.80776 0.052,-1.20946 0.0499,-0.43273 0.14507,-0.8629 0.13798,-1.2998 -0.001,-0.45283 -0.002,-0.90582 -0.0217,-1.35831 -0.0255,-0.47898 -0.0731,-0.95603 -0.14566,-1.43032 -0.0501,-0.50232 -0.0216,-1.00931 -0.0738,-1.51213 -0.0502,-0.51354 -0.14526,-1.02192 -0.17088,-1.53731 -0.0371,-0.53602 -0.10306,-1.06821 -0.16799,-1.60141 -0.0181,-0.56831 -0.0496,-1.1362 -0.12189,-1.70059 -0.0628,-0.56651 -0.0603,-1.1327 -0.0613,-1.70232 -0.0119,-0.55917 -0.031,-1.11878 -0.0972,-1.67465 -0.0621,-0.51964 -0.1127,-1.03687 -0.0854,-1.56134 8e-5,-0.52968 5.3e-4,-1.05937 7.9e-4,-1.58906 1e-4,-0.53095 5.3e-4,-1.06194 -0.008,-1.59283 -0.0114,-0.53206 -0.0298,-1.06423 -0.0838,-1.59398 -0.0463,-0.49884 -0.0612,-0.99084 0.0374,-1.48604 0.0614,-0.45052 0.0625,-0.9004 0.0547,-1.35475 2.6e-4,-0.43666 0.001,-0.87333 -0.004,-1.30996 -0.007,-0.39609 -0.0166,-0.79308 -0.0727,-1.1859 -0.0577,-0.38826 -0.14288,-0.77357 -0.11303,-1.16885 5.3e-4,-0.43654 0.002,-0.87309 -0.001,-1.30962 -0.005,-0.43858 -0.0127,-0.87755 -0.0515,-1.31469 -0.0465,-0.46586 -0.14377,-0.9284 -0.137,-1.39779 1.1e-4,-0.47802 1e-5,-0.95604 1.7e-4,-1.43406 8e-5,-0.49454 6e-5,-0.98908 5.3e-4,-1.48362 5.3e-4,-0.48531 0.001,-0.97062 2.1e-4,-1.45593 -0.002,-0.52625 -0.005,-1.0528 -0.0349,-1.57837 -0.037,-0.55044 -0.10252,-1.09749 -0.1547,-1.64649 -1.3e-4,-0.52844 3e-5,-1.05688 -9e-5,-1.58532 4e-5,-0.51608 -3e-5,-1.03216 7e-5,-1.54824 6e-5,-0.54134 -1.1e-4,-1.08268 1e-4,-1.62401 -9e-5,-0.56557 -1e-5,-1.13114 4e-5,-1.69671 -1e-5,-0.54809 1.8e-4,-1.09618 5.3e-4,-1.64427 2.7e-4,-0.53825 0.002,-1.07651 -0.001,-1.61476 -0.004,-0.51108 -0.0102,-1.02273 -0.0517,-1.53243 -0.0441,-0.49444 -0.13582,-0.98578 -0.13702,-1.4825 0,-0.48749 -1.4e-4,-0.97497 0,-1.46246 1.7e-4,-0.50416 2.1e-4,-1.00832 5.3e-4,-1.51248 5.3e-4,-0.50257 0.001,-1.00514 1.8e-4,-1.50771 -0.002,-0.48614 -0.004,-0.97266 -0.035,-1.45803 -0.0373,-0.48097 -0.10462,-0.95798 -0.15367,-1.43763 5.3e-4,-0.52243 0.002,-1.04488 -0.003,-1.5673 -0.007,-0.55327 -0.0182,-1.10716 -0.0727,-1.65821 -0.0573,-0.53372 -0.14314,-1.06571 -0.11384,-1.60449 -1.5e-4,-0.50321 -5e-5,-1.00641 4e-5,-1.50962 2.7e-4,-0.51347 8e-4,-1.02695 10e-4,-1.54042 2.7e-4,-0.51245 0.001,-1.02494 -0.007,-1.53734 -0.0122,-0.5336 -0.0313,-1.06767 -0.0963,-1.59793 -0.0628,-0.55258 -0.11088,-1.10297 -0.0868,-1.6601 -0.004,-0.54416 -0.0111,-1.08878 -0.0516,-1.63169 -0.0449,-0.54149 -0.13846,-1.08017 -0.13696,-1.62408 9e-5,-0.57161 1e-5,-1.14322 3e-5,-1.71483 1.3e-4,-0.59287 1e-4,-1.18575 1e-5,-1.77862 -9e-5,-0.5669 -1e-5,-1.1338 -1e-5,-1.7007 -1.1e-4,-0.55631 -5e-5,-1.11263 -8e-5,-1.66894 -1.2e-4,-0.52797 7e-5,-1.05593 1.7e-4,-1.5839 2.7e-4,-0.50388 8e-4,-1.00778 0.001,-1.51166 -1.4e-4,-0.50742 5.3e-4,-1.01495 -0.0135,-1.52222 -0.0181,-0.52442 -0.0497,-1.04859 -0.12253,-1.56868 -0.0623,-0.52014 -0.061,-1.03965 -0.0529,-1.56324 -0.001,-0.54412 -0.002,-1.0884 -0.0225,-1.63222 -0.0258,-0.54608 -0.0723,-1.09019 -0.14516,-1.63217 -0.0476,-0.56105 -0.0112,-1.12545 -0.0225,-1.68802 -6e-5,-0.58955 9e-5,-1.1791 5e-5,-1.76865 -1.8e-4,-0.56738 -1.3e-4,-1.13477 -5.3e-4,-1.70215 -2.1e-4,-0.5408 -7.9e-4,-1.08161 -0.001,-1.62241 -2e-5,-0.5701 -8e-4,-1.14028 0.0129,-1.71025 0.018,-0.6021 0.0511,-1.2038 0.12417,-1.80206 0.0637,-0.60747 0.0725,-1.21532 0.10467,-1.82502 0.0448,-0.59578 0.13629,-1.18904 0.13762,-1.78687 0.004,-0.60549 0.009,-1.21151 0.051,-1.81581 0.0471,-0.62097 0.14039,-1.23813 0.15962,-1.86063 0.0272,-0.63191 0.0777,-1.26201 0.14624,-1.89082 0.0442,-0.61823 0.0155,-1.23879 0.0145,-1.8582 -0.0118,-0.53756 -0.0296,-1.07587 -0.0982,-1.60976 -0.0624,-0.50311 -0.11132,-1.00303 -0.063,-1.51074 0.0258,-0.54782 0.0676,-1.09476 0.14446,-1.63807 0,0 0.18714,0.003 0.18714,0.003 z"
       inkscape:connector-curvature="0" />
    <path
       style="opacity:1;fill:none;fill-opacity:1;fill-rule:nonzero;stroke:#000000;stroke-width:1;stroke-linecap:round;stroke-linejoin:round;stroke-miterlimit:4;stroke-dasharray:none;stroke-dashoffset:0;stroke-opacity:1;paint-order:markers fill stroke"
       id="path4491"
       d="m 139.47611,148.80744 c -0.29384,0.53662 -0.56737,1.08233 -0.82629,1.63639 -0.21052,0.49052 -0.43448,0.97468 -0.66012,1.4583 -0.16044,0.30774 -0.25537,0.65924 -0.43551,0.95635 -0.40327,0.0612 -0.23665,-0.72763 -0.2077,-0.9178 0.0853,-0.45917 0.0904,-0.92745 0.15243,-1.38895 0.0518,-0.43895 0.14877,-0.86726 0.24578,-1.29755 0.10208,-0.39965 0.27483,-0.7732 0.44108,-1.14869 0.14802,-0.26262 0.33696,-0.54079 0.637,-0.6329 0.37337,-0.0662 0.73506,0.0162 1.09763,0.0938 0.36398,0.0911 0.69609,0.25482 1.00682,0.46187 0.32767,0.23122 0.63669,0.48656 0.92764,0.76247 0.18775,0.17575 0.33313,0.38876 0.46711,0.60647 0,0 -0.18647,0.0103 -0.18647,0.0103 v 0 c -0.13415,-0.21611 -0.27938,-0.42743 -0.46689,-0.60161 -0.29148,-0.27422 -0.59897,-0.53006 -0.92726,-0.75927 -0.3109,-0.20444 -0.6427,-0.36655 -1.00614,-0.45493 -0.31165,-0.0669 -0.46202,-0.13312 -0.72632,-0.095 -0.30125,0.0798 -0.48834,0.35848 -0.63666,0.61649 -0.16561,0.3745 -0.3387,0.74661 -0.44093,1.14505 -0.0969,0.42978 -0.19447,0.85743 -0.2462,1.2959 -0.0623,0.46155 -0.067,0.92998 -0.15199,1.38928 -0.0175,0.11494 -0.0466,0.28164 -0.0504,0.39872 -0.002,0.0636 0.003,0.12732 0.007,0.1909 0.003,0.0583 0.039,0.12219 0.0135,0.17472 -0.0774,0.15912 -0.2456,0.11872 -0.13678,0.14015 0.18708,-0.29123 0.2737,-0.64972 0.43749,-0.95398 0.22564,-0.4837 0.44996,-0.96777 0.66066,-1.45829 0.25926,-0.55422 0.53299,-1.10004 0.82496,-1.63798 0,0 0.18665,0.01 0.18665,0.01 z"
       inkscape:connector-curvature="0" />
    <path
       style="opacity:1;fill:none;fill-opacity:1;fill-rule:nonzero;stroke:#000000;stroke-width:1;stroke-linecap:round;stroke-linejoin:round;stroke-miterlimit:4;stroke-dasharray:none;stroke-dashoffset:0;stroke-opacity:1;paint-order:markers fill stroke"
       id="path4501"
       d="m 61.482824,213.26364 c 0.527624,1.7e-4 1.055248,1.1e-4 1.582875,8e-5 0.416684,-3e-5 0.833371,-5e-5 1.250056,-5e-5 0.445812,0.001 0.878321,0.11543 1.324723,0.11441 0.52324,-0.0544 1.050978,-0.0755 1.576983,-0.0931 0.721786,-0.0738 1.443487,-0.13993 2.168253,-0.17593 0.811109,-0.0327 1.618038,-0.12544 2.428594,-0.17178 0.887812,-0.0158 1.771973,-0.0698 2.657163,-0.13654 0.884087,-0.068 1.770779,-0.0867 2.657065,-0.0983 0.942649,-0.009 1.885357,-0.007 2.828036,-0.007 0.851757,0.0142 1.700106,0.003 2.549713,-0.0521 0.956738,-0.0725 1.915564,-0.10469 2.874642,-0.1232 0.913569,-0.0141 1.827281,-0.0136 2.740935,-0.0138 0.950809,1.5e-4 1.901619,7.9e-4 2.852428,0.001 0.841475,-0.001 1.679824,0.0909 2.519637,0.13772 0.781244,0.04 1.563601,0.0468 2.345685,0.0512 0.651685,0.002 1.303375,0.001 1.955059,0.001 0.768379,-5.3e-4 1.536758,-5.3e-4 2.305139,-8e-4 0.7889,-8e-5 1.5778,-6e-5 2.36669,-5e-5 0.64213,0.0148 1.27912,0.002 1.91797,-0.053 0.74446,-0.0665 1.49012,-0.0974 2.23341,-0.17656 0.75324,-0.0874 1.51088,-0.11879 2.2684,-0.13727 0.70746,0.0152 1.40961,-0.0705 2.11351,-0.12586 0.71917,-0.0208 1.43163,-0.11868 2.14716,-0.18502 0.725,-0.0602 1.44509,-0.16069 2.17108,-0.21301 0.74775,-0.0434 1.49095,-0.1384 2.23825,-0.19129 0.70326,-0.0165 1.40107,-0.10368 2.10111,-0.16549 0.65322,-0.0543 1.30879,-0.0663 1.96389,-0.0737 0.68131,-0.005 1.36265,-0.003 2.04397,-0.003 0.61888,5.3e-4 1.23776,7.9e-4 1.85665,0.001 0.61858,1.2e-4 1.23716,8e-5 1.85575,1e-4 0.53372,-1e-5 1.06745,-3e-5 1.60118,-2e-5 0.58929,-2e-5 1.17859,1e-5 1.76789,-1e-5 0.64179,-0.0303 1.27746,0.0509 1.91418,0.11475 0.58368,0.0548 1.17007,0.0648 1.75586,0.0719 0.55773,0.005 1.11549,0.004 1.67323,0.003 0.62528,-5.3e-4 1.25056,-8e-4 1.87584,-8e-4 0.5952,-1.1e-4 1.19039,-1.4e-4 1.78558,-1.3e-4 0.65034,-2e-5 1.30068,2e-5 1.95102,1e-5 0.62056,10e-6 1.24112,10e-6 1.86168,3e-5 0.61615,0 1.23229,1e-5 1.84844,2e-5 0.66893,-2e-5 1.33787,-2e-5 2.00681,-2e-5 0.6686,0.0301 1.33172,-0.0576 1.99637,-0.11307 0.64608,-0.0533 1.29446,-0.0657 1.94239,-0.0733 0.70868,-0.005 1.41739,-0.004 2.12609,-0.004 0.61561,5.3e-4 1.23123,7.9e-4 1.84684,7.9e-4 0.60014,1e-4 1.20028,8e-5 1.80042,9e-5 0.48287,-5e-5 0.96573,-2e-5 1.4486,-3e-5 0.58807,-0.001 1.17542,-0.008 1.76272,0.0234 0.52704,0.0717 1.05632,0.11912 1.58748,0.14477 0.54561,0.0214 1.09175,0.0212 1.63768,0.0221 0.50651,0.01 1.00939,8e-4 1.51315,-0.0537 0.53888,-0.0722 1.08112,-0.10555 1.62411,-0.12407 0.49783,-0.0141 0.9959,-0.0137 1.49388,-0.0139 0.38282,-0.0266 0.77129,0.0277 1.15406,7.9e-4 0.1002,-0.007 0.19716,-0.0394 0.29677,-0.0523 0.47849,-0.0757 0.96192,-0.10574 1.44546,-0.12353 0.47534,-0.063 0.94932,-0.13004 1.42757,-0.16793 0.46019,-0.0244 0.91802,-0.018 1.37426,-0.0871 0.43872,-0.0709 0.88179,-0.10428 1.32537,-0.12349 0.40699,-0.0142 0.81429,-0.0132 1.22147,-0.0134 0.43965,0.0152 0.86911,-0.0903 1.30974,-0.13493 0.42969,-0.0398 0.86131,-0.0479 1.29254,-0.0523 0.5204,-0.003 1.04082,-0.002 1.56122,-0.001 0.48098,5.3e-4 0.96197,5.3e-4 1.44295,7.9e-4 0.46471,1.1e-4 0.92942,3e-5 1.39413,8e-5 0.5307,-2e-5 1.06141,0 1.59212,-1e-5 0.53025,0.0273 1.0544,-0.0548 1.57964,-0.11284 0.53812,-0.0554 1.07924,-0.066 1.6197,-0.0735 0.60567,-0.005 1.21138,-0.004 1.81708,-0.004 0.51334,5.3e-4 1.02667,7.9e-4 1.54001,7.9e-4 0.46282,1.3e-4 0.92565,1e-4 1.38847,9e-5 0.38002,3e-5 0.76005,0 1.14007,-1e-5 0.42035,0.009 0.8361,0.006 1.25273,-0.0525 0.40723,-0.0681 0.8181,-0.10434 1.23019,-0.12384 0.3801,-0.0233 0.76228,0.008 1.14069,-0.0355 0.42684,-0.0699 0.85623,-0.11732 1.28777,-0.14457 0.44473,-0.0151 0.88189,-0.10818 1.32347,-0.15872 0.42899,-0.0367 0.8564,-0.04 1.28262,-0.1043 0.39871,-0.0708 0.80172,-0.10583 1.2058,-0.12468 0.41678,-0.0148 0.83392,-0.0131 1.2509,-0.0132 0.33064,-0.0345 0.67174,0.0344 1.00243,7.9e-4 0.008,-7.9e-4 0.003,-0.0196 0.0103,-0.0214 0.0707,-0.0163 0.14357,-0.0205 0.21535,-0.0308 0.43212,-0.0702 0.86819,-0.10568 1.30525,-0.12363 0.45138,-0.0142 0.90303,-0.0137 1.35458,-0.0139 0.53294,8e-5 1.06588,8e-4 1.59883,10e-4 0.49264,2.3e-4 0.98529,2.6e-4 1.47793,2.6e-4 0.34896,-10e-6 0.69792,-3e-5 1.04688,-3e-5 0.37846,-1e-5 0.75693,-1e-5 1.13539,-1e-5 0.41819,0.008 0.83191,0.006 1.24632,-0.0525 0.39919,-0.0686 0.80221,-0.10452 1.20644,-0.12386 0.37898,-0.0143 0.75831,-0.0138 1.13751,-0.014 0.43918,3e-5 0.87836,8e-4 1.31754,0.001 0.37794,2.3e-4 0.75588,2.6e-4 1.13382,2.7e-4 0.31647,1e-5 0.63294,0 0.94941,0 0.37798,0 0.75595,0 1.13393,-1e-5 0.43948,0 0.87897,0 1.31845,0 0.37798,0 0.75596,0 1.13393,0 0.37798,0 0.75595,0 1.13393,0 0.31647,0 0.63294,0 0.9494,0 0.37798,0 0.75596,0 1.13393,0 0.44238,-0.002 0.88115,-0.0179 1.31867,0.0553 0.048,0.003 0.0959,0.005 0.14391,0.008 0,0 -0.18522,0.0281 -0.18522,0.0281 v 0 c -0.0479,-0.003 -0.0958,-0.007 -0.14364,-0.0101 -0.31618,-0.0515 -0.6283,-0.0687 -0.94919,-0.0523 -0.37798,0 -0.75595,0 -1.13393,0 -0.43949,0 -0.87897,0 -1.31846,0 -0.37797,0 -0.75595,0 -1.13393,0 -0.37797,0 -0.75595,0 -1.13392,0 -0.31647,0 -0.63294,0 -0.9494,0 -0.37798,0 -0.75596,0 -1.13393,0 -0.43949,0 -0.87898,1e-5 -1.31847,0 -0.37794,-2e-5 -0.75588,-5e-5 -1.13381,-2.6e-4 -0.31617,-2.3e-4 -0.63233,-5.3e-4 -0.94849,-0.001 -0.37916,1.3e-4 -0.75845,-5.3e-4 -1.13743,0.0131 -0.4042,0.0186 -0.80735,0.0531 -1.20647,0.12205 -0.41447,0.0602 -0.82782,0.0649 -1.24637,0.0551 -0.37848,0 -0.75695,0 -1.13543,0 -0.4718,0 -0.94359,0 -1.41539,-4e-5 -0.49259,-4e-5 -0.98517,-5e-5 -1.47776,-2.6e-4 -0.41032,-2.1e-4 -0.82064,-5.3e-4 -1.23096,-0.001 -0.45147,1.4e-4 -0.90304,-5.3e-4 -1.35436,0.0132 -0.4369,0.0172 -0.87293,0.0515 -1.30489,0.12174 -0.40768,0.0594 -0.81722,0.0612 -1.22844,0.054 -0.41684,4e-5 -0.83383,-0.002 -1.25049,0.0124 -0.40404,0.0181 -0.80718,0.0517 -1.20583,0.12268 -0.42625,0.0655 -0.85318,0.0709 -1.28259,0.10503 -0.44182,0.0496 -0.87894,0.14341 -1.32359,0.15966 -0.43142,0.0264 -0.8609,0.0723 -1.28742,0.14354 -0.37812,0.0476 -0.76072,0.0134 -1.14094,0.0368 -0.41208,0.0187 -0.82309,0.0537 -1.23026,0.12207 -0.41675,0.0593 -0.83218,0.0654 -1.25294,0.0551 -0.50289,-1e-5 -1.00578,-2e-5 -1.50867,1e-5 -0.46272,-2e-5 -0.92545,-5e-5 -1.38817,-1.4e-4 -0.5132,-1.8e-4 -1.02639,-5.3e-4 -1.53959,-0.001 -0.48331,-2.6e-4 -0.96662,-0.001 -1.44991,0.003 -0.54029,0.007 -1.08123,0.0173 -1.61925,0.0718 -0.52546,0.0577 -1.04963,0.14216 -1.58007,0.11484 -0.53072,-1e-5 -1.06144,3e-5 -1.59216,0 -0.58719,2e-5 -1.17437,2e-5 -1.76156,-4e-5 -0.48104,-1e-4 -0.96209,-2.2e-4 -1.44313,-8e-4 -0.39766,-2.6e-4 -0.79534,-10e-4 -1.193,0.001 -0.43115,0.004 -0.86271,0.0117 -1.29239,0.0506 -0.4374,0.0435 -0.86933,0.13232 -1.30992,0.1368 -0.40708,8e-5 -0.81428,-8e-4 -1.2212,0.0126 -0.44346,0.0185 -0.8865,0.0508 -1.32512,0.12145 -0.4564,0.0706 -0.91393,0.0664 -1.37465,0.0885 -0.47846,0.0371 -0.95284,0.10229 -1.42791,0.16867 -0.48337,0.0172 -0.96679,0.046 -1.44509,0.12182 -0.48197,0.0639 -0.96609,0.0588 -1.45135,0.0539 -0.498,1.6e-4 -0.9961,-2.6e-4 -1.49397,0.0133 -0.54297,0.018 -1.0853,0.0502 -1.62413,0.12265 -0.62557,0.0688 -1.2511,0.0636 -1.8803,0.0556 -0.54605,-0.001 -1.09232,-7.9e-4 -1.63802,-0.0229 -0.53123,-0.0264 -1.06042,-0.075 -1.58769,-0.14547 -0.15801,-0.0475 -0.0473,-0.0218 -0.34037,-0.0218 -0.35157,0 -0.70315,2e-5 -1.05472,0 -0.60519,-10e-6 -1.21038,2e-5 -1.81557,-10e-6 -0.60005,0 -1.2001,-2e-5 -1.80015,-1.4e-4 -0.61562,-1.2e-4 -1.23123,-2.6e-4 -1.84685,-7.9e-4 -0.58666,-2.7e-4 -1.17333,-0.001 -1.75998,0.003 -0.6479,0.007 -1.29627,0.0192 -1.94237,0.072 -0.66474,0.0551 -1.32779,0.14471 -1.99645,0.11461 -0.66903,-1e-5 -1.33806,-1e-5 -2.00709,-3e-5 -0.73802,2e-5 -1.47604,2e-5 -2.21406,3e-5 -0.6207,2e-5 -1.2414,2e-5 -1.8621,2e-5 -0.52811,-1e-5 -1.05621,1e-5 -1.58431,0 -0.59527,1e-5 -1.19054,-1e-5 -1.78581,9e-5 -0.6253,1.6e-4 -1.2506,2.7e-4 -1.87589,8e-4 -0.67986,5.2e-4 -1.35974,0.002 -2.03958,-0.004 -0.58598,-0.007 -1.17255,-0.0178 -1.75634,-0.0734 -0.516,-0.0521 -1.02725,-0.14023 -1.54707,-0.11293 -0.5893,-2e-5 -1.1786,1e-5 -1.7679,0 -0.65589,1e-5 -1.31177,-1e-5 -1.96766,-1e-5 -0.61859,2e-5 -1.23718,-1e-5 -1.85577,-1e-4 -0.61892,-1.4e-4 -1.23783,-2.6e-4 -1.85675,-0.001 -0.55919,-5.3e-4 -1.11839,-0.002 -1.67756,0.003 -0.65513,0.007 -1.31072,0.0186 -1.96402,0.0722 -0.70017,0.0614 -1.39793,0.15009 -2.1013,0.16579 -0.74745,0.0523 -1.49067,0.14737 -2.23844,0.19124 -0.72596,0.0516 -1.4459,0.15186 -2.17072,0.21268 -0.71567,0.0657 -1.42806,0.16521 -2.14736,0.18525 -0.70407,0.0549 -1.40625,0.14254 -2.11386,0.12682 -0.75742,0.0181 -1.51502,0.0487 -2.26818,0.13576 -0.74325,0.0796 -1.48872,0.11129 -2.23326,0.17696 -0.75999,0.0663 -1.52099,0.0588 -2.28326,0.0546 -0.66723,1e-5 -1.33445,1e-5 -2.00168,7e-5 -0.768445,8e-5 -1.536893,2.2e-4 -2.305341,8e-4 -0.773255,5.3e-4 -1.546519,0.002 -2.319774,-0.001 -0.782018,-0.005 -1.564309,-0.0117 -2.345463,-0.0522 -0.83962,-0.0473 -1.67786,-0.13917 -2.519235,-0.13675 -0.829686,-2.6e-4 -1.659374,-7.9e-4 -2.48906,-0.001 -0.913733,1.4e-4 -1.827522,-5.3e-4 -2.741173,0.0134 -0.959041,0.0182 -1.917861,0.0498 -2.874555,0.12236 -0.970222,0.0639 -1.940907,0.0596 -2.91284,0.0533 -0.821566,-5.3e-4 -1.643155,-0.001 -2.464692,0.007 -0.886235,0.0113 -1.772885,0.0295 -2.656948,0.0971 -0.885137,0.0666 -1.769118,0.12243 -2.656946,0.13693 -0.81044,0.0458 -1.617173,0.13857 -2.428055,0.17199 -0.72463,0.0354 -1.446339,0.10004 -2.167747,0.17632 -0.648721,0.0213 -1.295379,0.0727 -1.943976,0.0938 -0.446092,-0.003 -0.87934,-0.11528 -1.325276,-0.11428 -0.416486,-1e-5 -0.832975,-2e-5 -1.249463,-5e-5 -0.527953,-3e-5 -1.055908,-1e-4 -1.583862,8e-5 0,0 0.184875,-0.0293 0.184875,-0.0293 z"
       inkscape:connector-curvature="0" />
    <path
       style="opacity:1;fill:none;fill-opacity:1;fill-rule:nonzero;stroke:#000000;stroke-width:1;stroke-linecap:round;stroke-linejoin:round;stroke-miterlimit:4;stroke-dasharray:none;stroke-dashoffset:0;stroke-opacity:1;paint-order:markers fill stroke"
       id="path4503"
       d="m 225.52482,207.4528 c 0.54822,0.15163 1.1119,0.22872 1.66819,0.34345 0.46265,0.0633 0.90787,0.1833 1.34749,0.3368 0.33475,0.0902 0.65497,0.2383 0.79005,0.57431 0.015,0.38864 -0.30403,0.68952 -0.54468,0.95978 -0.29733,0.28791 -0.6086,0.55975 -0.91787,0.83443 -0.24422,0.23117 -0.47465,0.4744 -0.67561,0.74452 0,0 -0.1865,-0.0119 -0.1865,-0.0119 v 0 c 0.20036,-0.27199 0.43138,-0.51604 0.67587,-0.74841 0.30993,-0.27333 0.6192,-0.54681 0.91837,-0.83219 0.23534,-0.26353 0.55444,-0.55967 0.54303,-0.93895 -0.13706,-0.32969 -0.45987,-0.46793 -0.78781,-0.5586 -0.43915,-0.15305 -0.88491,-0.26903 -1.34635,-0.33447 -0.55686,-0.1147 -1.12121,-0.19183 -1.66972,-0.34465 0,0 0.18554,-0.0241 0.18554,-0.0241 z"
       inkscape:connector-curvature="0" />
    <path
       style="opacity:1;fill:none;fill-opacity:1;fill-rule:nonzero;stroke:#000000;stroke-width:1;stroke-linecap:round;stroke-linejoin:round;stroke-miterlimit:4;stroke-dasharray:none;stroke-dashoffset:0;stroke-opacity:1;paint-order:markers fill stroke"
       id="path4509"
       d="m 223.54518,217.40148 c 0.25768,0.63684 0.62553,1.21861 1.00178,1.79033 0.41811,0.54513 0.86927,1.06303 1.337,1.56576 0.41014,0.45225 0.85458,0.86922 1.29563,1.29001 0.23988,0.23839 0.48964,0.46643 0.74947,0.68298 0,0 -0.18619,0.0164 -0.18619,0.0164 v 0 c -0.25962,-0.21694 -0.50868,-0.44602 -0.74881,-0.68428 -0.44129,-0.42065 -0.88399,-0.83947 -1.29468,-1.29119 -0.46818,-0.50338 -0.9195,-1.02234 -1.33707,-1.56887 -0.37644,-0.5732 -0.74354,-1.15648 -1.004,-1.7935 0,0 0.18687,-0.008 0.18687,-0.008 z"
       inkscape:connector-curvature="0" />
    <path
       style="opacity:1;fill:none;fill-opacity:1;fill-rule:nonzero;stroke:#000000;stroke-width:1;stroke-linecap:round;stroke-linejoin:round;stroke-miterlimit:4;stroke-dasharray:none;stroke-dashoffset:0;stroke-opacity:1;paint-order:markers fill stroke"
       id="path4511"
       d="m 226.93219,217.17925 c -0.45515,0.4225 -0.88042,0.87406 -1.28427,1.34531 -0.4104,0.52014 -0.81175,1.04722 -1.19216,1.58971 -0.38836,0.54303 -0.74706,1.10633 -1.13523,1.64943 -0.23474,0.30314 -0.47097,0.60449 -0.70111,0.91121 0,0 -0.1856,-0.012 -0.1856,-0.012 v 0 c 0.23027,-0.30665 0.46629,-0.60816 0.70179,-0.91074 0.38874,-0.54267 0.74697,-1.10625 1.13532,-1.64924 0.38019,-0.54329 0.78234,-1.07035 1.19225,-1.5915 0.40393,-0.47186 0.82938,-0.92349 1.28276,-1.34857 0,0 0.18625,0.0163 0.18625,0.0163 z"
       inkscape:connector-curvature="0" />
    <path
       style="opacity:1;fill:none;fill-opacity:1;fill-rule:nonzero;stroke:#000000;stroke-width:1;stroke-linecap:round;stroke-linejoin:round;stroke-miterlimit:4;stroke-dasharray:none;stroke-dashoffset:0;stroke-opacity:1;paint-order:markers fill stroke"
       id="path4513"
       d="m 143.8597,144.94583 c 0.48047,0.31859 0.86947,0.7489 1.30075,1.1267 0.23228,0.18174 0.48289,0.35809 0.79317,0.32429 0.008,-7.9e-4 -5.3e-4,-0.0202 0.007,-0.0236 0.0535,-0.0247 0.11164,-0.0379 0.16746,-0.0568 0.37312,-0.17234 0.58537,-0.51519 0.82075,-0.83221 0.20962,-0.2996 0.36335,-0.63156 0.46126,-0.98301 0.0408,-0.0819 -0.0209,-0.46746 0.1765,-0.21093 0.0207,0.027 -0.0205,0.065 -0.0275,0.0983 -0.009,0.0426 -0.0136,0.0861 -0.0203,0.1291 -0.038,0.36893 -0.035,0.74064 -0.0365,1.11107 -0.0109,0.4701 -0.004,0.93549 0.0547,1.402 0.0845,0.49003 0.0795,0.98944 0.14628,1.48081 0.0822,0.39409 0.0669,0.79337 -0.0317,1.18128 -0.11699,0.34712 -0.37456,0.59458 -0.72151,0.70055 -0.44068,0.0844 -0.83103,-0.0494 -1.20804,-0.25782 -0.27958,-0.18051 -0.48208,-0.4269 -0.66537,-0.69962 -0.015,-0.0451 -0.0299,-0.0902 -0.0449,-0.13538 0,0 0.18728,-0.006 0.18728,-0.006 v 0 c 0.0149,0.0435 0.0297,0.0869 0.0446,0.13034 0.18323,0.26987 0.38457,0.51433 0.66426,0.69078 0.26267,0.14258 0.55714,0.29659 0.83671,0.25376 0.34544,-0.0955 0.60245,-0.33962 0.71996,-0.6812 0.0989,-0.38557 0.11426,-0.78212 0.0324,-1.1741 -0.0662,-0.4915 -0.0618,-0.99088 -0.1461,-1.48098 -0.059,-0.46728 -0.0659,-0.93353 -0.0551,-1.40441 10e-4,-0.37137 -0.002,-0.74396 0.0355,-1.11388 0.012,-0.0787 -0.0193,-0.19061 0.0474,-0.23415 0.32563,-0.21265 0.23801,0.0625 0.19823,0.22561 -0.0978,0.35375 -0.25154,0.68799 -0.46169,0.9899 -0.23772,0.31836 -0.44881,0.66486 -0.8216,0.84328 -0.49789,0.17954 -0.94282,0.0876 -1.33827,-0.25115 -0.42999,-0.37879 -0.82001,-0.80791 -1.30184,-1.12411 0,0 0.18622,-0.0184 0.18622,-0.0184 z"
       inkscape:connector-curvature="0" />
    <path
       style="opacity:1;fill:none;fill-opacity:1;fill-rule:nonzero;stroke:#000000;stroke-width:1.00000003;stroke-linecap:round;stroke-linejoin:round;stroke-miterlimit:4;stroke-dasharray:1.00000003,4.00000011;stroke-dashoffset:0;stroke-opacity:1;paint-order:markers fill stroke"
       id="path4523"
       d="m 140.66917,183.26232 c 0.51764,0.14631 1.0485,0.23286 1.58268,0.28871 0.4155,0.0385 0.833,0.0422 1.24992,0.0441 0.30596,-0.0165 0.6256,-0.0968 0.94955,-0.13754 0.34765,-0.005 0.67948,-0.10091 1.01807,-0.16578 0.35763,-0.034 0.70858,-0.092 1.06131,-0.15935 0.3729,-0.0705 0.75219,-0.0896 1.13065,-0.1014 0.37577,-0.0245 0.75488,0.0154 1.13035,-0.007 0.009,-5.3e-4 -0.0122,-0.0141 -0.0184,-0.0212 0.32614,-0.074 0.65588,-0.11963 0.98905,-0.14453 0.37009,-0.0219 0.74099,-0.022 1.11158,-0.023 0.43977,-2.6e-4 0.87953,5.3e-4 1.3193,7.9e-4 0.37811,2.7e-4 0.75622,2.7e-4 1.13433,2.7e-4 0.31648,2e-5 0.63295,1e-5 0.94942,1e-5 0.37797,0 0.75595,0 1.13392,0 0.37798,-0.009 0.75768,0.0213 1.13377,-0.0215 0.3754,-0.0701 0.75316,-0.11895 1.13399,-0.14559 0.3776,-0.0216 0.75595,-0.0221 1.13402,-0.0231 0.44321,-0.006 0.88129,-0.0174 1.31868,0.0562 0.3741,0.0731 0.75364,0.10445 1.13378,0.12228 0.37778,0.0137 0.75589,0.013 1.13386,0.0131 0.31647,-5.3e-4 0.63293,-7.9e-4 0.9494,-0.001 0.37798,-2.4e-4 0.75595,-2.6e-4 1.13393,-2.6e-4 0.43948,-1e-5 0.87897,-1e-5 1.31845,0 0.37798,0 0.75596,0 1.13393,0 0.31647,0 0.63294,0 0.94941,0 0.37797,0 0.75595,0 1.13392,0 0.37867,-0.0485 0.75344,-0.11757 1.1338,-0.15387 0.37719,-0.0308 0.75586,-0.0335 1.13405,-0.0358 0.3135,-0.001 0.627,-5.3e-4 0.94049,-2.6e-4 0.19624,2.2e-4 0.17653,0.062 0.19329,-0.0211 0.37544,-0.0697 0.75318,-0.11845 1.13399,-0.14502 0.3776,-0.0215 0.75595,-0.0221 1.13402,-0.0231 0.43949,-2.6e-4 0.87898,5.3e-4 1.31846,8e-4 0.37798,2.6e-4 0.75596,2.6e-4 1.13393,5.2e-4 0.31647,3e-5 0.63294,2e-5 0.9494,2e-5 0.37798,-1e-5 0.75596,-1e-5 1.13393,-1e-5 0.37798,0 0.75595,0 1.13393,0 0.43948,0 0.87897,0 1.31845,0 0.37798,0 0.75596,0 1.13393,0 0.30914,-0.007 0.61931,0.0181 0.92649,-0.0214 0.32604,-0.0746 0.65574,-0.12058 0.98894,-0.14568 0.37008,-0.022 0.74099,-0.0222 1.11158,-0.0232 0.4441,0.0164 0.87739,0.11507 1.31944,0.15644 0.37738,0.0398 0.75852,0.009 1.13437,0.0583 0.42672,0.0725 0.85667,0.11808 1.2885,0.14436 0.38932,0.0198 0.77925,0.0205 1.16897,0.0214 0.3164,0 0.6328,-5.2e-4 0.9492,-7.9e-4 0.37779,-2.6e-4 0.75558,-2.6e-4 1.13337,-5.3e-4 0.43947,-2e-5 0.87895,-10e-6 1.31842,-10e-6 0.18666,-0.0186 0.38091,0.0233 0.56697,0 0.009,-0.001 -0.0273,-0.0181 -0.0184,-0.0214 0.10022,-0.0375 0.20999,-0.0412 0.31487,-0.0624 0.34141,-0.0699 0.68982,-0.087 1.03712,-0.0987 0.43694,-0.0102 0.87406,-0.008 1.31107,-0.008 0.37833,5.3e-4 0.75665,8e-4 1.13498,0.001 0.37803,1.6e-4 0.75607,1.7e-4 1.13411,1.8e-4 0.31647,0 0.63293,0 0.9494,-1e-5 0.37797,0 0.75595,0 1.13392,0 0.43949,0 0.87897,0 1.31846,0 0.37797,0 0.75595,0 1.13393,0 0.249,-0.0237 0.50787,0.0311 0.75595,0 0.009,-0.001 -0.0273,-0.0181 -0.0184,-0.0214 0.0502,-0.0187 0.10511,-0.0204 0.15766,-0.0307 0.33209,-0.078 0.67156,-0.10682 1.01129,-0.12428 0.333,-0.005 0.65453,-0.10304 0.98321,-0.14971 0.32083,-0.0343 0.62728,-0.13767 0.94632,-0.18746 0.35864,-0.0543 0.72268,-0.0302 1.08154,-0.0753 0.3749,-0.0727 0.75285,-0.12004 1.13363,-0.14609 0.37787,-0.021 0.75647,-0.0214 1.13481,-0.0223 0.4395,-2.6e-4 0.87901,5.3e-4 1.31851,8e-4 0.31498,2.6e-4 0.62996,2.6e-4 0.94494,2.6e-4 0,0 -0.18453,0.0292 -0.18453,0.0292 v 0 c -0.31498,-5e-5 -0.62996,-1.2e-4 -0.94493,-2.7e-4 -0.31649,-2.6e-4 -0.63297,-7.9e-4 -0.94946,-7.9e-4 -0.37827,7.9e-4 -0.75678,0.001 -1.13464,0.0211 -0.38071,0.0251 -0.7589,0.0707 -1.13344,0.14493 -0.35837,0.049 -0.72247,0.0218 -1.08122,0.075 -0.31959,0.0482 -0.62581,0.15167 -0.94637,0.18771 -0.32924,0.0454 -0.65068,0.14399 -0.98361,0.15133 -0.33941,0.0166 -0.67888,0.0436 -1.01067,0.12162 -0.41674,0.0838 -0.84267,0.049 -1.26507,0.0556 -0.37797,0 -0.75595,0 -1.13393,0 -0.31646,0 -0.63293,0 -0.9494,0 -0.37797,0 -0.75595,1e-5 -1.13392,1e-5 -0.43949,0 -0.87897,1e-5 -1.31845,0 -0.37804,-1e-5 -0.75608,-1e-5 -1.13411,-1.9e-4 -0.37833,-2e-4 -0.75665,-5.2e-4 -1.13498,-10e-4 -0.31396,-9e-5 -0.62796,-2.7e-4 -0.94186,0.007 -0.34696,0.011 -0.69513,0.027 -1.03641,0.0956 -0.40776,0.0825 -0.8174,0.10299 -1.23331,0.0874 -0.31646,0 -0.63292,-1e-5 -0.94937,1e-5 -0.37779,4e-5 -0.75558,9e-5 -1.13337,2.7e-4 -0.43942,5.3e-4 -0.87883,10e-4 -1.31825,7.9e-4 -0.38972,-0.001 -0.77966,-0.002 -1.16895,-0.0225 -0.43195,-0.0271 -0.86182,-0.0742 -1.28886,-0.14551 -0.37621,-0.0452 -0.75702,-0.0177 -1.1343,-0.0578 -0.1996,-0.0192 -0.81956,-0.051 -0.95011,-0.15473 -0.37047,7.9e-4 -0.74123,7.9e-4 -1.11124,0.0219 -0.33311,0.0241 -0.66321,0.0676 -0.98868,0.14456 -0.42771,0.0612 -0.86525,0.006 -1.29615,0.0238 -0.37798,0 -0.75595,0 -1.13393,0 -0.31647,0 -0.63293,0 -0.9494,0 -0.37798,0 -0.75595,0 -1.13393,0 -0.37798,0 -0.75595,0 -1.13393,0 -0.43949,1e-5 -0.87897,1e-5 -1.31846,-1e-5 -0.37797,-4e-5 -0.75595,-9e-5 -1.13393,-5.3e-4 -0.31646,-2.7e-4 -0.63293,-7.9e-4 -0.94939,-7.9e-4 -0.37801,7.9e-4 -0.75627,10e-4 -1.13384,0.0219 -0.38078,0.0256 -0.75879,0.0725 -1.13386,0.1441 -0.37811,0.0238 -0.75528,0.0273 -1.13408,0.0234 -0.3781,0.002 -0.75665,0.005 -1.13381,0.0342 -0.38066,0.0353 -0.75585,0.10215 -1.13406,0.15561 -0.37798,0 -0.75595,0 -1.13393,0 -0.43948,0 -0.87897,0 -1.31845,0 -0.37798,0 -0.75595,0 -1.13393,0 -0.31647,-1e-5 -0.63293,-1e-5 -0.9494,0 -0.37798,10e-6 -0.75595,4e-5 -1.13393,2.6e-4 -0.43949,2.7e-4 -0.87897,10e-4 -1.31846,10e-4 -0.37802,-2e-4 -0.75618,2.6e-4 -1.13399,-0.014 -0.3803,-0.0186 -0.75979,-0.0515 -1.13408,-0.12444 -0.31557,-0.0517 -0.62972,-0.0631 -0.94918,-0.0532 -0.37801,7.9e-4 -0.75628,0.001 -1.13384,0.0219 -0.38081,0.0257 -0.75883,0.0727 -1.13386,0.14466 -0.37582,0.0471 -0.75599,0.0141 -1.13409,0.0237 -0.37797,0 -0.75595,0 -1.13392,1e-5 -0.43949,0 -0.87898,1e-5 -1.31847,-2e-5 -0.37811,-4e-5 -0.75622,-9e-5 -1.13434,-5.2e-4 -0.31674,-2.7e-4 -0.63349,-8e-4 -0.95023,-8e-4 -0.37047,8e-4 -0.74123,8e-4 -1.11124,0.0217 -0.33309,0.0239 -0.66322,0.0671 -0.98879,0.14341 -0.37087,0.025 -0.74069,0.0297 -1.1125,0.03 -0.37822,0.0111 -0.75735,0.0291 -1.13021,0.0985 -0.35277,0.067 -0.70291,0.12896 -1.06102,0.15941 -0.33911,0.0636 -0.67041,0.16397 -1.01853,0.16691 -0.43919,0.0541 -0.87314,0.16169 -1.31892,0.13974 -0.41684,-0.002 -0.83427,-0.006 -1.24959,-0.046 -0.53468,-0.0572 -1.06586,-0.14527 -1.58406,-0.29177 0,0 0.18554,-0.0241 0.18554,-0.0241 z"
       inkscape:connector-curvature="0" />
    <path
       style="opacity:1;fill:none;fill-opacity:1;fill-rule:nonzero;stroke:#000000;stroke-width:1;stroke-linecap:round;stroke-linejoin:round;stroke-miterlimit:4;stroke-dasharray:none;stroke-dashoffset:0;stroke-opacity:1;paint-order:markers fill stroke"
       id="path4535"
       d="m 166.49553,182.71006 c 0.19257,-0.20643 0.44324,-0.64966 0.77986,-0.63838 0.0938,0.003 0.18597,0.0252 0.27896,0.0377 0.20411,0.24761 0.0492,0.56272 -0.12207,0.77969 -0.29919,0.27628 -0.74191,0.268 -1.06519,0.0382 -0.25105,-0.253 -0.29331,-0.5903 -0.14007,-0.90479 0.21193,-0.38454 0.41011,-0.39325 0.81738,-0.36037 0.2992,0.0875 0.45311,0.3473 0.5602,0.62052 0.0663,0.31835 -0.008,0.63092 -0.13936,0.92169 -0.18205,0.34096 -0.4738,0.48446 -0.84614,0.50288 -0.4371,0.0172 -0.63674,-0.1905 -0.87866,-0.50665 -0.19233,-0.26374 -0.2341,-0.58234 -0.26344,-0.8982 0.002,-0.32185 0.11251,-0.58306 0.38796,-0.75706 0.32121,-0.13139 0.6328,-0.0411 0.91699,0.11926 0.2775,0.19288 0.40734,0.47375 0.49107,0.79027 0.0889,0.35811 0.0736,0.66572 -0.19699,0.93093 -0.31125,0.22092 -0.68493,0.20337 -1.02678,0.0657 -0.28564,-0.16173 -0.33815,-0.4708 -0.37795,-0.77024 -0.0438,-0.35555 0.0425,-0.7024 0.21809,-1.01058 0.24226,-0.29795 0.663,-0.25323 0.9442,-0.0333 0.28945,0.19927 0.4027,0.49322 0.46914,0.82402 0.0187,0.29949 -0.0737,0.568 -0.29469,0.77086 -0.2092,0.21384 -0.47472,0.3224 -0.77092,0.33257 -0.39546,0.0219 -0.65216,-0.1063 -0.70334,-0.51052 0.002,-0.0448 0.004,-0.0897 0.006,-0.13451 0,0 0.18747,8e-4 0.18747,8e-4 v 0 c -0.002,0.0438 -0.004,0.0875 -0.006,0.13133 0.0225,0.17348 0.0823,0.343 0.25019,0.42867 0.0389,0.0198 0.0882,0.017 0.12419,0.0417 0.0126,0.009 -0.0291,0.009 -0.0437,0.0136 0.29409,-0.002 0.56133,-0.10768 0.76924,-0.31936 0.22156,-0.19402 0.31198,-0.45813 0.29449,-0.75141 -0.0666,-0.32765 -0.18114,-0.61465 -0.46859,-0.81057 -0.0405,-0.0302 -0.0775,-0.0659 -0.12166,-0.0906 -0.0427,-0.0239 -0.0986,-0.0229 -0.13656,-0.0537 -0.0139,-0.0113 0.0693,-0.0172 0.0515,-0.0154 -0.15395,0.0159 -0.26923,0.0578 -0.36409,0.18566 -0.17669,0.30317 -0.26143,0.64686 -0.21801,0.99831 0.0396,0.2944 0.0914,0.59737 0.37701,0.75042 0.28137,0.10989 0.33863,0.13791 0.65409,-0.0585 0.27267,-0.25613 0.28427,-0.55885 0.19666,-0.911 -0.0836,-0.31219 -0.21342,-0.58894 -0.49055,-0.77531 -0.28255,-0.15794 -0.28497,-0.20216 -0.54403,-0.11995 -0.27648,0.16298 -0.38435,0.42063 -0.38752,0.73618 0.0293,0.31275 0.0711,0.62768 0.26342,0.88773 0.0868,0.11388 0.16005,0.2355 0.27699,0.32196 0.0783,0.0579 0.18273,0.0764 0.25602,0.14047 0.01,0.008 -0.0174,0.0186 -0.0261,0.028 0.36911,-0.0122 0.6608,-0.14395 0.844,-0.48241 0.13133,-0.28513 0.20464,-0.59352 0.13936,-0.90663 -0.10739,-0.26953 -0.26132,-0.52186 -0.55922,-0.60206 0.0255,-0.007 0.10235,-0.0165 0.0764,-0.0222 -0.22899,-0.051 -0.42574,0.20091 -0.52076,0.36576 -0.15475,0.30498 -0.10969,0.63553 0.13926,0.87814 0.28243,0.19119 0.38436,0.21733 0.69224,-0.0328 0.16408,-0.20199 0.32987,-0.51441 0.12224,-0.74455 0.0311,-0.0113 0.12221,-0.018 0.0933,-0.0341 -0.18176,-0.10069 -0.69526,0.50198 -0.77879,0.6232 0,0 -0.1868,-0.011 -0.1868,-0.011 z"
       inkscape:connector-curvature="0" />
    <path
       style="opacity:1;fill:none;fill-opacity:1;fill-rule:nonzero;stroke:#000000;stroke-width:1;stroke-linecap:round;stroke-linejoin:round;stroke-miterlimit:4;stroke-dasharray:none;stroke-dashoffset:0;stroke-opacity:1;paint-order:markers fill stroke"
       id="path4537"
       d="m 192.16113,182.58096 c -0.25713,-0.19386 -0.59735,-0.45339 -0.52646,-0.8141 0.21808,-0.30171 0.60346,0.0128 0.78664,0.18592 0.25422,0.27945 0.3697,0.61668 0.3577,0.98936 -0.0906,0.43665 -0.47659,0.41652 -0.84284,0.41216 -0.31131,-0.0656 -0.52746,-0.27579 -0.6574,-0.5566 -0.1189,-0.31611 -0.0961,-0.62014 0.07,-0.91077 0.19261,-0.36895 0.49359,-0.42055 0.88792,-0.34627 0.31242,0.13046 0.49156,0.42627 0.63129,0.71956 0.0955,0.28936 0.0511,0.56381 -0.16411,0.78044 -0.29894,0.20015 -0.68358,0.18559 -0.98918,0.008 -0.27272,-0.14375 -0.43551,-0.38579 -0.31391,-0.68763 0.0835,-0.14887 0.0344,-0.0789 0.14787,-0.20948 0,0 0.18702,0.0136 0.18702,0.0136 v 0 c -0.11331,0.12562 -0.0643,0.0577 -0.14741,0.2033 -0.12605,0.29343 0.0511,0.52327 0.31265,0.66048 0.25868,0.14199 0.32035,0.16795 0.61604,-0.003 0.21618,-0.20629 0.25806,-0.47541 0.16435,-0.7572 -0.13914,-0.28854 -0.31703,-0.58229 -0.63024,-0.70183 -0.19998,-0.0333 -0.33011,0.0144 -0.51535,0.33002 -0.16684,0.28375 -0.18787,0.58282 -0.0698,0.89275 0.13041,0.27538 0.34679,0.47945 0.65521,0.53609 -0.0413,0.0113 0.0866,0.002 0.12804,-0.009 0.12517,-0.0322 0.24982,-0.12247 0.30473,-0.24148 0.0194,-0.042 0.0253,-0.089 0.038,-0.13345 0.0122,-0.36787 -0.10359,-0.69976 -0.35685,-0.97347 -0.0799,-0.0741 -0.15693,-0.15537 -0.25314,-0.20978 -0.0395,-0.0224 -0.10207,-0.0132 -0.1261,-0.0518 -0.0151,-0.0243 0.0618,-0.0322 0.0846,-0.0149 0.0377,0.0286 -0.18079,0.006 -0.11794,0.0791 -0.0751,0.3503 0.27934,0.60607 0.52498,0.79194 0,0 -0.18622,0.0184 -0.18622,0.0184 z"
       inkscape:connector-curvature="0" />
    <path
       style="opacity:1;fill:none;fill-opacity:1;fill-rule:nonzero;stroke:#000000;stroke-width:1.00000003;stroke-linecap:round;stroke-linejoin:round;stroke-miterlimit:4;stroke-dasharray:1.00000003,3.00000008;stroke-dashoffset:0;stroke-opacity:1;paint-order:markers fill stroke"
       id="path4545"
       d="m 62.428098,244.30548 c 0.517636,0.1463 1.048504,0.23286 1.582682,0.2887 0.453271,0.0416 0.908841,0.0423 1.363602,0.0441 0.428976,-0.003 0.858038,0.0124 1.285761,-0.0235 0.56076,-0.0773 1.124336,-0.12105 1.689555,-0.14629 0.607221,0.007 1.208156,-0.0792 1.811255,-0.13592 0.633069,-0.0532 1.268556,-0.0651 1.9035,-0.0725 0.6404,-0.005 1.280832,-0.004 1.921246,-0.003 0.496644,-0.0523 1.02653,0.0822 1.516554,-0.021 0.608825,-0.0728 1.219576,-0.11941 1.832062,-0.14533 0.63123,-0.0137 1.259856,-0.0127 1.888414,-0.0758 0.603668,-0.0739 1.211037,-0.10428 1.818526,-0.12278 0.585089,-0.0138 1.170384,-0.0133 1.7556,-0.0134 0.590132,-0.0475 1.177674,-0.11712 1.768814,-0.15312 0.543295,-0.0299 1.087517,-0.033 1.631471,-0.0353 0.595177,-0.001 1.190358,-2.7e-4 1.785535,1.8e-4 0.562219,5.3e-4 1.12444,5.3e-4 1.686658,5.3e-4 0.551606,-0.008 1.099386,-0.0104 1.647447,0.0549 0.480764,0.0712 0.965409,0.1033 1.450625,0.1222 0.443791,0.014 0.887873,0.0131 1.331831,0.0132 0.407958,-0.0255 0.807196,0.0558 1.208,0.11409 0.394176,0.0553 0.792366,0.0646 1.189694,0.0712 0.363336,-0.007 0.726911,-0.0933 1.094139,-0.13262 0.429644,-0.0403 0.861314,-0.0486 1.292535,-0.0535 0.441552,0.0263 0.874789,-0.0548 1.309996,-0.11393 0.39407,-0.0257 0.78002,-0.0845 1.16769,-0.15704 0.37349,-0.0795 0.75734,-0.0688 1.13335,-0.12355 0.37416,-0.0784 0.75242,-0.12614 1.13347,-0.15243 0.38076,-0.0135 0.75729,-0.0121 1.13378,-0.0743 0.37428,-0.0727 0.75383,-0.10482 1.13408,-0.12303 0.38181,-0.0107 0.7553,-0.10246 1.13383,-0.14942 0.34818,-0.004 0.6807,-0.0993 1.01986,-0.16389 0.35431,-0.0512 0.70912,-0.0618 1.06143,-0.1273 0.3586,-0.071 0.72163,-0.0899 1.07637,-0.17899 0.33022,-0.0917 0.67152,-0.11979 1.01225,-0.13736 0.37649,-0.006 0.74818,-0.005 1.12038,-0.0652 0.4553,-0.0861 0.91875,-0.10709 1.38074,-0.12275 0.56811,-0.0146 1.13648,-0.0134 1.70474,-0.0136 0.67334,1.4e-4 1.34668,8e-4 2.02002,0.001 0.53222,1.9e-4 1.06444,2.2e-4 1.59666,2.2e-4 0.38792,-2e-5 0.77584,-10e-6 1.16375,-2e-5 0.40208,-2e-5 0.80415,-2e-5 1.20623,-3e-5 0.47802,0 0.95604,3e-5 1.43406,2e-5 0.48191,2e-5 0.96383,4e-5 1.44574,3e-5 0.52021,3e-5 1.04041,0 1.56061,1e-5 0.44334,0.008 0.88288,0.005 1.32291,-0.0526 0.47085,-0.0812 0.9391,-0.12559 1.41527,-0.0693 0.32215,0.0559 0.63479,0.0918 0.95011,0.0556 0.37534,-0.0585 0.75337,-0.0909 1.13257,-0.10898 0.33764,-0.004 0.66359,-0.10295 0.99662,-0.15046 0.35635,-0.095 0.71581,-0.16638 1.08241,-0.20595 0.38315,-0.005 0.75589,-0.0908 1.13276,-0.14929 0.43071,-0.0487 0.86153,-0.0542 1.28948,-0.12537 0.44853,-0.10672 0.89985,-0.0961 1.35383,-0.0407 0.33091,0.0743 0.6227,0.0434 0.94886,-8e-4 0.37546,-0.0562 0.75447,-0.0772 1.1335,-0.0895 0.4394,-0.0104 0.87898,-0.009 1.31847,-0.009 0.18671,-0.0183 0.38084,0.0235 0.56697,5.3e-4 0.009,-0.001 -0.0267,-0.0167 -0.0184,-0.0212 0.0339,-0.0185 0.0747,-0.0199 0.1121,-0.0299 0,0 0.18607,0.0243 0.18607,0.0243 v 0 c -0.33375,0.0954 -0.68867,0.0426 -1.03122,0.0555 -0.31645,2.4e-4 -0.63294,2.7e-4 -0.94932,0.008 -0.37889,0.0117 -0.75787,0.0316 -1.13324,0.0876 -0.43985,0.0605 -0.87891,0.081 -1.31858,0.001 -0.33812,-0.0405 -0.64814,-0.0518 -0.98423,0.0398 -0.42792,0.0724 -0.85814,0.08 -1.28932,0.12564 -0.3771,0.0577 -0.74949,0.14649 -1.13284,0.15018 -0.36659,0.0382 -0.7267,0.1067 -1.08209,0.20534 -0.33362,0.0462 -0.6595,0.14641 -0.99712,0.15215 -0.37911,0.0174 -0.75724,0.0484 -1.13238,0.10767 -0.44384,0.0538 -0.8803,0.0183 -1.31975,-0.0555 -0.34977,-0.0392 -0.69429,0.009 -1.04612,0.0689 -0.56171,0.0755 -1.12479,0.0579 -1.69094,0.055 -0.52029,2e-5 -1.04058,-1e-5 -1.56086,2e-5 -0.48201,-1e-5 -0.96402,1e-5 -1.44603,2e-5 -0.35512,0 -0.71024,4e-5 -1.06536,3e-5 -0.40218,0 -0.80436,-1e-5 -1.20655,-2e-5 -0.51062,-1e-5 -1.02125,2e-5 -1.53188,-2e-5 -0.53199,-5e-5 -1.06397,-9e-5 -1.59596,-2.7e-4 -0.55115,-2.4e-4 -1.10229,-5.3e-4 -1.65344,-0.001 -0.56812,1.1e-4 -1.13634,-0.001 -1.70432,0.013 -0.46149,0.0151 -0.92465,0.0349 -1.37953,0.12049 -0.37233,0.0622 -0.74352,0.0633 -1.12056,0.0673 -0.34032,0.0167 -0.68152,0.0428 -1.01153,0.13372 -0.3549,0.0906 -0.71736,0.11104 -1.07682,0.18011 -0.35226,0.0666 -0.70623,0.0798 -1.06115,0.12733 -0.33966,0.0634 -0.67167,0.16296 -1.02032,0.16503 -0.37888,0.046 -0.75234,0.13828 -1.13403,0.15082 -0.38009,0.0174 -0.75968,0.048 -1.13379,0.12083 -0.37664,0.0637 -0.75268,0.0651 -1.13402,0.0761 -0.38096,0.0253 -0.75945,0.0712 -1.13325,0.15092 -0.37549,0.0583 -0.75973,0.0435 -1.13329,0.1229 -0.38792,0.0723 -0.77335,0.13492 -1.168,0.15793 -0.435398,0.0587 -0.868526,0.14296 -1.310266,0.11623 -0.431184,0.005 -0.862807,0.0123 -1.292493,0.0517 -0.487309,0.0509 -0.969737,0.16226 -1.462817,0.13425 -0.397598,-0.007 -0.796031,-0.0171 -1.19034,-0.0735 -0.412723,-0.0607 -0.785185,-0.15645 -1.207299,-0.11147 -0.443968,-2.1e-4 -0.888066,5.3e-4 -1.331854,-0.0139 -0.485174,-0.0195 -0.96965,-0.0529 -1.450414,-0.1237 -0.547844,-0.064 -1.095706,-0.0593 -1.64688,-0.0528 -0.562251,-5e-5 -1.124503,-1.5e-4 -1.686754,-5.3e-4 -0.472797,-2.6e-4 -0.945594,-0.001 -1.418391,-2.2e-4 -0.543986,0.002 -1.088226,0.005 -1.631582,0.0342 -0.591323,0.0353 -1.179084,0.10361 -1.7691,0.1542 -0.585152,1.2e-4 -1.170384,-5.3e-4 -1.755423,0.0129 -0.607467,0.018 -1.214908,0.0474 -1.818547,0.12145 -0.628621,0.0641 -1.257081,0.0647 -1.888532,0.0769 -0.612368,0.0254 -1.223127,0.0707 -1.831706,0.14469 -0.627612,0.031 -1.25526,0.0243 -1.883587,0.0224 -0.518207,-2.7e-4 -1.036426,-0.001 -1.55462,0.003 -0.634852,0.007 -1.270243,0.0185 -1.903275,0.071 -0.603178,0.0562 -1.203973,0.14423 -1.811247,0.13684 -0.565058,0.0247 -1.128657,0.067 -1.6891,0.14557 -0.549521,0.0494 -1.102675,0.0136 -1.653845,0.0251 -0.454781,-0.002 -0.910399,-0.003 -1.363596,-0.046 -0.534673,-0.0572 -1.065858,-0.14527 -1.584058,-0.29177 0,0 0.185545,-0.0241 0.185545,-0.0241 z"
       inkscape:connector-curvature="0" />
    <path
       style="opacity:1;fill:none;fill-opacity:1;fill-rule:nonzero;stroke:#000000;stroke-width:1;stroke-linecap:round;stroke-linejoin:round;stroke-miterlimit:4;stroke-dasharray:none;stroke-dashoffset:0;stroke-opacity:1;paint-order:markers fill stroke"
       id="path4551"
       d="m 105.21806,243.35552 c 0.0969,-0.22954 0.25515,-0.68655 0.56932,-0.71179 0.0947,-0.008 0.18979,0.008 0.28469,0.0124 0.22816,0.16221 0.25245,0.36918 0.199,0.62684 -0.11885,0.29811 -0.37783,0.46294 -0.68311,0.52203 -0.39381,0.0418 -0.66592,-0.0724 -0.90711,-0.36632 -0.19107,-0.28702 -0.15341,-0.61573 -0.0102,-0.91254 0.12864,-0.28734 0.3655,-0.4387 0.67284,-0.46943 0.38446,-0.0327 0.61613,0.11259 0.80535,0.43215 0.13488,0.30362 0.0601,0.6373 -0.0352,0.941 -0.1251,0.29839 -0.32475,0.51285 -0.6029,0.67216 -0.41838,0.18181 -0.80277,0.12281 -1.08176,-0.23711 -0.19567,-0.33648 -0.18764,-0.69626 -0.0965,-1.06203 0.13926,-0.39687 0.40919,-0.68083 0.81083,-0.79989 0.42645,-0.0502 0.76039,0.10099 1.06617,0.37568 0.21491,0.24821 0.26138,0.55294 0.22347,0.86824 -0.082,0.30662 -0.27465,0.50946 -0.54303,0.66528 -0.35309,0.162 -0.77129,0.11699 -1.05377,-0.14937 -0.18228,-0.23428 -0.1911,-0.49892 -0.16725,-0.78122 0,0 0.18694,0.002 0.18694,0.002 v 0 c -0.0235,0.27685 -0.0157,0.53662 0.16701,0.76419 0.24189,0.2182 0.40133,0.27249 0.68098,0.14517 0.2669,-0.14969 0.45812,-0.34639 0.54184,-0.64789 0.0378,-0.30973 -0.008,-0.60881 -0.22279,-0.85018 -0.11494,-0.1009 -0.23961,-0.201 -0.3782,-0.26878 -0.0502,-0.0246 -0.11191,-0.0263 -0.15685,-0.0595 -0.0123,-0.009 0.0369,-0.0367 0.022,-0.0404 -0.0586,-0.0144 -0.12076,8e-4 -0.18114,0.001 -0.40051,0.11048 -0.66969,0.38703 -0.80948,0.78039 -0.0908,0.36005 -0.0995,0.71484 0.0964,1.04497 0.22278,0.27831 0.38606,0.37557 0.70902,0.22983 0.27775,-0.15391 0.47561,-0.36374 0.60189,-0.65811 0.0943,-0.29852 0.1705,-0.62697 0.0351,-0.92517 -0.0875,-0.1439 -0.20146,-0.28983 -0.35764,-0.36695 -0.0383,-0.0189 -0.0862,-0.0155 -0.12231,-0.0384 -0.0135,-0.009 0.0314,-0.006 0.0471,-0.009 -0.30447,0.0203 -0.54319,0.1666 -0.67108,0.45016 -0.14367,0.28934 -0.18027,0.61148 0.01,0.89105 0.0941,0.11181 0.18706,0.21595 0.3223,0.27982 0.0404,0.0191 0.0961,0.0116 0.12632,0.0445 0.0147,0.016 -0.0786,0.023 -0.0579,0.0299 0.0456,0.0153 0.0961,-7.9e-4 0.14419,-0.001 0.30192,-0.0495 0.55976,-0.20885 0.68113,-0.49987 0.0516,-0.24528 0.0337,-0.45264 -0.19746,-0.59626 0.0291,-0.005 0.11116,-0.0338 0.0874,-0.0161 -0.0332,0.0247 -0.0817,0.0189 -0.11804,0.0389 -0.24149,0.13268 -0.3605,0.41137 -0.45038,0.65508 0,0 -0.18703,-0.005 -0.18703,-0.005 z"
       inkscape:connector-curvature="0" />
    <path
       style="opacity:1;fill:none;fill-opacity:1;fill-rule:nonzero;stroke:#000000;stroke-width:1;stroke-linecap:round;stroke-linejoin:round;stroke-miterlimit:4;stroke-dasharray:none;stroke-dashoffset:0;stroke-opacity:1;paint-order:markers fill stroke"
       id="path4563"
       d="m 70.86756,244.32018 c 0.206354,-0.23601 0.450477,-0.62624 0.802463,-0.65983 0.102738,-0.01 0.206401,0.002 0.309605,0.002 0.2907,0.14275 0.273685,0.48554 0.246742,0.76258 -0.06999,0.29485 -0.17717,0.57099 -0.489061,0.65777 -0.401082,0.0294 -0.562271,-0.13617 -0.744754,-0.46176 -0.103394,-0.31052 -0.07028,-0.62501 0.137665,-0.87973 0.275886,-0.22428 0.653047,-0.2265 0.95127,-0.0445 0.258942,0.22242 0.336163,0.53302 0.317598,0.86092 -0.100431,0.42903 -0.484781,0.40864 -0.848694,0.40467 -0.311266,-0.0648 -0.527301,-0.27447 -0.657145,-0.55504 -0.108255,-0.28875 -0.03561,-0.57847 0.07042,-0.85476 0.146939,-0.29626 0.444677,-0.35991 0.745162,-0.40407 0.402026,-0.0341 0.660212,0.0593 0.918122,0.35456 0.19081,0.28255 0.09868,0.61873 -0.02424,0.90978 -0.127889,0.31436 -0.354221,0.55514 -0.675502,0.66738 -0.437727,0.10113 -0.663792,-0.10023 -0.887087,-0.43426 -0.128402,-0.20581 -0.146608,-0.38351 -0.05822,-0.6039 0,0 0.187222,0.007 0.187222,0.007 v 0 c -0.08992,0.21399 -0.0682,0.38548 0.05764,0.58552 0.08879,0.13062 0.181242,0.27197 0.317048,0.36039 0.03779,0.0246 0.09509,0.0216 0.122523,0.0574 0.01341,0.0175 -0.08498,0.0191 -0.06296,0.0203 0.04622,0.003 0.09197,-0.0107 0.137948,-0.0161 0.321387,-0.10214 0.547069,-0.3413 0.674497,-0.65158 0.122177,-0.28371 0.214614,-0.61394 0.02418,-0.88868 -0.200758,-0.22406 -0.296542,-0.25953 -0.57827,-0.33272 -0.0108,-0.003 0.02151,-0.006 0.03225,-0.009 -0.294995,0.0406 -0.594469,0.0951 -0.743072,0.3843 -0.104804,0.27149 -0.179014,0.55572 -0.07058,0.83969 0.130331,0.27513 0.346599,0.47865 0.654941,0.53448 -0.04152,0.0109 0.08685,0.001 0.128434,-0.01 0.124728,-0.032 0.250296,-0.12102 0.307774,-0.23814 0.0199,-0.0405 0.02689,-0.0862 0.04034,-0.12926 0.01857,-0.32173 -0.05777,-0.62676 -0.316691,-0.84048 -0.242885,-0.14006 -0.298323,-0.15543 -0.577966,0.0381 -0.208997,0.24479 -0.240244,0.55457 -0.1377,0.85709 0.06777,0.11889 0.138441,0.25351 0.247473,0.34187 0.02978,0.0241 0.0637,0.0435 0.09886,0.0587 0.03463,0.015 0.09056,-0.002 0.108826,0.0314 0.01365,0.0247 -0.05558,0.01 -0.08337,0.0147 0.313079,-0.0723 0.417385,-0.3449 0.488138,-0.63486 0.02588,-0.26562 0.04729,-0.60917 -0.245139,-0.73212 0.140758,-0.0162 0.0099,-0.005 -0.08351,0.0346 -0.204139,0.0856 -0.367104,0.25526 -0.509437,0.41873 -0.05197,0.0597 -0.09797,0.12435 -0.146949,0.18652 0,0 -0.186801,-0.011 -0.186801,-0.011 z"
       inkscape:connector-curvature="0" />
    <path
       style="opacity:1;fill:none;fill-opacity:1;fill-rule:nonzero;stroke:#000000;stroke-width:1;stroke-linecap:round;stroke-linejoin:round;stroke-miterlimit:4;stroke-dasharray:none;stroke-dashoffset:0;stroke-opacity:1;paint-order:markers fill stroke"
       id="path4567"
       d="m 167.0625,179.30827 c 0.26811,-0.47945 0.62819,-0.89635 0.99404,-1.3026 0.3361,-0.32138 0.68181,-0.63161 1.03304,-0.93639 0.31385,-0.24814 0.61672,-0.50909 0.92736,-0.76172 0.32996,-0.29045 0.69643,-0.53512 1.07888,-0.75028 0.34403,-0.20329 0.662,-0.44696 0.99655,-0.66597 0.34737,-0.19633 0.71745,-0.35179 1.08329,-0.51075 0.37152,-0.13842 0.75688,-0.23564 1.13293,-0.36038 0.37525,-0.11507 0.75424,-0.22026 1.13471,-0.31752 0.37932,-0.0645 0.75655,-0.13085 1.13404,-0.20663 0.37372,-0.0735 0.75441,-0.0925 1.13413,-0.10405 0.45731,-0.009 0.91476,-0.007 1.37214,-0.006 0.49323,0.009 0.98777,-0.021 1.47935,0.0247 0.47947,0.0634 0.95929,0.10451 1.43361,0.20008 0.40407,0.0582 0.7934,0.1808 1.19333,0.25925 0.43378,0.092 0.85854,0.21612 1.28769,0.32622 0.39152,0.11847 0.77579,0.25945 1.16811,0.3749 0.39046,0.12297 0.7605,0.29623 1.13378,0.46185 0.36536,0.19411 0.75751,0.32805 1.13339,0.49918 0.3417,0.13918 0.68252,0.27972 1.02022,0.4287 0.33594,0.12138 0.62517,0.33357 0.9244,0.52257 0.27123,0.19294 0.5293,0.39894 0.75671,0.64232 0.17627,0.25564 0.39964,0.4753 0.55829,0.74254 0.10879,0.21369 0.36666,0.38707 0.36728,0.63939 -0.15074,0.21325 -0.67679,0.09 -0.9096,0.0374 -0.3759,-0.0712 -0.72938,-0.19936 -1.07376,-0.36215 -0.14937,-0.0312 -0.48171,-0.40476 -0.59268,-0.41198 0.0832,0.0302 0.17354,0.0454 0.24976,0.0905 0.084,0.0497 0.11889,0.1557 0.18941,0.2231 0.11873,0.11349 0.25058,0.2202 0.37953,0.32185 0.23428,0.22147 0.49955,0.40702 0.76393,0.59024 0.13799,0.0786 0.28133,0.15758 0.44608,0.15268 0.0156,-5.2e-4 -0.054,-0.0144 -0.0408,-0.0226 0.0815,-0.0509 0.18266,-0.0626 0.26719,-0.10835 0.29368,-0.21492 0.46967,-0.54724 0.63501,-0.86342 0.19186,-0.38494 0.40117,-0.75957 0.62123,-1.12914 0.21534,-0.37 0.42124,-0.74506 0.63606,-1.11504 0.12158,-0.21336 0.23976,-0.42844 0.36131,-0.64184 0,0 0.18656,0.01 0.18656,0.01 v 0 c -0.12174,0.21336 -0.23955,0.4287 -0.36135,0.64201 -0.21625,0.36916 -0.42036,0.74556 -0.63639,1.11521 -0.22022,0.36909 -0.42941,0.74337 -0.62095,1.12808 -0.16585,0.31916 -0.34323,0.6532 -0.63518,0.87434 -0.33275,0.1901 -0.72282,0.18758 -1.04505,-0.0236 -0.26383,-0.18463 -0.52933,-0.36978 -0.76398,-0.59142 -0.0734,-0.0586 -0.58115,-0.48775 -0.5699,-0.55191 0.0102,-0.0581 0.083,-0.0837 0.12458,-0.12549 0.1871,0.0774 0.38202,0.34765 0.59142,0.41603 0.34392,0.16217 0.69846,0.28633 1.07324,0.35797 0.19347,0.0412 0.40755,0.13354 0.53629,-0.0122 7.9e-4,-0.24591 -0.26559,-0.41811 -0.36626,-0.62928 -0.15981,-0.26487 -0.38076,-0.48521 -0.55788,-0.73855 -0.22747,-0.24136 -0.48522,-0.44645 -0.75594,-0.63765 -0.29837,-0.18962 -0.58904,-0.39808 -0.92428,-0.51974 -0.33827,-0.14748 -0.67823,-0.28984 -1.01989,-0.42897 -0.37645,-0.16969 -0.76758,-0.30596 -1.13337,-0.49904 -0.37269,-0.16607 -0.74326,-0.33737 -1.13358,-0.45943 -0.39176,-0.11682 -0.77619,-0.25673 -1.16786,-0.37425 -0.42882,-0.11107 -0.85397,-0.23361 -1.28777,-0.32515 -0.39943,-0.0798 -0.78919,-0.2005 -1.19298,-0.25934 -0.47406,-0.0947 -0.95397,-0.13492 -1.433,-0.19813 -0.49182,-0.0426 -0.98622,-0.0142 -1.47948,-0.023 -0.33445,-2.6e-4 -0.66895,-0.001 -1.00335,0.006 -0.37948,0.011 -0.76001,0.0287 -1.13371,0.10094 -0.37758,0.0752 -0.75397,0.14486 -1.13394,0.20568 -0.38063,0.0961 -0.75896,0.20294 -1.13459,0.31614 -0.37522,0.12657 -0.76087,0.22205 -1.13279,0.35878 -0.36567,0.1579 -0.73435,0.31474 -1.08287,0.50758 -0.33473,0.21941 -0.65383,0.46184 -0.99687,0.66724 -0.38271,0.21314 -0.74911,0.45719 -1.07851,0.74707 -0.31027,0.25294 -0.61347,0.51335 -0.92737,0.76113 -0.35087,0.3047 -0.69662,0.61413 -1.03363,0.93407 -0.36552,0.40504 -0.72686,0.82028 -0.9925,1.29998 0,0 -0.1868,-0.011 -0.1868,-0.011 z"
       inkscape:connector-curvature="0" />
    <path
       style="opacity:1;fill:none;fill-opacity:1;fill-rule:nonzero;stroke:#000000;stroke-width:1;stroke-linecap:round;stroke-linejoin:round;stroke-miterlimit:4;stroke-dasharray:none;stroke-dashoffset:0;stroke-opacity:1;paint-order:markers fill stroke"
       id="path4577"
       d="m 72.777751,247.7798 c 0.317413,0.36282 0.655259,0.70641 0.970463,1.07129 0.290703,0.33262 0.588171,0.65894 0.866045,1.00235 0.224493,0.23975 0.44016,0.4863 0.654311,0.73551 0.288547,0.28681 0.610355,0.53458 0.956197,0.74774 0.322543,0.176 0.650782,0.33602 0.990616,0.47622 0.31992,0.1152 0.630877,0.25436 0.94765,0.37901 0.332914,0.13938 0.658987,0.29627 0.995817,0.42599 0.340863,0.1568 0.689735,0.29278 1.036196,0.43603 0.368223,0.13477 0.747196,0.24432 1.127117,0.34227 0.3893,0.0941 0.789993,0.10861 1.1884,0.11899 0.375526,0.007 0.751133,0.005 1.126701,0.005 0.488776,0.0139 0.968341,0.1111 1.454812,0.15393 0.381389,0.0292 0.764074,0.0319 1.146363,0.0341 0.378227,-0.105 0.796382,-0.1103 1.188439,-0.17599 0.444069,-0.11023 0.90156,-0.13217 1.351378,-0.20341 0.407583,-0.0963 0.827498,-0.11592 1.238139,-0.18989 0.385395,-0.0735 0.768964,-0.14163 1.139611,-0.27292 0.417319,-0.15126 0.848256,-0.26168 1.26978,-0.40017 0.405508,-0.14638 0.812803,-0.28665 1.217075,-0.43694 0.379939,-0.11331 0.736823,-0.28762 1.10925,-0.42105 0.333637,-0.14131 0.648433,-0.32092 0.972193,-0.48249 0.308282,-0.18822 0.628211,-0.35537 0.944084,-0.53063 0.32054,-0.20714 0.629084,-0.43103 0.944438,-0.6458 0.322958,-0.21393 0.627401,-0.45093 0.931709,-0.68983 0.305985,-0.25707 0.623292,-0.49852 0.939472,-0.74282 0.312192,-0.26493 0.645893,-0.49833 0.980713,-0.73214 0.24157,-0.15357 0.46928,-0.33202 0.67268,-0.53362 0.19375,-0.18198 0.38855,-0.36464 0.56912,-0.56003 0.14874,-0.11578 0.24505,-0.26035 0.32277,-0.42884 0,0 0.18719,0.008 0.18719,0.008 v 0 c -0.0771,0.17074 -0.17123,0.31911 -0.32301,0.43472 -0.17925,0.19685 -0.37557,0.37857 -0.56919,0.56084 -0.20206,0.20397 -0.43144,0.38272 -0.67336,0.53682 -0.33374,0.23511 -0.670597,0.46423 -0.981252,0.73122 -0.315717,0.24463 -0.63373,0.48481 -0.938782,0.74279 -0.30549,0.23795 -0.608444,0.47756 -0.932312,0.69099 -0.315492,0.21522 -0.624885,0.43836 -0.944481,0.64755 -0.316415,0.17455 -0.636016,0.34281 -0.944131,0.53145 -0.324659,0.16078 -0.639196,0.34156 -0.972526,0.48469 -0.373081,0.13178 -0.728983,0.3085 -1.109303,0.42079 -0.404571,0.15014 -0.811826,0.29063 -1.217371,0.43758 -0.420849,0.14007 -0.852329,0.24842 -1.269466,0.39975 -0.370276,0.1342 -0.75406,0.20228 -1.139973,0.27591 -0.410165,0.0772 -0.831167,0.0919 -1.23857,0.19026 -0.44939,0.0738 -0.907656,0.0912 -1.351481,0.20323 -0.513951,0.0889 -1.038077,0.13794 -1.557377,0.17907 -0.382347,-0.002 -0.765104,-0.005 -1.146488,-0.0356 -0.361548,-0.0327 -0.735851,-0.0672 -1.086064,-0.15238 -0.498337,7.9e-4 -0.996744,0.003 -1.495031,-0.005 -0.398875,-0.011 -0.799957,-0.027 -1.189286,-0.12314 -0.37991,-0.0993 -0.759642,-0.20753 -1.1274,-0.3448 -0.347004,-0.14211 -0.694679,-0.281 -1.036513,-0.43563 -0.336037,-0.13175 -0.662784,-0.28669 -0.99572,-0.4261 -0.316465,-0.1254 -0.627959,-0.26323 -0.947642,-0.37933 -0.339654,-0.14152 -0.668563,-0.30134 -0.990582,-0.47926 -0.34585,-0.21553 -0.669353,-0.46382 -0.957095,-0.75339 -0.214271,-0.24913 -0.430999,-0.49499 -0.654122,-0.73608 -0.278379,-0.34275 -0.574865,-0.6696 -0.865761,-1.00177 -0.315236,-0.3645 -0.65187,-0.70894 -0.971024,-1.06989 0,0 0.186584,-0.0147 0.186584,-0.0147 z"
       inkscape:connector-curvature="0" />
    <path
       style="opacity:1;fill:none;fill-opacity:1;fill-rule:nonzero;stroke:#000000;stroke-width:1;stroke-linecap:round;stroke-linejoin:round;stroke-miterlimit:4;stroke-dasharray:none;stroke-dashoffset:0;stroke-opacity:1;paint-order:markers fill stroke"
       id="path4579"
       d="m 72.997707,248.96888 c -0.123036,0.53081 -0.287173,1.05065 -0.404561,1.58279 -0.04914,0.12987 -0.156212,0.66675 -0.335036,0.68942 -0.08592,0.0109 -0.173202,0.002 -0.259803,0.003 -0.198199,-0.1581 -0.300373,-0.42953 -0.422809,-0.64981 -0.16125,-0.32274 -0.285703,-0.66047 -0.410335,-0.99854 -0.130452,-0.36319 -0.16755,-0.74678 -0.189359,-1.12913 -0.01947,-0.35108 -0.03688,-0.70035 0.09582,-1.03154 0.220845,-0.32905 0.652976,-0.2706 0.998197,-0.19704 0.40664,0.0883 0.75901,0.32167 1.12256,0.51323 0.36721,0.20912 0.734717,0.41501 1.138137,0.54463 0.229077,0.0468 0.446551,0.13343 0.670965,0.19756 0,0 -0.18556,0.0241 -0.18556,0.0241 v 0 c -0.223999,-0.0651 -0.442098,-0.14963 -0.670645,-0.19824 -0.402756,-0.13254 -0.770368,-0.33937 -1.13833,-0.54783 -0.362542,-0.19201 -0.71551,-0.42277 -1.122336,-0.50791 -0.220361,-0.0432 -0.455835,-0.0837 -0.625803,0.17875 -0.134956,0.32756 -0.114623,0.67515 -0.09619,1.02325 0.02175,0.38054 0.05877,0.7623 0.189201,1.12359 0.124626,0.33714 0.248711,0.67414 0.410617,0.99563 0.11842,0.21212 0.217551,0.49338 0.421762,0.63028 -0.03772,0.002 -0.07909,0.0223 -0.113168,0.006 -0.02098,-0.0101 0.04592,-0.0142 0.06305,-0.0299 0.02944,-0.0271 0.05256,-0.0608 0.07303,-0.0952 0.100824,-0.16927 0.137765,-0.36373 0.199972,-0.54814 0.117628,-0.53242 0.282892,-1.05223 0.403595,-1.58395 0,0 0.187031,0.005 0.187031,0.005 z"
       inkscape:connector-curvature="0" />
    <path
       style="opacity:1;fill:none;fill-opacity:1;fill-rule:nonzero;stroke:#000000;stroke-width:1.00000003;stroke-linecap:round;stroke-linejoin:round;stroke-miterlimit:4;stroke-dasharray:none;stroke-dashoffset:0;stroke-opacity:1;paint-order:markers fill stroke"
       id="path4585"
       d="m 165.24656,188.68041 c -0.0867,0.5873 -0.12246,1.18002 -0.14608,1.77266 0.007,0.65318 -0.0789,1.30061 -0.13634,1.94991 -0.0234,0.56345 -0.0739,1.12046 -0.1569,1.67797 -0.0577,0.35156 -0.0764,0.70717 -0.0994,1.06209 -0.0117,0.0713 -0.0226,0.17446 -0.17092,-0.0943 -0.0224,-0.0405 0.0207,-0.0903 0.0303,-0.13558 0.0391,-0.18334 0.0625,-0.36624 0.0835,-0.55245 0.0357,-0.57023 0.049,-1.13892 0.10752,-1.70758 0.0468,-0.64787 0.16464,-1.28665 0.23812,-1.93144 0.10009,-0.5872 0.18009,-1.17686 0.29373,-1.76159 0.0985,-0.42628 0.14895,-0.88907 0.37326,-1.27153 0.33696,-0.29092 0.63067,-0.10909 0.84102,0.19836 0.25753,0.43861 0.44654,0.91729 0.64229,1.38653 0.25576,0.60486 0.49849,1.21521 0.74046,1.82572 0.23848,0.58395 0.47651,1.16779 0.70269,1.75665 0.17523,0.44061 0.38375,0.86604 0.58288,1.29591 0.12089,0.22034 0.23715,0.4339 0.24751,0.68782 0,0 -0.18744,8e-4 -0.18744,8e-4 v 0 c -0.01,-0.25124 -0.12854,-0.46206 -0.24641,-0.68048 -0.19944,-0.43006 -0.40725,-0.85615 -0.58219,-1.29719 -0.2259,-0.58881 -0.46358,-1.17269 -0.70206,-1.75647 -0.24201,-0.61044 -0.48473,-1.22073 -0.74088,-1.82537 -0.1957,-0.46811 -0.38422,-0.94605 -0.64346,-1.38254 -0.19188,-0.27326 -0.2538,-0.38947 -0.46763,-0.19967 -0.22767,0.37815 -0.27474,0.84157 -0.37425,1.26508 -0.11385,0.58423 -0.19397,1.17342 -0.29429,1.76012 -0.0732,0.64476 -0.19136,1.28342 -0.23812,1.93124 -0.0583,0.56872 -0.0714,1.13744 -0.10618,1.70777 -0.0103,0.0921 -0.0532,0.62921 -0.11271,0.6894 -0.0549,0.0555 -0.1391,0.071 -0.20865,0.10645 0.001,-0.006 0.003,-0.0113 0.004,-0.0169 0.0262,-0.3552 0.0421,-0.71159 0.10117,-1.06354 0.0834,-0.55712 0.13455,-1.1137 0.15788,-1.67684 0.0574,-0.64902 0.14294,-1.29612 0.13636,-1.94901 0.0234,-0.59326 0.0597,-1.18641 0.14417,-1.77459 0,0 0.18714,0.003 0.18714,0.003 z"
       inkscape:connector-curvature="0" />
    <path
       style="opacity:1;fill:none;fill-opacity:1;fill-rule:nonzero;stroke:#000000;stroke-width:1;stroke-linecap:round;stroke-linejoin:round;stroke-miterlimit:4;stroke-dasharray:none;stroke-dashoffset:0;stroke-opacity:1;paint-order:markers fill stroke"
       id="path4587"
       d="m 164.6741,192.81029 c 0.5182,-0.1465 1.04939,-0.23459 1.58406,-0.29177 0.28685,-0.0276 0.57416,-0.0273 0.8599,-0.0642 0,0 0.18473,0.0267 0.18473,0.0267 v 0 c -0.28578,0.0394 -0.57319,0.0379 -0.86047,0.0647 -0.53417,0.0558 -1.06504,0.1424 -1.58267,0.28871 0,0 -0.18555,-0.0241 -0.18555,-0.0241 z"
       inkscape:connector-curvature="0" />
    <path
       style="opacity:1;fill:none;fill-opacity:1;fill-rule:nonzero;stroke:#000000;stroke-width:1;stroke-linecap:round;stroke-linejoin:round;stroke-miterlimit:4;stroke-dasharray:none;stroke-dashoffset:0;stroke-opacity:1;paint-order:markers fill stroke"
       id="path4589"
       d="m 189.98134,187.54776 c -0.18821,0.6271 -0.33738,1.26083 -0.42825,1.90926 -0.11879,0.63633 -0.19246,1.27867 -0.30497,1.9159 -0.0892,0.47673 -0.13463,0.95926 -0.1569,1.44324 -0.0206,0.3333 -0.17113,0.66563 -0.11203,1.00091 0.0855,0.048 -0.10293,-0.0565 -0.11638,-0.0955 -0.0157,-0.0455 0.0369,-0.0889 0.0526,-0.13438 0.0616,-0.17889 0.0906,-0.36797 0.13596,-0.55137 0.11588,-0.53202 0.22187,-1.06613 0.33855,-1.59798 0.13489,-0.59313 0.28721,-1.18205 0.43059,-1.77323 0.15844,-0.51644 0.28585,-1.04211 0.46162,-1.55306 0.12349,-0.31999 0.22014,-0.7265 0.53459,-0.91254 0.4204,-0.0761 0.5935,0.23264 0.7306,0.56585 0.20151,0.48556 0.3302,0.99568 0.46786,1.50176 0.136,0.60018 0.33156,1.18411 0.48067,1.78083 0.13715,0.5213 0.28635,1.04046 0.46379,1.54959 0.10024,0.36559 0.27059,0.70507 0.37307,1.06946 0.0443,0.21513 0.0334,0.10967 0.0362,0.31598 0,0 -0.18729,2.3e-4 -0.18729,2.3e-4 v 0 c -0.002,-0.2023 0.008,-0.0984 -0.0359,-0.31107 -0.10298,-0.36366 -0.2723,-0.70325 -0.37228,-1.06837 -0.17674,-0.50988 -0.326,-1.02946 -0.46311,-1.55127 -0.14903,-0.59661 -0.3444,-1.18048 -0.48073,-1.78045 -0.13765,-0.50538 -0.26654,-1.01479 -0.46885,-1.49934 -0.07,-0.16673 -0.13829,-0.30572 -0.26541,-0.43698 -0.028,-0.0289 -0.0895,-0.0397 -0.0904,-0.0798 -5.3e-4,-0.032 0.0894,-0.007 0.088,-0.0385 -0.001,-0.0298 -0.0597,0.001 -0.0896,0.002 -0.31926,0.17087 -0.41198,0.5859 -0.53529,0.8989 -0.17634,0.51021 -0.30293,1.03561 -0.4621,1.55129 -0.14311,0.59112 -0.29583,1.1798 -0.43063,1.77282 -0.11648,0.532 -0.22239,1.06621 -0.33751,1.5985 -0.0337,0.13614 -0.13505,0.97593 -0.44669,0.7799 -0.0544,-0.33763 0.0891,-0.66987 0.11345,-1.00492 0.0225,-0.48479 0.0684,-0.9681 0.15797,-1.44561 0.11254,-0.63704 0.18682,-1.27909 0.30559,-1.91523 0.0907,-0.64916 0.24033,-1.28343 0.42613,-1.9119 0,0 0.18704,0.005 0.18704,0.005 z"
       inkscape:connector-curvature="0" />
    <path
       style="opacity:1;fill:none;fill-opacity:1;fill-rule:nonzero;stroke:#000000;stroke-width:1;stroke-linecap:round;stroke-linejoin:round;stroke-miterlimit:4;stroke-dasharray:none;stroke-dashoffset:0;stroke-opacity:1;paint-order:markers fill stroke"
       id="path4591"
       d="m 188.86458,191.29839 c 0.57885,-0.17136 1.18199,-0.21858 1.77507,-0.31383 0.46909,-0.10684 0.95156,-0.12992 1.42384,-0.21268 0.066,-0.0134 0.13192,-0.0268 0.19787,-0.0402 0,0 0.18493,0.0255 0.18493,0.0255 v 0 c -0.066,0.0135 -0.132,0.0271 -0.198,0.0406 -0.47199,0.0861 -0.95584,0.10395 -1.42497,0.21284 -0.59208,0.0967 -1.19501,0.14058 -1.7732,0.31186 0,0 -0.18554,-0.0241 -0.18554,-0.0241 z"
       inkscape:connector-curvature="0" />
    <path
       style="opacity:1;fill:none;fill-opacity:1;fill-rule:nonzero;stroke:#000000;stroke-width:1;stroke-linecap:round;stroke-linejoin:round;stroke-miterlimit:4;stroke-dasharray:none;stroke-dashoffset:0;stroke-opacity:1;paint-order:markers fill stroke"
       id="path4593"
       d="m 194.48608,187.30361 c 0.43019,0.43163 0.86131,0.86234 1.29227,1.2932 0.19243,0.16772 0.37418,0.34564 0.56764,0.5121 0,0 -0.18573,0.016 -0.18573,0.016 v 0 c -0.19284,-0.16725 -0.37513,-0.34488 -0.56677,-0.51354 -0.43112,-0.43123 -0.8621,-0.86261 -1.29399,-1.29307 0,0 0.18658,-0.0147 0.18658,-0.0147 z"
       inkscape:connector-curvature="0" />
    <path
       style="opacity:1;fill:none;fill-opacity:1;fill-rule:nonzero;stroke:#000000;stroke-width:1;stroke-linecap:round;stroke-linejoin:round;stroke-miterlimit:4;stroke-dasharray:none;stroke-dashoffset:0;stroke-opacity:1;paint-order:markers fill stroke"
       id="path4595"
       d="m 196.02896,186.60282 c -0.14747,0.51713 -0.23437,1.04781 -0.29068,1.58174 -0.0388,0.41511 -0.0427,0.83226 -0.0447,1.24883 0,0 -0.18678,-9e-5 -0.18678,-9e-5 v 0 c 0.002,-0.41721 0.006,-0.83498 0.0453,-1.2507 0.0567,-0.53491 0.14446,-1.06629 0.2898,-1.58499 0,0 0.18704,0.005 0.18704,0.005 z"
       inkscape:connector-curvature="0" />
    <path
       style="opacity:1;fill:none;fill-opacity:1;fill-rule:nonzero;stroke:#000000;stroke-width:1;stroke-linecap:round;stroke-linejoin:round;stroke-miterlimit:4;stroke-dasharray:none;stroke-dashoffset:0;stroke-opacity:1;paint-order:markers fill stroke"
       id="path4597"
       d="m 193.68718,190.24869 c 0.24139,-0.51664 0.60722,-0.94442 1.00369,-1.3465 0.3367,-0.31228 0.74824,-0.52488 1.15963,-0.72094 0.2528,-0.12762 0.12595,-0.0662 0.38047,-0.18422 0,0 0.18539,0.0212 0.18539,0.0212 v 0 c -0.25465,0.11715 -0.1278,0.0559 -0.38047,0.18403 -0.41098,0.19395 -0.82184,0.40575 -1.15975,0.71441 -0.3957,0.3999 -0.76225,0.82428 -1.00209,1.3396 0,0 -0.18687,-0.008 -0.18687,-0.008 z"
       inkscape:connector-curvature="0" />
    <path
       style="opacity:1;fill:none;fill-opacity:1;fill-rule:nonzero;stroke:#000000;stroke-width:1;stroke-linecap:round;stroke-linejoin:round;stroke-miterlimit:4;stroke-dasharray:none;stroke-dashoffset:0;stroke-opacity:1;paint-order:markers fill stroke"
       id="path4613"
       d="m 109.02052,247.1341 c 0.20706,-0.40392 0.48538,-0.83368 0.94981,-0.94819 0.50679,-0.0284 0.6945,0.24127 0.81008,0.68816 0.0703,0.37435 0.0663,0.75712 0.0669,1.13649 -0.007,0.32923 -0.026,0.67308 0.18487,0.94475 0.22606,0.19277 0.49625,0.30359 0.76923,0.41186 0.32934,0.10239 0.6395,0.26084 0.94311,0.42291 0.37274,0.21356 0.68786,0.50743 0.97656,0.82214 0.22423,0.28852 0.39006,0.49314 0.40759,0.8678 -0.0445,0.36129 -0.32764,0.57491 -0.62691,0.73746 -0.34933,0.15685 -0.73257,0.17931 -1.10943,0.19516 -0.44665,0.0166 -0.89373,0.0211 -1.32518,-0.10707 -0.26624,-0.10483 -0.51539,-0.23943 -0.75685,-0.39166 0,0 0.18549,-0.0188 0.18549,-0.0188 v 0 c 0.24133,0.15051 0.49009,0.28475 0.75655,0.3865 0.34803,0.0996 0.5821,0.1337 0.95537,0.10256 0.37583,-0.0147 0.7582,-0.0349 1.10826,-0.18681 0.29497,-0.15577 0.57887,-0.36249 0.62552,-0.71644 -0.0177,-0.36827 -0.18582,-0.57163 -0.40664,-0.8548 -0.28892,-0.31269 -0.60284,-0.60551 -0.97609,-0.81584 -0.30415,-0.16074 -0.61388,-0.31815 -0.94307,-0.42087 -0.27436,-0.11019 -0.54732,-0.22182 -0.77057,-0.42194 -0.20683,-0.27901 -0.19339,-0.62263 -0.18461,-0.95687 -5.3e-4,-0.37779 0.004,-0.75905 -0.067,-1.13176 -0.0564,-0.2149 -0.12099,-0.44268 -0.3166,-0.57573 -0.0439,-0.0298 -0.10119,-0.0368 -0.14344,-0.0689 -0.009,-0.006 0.0148,-0.0154 0.0222,-0.0232 -0.46534,0.0978 -0.74323,0.53225 -0.94834,0.93065 0,0 -0.18687,-0.008 -0.18687,-0.008 z"
       inkscape:connector-curvature="0" />
    <path
       style="opacity:1;fill:none;fill-opacity:1;fill-rule:nonzero;stroke:#000000;stroke-width:1;stroke-linecap:round;stroke-linejoin:round;stroke-miterlimit:4;stroke-dasharray:none;stroke-dashoffset:0;stroke-opacity:1;paint-order:markers fill stroke"
       id="path4615"
       d="m 108.05081,247.66368 c 0.12933,0.66338 0.29053,1.31877 0.45698,1.97362 0.166,0.55831 0.33455,1.1163 0.48149,1.68003 0.0403,0.22036 0.10659,0.43454 0.16635,0.65006 0,0 -0.18647,0.005 -0.18647,0.005 v 0 c -0.0597,-0.21562 -0.12558,-0.42997 -0.16594,-0.65037 -0.14669,-0.56372 -0.31503,-1.12172 -0.4804,-1.68016 -0.16648,-0.65498 -0.32636,-1.31081 -0.45881,-1.97364 0,0 0.1868,-0.005 0.1868,-0.005 z"
       inkscape:connector-curvature="0" />
    <path
       style="opacity:1;fill:none;fill-opacity:1;fill-rule:nonzero;stroke:#000000;stroke-width:1;stroke-linecap:round;stroke-linejoin:round;stroke-miterlimit:4;stroke-dasharray:none;stroke-dashoffset:0;stroke-opacity:1;paint-order:markers fill stroke"
       id="path4617"
       d="m 60.32973,250.40933 c 0.473366,-0.25052 1.019921,-0.38565 1.547577,-0.2385 0.353547,0.15817 0.411139,0.51496 0.387641,0.86604 -0.03439,0.39899 -0.177199,0.76922 -0.322778,1.13779 -0.07719,0.31209 -0.337773,0.58718 -0.285089,0.92008 0.07517,0.28154 0.367252,0.35455 0.611653,0.44556 0.32467,0.10092 0.639445,0.23264 0.957517,0.35332 0.356724,0.14659 0.698746,0.3192 1.034227,0.50822 0.284443,0.17147 0.476054,0.36446 0.580866,0.68083 0.09861,0.36376 -0.04821,0.70961 -0.246891,1.00995 -0.256709,0.31424 -0.602956,0.51355 -0.94163,0.72304 -0.311182,0.18046 -0.641975,0.32333 -0.989555,0.41567 -0.402511,0.10343 -0.8093,0.0837 -1.213832,0.01 -0.177363,-0.0133 -0.336981,-0.0772 -0.498321,-0.14586 0,0 0.185573,-0.0219 0.185573,-0.0219 v 0 c 0.161555,0.0665 0.32176,0.1275 0.498102,0.14179 0.328954,0.0593 0.477065,0.0852 0.843195,-0.008 0.347581,-0.0897 0.677564,-0.23156 0.988973,-0.41011 0.336471,-0.20951 0.683165,-0.40374 0.940972,-0.71507 0.197594,-0.29453 0.344765,-0.63452 0.246274,-0.99294 -0.105063,-0.31103 -0.299048,-0.49948 -0.57962,-0.66714 -0.334809,-0.18913 -0.677635,-0.35947 -1.033923,-0.50543 -0.317852,-0.12126 -0.6332,-0.25126 -0.957625,-0.35323 -0.251248,-0.0952 -0.54034,-0.1741 -0.613621,-0.46533 -0.04966,-0.33842 0.203472,-0.61391 0.286242,-0.92993 0.144883,-0.36681 0.288171,-0.73486 0.322368,-1.13204 0.02344,-0.34514 -0.03433,-0.69205 -0.38599,-0.84039 -0.426461,-0.10945 -0.792049,0.0381 -1.176086,0.23247 0,0 -0.186219,-0.0184 -0.186219,-0.0184 z"
       inkscape:connector-curvature="0" />
    <path
       style="opacity:1;fill:none;fill-opacity:1;fill-rule:nonzero;stroke:#000000;stroke-width:1;stroke-linecap:round;stroke-linejoin:round;stroke-miterlimit:4;stroke-dasharray:none;stroke-dashoffset:0;stroke-opacity:1;paint-order:markers fill stroke"
       id="path4619"
       d="m 59.624708,252.0127 c -0.02572,0.65274 0.05431,1.30142 0.11307,1.95019 0.02439,0.56695 0.07787,1.12782 0.158591,1.68922 0.0636,0.41418 0.08845,0.83234 0.101021,1.25071 0,0 -0.186783,5.3e-4 -0.186783,5.3e-4 v 0 c -0.01249,-0.41766 -0.03717,-0.83511 -0.100346,-1.24862 -0.08029,-0.56175 -0.13348,-1.12299 -0.157864,-1.6902 -0.05823,-0.6494 -0.137652,-1.29855 -0.114607,-1.95186 0,0 0.186918,0 0.186918,0 z"
       inkscape:connector-curvature="0" />
    <path
       style="opacity:1;fill:none;fill-opacity:1;fill-rule:nonzero;stroke:#000000;stroke-width:1;stroke-linecap:round;stroke-linejoin:round;stroke-miterlimit:4;stroke-dasharray:none;stroke-dashoffset:0;stroke-opacity:1;paint-order:markers fill stroke"
       id="path4621"
       d="m 64.462276,248.72474 c 0.40469,0.34252 0.766654,0.72974 1.101854,1.13936 0.149032,0.17858 0.246198,0.38401 0.336476,0.59561 0,0 -0.186402,0.008 -0.186402,0.008 v 0 c -0.09018,-0.20984 -0.18734,-0.41342 -0.335639,-0.5904 -0.335429,-0.40921 -0.698312,-0.79509 -1.102874,-1.13743 0,0 0.186585,-0.0147 0.186585,-0.0147 z"
       inkscape:connector-curvature="0" />
    <path
       style="opacity:1;fill:none;fill-opacity:1;fill-rule:nonzero;stroke:#000000;stroke-width:1;stroke-linecap:round;stroke-linejoin:round;stroke-miterlimit:4;stroke-dasharray:none;stroke-dashoffset:0;stroke-opacity:1;paint-order:markers fill stroke"
       id="path4623"
       d="m 65.717596,249.15267 c 0.138086,0.50252 0.248534,1.00981 0.236178,1.53239 -0.0046,0.0665 -0.0091,0.13308 -0.01363,0.19962 0,0 -0.186701,-0.001 -0.186701,-0.001 v 0 c 0.0046,-0.0663 0.0092,-0.13253 0.01379,-0.1988 0.0131,-0.52076 -0.09684,-1.02652 -0.236675,-1.52673 0,0 0.187032,-0.005 0.187032,-0.005 z"
       inkscape:connector-curvature="0" />
    <path
       style="opacity:1;fill:none;fill-opacity:1;fill-rule:nonzero;stroke:#000000;stroke-width:1;stroke-linecap:round;stroke-linejoin:round;stroke-miterlimit:4;stroke-dasharray:none;stroke-dashoffset:0;stroke-opacity:1;paint-order:markers fill stroke"
       id="path4625"
       d="m 64.063988,251.50172 c 0.259934,-0.49444 0.617521,-0.9179 0.994029,-1.32583 0.243885,-0.23392 0.507926,-0.44538 0.765603,-0.66364 0,0 0.185418,0.0161 0.185418,0.0161 v 0 c -0.257252,0.21806 -0.520785,0.42927 -0.765734,0.66135 -0.376272,0.40664 -0.735626,0.82788 -0.992515,1.32299 0,0 -0.186801,-0.011 -0.186801,-0.011 z"
       inkscape:connector-curvature="0" />
    <path
       style="opacity:1;fill:none;fill-opacity:1;fill-rule:nonzero;stroke:#000000;stroke-width:1;stroke-linecap:round;stroke-linejoin:round;stroke-miterlimit:4;stroke-dasharray:none;stroke-dashoffset:0;stroke-opacity:1;paint-order:markers fill stroke"
       id="path4627"
       d="m 179.46772,165.30472 c 0.0286,-0.45898 0.0105,-0.93044 -0.19958,-1.34657 -0.088,-0.15785 -0.19921,-0.17162 -0.34542,-0.23257 -0.0234,-0.01 0.0882,-0.009 0.0749,0.0128 -0.0221,0.0358 -0.0797,0.0291 -0.11496,0.0522 -0.0384,0.0252 -0.069,0.0606 -0.10346,0.0909 -0.26549,0.32851 -0.34628,0.73286 -0.40814,1.13946 -0.0647,0.58671 -0.0632,1.17817 -0.0659,1.76768 -0.0307,0.5978 0.0562,1.18934 0.11618,1.78223 0.0814,0.44644 0.14859,0.89504 0.28293,1.32892 0.0473,0.19514 0.14644,0.36942 0.14625,0.57288 0,0 -0.1879,-9e-5 -0.1879,-9e-5 v 0 c 0.002,-0.20128 -0.10026,-0.37383 -0.14521,-0.56719 -0.13389,-0.43516 -0.20056,-0.88511 -0.28178,-1.33265 -0.0598,-0.59356 -0.14671,-1.18574 -0.11595,-1.78419 0.003,-0.5904 0.001,-1.18272 0.0653,-1.77039 0.0621,-0.41081 0.1438,-0.81764 0.40752,-1.15232 0.27169,-0.25168 0.64908,-0.22689 0.86227,0.0837 0.20778,0.42117 0.2281,0.89487 0.20016,1.35786 0,0 -0.18714,-0.003 -0.18714,-0.003 z"
       inkscape:connector-curvature="0" />
    <path
       style="opacity:1;fill:none;fill-opacity:1;fill-rule:nonzero;stroke:#000000;stroke-width:1;stroke-linecap:round;stroke-linejoin:round;stroke-miterlimit:4;stroke-dasharray:none;stroke-dashoffset:0;stroke-opacity:1;paint-order:markers fill stroke"
       id="path4629"
       d="m 176.19859,167.71751 c 0.55918,0.0123 1.11267,0.006 1.66769,-0.0527 0.39363,-0.0248 0.77523,-0.11446 1.15891,-0.19856 0,0 0.18488,0.0252 0.18488,0.0252 v 0 c -0.38427,0.0838 -0.76581,0.17635 -1.16014,0.20043 -0.67694,0.0731 -1.35639,0.0547 -2.03621,0.0549 0,0 0.18487,-0.0293 0.18487,-0.0293 z"
       inkscape:connector-curvature="0" />
    <path
       style="opacity:1;fill:none;fill-opacity:1;fill-rule:nonzero;stroke:#000000;stroke-width:1;stroke-linecap:round;stroke-linejoin:round;stroke-miterlimit:4;stroke-dasharray:none;stroke-dashoffset:0;stroke-opacity:1;paint-order:markers fill stroke"
       id="path4639"
       d="m 86.183808,257.91506 c -0.266245,-0.40234 -0.596448,-0.83417 -1.093476,-0.93157 0.01193,0.008 0.04528,0.0124 0.03579,0.0229 -0.03047,0.0337 -0.08345,0.0388 -0.118096,0.0683 -0.169627,0.1442 -0.194234,0.39477 -0.223465,0.59802 -0.06571,0.52864 -0.01566,1.05377 0.07644,1.57526 0.119721,0.66185 0.29822,1.31275 0.493022,1.95618 0.135358,0.51298 0.318516,1.012 0.439322,1.52875 0.107503,0.35758 0.262975,0.70316 0.0949,1.06118 -0.133847,0.11775 -0.05843,0.071 -0.227205,0.13872 0,0 -0.186061,-0.0226 -0.186061,-0.0226 v 0 c 0.167003,-0.0591 0.09204,-0.0169 0.226166,-0.12447 0.17177,-0.35129 0.0085,-0.69614 -0.09424,-1.04854 -0.120684,-0.51623 -0.302953,-1.01505 -0.437962,-1.52759 -0.194804,-0.6442 -0.373221,-1.29583 -0.493265,-1.95837 -0.09257,-0.52342 -0.14306,-1.05047 -0.07782,-1.58114 0.02886,-0.20542 0.07457,-0.63266 0.342895,-0.69023 0.109341,-0.0235 0.223189,-0.0145 0.334782,-0.0217 0.496277,0.11261 0.826717,0.54047 1.094926,0.94727 0,0 -0.186653,0.01 -0.186653,0.01 z"
       inkscape:connector-curvature="0" />
    <path
       style="opacity:1;fill:none;fill-opacity:1;fill-rule:nonzero;stroke:#000000;stroke-width:1;stroke-linecap:round;stroke-linejoin:round;stroke-miterlimit:4;stroke-dasharray:none;stroke-dashoffset:0;stroke-opacity:1;paint-order:markers fill stroke"
       id="path4641"
       d="m 83.031244,261.22398 c 0.571675,-0.1335 1.146847,-0.2526 1.721033,-0.37635 0.364048,-0.0798 0.734684,-0.11537 1.106019,-0.13677 0,0 0.184557,0.0282 0.184557,0.0282 v 0 c -0.3714,0.0205 -0.742211,0.0547 -1.106447,0.13379 -0.573818,0.12291 -1.148128,0.24344 -1.719617,0.37529 0,0 -0.185545,-0.0241 -0.185545,-0.0241 z"
       inkscape:connector-curvature="0" />
    <path
       style="opacity:1;fill:none;fill-opacity:1;fill-rule:nonzero;stroke:#000000;stroke-width:1;stroke-linecap:round;stroke-linejoin:round;stroke-miterlimit:4;stroke-dasharray:none;stroke-dashoffset:0;stroke-opacity:1;paint-order:markers fill stroke"
       id="path4643"
       d="m 132.46091,217.3674 c -0.38633,0.34544 -0.62349,0.7766 -0.68964,1.28699 -0.007,0.44336 0.19197,0.82355 0.40368,1.19874 0.23258,0.34006 0.49218,0.6505 0.79951,0.92431 0.20573,0.15749 0.4348,0.30277 0.70086,0.31879 0.0653,0.004 0.12407,-0.0427 0.18818,-0.0556 0.35284,-0.10855 0.61314,-0.33686 0.84355,-0.61605 0.25356,-0.31294 0.42186,-0.68517 0.55482,-1.06279 0.18082,-0.39595 0.25562,-0.8202 0.303,-1.24934 0.0509,-0.4085 0.0415,-0.80779 -0.0699,-1.2043 -0.14389,-0.40052 -0.35611,-0.74262 -0.67486,-1.02396 -0.30325,-0.27839 -0.67336,-0.40459 -1.07066,-0.47278 -0.3162,-0.0455 -0.64291,0.0548 -0.95204,0.14305 -0.34018,0.13493 -0.63512,0.35004 -0.87155,0.62739 -0.25963,0.29417 -0.37378,0.66778 -0.49756,1.0317 0,0 -0.18664,-0.006 -0.18664,-0.006 v 0 c 0.12406,-0.36587 0.23829,-0.74198 0.49774,-1.0387 0.23607,-0.28136 0.53192,-0.49833 0.87283,-0.63833 0.42992,-0.12374 0.8721,-0.21738 1.32221,-0.14502 0.39849,0.0715 0.76824,0.20288 1.07169,0.48307 0.31815,0.28577 0.53186,0.63111 0.67547,1.03461 0.11096,0.399 0.12116,0.80058 0.0697,1.21143 -0.0475,0.43038 -0.12138,0.8565 -0.30286,1.25359 -0.13291,0.37961 -0.30161,0.75399 -0.55506,1.06931 -0.23037,0.28289 -0.49127,0.51424 -0.84487,0.62866 -0.48128,0.10264 -0.88138,0.0531 -1.26002,-0.2729 -0.3076,-0.27558 -0.56781,-0.58833 -0.7998,-0.93044 -0.21293,-0.3791 -0.41168,-0.76328 -0.4039,-1.2107 0.0662,-0.51364 0.30171,-0.94999 0.6895,-1.29927 0,0 0.18658,0.0147 0.18658,0.0147 z"
       inkscape:connector-curvature="0" />
  </g>
</svg>
