<?xml version="1.0" encoding="UTF-8" standalone="no"?>
<!-- Created with Inkscape (http://www.inkscape.org/) -->

<svg
   xmlns:dc="http://purl.org/dc/elements/1.1/"
   xmlns:cc="http://creativecommons.org/ns#"
   xmlns:rdf="http://www.w3.org/1999/02/22-rdf-syntax-ns#"
   xmlns:svg="http://www.w3.org/2000/svg"
   xmlns="http://www.w3.org/2000/svg"
   xmlns:sodipodi="http://sodipodi.sourceforge.net/DTD/sodipodi-0.dtd"
   xmlns:inkscape="http://www.inkscape.org/namespaces/inkscape"
   width="297mm"
   height="210mm"
   viewBox="0 0 297 210"
   version="1.1"
   id="svg8"
   inkscape:version="0.92.1 r15371"
   sodipodi:docname="rotate-around-zero-inv.svg">
  <defs
     id="defs2" />
  <sodipodi:namedview
     id="base"
     pagecolor="#ffffff"
     bordercolor="#666666"
     borderopacity="1.0"
     inkscape:pageopacity="0.0"
     inkscape:pageshadow="2"
     inkscape:zoom="1.4"
     inkscape:cx="477.32576"
     inkscape:cy="432.26731"
     inkscape:document-units="mm"
     inkscape:current-layer="layer1"
     showgrid="false"
     inkscape:window-width="1920"
     inkscape:window-height="1046"
     inkscape:window-x="-11"
     inkscape:window-y="-11"
     inkscape:window-maximized="1" />
  <metadata
     id="metadata5">
    <rdf:RDF>
      <cc:Work
         rdf:about="">
        <dc:format>image/svg+xml</dc:format>
        <dc:type
           rdf:resource="http://purl.org/dc/dcmitype/StillImage" />
        <dc:title></dc:title>
      </cc:Work>
    </rdf:RDF>
  </metadata>
  <g
     inkscape:label="Layer 1"
     inkscape:groupmode="layer"
     id="layer1"
     transform="translate(0,-87)">
    <path
       style="opacity:1;fill:none;fill-opacity:1;fill-rule:nonzero;stroke:#000000;stroke-width:1;stroke-linecap:round;stroke-linejoin:round;stroke-miterlimit:4;stroke-dasharray:none;stroke-dashoffset:0;stroke-opacity:1;paint-order:markers fill stroke"
       id="path4489"
       d="m 140.30013,149.37088 c -0.079,0.54248 -0.12018,1.08904 -0.14578,1.63629 -0.0482,0.50672 0.001,1.00549 0.0632,1.50758 0.0684,0.53452 0.0863,1.07346 0.0979,1.61165 0.001,0.61999 0.0289,1.24108 -0.0149,1.85992 -0.0687,0.62862 -0.11883,1.25857 -0.14606,1.8903 -0.0193,0.62271 -0.11252,1.24007 -0.15971,1.86123 -0.0418,0.60389 -0.0468,1.20947 -0.0508,1.81454 -0.001,0.59827 -0.0928,1.19195 -0.13773,1.78813 -0.0321,0.60989 -0.0409,1.21793 -0.10485,1.82557 -0.073,0.59781 -0.10578,1.19905 -0.12387,1.80067 -0.0135,0.56979 -0.0127,1.13979 -0.0128,1.7097 5.3e-4,0.5408 8e-4,1.0816 0.001,1.6224 1.5e-4,0.56739 2.3e-4,1.13478 9e-5,1.70216 -2e-5,0.58955 1.1e-4,1.1791 4e-5,1.76865 0.0115,0.56204 -0.0254,1.12595 0.0228,1.68644 0.073,0.54219 0.11913,1.08657 0.14507,1.63287 0.0205,0.54411 0.0217,1.08866 0.0225,1.63307 -0.008,0.52289 -0.009,1.04162 0.053,1.56106 0.0729,0.5206 0.10431,1.04531 0.12256,1.57025 0.0141,0.50748 0.0134,1.01522 0.0136,1.52285 -2e-4,0.50389 -8e-4,1.00779 -0.001,1.51168 -2.7e-4,0.52796 -2.3e-4,1.05592 -2.7e-4,1.58389 -6e-5,0.55631 2e-5,1.11263 -8e-5,1.66894 0,0.5669 9e-5,1.1338 0,1.7007 -9e-5,0.59287 -1.2e-4,1.18575 0,1.77862 3e-5,0.57161 -5e-5,1.14322 4e-5,1.71483 -0.001,0.5434 0.0924,1.08153 0.13695,1.62255 0.0405,0.54337 0.0472,1.08845 0.0518,1.63307 -0.0242,0.55648 0.0238,1.10622 0.0866,1.65815 0.0653,0.53079 0.0841,1.06545 0.0966,1.5996 0.009,0.51255 0.008,1.02518 0.007,1.53778 -5.3e-4,0.51347 -10e-4,1.02695 -10e-4,1.54042 -2.4e-4,0.5032 -1.5e-4,1.00641 -2.6e-4,1.50961 -0.0294,0.53813 0.0565,1.06943 0.11384,1.6025 0.0544,0.55164 0.065,1.1061 0.0726,1.65995 0.005,0.5225 0.004,1.04505 0.004,1.56757 0.0497,0.47909 0.11656,0.95569 0.15398,1.43617 0.0304,0.48584 0.0325,0.97279 0.0349,1.45939 0.001,0.5026 1.1e-4,1.0052 -2.1e-4,1.50781 -5.3e-4,0.50415 -5.3e-4,1.00831 -5.3e-4,1.51247 5e-5,0.48748 -7e-5,0.97496 -6e-5,1.46245 0.002,0.49612 0.0929,0.98695 0.1369,1.48085 0.0416,0.51019 0.0474,1.02234 0.0517,1.53392 0.002,0.53831 0.002,1.07663 0.001,1.61493 -5.3e-4,0.54809 -5.3e-4,1.09617 -8e-4,1.64426 -9e-5,0.56557 1e-5,1.13114 -8e-5,1.69671 2.1e-4,0.54133 5e-5,1.08267 1.1e-4,1.62401 1.1e-4,0.51608 4e-5,1.03216 8e-5,1.54824 -1.2e-4,0.52844 4e-5,1.05688 -10e-5,1.58532 0.0525,0.54855 0.11753,1.09524 0.15479,1.64523 0.0296,0.52597 0.0325,1.05291 0.0352,1.57955 0.001,0.48534 2.2e-4,0.97068 -1.9e-4,1.45602 -2.7e-4,0.49454 -5.3e-4,0.98907 -5.3e-4,1.48361 8e-5,0.47802 -1e-5,0.95604 1.1e-4,1.43406 -0.007,0.4688 0.0909,0.93064 0.13692,1.39594 0.0387,0.43771 0.0471,0.87721 0.0519,1.31634 0.002,0.43661 0.002,0.87323 0.001,1.30984 -0.0298,0.39438 0.0557,0.77871 0.11318,1.16608 0.0564,0.39363 0.0658,0.79143 0.0724,1.18833 0.005,0.43674 0.004,0.87353 0.003,1.3103 0.008,0.45517 0.007,0.90589 -0.0547,1.35725 -0.0987,0.49378 -0.0839,0.98436 -0.0376,1.48179 0.0538,0.53021 0.0719,1.06281 0.0834,1.5953 0.009,0.53103 0.008,1.06215 0.009,1.59324 -2.7e-4,0.52969 -5.3e-4,1.05938 -8e-4,1.58907 -0.027,0.52373 0.0233,1.04021 0.0854,1.55912 0.0661,0.55649 0.085,1.11669 0.0971,1.67646 0.001,0.56907 -0.002,1.13473 0.0613,1.70066 0.0723,0.56489 0.10365,1.13326 0.12192,1.70206 0.0656,0.5329 0.1309,1.06494 0.16824,1.60072 0.0257,0.51518 0.12062,1.02342 0.17099,1.53677 0.0523,0.50279 0.0233,1.00984 0.0738,1.51209 0.0726,0.47456 0.1206,0.95191 0.14572,1.4312 0.0195,0.45281 0.0212,0.90611 0.0219,1.35925 0.007,0.43763 -0.0878,0.86854 -0.13773,1.30199 -0.0427,0.40105 -0.0481,0.8046 -0.0522,1.2075 -0.003,0.41848 -0.002,0.83698 -10e-4,1.25547 5.3e-4,0.38237 7.9e-4,0.76474 7.9e-4,1.1471 5e-5,0.1888 6e-5,0.37761 6e-5,0.56641 0,0 -0.18682,0 -0.18682,0 v 0 c -1e-5,-0.1888 -2e-5,-0.37761 -6e-5,-0.56641 -9e-5,-0.38236 -2.6e-4,-0.76471 -8e-4,-1.14707 -5.2e-4,-0.41857 -0.001,-0.83714 0.001,-1.25569 0.004,-0.40355 0.009,-0.80776 0.052,-1.20946 0.0499,-0.43273 0.14507,-0.8629 0.13798,-1.2998 -0.001,-0.45283 -0.002,-0.90582 -0.0217,-1.35831 -0.0255,-0.47898 -0.0731,-0.95603 -0.14566,-1.43032 -0.0501,-0.50232 -0.0216,-1.00931 -0.0738,-1.51213 -0.0502,-0.51354 -0.14526,-1.02192 -0.17088,-1.53731 -0.0371,-0.53602 -0.10306,-1.06821 -0.16799,-1.60141 -0.0181,-0.56831 -0.0496,-1.1362 -0.12189,-1.70059 -0.0628,-0.56651 -0.0603,-1.1327 -0.0613,-1.70232 -0.0119,-0.55917 -0.031,-1.11878 -0.0972,-1.67465 -0.0621,-0.51964 -0.1127,-1.03687 -0.0854,-1.56134 8e-5,-0.52968 5.3e-4,-1.05937 7.9e-4,-1.58906 1e-4,-0.53095 5.3e-4,-1.06194 -0.008,-1.59283 -0.0114,-0.53206 -0.0298,-1.06423 -0.0838,-1.59398 -0.0463,-0.49884 -0.0612,-0.99084 0.0374,-1.48604 0.0614,-0.45052 0.0625,-0.9004 0.0547,-1.35475 2.6e-4,-0.43666 0.001,-0.87333 -0.004,-1.30996 -0.007,-0.39609 -0.0166,-0.79308 -0.0727,-1.1859 -0.0577,-0.38826 -0.14288,-0.77357 -0.11303,-1.16885 5.3e-4,-0.43654 0.002,-0.87309 -0.001,-1.30962 -0.005,-0.43858 -0.0127,-0.87755 -0.0515,-1.31469 -0.0465,-0.46586 -0.14377,-0.9284 -0.137,-1.39779 1.1e-4,-0.47802 1e-5,-0.95604 1.7e-4,-1.43406 8e-5,-0.49454 6e-5,-0.98908 5.3e-4,-1.48362 5.3e-4,-0.48531 0.001,-0.97062 2.1e-4,-1.45593 -0.002,-0.52625 -0.005,-1.0528 -0.0349,-1.57837 -0.037,-0.55044 -0.10252,-1.09749 -0.1547,-1.64649 -1.3e-4,-0.52844 3e-5,-1.05688 -9e-5,-1.58532 4e-5,-0.51608 -3e-5,-1.03216 7e-5,-1.54824 6e-5,-0.54134 -1.1e-4,-1.08268 1e-4,-1.62401 -9e-5,-0.56557 -1e-5,-1.13114 4e-5,-1.69671 -1e-5,-0.54809 1.8e-4,-1.09618 5.3e-4,-1.64427 2.7e-4,-0.53825 0.002,-1.07651 -0.001,-1.61476 -0.004,-0.51108 -0.0102,-1.02273 -0.0517,-1.53243 -0.0441,-0.49444 -0.13582,-0.98578 -0.13702,-1.4825 0,-0.48749 -1.4e-4,-0.97497 0,-1.46246 1.7e-4,-0.50416 2.1e-4,-1.00832 5.3e-4,-1.51248 5.3e-4,-0.50257 0.001,-1.00514 1.8e-4,-1.50771 -0.002,-0.48614 -0.004,-0.97266 -0.035,-1.45803 -0.0373,-0.48097 -0.10462,-0.95798 -0.15367,-1.43763 5.3e-4,-0.52243 0.002,-1.04488 -0.003,-1.5673 -0.007,-0.55327 -0.0182,-1.10716 -0.0727,-1.65821 -0.0573,-0.53372 -0.14314,-1.06571 -0.11384,-1.60449 -1.5e-4,-0.50321 -5e-5,-1.00641 4e-5,-1.50962 2.7e-4,-0.51347 8e-4,-1.02695 10e-4,-1.54042 2.7e-4,-0.51245 0.001,-1.02494 -0.007,-1.53734 -0.0122,-0.5336 -0.0313,-1.06767 -0.0963,-1.59793 -0.0628,-0.55258 -0.11088,-1.10297 -0.0868,-1.6601 -0.004,-0.54416 -0.0111,-1.08878 -0.0516,-1.63169 -0.0449,-0.54149 -0.13846,-1.08017 -0.13696,-1.62408 9e-5,-0.57161 1e-5,-1.14322 3e-5,-1.71483 1.3e-4,-0.59287 1e-4,-1.18575 1e-5,-1.77862 -9e-5,-0.5669 -1e-5,-1.1338 -1e-5,-1.7007 -1.1e-4,-0.55631 -5e-5,-1.11263 -8e-5,-1.66894 -1.2e-4,-0.52797 7e-5,-1.05593 1.7e-4,-1.5839 2.7e-4,-0.50388 8e-4,-1.00778 0.001,-1.51166 -1.4e-4,-0.50742 5.3e-4,-1.01495 -0.0135,-1.52222 -0.0181,-0.52442 -0.0497,-1.04859 -0.12253,-1.56868 -0.0623,-0.52014 -0.061,-1.03965 -0.0529,-1.56324 -0.001,-0.54412 -0.002,-1.0884 -0.0225,-1.63222 -0.0258,-0.54608 -0.0723,-1.09019 -0.14516,-1.63217 -0.0476,-0.56105 -0.0112,-1.12545 -0.0225,-1.68802 -6e-5,-0.58955 9e-5,-1.1791 5e-5,-1.76865 -1.8e-4,-0.56738 -1.3e-4,-1.13477 -5.3e-4,-1.70215 -2.1e-4,-0.5408 -7.9e-4,-1.08161 -0.001,-1.62241 -2e-5,-0.5701 -8e-4,-1.14028 0.0129,-1.71025 0.018,-0.6021 0.0511,-1.2038 0.12417,-1.80206 0.0637,-0.60747 0.0725,-1.21532 0.10467,-1.82502 0.0448,-0.59578 0.13629,-1.18904 0.13762,-1.78687 0.004,-0.60549 0.009,-1.21151 0.051,-1.81581 0.0471,-0.62097 0.14039,-1.23813 0.15962,-1.86063 0.0272,-0.63191 0.0777,-1.26201 0.14624,-1.89082 0.0442,-0.61823 0.0155,-1.23879 0.0145,-1.8582 -0.0118,-0.53756 -0.0296,-1.07587 -0.0982,-1.60976 -0.0624,-0.50311 -0.11132,-1.00303 -0.063,-1.51074 0.0258,-0.54782 0.0676,-1.09476 0.14446,-1.63807 0,0 0.18714,0.003 0.18714,0.003 z"
       inkscape:connector-curvature="0" />
    <path
       style="opacity:1;fill:none;fill-opacity:1;fill-rule:nonzero;stroke:#000000;stroke-width:1;stroke-linecap:round;stroke-linejoin:round;stroke-miterlimit:4;stroke-dasharray:none;stroke-dashoffset:0;stroke-opacity:1;paint-order:markers fill stroke"
       id="path4491"
       d="m 139.47611,148.80744 c -0.29384,0.53662 -0.56737,1.08233 -0.82629,1.63639 -0.21052,0.49052 -0.43448,0.97468 -0.66012,1.4583 -0.16044,0.30774 -0.25537,0.65924 -0.43551,0.95635 -0.40327,0.0612 -0.23665,-0.72763 -0.2077,-0.9178 0.0853,-0.45917 0.0904,-0.92745 0.15243,-1.38895 0.0518,-0.43895 0.14877,-0.86726 0.24578,-1.29755 0.10208,-0.39965 0.27483,-0.7732 0.44108,-1.14869 0.14802,-0.26262 0.33696,-0.54079 0.637,-0.6329 0.37337,-0.0662 0.73506,0.0162 1.09763,0.0938 0.36398,0.0911 0.69609,0.25482 1.00682,0.46187 0.32767,0.23122 0.63669,0.48656 0.92764,0.76247 0.18775,0.17575 0.33313,0.38876 0.46711,0.60647 0,0 -0.18647,0.0103 -0.18647,0.0103 v 0 c -0.13415,-0.21611 -0.27938,-0.42743 -0.46689,-0.60161 -0.29148,-0.27422 -0.59897,-0.53006 -0.92726,-0.75927 -0.3109,-0.20444 -0.6427,-0.36655 -1.00614,-0.45493 -0.31165,-0.0669 -0.46202,-0.13312 -0.72632,-0.095 -0.30125,0.0798 -0.48834,0.35848 -0.63666,0.61649 -0.16561,0.3745 -0.3387,0.74661 -0.44093,1.14505 -0.0969,0.42978 -0.19447,0.85743 -0.2462,1.2959 -0.0623,0.46155 -0.067,0.92998 -0.15199,1.38928 -0.0175,0.11494 -0.0466,0.28164 -0.0504,0.39872 -0.002,0.0636 0.003,0.12732 0.007,0.1909 0.003,0.0583 0.039,0.12219 0.0135,0.17472 -0.0774,0.15912 -0.2456,0.11872 -0.13678,0.14015 0.18708,-0.29123 0.2737,-0.64972 0.43749,-0.95398 0.22564,-0.4837 0.44996,-0.96777 0.66066,-1.45829 0.25926,-0.55422 0.53299,-1.10004 0.82496,-1.63798 0,0 0.18665,0.01 0.18665,0.01 z"
       inkscape:connector-curvature="0" />
    <path
       style="opacity:1;fill:none;fill-opacity:1;fill-rule:nonzero;stroke:#000000;stroke-width:1;stroke-linecap:round;stroke-linejoin:round;stroke-miterlimit:4;stroke-dasharray:none;stroke-dashoffset:0;stroke-opacity:1;paint-order:markers fill stroke"
       id="path4501"
       d="m 61.582934,213.56075 c 0.527624,1.7e-4 1.055248,1.1e-4 1.582875,8e-5 0.416684,-3e-5 0.833371,-5e-5 1.250056,-5e-5 0.445812,0.001 0.878321,0.11543 1.324723,0.11441 0.52324,-0.0544 1.050978,-0.0755 1.576983,-0.0931 0.721786,-0.0738 1.443487,-0.13993 2.168253,-0.17593 0.811109,-0.0327 1.618038,-0.12544 2.428594,-0.17178 0.887812,-0.0158 1.771973,-0.0698 2.657163,-0.13654 0.884087,-0.068 1.770779,-0.0867 2.657065,-0.0983 0.942649,-0.009 1.885357,-0.007 2.828036,-0.007 0.851757,0.0142 1.700106,0.003 2.549713,-0.0521 0.956738,-0.0725 1.915564,-0.10469 2.874642,-0.1232 0.913569,-0.0141 1.827281,-0.0136 2.740935,-0.0138 0.950809,1.5e-4 1.901619,7.9e-4 2.852428,0.001 0.841475,-0.001 1.679824,0.0909 2.519637,0.13772 0.781244,0.04 1.563601,0.0468 2.345685,0.0512 0.651685,0.002 1.303375,0.001 1.955059,0.001 0.768379,-5.3e-4 1.536758,-5.3e-4 2.305139,-8e-4 0.7889,-8e-5 1.5778,-6e-5 2.36669,-5e-5 0.64213,0.0148 1.27912,0.002 1.91797,-0.053 0.74446,-0.0665 1.49012,-0.0974 2.23341,-0.17656 0.75324,-0.0874 1.51088,-0.11879 2.2684,-0.13727 0.70746,0.0152 1.40961,-0.0705 2.11351,-0.12586 0.71917,-0.0208 1.43163,-0.11868 2.14716,-0.18502 0.725,-0.0602 1.44509,-0.16069 2.17108,-0.21301 0.74775,-0.0434 1.49095,-0.1384 2.23825,-0.19129 0.70326,-0.0165 1.40107,-0.10368 2.10111,-0.16549 0.65322,-0.0543 1.30879,-0.0663 1.96389,-0.0737 0.68131,-0.005 1.36265,-0.003 2.04397,-0.003 0.61888,5.3e-4 1.23776,7.9e-4 1.85665,0.001 0.61858,1.2e-4 1.23716,8e-5 1.85575,1e-4 0.53372,-1e-5 1.06745,-3e-5 1.60118,-2e-5 0.58929,-2e-5 1.17859,1e-5 1.76789,-1e-5 0.64179,-0.0303 1.27746,0.0509 1.91418,0.11475 0.58368,0.0548 1.17007,0.0648 1.75586,0.0719 0.55773,0.005 1.11549,0.004 1.67323,0.003 0.62528,-5.3e-4 1.25056,-8e-4 1.87584,-8e-4 0.5952,-1.1e-4 1.19039,-1.4e-4 1.78558,-1.3e-4 0.65034,-2e-5 1.30068,2e-5 1.95102,10e-6 0.62056,1e-5 1.24112,1e-5 1.86168,3e-5 0.61615,0 1.23229,1e-5 1.84844,2e-5 0.66893,-2e-5 1.33787,-2e-5 2.00681,-2e-5 0.6686,0.0301 1.33172,-0.0576 1.99637,-0.11307 0.64608,-0.0533 1.29446,-0.0657 1.94239,-0.0733 0.70868,-0.005 1.41739,-0.004 2.12609,-0.004 0.61561,5.3e-4 1.23123,7.9e-4 1.84684,7.9e-4 0.60014,1e-4 1.20028,8e-5 1.80042,9e-5 0.48287,-5e-5 0.96573,-2e-5 1.4486,-3e-5 0.58807,-0.001 1.17542,-0.008 1.76272,0.0234 0.52704,0.0717 1.05632,0.11912 1.58748,0.14477 0.54561,0.0214 1.09175,0.0212 1.63768,0.0221 0.50651,0.01 1.00939,8e-4 1.51315,-0.0537 0.53888,-0.0722 1.08112,-0.10555 1.62411,-0.12407 0.49783,-0.0141 0.9959,-0.0137 1.49388,-0.0139 0.38282,-0.0266 0.77129,0.0277 1.15406,7.9e-4 0.1002,-0.007 0.19716,-0.0394 0.29677,-0.0523 0.47849,-0.0757 0.96192,-0.10574 1.44546,-0.12353 0.47534,-0.063 0.94932,-0.13004 1.42757,-0.16793 0.46019,-0.0244 0.91802,-0.018 1.37426,-0.0871 0.43872,-0.0709 0.88179,-0.10428 1.32537,-0.12349 0.40699,-0.0142 0.81429,-0.0132 1.22147,-0.0134 0.43965,0.0152 0.86911,-0.0903 1.30974,-0.13493 0.42969,-0.0398 0.86131,-0.0479 1.29254,-0.0523 0.5204,-0.003 1.04082,-0.002 1.56122,-0.001 0.48098,5.3e-4 0.96197,5.3e-4 1.44295,7.9e-4 0.46471,1.1e-4 0.92942,3e-5 1.39413,8e-5 0.5307,-2e-5 1.06141,0 1.59212,-1e-5 0.53025,0.0273 1.0544,-0.0548 1.57964,-0.11284 0.53812,-0.0554 1.07924,-0.066 1.6197,-0.0735 0.60567,-0.005 1.21138,-0.004 1.81708,-0.004 0.51334,5.3e-4 1.02667,7.9e-4 1.54001,7.9e-4 0.46282,1.3e-4 0.92565,10e-5 1.38847,9e-5 0.38002,3e-5 0.76005,0 1.14007,-1e-5 0.42035,0.009 0.8361,0.006 1.25273,-0.0525 0.40723,-0.0681 0.8181,-0.10434 1.23019,-0.12384 0.3801,-0.0233 0.76228,0.008 1.14069,-0.0355 0.42684,-0.0699 0.85623,-0.11732 1.28777,-0.14457 0.44473,-0.0151 0.88189,-0.10818 1.32347,-0.15872 0.42899,-0.0367 0.8564,-0.04 1.28262,-0.1043 0.39871,-0.0708 0.80172,-0.10583 1.2058,-0.12468 0.41678,-0.0148 0.83392,-0.0131 1.2509,-0.0132 0.33064,-0.0345 0.67174,0.0344 1.00243,7.9e-4 0.008,-7.9e-4 0.003,-0.0196 0.0103,-0.0214 0.0707,-0.0163 0.14357,-0.0205 0.21535,-0.0308 0.43212,-0.0702 0.86819,-0.10568 1.30525,-0.12363 0.45138,-0.0142 0.90303,-0.0137 1.35458,-0.0139 0.53294,8e-5 1.06588,8e-4 1.59883,0.001 0.49264,2.3e-4 0.98529,2.6e-4 1.47793,2.6e-4 0.34896,-1e-5 0.69792,-3e-5 1.04688,-3e-5 0.37846,-1e-5 0.75693,-1e-5 1.13539,-1e-5 0.41819,0.008 0.83191,0.006 1.24632,-0.0525 0.39919,-0.0686 0.80221,-0.10452 1.20644,-0.12386 0.37898,-0.0143 0.75831,-0.0138 1.13751,-0.014 0.43918,3e-5 0.87836,8e-4 1.31754,0.001 0.37794,2.3e-4 0.75588,2.6e-4 1.13382,2.7e-4 0.31647,10e-6 0.63294,0 0.94941,0 0.37798,0 0.75595,0 1.13393,-1e-5 0.43948,0 0.87897,0 1.31845,0 0.37798,0 0.75596,0 1.13393,0 0.37798,0 0.75595,0 1.13393,0 0.31647,0 0.63294,0 0.9494,0 0.37798,0 0.75596,0 1.13393,0 0.44238,-0.002 0.88115,-0.0179 1.31867,0.0553 0.048,0.003 0.0959,0.005 0.14391,0.008 0,0 -0.18522,0.0281 -0.18522,0.0281 v 0 c -0.0479,-0.003 -0.0958,-0.007 -0.14364,-0.0101 -0.31618,-0.0515 -0.6283,-0.0687 -0.94919,-0.0523 -0.37798,0 -0.75595,0 -1.13393,0 -0.43949,0 -0.87897,0 -1.31846,0 -0.37797,0 -0.75595,0 -1.13393,0 -0.37797,0 -0.75595,0 -1.13392,0 -0.31647,0 -0.63294,0 -0.9494,0 -0.37798,0 -0.75596,0 -1.13393,0 -0.43949,0 -0.87898,1e-5 -1.31847,0 -0.37794,-2e-5 -0.75588,-5e-5 -1.13381,-2.6e-4 -0.31617,-2.3e-4 -0.63233,-5.3e-4 -0.94849,-0.001 -0.37916,1.3e-4 -0.75845,-5.3e-4 -1.13743,0.0131 -0.4042,0.0186 -0.80735,0.0531 -1.20647,0.12205 -0.41447,0.0602 -0.82782,0.0649 -1.24637,0.0551 -0.37848,0 -0.75695,0 -1.13543,0 -0.4718,0 -0.94359,0 -1.41539,-4e-5 -0.49259,-4e-5 -0.98517,-5e-5 -1.47776,-2.6e-4 -0.41032,-2.1e-4 -0.82064,-5.3e-4 -1.23096,-10e-4 -0.45147,1.4e-4 -0.90304,-5.3e-4 -1.35436,0.0132 -0.4369,0.0172 -0.87293,0.0515 -1.30489,0.12174 -0.40768,0.0594 -0.81722,0.0612 -1.22844,0.054 -0.41684,4e-5 -0.83383,-0.002 -1.25049,0.0124 -0.40404,0.0181 -0.80718,0.0517 -1.20583,0.12268 -0.42625,0.0655 -0.85318,0.0709 -1.28259,0.10503 -0.44182,0.0496 -0.87894,0.14341 -1.32359,0.15966 -0.43142,0.0264 -0.8609,0.0723 -1.28742,0.14354 -0.37812,0.0476 -0.76072,0.0134 -1.14094,0.0368 -0.41208,0.0187 -0.82309,0.0537 -1.23026,0.12207 -0.41675,0.0593 -0.83218,0.0654 -1.25294,0.0551 -0.50289,-1e-5 -1.00578,-2e-5 -1.50867,1e-5 -0.46272,-2e-5 -0.92545,-5e-5 -1.38817,-1.4e-4 -0.5132,-1.8e-4 -1.02639,-5.3e-4 -1.53959,-0.001 -0.48331,-2.6e-4 -0.96662,-0.001 -1.44991,0.003 -0.54029,0.007 -1.08123,0.0173 -1.61925,0.0718 -0.52546,0.0577 -1.04963,0.14216 -1.58007,0.11484 -0.53072,-1e-5 -1.06144,3e-5 -1.59216,0 -0.58719,2e-5 -1.17437,2e-5 -1.76156,-4e-5 -0.48104,-10e-5 -0.96209,-2.2e-4 -1.44313,-8e-4 -0.39766,-2.6e-4 -0.79534,-10e-4 -1.193,0.001 -0.43115,0.004 -0.86271,0.0117 -1.29239,0.0506 -0.4374,0.0435 -0.86933,0.13232 -1.30992,0.1368 -0.40708,8e-5 -0.81428,-8e-4 -1.2212,0.0126 -0.44346,0.0185 -0.8865,0.0508 -1.32512,0.12145 -0.4564,0.0706 -0.91393,0.0664 -1.37465,0.0885 -0.47846,0.0371 -0.95284,0.10229 -1.42791,0.16867 -0.48337,0.0172 -0.96679,0.046 -1.44509,0.12182 -0.48197,0.0639 -0.96609,0.0588 -1.45135,0.0539 -0.498,1.6e-4 -0.9961,-2.6e-4 -1.49397,0.0133 -0.54297,0.018 -1.0853,0.0502 -1.62413,0.12265 -0.62557,0.0688 -1.2511,0.0636 -1.8803,0.0556 -0.54605,-10e-4 -1.09232,-7.9e-4 -1.63802,-0.0229 -0.53123,-0.0264 -1.06042,-0.075 -1.58769,-0.14547 -0.15801,-0.0475 -0.0473,-0.0218 -0.34037,-0.0218 -0.35157,0 -0.70315,2e-5 -1.05472,0 -0.60519,-1e-5 -1.21038,2e-5 -1.81557,-1e-5 -0.60005,0 -1.2001,-2e-5 -1.80015,-1.4e-4 -0.61562,-1.2e-4 -1.23123,-2.6e-4 -1.84685,-7.9e-4 -0.58666,-2.7e-4 -1.17333,-0.001 -1.75998,0.003 -0.6479,0.007 -1.29627,0.0192 -1.94237,0.072 -0.66474,0.0551 -1.32779,0.14471 -1.99645,0.11461 -0.66903,-1e-5 -1.33806,-1e-5 -2.00709,-3e-5 -0.73802,2e-5 -1.47604,2e-5 -2.21406,3e-5 -0.6207,2e-5 -1.2414,2e-5 -1.8621,2e-5 -0.52811,-1e-5 -1.05621,1e-5 -1.58431,0 -0.59527,1e-5 -1.19054,-1e-5 -1.78581,9e-5 -0.6253,1.6e-4 -1.2506,2.7e-4 -1.87589,8e-4 -0.67986,5.2e-4 -1.35974,0.002 -2.03958,-0.004 -0.58598,-0.007 -1.17255,-0.0178 -1.75634,-0.0734 -0.516,-0.0521 -1.02725,-0.14023 -1.54707,-0.11293 -0.5893,-2e-5 -1.1786,1e-5 -1.7679,0 -0.65589,1e-5 -1.31177,-1e-5 -1.96766,-1e-5 -0.61859,2e-5 -1.23718,-1e-5 -1.85577,-1e-4 -0.61892,-1.4e-4 -1.23783,-2.6e-4 -1.85675,-0.001 -0.55919,-5.3e-4 -1.11839,-0.002 -1.67756,0.003 -0.65513,0.007 -1.31072,0.0186 -1.96402,0.0722 -0.70017,0.0614 -1.39793,0.15009 -2.1013,0.16579 -0.74745,0.0523 -1.49067,0.14737 -2.23844,0.19124 -0.72596,0.0516 -1.4459,0.15186 -2.17072,0.21268 -0.71567,0.0657 -1.42806,0.16521 -2.14736,0.18525 -0.70407,0.0549 -1.40625,0.14254 -2.11386,0.12682 -0.75742,0.0181 -1.51502,0.0487 -2.26818,0.13576 -0.74325,0.0796 -1.48872,0.11129 -2.23326,0.17696 -0.75999,0.0663 -1.52099,0.0588 -2.28326,0.0546 -0.66723,1e-5 -1.33445,1e-5 -2.00168,7e-5 -0.768445,8e-5 -1.536893,2.2e-4 -2.305341,8e-4 -0.773255,5.3e-4 -1.546519,0.002 -2.319774,-0.001 -0.782018,-0.005 -1.564309,-0.0117 -2.345463,-0.0522 -0.83962,-0.0473 -1.67786,-0.13917 -2.519235,-0.13675 -0.829686,-2.6e-4 -1.659374,-7.9e-4 -2.48906,-0.001 -0.913733,1.4e-4 -1.827522,-5.3e-4 -2.741173,0.0134 -0.959041,0.0182 -1.917861,0.0498 -2.874555,0.12236 -0.970222,0.0639 -1.940907,0.0596 -2.91284,0.0533 -0.821566,-5.3e-4 -1.643155,-0.001 -2.464692,0.007 -0.886235,0.0113 -1.772885,0.0295 -2.656948,0.0971 -0.885137,0.0666 -1.769118,0.12243 -2.656946,0.13693 -0.81044,0.0458 -1.617173,0.13857 -2.428055,0.17199 -0.72463,0.0354 -1.446339,0.10004 -2.167747,0.17632 -0.648721,0.0213 -1.295379,0.0727 -1.943976,0.0938 -0.446092,-0.003 -0.87934,-0.11528 -1.325276,-0.11428 -0.416486,-1e-5 -0.832975,-2e-5 -1.249463,-5e-5 -0.527953,-3e-5 -1.055908,-1e-4 -1.583862,8e-5 0,0 0.184875,-0.0293 0.184875,-0.0293 z"
       inkscape:connector-curvature="0" />
    <path
       style="opacity:1;fill:none;fill-opacity:1;fill-rule:nonzero;stroke:#000000;stroke-width:1;stroke-linecap:round;stroke-linejoin:round;stroke-miterlimit:4;stroke-dasharray:none;stroke-dashoffset:0;stroke-opacity:1;paint-order:markers fill stroke"
       id="path4503"
       d="m 225.52482,207.4528 c 0.54822,0.15163 1.1119,0.22872 1.66819,0.34345 0.46265,0.0633 0.90787,0.1833 1.34749,0.3368 0.33475,0.0902 0.65497,0.2383 0.79005,0.57431 0.015,0.38864 -0.30403,0.68952 -0.54468,0.95978 -0.29733,0.28791 -0.6086,0.55975 -0.91787,0.83443 -0.24422,0.23117 -0.47465,0.4744 -0.67561,0.74452 0,0 -0.1865,-0.0119 -0.1865,-0.0119 v 0 c 0.20036,-0.27199 0.43138,-0.51604 0.67587,-0.74841 0.30993,-0.27333 0.6192,-0.54681 0.91837,-0.83219 0.23534,-0.26353 0.55444,-0.55967 0.54303,-0.93895 -0.13706,-0.32969 -0.45987,-0.46793 -0.78781,-0.5586 -0.43915,-0.15305 -0.88491,-0.26903 -1.34635,-0.33447 -0.55686,-0.1147 -1.12121,-0.19183 -1.66972,-0.34465 0,0 0.18554,-0.0241 0.18554,-0.0241 z"
       inkscape:connector-curvature="0" />
    <path
       style="opacity:1;fill:none;fill-opacity:1;fill-rule:nonzero;stroke:#000000;stroke-width:1;stroke-linecap:round;stroke-linejoin:round;stroke-miterlimit:4;stroke-dasharray:none;stroke-dashoffset:0;stroke-opacity:1;paint-order:markers fill stroke"
       id="path4509"
       d="m 223.54518,217.40148 c 0.25768,0.63684 0.62553,1.21861 1.00178,1.79033 0.41811,0.54513 0.86927,1.06303 1.337,1.56576 0.41014,0.45225 0.85458,0.86922 1.29563,1.29001 0.23988,0.23839 0.48964,0.46643 0.74947,0.68298 0,0 -0.18619,0.0164 -0.18619,0.0164 v 0 c -0.25962,-0.21694 -0.50868,-0.44602 -0.74881,-0.68428 -0.44129,-0.42065 -0.88399,-0.83947 -1.29468,-1.29119 -0.46818,-0.50338 -0.9195,-1.02234 -1.33707,-1.56887 -0.37644,-0.5732 -0.74354,-1.15648 -1.004,-1.7935 0,0 0.18687,-0.008 0.18687,-0.008 z"
       inkscape:connector-curvature="0" />
    <path
       style="opacity:1;fill:none;fill-opacity:1;fill-rule:nonzero;stroke:#000000;stroke-width:1;stroke-linecap:round;stroke-linejoin:round;stroke-miterlimit:4;stroke-dasharray:none;stroke-dashoffset:0;stroke-opacity:1;paint-order:markers fill stroke"
       id="path4511"
       d="m 226.93219,217.17925 c -0.45515,0.4225 -0.88042,0.87406 -1.28427,1.34531 -0.4104,0.52014 -0.81175,1.04722 -1.19216,1.58971 -0.38836,0.54303 -0.74706,1.10633 -1.13523,1.64943 -0.23474,0.30314 -0.47097,0.60449 -0.70111,0.91121 0,0 -0.1856,-0.012 -0.1856,-0.012 v 0 c 0.23027,-0.30665 0.46629,-0.60816 0.70179,-0.91074 0.38874,-0.54267 0.74697,-1.10625 1.13532,-1.64924 0.38019,-0.54329 0.78234,-1.07035 1.19225,-1.5915 0.40393,-0.47186 0.82938,-0.92349 1.28276,-1.34857 0,0 0.18625,0.0163 0.18625,0.0163 z"
       inkscape:connector-curvature="0" />
    <path
       style="opacity:1;fill:none;fill-opacity:1;fill-rule:nonzero;stroke:#000000;stroke-width:1;stroke-linecap:round;stroke-linejoin:round;stroke-miterlimit:4;stroke-dasharray:none;stroke-dashoffset:0;stroke-opacity:1;paint-order:markers fill stroke"
       id="path4513"
       d="m 143.8597,144.94583 c 0.48047,0.31859 0.86947,0.7489 1.30075,1.1267 0.23228,0.18174 0.48289,0.35809 0.79317,0.32429 0.008,-7.9e-4 -5.3e-4,-0.0202 0.007,-0.0236 0.0535,-0.0247 0.11164,-0.0379 0.16746,-0.0568 0.37312,-0.17234 0.58537,-0.51519 0.82075,-0.83221 0.20962,-0.2996 0.36335,-0.63156 0.46126,-0.98301 0.0408,-0.0819 -0.0209,-0.46746 0.1765,-0.21093 0.0207,0.027 -0.0205,0.065 -0.0275,0.0983 -0.009,0.0426 -0.0136,0.0861 -0.0203,0.1291 -0.038,0.36893 -0.035,0.74064 -0.0365,1.11107 -0.0109,0.4701 -0.004,0.93549 0.0547,1.402 0.0845,0.49003 0.0795,0.98944 0.14628,1.48081 0.0822,0.39409 0.0669,0.79337 -0.0317,1.18128 -0.11699,0.34712 -0.37456,0.59458 -0.72151,0.70055 -0.44068,0.0844 -0.83103,-0.0494 -1.20804,-0.25782 -0.27958,-0.18051 -0.48208,-0.4269 -0.66537,-0.69962 -0.015,-0.0451 -0.0299,-0.0902 -0.0449,-0.13538 0,0 0.18728,-0.006 0.18728,-0.006 v 0 c 0.0149,0.0435 0.0297,0.0869 0.0446,0.13034 0.18323,0.26987 0.38457,0.51433 0.66426,0.69078 0.26267,0.14258 0.55714,0.29659 0.83671,0.25376 0.34544,-0.0955 0.60245,-0.33962 0.71996,-0.6812 0.0989,-0.38557 0.11426,-0.78212 0.0324,-1.1741 -0.0662,-0.4915 -0.0618,-0.99088 -0.1461,-1.48098 -0.059,-0.46728 -0.0659,-0.93353 -0.0551,-1.40441 10e-4,-0.37137 -0.002,-0.74396 0.0355,-1.11388 0.012,-0.0787 -0.0193,-0.19061 0.0474,-0.23415 0.32563,-0.21265 0.23801,0.0625 0.19823,0.22561 -0.0978,0.35375 -0.25154,0.68799 -0.46169,0.9899 -0.23772,0.31836 -0.44881,0.66486 -0.8216,0.84328 -0.49789,0.17954 -0.94282,0.0876 -1.33827,-0.25115 -0.42999,-0.37879 -0.82001,-0.80791 -1.30184,-1.12411 0,0 0.18622,-0.0184 0.18622,-0.0184 z"
       inkscape:connector-curvature="0" />
    <path
       style="opacity:1;fill:none;fill-opacity:1;fill-rule:nonzero;stroke:#000000;stroke-width:1;stroke-linecap:round;stroke-linejoin:round;stroke-miterlimit:4;stroke-dasharray:none;stroke-dashoffset:0;stroke-opacity:1;paint-order:markers fill stroke"
       id="path4643"
       d="m 132.83889,205.08317 c -0.38633,0.34544 -0.62349,0.7766 -0.68964,1.28699 -0.007,0.44336 0.19197,0.82355 0.40368,1.19874 0.23258,0.34006 0.49218,0.6505 0.79951,0.92431 0.20573,0.15749 0.4348,0.30277 0.70086,0.31879 0.0653,0.004 0.12407,-0.0427 0.18818,-0.0556 0.35284,-0.10855 0.61314,-0.33686 0.84355,-0.61605 0.25356,-0.31294 0.42186,-0.68517 0.55482,-1.06279 0.18082,-0.39595 0.25562,-0.8202 0.303,-1.24934 0.0509,-0.4085 0.0415,-0.80779 -0.0699,-1.2043 -0.14389,-0.40052 -0.35611,-0.74262 -0.67486,-1.02396 -0.30325,-0.27839 -0.67336,-0.40459 -1.07066,-0.47278 -0.3162,-0.0455 -0.64291,0.0548 -0.95204,0.14305 -0.34018,0.13493 -0.63512,0.35004 -0.87155,0.62739 -0.25963,0.29417 -0.37378,0.66778 -0.49756,1.0317 0,0 -0.18664,-0.006 -0.18664,-0.006 v 0 c 0.12406,-0.36587 0.23829,-0.74198 0.49774,-1.0387 0.23607,-0.28136 0.53192,-0.49833 0.87283,-0.63833 0.42992,-0.12374 0.8721,-0.21738 1.32221,-0.14502 0.39849,0.0715 0.76824,0.20288 1.07169,0.48307 0.31815,0.28577 0.53186,0.63111 0.67547,1.03461 0.11096,0.399 0.12116,0.80058 0.0697,1.21143 -0.0475,0.43038 -0.12138,0.8565 -0.30286,1.25359 -0.13291,0.37961 -0.30161,0.75399 -0.55506,1.06931 -0.23037,0.28289 -0.49127,0.51424 -0.84487,0.62866 -0.48128,0.10264 -0.88138,0.0531 -1.26002,-0.2729 -0.3076,-0.27558 -0.56781,-0.58833 -0.7998,-0.93044 -0.21293,-0.3791 -0.41168,-0.76328 -0.4039,-1.2107 0.0662,-0.51364 0.30171,-0.94999 0.6895,-1.29927 0,0 0.18658,0.0147 0.18658,0.0147 z"
       inkscape:connector-curvature="0" />
    <flowRoot
       xml:space="preserve"
       id="flowRoot4812"
       style="fill:black;fill-opacity:1;stroke:none;font-family:Calibri;font-style:normal;font-weight:normal;font-size:40px;line-height:1.25;letter-spacing:0px;word-spacing:0px;-inkscape-font-specification:Calibri;font-stretch:normal;font-variant:normal"><flowRegion
         id="flowRegion4814"><rect
           id="rect4816"
           width="9.2857141"
           height="111.42857"
           x="340"
           y="427.98651" /></flowRegion><flowPara
         id="flowPara4818"></flowPara></flowRoot>    <path
       style="opacity:1;fill:none;fill-opacity:1;fill-rule:nonzero;stroke:#000000;stroke-width:1.00000003;stroke-linecap:round;stroke-linejoin:round;stroke-miterlimit:4;stroke-dasharray:2.00000006, 4.00000011000000020;stroke-dashoffset:0;stroke-opacity:1;paint-order:markers fill stroke"
       id="path4832"
       d="m 138.08449,163.58905 c -0.68365,0.0211 -1.36374,-0.0214 -2.04374,-0.0866 -0.65652,-0.0644 -1.31594,-0.0849 -1.97513,-0.0965 -0.72466,-0.0652 -1.4488,-0.12844 -2.17572,-0.1625 -0.77275,-0.0303 -1.54623,-0.0317 -2.31945,-0.0336 -0.82443,-10e-4 -1.64887,1e-5 -2.47329,2.7e-4 -0.96929,-0.009 -1.93648,-0.007 -2.90399,0.0538 -1.00345,0.0639 -2.00203,0.18924 -2.99952,0.31318 -1.02948,0.14004 -2.0506,0.33098 -3.07364,0.51014 -1.0067,0.16518 -2.00031,0.37812 -2.97671,0.67375 -0.92972,0.25969 -1.84721,0.55786 -2.74975,0.89991 -0.92401,0.32607 -1.79444,0.77801 -2.66964,1.21401 -0.83104,0.38613 -1.61213,0.86498 -2.4051,1.32146 -0.78789,0.473 -1.54636,0.99227 -2.273,1.55443 -0.79958,0.58837 -1.541,1.24794 -2.26618,1.92424 -0.71387,0.717 -1.39454,1.46575 -2.05895,2.22846 -0.66714,0.7522 -1.308055,1.52588 -1.919166,2.32401 -0.62384,0.83425 -1.18637,1.71131 -1.757492,2.5817 -0.597133,0.91605 -1.128784,1.87014 -1.64751,2.83204 -0.528688,0.99546 -1.021392,2.0058 -1.472518,3.03865 -0.456215,1.06029 -0.917257,2.11738 -1.334124,3.19401 -0.362188,1.066 -0.709329,2.13896 -1.006816,3.22497 -0.317254,1.10971 -0.556326,2.23786 -0.786218,3.36805 -0.224012,1.12681 -0.386892,2.26341 -0.538427,3.40181 -0.11598,1.13283 -0.236344,2.26551 -0.314512,3.40177 -0.05915,1.13232 -0.09969,2.26733 -0.06094,3.40087 0.04007,1.13642 0.139362,2.26832 0.229616,3.40137 0.101005,1.191 0.273704,2.37336 0.443169,3.55595 0.194694,1.17399 0.360998,2.3526 0.582224,3.522 0.211929,1.17134 0.451813,2.33824 0.718505,3.49839 0.291973,1.18488 0.638482,2.3555 0.996395,3.52188 0.361748,1.16242 0.745519,2.31781 1.129194,3.47313 0.357809,1.14122 0.783074,2.25933 1.272262,3.35041 0.484899,1.10261 1.00236,2.18997 1.519346,3.27773 0.540596,1.09686 1.106929,2.18144 1.70049,3.25058 0.576694,1.13488 1.246645,2.21534 1.915142,3.29693 0.62894,1.05433 1.34136,2.05475 2.08291,3.03196 0.72267,0.97643 1.49458,1.91095 2.30166,2.81793 0.82824,0.92103 1.72536,1.77978 2.63743,2.61714 0.94629,0.8417 1.94866,1.61583 2.95251,2.38675 1.00483,0.7897 2.09893,1.45145 3.16153,2.15815 1.10273,0.69107 2.26644,1.27472 3.42197,1.87027 1.17108,0.5776 2.36697,1.10759 3.58484,1.57888 1.22645,0.51256 2.4748,0.96822 3.73612,1.38671 1.26476,0.4175 2.54107,0.79396 3.83363,1.11442 1.2673,0.33847 2.54644,0.62512 3.82342,0.92352 1.25902,0.28043 2.53233,0.48434 3.80345,0.69959 1.2345,0.19124 2.47717,0.32065 3.71762,0.46531 1.1904,0.15033 2.3887,0.20963 3.58717,0.24318 1.08263,0.0545 2.16152,-0.002 3.24197,-0.0628 1.13984,-0.0815 2.27115,-0.21952 3.40009,-0.3928 1.13347,-0.2025 2.26427,-0.42461 3.37857,-0.71589 1.09708,-0.31612 2.18767,-0.65966 3.25671,-1.06092 1.07231,-0.41916 2.12214,-0.88918 3.17052,-1.36388 1.07294,-0.49417 2.12935,-1.02058 3.15917,-1.59925 1.04723,-0.57541 2.04031,-1.2399 3.05131,-1.87494 1.02043,-0.64483 1.98267,-1.37351 2.94131,-2.10519 0.9465,-0.74417 1.89525,-1.48571 2.82012,-2.25674 0.93342,-0.71924 1.76929,-1.54827 2.59796,-2.3827 0.84978,-0.80846 1.62112,-1.68563 2.37708,-2.58038 0.75121,-0.88137 1.45138,-1.80113 2.11763,-2.74774 0.69336,-0.9798 1.28953,-2.02114 1.92199,-3.03962 0.65134,-1.04439 1.22967,-2.1304 1.80634,-3.2169 0.5656,-1.16023 1.09076,-2.34044 1.57747,-3.53591 0.45974,-1.19843 0.85147,-2.42126 1.23333,-3.64623 0.39892,-1.20496 0.66796,-2.44701 0.88876,-3.69528 0.25531,-1.24179 0.36406,-2.50365 0.42558,-3.76764 0.0476,-1.25937 0.0451,-2.51989 0.0456,-3.77994 -0.0345,-1.29941 -0.12469,-2.59578 -0.26651,-3.88767 -0.13715,-1.31133 -0.31789,-2.61673 -0.57727,-3.9095 -0.28384,-1.28602 -0.52785,-2.58053 -0.89988,-3.84479 -0.39597,-1.27982 -0.82915,-2.54714 -1.28138,-3.80794 -0.46803,-1.29192 -0.96947,-2.57192 -1.47088,-3.85131 -0.53102,-1.28252 -1.07322,-2.56051 -1.66707,-3.81537 -0.57252,-1.28014 -1.22629,-2.51828 -1.93573,-3.72702 -0.64467,-1.25705 -1.40877,-2.44322 -2.18737,-3.61985 -0.76777,-1.17779 -1.59341,-2.31653 -2.4445,-3.43517 -0.85765,-1.0915 -1.77671,-2.13317 -2.73537,-3.13657 -0.94589,-1.00459 -1.97447,-1.92129 -2.99544,-2.84686 -1.02399,-0.91969 -2.10321,-1.77666 -3.19231,-2.61753 -1.06925,-0.81242 -2.14708,-1.61257 -3.2444,-2.3867 -1.09047,-0.7334 -2.22773,-1.39118 -3.37453,-2.03131 -1.16939,-0.62857 -2.36192,-1.21201 -3.54631,-1.81132 -1.11288,-0.56837 -2.27591,-1.02769 -3.42516,-1.51545 -1.10075,-0.47213 -2.25818,-0.79347 -3.40102,-1.1455 -1.10867,-0.33113 -2.24618,-0.54145 -3.37885,-0.76902 -1.05895,-0.19437 -2.13185,-0.31101 -3.20289,-0.41761 -0.95085,-0.0843 -1.91165,-0.0414 -2.86172,0.0372 -0.63597,0.0607 -0.32004,0.031 -0.94778,0.0893 0,0 -0.18162,-0.027 -0.18162,-0.027 v 0 c 0.6279,-0.0582 0.31191,-0.0284 0.94795,-0.0894 1.07021,-0.0903 2.15307,-0.12439 3.22418,-0.0368 1.07102,0.10727 2.14402,0.22359 3.2028,0.41944 1.13279,0.22739 2.27015,0.43901 3.37867,0.77089 1.14304,0.35207 2.30042,0.67416 3.40098,1.14739 1.1493,0.48788 2.31234,0.94746 3.42491,1.5167 1.18456,0.59911 2.3769,1.18311 3.54614,1.81209 1.14711,0.64037 2.28455,1.29875 3.3748,2.0332 1.09726,0.77436 2.175,1.57477 3.2441,2.38752 1.08916,0.84139 2.16878,1.69844 3.19257,2.61893 1.02142,0.92558 2.04936,1.84346 2.99557,2.84816 0.95841,1.00427 1.87793,2.0462 2.73518,3.13861 0.85112,1.11908 1.67694,2.25812 2.44469,3.43636 0.77856,1.17702 1.54213,2.36382 2.1875,3.62082 0.70929,1.20936 1.36293,2.44813 1.93575,3.72863 0.59379,1.25532 1.13635,2.53358 1.66721,3.8166 0.50138,1.27959 1.00321,2.55963 1.47098,3.85183 0.45265,1.26106 0.88561,2.52884 1.28179,3.80899 0.37166,1.26491 0.61599,2.55985 0.8999,3.84639 0.25923,1.29334 0.44002,2.59924 0.57718,3.9111 0.14207,1.29254 0.23223,2.5896 0.26688,3.88967 -2.7e-4,1.26034 0.002,2.52115 -0.0456,3.78081 -0.0613,1.26476 -0.1703,2.5274 -0.42564,3.76994 -0.22053,1.24908 -0.4898,2.49191 -0.88892,3.69758 -0.38193,1.22546 -0.77373,2.44872 -1.23321,3.64778 -0.48692,1.196 -1.01258,2.37656 -1.57749,3.53775 -0.57673,1.08685 -1.15476,2.17341 -1.80623,3.21814 -0.633,1.01845 -1.22823,2.06071 -1.92184,3.04067 -0.666,0.94729 -1.36617,1.86752 -2.11742,2.74938 -0.75634,0.89495 -1.52719,1.77306 -2.37728,2.58183 -0.82896,0.83476 -1.66443,1.66498 -2.59831,2.38439 -0.92489,0.77136 -1.87389,1.51296 -2.82038,2.2575 -0.95882,0.73202 -1.92096,1.46142 -2.94143,2.10684 -1.01115,0.63513 -2.00416,1.30005 -3.05138,1.87583 -1.02958,0.57952 -2.08606,1.10614 -3.15895,1.60088 -1.04873,0.47462 -2.09845,0.94552 -3.17094,1.36503 -1.06873,0.40256 -2.1597,0.74556 -3.25661,1.06284 -1.11435,0.29224 -2.24538,0.51427 -3.37895,0.71774 -1.12909,0.17334 -2.26028,0.31271 -3.40028,0.39455 -1.20018,0.0675 -2.40036,0.11365 -3.60256,0.0633 -1.19845,-0.0341 -2.39664,-0.0943 -3.58699,-0.24482 -1.24054,-0.14417 -2.48312,-0.27461 -3.71758,-0.46628 -1.27121,-0.21503 -2.54445,-0.4198 -3.80341,-0.70072 -1.27703,-0.29819 -2.55596,-0.58576 -3.82337,-0.92378 -1.29257,-0.32096 -2.56882,-0.69833 -3.83371,-1.11583 -1.26132,-0.41901 -2.50952,-0.87545 -3.73632,-1.38757 -1.21789,-0.47219 -2.41415,-1.00229 -3.58518,-1.58079 -1.15598,-0.59563 -2.31975,-1.18019 -3.42238,-1.87225 -1.06292,-0.70668 -2.15683,-1.36924 -3.16165,-2.15939 -1.00401,-0.77131 -2.00653,-1.54586 -2.95264,-2.38834 -0.9121,-0.83808 -1.80976,-1.69697 -2.63775,-2.61895 -0.80741,-0.90724 -1.57871,-1.84282 -2.3019,-2.81934 -0.74135,-0.97794 -1.45376,-1.97886 -2.08273,-3.03371 -0.668574,-1.08185 -1.337906,-2.16298 -1.915254,-3.29778 -0.593706,-1.06947 -1.160214,-2.15435 -1.700593,-3.25172 -0.517181,-1.08786 -1.034712,-2.17538 -1.519717,-3.27813 -0.488952,-1.09178 -0.914064,-2.21055 -1.272164,-3.35224 -0.383654,-1.15544 -0.767358,-2.31098 -1.128964,-3.47356 -0.357923,-1.16684 -0.704932,-2.33781 -0.996828,-3.52318 -0.266592,-1.16039 -0.506415,-2.32752 -0.718259,-3.4991 -0.221179,-1.16968 -0.388131,-2.34848 -0.582462,-3.52281 -0.169415,-1.18299 -0.341802,-2.36576 -0.443433,-3.55709 -0.09029,-1.13333 -0.189559,-2.2655 -0.229638,-3.4022 -0.03872,-1.13416 0.0019,-2.26979 0.06095,-3.40274 0.07817,-1.13665 0.198591,-2.26971 0.314569,-3.40293 0.151558,-1.13881 0.314494,-2.27582 0.538512,-3.40306 0.229949,-1.13058 0.468921,-2.25914 0.786148,-3.36926 0.297357,-1.08669 0.644557,-2.16031 1.007139,-3.22683 0.416703,-1.07691 0.877467,-2.13433 1.333754,-3.1948 0.451475,-1.0332 0.943613,-2.0443 1.472573,-3.04016 0.51861,-0.96244 1.050351,-1.91695 1.647272,-2.83364 0.571423,-0.8706 1.133668,-1.74827 1.757434,-2.58302 0.611055,-0.79855 1.251479,-1.57296 1.919071,-2.32518 0.66467,-0.76319 1.34558,-1.5124 2.05927,-2.23034 0.72505,-0.67685 1.466,-1.33749 2.26588,-1.92595 0.72636,-0.56328 1.48508,-1.08292 2.27287,-1.55697 0.79341,-0.4564 1.57426,-0.9364 2.40569,-1.3225 0.87545,-0.43613 1.74566,-0.88925 2.66976,-1.21584 0.90254,-0.34278 1.82002,-0.64194 2.75016,-0.90112 0.97643,-0.29684 1.97005,-0.51091 2.97716,-0.67593 1.02321,-0.17875 2.04426,-0.37047 3.07377,-0.51104 0.99754,-0.12388 1.99607,-0.25005 2.99952,-0.31431 0.96743,-0.061 1.93445,-0.0643 2.90371,-0.055 0.9456,-5.3e-4 1.89121,-0.001 2.83681,-5.3e-4 0.7734,0.002 1.54706,0.003 2.31998,0.0344 0.72698,0.0346 1.4511,0.0992 2.17606,0.1619 0.6593,0.0119 1.3188,0.0331 1.97539,0.0979 0.55882,0.0535 1.11295,0.1149 1.67569,0.0846 0,0 0.18488,0.0293 0.18488,0.0293 z"
       inkscape:connector-curvature="0" />
    <circle
       style="opacity:1;fill:#000000;fill-opacity:1;fill-rule:nonzero;stroke:#000000;stroke-width:1;stroke-linecap:round;stroke-linejoin:round;stroke-miterlimit:4;stroke-dasharray:none;stroke-dashoffset:0;stroke-opacity:1;paint-order:markers fill stroke"
       id="path4896"
       cx="179.82216"
       cy="192.2061"
       r="1.4174107" />
    <circle
       style="opacity:1;fill:#000000;fill-opacity:1;fill-rule:nonzero;stroke:#000000;stroke-width:1;stroke-linecap:round;stroke-linejoin:round;stroke-miterlimit:4;stroke-dasharray:none;stroke-dashoffset:0;stroke-opacity:1;paint-order:markers fill stroke"
       id="path4896-6"
       cx="160.07292"
       cy="170.37798"
       r="1.4174107" />
    <circle
       style="opacity:1;fill:#000000;fill-opacity:1;fill-rule:nonzero;stroke:#000000;stroke-width:1;stroke-linecap:round;stroke-linejoin:round;stroke-miterlimit:4;stroke-dasharray:none;stroke-dashoffset:0;stroke-opacity:1;paint-order:markers fill stroke"
       id="path4896-5"
       cx="113.96639"
       cy="225.66141"
       r="1.4174107" />
    <circle
       style="opacity:1;fill:#000000;fill-opacity:1;fill-rule:nonzero;stroke:#000000;stroke-width:1;stroke-linecap:round;stroke-linejoin:round;stroke-miterlimit:4;stroke-dasharray:none;stroke-dashoffset:0;stroke-opacity:1;paint-order:markers fill stroke"
       id="path4896-6-3"
       cx="126.70261"
       cy="237.67213"
       r="1.4174107" />
    <path
       style="opacity:1;fill:none;fill-opacity:1;fill-rule:nonzero;stroke:#000000;stroke-width:1.00000003;stroke-linecap:round;stroke-linejoin:round;stroke-miterlimit:4;stroke-dasharray:1.00000003,2.00000006;stroke-dashoffset:0;stroke-opacity:1;paint-order:markers fill stroke"
       id="path4943"
       d="m 141.23947,211.12071 c 0.50724,-0.21855 0.98393,-0.49648 1.46987,-0.7569 0.33783,-0.21187 0.67135,-0.43039 1.02208,-0.62057 0.3638,-0.21739 0.7286,-0.43272 1.09577,-0.64458 0.3732,-0.20475 0.75611,-0.39057 1.13327,-0.58768 0.34373,-0.19663 0.68748,-0.39958 1.04873,-0.56281 0.32981,-0.16882 0.67922,-0.29447 1.01422,-0.45072 0.29097,-0.1275 0.57842,-0.26112 0.86742,-0.39332 0.35173,-0.14418 0.68587,-0.32635 1.04009,-0.46444 0.29996,-0.13102 0.58891,-0.28654 0.89082,-0.41253 0.33032,-0.17021 0.66192,-0.33576 1.00329,-0.48382 0.36924,-0.18374 0.74742,-0.34516 1.12684,-0.50589 0.40049,-0.14299 0.76148,-0.37098 1.13548,-0.56926 0.3821,-0.17377 0.75399,-0.36631 1.13416,-0.54441 0.38175,-0.16809 0.76147,-0.34184 1.1339,-0.52987 0.3804,-0.17603 0.74509,-0.38407 1.13397,-0.54125 0.37692,-0.17674 0.75042,-0.35926 1.13392,-0.52235 0.35929,-0.18544 0.74993,-0.29724 1.11114,-0.47742 0.32034,-0.1802 0.65025,-0.33796 0.98891,-0.48079 0.3083,-0.17621 0.63769,-0.30942 0.95661,-0.46424 0.35017,-0.21578 0.73095,-0.37266 1.09984,-0.55212 0.3807,-0.17771 0.76077,-0.35762 1.13454,-0.54964 0.37862,-0.18765 0.75944,-0.37129 1.1345,-0.56607 0.378,-0.18892 0.75888,-0.37242 1.13395,-0.56718 0.36984,-0.22014 0.75511,-0.41156 1.13392,-0.61585 0.35972,-0.14778 0.69496,-0.34573 1.04817,-0.50621 0.33449,-0.15048 0.6629,-0.30897 0.98288,-0.488 0.34726,-0.156 0.66845,-0.36156 1.0037,-0.54069 0.3693,-0.20311 0.74249,-0.4001 1.12149,-0.58464 0.37782,-0.19052 0.75373,-0.38526 1.13518,-0.56852 0.37802,-0.18892 0.75329,-0.38368 1.1342,-0.56679 0.38151,-0.14783 0.74948,-0.3282 1.13398,-0.46802 0.3022,-0.13442 0.60523,-0.2606 0.8932,-0.42414 0.3314,-0.17487 0.65522,-0.36363 1.00207,-0.50671 0.2909,-0.16457 0.61008,-0.25962 0.91786,-0.38505 0.30974,-0.11445 0.62061,-0.22345 0.92377,-0.35446 0.23023,-0.0936 0.46156,-0.19321 0.6811,-0.31035 0,0 0.18628,0.0201 0.18628,0.0201 v 0 c -0.21829,0.11976 -0.45165,0.21734 -0.6815,0.31196 -0.30327,0.13099 -0.61326,0.24201 -0.92371,0.35488 -0.30804,0.12527 -0.62765,0.21954 -0.91837,0.38495 -0.34733,0.14086 -0.6701,0.33026 -1.00139,0.50432 -0.28784,0.16574 -0.59166,0.29103 -0.89401,0.42731 -0.385,0.13793 -0.7518,0.32026 -1.13387,0.46614 -0.38138,0.18212 -0.75619,0.37788 -1.1342,0.56679 -0.38191,0.18225 -0.75735,0.37799 -1.13517,0.56843 -0.37938,0.1834 -0.75208,0.38116 -1.12134,0.58395 -0.3357,0.17801 -0.65549,0.38589 -1.00332,0.54035 -0.32047,0.17879 -0.64783,0.33972 -0.98304,0.4896 -0.35418,0.15817 -0.68762,0.35972 -1.04851,0.50486 -0.37922,0.20356 -0.76405,0.39606 -1.13393,0.6161 -0.37458,0.1957 -0.75594,0.37829 -1.13395,0.56718 -0.37457,0.19573 -0.7559,0.37847 -1.1345,0.56615 -0.3733,0.19305 -0.75386,0.37223 -1.13454,0.55005 -0.36833,0.18047 -0.75052,0.33456 -1.09963,0.55215 -0.31851,0.15615 -0.64944,0.28668 -0.95674,0.46527 -0.33893,0.14169 -0.66887,0.29887 -0.98871,0.47952 -0.36017,0.18319 -0.75245,0.2918 -1.1115,0.47862 -0.38403,0.16213 -0.75769,0.34433 -1.13394,0.52271 -0.3896,0.15503 -0.75338,0.36426 -1.13388,0.53962 -0.37193,0.18916 -0.7521,0.36238 -1.13393,0.53042 -0.37969,0.17878 -0.75211,0.36996 -1.13412,0.54354 -0.37472,0.19741 -0.73471,0.42804 -1.13556,0.57083 -0.37894,0.16168 -0.75846,0.32 -1.12674,0.50578 -0.34176,0.14704 -0.67369,0.31172 -1.0028,0.4842 -0.3031,0.12366 -0.59141,0.28143 -0.8914,0.41287 -0.35477,0.13617 -0.68788,0.31965 -1.03954,0.46334 -0.28846,0.13356 -0.57676,0.26521 -0.86757,0.39313 -0.33383,0.15862 -0.68523,0.28041 -1.01421,0.45109 -0.36228,0.16055 -0.70563,0.36495 -1.04907,0.56161 -0.37658,0.19792 -0.75992,0.38262 -1.13322,0.58691 -0.36692,0.21238 -0.73274,0.42602 -1.09558,0.64515 -0.35168,0.18879 -0.68525,0.40777 -1.02268,0.62058 -0.48654,0.2594 -0.96261,0.5385 -1.4692,0.75859 0,0 -0.18575,-0.0217 -0.18575,-0.0217 z"
       inkscape:connector-curvature="0" />
    <path
       style="opacity:1;fill:none;fill-opacity:1;fill-rule:nonzero;stroke:#000000;stroke-width:1.00000003;stroke-linecap:round;stroke-linejoin:round;stroke-miterlimit:4;stroke-dasharray:1.00000003,2.00000006;stroke-dashoffset:0;stroke-opacity:1;paint-order:markers fill stroke"
       id="path4947"
       d="m 160.09853,171.67394 c -0.20833,0.55837 -0.46739,1.09483 -0.71247,1.63733 -0.23868,0.52123 -0.47472,1.04333 -0.71601,1.56358 -0.28282,0.51846 -0.54298,1.04842 -0.82349,1.56813 -0.33353,0.57583 -0.61541,1.1788 -0.93497,1.76219 -0.27898,0.55872 -0.53972,1.12611 -0.81957,1.68433 -0.27144,0.4946 -0.5417,0.98946 -0.80852,1.48651 -0.27266,0.4872 -0.5317,0.98281 -0.79354,1.47624 -0.24289,0.49949 -0.48998,0.9964 -0.73329,1.49575 -0.22218,0.45389 -0.4135,0.92115 -0.61511,1.38414 -0.22826,0.43676 -0.44949,0.87566 -0.64534,1.32805 -0.23233,0.47015 -0.44782,0.94719 -0.65782,1.4275 -0.21273,0.46292 -0.37258,0.94494 -0.53313,1.42769 -0.16674,0.48991 -0.34787,0.97435 -0.52488,1.46063 -0.1843,0.47609 -0.33064,0.96508 -0.50462,1.445 -0.13575,0.44661 -0.28972,0.88553 -0.4592,1.32033 -0.16105,0.41504 -0.28229,0.84255 -0.41331,1.2677 -0.15459,0.40087 -0.28201,0.81104 -0.45174,1.20597 -0.1629,0.38592 -0.34302,0.76512 -0.53462,1.13767 -0.18778,0.37818 -0.37156,0.75859 -0.56672,1.13306 -0.1795,0.37897 -0.38812,0.74354 -0.54476,1.1329 -0.15392,0.33302 -0.3355,0.65182 -0.49908,0.97995 -0.1894,0.36449 -0.38,0.72872 -0.55844,1.09877 -0.13787,0.34396 -0.31253,0.67273 -0.49015,0.99767 -0.18772,0.35919 -0.36516,0.72366 -0.55334,1.08262 -0.19095,0.37375 -0.3883,0.74555 -0.59546,1.11056 -0.18847,0.318 -0.34716,0.65375 -0.54264,0.96732 -0.1722,0.29874 -0.31766,0.6107 -0.48542,0.91206 -0.13761,0.31157 -0.29186,0.61307 -0.46878,0.90408 -0.14898,0.30813 -0.3178,0.60605 -0.47549,0.90996 -0.18866,0.34814 -0.37369,0.69875 -0.54665,1.05505 -0.18144,0.36418 -0.36459,0.72573 -0.56699,1.07858 0,0 -0.18665,-0.01 -0.18665,-0.01 v 0 c 0.20224,-0.35256 0.38642,-0.71308 0.5672,-1.07728 0.17256,-0.3566 0.35781,-0.70723 0.54631,-1.05555 0.15723,-0.30462 0.32778,-0.60205 0.47554,-0.91126 0.17734,-0.29054 0.33214,-0.59147 0.46865,-0.90335 0.16778,-0.30175 0.31447,-0.61332 0.48565,-0.91303 0.19693,-0.31239 0.35361,-0.64918 0.54273,-0.96654 0.20848,-0.36393 0.40407,-0.73676 0.59564,-1.10989 0.18855,-0.35884 0.36557,-0.7236 0.55312,-1.08296 0.17782,-0.32448 0.35242,-0.65313 0.49032,-0.99669 0.17805,-0.37029 0.36895,-0.73444 0.55825,-1.09902 0.16285,-0.32801 0.34424,-0.64639 0.49916,-0.97845 0.15621,-0.39021 0.36535,-0.75515 0.54494,-1.13474 0.19554,-0.37425 0.37891,-0.75484 0.56671,-1.13297 0.19186,-0.37196 0.37151,-0.75098 0.53453,-1.13638 0.17018,-0.39411 0.2968,-0.80391 0.45187,-1.20396 0.13117,-0.42556 0.25219,-0.85357 0.41325,-1.26906 0.1695,-0.43467 0.32443,-0.87314 0.45957,-1.31986 0.1739,-0.47997 0.32084,-0.96876 0.50469,-1.44504 0.17699,-0.4861 0.3581,-0.97032 0.52467,-1.46011 0.1608,-0.48327 0.32051,-0.96597 0.53354,-1.42937 0.21013,-0.48019 0.42457,-0.95763 0.65754,-1.42744 0.19559,-0.45255 0.41604,-0.89184 0.64539,-1.3281 0.20214,-0.46305 0.39261,-0.931 0.6154,-1.38491 0.24358,-0.49947 0.49073,-0.99653 0.73343,-1.49638 0.26176,-0.49348 0.5208,-0.98915 0.79339,-1.47634 0.26713,-0.49677 0.53659,-0.99197 0.80888,-1.48598 0.27998,-0.55843 0.54143,-1.12574 0.81988,-1.68499 0.32009,-0.58305 0.6014,-1.18625 0.93482,-1.76207 0.28018,-0.51946 0.53987,-1.0492 0.82307,-1.56704 0.24156,-0.5201 0.47723,-1.04233 0.71624,-1.56338 0.24491,-0.54224 0.5051,-1.078 0.71095,-1.63703 0,0 0.18687,0.008 0.18687,0.008 z"
       inkscape:connector-curvature="0" />
    <path
       style="opacity:1;fill:#000000;fill-opacity:1;fill-rule:nonzero;stroke:#000000;stroke-width:1;stroke-linecap:round;stroke-linejoin:round;stroke-miterlimit:4;stroke-dasharray:none;stroke-dashoffset:0;stroke-opacity:1;paint-order:markers fill stroke"
       id="path4959"
       d="m 186.60209,190.21475 c -0.12318,0.6448 -0.27178,1.28519 -0.43714,1.92046 -0.12879,0.53592 -0.24799,1.0753 -0.41125,1.60211 -0.11281,0.35161 -0.18243,0.71263 -0.32774,1.05333 -0.0129,0.0183 -0.0179,0.0629 -0.0388,0.0548 -0.0748,-0.029 -0.15069,-0.0759 -0.19238,-0.14444 -0.0471,-0.0773 0.0945,-0.60097 0.11682,-0.69496 0.1081,-0.51314 0.25444,-1.01762 0.41303,-1.51721 0.17802,-0.56835 0.36242,-1.1349 0.5552,-1.69845 0.20478,-0.51937 0.43539,-1.02743 0.64564,-1.54458 0.15599,-0.34459 0.34709,-0.67281 0.49851,-1.01908 0.12287,-0.28236 0.40659,-0.39549 0.65523,-0.14302 0.21011,0.34506 0.28712,0.7539 0.34796,1.1479 0.0885,0.63094 0.17663,1.26007 0.22399,1.89584 0.0303,0.71137 0.1308,1.41712 0.24325,2.11935 0.0714,0.6115 0.20166,1.2132 0.28874,1.82228 0.0994,0.44653 0.19301,0.89277 0.24168,1.34793 0.004,0.13914 -0.004,0.25153 -0.077,0.36797 0,0 -0.18767,-0.0109 -0.18767,-0.0109 v 0 c 0.0764,-0.11011 0.0798,-0.21999 0.078,-0.35504 -0.0486,-0.4549 -0.14226,-0.90086 -0.2408,-1.34729 -0.0868,-0.60895 -0.21665,-1.2106 -0.28785,-1.82197 -0.11262,-0.70274 -0.21265,-1.40904 -0.24327,-2.12091 -0.0476,-0.63531 -0.13625,-1.26391 -0.22493,-1.89436 -0.0609,-0.38969 -0.13626,-0.79704 -0.34914,-1.13586 -0.18343,-0.17329 -0.0511,-7.9e-4 0.0144,-0.11684 0.0726,-0.12873 -0.47428,0.24746 -0.2956,0.25264 -0.15044,0.3467 -0.34297,0.67432 -0.49967,1.01858 -0.21015,0.51691 -0.44055,1.02472 -0.6461,1.54351 -0.19271,0.56342 -0.3771,1.12982 -0.55506,1.69804 -0.15837,0.4991 -0.3046,1.00309 -0.412,1.51584 -0.0294,0.12462 -0.0668,0.24763 -0.0884,0.37382 -0.0179,0.10426 0.0318,0.22862 -0.0275,0.31616 -0.0423,0.0624 -0.11754,0.0955 -0.18287,0.13308 -0.0184,0.0106 0.0261,-0.0336 0.0392,-0.0504 0.14792,-0.33921 0.21546,-0.7004 0.32894,-1.05131 0.16416,-0.52631 0.28347,-1.06553 0.41227,-1.60122 0.16576,-0.63422 0.31459,-1.27374 0.43547,-1.91805 0,0 0.18689,0.002 0.18689,0.002 z"
       inkscape:connector-curvature="0" />
    <path
       style="opacity:1;fill:#000000;fill-opacity:1;fill-rule:nonzero;stroke:#000000;stroke-width:1;stroke-linecap:round;stroke-linejoin:round;stroke-miterlimit:4;stroke-dasharray:none;stroke-dashoffset:0;stroke-opacity:1;paint-order:markers fill stroke"
       id="path4961"
       d="m 185.84091,192.26467 c 0.56918,-0.0572 1.13343,-0.13806 1.69785,-0.23043 0.39835,-0.0336 0.78673,-0.11391 1.17647,-0.1984 0,0 0.185,0.0253 0.185,0.0253 v 0 c -0.39021,0.0842 -0.77839,0.16775 -1.1775,0.19922 -0.56408,0.092 -1.12762,0.17486 -1.69656,0.23098 0,0 -0.18526,-0.0267 -0.18526,-0.0267 z"
       inkscape:connector-curvature="0" />
    <path
       style="opacity:1;fill:#000000;fill-opacity:1;fill-rule:nonzero;stroke:#000000;stroke-width:1;stroke-linecap:round;stroke-linejoin:round;stroke-miterlimit:4;stroke-dasharray:none;stroke-dashoffset:0;stroke-opacity:1;paint-order:markers fill stroke"
       id="path4963"
       d="m 164.63424,161.65757 c -0.24173,0.66393 -0.47572,1.33046 -0.65894,2.01309 -0.17055,0.64237 -0.35701,1.28052 -0.48455,1.93326 -0.12575,0.42769 -0.17607,0.87474 -0.32159,1.29621 -0.37024,0.55509 -0.22014,-0.43815 -0.21562,-0.48892 0.0945,-0.56849 0.21931,-1.13178 0.33941,-1.69551 0.16252,-0.7527 0.41956,-1.47591 0.66418,-2.20401 0.23702,-0.66285 0.47657,-1.3265 0.7524,-1.97451 0.16329,-0.39825 0.3371,-0.7942 0.5727,-1.15563 0.29473,-0.29741 0.4885,-0.0363 0.60308,0.23839 0.11679,0.44227 0.19334,0.89524 0.25015,1.34928 0.0391,0.64504 0.0947,1.28693 0.16275,1.92964 0.0354,0.64935 0.13656,1.29137 0.21292,1.93653 0.0417,0.50548 0.15401,1.00095 0.21638,1.50403 0.0644,0.27947 0.19412,0.57487 0.019,0.83459 -0.13073,0.0963 -0.0587,0.0553 -0.21788,0.12003 0,0 -0.18614,-0.0224 -0.18614,-0.0224 v 0 c 0.15765,-0.0587 0.086,-0.0212 0.21662,-0.10906 0.181,-0.24926 0.0399,-0.54887 -0.0181,-0.82084 -0.0622,-0.50309 -0.17388,-0.99867 -0.21554,-1.50415 -0.0758,-0.64526 -0.17669,-1.28738 -0.21244,-1.93675 -0.0681,-0.64259 -0.1235,-1.28442 -0.16336,-1.92928 -0.0568,-0.45238 -0.13343,-0.90387 -0.25152,-1.34412 -0.0418,-0.0979 -0.0584,-0.15713 -0.1247,-0.23954 -0.0205,-0.0254 -0.0876,-0.0388 -0.0713,-0.0671 0.021,-0.0366 0.082,-0.0223 0.12414,-0.0251 0.0613,-0.004 -0.30044,0.0559 -0.15696,0.0967 -0.23839,0.35874 -0.41011,0.75534 -0.5743,1.15221 -0.27683,0.64723 -0.51638,1.31057 -0.75354,1.973 -0.24421,0.72747 -0.50149,1.44983 -0.66349,2.20192 -0.11969,0.56294 -0.24359,1.12557 -0.33766,1.69326 -0.003,0.0333 -0.0316,0.46079 -0.0489,0.48004 -0.0483,0.054 -0.13017,0.064 -0.19388,0.0986 -0.0378,0.0206 0.28428,-0.11059 0.0845,-0.0976 0.14787,-0.4199 0.19583,-0.86701 0.32299,-1.29353 0.12805,-0.65313 0.31463,-1.2917 0.48542,-1.93451 0.18354,-0.68325 0.41823,-1.35006 0.65685,-2.01581 0,0 0.18687,0.008 0.18687,0.008 z"
       inkscape:connector-curvature="0" />
    <path
       style="opacity:1;fill:#000000;fill-opacity:1;fill-rule:nonzero;stroke:#000000;stroke-width:1;stroke-linecap:round;stroke-linejoin:round;stroke-miterlimit:4;stroke-dasharray:none;stroke-dashoffset:0;stroke-opacity:1;paint-order:markers fill stroke"
       id="path4965"
       d="m 163.16219,163.51714 c 0.52312,-0.20348 1.08267,-0.2678 1.63809,-0.30981 0.52218,-0.0487 1.0403,-0.0238 1.55697,0.0579 0.26104,0.038 0.13102,0.0206 0.39006,0.0522 0,0 -0.1848,0.027 -0.1848,0.027 v 0 c -0.25904,-0.0321 -0.12903,-0.0145 -0.39004,-0.0528 -0.13029,-0.0205 -0.3218,-0.0744 -0.44661,-0.0817 -0.24637,-0.0143 -0.4957,0.0248 -0.74184,0.0252 -0.5544,0.0407 -1.11472,0.10126 -1.63628,0.30623 0,0 -0.18555,-0.0241 -0.18555,-0.0241 z"
       inkscape:connector-curvature="0" />
    <path
       style="opacity:1;fill:#000000;fill-opacity:1;fill-rule:nonzero;stroke:#000000;stroke-width:1;stroke-linecap:round;stroke-linejoin:round;stroke-miterlimit:4;stroke-dasharray:none;stroke-dashoffset:0;stroke-opacity:1;paint-order:markers fill stroke"
       id="path4973"
       d="m 169.70614,157.08997 c 0.3723,0.51209 0.73984,1.0268 1.09334,1.5521 0.31585,0.4394 0.64406,0.87021 0.97402,1.29927 0.28431,0.34388 0.5333,0.71506 0.78126,1.08537 0.0285,0.0369 0.0571,0.0738 0.0856,0.11076 0,0 -0.18698,0.0122 -0.18698,0.0122 v 0 c -0.0284,-0.0373 -0.0568,-0.0746 -0.0851,-0.11198 -0.24809,-0.36972 -0.4961,-0.74093 -0.78052,-1.08421 -0.3297,-0.4295 -0.65834,-0.86023 -0.97333,-1.30049 -0.35341,-0.52577 -0.72143,-1.04052 -1.09507,-1.55208 0,0 0.1868,-0.011 0.1868,-0.011 z"
       inkscape:connector-curvature="0" />
    <path
       style="opacity:1;fill:#000000;fill-opacity:1;fill-rule:nonzero;stroke:#000000;stroke-width:1;stroke-linecap:round;stroke-linejoin:round;stroke-miterlimit:4;stroke-dasharray:none;stroke-dashoffset:0;stroke-opacity:1;paint-order:markers fill stroke"
       id="path4975"
       d="m 172.5036,157.24842 c -0.45419,0.3855 -0.82673,0.85345 -1.14757,1.35267 -0.29412,0.46369 -0.51139,0.97258 -0.72889,1.47566 -0.1383,0.4177 -0.32241,0.81271 -0.52393,1.20247 -0.0359,0.056 -0.0718,0.11198 -0.10765,0.16798 0,0 -0.18641,-0.0107 -0.18641,-0.0107 v 0 c 0.0359,-0.0554 0.0718,-0.1108 0.10774,-0.16619 0.20127,-0.38947 0.38669,-0.78349 0.52422,-1.20117 0.21787,-0.50399 0.43585,-1.01373 0.72971,-1.47865 0.32106,-0.50138 0.69474,-0.96957 1.14656,-1.36045 0,0 0.18622,0.0184 0.18622,0.0184 z"
       inkscape:connector-curvature="0" />
    <path
       style="opacity:1;fill:#000000;fill-opacity:1;fill-rule:nonzero;stroke:#000000;stroke-width:1;stroke-linecap:round;stroke-linejoin:round;stroke-miterlimit:4;stroke-dasharray:none;stroke-dashoffset:0;stroke-opacity:1;paint-order:markers fill stroke"
       id="path4977"
       d="m 168.64285,159.73738 c 0.58884,-0.14701 1.18808,-0.24211 1.77498,-0.39848 0.50286,-0.14237 1.0088,-0.27425 1.5096,-0.42353 0.0754,-0.0224 0.15075,-0.0449 0.22613,-0.0673 0,0 0.18476,0.0238 0.18476,0.0238 v 0 c -0.0754,0.0224 -0.15083,0.0448 -0.22625,0.0672 -0.50057,0.15095 -1.00755,0.28051 -1.51039,0.42399 -0.58602,0.15782 -1.18473,0.25242 -1.77328,0.39838 0,0 -0.18555,-0.0241 -0.18555,-0.0241 z"
       inkscape:connector-curvature="0" />
    <path
       style="opacity:1;fill:#000000;fill-opacity:1;fill-rule:nonzero;stroke:#000000;stroke-width:1;stroke-linecap:round;stroke-linejoin:round;stroke-miterlimit:4;stroke-dasharray:none;stroke-dashoffset:0;stroke-opacity:1;paint-order:markers fill stroke"
       id="path4979"
       d="m 105.36024,227.40944 c 0.14526,-0.49493 0.35238,-0.95571 0.66741,-1.36489 0.27179,-0.28644 0.65076,-0.37485 1.0123,-0.18113 0.27428,0.23437 0.30948,0.59398 0.33867,0.93168 0.0564,0.46791 -0.0347,0.92021 -0.15011,1.37079 -0.13558,0.42326 -0.30421,0.835 -0.43988,1.25802 -0.12718,0.42211 -0.14287,0.62742 0.1036,0.99293 0.20211,0.21319 0.49513,0.32792 0.76891,0.42443 0.33781,0.14344 0.6812,0.27179 1.02132,0.4093 0.33864,0.13125 0.66812,0.30167 0.97065,0.50317 0.24422,0.20154 0.33068,0.44998 0.18139,0.73193 -0.23562,0.33899 -0.61356,0.51597 -0.9766,0.68595 -0.38655,0.21331 -0.79986,0.34543 -1.23367,0.41571 -0.44559,0.0612 -0.89652,0.0651 -1.33038,-0.0612 -0.19061,-0.0582 -0.37972,-0.11611 -0.56661,-0.18536 0,0 0.1853,-0.0227 0.1853,-0.0227 v 0 c 0.18698,0.0681 0.37603,0.12628 0.56649,0.18398 0.34087,0.0953 0.60022,0.12397 0.96035,0.059 0.43368,-0.0677 0.8476,-0.19643 1.23342,-0.41052 0.36071,-0.16715 0.73702,-0.34111 0.97445,-0.67413 0.15049,-0.27287 0.0588,-0.51164 -0.18025,-0.70421 -0.30363,-0.19883 -0.63112,-0.36968 -0.96995,-0.49947 -0.34067,-0.13626 -0.68299,-0.26736 -1.02176,-0.40851 -0.27564,-0.10001 -0.57054,-0.21519 -0.76999,-0.43631 -0.23468,-0.35241 -0.23328,-0.60541 -0.10321,-1.00977 0.13527,-0.42282 0.30409,-0.83416 0.44027,-1.2569 0.11519,-0.44851 0.2063,-0.89864 0.14963,-1.36449 -0.0294,-0.33159 -0.0624,-0.68798 -0.33825,-0.91285 -0.0428,-0.0213 -0.0955,-0.0291 -0.12831,-0.0638 -0.0116,-0.0123 0.0596,-0.0235 0.0431,-0.0266 -0.21525,-0.0398 -0.41464,0.12949 -0.55461,0.26338 -0.31663,0.40553 -0.52336,0.86434 -0.6666,1.3578 0,0 -0.18703,-0.005 -0.18703,-0.005 z"
       inkscape:connector-curvature="0" />
    <path
       style="opacity:1;fill:#000000;fill-opacity:1;fill-rule:nonzero;stroke:#000000;stroke-width:1;stroke-linecap:round;stroke-linejoin:round;stroke-miterlimit:4;stroke-dasharray:none;stroke-dashoffset:0;stroke-opacity:1;paint-order:markers fill stroke"
       id="path4981"
       d="m 104.57978,228.29416 c 0.0658,0.64619 0.16242,1.28933 0.28047,1.928 0.11197,0.64484 0.25699,1.28309 0.35438,1.93043 0.0679,0.52487 0.0691,1.05285 0.15212,1.57558 0,0 -0.18641,0.003 -0.18641,0.003 v 0 c -0.0825,-0.52283 -0.0832,-1.05086 -0.15118,-1.57574 -0.0971,-0.64715 -0.24227,-1.28514 -0.35385,-1.92981 -0.11808,-0.63903 -0.21388,-1.28252 -0.28267,-1.92872 0,0 0.18714,-0.003 0.18714,-0.003 z"
       inkscape:connector-curvature="0" />
    <path
       style="opacity:1;fill:#000000;fill-opacity:1;fill-rule:nonzero;stroke:#000000;stroke-width:1;stroke-linecap:round;stroke-linejoin:round;stroke-miterlimit:4;stroke-dasharray:none;stroke-dashoffset:0;stroke-opacity:1;paint-order:markers fill stroke"
       id="path4993"
       d="m 119.87313,244.39941 c 0.28432,-0.45497 0.66514,-0.80387 1.14882,-1.03053 0.41338,-0.16405 0.86929,-0.17592 1.25968,0.0527 0.29722,0.24241 0.24178,0.56769 0.15965,0.8998 -0.10678,0.3832 -0.33552,0.69847 -0.56136,1.01827 -0.19166,0.30281 -0.51817,0.55374 -0.56308,0.92373 -1.4e-4,0.32575 0.28134,0.43125 0.5406,0.54199 0.3613,0.10628 0.72304,0.21437 1.09325,0.28649 0.38762,0.0562 0.76659,0.15961 1.14074,0.27336 0.32447,0.0769 0.63041,0.21586 0.89054,0.42461 0.23379,0.23442 0.19534,0.4846 0.105,0.77245 -0.16507,0.34207 -0.44362,0.61153 -0.75315,0.82379 -0.34722,0.22566 -0.71709,0.41278 -1.11309,0.53439 -0.36714,0.14305 -0.74862,0.226 -1.13875,0.27133 -0.28287,0.0348 -0.56838,0.0268 -0.83374,-0.0777 0,0 0.18597,-0.0225 0.18597,-0.0225 v 0 c 0.18725,0.0689 0.28551,0.0999 0.46295,0.0731 0.38994,-0.0436 0.77194,-0.12358 1.13836,-0.26796 0.39613,-0.11862 0.76538,-0.30451 1.11252,-0.52879 0.30878,-0.20767 0.58465,-0.47422 0.75179,-0.81133 0.0887,-0.28134 0.12904,-0.52329 -0.10446,-0.74989 -0.26179,-0.20459 -0.56578,-0.34111 -0.88914,-0.41771 -0.37404,-0.11354 -0.75331,-0.21438 -1.14054,-0.27149 -0.37029,-0.0738 -0.73338,-0.18046 -1.09406,-0.29041 -0.26692,-0.11667 -0.54387,-0.23132 -0.54221,-0.56595 0.045,-0.37468 0.36718,-0.62805 0.56413,-0.93296 0.22487,-0.31784 0.45385,-0.63048 0.5609,-1.01133 0.0807,-0.32484 0.13816,-0.64289 -0.15896,-0.87563 -0.0947,-0.0531 -0.20531,-0.0746 -0.29876,-0.12991 -0.0108,-0.006 0.0246,-0.0333 0.0123,-0.0354 -0.20457,-0.0347 -0.41214,0.0575 -0.60193,0.11417 -0.48381,0.22135 -0.86526,0.56607 -1.1472,1.02038 0,0 -0.1868,-0.011 -0.1868,-0.011 z"
       inkscape:connector-curvature="0" />
    <path
       style="opacity:1;fill:#000000;fill-opacity:1;fill-rule:nonzero;stroke:#000000;stroke-width:1;stroke-linecap:round;stroke-linejoin:round;stroke-miterlimit:4;stroke-dasharray:none;stroke-dashoffset:0;stroke-opacity:1;paint-order:markers fill stroke"
       id="path4995"
       d="m 119.42532,244.88645 c 0.0491,0.60082 0.17051,1.18853 0.3119,1.77327 0.1537,0.5546 0.32039,1.10595 0.4587,1.66467 0.10572,0.47162 0.21993,0.93973 0.28565,1.41906 0.0278,0.27135 0.007,0.1414 0.059,0.39029 0,0 -0.18684,0.004 -0.18684,0.004 v 0 c -0.0513,-0.25063 -0.0309,-0.12024 -0.0587,-0.39155 -0.0655,-0.47869 -0.17966,-0.94611 -0.28514,-1.4171 -0.13817,-0.55874 -0.30477,-1.1101 -0.45817,-1.66478 -0.14121,-0.58545 -0.26177,-1.17388 -0.31363,-1.77501 0,0 0.18714,-0.003 0.18714,-0.003 z"
       inkscape:connector-curvature="0" />
    <path
       style="opacity:1;fill:#000000;fill-opacity:1;fill-rule:nonzero;stroke:#000000;stroke-width:1;stroke-linecap:round;stroke-linejoin:round;stroke-miterlimit:4;stroke-dasharray:none;stroke-dashoffset:0;stroke-opacity:1;paint-order:markers fill stroke"
       id="path4997"
       d="m 125.0444,242.23676 c 0.62286,-0.0614 1.20752,0.0153 1.76835,0.28838 0.43023,0.24748 0.81268,0.55962 1.16473,0.90711 0.23886,0.25038 0.47895,0.50446 0.66484,0.79746 0,0 -0.18662,0.0106 -0.18662,0.0106 v 0 c -0.18658,-0.29094 -0.42542,-0.54449 -0.66403,-0.79331 -0.35154,-0.34564 -0.73352,-0.65663 -1.16362,-0.90107 -0.44852,-0.2148 -0.89803,-0.33992 -1.39839,-0.28253 0,0 -0.18526,-0.0267 -0.18526,-0.0267 z"
       inkscape:connector-curvature="0" />
    <path
       style="opacity:1;fill:#000000;fill-opacity:1;fill-rule:nonzero;stroke:#000000;stroke-width:1;stroke-linecap:round;stroke-linejoin:round;stroke-miterlimit:4;stroke-dasharray:none;stroke-dashoffset:0;stroke-opacity:1;paint-order:markers fill stroke"
       id="path4999"
       d="m 127.9072,241.67498 c -0.0284,0.53121 0.0526,1.05642 0.11332,1.5823 0.0208,0.43047 -0.0473,0.84933 -0.19009,1.25401 -0.12237,0.22366 -0.06,0.11426 -0.18685,0.32834 0,0 -0.18662,-0.01 -0.18662,-0.01 v 0 c 0.12657,-0.21266 0.0642,-0.10446 0.18693,-0.32469 0.14298,-0.4017 0.21064,-0.81784 0.19048,-1.24552 -0.0604,-0.52664 -0.14047,-1.05253 -0.11435,-1.58443 0,0 0.18718,0 0.18718,0 z"
       inkscape:connector-curvature="0" />
    <path
       style="opacity:1;fill:#000000;fill-opacity:1;fill-rule:nonzero;stroke:#000000;stroke-width:1;stroke-linecap:round;stroke-linejoin:round;stroke-miterlimit:4;stroke-dasharray:none;stroke-dashoffset:0;stroke-opacity:1;paint-order:markers fill stroke"
       id="path5001"
       d="m 125.18754,244.7764 c 0.4545,-0.45527 0.98791,-0.81606 1.53451,-1.15006 0.48776,-0.28646 0.99191,-0.54244 1.49132,-0.80737 0.27567,-0.13517 0.13942,-0.0662 0.40879,-0.20684 0,0 0.18528,0.0203 0.18528,0.0203 v 0 c -0.26934,0.14123 -0.13303,0.0723 -0.40898,0.20669 -0.49912,0.26549 -1.00414,0.51985 -1.492,0.80621 -0.546,0.33165 -1.07805,0.69126 -1.5324,1.14409 0,0 -0.18652,-0.013 -0.18652,-0.013 z"
       inkscape:connector-curvature="0" />
    <path
       style="opacity:1;fill:none;fill-opacity:1;fill-rule:nonzero;stroke:#000000;stroke-width:1;stroke-linecap:round;stroke-linejoin:round;stroke-miterlimit:4;stroke-dasharray:2.00000007, 4.00000014000000000;stroke-dashoffset:0;stroke-opacity:1;paint-order:markers fill stroke"
       id="path4832-2"
       d="m 138.11296,182.744 c -0.41129,0.0127 -0.82044,-0.0129 -1.22953,-0.0521 -0.39497,-0.0387 -0.79169,-0.0511 -1.18826,-0.0581 -0.43596,-0.0392 -0.87161,-0.0773 -1.30894,-0.0978 -0.46489,-0.0182 -0.93023,-0.0191 -1.3954,-0.0202 -0.49598,-6e-4 -0.99198,10e-6 -1.48796,1.6e-4 -0.58313,-0.005 -1.16501,-0.004 -1.74707,0.0324 -0.60369,0.0384 -1.20444,0.11385 -1.80455,0.18841 -0.61934,0.0842 -1.23365,0.19913 -1.84913,0.30691 -0.60564,0.0994 -1.20341,0.22748 -1.79082,0.40534 -0.55933,0.15623 -1.11131,0.33561 -1.65428,0.5414 -0.5559,0.19616 -1.07956,0.46806 -1.60609,0.73036 -0.49996,0.2323 -0.96987,0.52038 -1.44693,0.79501 -0.47401,0.28456 -0.93031,0.59696 -1.36746,0.93516 -0.48104,0.35397 -0.92708,0.75078 -1.36336,1.15765 -0.42947,0.43135 -0.83897,0.88181 -1.23869,1.34067 -0.40135,0.45253 -0.78693,0.91799 -1.15458,1.39815 -0.37531,0.5019 -0.71374,1.02955 -1.05733,1.55319 -0.35924,0.5511 -0.67909,1.1251 -0.99116,1.70379 -0.31806,0.59888 -0.61448,1.20671 -0.88588,1.82809 -0.27447,0.63788 -0.55184,1.27384 -0.80263,1.92155 -0.21789,0.64132 -0.42674,1.28683 -0.60571,1.94019 -0.19086,0.66761 -0.33469,1.34632 -0.473,2.02626 -0.13476,0.6779 -0.23275,1.36169 -0.32392,2.04657 -0.0698,0.68153 -0.14219,1.36296 -0.18921,2.04655 -0.0356,0.68122 -0.06,1.36405 -0.0366,2.046 0.0241,0.68369 0.0838,1.36465 0.13814,2.04631 0.0608,0.71652 0.16466,1.42785 0.26661,2.13931 0.11713,0.70628 0.21718,1.41535 0.35027,2.11888 0.1275,0.70469 0.27182,1.40671 0.43226,2.10467 0.17566,0.71284 0.38412,1.4171 0.59945,2.11881 0.21763,0.69933 0.44851,1.39442 0.67933,2.08948 0.21526,0.68657 0.47111,1.35924 0.76541,2.01565 0.29172,0.66334 0.60303,1.31751 0.91405,1.97192 0.32523,0.65989 0.66594,1.31238 1.02304,1.95559 0.34694,0.68276 0.74999,1.33278 1.15216,1.98348 0.37838,0.6343 0.80698,1.23616 1.25311,1.82406 0.43476,0.58744 0.89915,1.14965 1.3847,1.69531 0.49828,0.5541 1.03799,1.07073 1.58671,1.5745 0.56929,0.50638 1.17233,0.9721 1.77626,1.4359 0.60451,0.47509 1.26274,0.87321 1.90201,1.29837 0.66341,0.41576 1.36351,0.76689 2.0587,1.12518 0.70453,0.34749 1.42399,0.66634 2.15667,0.94987 0.73785,0.30836 1.48887,0.58249 2.2477,0.83426 0.76088,0.25118 1.52873,0.47766 2.30634,0.67045 0.76243,0.20363 1.53197,0.37608 2.30022,0.5556 0.75744,0.16871 1.52347,0.29139 2.28819,0.42089 0.74269,0.11505 1.49029,0.1929 2.23656,0.27993 0.71616,0.0904 1.43707,0.12612 2.15808,0.1463 0.65132,0.0328 1.3004,-0.001 1.95041,-0.0378 0.68574,-0.049 1.36635,-0.13206 2.04553,-0.23631 0.68191,-0.12183 1.36221,-0.25545 2.03258,-0.43069 0.66002,-0.19018 1.31613,-0.39686 1.95927,-0.63826 0.64512,-0.25217 1.27671,-0.53494 1.90742,-0.82053 0.6455,-0.2973 1.28105,-0.61399 1.90059,-0.96213 0.63003,-0.34617 1.22748,-0.74594 1.83571,-1.12799 0.6139,-0.38794 1.19279,-0.82632 1.76952,-1.26651 0.56942,-0.4477 1.1402,-0.89382 1.69661,-1.35768 0.56156,-0.4327 1.06443,-0.93146 1.56297,-1.43346 0.51123,-0.48638 0.97528,-1.0141 1.43007,-1.55239 0.45194,-0.53024 0.87317,-1.08358 1.27399,-1.65308 0.41714,-0.58946 0.7758,-1.21594 1.15629,-1.82867 0.39186,-0.62832 0.73978,-1.28168 1.08672,-1.93533 0.34027,-0.69801 0.65621,-1.40804 0.94902,-2.12725 0.27658,-0.72099 0.51226,-1.45666 0.74199,-2.19361 0.23999,-0.72492 0.40185,-1.47216 0.53468,-2.22313 0.1536,-0.74708 0.21902,-1.50623 0.25603,-2.26666 0.0286,-0.75766 0.0271,-1.516 0.0274,-2.27406 -0.0208,-0.78174 -0.075,-1.56166 -0.16034,-2.33887 -0.0825,-0.78892 -0.19124,-1.57426 -0.34729,-2.35201 -0.17076,-0.77368 -0.31756,-1.55248 -0.54138,-2.31307 -0.23822,-0.76996 -0.49882,-1.53239 -0.77089,-2.29091 -0.28157,-0.77723 -0.58324,-1.5473 -0.8849,-2.31699 -0.31946,-0.77159 -0.64566,-1.54044 -1.00292,-2.29538 -0.34444,-0.77015 -0.73775,-1.51503 -1.16456,-2.24222 -0.38784,-0.75626 -0.84753,-1.46987 -1.31595,-2.17775 -0.46189,-0.70857 -0.95861,-1.39365 -1.47063,-2.06664 -0.51597,-0.65666 -1.06889,-1.28334 -1.64563,-1.887 -0.56906,-0.60438 -1.18786,-1.15587 -1.80209,-1.71271 -0.61604,-0.5533 -1.26531,-1.06886 -1.92053,-1.57474 -0.64327,-0.48876 -1.29171,-0.97014 -1.95186,-1.43587 -0.65604,-0.44122 -1.34023,-0.83695 -2.03016,-1.22206 -0.70352,-0.37815 -1.42096,-0.72916 -2.1335,-1.08971 -0.66952,-0.34194 -1.36921,-0.61827 -2.06061,-0.91172 -0.66222,-0.28404 -1.35855,-0.47736 -2.04609,-0.68914 -0.66699,-0.19922 -1.35133,-0.32575 -2.03275,-0.46266 -0.63708,-0.11693 -1.28255,-0.1871 -1.9269,-0.25124 -0.57204,-0.0507 -1.15007,-0.0249 -1.72164,0.0224 -0.38261,0.0365 -0.19254,0.0187 -0.57019,0.0537 0,0 -0.10927,-0.0162 -0.10927,-0.0162 v 0 c 0.37775,-0.035 0.18765,-0.0171 0.5703,-0.0538 0.64385,-0.0543 1.29531,-0.0748 1.9397,-0.0221 0.64434,0.0645 1.28987,0.13452 1.92684,0.25234 0.6815,0.1368 1.36575,0.26412 2.03264,0.46378 0.68767,0.21181 1.38396,0.40558 2.04607,0.69028 0.69143,0.29352 1.39113,0.57001 2.06046,0.91247 0.71265,0.36043 1.42997,0.71177 2.1334,1.09018 0.69011,0.38525 1.37441,0.78134 2.03032,1.22319 0.66012,0.46587 1.3085,0.94741 1.95168,1.43637 0.65525,0.50619 1.30476,1.0218 1.92069,1.57558 0.61449,0.55684 1.23291,1.10905 1.80216,1.71349 0.57659,0.60418 1.12979,1.23102 1.64552,1.88823 0.51204,0.67325 1.00886,1.35851 1.47075,2.06735 0.46839,0.70811 0.92776,1.42211 1.31602,2.17833 0.42672,0.72757 0.81996,1.47283 1.16457,2.2432 0.35723,0.75521 0.68364,1.52423 1.00301,2.29611 0.30164,0.76982 0.60355,1.53991 0.88496,2.31731 0.27232,0.75867 0.53279,1.52138 0.77114,2.29154 0.22359,0.76098 0.37059,1.54004 0.54139,2.31403 0.15595,0.77809 0.26472,1.56374 0.34724,2.35297 0.0855,0.77761 0.13971,1.55794 0.16055,2.34008 -1.5e-4,0.75823 10e-4,1.51675 -0.0274,2.27458 -0.0369,0.76089 -0.10245,1.52052 -0.25607,2.26804 -0.13267,0.75147 -0.29467,1.49917 -0.53478,2.22451 -0.22978,0.73726 -0.46549,1.47319 -0.74191,2.19455 -0.29294,0.71953 -0.60918,1.42977 -0.94904,2.12836 -0.34697,0.65386 -0.69472,1.30755 -1.08665,1.93607 -0.38082,0.61272 -0.73891,1.23975 -1.1562,1.82931 -0.40067,0.5699 -0.8219,1.12352 -1.27386,1.65406 -0.45502,0.53841 -0.91877,1.0667 -1.4302,1.55326 -0.49871,0.50221 -1.00134,1.00168 -1.56317,1.43448 -0.55642,0.46406 -1.12735,0.91022 -1.69677,1.35814 -0.57684,0.4404 -1.15567,0.87921 -1.7696,1.2675 -0.60832,0.38211 -1.20572,0.78213 -1.83574,1.12853 -0.61941,0.34864 -1.255,0.66547 -1.90046,0.96311 -0.63093,0.28553 -1.26245,0.56883 -1.90767,0.82122 -0.64296,0.24218 -1.2993,0.44854 -1.95921,0.63941 -0.67041,0.17582 -1.35085,0.3094 -2.03281,0.43181 -0.67928,0.10428 -1.35981,0.18813 -2.04565,0.23736 -0.72204,0.0406 -1.44408,0.0684 -2.16734,0.0381 -0.721,-0.0205 -1.44184,-0.0567 -2.15797,-0.14728 -0.74632,-0.0867 -1.49387,-0.16521 -2.23654,-0.28052 -0.76477,-0.12937 -1.53077,-0.25256 -2.28817,-0.42156 -0.76828,-0.1794 -1.53769,-0.3524 -2.30018,-0.55576 -0.77763,-0.1931 -1.54543,-0.42013 -2.3064,-0.6713 -0.75883,-0.25208 -1.50976,-0.52668 -2.24781,-0.83478 -0.7327,-0.28407 -1.45238,-0.60299 -2.15689,-0.95102 -0.69545,-0.35834 -1.39558,-0.71002 -2.05894,-1.12637 -0.63946,-0.42515 -1.29757,-0.82375 -1.90208,-1.29912 -0.60402,-0.46403 -1.20715,-0.93001 -1.77634,-1.43685 -0.54873,-0.5042 -1.08877,-1.02092 -1.5869,-1.5756 -0.48575,-0.5458 -0.94977,-1.10866 -1.38485,-1.69615 -0.446,-0.58834 -0.87459,-1.19051 -1.25299,-1.82512 -0.40222,-0.65085 -0.8049,-1.30127 -1.15224,-1.98398 -0.35718,-0.64341 -0.698,-1.29609 -1.02309,-1.95628 -0.31115,-0.65447 -0.6225,-1.30873 -0.91428,-1.97216 -0.29416,-0.65683 -0.54991,-1.3299 -0.76535,-2.01675 -0.23081,-0.69513 -0.46165,-1.39032 -0.67919,-2.08974 -0.21533,-0.70199 -0.4241,-1.40646 -0.59971,-2.11959 -0.16038,-0.69811 -0.30466,-1.40027 -0.43211,-2.1051 -0.13307,-0.7037 -0.2335,-1.41288 -0.35042,-2.11937 -0.10191,-0.7117 -0.20563,-1.42327 -0.26677,-2.13999 -0.0543,-0.68183 -0.11404,-1.36295 -0.13815,-2.04681 -0.0233,-0.68232 10e-4,-1.36553 0.0367,-2.04713 0.047,-0.68382 0.11947,-1.36549 0.18925,-2.04725 0.0912,-0.68512 0.1892,-1.36916 0.32397,-2.04732 0.13834,-0.68017 0.28211,-1.35913 0.47296,-2.02699 0.17889,-0.65377 0.38777,-1.29967 0.6059,-1.9413 0.25069,-0.64788 0.5279,-1.28404 0.8024,-1.92203 0.27162,-0.62159 0.56769,-1.22988 0.88592,-1.829 0.312,-0.57902 0.6319,-1.15326 0.99102,-1.70476 0.34377,-0.52376 0.68203,-1.05178 1.05729,-1.55397 0.36762,-0.48042 0.7529,-0.94632 1.15453,-1.39886 0.39987,-0.45915 0.80952,-0.90988 1.23888,-1.3418 0.4362,-0.4072 0.88196,-0.80465 1.36318,-1.15868 0.43698,-0.33887 0.89344,-0.6515 1.36738,-0.93669 0.47732,-0.27458 0.94709,-0.56335 1.44729,-0.79563 0.52668,-0.26238 1.0502,-0.53499 1.60615,-0.73147 0.54298,-0.20622 1.09495,-0.3862 1.65453,-0.54212 0.58743,-0.17859 1.1852,-0.30737 1.79109,-0.40665 0.61558,-0.10754 1.22985,-0.22288 1.84921,-0.30745 0.60014,-0.0745 1.20086,-0.15043 1.80455,-0.18909 0.58201,-0.0367 1.16378,-0.0387 1.7469,-0.0331 0.56888,-3.2e-4 1.13777,-6e-4 1.70666,-3.2e-4 0.46528,10e-4 0.93073,0.002 1.39572,0.0207 0.43736,0.0208 0.873,0.0597 1.30914,0.0974 0.39665,0.007 0.79341,0.0199 1.18842,0.0589 0.33619,0.0322 0.66956,0.0691 1.00811,0.0509 0,0 0.11123,0.0176 0.11123,0.0176 z"
       inkscape:connector-curvature="0" />
    <path
       style="opacity:1;fill:#000000;fill-opacity:1;fill-rule:nonzero;stroke:#000000;stroke-width:1;stroke-linecap:round;stroke-linejoin:round;stroke-miterlimit:4;stroke-dasharray:none;stroke-dashoffset:0;stroke-opacity:1;paint-order:markers fill stroke"
       id="path5040"
       d="m 149.55177,198.42883 c 0.43723,0.28688 0.87234,0.57629 1.26092,0.92749 0.29563,0.26052 0.51865,0.58012 0.7433,0.89898 0.16002,0.2463 0.27158,0.51961 0.41464,0.77493 0.16993,0.28452 0.30323,0.58616 0.42869,0.89245 0.14515,0.34161 0.30458,0.67799 0.43805,1.02442 0.16717,0.27445 0.25303,0.57132 0.29943,0.88637 0,0 -0.18706,0.003 -0.18706,0.003 v 0 c -0.0467,-0.3138 -0.13449,-0.60813 -0.2993,-0.88223 -0.13407,-0.34604 -0.29224,-0.68276 -0.43784,-1.02403 -0.12572,-0.30552 -0.25937,-0.6063 -0.42913,-0.89022 -0.14109,-0.25576 -0.25462,-0.52724 -0.41426,-0.77299 -0.22272,-0.31875 -0.44797,-0.63517 -0.74226,-0.89484 -0.38883,-0.34954 -0.823,-0.6394 -1.26105,-0.92346 0,0 0.18587,-0.0196 0.18587,-0.0196 z"
       inkscape:connector-curvature="0" />
    <path
       style="opacity:1;fill:#000000;fill-opacity:1;fill-rule:nonzero;stroke:#000000;stroke-width:1;stroke-linecap:round;stroke-linejoin:round;stroke-miterlimit:4;stroke-dasharray:none;stroke-dashoffset:0;stroke-opacity:1;paint-order:markers fill stroke"
       id="path5042"
       d="m 149.41677,198.31614 c 0.0736,0.53135 0.20338,1.05229 0.28157,1.58334 0.0233,0.18127 0.0955,0.34798 0.12224,0.52801 0.003,0.0207 0.0262,0.0661 0.006,0.0626 -0.23551,-0.0408 -0.21219,-0.0616 -0.27096,-0.21627 -0.078,-0.2835 -0.17427,-0.56171 -0.28394,-0.83483 -0.12432,-0.34882 -0.25791,-0.69381 -0.34485,-1.05438 -0.07,-0.28325 -0.0663,-0.60249 0.26212,-0.68117 0.38592,-0.0467 0.74755,0.0478 1.11829,0.13072 0.37073,0.0808 0.7499,0.10203 1.12793,0.11534 0.25292,0.005 0.12647,0.003 0.37935,0.006 0,0 -0.18456,0.029 -0.18456,0.029 v 0 c -0.25292,-0.003 -0.12644,-0.001 -0.37942,-0.007 -0.37832,-0.014 -0.7577,-0.0366 -1.12847,-0.11874 -0.27487,-0.0618 -0.59145,-0.14424 -0.74707,-0.13031 -0.32995,0.0582 -0.32995,0.37533 -0.26142,0.65117 0.0872,0.35961 0.22063,0.70383 0.34508,1.05168 0.10927,0.27343 0.20575,0.55167 0.28442,0.83514 0.0485,0.12734 0.10311,0.15921 -0.10478,0.22467 -0.0194,0.006 -0.002,-0.0407 -0.005,-0.0608 -0.0259,-0.18017 -0.0981,-0.34728 -0.12085,-0.52858 -0.0779,-0.53119 -0.20693,-1.05226 -0.28258,-1.5834 0,0 0.18714,-0.003 0.18714,-0.003 z"
       inkscape:connector-curvature="0" />
    <path
       style="opacity:1;fill:#000000;fill-opacity:1;fill-rule:nonzero;stroke:#000000;stroke-width:1;stroke-linecap:round;stroke-linejoin:round;stroke-miterlimit:4;stroke-dasharray:none;stroke-dashoffset:0;stroke-opacity:1;paint-order:markers fill stroke"
       id="path5050"
       d="m 153.9299,195.86063 c 0.0236,0.47652 0.14837,0.93036 0.32201,1.37133 0.17864,0.40118 0.44899,0.74581 0.79784,1.0103 0.26734,0.23254 0.57307,0.39986 0.93134,0.41172 -0.0132,-0.004 -0.0521,-0.006 -0.0396,-0.0119 0.0955,-0.0463 0.20659,-0.0522 0.30424,-0.0938 0.14293,-0.0608 0.27479,-0.14662 0.39888,-0.23848 0.22786,-0.21002 0.3645,-0.44687 0.43904,-0.74499 0.0831,-0.33933 0.0311,-0.6451 -0.12518,-0.95111 -0.1497,-0.20872 -0.39305,-0.43241 -0.67548,-0.40173 -0.0209,0.002 0.0393,0.0151 0.0589,0.0227 -0.31214,0.13111 -0.44952,0.46306 -0.56293,0.76085 -0.14182,0.36759 -0.0774,0.74438 -0.0336,1.12292 0.0341,0.34068 0.15083,0.66395 0.20655,1.00179 0.0418,0.32015 0.14521,0.62601 0.19429,0.94581 0.006,0.0568 0.0125,0.11365 0.0187,0.17048 0,0 -0.18702,0.002 -0.18702,0.002 v 0 c -0.006,-0.0566 -0.0125,-0.11311 -0.0188,-0.16967 -0.0494,-0.31959 -0.15303,-0.62542 -0.19426,-0.94561 -0.0561,-0.33796 -0.17308,-0.66159 -0.20629,-1.00269 -0.0442,-0.38141 -0.10826,-0.76129 0.0336,-1.13184 0.11416,-0.30278 0.25335,-0.63722 0.56396,-0.78003 0.45466,-0.0351 0.71487,-0.008 0.98904,0.39618 0.15647,0.31051 0.20887,0.62097 0.12556,0.96445 -0.0746,0.30258 -0.21101,0.54254 -0.43971,0.75777 -0.30713,0.23332 -0.64212,0.37507 -1.03503,0.35524 -0.35888,-0.0213 -0.66363,-0.18904 -0.93202,-0.42308 -0.34838,-0.26918 -0.62024,-0.61611 -0.79849,-1.02041 -0.17368,-0.44333 -0.29737,-0.8999 -0.32276,-1.37831 0,0 0.18718,0 0.18718,0 z"
       inkscape:connector-curvature="0" />
    <path
       style="opacity:1;fill:none;fill-opacity:1;fill-rule:nonzero;stroke:#000000;stroke-width:1.00000003;stroke-linecap:round;stroke-linejoin:round;stroke-miterlimit:4;stroke-dasharray:1.00000003,2.00000006;stroke-dashoffset:0;stroke-opacity:1;paint-order:markers fill stroke"
       id="path5066"
       d="m 115.15922,224.56029 c 0.53807,-0.11886 1.06381,-0.2764 1.58384,-0.4573 0.49368,-0.19393 0.96235,-0.44291 1.44049,-0.6707 0.50449,-0.25888 1.00357,-0.52889 1.49967,-0.8036 0.54006,-0.24564 1.05277,-0.54377 1.58453,-0.80604 0.54922,-0.29993 1.11573,-0.56514 1.66926,-0.85676 0.56367,-0.27163 1.12164,-0.55469 1.67796,-0.84103 0.52867,-0.27183 1.0643,-0.53075 1.60231,-0.78378 0.51177,-0.21408 1.01841,-0.43861 1.52849,-0.65631 0.52806,-0.23085 1.04347,-0.48854 1.56587,-0.73141 0.51903,-0.25295 1.0462,-0.48734 1.57233,-0.72488 0.51159,-0.19581 1.01741,-0.40365 1.51883,-0.62387 0.46407,-0.21816 0.93686,-0.41829 1.40787,-0.62128 0.39793,-0.19213 0.81214,-0.33432 1.19071,-0.56449 0.38787,-0.2238 0.74786,-0.49051 1.13325,-0.71842 0.37249,-0.23801 0.75106,-0.46502 1.133,-0.6875 0.38174,-0.23408 0.75743,-0.47713 1.13387,-0.71967 0.29365,-0.20586 0.54646,-0.45851 0.81099,-0.69821 0.15729,-0.1675 0.32741,-0.32186 0.4829,-0.49106 0,0 0.18694,0.0138 0.18694,0.0138 v 0 c -0.1547,0.17073 -0.32679,0.32375 -0.48323,0.49287 -0.26646,0.23884 -0.51791,0.4943 -0.81211,0.70112 -0.37636,0.24297 -0.75254,0.48551 -1.13389,0.7205 -0.38168,0.2229 -0.76131,0.44812 -1.133,0.68743 -0.38625,0.2265 -0.74534,0.4944 -1.13326,0.7181 -0.37817,0.23273 -0.79227,0.37507 -1.19116,0.56713 -0.47141,0.20221 -0.94401,0.40316 -1.4082,0.6211 -0.50158,0.2198 -1.00646,0.42992 -1.51888,0.62365 -0.52582,0.23818 -1.05392,0.47063 -1.57244,0.72469 -0.52288,0.24204 -1.0378,0.50094 -1.56586,0.73201 -0.5105,0.21648 -1.01598,0.44361 -1.52858,0.6556 -0.53797,0.25287 -1.07362,0.5115 -1.60228,0.78311 -0.55614,0.28677 -1.11428,0.56967 -1.67824,0.84082 -0.55335,0.29207 -1.12011,0.55677 -1.66907,0.85729 -0.53179,0.26185 -1.0439,0.56064 -1.58429,0.80516 -0.49588,0.27546 -0.99572,0.54441 -1.49961,0.80478 -0.47883,0.2271 -0.94714,0.47731 -1.44057,0.67273 -0.51986,0.18078 -1.04466,0.34082 -1.5829,0.45849 0,0 -0.18554,-0.0241 -0.18554,-0.0241 z"
       inkscape:connector-curvature="0" />
    <path
       style="opacity:1;fill:none;fill-opacity:1;fill-rule:nonzero;stroke:#000000;stroke-width:1.00000003;stroke-linecap:round;stroke-linejoin:round;stroke-miterlimit:4;stroke-dasharray:1.00000003,2.00000006;stroke-dashoffset:0;stroke-opacity:1;paint-order:markers fill stroke"
       id="path5074"
       d="m 140.7991,212.47447 c -0.32612,0.4627 -0.62847,0.94263 -0.90341,1.43746 -0.24398,0.37688 -0.37916,0.80772 -0.58319,1.20439 -0.18183,0.35447 -0.31542,0.73151 -0.45859,1.10276 -0.19329,0.42127 -0.35872,0.85472 -0.56643,1.26916 -0.20822,0.41348 -0.41725,0.82691 -0.6349,1.23558 -0.18386,0.40321 -0.44012,0.7663 -0.63549,1.16319 -0.20827,0.44111 -0.45906,0.85868 -0.70575,1.2786 -0.23999,0.37537 -0.4323,0.77792 -0.66657,1.15649 -0.22708,0.38586 -0.46615,0.76577 -0.72163,1.13358 -0.23933,0.37475 -0.47454,0.75219 -0.70422,1.13292 -0.22571,0.37975 -0.45249,0.75852 -0.68541,1.13404 -0.19628,0.35462 -0.39441,0.70687 -0.61271,1.04849 -0.20936,0.32615 -0.3674,0.67761 -0.51433,1.03509 -0.19591,0.37252 -0.36512,0.75977 -0.57015,1.12758 -0.21101,0.36668 -0.39054,0.75192 -0.61121,1.11276 -0.18497,0.31848 -0.3427,0.65309 -0.49613,0.98786 -0.17043,0.3594 -0.3485,0.71307 -0.54553,1.05843 -0.14993,0.2904 -0.3069,0.58143 -0.48941,0.85297 -0.15514,0.27142 -0.32458,0.53528 -0.47586,0.80926 -0.17762,0.25701 -0.32121,0.534 -0.48671,0.79892 -0.15856,0.31185 -0.35832,0.60062 -0.51391,0.91355 -0.15502,0.2985 -0.29953,0.60342 -0.46715,0.89505 -0.0946,0.17295 -0.0427,0.0906 -0.15497,0.24737 0,0 -0.187,-0.0117 -0.187,-0.0117 v 0 c 0.11272,-0.1542 0.0607,-0.0726 0.15499,-0.24546 0.16913,-0.29028 0.31157,-0.59614 0.46726,-0.89383 0.1548,-0.31401 0.35637,-0.6023 0.51391,-0.91541 0.1657,-0.26453 0.30833,-0.54168 0.48673,-0.79787 0.15068,-0.27494 0.32156,-0.5385 0.47591,-0.81097 0.18388,-0.27 0.33923,-0.56201 0.48954,-0.85154 0.19681,-0.34495 0.37586,-0.69746 0.54559,-1.05676 0.15325,-0.33561 0.31151,-0.67076 0.49627,-0.99013 0.2222,-0.35963 0.39997,-0.7458 0.61141,-1.11197 0.20542,-0.36681 0.37319,-0.75398 0.56984,-1.12535 0.14687,-0.35859 0.30502,-0.71111 0.51436,-1.03845 0.21878,-0.34134 0.41747,-0.6932 0.6131,-1.04821 0.23313,-0.37532 0.45972,-0.75411 0.68538,-1.13379 0.22942,-0.38133 0.46566,-0.75858 0.7044,-1.13414 0.25578,-0.36722 0.49455,-0.74704 0.72149,-1.1326 0.23489,-0.37809 0.42646,-0.78092 0.66667,-1.15604 0.24626,-0.41968 0.49802,-0.83622 0.7057,-1.2772 0.19413,-0.39776 0.45162,-0.76032 0.63535,-1.16383 0.21804,-0.40835 0.42669,-0.82189 0.63522,-1.23511 0.2081,-0.41362 0.37211,-0.84698 0.56599,-1.26735 0.14319,-0.37188 0.27662,-0.74968 0.45837,-1.10483 0.20602,-0.39595 0.33904,-0.82823 0.58407,-1.20489 0.2748,-0.49519 0.57779,-0.97495 0.90232,-1.43904 0,0 0.18679,0.011 0.18679,0.011 z"
       inkscape:connector-curvature="0" />
    <circle
       style="opacity:1;fill:#e222a7;fill-opacity:1;fill-rule:nonzero;stroke:#e422a7;stroke-width:1;stroke-linecap:round;stroke-linejoin:round;stroke-miterlimit:4;stroke-dasharray:none;stroke-dashoffset:0;stroke-opacity:1;paint-order:markers fill stroke"
       id="path4896-6-7"
       cx="140.41815"
       cy="211.95535"
       r="1.4174107" />
  </g>
</svg>
