<?xml version="1.0" encoding="UTF-8" standalone="no"?>
<!-- Created with Inkscape (http://www.inkscape.org/) -->

<svg
   xmlns:dc="http://purl.org/dc/elements/1.1/"
   xmlns:cc="http://creativecommons.org/ns#"
   xmlns:rdf="http://www.w3.org/1999/02/22-rdf-syntax-ns#"
   xmlns:svg="http://www.w3.org/2000/svg"
   xmlns="http://www.w3.org/2000/svg"
   xmlns:sodipodi="http://sodipodi.sourceforge.net/DTD/sodipodi-0.dtd"
   xmlns:inkscape="http://www.inkscape.org/namespaces/inkscape"
   width="210mm"
   height="297mm"
   viewBox="0 0 210 297"
   version="1.1"
   id="svg8"
   inkscape:version="0.92.1 r15371"
   sodipodi:docname="plane.svg"
   inkscape:export-filename="D:\Document &amp; Files\Documents\MEGA\MEGAsync Uploads\Myspace\Study\workspace-7c1s\Аналит\git\GeomeSeminare2022\seminars\geome\seminar03\docs\plane.png"
   inkscape:export-xdpi="96"
   inkscape:export-ydpi="96">
  <defs
     id="defs2" />
  <sodipodi:namedview
     id="base"
     pagecolor="#ffffff"
     bordercolor="#666666"
     borderopacity="1.0"
     inkscape:pageopacity="0.0"
     inkscape:pageshadow="2"
     inkscape:zoom="0.98994949"
     inkscape:cx="533.84423"
     inkscape:cy="522.58414"
     inkscape:document-units="mm"
     inkscape:current-layer="layer1"
     showgrid="false"
     inkscape:window-width="1920"
     inkscape:window-height="1046"
     inkscape:window-x="-11"
     inkscape:window-y="-11"
     inkscape:window-maximized="1" />
  <metadata
     id="metadata5">
    <rdf:RDF>
      <cc:Work
         rdf:about="">
        <dc:format>image/svg+xml</dc:format>
        <dc:type
           rdf:resource="http://purl.org/dc/dcmitype/StillImage" />
        <dc:title />
      </cc:Work>
    </rdf:RDF>
  </metadata>
  <g
     inkscape:label="Layer 1"
     inkscape:groupmode="layer"
     id="layer1">
    <path
       style="opacity:1;fill:#000000;fill-opacity:1;fill-rule:nonzero;stroke:#000000;stroke-width:1;stroke-linecap:round;stroke-linejoin:round;stroke-miterlimit:4;stroke-dasharray:none;stroke-dashoffset:0;stroke-opacity:1;paint-order:markers stroke fill"
       id="path4499"
       d="m 53.892597,115.95311 c 1.693805,-0.022 4.681448,0.14313 -2.927887,-0.0128 -0.177797,-0.004 0.355492,-0.0252 0.530434,-0.0571 0.194247,-0.0355 0.382974,-0.0964 0.574461,-0.14457 1.371007,-0.55152 2.794011,-0.9243 4.23328,-1.24447 1.38075,-0.29131 2.792625,-0.35525 4.198827,-0.3912 1.487678,-0.049 2.964452,-0.26177 4.441647,-0.43395 1.480159,-0.19326 2.968869,-0.29386 4.459973,-0.34406 1.57851,-0.0797 3.154969,-0.18928 4.734404,-0.25095 1.310148,-0.0465 2.621119,-0.0523 3.931923,-0.055 3.030132,-0.003 6.060268,8e-4 9.090398,0.003 1.399722,2.6e-4 2.799445,-10e-4 4.199167,-0.002 -0.796097,-7.9e-4 3.184385,-5.3e-4 2.388291,-2.6e-4 -4.319503,2.4e-4 -5.342671,-0.002 -3.332443,0.001 1.42236,0.002 2.84472,7.9e-4 4.267081,-5.3e-4 2.653784,-0.0238 5.305586,0.0428 7.959207,0.0902 1.3805,0.38471 2.80213,0.52781 4.22679,0.62314 1.4711,0.0801 2.94468,0.0917 4.41759,0.093 0.16273,-2.6e-4 0.65094,-0.001 0.4882,-0.001 -1.4031,-7.9e-4 -2.80621,-2.6e-4 -4.20931,-10e-4 -0.13543,-8e-5 0.27087,-0.002 0.40629,-0.001 2.63483,0.0222 3.99182,-0.35138 6.02576,0.28755 0.6923,0.25282 1.33444,0.56462 2.06501,0.69919 0.77824,0.0394 1.2672,0.49696 1.87764,0.91695 0.55734,0.4313 0.2802,0.22515 0.83054,0.61967 0,0 -4.68785,0.4422 -4.68785,0.4422 v 0 c -0.5377,-0.39922 -0.26353,-0.19911 -0.82278,-0.59995 -0.63833,-0.41073 -1.14934,-0.6417 -1.90048,-0.74431 -0.69608,-0.19704 -1.33354,-0.54013 -2.03599,-0.71734 -0.14988,-0.0324 -0.29834,-0.0722 -0.44962,-0.0972 -0.1535,-0.0254 -0.6192,-0.0509 -0.46364,-0.0537 9.28834,-0.16828 1.06782,0.15742 -1.76229,-0.0176 -1.45599,-0.0141 -2.9127,-0.0367 -4.36599,-0.13348 -1.44669,-0.11784 -2.872241,-0.33555 -4.29204,-0.63544 8.27152,-0.0711 3.22362,-0.0224 1.313678,-0.0377 -1.424644,-10e-4 -2.84929,-0.003 -4.273934,-5.3e-4 -2.765359,0.004 -5.530728,0.001 -8.29609,0.001 -1.388223,-0.001 -2.776444,-0.003 -4.164668,-0.004 -0.777859,-2e-4 -1.555716,-5.3e-4 -2.333575,-5.3e-4 -0.251865,-2e-5 -1.007454,-8e-5 -0.755589,1e-5 3.33099,0.001 5.289047,0.001 3.206581,0.001 -1.313429,0.002 -2.627035,0.004 -3.940109,0.0381 -1.582772,0.0491 -3.163546,0.13727 -4.742937,0.25206 -1.485511,0.0386 -2.970945,0.11212 -4.445944,0.30237 -1.479982,0.19303 -2.966339,0.36642 -4.453986,0.4797 -1.396005,0.025 -2.798291,0.0602 -4.176463,0.30621 -1.430658,0.28916 -2.867745,0.60046 -4.206735,1.19934 -0.190556,0.0751 -0.374973,0.16822 -0.571664,0.22537 -0.172667,0.0502 -0.351234,0.0906 -0.53099,0.0951 -2.143508,0.0535 -4.286758,0.0403 -6.430285,0.0511 0,0 4.706117,-0.74537 4.706117,-0.74537 z"
       inkscape:connector-curvature="0" />
    <path
       style="opacity:1;fill:#000000;fill-opacity:1;fill-rule:nonzero;stroke:#000000;stroke-width:1;stroke-linecap:round;stroke-linejoin:round;stroke-miterlimit:4;stroke-dasharray:none;stroke-dashoffset:0;stroke-opacity:1;paint-order:markers stroke fill"
       id="path4501"
       d="m 53.225697,116.75059 c 0.391078,1.12213 0.955429,2.16667 1.650267,3.12738 0.475056,0.50196 0.905507,1.08632 1.476552,1.4899 0.594487,0.42015 1.335752,0.69093 2.001949,0.9666 1.509006,0.5863 3.081967,0.99852 4.670007,1.30391 0.987017,0.26354 2.018829,0.29263 3.004513,0.5578 0.517191,0.13914 0.951142,0.31343 1.451977,0.49942 1.375386,0.50492 2.820673,0.71597 4.273249,0.83217 1.895419,0.11282 6.853518,0.065 -1.377469,0.0623 2.630649,-10e-4 5.264076,-0.073 7.888393,0.13104 1.089409,0.0875 2.182572,0.10743 3.27492,0.12059 1.887059,0.0132 6.548419,0.007 -1.610532,0.007 1.082887,-0.003 2.165768,1.4e-4 3.248652,5.3e-4 1.09188,-2.7e-4 2.18376,-0.002 3.27564,-0.003 2.323195,-8e-4 -1.803035,5.3e-4 5.528117,-5.3e-4 0.26026,-5e-5 1.041037,5.3e-4 0.78078,-5.3e-4 -4.395637,-0.0152 -5.683009,0.11155 -3.831265,-0.0516 0.92075,-0.1616 1.842617,-0.30066 2.770675,-0.41498 1.085744,-0.16889 2.18219,-0.24509 3.274501,-0.35661 1.229831,-0.21607 2.399007,-0.67583 3.58534,-1.05312 0.878954,-0.31186 1.793117,-0.50043 2.661407,-0.84157 0.90199,-0.29375 1.60288,-0.89565 2.28765,-1.52716 0.66379,-0.75043 1.48469,-1.31186 2.31586,-1.85618 0.67427,-0.43536 1.19802,-1.03807 1.65364,-1.69033 0.31017,-0.50169 0.45797,-1.07914 0.78605,-1.57003 0.24294,-0.3222 0.51146,-0.60531 0.81293,-0.87153 0.0457,-0.0347 0.0913,-0.0694 0.13701,-0.1041 0,0 4.75559,0.39859 4.75559,0.39859 v 0 c -0.047,0.049 -0.0941,0.0981 -0.14115,0.14714 -0.32942,0.20255 -0.5844,0.45459 -0.80971,0.76827 -0.45128,0.37304 -0.50179,1.04187 -0.82333,1.51188 -0.46306,0.70945 -0.9981,1.3656 -1.66271,1.89156 -0.84752,0.48937 -1.69352,1.01322 -2.34827,1.75281 -0.67414,0.67026 -1.35603,1.3687 -2.26253,1.71216 -0.24691,0.0995 -0.48817,0.21342 -0.73877,0.30316 -0.64494,0.23095 -1.34009,0.29618 -1.97244,0.57134 -1.21015,0.3542 -2.38871,0.80613 -3.604676,1.14192 -1.082979,0.11325 -2.168694,0.19644 -3.247728,0.34352 -0.919713,0.14369 -1.856285,0.1852 -2.758782,0.43437 -2.110036,0.24515 -0.320428,0.0526 -5.511665,0.10056 -0.06815,5.3e-4 -0.704066,-2.7e-4 -0.774737,-5.3e-4 3.38463,-7.9e-4 5.765107,1.4e-4 3.797031,-5.3e-4 -1.104826,-0.002 -2.209655,-0.003 -3.314481,-0.003 -1.074076,10e-4 -2.148144,0.005 -3.222223,0.004 -2.560851,1.3e-4 -5.122433,0.0147 -7.68332,-0.0143 -1.090456,-0.0223 -2.181219,-0.0548 -3.268165,-0.15046 -1.689388,-0.12888 -4.408969,-0.0662 2.952922,-0.0994 0.172654,-7.9e-4 -0.34531,10e-4 -0.517964,0.002 -0.972854,0.003 -0.06165,5.3e-4 -1.038534,0.004 -2.622783,-5.3e-4 -5.270127,0.0904 -7.892421,-0.10957 -1.455192,-0.15766 -2.892398,-0.43082 -4.267245,-0.94918 -0.61713,-0.20817 -0.808087,-0.28992 -1.446135,-0.43515 -0.989674,-0.22528 -2.008923,-0.30764 -2.993938,-0.55884 -1.592334,-0.34319 -3.17051,-0.77127 -4.676971,-1.39887 -0.563626,-0.25107 -0.917805,-0.38617 -1.441169,-0.70464 -0.836039,-0.50873 -1.476373,-1.25387 -2.086719,-2.00646 -0.697698,-1.02921 -1.28452,-2.12611 -1.751668,-3.27972 0,0 4.761095,-0.13254 4.761095,-0.13254 z"
       inkscape:connector-curvature="0" />
    <path
       style="opacity:1;fill:#000000;fill-opacity:1;fill-rule:nonzero;stroke:#000000;stroke-width:1;stroke-linecap:round;stroke-linejoin:round;stroke-miterlimit:4;stroke-dasharray:none;stroke-dashoffset:0;stroke-opacity:1;paint-order:markers stroke fill"
       id="path4503"
       d="m 69.084777,118.70417 c 0.06968,0.10514 0.133992,0.21404 0.209049,0.31542 0.382694,0.51686 0.120185,0.0989 0.525193,0.62332 0.293783,0.38043 0.528638,0.80539 0.779148,1.21432 0.433437,0.84242 0.87395,1.6805 1.292722,2.53051 0.405889,0.70593 1.03102,1.23028 1.686923,1.69474 0.8613,0.67801 1.895766,0.96198 2.912041,1.31328 1.296635,0.47997 2.499029,1.19795 3.670974,1.92481 1.348722,0.77091 2.750995,1.4392 4.102357,2.20513 1.327859,0.89027 2.760562,1.62287 4.241763,2.22095 1.13991,0.45607 2.297007,0.84156 3.512357,1.0261 1.16002,0.0738 2.318665,0.15795 3.478588,0.24284 1.038754,0.0746 2.07972,0.10184 3.120787,0.11336 0.151791,7.9e-4 0.30358,0.002 0.455372,0.003 0.36908,0.002 0.516834,0.001 0.882485,0.002 0.143234,1e-5 0.572934,0.001 0.429704,-5e-5 -4.348738,-0.0349 -5.613534,0.21309 -3.798913,-0.10505 0.623173,-0.14596 1.213041,-0.41196 1.75994,-0.74103 0.333459,-0.27678 0.837636,-0.60202 0.856805,-1.08125 -0.198657,-0.42315 -0.571656,-0.63956 -0.942536,-0.89343 -0.434292,-0.31449 -0.802317,-0.70875 -1.222229,-1.03762 -0.0587,-0.0488 -0.113665,-0.10248 -0.176091,-0.14641 -0.380373,-0.26768 -0.560679,-0.50186 -0.881975,-0.82279 -0.589645,-0.26752 -1.05668,-0.74811 -1.478222,-1.22921 -0.444503,-0.52511 -0.958445,-0.99508 -1.482871,-1.43995 -0.658455,-0.45555 -1.316032,-0.89073 -2.013783,-1.28243 -0.57023,-0.19438 -1.082532,-0.51578 -1.646642,-0.72293 -0.567868,-0.14766 -1.128165,-0.29668 -1.711238,-0.37732 -0.442473,-0.0421 -0.747715,-0.35638 -1.122561,-0.54396 -0.176596,-0.0884 -0.364241,-0.15322 -0.541639,-0.23997 -0.491278,-0.24143 -0.945811,-0.48544 -1.492007,-0.5773 -0.531439,-0.15543 -1.03343,-0.33739 -1.474911,-0.6765 -0.514215,-0.25736 -0.979819,-0.57212 -1.42343,-0.93878 -0.582445,-0.34194 -1.161404,-0.69396 -1.79815,-0.92539 -0.343117,-0.21437 -0.762887,-0.24036 -1.116706,-0.42576 -0.16302,-0.0854 -0.311033,-0.1971 -0.470993,-0.28813 -0.405852,-0.21859 -0.803436,-0.4429 -1.235318,-0.61454 -0.482904,-0.15765 -0.993669,-0.17337 -1.496886,-0.18783 -0.265993,-0.005 -0.532047,-0.005 -0.798078,-0.005 -0.08916,10e-5 -0.356635,5.3e-4 -0.267478,5.3e-4 3.791831,10e-4 5.949931,-5.3e-4 4.161782,7.9e-4 -0.535019,0.001 -1.070038,0.003 -1.60506,0.003 -0.589598,5.3e-4 -1.179195,-1.4e-4 -1.768793,5e-5 -2.133007,1.3e-4 -4.266012,1.7e-4 -6.399016,5.3e-4 -0.536388,8e-5 -1.072775,8e-5 -1.609162,9e-5 -2.706002,0.0247 5.871366,-0.24534 3.634703,0.0375 0,0 -4.708131,-0.66686 -4.708131,-0.66686 v 0 c 1.889903,-0.38482 3.84778,-0.0913 5.770767,-0.11467 0.536008,1e-5 1.07202,1e-5 1.608029,1e-4 0.275666,6e-5 0.551333,1.3e-4 0.826997,2.3e-4 0.09498,3e-5 0.379926,1.1e-4 0.284946,1.1e-4 -4.214781,2.4e-4 -5.884757,-5.3e-4 -4.09829,2.5e-4 0.586869,1.5e-4 1.173739,-5.3e-4 1.760611,-8e-4 0.535022,-2.6e-4 1.070047,-10e-4 1.605066,-0.003 2.100702,-0.007 4.203925,-0.0595 6.303169,0.0297 0.523999,0.0453 1.046842,0.12142 1.524182,0.35725 0.42036,0.20619 0.827445,0.43097 1.236991,0.65778 0.500139,0.27335 1.057605,0.41161 1.569609,0.66249 0.630089,0.29955 1.243364,0.64207 1.810009,1.0502 0.457599,0.33424 0.955532,0.59349 1.431909,0.8985 0.457438,0.24516 0.9574,0.39235 1.459376,0.51844 0.521604,0.17212 0.989438,0.45401 1.491276,0.67412 0.539231,0.25319 1.033394,0.60156 1.646303,0.65258 0.58683,0.11727 1.174118,0.26137 1.730542,0.48368 0.549804,0.25636 1.106752,0.4988 1.642735,0.78227 0.70273,0.4071 1.349681,0.89873 2.007158,1.37394 0.533016,0.46273 1.044458,0.95037 1.499192,1.49163 0.461603,0.46395 0.989122,0.82482 1.502042,1.22299 0.31715,0.3519 0.6909,0.62426 1.05805,0.92106 0.37886,0.3561 0.78212,0.68549 1.198,0.99743 0.47184,0.35359 0.89523,0.75196 0.98568,1.36339 -0.0287,0.64452 -0.42286,1.09881 -0.89345,1.51172 -0.52962,0.43522 -1.17972,0.68652 -1.8135,0.93335 -2.372199,0.56326 -4.875462,0.13821 -7.301294,0.18781 -1.032553,-0.0199 -2.064287,-0.0643 -3.093985,-0.14589 -1.171218,-0.0901 -2.349275,-0.12411 -3.512566,-0.28714 -1.198708,-0.25125 -2.346777,-0.66993 -3.47826,-1.13535 -1.467519,-0.65112 -2.882204,-1.40918 -4.237096,-2.27186 -1.364802,-0.74726 -2.762885,-1.43324 -4.104687,-2.2224 -1.182629,-0.70279 -2.39032,-1.38874 -3.702526,-1.82104 -1.046306,-0.36135 -2.067396,-0.75195 -2.942447,-1.45415 -0.685758,-0.52978 -1.336937,-1.12284 -1.7178,-1.91752 -0.411641,-0.8368 -0.815993,-1.67873 -1.281975,-2.48693 -0.45045,-0.73134 -0.962125,-1.41463 -1.554265,-2.03889 0,0 4.749628,-0.3738 4.749628,-0.3738 z"
       inkscape:connector-curvature="0" />
    <path
       style="opacity:1;fill:#000000;fill-opacity:1;fill-rule:nonzero;stroke:#000000;stroke-width:1;stroke-linecap:round;stroke-linejoin:round;stroke-miterlimit:4;stroke-dasharray:none;stroke-dashoffset:0;stroke-opacity:1;paint-order:markers stroke fill"
       id="path4505"
       d="m 73.699263,117.0227 c 2.076019,0.0113 -2.498206,0.006 -3.747103,-0.0133 -0.177445,-0.003 0.354013,-0.0255 0.530966,-0.039 0.57337,-0.0437 1.146442,-0.0863 1.720329,-0.12288 1.062542,-0.0908 2.121249,-0.2176 3.185207,-0.29287 1.06117,0.0127 2.091047,-0.15519 3.124909,-0.37295 1.165331,-0.22338 2.335509,-0.4178 3.498684,-0.65307 0.95551,-0.20969 1.901742,-0.46454 2.810877,-0.82696 0.869469,-0.44217 1.736051,-0.87123 2.659722,-1.18875 0.841864,-0.28138 1.700056,-0.50918 2.553025,-0.75359 0.831326,-0.30062 1.644552,-0.65437 2.438466,-1.04317 0.584084,-0.24455 1.16219,-0.4976 1.731706,-0.77394 0.500203,-0.23871 1.025348,-0.41196 1.520245,-0.66124 0.657469,-0.41408 1.288886,-0.8633 1.99322,-1.1961 0.652055,-0.23117 1.289426,-0.47053 1.885217,-0.82517 0.494187,-0.27822 0.952707,-0.58755 1.392247,-0.94317 0.37363,-0.23984 0.66969,-0.51011 0.87472,-0.9054 0.19113,-0.48017 0.17413,-0.60551 -0.32406,-0.65512 -0.5521,-0.0354 -1.10621,-0.0314 -1.659239,-0.0285 8.102619,-0.0209 4.823069,-8e-4 3.004389,0.009 -0.53582,0.003 -1.07165,0.003 -1.60748,0.003 -2.099954,5.3e-4 -4.19991,1.9e-4 -6.299868,9e-5 -1.820683,5.3e-4 -5.040363,-0.003 3.097874,0.004 -0.586142,0.0942 -1.172959,0.17066 -1.76375,0.22989 -0.77121,0.1424 -1.488302,0.46428 -2.252929,0.63854 -0.882336,0.16722 -1.78321,0.14733 -2.673197,0.24498 -0.655394,0.0887 -1.270328,0.34734 -1.885545,0.5776 -0.606838,0.20494 -1.205426,0.43135 -1.830255,0.57577 -0.516382,0.0883 -1.039236,0.16292 -1.537716,0.32851 -0.49013,0.18422 -1.006475,0.27704 -1.512512,0.40659 -0.543026,0.13986 -1.062019,0.34637 -1.588841,0.53416 -0.49194,0.21538 -1.013159,0.34787 -1.526712,0.49998 -0.656863,0.17752 -1.280338,0.47358 -1.882035,0.78776 -0.541758,0.31596 -1.095203,0.60198 -1.603396,0.97127 -0.583067,0.52639 -1.241231,0.95249 -1.869022,1.42109 -0.798658,0.66966 -1.590937,1.34454 -2.411846,1.98729 -0.393285,0.33779 -0.814626,0.63739 -1.252821,0.91337 -0.397163,0.34455 -0.847852,0.5951 -1.308221,0.84482 -0.4074,0.21838 -0.829744,0.41659 -1.04987,0.83936 -0.03054,0.0681 -0.06107,0.13617 -0.09161,0.20426 0,0 -4.761945,-0.21204 -4.761945,-0.21204 v 0 c 0.03106,-0.0611 0.06213,-0.12217 0.09319,-0.18325 0.205927,-0.57181 0.558577,-0.88836 1.091758,-1.16944 0.452538,-0.21501 0.937776,-0.42715 1.285859,-0.79495 0.430927,-0.29337 0.899372,-0.52607 1.284697,-0.88311 0.856872,-0.59854 1.664007,-1.2603 2.429238,-1.97252 0.602438,-0.49547 1.272275,-0.88872 1.837264,-1.42701 0.500705,-0.4109 1.034825,-0.74738 1.616199,-1.03242 0.586888,-0.37613 1.241769,-0.63845 1.878529,-0.91759 0.513249,-0.11717 1.014219,-0.28356 1.51644,-0.43759 0.515536,-0.23913 1.06062,-0.4151 1.604884,-0.57532 0.489047,-0.17674 0.990639,-0.26932 1.494575,-0.38869 0.502746,-0.19006 1.018247,-0.35474 1.557827,-0.40172 0.635797,-0.0886 1.22927,-0.29166 1.834555,-0.49744 0.638855,-0.22118 1.254927,-0.50437 1.908895,-0.68111 0.888354,-0.12094 1.778108,-0.13024 2.670291,-0.21384 0.781254,-0.11945 1.506252,-0.38206 2.243092,-0.66064 0.578988,-0.11153 1.175383,-0.0935 1.749507,-0.24451 2.101842,-0.0254 4.203007,-0.0678 6.304841,-0.0599 0.146876,0 0.387456,10e-6 0.534346,2e-5 0.089,0 0.35615,0 0.26711,0 -7.72966,3e-5 -5.530764,0 -3.896239,2e-5 0.536043,-5e-5 1.072089,-6e-5 1.608132,-0.001 2.127707,-0.007 4.255237,-0.0427 6.383107,-0.008 0.57068,0.007 1.17411,-0.019 1.70603,0.21593 0.48427,0.35586 0.54894,0.86353 0.33754,1.41302 -0.19955,0.48614 -0.44096,0.86794 -0.8838,1.15913 -0.22932,0.13355 -0.37677,0.30151 -0.58134,0.46557 -0.24139,0.19358 -0.27185,0.16159 -0.54392,0.31138 -0.101,0.0556 -0.19699,0.11986 -0.29549,0.17979 -0.58522,0.40798 -1.19962,0.72656 -1.89171,0.91244 -0.72739,0.25318 -1.3893,0.66044 -1.9847,1.14672 -0.489873,0.28227 -0.988999,0.49303 -1.510371,0.70517 -0.59781,0.22275 -1.140429,0.57581 -1.758321,0.75512 -1.452197,0.64955 0.785316,-0.36248 -0.73003,0.36249 -0.566126,0.27084 -1.175943,0.4492 -1.730132,0.7481 -0.843793,0.26343 -1.702273,0.47506 -2.546061,0.73818 -0.92682,0.30624 -1.837761,0.62826 -2.671606,1.15048 -0.910813,0.41306 -1.858032,0.69606 -2.832823,0.92193 -1.168789,0.22848 -2.335847,0.46101 -3.512558,0.64649 -1.027229,0.21334 -2.036738,0.50648 -3.099525,0.4456 -1.071729,0.0549 -2.140053,0.15567 -3.204657,0.29101 -0.743826,0.0399 -1.498446,0.14885 -2.241679,0.16154 -1.723499,0.0294 -3.447344,0.0324 -5.171025,0.048 -0.144454,0.001 -0.288917,0.002 -0.433377,0.003 0,0 4.699619,-0.74435 4.699619,-0.74435 z"
       inkscape:connector-curvature="0" />
    <path
       style="opacity:1;fill:#000000;fill-opacity:1;fill-rule:nonzero;stroke:#000000;stroke-width:1;stroke-linecap:round;stroke-linejoin:round;stroke-miterlimit:4;stroke-dasharray:none;stroke-dashoffset:0;stroke-opacity:1;paint-order:markers stroke fill"
       id="path4507"
       d="m 126.66272,201.27403 c -0.0734,0.76459 0.0267,1.51891 0.10134,2.27745 0.0779,1.04654 0.10754,2.09603 0.12767,3.14504 0.0881,1.21778 0.16567,2.43605 0.21769,3.65595 0.0383,1.00053 0.0567,2.00163 0.072,3.00274 0.0823,0.65451 0.17197,1.30739 0.22618,1.96519 0.085,0.70726 0.30095,1.38705 0.42202,2.08767 0.11224,0.72538 0.13832,1.46082 0.1574,2.19354 0.008,0.63687 0.005,1.27389 0.006,1.91083 -0.0105,0.65878 -0.007,1.31159 0.0632,1.96696 0.0466,0.70249 0.25063,1.37145 0.33721,2.06803 0.0776,0.84266 0.10407,1.68924 0.12391,2.53494 -0.0331,0.31477 0.0764,0.66874 -0.021,0.9785 -0.14813,0.47092 -0.48835,0.89397 -0.72627,1.32186 -0.51151,0.95243 -0.16115,1.62796 0.31007,2.49747 0.45004,0.6695 1.00299,1.25677 1.53087,1.86362 0.35896,0.61918 0.87503,1.00557 1.46968,1.37004 0.55807,0.2842 1.14809,0.4634 1.76412,0.56708 0.60675,0.0798 1.19032,0.25289 1.8035,0.30472 0.74119,0.0447 1.48402,0.0444 2.22626,0.0468 1.64904,-7e-5 4.2357,0.002 -3.37948,-2.6e-4 -0.13124,-4e-5 0.26248,-5.3e-4 0.39372,-8e-4 0.3024,-5.2e-4 0.5161,-5.2e-4 0.81991,-5.2e-4 0.85705,-5.3e-4 1.71411,-8e-4 2.57117,-0.002 1.09384,0.002 2.18349,-0.11628 3.27503,-0.17823 1.2698,-0.0614 2.54131,-0.0749 3.81236,-0.0849 0.9147,-0.0329 1.8335,-0.0947 2.72384,-0.31462 1.37942,-0.4008 2.74705,-0.82686 4.14928,-1.14542 1.1539,-0.25105 2.33013,-0.35816 3.50779,-0.40658 2.63925,-0.0396 5.27911,-0.0197 7.91862,-0.0116 0.91143,0.002 1.82286,0.003 2.73429,0.003 1.87998,-0.003 5.65709,-0.002 -2.64025,-0.002 0.60313,-0.006 1.2067,0.028 1.80652,-0.0434 0.90678,-0.13268 1.82344,-0.16758 2.73816,-0.19744 0.72279,-0.0212 1.44589,-0.0271 2.16894,-0.0277 5.12058,2.1e-4 3.34219,-0.001 5.33519,5.3e-4 0,0 -4.68639,0.74182 -4.68639,0.74182 v 0 c -1.7726,-0.002 -0.42723,-2.7e-4 4.03613,-5.3e-4 -0.73236,-1.1e-4 -1.46477,-0.003 -2.19705,0.0106 -0.90069,0.019 -1.80422,0.037 -2.699,0.15034 -0.19989,0.0317 -0.39596,0.0887 -0.59738,0.10853 -0.40025,0.0394 -0.81128,-0.0288 -1.21253,5.3e-4 -2.23874,-9e-5 -4.47748,0.002 -6.71622,-0.003 -0.90553,-10e-4 -1.81105,-0.002 -2.71657,-0.007 -0.17302,-5.3e-4 -0.34603,-0.001 -0.51905,-0.002 -2.82238,-0.009 5.92066,-0.005 2.99363,-0.003 -0.18711,1e-4 -0.37423,2.6e-4 -0.56134,0.001 -0.17629,8e-4 -0.35257,0.003 -0.52885,0.004 -1.19187,0.0233 -2.38486,0.0922 -3.55877,0.31351 -0.80937,0.16343 -1.61293,0.34005 -2.40392,0.58011 -2.62132,0.79553 0.85491,-0.23793 -1.24102,0.44705 -0.13998,0.0457 -0.28625,0.0694 -0.42937,0.10405 -0.28368,0.0824 -0.56085,0.19135 -0.85072,0.24831 -0.62628,0.12305 -1.28708,0.0828 -1.91685,0.18233 -1.27381,0.004 -2.54799,0.01 -3.82095,0.0613 -1.08027,0.052 -2.15711,0.16025 -3.23544,0.20927 -0.85752,-5.3e-4 -1.71503,-2.7e-4 -2.57254,7.9e-4 -2.38848,0.004 -4.77698,0.007 -7.16545,-7.9e-4 -0.75411,-0.005 -1.51068,-0.008 -2.26055,-0.0976 -0.6054,-0.0969 -1.19872,-0.25354 -1.80508,-0.34623 -0.62616,-0.16039 -1.23884,-0.38371 -1.78285,-0.73954 -0.59355,-0.40541 -1.06088,-0.91559 -1.47387,-1.50316 -0.54243,-0.62553 -1.09258,-1.25206 -1.50595,-1.97403 -0.48842,-0.95265 -0.85288,-1.93233 -0.31449,-2.95502 0.0778,-0.15332 0.14723,-0.31117 0.23337,-0.45996 0.13624,-0.23533 0.3478,-0.42925 0.44693,-0.68246 0.11086,-0.28319 -0.0135,-0.63093 0.0338,-0.9213 -0.005,-0.8264 -0.0143,-1.65528 -0.11996,-2.47618 -0.10891,-0.69517 -0.30035,-1.37561 -0.33214,-2.08253 -0.0743,-0.67222 -0.11252,-1.34256 -0.0847,-2.01925 0.004,-0.63342 0.007,-1.26683 -0.002,-1.90023 -0.0102,-0.70799 -0.0285,-1.41848 -0.14651,-2.11834 -0.13564,-0.71409 -0.34895,-1.41151 -0.43515,-2.1348 -0.0513,-0.66958 -0.15598,-1.33212 -0.21041,-2.00113 0.008,-0.99528 0.009,-1.99082 -0.0241,-2.98572 -0.046,-1.22481 -0.13251,-2.44614 -0.24109,-3.66691 -0.0145,-1.03492 -0.0305,-2.07187 -0.14714,-3.10143 -0.0932,-0.77522 -0.14945,-1.54733 -0.14073,-2.32888 0,0 4.76479,0 4.76479,0 z"
       inkscape:connector-curvature="0" />
    <path
       style="opacity:1;fill:#000000;fill-opacity:1;fill-rule:nonzero;stroke:#000000;stroke-width:1;stroke-linecap:round;stroke-linejoin:round;stroke-miterlimit:4;stroke-dasharray:none;stroke-dashoffset:0;stroke-opacity:1;paint-order:markers stroke fill"
       id="path4509"
       d="m 121.14863,198.2672 c 1.57353,-0.22542 3.15666,-0.34584 4.74319,-0.42917 1.53113,-0.0943 3.05935,-0.20854 4.56738,-0.4962 1.18644,-0.2347 2.36016,-0.53205 3.55174,-0.73975 0.96293,-0.1617 1.94022,-0.18279 2.91408,-0.19619 2.63887,-0.0149 5.27783,-0.006 7.91674,-0.002 1.45562,0.004 2.91124,0.006 4.36686,0.009 2.17674,-0.0395 4.3497,0.0409 6.52384,0.13245 1.76535,0.0681 3.52981,0.088 5.29208,0.21496 1.0962,0.029 2.17244,0.23517 3.25984,0.35198 0.69641,0.0717 1.39642,0.0889 2.09593,0.0947 -0.8944,0.006 1.75528,2.3e-4 0.83188,3e-5 -7.72553,-0.002 -5.52914,0.002 -3.89554,-0.001 0.53267,-0.001 1.06534,-0.002 1.59801,-0.002 4.2882,-0.0517 3.97427,-0.85017 5.79219,0.72672 0.41767,0.2085 0.65562,0.56803 0.95708,0.89689 0.36385,0.46282 0.50547,1.03829 0.69591,1.58424 0.17949,0.53348 0.2293,1.09372 0.25786,1.65199 0.0193,0.53692 0.0156,1.07432 0.0144,1.61148 5.3e-4,0.71552 -0.0166,1.43087 -0.0276,2.14628 -0.0161,1.18487 -0.0152,2.37001 -0.005,3.55494 -0.0168,0.77423 0.0642,1.54628 0.11281,2.3182 0.0134,0.21321 0.004,0.42905 0.0391,0.6397 0.0319,0.18875 0.10792,0.36731 0.16187,0.55096 0.58929,1.24247 0.75225,2.59373 0.87739,3.946 0.0942,1.35686 0.13815,2.71673 0.15513,4.07659 0.0104,0.81803 0.0149,1.6362 0.011,2.4543 0.12759,1.11067 0.58125,2.15838 0.92603,3.21619 0.27974,0.84004 0.29735,1.72871 0.43405,2.59425 0.11774,0.58039 0.18953,1.16695 0.22701,1.75751 0.0501,0.55712 -0.0195,1.12023 0.0575,1.67396 0.10693,0.5096 0.1706,1.0249 0.20598,1.5439 0,0 -4.75764,0.0335 -4.75764,0.0335 v 0 c -0.0373,-0.51172 -0.11125,-1.01758 -0.20103,-1.52265 -0.0544,-0.56455 -0.0256,-1.13262 -0.0599,-1.69875 -0.0361,-0.57747 -0.10876,-1.15034 -0.20987,-1.72015 -0.10891,-0.84259 -0.12318,-1.70228 -0.39522,-2.51739 -0.34179,-1.11278 -0.80191,-2.20354 -0.96134,-3.36167 8e-4,-0.81701 0.0143,-1.63396 0.0226,-2.45091 0.005,-1.34495 0.0124,-2.69205 -0.10282,-4.03339 -0.13721,-1.3332 -0.37283,-2.63096 -0.91069,-3.86835 -0.0531,-0.21486 -0.1251,-0.42591 -0.15928,-0.64457 -0.0328,-0.20975 -0.0258,-0.42383 -0.0408,-0.63559 -0.0557,-0.78288 -0.15131,-1.56534 -0.12928,-2.35161 0.0101,-1.185 0.011,-2.37021 -0.004,-3.55517 -0.0102,-0.71567 -0.0267,-1.43133 -0.0215,-2.1471 0.001,-0.52851 0.005,-1.05727 -0.0147,-1.58551 -0.0276,-0.51383 -0.0762,-1.02862 -0.25115,-1.51686 -0.17575,-0.49992 -0.31835,-1.01786 -0.70347,-1.40473 -0.26767,-0.32757 -0.61387,-0.56031 -0.94847,-0.81536 -0.19763,-0.15257 -0.38645,-0.32261 -0.63648,-0.38448 -0.0586,-0.0145 -0.24047,-0.0186 -0.18011,-0.0188 1.49007,-0.007 2.98017,-5.3e-4 4.47025,-7.9e-4 -0.53259,1.3e-4 -1.06519,2.6e-4 -1.59778,0.001 -2.10905,0.004 -4.21832,0.0228 -6.32718,-0.007 -0.69241,-0.0191 -1.38444,-0.0581 -2.07193,-0.14621 -1.06189,-0.13775 -2.1211,-0.29449 -3.19277,-0.33888 -1.74129,-0.11619 -3.48646,-0.12577 -5.22937,-0.21199 -2.17991,-0.0934 -4.3595,-0.14468 -6.54169,-0.10994 -1.48609,0.003 -2.97218,0.004 -4.45828,0.004 -0.34176,-7.9e-4 -0.68352,-0.002 -1.02528,-0.003 -0.18668,-2.6e-4 -0.74674,-5.3e-4 -0.56005,-7.9e-4 7.48365,-0.002 4.60217,-0.002 2.96157,7.9e-4 -0.96817,0.007 -1.93966,0.008 -2.90189,0.12915 -1.2106,0.16797 -2.39397,0.47538 -3.59226,0.7114 -1.51944,0.3362 -3.05959,0.46606 -4.61129,0.56246 -1.54261,0.0683 -3.0928,0.13993 -4.61454,0.41896 0,0 -4.70069,-0.69129 -4.70069,-0.69129 z"
       inkscape:connector-curvature="0" />
    <path
       style="opacity:1;fill:#000000;fill-opacity:1;fill-rule:nonzero;stroke:#000000;stroke-width:1;stroke-linecap:round;stroke-linejoin:round;stroke-miterlimit:4;stroke-dasharray:none;stroke-dashoffset:0;stroke-opacity:1;paint-order:markers stroke fill"
       id="path4511"
       d="m 137.61748,207.98774 c 0.0572,0.96583 0.1456,1.92912 0.1921,2.89571 0.0125,0.95389 0.0889,1.90078 0.17049,2.8506 0.0799,0.87417 0.12528,1.75117 0.15387,2.62839 0.0169,0.58465 0.0179,1.16958 0.0184,1.75442 -1.4e-4,0.53232 -8e-4,1.06465 -0.001,1.59697 0.10775,0.50215 0.17239,1.01044 0.21674,1.52184 0.036,0.46721 0.0435,0.93587 0.0491,1.40421 0,0 -4.75472,0.005 -4.75472,0.005 v 0 c -0.005,-0.45602 -0.0108,-0.91243 -0.0468,-1.3673 -0.0483,-0.52623 -0.14963,-1.04166 -0.22043,-1.56435 2.3e-4,-0.53236 5.3e-4,-1.06473 0.002,-1.59709 0.001,-0.58103 0.004,-1.16208 -0.001,-1.74311 -0.0117,-0.86669 -0.0399,-1.73336 -0.12038,-2.5968 -0.0911,-0.95561 -0.17815,-1.90874 -0.17068,-2.87015 -0.0484,-0.97561 -0.12043,-1.94955 -0.24556,-2.91869 0,0 4.7582,0 4.7582,0 z"
       inkscape:connector-curvature="0" />
    <path
       style="opacity:1;fill:#000000;fill-opacity:1;fill-rule:nonzero;stroke:#000000;stroke-width:1;stroke-linecap:round;stroke-linejoin:round;stroke-miterlimit:4;stroke-dasharray:none;stroke-dashoffset:0;stroke-opacity:1;paint-order:markers stroke fill"
       id="path4513"
       d="m 133.89977,206.82463 c 0.72642,-0.30844 1.48378,-0.5255 2.25784,-0.67257 0.60932,-0.10796 1.22829,-0.12369 1.84532,-0.13147 2.1564,-0.0142 4.31284,-0.002 6.46925,0.002 0.54047,8e-4 1.08093,0.001 1.6214,0.001 -0.86975,6e-5 1.67089,0 0.80089,0 -7.76398,-2e-5 -5.50316,-0.002 -3.86104,5.3e-4 0.67247,0.0376 1.33544,-0.0425 1.99993,-0.13138 0.62031,-0.0896 1.24672,-0.11279 1.87239,-0.1282 2.13309,-0.0275 4.26655,-0.0121 6.39978,-0.009 0.5982,0.0341 1.212,-0.0701 1.79921,0.0617 0.50029,0.36875 0.60439,0.96142 0.66842,1.54158 0.0408,0.55102 0.0304,1.10415 0.0263,1.6562 -0.006,0.54717 -0.004,1.0944 -0.0113,1.64156 -0.009,0.72106 -0.0109,1.44205 -0.007,2.16314 0.004,0.60373 0.007,1.20745 0.009,1.81119 0.004,0.57669 -0.003,1.15334 -0.004,1.73003 -0.0143,0.72517 -0.006,1.45055 -0.002,2.17579 0.007,0.61135 5.3e-4,1.22268 10e-4,1.83404 -0.0485,0.54825 0.0405,1.07293 0.12577,1.60955 0.0892,0.56697 0.11868,1.1404 0.13658,1.71329 0.0129,0.54347 0.0117,1.08715 0.0115,1.63074 -0.2242,2.27787 -3.83371,1.44006 -5.54091,0.8984 -0.51752,-0.17631 -1.0211,-0.3495 -1.5686,-0.41487 -0.40633,-0.0724 -0.8261,-0.0185 -1.23335,-0.0642 -0.20672,-0.0233 -0.40852,-0.0791 -0.61376,-0.11302 -0.68226,-0.0945 -1.37033,-0.12967 -2.0582,-0.14818 -0.63425,-0.0111 -1.26862,-0.009 -1.90294,-0.008 7.70016,-0.13644 5.36927,0.0171 3.72692,2.4e-4 -1.3214,-0.0136 -3.87878,0.38566 -5.60466,-0.21183 -0.5248,-0.28307 -1.09388,-0.46607 -1.656,-0.65769 -0.53852,-0.11895 -1.0537,-0.30371 -1.59944,-0.3934 -0.36009,-0.0448 -0.7149,-0.0424 -1.0674,-0.12988 0,0 4.70839,-0.66454 4.70839,-0.66454 v 0 c 0.35841,0.0325 0.71803,0.0635 1.06933,0.14589 0.54028,0.13295 1.07698,0.28745 1.60553,0.46025 0.54918,0.20588 1.09395,0.42465 1.647,0.6167 0.19561,0.0341 0.78825,0.0824 0.58969,0.0844 -7.70549,0.0797 -5.38101,0.008 -3.73515,0.008 1.66919,-2.6e-4 3.33837,-5.3e-4 5.00756,-7.9e-4 0.63415,0.001 1.26852,0.002 1.90228,0.027 0.69059,0.0356 1.3801,0.0936 2.06379,0.20013 0.6154,0.0833 1.24047,0.0682 1.85207,0.18707 0.53411,0.11977 1.04125,0.33289 1.58489,0.40814 1.77879,0.011 -0.77185,-0.007 -4.3165,0.0871 -0.0904,0.002 0.1973,0.0729 0.27044,0.0197 0.0913,-0.0663 0.0986,-0.25095 0.11333,-0.33641 5.3e-4,-0.53865 0.002,-1.07738 -0.01,-1.61594 -0.0164,-0.55095 -0.0426,-1.1031 -0.13823,-1.64703 -0.10349,-0.56138 -0.15112,-1.11818 -0.11629,-1.69032 5.3e-4,-0.61136 -0.006,-1.22269 0.001,-1.83404 0.004,-0.72523 0.0128,-1.45062 -0.002,-2.17578 -1.4e-4,-0.57669 -0.007,-1.15333 -0.004,-1.73003 10e-4,-0.60374 0.004,-1.20747 0.008,-1.8112 0.004,-0.72142 0.001,-1.44273 -0.005,-2.16413 -0.005,-0.54807 0.001,-1.09614 0.005,-1.6442 0.004,-0.53181 0.0164,-1.06503 -0.0273,-1.59562 -0.0537,-0.40724 -0.11666,-0.89084 -0.61943,-0.91208 -0.5961,-0.009 -1.19234,-0.003 -1.78849,-0.005 -1.77385,-0.002 0.10672,1.7e-4 4.14847,-5.3e-4 0.89404,-1.3e-4 -2.081,-0.004 -1.16221,0.001 -0.62273,0.006 -1.24691,0.0103 -1.86674,0.0773 -0.66785,0.0784 -1.32872,0.22993 -2.0044,0.19065 -2.10932,0.004 -4.21865,5.3e-4 -6.32798,5.3e-4 -0.53971,-2.6e-4 -1.07943,-7.9e-4 -1.61914,-0.002 -0.28448,-0.001 -0.56896,-0.002 -0.85344,-0.003 -0.0996,-2.7e-4 -0.39835,-8e-4 -0.29876,-8e-4 4.22391,-0.001 5.8594,0.004 4.0656,-0.001 -0.61421,-7e-5 -1.23005,-0.005 -1.84174,0.0596 -0.76022,0.0969 -1.51172,0.25941 -2.22061,0.55882 0,0 -4.72841,-0.5538 -4.72841,-0.5538 z"
       inkscape:connector-curvature="0" />
    <path
       style="opacity:1;fill:#000000;fill-opacity:1;fill-rule:nonzero;stroke:#000000;stroke-width:1;stroke-linecap:round;stroke-linejoin:round;stroke-miterlimit:4;stroke-dasharray:none;stroke-dashoffset:0;stroke-opacity:1;paint-order:markers stroke fill"
       id="path4515"
       d="m 145.37159,207.68849 c -0.0646,0.74227 0.007,1.47453 0.10781,2.20875 0.0884,0.59325 0.12606,1.19164 0.14553,1.79054 0.009,0.65531 0.002,1.31079 0.004,1.96621 0.003,0.5923 0.004,1.18462 0.005,1.77693 5.3e-4,0.53663 5.3e-4,1.07327 5.3e-4,1.60991 -2.6e-4,0.58745 -0.005,1.17484 -0.004,1.7623 0.002,0.5687 0.003,1.1374 0.004,1.7061 0.004,0.53022 0.0237,1.05591 -0.0719,1.57909 -0.015,0.0743 -0.0299,0.14868 -0.0449,0.22302 0,0 -4.76327,-0.0951 -4.76327,-0.0951 v 0 c 0.015,-0.0737 0.03,-0.14735 0.045,-0.22103 0.10593,-0.49141 0.0845,-0.98457 0.0803,-1.48595 7.9e-4,-0.5687 0.002,-1.1374 0.004,-1.7061 0.001,-0.58747 -0.004,-1.17486 -0.004,-1.76231 4e-5,-0.53672 6e-5,-1.07344 10e-4,-1.61015 0.002,-0.59231 0.004,-1.18461 0.008,-1.77692 0.003,-0.65051 5.3e-4,-1.30092 -0.0173,-1.95124 -0.0171,-0.58313 -0.0511,-1.16574 -0.12927,-1.74432 -0.0922,-0.75541 -0.14021,-1.5082 -0.13426,-2.2697 0,0 4.76478,0 4.76478,0 z"
       inkscape:connector-curvature="0" />
    <path
       style="opacity:1;fill:#000000;fill-opacity:1;fill-rule:nonzero;stroke:#000000;stroke-width:1;stroke-linecap:round;stroke-linejoin:round;stroke-miterlimit:4;stroke-dasharray:none;stroke-dashoffset:0;stroke-opacity:1;paint-order:markers stroke fill"
       id="path4523"
       d="m 139.41885,215.37737 c 0.90005,0.006 1.80013,0.004 2.70019,0.004 0.77229,-5.3e-4 1.54458,-0.002 2.31687,-0.003 0.55477,-5.3e-4 1.10953,-8e-4 1.66429,-8e-4 0.58442,2e-5 1.16883,8e-4 1.75324,5.3e-4 0.57068,0.0249 1.15165,-0.0614 1.71246,0.0589 0.52786,0.12351 1.06762,0.16858 1.60763,0.19382 0.53311,0.0185 1.06664,0.0166 1.59999,0.0163 0,0 -4.69748,0.74281 -4.69748,0.74281 v 0 c -0.53513,-0.003 -1.07086,-0.006 -1.60471,-0.0474 -0.54015,-0.049 -1.07296,-0.14126 -1.60963,-0.21664 -0.56579,-0.01 -1.13171,-0.003 -1.69756,-0.005 -0.58712,-1.5e-4 -1.17424,5.3e-4 -1.76135,5.3e-4 -0.55176,-5e-5 -1.10351,-1.4e-4 -1.65525,-8e-4 -0.76026,-7.9e-4 -1.52052,-0.002 -2.28077,-0.003 -0.91801,2.6e-4 -1.83604,-0.002 -2.75404,0.004 0,0 4.70612,-0.74538 4.70612,-0.74538 z"
       inkscape:connector-curvature="0" />
    <path
       style="opacity:1;fill:#000000;fill-opacity:1;fill-rule:nonzero;stroke:#000000;stroke-width:1;stroke-linecap:round;stroke-linejoin:round;stroke-miterlimit:4;stroke-dasharray:none;stroke-dashoffset:0;stroke-opacity:1;paint-order:markers stroke fill"
       id="path4525"
       d="m 21.877695,239.69993 c 1.469006,0.0104 2.938069,0.01 4.407103,0.009 1.70542,2e-4 3.410836,2.7e-4 5.116256,0.001 1.663568,10e-4 3.327135,-0.002 4.990706,-0.002 1.60579,0.0228 3.213539,-0.0442 4.817567,0.042 1.530136,0.0132 2.999055,0.45624 4.495136,0.71228 1.488247,0.179 2.976319,0.36409 4.470977,0.48349 1.417619,0.0912 2.816841,0.34322 4.23114,0.4782 1.61299,0.13377 3.232586,0.14368 4.85,0.15715 0.295262,0.001 0.590518,0.002 0.88578,0.003 0.292124,7.9e-4 0.58425,7.9e-4 0.876374,0.001 3.638444,0.002 -5.587902,0.003 -2.11509,-0.002 0.247759,-2.6e-4 0.495515,-7.9e-4 0.743273,-10e-4 1.514586,-0.002 3.029172,-0.002 4.543761,-0.002 1.582843,0.0562 3.151677,-0.17147 4.721461,-0.33288 1.314063,-0.13487 2.615808,-0.35733 3.911211,-0.61182 0.9188,-0.1839 1.844018,-0.34812 2.750108,-0.58892 0.995645,-0.35012 2.05287,-0.43808 3.090886,-0.58893 0.983578,-0.13066 1.970701,-0.22268 2.932081,-0.47618 0.735838,-0.22494 1.461905,-0.48154 2.206574,-0.67625 0.68874,-0.15058 1.393574,-0.20833 2.091987,-0.30046 1.254231,-0.20193 2.519741,-0.30083 3.787164,-0.36944 1.092017,-0.0717 2.188532,-0.0273 3.279528,-0.10579 1.133124,-0.16108 2.260645,-0.34765 3.380203,-0.58531 1.00824,-0.25449 2.020091,-0.48218 3.051429,-0.61808 0.76694,-0.0972 1.54053,-0.0997 2.31217,-0.10176 1.72227,1.5e-4 3.44453,-1.2e-4 5.1668,5.3e-4 0.17913,6e-5 0.35826,0.001 0.53739,0.001 0.18343,5.3e-4 0.7337,0.004 0.55029,0.001 -1.36296,-0.021 -2.72787,0.018 -4.08899,-0.0558 -0.18939,-0.0103 0.37009,-0.084 0.5525,-0.13604 0.17394,-0.0496 0.34385,-0.11232 0.51578,-0.16847 0.79516,-0.28805 1.60902,-0.51194 2.44523,-0.63762 2.18503,-0.18372 4.42309,-0.0784 6.59394,-0.0785 0.56649,-0.0565 1.10073,0.0708 1.65268,0.16592 0.53898,0.15736 1.06148,0.36425 1.60467,0.5063 0.50432,0.23891 1.04816,0.33126 1.5987,0.37947 0.53235,0.0339 1.06616,0.0295 1.59932,0.0285 1.75375,-0.005 0.19151,-2.6e-4 -4.16294,-7.9e-4 -0.0891,-1e-5 0.17817,2.6e-4 0.26725,-5.3e-4 0.27294,-0.003 0.52754,-0.0386 0.79636,-0.0837 0.51762,-0.10002 1.04269,-0.14252 1.56828,-0.17046 0.48988,-0.096 0.95657,-0.31771 1.39342,-0.55604 0.0729,-0.0416 0.14575,-0.0833 0.21862,-0.1249 0,0 4.73282,0.46758 4.73282,0.46758 v 0 c -0.0755,0.0568 -0.15094,0.11368 -0.22642,0.17053 -0.46733,0.2422 -0.91943,0.49824 -1.40335,0.70751 -0.50957,0.14464 -1.05542,0.0564 -1.57501,0.17048 -0.26631,0.0458 -0.53998,0.13134 -0.80726,0.16184 -1.81019,0.20657 -3.66857,-0.0133 -5.49933,7.9e-4 -0.53676,-0.005 -1.07565,-0.0102 -1.60788,-0.0881 -0.55238,-0.0962 -1.07835,-0.26928 -1.60699,-0.45318 -0.52586,-0.17197 -1.05295,-0.35184 -1.59848,-0.45058 -0.54331,-0.0911 -1.08616,-0.10136 -1.63679,-0.088 8.21839,-0.002 4.64702,-0.0362 2.79191,0.0232 -0.84621,0.0717 -1.67596,0.24484 -2.47716,0.53163 -2.45622,0.88101 -1.63713,0.40545 -6.2805,0.51308 -0.18416,0.004 -0.36842,-5.3e-4 -0.55263,-7.9e-4 -0.18077,-1.4e-4 -0.72306,-1.2e-4 -0.5423,-1.2e-4 1.3787,-1e-5 2.7574,6e-5 4.1361,9e-5 -0.76524,0.001 -1.53185,-0.008 -2.2954,0.052 -1.04268,0.0972 -2.07315,0.27687 -3.08078,0.56748 -1.118463,0.23839 -2.235703,0.45842 -3.367239,0.62603 -1.091139,0.20122 -2.214684,0.0472 -3.319039,0.1375 -1.246979,0.0529 -2.501622,0.10962 -3.730054,0.34418 -0.691734,0.0745 -1.374997,0.19409 -2.068261,0.25357 -0.760018,0.14859 -1.487659,0.40631 -2.224288,0.64097 -0.962263,0.32772 -1.96374,0.44057 -2.97188,0.54269 -0.39498,0.0556 -0.788291,0.12275 -1.183547,0.17632 -0.621858,0.0843 -1.274511,0.0893 -1.852364,0.36168 -0.923425,0.25577 -1.862936,0.44392 -2.805789,0.61613 -1.308955,0.25167 -2.616801,0.50897 -3.943686,0.65166 -1.575824,0.14681 -3.146589,0.41351 -4.733454,0.37693 -1.513047,5.3e-4 -3.026093,0.001 -4.539136,0.003 -3.187327,2.5e-4 -6.374694,0.009 -9.561981,-0.009 -1.628698,-0.0148 -3.260013,-0.0369 -4.882319,-0.19573 -1.417188,-0.15314 -2.825877,-0.3831 -4.249894,-0.4685 -1.488826,-0.14026 -2.975893,-0.31352 -4.455567,-0.52867 -1.485781,-0.27983 -2.960696,-0.65401 -4.484415,-0.6496 -1.60677,-0.0462 -3.214569,-0.0147 -4.821838,-0.0219 -1.653157,-7.9e-4 -3.306313,-0.004 -4.959469,-0.002 -1.710176,8e-4 -3.420352,0.001 -5.130529,0.001 -1.505335,-0.001 -3.010695,-0.002 -4.516004,0.009 0,0 4.693118,-0.74332 4.693118,-0.74332 z"
       inkscape:connector-curvature="0" />
    <path
       style="opacity:1;fill:#000000;fill-opacity:1;fill-rule:nonzero;stroke:#000000;stroke-width:1;stroke-linecap:round;stroke-linejoin:round;stroke-miterlimit:4;stroke-dasharray:none;stroke-dashoffset:0;stroke-opacity:1;paint-order:markers stroke fill"
       id="path4527"
       d="m 177.13681,233.34619 c 1.00256,0.11967 2.01171,0.16008 3.02021,0.18845 0.89346,0.0215 1.78722,0.0224 2.68088,0.0214 1.78696,-0.004 0.31021,-5.3e-4 -4.01952,-5.3e-4 -0.11125,0 0.22249,-1.3e-4 0.33374,-2.4e-4 0.31218,-2.7e-4 0.62437,-8e-4 0.93655,-0.001 0.58405,-0.004 1.16823,0.006 1.75217,-0.006 0.51792,-0.0553 1.02623,-0.16181 1.52853,-0.29628 0.65561,-0.16381 1.33475,-0.19211 2.00709,-0.21853 2.2503,-0.009 4.52371,-0.21269 6.75739,0.0883 0.67053,0.12821 1.36608,0.0688 2.03074,0.21466 0.78204,0.33124 1.61712,0.47921 2.43349,0.69383 0.8642,0.20844 1.71325,0.47346 2.58051,0.67078 0.68382,0.0718 1.32607,0.27626 1.97146,0.49768 0.63371,0.0843 1.21654,0.28367 1.79694,0.53951 0.35206,0.32006 0.76418,0.41862 1.22242,0.46537 2.5996,0.087 -5.93356,0.17426 -3.71052,-0.0191 0,0 4.70847,0.67644 4.70847,0.67644 v 0 c -1.8702,0.3781 -3.83675,0.31549 -5.71533,5.3e-4 -0.4476,-0.12097 -0.82459,-0.35126 -1.22973,-0.56736 -0.57744,-0.23319 -1.19345,-0.31586 -1.7847,-0.50502 -0.63403,-0.20919 -1.28986,-0.31431 -1.93993,-0.46066 -0.85987,-0.22275 -1.71474,-0.46492 -2.57789,-0.67508 -0.82405,-0.19865 -1.63115,-0.45814 -2.45646,-0.64452 -0.67169,-0.0548 -1.34317,-0.11009 -2.01126,-0.20114 -1.81755,-0.17962 -0.50163,-0.0366 3.93891,-0.0493 0.11843,-2.6e-4 -0.23687,2e-5 -0.3553,6e-5 -0.32383,1.2e-4 -0.64766,1.5e-4 -0.97147,0.004 -0.66109,0.0113 -1.32502,0.0257 -1.98041,0.11995 -0.51633,0.1161 -1.01291,0.28987 -1.54095,0.35628 -0.57908,0.11607 -1.17585,0.0355 -1.76387,0.0586 -2.20703,2.6e-4 -4.41406,0.006 -6.62108,1.3e-4 -0.88099,-0.004 -1.76208,-0.0123 -2.64263,-0.0423 -1.03108,-0.0396 -2.06149,-0.0997 -3.08655,-0.22201 0,0 4.7081,-0.68579 4.7081,-0.68579 z"
       inkscape:connector-curvature="0" />
    <path
       style="opacity:1;fill:#000000;fill-opacity:1;fill-rule:nonzero;stroke:#000000;stroke-width:1;stroke-linecap:round;stroke-linejoin:round;stroke-miterlimit:4;stroke-dasharray:none;stroke-dashoffset:0;stroke-opacity:1;paint-order:markers stroke fill"
       id="path4500"
       d="m 150.68452,83.317005 c 0.78026,0.372446 1.52973,0.823637 2.24214,1.314291 0.5735,0.390004 1.11205,0.810493 1.54858,1.353259 0.34204,0.396981 0.69095,0.784611 1.02849,1.186302 0.29127,0.423087 0.62657,0.81535 0.90587,1.248278 0.38638,0.498221 0.68262,1.047697 0.93812,1.622054 0.31471,0.600295 0.58834,1.230604 0.94863,1.805075 0.14718,0.141592 0.0674,0.129757 0.22083,0.09914 -1.55507,-0.01609 -3.11059,-0.0079 -4.66522,-0.04829 -0.0314,-7.94e-4 0.0485,-0.04274 0.0616,-0.0713 0.0434,-0.09483 0.0522,-0.255712 0.0633,-0.351383 0.036,-0.524489 -0.0114,-1.049411 0.0399,-1.57249 0.0618,-0.56221 0.26553,-1.088684 0.54269,-1.577112 0.2859,-0.41864 0.6343,-0.777534 1.03005,-1.091716 0.39853,-0.322331 0.7602,-0.686041 1.15105,-1.016672 0.40233,-0.255051 0.71022,-0.618458 1.07863,-0.913511 0.32384,-0.293764 0.71453,-0.490612 1.02249,-0.801391 0.35514,-0.371676 0.77638,-0.658874 1.23299,-0.889672 0.39898,-0.20873 0.79702,-0.426723 1.21457,-0.596617 0.24895,-0.06834 0.48651,-0.170363 0.70744,-0.302419 0,0 4.74502,0.494385 4.74502,0.494385 v 0 c -0.24363,0.141599 -0.45828,0.311319 -0.72524,0.412816 -0.43865,0.0899 -0.80031,0.321458 -1.20812,0.493987 -0.40654,0.252834 -0.88631,0.395333 -1.21471,0.768215 -0.21291,0.1992 -0.1085,0.08848 -0.30917,0.335968 -0.20444,0.207193 -0.49372,0.302316 -0.71475,0.490308 -0.44469,0.42155 0.11991,-0.09356 -0.33137,0.25858 -0.26705,0.208385 -0.42381,0.541297 -0.76061,0.666197 -0.39704,0.323564 -0.75934,0.677894 -1.14514,1.012758 -0.34849,0.312883 -0.74936,0.561134 -1.01782,0.958639 -0.30875,0.382873 -0.47425,0.864198 -0.54339,1.347912 -0.0612,0.519496 0.005,1.044278 -0.0302,1.566198 -0.005,0.06545 -0.0386,0.728993 -0.12193,0.735962 -4.19127,0.350565 -4.07992,1.504048 -5.07226,-0.163139 -0.3151,-0.610378 -0.62446,-1.223518 -0.93022,-1.838664 -0.27986,-0.541086 -0.57754,-1.066731 -0.95325,-1.548767 -0.29459,-0.404612 -0.59932,-0.801929 -0.90603,-1.197396 -0.34097,-0.393142 -0.67735,-0.789527 -1.01852,-1.18246 -0.45182,-0.475152 -0.97363,-0.865132 -1.51783,-1.229251 -0.72401,-0.467194 -1.46484,-0.914911 -2.2594,-1.253043 0,0 4.72289,-0.525042 4.72289,-0.525042 z"
       inkscape:connector-curvature="0" />
    <path
       style="opacity:1;fill:#000000;fill-opacity:1;fill-rule:nonzero;stroke:#000000;stroke-width:1;stroke-linecap:round;stroke-linejoin:round;stroke-miterlimit:4;stroke-dasharray:none;stroke-dashoffset:0;stroke-opacity:1;paint-order:markers stroke fill"
       id="path4502"
       d="m 172.84023,90.813357 c 0.77625,0.581927 1.54688,1.177311 2.3112,1.776804 0.55423,0.439111 1.04126,0.951561 1.48469,1.499987 0.42044,0.442936 0.73031,0.958558 0.99434,1.505547 0.20284,0.472864 0.4181,0.938782 0.60312,1.420289 0.13537,0.446521 0.22149,0.922711 0.53022,1.286992 0.16803,0.09459 0.0863,0.09538 0.244,0.02458 -1.55306,-0.01328 -3.10607,-0.04175 -4.65919,-0.03989 -0.0252,3.2e-5 0.0365,0.05335 0.0604,0.0454 0.055,-0.01828 0.0898,-0.23649 0.0912,-0.242525 0.0524,-0.611264 0.42767,-1.114975 0.76959,-1.600811 0.31991,-0.471459 0.69637,-0.894197 1.09322,-1.300914 0.32,-0.320291 0.64439,-0.633722 0.99079,-0.925259 0.48183,-0.375007 0.98793,-0.718722 1.48382,-1.075531 0.46444,-0.371821 0.99815,-0.577048 1.57589,-0.686668 2.0803,-0.201067 4.2602,-0.07417 6.3026,-0.07381 0,0 -4.69747,0.742749 -4.69747,0.742749 v 0 c 8.1306,-0.0011 4.91816,-0.02838 3.10152,0.01333 -0.55187,0.04046 -1.09275,0.125039 -1.55785,0.45058 -0.48294,0.355565 -0.96232,0.712846 -1.46644,1.038206 -0.33785,0.297469 -0.6891,0.573979 -0.99068,0.908056 -0.42332,0.349911 -0.78406,0.767831 -1.09642,1.219827 -0.32969,0.391197 -0.70138,0.852273 -0.73908,1.377674 -0.01,0.06819 -0.0868,0.692693 -0.16683,0.697106 -3.67147,0.202544 -3.96733,1.260734 -5.09355,-0.287758 -0.24956,-0.437711 -0.38664,-0.911402 -0.5312,-1.391441 -0.19026,-0.462801 -0.38907,-0.921181 -0.59376,-1.377762 -0.27127,-0.510043 -0.5944,-0.976501 -0.98996,-1.399723 -0.43397,-0.512223 -0.90551,-0.991854 -1.44033,-1.400191 -0.76355,-0.591158 -1.49982,-1.233982 -2.34537,-1.705427 0,0 4.7315,-0.49943 4.7315,-0.49943 z"
       inkscape:connector-curvature="0" />
    <path
       style="opacity:1;fill:#000000;fill-opacity:1;fill-rule:nonzero;stroke:#ffffff;stroke-width:0.26458335;stroke-linecap:round;stroke-linejoin:round;stroke-miterlimit:4;stroke-dasharray:0.26458336, 1.05833345;stroke-dashoffset:0;stroke-opacity:1;paint-order:stroke fill markers"
       id="path4548"
       d="m 148.65015,173.73084 c -0.91107,1.39133 -1.78112,2.80773 -2.70701,4.19101 -0.78308,1.19221 -1.77209,2.22781 -2.59587,3.39065 -0.51332,0.72458 -0.98098,1.48045 -1.47555,2.21795 -1.53965,2.1287 -2.69601,4.50549 -4.17636,6.6747 -0.2699,0.39549 -0.56843,0.77067 -0.85264,1.156 -1.2827,1.66777 -2.93649,2.96671 -4.58957,4.24164 -0.90908,0.701 -1.77908,1.467 -2.76966,2.0556 -0.0679,0.0403 -1.53239,0.83294 -1.6348,0.88842 -1.27686,0.69975 -2.49309,1.50048 -3.72586,2.2729 -0.49536,0.30888 -0.25795,0.15773 -0.71281,0.45251 0,0 -7.83673,-0.81118 -7.83673,-0.81118 v 0 c 0.49855,-0.27553 0.2394,-0.12418 0.77496,-0.45826 1.31595,-0.69955 2.53435,-1.56932 3.84354,-2.28338 1.53727,-0.82439 3.0985,-1.6206 4.39179,-2.81738 1.63873,-1.27788 3.39182,-2.44627 4.75604,-4.03403 0.29368,-0.36493 0.60417,-0.71695 0.88105,-1.09479 0.94171,-1.28512 1.78996,-2.68115 2.56558,-4.07105 0.26241,-0.47024 0.48106,-0.96476 0.75735,-1.42699 0.2449,-0.40971 0.53596,-0.79001 0.80394,-1.18502 1.25004,-1.9152 2.4624,-3.86011 3.92695,-5.62338 0.90859,-1.34041 1.80218,-2.70048 2.47582,-4.17766 0,0 7.89984,0.44174 7.89984,0.44174 z"
       inkscape:connector-curvature="0" />
    <path
       style="opacity:1;fill:#000000;fill-opacity:1;fill-rule:nonzero;stroke:#ffffff;stroke-width:0.26458335;stroke-linecap:round;stroke-linejoin:round;stroke-miterlimit:4;stroke-dasharray:0.26458336, 1.05833345;stroke-dashoffset:0;stroke-opacity:1;paint-order:stroke fill markers"
       id="path4580"
       d="m 147.25739,171.28352 c 0.34934,1.05096 0.87981,2.08102 1.50643,2.99425 0.24528,0.35745 0.52986,0.68627 0.79478,1.02941 1.95629,2.49129 4.18699,4.73777 6.36,7.03502 2.38982,2.6121 5.12907,4.88522 7.9221,7.0518 1.52418,1.07166 2.96673,2.25393 4.50324,3.30879 0.0273,0.0188 1.89156,1.24016 1.93604,1.26931 1.49428,0.92759 2.9744,1.89649 4.3332,3.01595 0.15867,0.12248 0.32131,0.23997 0.47601,0.36743 0.34534,0.28455 0.39849,0.3942 0.77102,0.62775 0.36464,0.22861 0.78842,0.361 1.18033,0.53384 0.4697,0.16623 0.23696,0.0951 0.6974,0.21604 0,0 -7.83306,0.97867 -7.83306,0.97867 v 0 c -0.45202,-0.18928 -0.22349,-0.088 -0.68506,-0.30518 -0.88725,-0.44079 -1.62199,-1.06763 -2.35574,-1.72725 -1.33355,-1.06187 -2.72603,-2.04343 -4.16472,-2.95822 -2.16358,-1.45409 -4.22076,-3.05075 -6.27048,-4.66018 -2.75092,-2.25754 -5.4943,-4.54955 -7.93001,-7.15114 -2.22855,-2.30133 -4.41575,-4.64731 -6.47053,-7.10621 -1.04934,-1.35474 -2.17299,-2.75615 -2.70886,-4.40744 0,0 7.93791,-0.11264 7.93791,-0.11264 z"
       inkscape:connector-curvature="0" />
  </g>
</svg>
