<?xml version="1.0" encoding="UTF-8" standalone="no"?>
<!-- Created with Inkscape (http://www.inkscape.org/) -->

<svg
   xmlns:dc="http://purl.org/dc/elements/1.1/"
   xmlns:cc="http://creativecommons.org/ns#"
   xmlns:rdf="http://www.w3.org/1999/02/22-rdf-syntax-ns#"
   xmlns:svg="http://www.w3.org/2000/svg"
   xmlns="http://www.w3.org/2000/svg"
   xmlns:sodipodi="http://sodipodi.sourceforge.net/DTD/sodipodi-0.dtd"
   xmlns:inkscape="http://www.inkscape.org/namespaces/inkscape"
   width="297mm"
   height="210mm"
   viewBox="0 0 297 210"
   version="1.1"
   id="svg8"
   inkscape:version="0.92.1 r15371"
   sodipodi:docname="inv-subspaces.svg">
  <defs
     id="defs2">
    <inkscape:path-effect
       effect="bspline"
       id="path-effect4487"
       is_visible="true"
       weight="33.333333"
       steps="2"
       helper_size="0"
       apply_no_weight="true"
       apply_with_weight="true"
       only_selected="false" />
    <inkscape:path-effect
       effect="bspline"
       id="path-effect4487-6"
       is_visible="true"
       weight="33.333333"
       steps="2"
       helper_size="0"
       apply_no_weight="true"
       apply_with_weight="true"
       only_selected="false" />
    <inkscape:path-effect
       effect="bspline"
       id="path-effect4487-4"
       is_visible="true"
       weight="33.333333"
       steps="2"
       helper_size="0"
       apply_no_weight="true"
       apply_with_weight="true"
       only_selected="false" />
    <inkscape:path-effect
       effect="bspline"
       id="path-effect4487-5"
       is_visible="true"
       weight="33.333333"
       steps="2"
       helper_size="0"
       apply_no_weight="true"
       apply_with_weight="true"
       only_selected="false" />
    <inkscape:path-effect
       effect="bspline"
       id="path-effect4487-4-0"
       is_visible="true"
       weight="33.333333"
       steps="2"
       helper_size="0"
       apply_no_weight="true"
       apply_with_weight="true"
       only_selected="false" />
    <inkscape:path-effect
       effect="bspline"
       id="path-effect4487-4-0-9"
       is_visible="true"
       weight="33.333333"
       steps="2"
       helper_size="0"
       apply_no_weight="true"
       apply_with_weight="true"
       only_selected="false" />
    <inkscape:path-effect
       effect="bspline"
       id="path-effect4487-4-0-9-3"
       is_visible="true"
       weight="33.333333"
       steps="2"
       helper_size="0"
       apply_no_weight="true"
       apply_with_weight="true"
       only_selected="false" />
    <inkscape:path-effect
       effect="bspline"
       id="path-effect4487-4-9"
       is_visible="true"
       weight="33.333333"
       steps="2"
       helper_size="0"
       apply_no_weight="true"
       apply_with_weight="true"
       only_selected="false" />
    <inkscape:path-effect
       effect="bspline"
       id="path-effect4487-5-8"
       is_visible="true"
       weight="33.333333"
       steps="2"
       helper_size="0"
       apply_no_weight="true"
       apply_with_weight="true"
       only_selected="false" />
    <inkscape:path-effect
       effect="bspline"
       id="path-effect4487-5-8-6"
       is_visible="true"
       weight="33.333333"
       steps="2"
       helper_size="0"
       apply_no_weight="true"
       apply_with_weight="true"
       only_selected="false" />
    <inkscape:path-effect
       effect="bspline"
       id="path-effect4487-5-8-4"
       is_visible="true"
       weight="33.333333"
       steps="2"
       helper_size="0"
       apply_no_weight="true"
       apply_with_weight="true"
       only_selected="false" />
    <inkscape:path-effect
       effect="bspline"
       id="path-effect4487-5-8-63"
       is_visible="true"
       weight="33.333333"
       steps="2"
       helper_size="0"
       apply_no_weight="true"
       apply_with_weight="true"
       only_selected="false" />
    <inkscape:path-effect
       effect="bspline"
       id="path-effect4487-5-8-63-0"
       is_visible="true"
       weight="33.333333"
       steps="2"
       helper_size="0"
       apply_no_weight="true"
       apply_with_weight="true"
       only_selected="false" />
    <inkscape:path-effect
       effect="bspline"
       id="path-effect4487-5-8-63-0-3"
       is_visible="true"
       weight="33.333333"
       steps="2"
       helper_size="0"
       apply_no_weight="true"
       apply_with_weight="true"
       only_selected="false" />
    <inkscape:path-effect
       effect="bspline"
       id="path-effect4487-4-03"
       is_visible="true"
       weight="33.333333"
       steps="2"
       helper_size="0"
       apply_no_weight="true"
       apply_with_weight="true"
       only_selected="false" />
    <inkscape:path-effect
       effect="bspline"
       id="path-effect4487-4-03-1"
       is_visible="true"
       weight="33.333333"
       steps="2"
       helper_size="0"
       apply_no_weight="true"
       apply_with_weight="true"
       only_selected="false" />
  </defs>
  <sodipodi:namedview
     id="base"
     pagecolor="#ffffff"
     bordercolor="#666666"
     borderopacity="1.0"
     inkscape:pageopacity="0.0"
     inkscape:pageshadow="2"
     inkscape:zoom="0.98994949"
     inkscape:cx="671.03746"
     inkscape:cy="365.37297"
     inkscape:document-units="mm"
     inkscape:current-layer="layer1"
     showgrid="false"
     inkscape:window-width="1920"
     inkscape:window-height="1046"
     inkscape:window-x="-11"
     inkscape:window-y="-11"
     inkscape:window-maximized="1" />
  <metadata
     id="metadata5">
    <rdf:RDF>
      <cc:Work
         rdf:about="">
        <dc:format>image/svg+xml</dc:format>
        <dc:type
           rdf:resource="http://purl.org/dc/dcmitype/StillImage" />
        <dc:title></dc:title>
      </cc:Work>
    </rdf:RDF>
  </metadata>
  <g
     inkscape:label="Layer 1"
     inkscape:groupmode="layer"
     id="layer1"
     transform="translate(0,-87)">
    <g
       id="g5210"
       transform="translate(32.279181,-6.879167)">
      <path
         inkscape:original-d="m 67.619193,183.41046 c -12.383225,23.8758 -24.766715,47.75188 -37.150466,71.62822"
         inkscape:path-effect="#path-effect4487"
         inkscape:connector-curvature="0"
         id="path4485"
         d="M 67.619193,183.41046 C 55.235872,207.28621 42.85238,231.16229 30.468727,255.03868"
         style="fill:none;stroke:#0a34ff;stroke-width:0.5;stroke-linecap:butt;stroke-linejoin:miter;stroke-miterlimit:4;stroke-dasharray:none;stroke-opacity:1" />
      <path
         inkscape:original-d="m 66.683753,197.04119 c -12.383224,23.87582 -24.766714,47.7519 -37.150474,71.62824"
         inkscape:path-effect="#path-effect4487-6"
         inkscape:connector-curvature="0"
         id="path4485-2"
         d="M 66.683753,197.04119 C 54.300425,220.91696 41.916934,244.79304 29.533279,268.66943"
         style="fill:none;stroke:#da03ae;stroke-width:0.5;stroke-linecap:butt;stroke-linejoin:miter;stroke-miterlimit:4;stroke-dasharray:none;stroke-opacity:1" />
    </g>
    <g
       id="g5297"
       transform="translate(-15.875004,1.0583333)">
      <path
         inkscape:original-d="m 244.95252,189.02311 c -12.38322,23.87582 -24.76671,47.7519 -37.15047,71.62824"
         inkscape:path-effect="#path-effect4487-5"
         inkscape:connector-curvature="0"
         id="path4485-62"
         d="m 244.95252,189.02311 c -12.38333,23.87576 -24.76682,47.75184 -37.15047,71.62824"
         style="fill:none;stroke:#da03ae;stroke-width:0.5;stroke-linecap:butt;stroke-linejoin:miter;stroke-miterlimit:4;stroke-dasharray:none;stroke-opacity:1" />
      <g
         transform="translate(99.958803,-1.60361)"
         style="stroke:#0a34ff;stroke-width:0.5;stroke-miterlimit:4;stroke-dasharray:none;stroke-dashoffset:0;stroke-opacity:1"
         id="g4871">
        <path
           style="fill:none;stroke:#0a34ff;stroke-width:0.5;stroke-linecap:butt;stroke-linejoin:miter;stroke-miterlimit:4;stroke-dasharray:none;stroke-dashoffset:0;stroke-opacity:1"
           d="m 125.72925,187.40442 c -14.51622,27.97759 -29.032641,55.95554 -43.549246,83.93386"
           id="path4485-62-8"
           inkscape:connector-curvature="0"
           inkscape:path-effect="#path-effect4487-5-8"
           inkscape:original-d="m 125.72925,187.40442 c -14.5161,27.97765 -29.032527,55.9556 -43.549246,83.93386" />
        <path
           style="fill:none;stroke:#0a34ff;stroke-width:0.5;stroke-linecap:butt;stroke-linejoin:miter;stroke-miterlimit:4;stroke-dasharray:none;stroke-dashoffset:0;stroke-opacity:1"
           d="m 170.64376,179.93032 c -14.51623,27.97759 -29.03264,55.95555 -43.54925,83.93387"
           id="path4485-62-8-5"
           inkscape:connector-curvature="0"
           inkscape:path-effect="#path-effect4487-5-8-63"
           inkscape:original-d="m 170.64376,179.93032 c -14.5161,27.97766 -29.03253,55.95561 -43.54925,83.93387" />
        <path
           style="fill:none;stroke:#0a34ff;stroke-width:0.5;stroke-linecap:butt;stroke-linejoin:miter;stroke-miterlimit:4;stroke-dasharray:none;stroke-dashoffset:0;stroke-opacity:1"
           d="m 125.72925,187.40442 44.91451,-7.4741"
           id="path4826"
           inkscape:connector-curvature="0" />
        <path
           style="fill:none;stroke:#0a34ff;stroke-width:0.5;stroke-linecap:butt;stroke-linejoin:miter;stroke-miterlimit:4;stroke-dasharray:none;stroke-dashoffset:0;stroke-opacity:1"
           d="m 82.180003,271.33828 44.914507,-7.47409"
           id="path4828"
           inkscape:connector-curvature="0" />
      </g>
      <g
         transform="translate(99.958803,-1.60361)"
         style="stroke:#0a34ff;stroke-width:0.5;stroke-miterlimit:4;stroke-dasharray:none;stroke-dashoffset:0;stroke-opacity:1"
         id="g4877">
        <path
           style="fill:none;stroke:#0a34ff;stroke-width:0.5;stroke-linecap:butt;stroke-linejoin:miter;stroke-miterlimit:4;stroke-dasharray:none;stroke-dashoffset:0;stroke-opacity:1"
           d="m 140.97684,177.25763 c -14.51623,27.97759 -29.03265,55.95555 -43.549255,83.93387"
           id="path4485-62-8-5-0"
           inkscape:connector-curvature="0"
           inkscape:path-effect="#path-effect4487-5-8-63-0"
           inkscape:original-d="m 140.97684,177.25763 c -14.5161,27.97766 -29.03253,55.95561 -43.549255,83.93387" />
        <path
           style="fill:none;stroke:#0a34ff;stroke-width:0.5;stroke-linecap:butt;stroke-linejoin:miter;stroke-miterlimit:4;stroke-dasharray:none;stroke-dashoffset:0;stroke-opacity:1"
           d="m 153.80577,194.0956 c -14.51623,27.9776 -29.03265,55.95556 -43.54925,83.93388"
           id="path4485-62-8-5-0-0"
           inkscape:connector-curvature="0"
           inkscape:path-effect="#path-effect4487-5-8-63-0-3"
           inkscape:original-d="m 153.80577,194.0956 c -14.5161,27.97767 -29.03253,55.95562 -43.54925,83.93388" />
        <path
           style="fill:none;stroke:#0a34ff;stroke-width:0.5;stroke-linecap:butt;stroke-linejoin:miter;stroke-miterlimit:4;stroke-dasharray:none;stroke-dashoffset:0;stroke-opacity:1"
           d="m 140.97684,177.25763 12.82893,16.83797"
           id="path4848"
           inkscape:connector-curvature="0" />
        <path
           style="fill:none;stroke:#0a34ff;stroke-width:0.5;stroke-linecap:butt;stroke-linejoin:miter;stroke-miterlimit:4;stroke-dasharray:none;stroke-dashoffset:0;stroke-opacity:1"
           d="m 97.427583,261.1915 12.828937,16.83798"
           id="path4850"
           inkscape:connector-curvature="0" />
      </g>
      <rect
         y="186.61037"
         x="230.41521"
         height="1.3363476"
         width="9.7553377"
         id="rect4614"
         style="opacity:1;fill:#ffffff;fill-opacity:1;fill-rule:nonzero;stroke:none;stroke-width:0.26499999;stroke-linecap:round;stroke-linejoin:round;stroke-miterlimit:4;stroke-dasharray:none;stroke-dashoffset:0;stroke-opacity:1;paint-order:markers fill stroke" />
      <rect
         y="191.52525"
         x="227.93976"
         height="1.3363476"
         width="9.7553377"
         id="rect4614-2"
         style="opacity:1;fill:#ffffff;fill-opacity:1;fill-rule:nonzero;stroke:none;stroke-width:0.26499999;stroke-linecap:round;stroke-linejoin:round;stroke-miterlimit:4;stroke-dasharray:none;stroke-dashoffset:0;stroke-opacity:1;paint-order:markers fill stroke" />
      <rect
         y="196.44012"
         x="225.10495"
         height="1.3363476"
         width="9.7553377"
         id="rect4614-2-3"
         style="opacity:1;fill:#ffffff;fill-opacity:1;fill-rule:nonzero;stroke:none;stroke-width:0.26499999;stroke-linecap:round;stroke-linejoin:round;stroke-miterlimit:4;stroke-dasharray:none;stroke-dashoffset:0;stroke-opacity:1;paint-order:markers fill stroke" />
      <rect
         y="201.35501"
         x="223.02608"
         height="1.3363476"
         width="9.7553377"
         id="rect4614-2-34"
         style="opacity:1;fill:#ffffff;fill-opacity:1;fill-rule:nonzero;stroke:none;stroke-width:0.26499999;stroke-linecap:round;stroke-linejoin:round;stroke-miterlimit:4;stroke-dasharray:none;stroke-dashoffset:0;stroke-opacity:1;paint-order:markers fill stroke" />
      <rect
         y="206.2699"
         x="219.05733"
         height="1.3363476"
         width="9.7553377"
         id="rect4614-2-4"
         style="opacity:1;fill:#ffffff;fill-opacity:1;fill-rule:nonzero;stroke:none;stroke-width:0.26499999;stroke-linecap:round;stroke-linejoin:round;stroke-miterlimit:4;stroke-dasharray:none;stroke-dashoffset:0;stroke-opacity:1;paint-order:markers fill stroke" />
      <rect
         y="211.18477"
         x="216.78947"
         height="1.3363476"
         width="9.7553377"
         id="rect4614-2-1"
         style="opacity:1;fill:#ffffff;fill-opacity:1;fill-rule:nonzero;stroke:none;stroke-width:0.26499999;stroke-linecap:round;stroke-linejoin:round;stroke-miterlimit:4;stroke-dasharray:none;stroke-dashoffset:0;stroke-opacity:1;paint-order:markers fill stroke" />
      <rect
         y="216.09966"
         x="214.7106"
         height="1.3363476"
         width="9.7553377"
         id="rect4614-2-6"
         style="opacity:1;fill:#ffffff;fill-opacity:1;fill-rule:nonzero;stroke:none;stroke-width:0.26499999;stroke-linecap:round;stroke-linejoin:round;stroke-miterlimit:4;stroke-dasharray:none;stroke-dashoffset:0;stroke-opacity:1;paint-order:markers fill stroke" />
      <rect
         y="221.01453"
         x="211.87578"
         height="1.3363476"
         width="9.7553377"
         id="rect4614-2-60"
         style="opacity:1;fill:#ffffff;fill-opacity:1;fill-rule:nonzero;stroke:none;stroke-width:0.26499999;stroke-linecap:round;stroke-linejoin:round;stroke-miterlimit:4;stroke-dasharray:none;stroke-dashoffset:0;stroke-opacity:1;paint-order:markers fill stroke" />
      <rect
         y="225.92941"
         x="209.79691"
         height="1.3363476"
         width="9.7553377"
         id="rect4614-2-0"
         style="opacity:1;fill:#ffffff;fill-opacity:1;fill-rule:nonzero;stroke:none;stroke-width:0.26499999;stroke-linecap:round;stroke-linejoin:round;stroke-miterlimit:4;stroke-dasharray:none;stroke-dashoffset:0;stroke-opacity:1;paint-order:markers fill stroke" />
      <rect
         y="230.8443"
         x="207.34007"
         height="1.3363476"
         width="9.7553377"
         id="rect4614-2-48"
         style="opacity:1;fill:#ffffff;fill-opacity:1;fill-rule:nonzero;stroke:none;stroke-width:0.26499999;stroke-linecap:round;stroke-linejoin:round;stroke-miterlimit:4;stroke-dasharray:none;stroke-dashoffset:0;stroke-opacity:1;paint-order:markers fill stroke" />
      <rect
         y="235.75917"
         x="204.69423"
         height="1.3363476"
         width="9.7553377"
         id="rect4614-2-45"
         style="opacity:1;fill:#ffffff;fill-opacity:1;fill-rule:nonzero;stroke:none;stroke-width:0.26499999;stroke-linecap:round;stroke-linejoin:round;stroke-miterlimit:4;stroke-dasharray:none;stroke-dashoffset:0;stroke-opacity:1;paint-order:markers fill stroke" />
      <rect
         y="240.67406"
         x="202.0484"
         height="1.3363476"
         width="9.7553377"
         id="rect4614-2-482"
         style="opacity:1;fill:#ffffff;fill-opacity:1;fill-rule:nonzero;stroke:none;stroke-width:0.26499999;stroke-linecap:round;stroke-linejoin:round;stroke-miterlimit:4;stroke-dasharray:none;stroke-dashoffset:0;stroke-opacity:1;paint-order:markers fill stroke" />
      <rect
         y="245.58894"
         x="199.59155"
         height="1.3363476"
         width="9.7553377"
         id="rect4614-2-33"
         style="opacity:1;fill:#ffffff;fill-opacity:1;fill-rule:nonzero;stroke:none;stroke-width:0.26499999;stroke-linecap:round;stroke-linejoin:round;stroke-miterlimit:4;stroke-dasharray:none;stroke-dashoffset:0;stroke-opacity:1;paint-order:markers fill stroke" />
      <rect
         y="250.50381"
         x="196.56775"
         height="1.3363476"
         width="9.7553377"
         id="rect4614-2-00"
         style="opacity:1;fill:#ffffff;fill-opacity:1;fill-rule:nonzero;stroke:none;stroke-width:0.26499999;stroke-linecap:round;stroke-linejoin:round;stroke-miterlimit:4;stroke-dasharray:none;stroke-dashoffset:0;stroke-opacity:1;paint-order:markers fill stroke" />
      <rect
         y="255.4187"
         x="193.92191"
         height="1.3363476"
         width="9.7553377"
         id="rect4614-2-9"
         style="opacity:1;fill:#ffffff;fill-opacity:1;fill-rule:nonzero;stroke:none;stroke-width:0.26499999;stroke-linecap:round;stroke-linejoin:round;stroke-miterlimit:4;stroke-dasharray:none;stroke-dashoffset:0;stroke-opacity:1;paint-order:markers fill stroke" />
      <rect
         y="261.08832"
         x="192.599"
         height="1.3363476"
         width="9.7553377"
         id="rect4614-2-9-3"
         style="opacity:1;fill:#ffffff;fill-opacity:1;fill-rule:nonzero;stroke:none;stroke-width:0.26499999;stroke-linecap:round;stroke-linejoin:round;stroke-miterlimit:4;stroke-dasharray:none;stroke-dashoffset:0;stroke-opacity:1;paint-order:markers fill stroke" />
      <rect
         y="264.01218"
         x="192.599"
         height="1.3363476"
         width="9.7553377"
         id="rect4614-2-9-3-2"
         style="opacity:1;fill:#ffffff;fill-opacity:1;fill-rule:nonzero;stroke:none;stroke-width:0.26499999;stroke-linecap:round;stroke-linejoin:round;stroke-miterlimit:4;stroke-dasharray:none;stroke-dashoffset:0;stroke-opacity:1;paint-order:markers fill stroke" />
      <rect
         transform="rotate(90)"
         y="-205.89337"
         x="261.1311"
         height="1.3363476"
         width="6.2590561"
         id="rect4614-2-9-6"
         style="opacity:1;fill:#ffffff;fill-opacity:1;fill-rule:nonzero;stroke:none;stroke-width:0.26499999;stroke-linecap:round;stroke-linejoin:round;stroke-miterlimit:4;stroke-dasharray:none;stroke-dashoffset:0;stroke-opacity:1;paint-order:markers fill stroke" />
      <rect
         transform="rotate(90)"
         y="-208.98015"
         x="262.97372"
         height="1.3363476"
         width="6.2590561"
         id="rect4614-2-9-6-0"
         style="opacity:1;fill:#ffffff;fill-opacity:1;fill-rule:nonzero;stroke:none;stroke-width:0.26499999;stroke-linecap:round;stroke-linejoin:round;stroke-miterlimit:4;stroke-dasharray:none;stroke-dashoffset:0;stroke-opacity:1;paint-order:markers fill stroke" />
      <rect
         transform="rotate(90)"
         y="-212.06696"
         x="261.46179"
         height="1.3363476"
         width="6.2590561"
         id="rect4614-2-9-6-06"
         style="opacity:1;fill:#ffffff;fill-opacity:1;fill-rule:nonzero;stroke:none;stroke-width:0.26499999;stroke-linecap:round;stroke-linejoin:round;stroke-miterlimit:4;stroke-dasharray:none;stroke-dashoffset:0;stroke-opacity:1;paint-order:markers fill stroke" />
      <rect
         transform="rotate(90)"
         y="-215.15375"
         x="259.47745"
         height="1.3363476"
         width="6.2590561"
         id="rect4614-2-9-6-8"
         style="opacity:1;fill:#ffffff;fill-opacity:1;fill-rule:nonzero;stroke:none;stroke-width:0.26499999;stroke-linecap:round;stroke-linejoin:round;stroke-miterlimit:4;stroke-dasharray:none;stroke-dashoffset:0;stroke-opacity:1;paint-order:markers fill stroke" />
    </g>
    <text
       xml:space="preserve"
       style="font-style:normal;font-variant:normal;font-weight:normal;font-stretch:normal;font-size:7.05555534px;line-height:1.25;font-family:sans-serif;-inkscape-font-specification:sans-serif;text-align:start;letter-spacing:0px;word-spacing:0px;text-anchor:start;fill:#000000;fill-opacity:1;stroke:none;stroke-width:0.26458332"
       x="72.269081"
       y="257.87949"
       id="text5214"><tspan
         sodipodi:role="line"
         id="tspan5212"
         x="72.269081"
         y="257.87949"
         style="font-style:normal;font-variant:normal;font-weight:normal;font-stretch:normal;font-size:7.05555534px;font-family:sans-serif;-inkscape-font-specification:sans-serif;stroke-width:0.26458332">L<tspan
   style="font-size:5.29166651px;baseline-shift:sub"
   id="tspan5216">1</tspan></tspan></text>
    <g
       id="g5472">
      <path
         inkscape:connector-curvature="0"
         d="m 109.48478,221.11032 c 0.17435,0.57038 0.3964,1.12261 0.63192,1.67055 0.27236,0.63312 0.64374,1.21567 1.02857,1.78663 0.44075,0.63129 0.93912,1.21642 1.48125,1.76432 0.6362,0.66433 1.34378,1.25146 2.06295,1.82492 0.83333,0.69342 1.73726,1.29665 2.6286,1.91378 1.00394,0.70838 2.08801,1.29182 3.14829,1.91119 1.14533,0.68322 2.31711,1.32125 3.49504,1.94768 1.23854,0.65302 2.4851,1.2911 3.73118,1.92998 1.27311,0.67087 2.57543,1.28584 3.89213,1.86856 1.34228,0.59192 2.6877,1.17731 4.04032,1.74595 1.32023,0.56199 2.65517,1.09012 3.99664,1.60071 1.29714,0.49301 2.61816,0.91706 3.9357,1.35237 1.27692,0.4264 2.57039,0.80194 3.87401,1.13999 1.17667,0.29915 2.36248,0.56168 3.55277,0.80219 1.02235,0.20346 2.06223,0.30927 3.09791,0.42423 0.87891,0.12294 1.76536,0.15347 2.65158,0.17144 0.71052,0.008 1.40941,-0.10414 2.10387,-0.23822 0.53232,-0.11356 1.02805,-0.32432 1.48173,-0.61839 0.41362,-0.23724 0.71146,-0.58471 0.97599,-0.96936 0.28291,-0.38811 0.43451,-0.83419 0.56797,-1.28775 0.14048,-0.51273 0.13643,-1.04608 0.12448,-1.57256 -0.0163,-0.59689 -0.16606,-1.17719 -0.32418,-1.75002 -0.20371,-0.65573 -0.44095,-1.29831 -0.72736,-1.92319 -0.3436,-0.72475 -0.74113,-1.42047 -1.16833,-2.09999 -0.47874,-0.71886 -0.97582,-1.42577 -1.5164,-2.10097 -0.61339,-0.74609 -1.28794,-1.43946 -1.97146,-2.1226 -0.75195,-0.75997 -1.5296,-1.49266 -2.34229,-2.18899 -0.85604,-0.74927 -1.72504,-1.48255 -2.63071,-2.17299 -0.95122,-0.73812 -1.95613,-1.40279 -2.96033,-2.06744 -1.06906,-0.68866 -2.16195,-1.34161 -3.25642,-1.99028 -1.11984,-0.658 -2.2707,-1.26233 -3.42279,-1.863 -1.18669,-0.6416 -2.41976,-1.19195 -3.64059,-1.76594 -1.25103,-0.562 -2.50523,-1.11675 -3.77855,-1.62802 -1.24583,-0.51905 -2.51668,-0.97413 -3.78688,-1.43061 -1.22965,-0.44424 -2.49076,-0.79433 -3.74214,-1.17258 -1.20695,-0.36717 -2.42967,-0.6793 -3.65754,-0.96993 -1.13263,-0.23511 -2.27708,-0.39986 -3.42522,-0.53857 -1.05421,-0.13022 -2.1153,-0.13988 -3.17535,-0.10322 -0.93146,0.0264 -1.8504,0.1467 -2.7594,0.34303 -0.77764,0.17882 -1.50339,0.49163 -2.19633,0.87596 -0.60886,0.35045 -1.0671,0.85397 -1.46811,1.41541 -0.43508,0.59158 -0.69276,1.26753 -0.9085,1.95967 -0.19575,0.71113 -0.27166,1.44637 -0.32808,2.17888 -0.032,0.3782 -0.0569,0.75688 -0.0806,1.13564 -0.007,0.10838 -0.16224,0.099 -0.15548,-0.009 v 0 c 0.0238,-0.37947 0.0486,-0.75888 0.0808,-1.13778 0.0574,-0.74387 0.13494,-1.49046 0.33453,-2.21242 0.22097,-0.7074 0.48542,-1.39828 0.93014,-2.00297 0.4149,-0.57968 0.88979,-1.09927 1.51911,-1.46077 0.70652,-0.39146 1.44657,-0.71017 2.23933,-0.89213 0.91821,-0.19811 1.84646,-0.31983 2.78728,-0.34647 1.06819,-0.0368 2.13745,-0.0271 3.19975,0.10425 1.154,0.13941 2.30429,0.30512 3.44264,0.54168 1.23099,0.29138 2.45682,0.60432 3.66684,0.97243 1.25394,0.37903 2.51766,0.72988 3.74982,1.17513 1.27201,0.45711 2.54468,0.91284 3.79228,1.43265 1.27609,0.51245 2.53309,1.06836 3.78684,1.63164 1.22281,0.57487 2.45778,1.12616 3.64639,1.76877 1.15456,0.60208 2.308,1.2076 3.43025,1.86709 1.09668,0.65001 2.19177,1.30426 3.26298,1.9944 1.00708,0.66656 2.01482,1.33325 2.9688,2.07345 0.90794,0.69233 1.77939,1.42729 2.63761,2.17858 0.81565,0.69893 1.59628,1.43426 2.35101,2.19706 0.68751,0.68716 1.36594,1.38471 1.98284,2.1353 0.54409,0.67984 1.04474,1.39138 1.52653,2.11523 0.43062,0.68526 0.83155,1.38677 1.17787,2.11765 0.28963,0.63237 0.52994,1.28249 0.73572,1.94611 0.16134,0.58488 0.31338,1.17747 0.32963,1.78692 0.0122,0.54209 0.0149,1.09099 -0.13061,1.61868 -0.13775,0.46916 -0.29674,0.92986 -0.58871,1.33136 -0.27647,0.40084 -0.58878,0.76341 -1.01948,1.01156 -0.47145,0.30357 -0.98456,0.52398 -1.53718,0.64065 -0.70537,0.13606 -1.4154,0.24898 -2.137,0.24102 -0.89098,-0.018 -1.78218,-0.049 -2.66582,-0.17236 -1.04031,-0.11549 -2.08484,-0.2219 -3.11174,-0.4264 -1.1931,-0.24109 -2.38168,-0.50423 -3.56113,-0.80411 -1.30693,-0.33897 -2.60371,-0.7154 -3.88388,-1.14291 -1.31975,-0.43606 -2.64298,-0.86086 -3.94229,-1.3547 -1.34316,-0.51124 -2.67978,-1.03998 -4.00166,-1.6027 -1.35349,-0.56906 -2.69985,-1.15475 -4.04299,-1.74714 -1.31942,-0.58396 -2.62444,-1.20018 -3.9002,-1.87242 -1.24677,-0.63925 -2.49411,-1.27755 -3.73327,-1.93105 -1.17977,-0.62743 -2.35337,-1.26648 -3.50051,-1.95074 -1.06368,-0.62145 -2.15127,-1.20681 -3.15839,-1.91764 -0.89422,-0.6191 -1.80099,-1.22442 -2.63706,-1.92003 -0.72389,-0.57727 -1.43599,-1.16849 -2.07647,-1.83711 -0.54881,-0.55484 -1.05344,-1.14727 -1.4995,-1.78657 -0.39011,-0.57891 -0.76623,-1.16975 -1.04224,-1.81169 -0.23559,-0.5481 -0.45847,-1.10035 -0.63217,-1.67114 -0.0426,-0.10023 0.10118,-0.1595 0.14373,-0.0593 z"
         id="path4734"
         style="opacity:1;fill:#000000;fill-opacity:1;fill-rule:nonzero;stroke:#0a34ff;stroke-width:0.40000001;stroke-linecap:round;stroke-linejoin:round;stroke-miterlimit:4;stroke-dasharray:none;stroke-dashoffset:0;stroke-opacity:1;paint-order:markers fill stroke" />
      <path
         inkscape:original-d="m 153.28057,190.22583 c -12.38322,23.87581 -24.76671,47.75189 -37.15046,71.62823"
         inkscape:path-effect="#path-effect4487-4"
         inkscape:connector-curvature="0"
         id="path4485-6"
         d="m 153.28057,190.22583 c -12.38332,23.87576 -24.76681,47.75184 -37.15046,71.62823"
         style="fill:none;stroke:#da03ae;stroke-width:0.5;stroke-linecap:butt;stroke-linejoin:miter;stroke-miterlimit:4;stroke-dasharray:none;stroke-opacity:1" />
      <rect
         y="226.07213"
         x="130.92308"
         height="1.3363476"
         width="9.7553377"
         id="rect4614-2-45-8"
         style="opacity:1;fill:#ffffff;fill-opacity:1;fill-rule:nonzero;stroke:none;stroke-width:0.26499999;stroke-linecap:round;stroke-linejoin:round;stroke-miterlimit:4;stroke-dasharray:none;stroke-dashoffset:0;stroke-opacity:1;paint-order:markers fill stroke" />
      <rect
         y="229.79782"
         x="128.36699"
         height="1.3363476"
         width="9.7553377"
         id="rect4614-2-45-8-7"
         style="opacity:1;fill:#ffffff;fill-opacity:1;fill-rule:nonzero;stroke:none;stroke-width:0.26499999;stroke-linecap:round;stroke-linejoin:round;stroke-miterlimit:4;stroke-dasharray:none;stroke-dashoffset:0;stroke-opacity:1;paint-order:markers fill stroke" />
      <rect
         y="233.5235"
         x="127.84314"
         height="1.3363476"
         width="9.7553377"
         id="rect4614-2-45-8-7-3"
         style="opacity:1;fill:#ffffff;fill-opacity:1;fill-rule:nonzero;stroke:none;stroke-width:0.26499999;stroke-linecap:round;stroke-linejoin:round;stroke-miterlimit:4;stroke-dasharray:none;stroke-dashoffset:0;stroke-opacity:1;paint-order:markers fill stroke" />
      <g
         transform="translate(-2.1166667)"
         style="fill:#0a34ff;fill-opacity:1"
         id="g5385">
        <rect
           style="opacity:1;fill:#0a34ff;fill-opacity:1;fill-rule:nonzero;stroke:none;stroke-width:0.26657408;stroke-linecap:round;stroke-linejoin:round;stroke-miterlimit:4;stroke-dasharray:none;stroke-dashoffset:0;stroke-opacity:1;paint-order:markers fill stroke"
           id="rect4614-2-45-8-7-3-4"
           width="1.2269036"
           height="0.24680933"
           x="197.20703"
           y="156.63362"
           transform="matrix(0.89854999,0.43887118,-0.29621877,0.95512012,0,0)" />
        <rect
           style="opacity:1;fill:#0a34ff;fill-opacity:1;fill-rule:nonzero;stroke:none;stroke-width:0.26657408;stroke-linecap:round;stroke-linejoin:round;stroke-miterlimit:4;stroke-dasharray:none;stroke-dashoffset:0;stroke-opacity:1;paint-order:markers fill stroke"
           id="rect4614-2-45-8-7-3-4-0"
           width="1.2269036"
           height="0.24680933"
           x="197.2036"
           y="156.82018"
           transform="matrix(0.89855,0.43887117,-0.29621877,0.95512012,0,0)" />
        <rect
           style="opacity:1;fill:#0a34ff;fill-opacity:1;fill-rule:nonzero;stroke:none;stroke-width:0.26657408;stroke-linecap:round;stroke-linejoin:round;stroke-miterlimit:4;stroke-dasharray:none;stroke-dashoffset:0;stroke-opacity:1;paint-order:markers fill stroke"
           id="rect4614-2-45-8-7-3-4-0-3"
           width="1.2269036"
           height="0.24680933"
           x="197.21533"
           y="156.93802"
           transform="matrix(0.89855,0.43887117,-0.29621877,0.95512012,0,0)" />
      </g>
    </g>
  </g>
</svg>
