<?xml version="1.0" encoding="UTF-8" standalone="no"?>
<!-- Created with Inkscape (http://www.inkscape.org/) -->

<svg
   xmlns:dc="http://purl.org/dc/elements/1.1/"
   xmlns:cc="http://creativecommons.org/ns#"
   xmlns:rdf="http://www.w3.org/1999/02/22-rdf-syntax-ns#"
   xmlns:svg="http://www.w3.org/2000/svg"
   xmlns="http://www.w3.org/2000/svg"
   xmlns:sodipodi="http://sodipodi.sourceforge.net/DTD/sodipodi-0.dtd"
   xmlns:inkscape="http://www.inkscape.org/namespaces/inkscape"
   width="210mm"
   height="297mm"
   viewBox="0 0 210 297"
   version="1.1"
   id="svg8"
   inkscape:version="0.92.1 r15371"
   sodipodi:docname="different-cases.svg">
  <defs
     id="defs2" />
  <sodipodi:namedview
     id="base"
     pagecolor="#ffffff"
     bordercolor="#666666"
     borderopacity="1.0"
     inkscape:pageopacity="0.0"
     inkscape:pageshadow="2"
     inkscape:zoom="1.979899"
     inkscape:cx="380.51182"
     inkscape:cy="760.63415"
     inkscape:document-units="mm"
     inkscape:current-layer="layer1"
     showgrid="false"
     inkscape:window-width="1920"
     inkscape:window-height="1046"
     inkscape:window-x="-11"
     inkscape:window-y="-11"
     inkscape:window-maximized="1" />
  <metadata
     id="metadata5">
    <rdf:RDF>
      <cc:Work
         rdf:about="">
        <dc:format>image/svg+xml</dc:format>
        <dc:type
           rdf:resource="http://purl.org/dc/dcmitype/StillImage" />
        <dc:title></dc:title>
      </cc:Work>
    </rdf:RDF>
  </metadata>
  <g
     inkscape:label="Layer 1"
     inkscape:groupmode="layer"
     id="layer1">
    <path
       style="opacity:1;fill:#3015e9;fill-opacity:1;fill-rule:nonzero;stroke:#3015e9;stroke-width:1;stroke-linecap:round;stroke-linejoin:round;stroke-miterlimit:4;stroke-dasharray:none;stroke-dashoffset:0;stroke-opacity:1;paint-order:stroke fill markers"
       id="path4491"
       d="m 45.862914,70.952553 c 0.355105,0.292415 0.747213,0.535892 1.112004,0.81692 0.396587,0.280955 0.756918,0.607179 1.147728,0.895516 0.439153,0.313505 0.877827,0.62805 1.322613,0.93363 0.503959,0.331743 1.019656,0.643274 1.54822,0.934149 0.610404,0.315367 1.216982,0.638617 1.837311,0.934447 0.663427,0.295452 1.324298,0.593966 1.975535,0.915699 0.637263,0.308097 1.285481,0.593016 1.936256,0.87122 0.61527,0.283943 1.222322,0.579144 1.847339,0.842547 0.571601,0.237744 1.132022,0.500782 1.689428,0.769766 0.528902,0.25504 1.054124,0.516797 1.569522,0.798134 0.489153,0.260128 0.971962,0.531352 1.455171,0.802254 0.476824,0.266022 0.947954,0.541663 1.428202,0.801624 0.478967,0.276984 0.96357,0.543636 1.453007,0.801605 0.528521,0.272801 1.056442,0.547248 1.594424,0.801005 0.577242,0.266644 1.157121,0.527841 1.722806,0.818428 0.601043,0.292777 1.222171,0.5407 1.840679,0.793395 0.615813,0.275881 1.258123,0.483346 1.892224,0.711615 0.575254,0.177626 1.139131,0.388245 1.701387,0.602758 0.4573,0.1826 0.90198,0.394666 1.352928,0.592127 0.34912,0.167799 0.706255,0.318313 1.06457,0.465138 0.232153,0.120631 0.468825,0.228187 0.692631,0.364156 0.02992,0.02514 0.05983,0.05028 0.08974,0.07542 0,0 -0.395385,0.03524 -0.395385,0.03524 v 0 c -0.02971,-0.02326 -0.05942,-0.04653 -0.08913,-0.06978 C 77.428241,87.127727 77.194146,87.017562 76.962136,86.900997 76.60484,86.752465 76.247835,86.602759 75.899124,86.434746 75.449743,86.235734 75.004841,86.025965 74.547993,85.84441 73.986253,85.6306 73.422889,85.421162 72.848873,85.242123 72.214391,85.014431 71.572909,84.804328 70.956782,84.52882 70.337591,84.275934 69.715897,84.027337 69.115189,83.732202 68.548486,83.443787 67.969147,83.181683 67.391974,82.915039 66.853915,82.660137 66.32524,82.385973 65.796465,82.112431 65.307071,81.854083 64.822769,81.586627 64.343209,81.310415 63.863038,81.049975 63.391844,80.774052 62.9147,80.508249 62.431717,80.237244 61.948566,79.966911 61.459772,79.706439 60.944644,79.42583 60.419555,79.165017 59.891227,78.91016 c -0.557048,-0.268364 -1.117245,-0.530442 -1.688309,-0.767929 -0.624501,-0.263832 -1.230201,-0.561996 -1.846606,-0.842838 -0.650759,-0.278959 -1.299173,-0.564121 -1.936213,-0.873345 -0.651216,-0.32145 -1.313016,-0.617731 -1.97535,-0.91522 -0.620456,-0.297231 -1.228492,-0.619512 -1.838875,-0.936546 -0.529064,-0.292264 -1.046084,-0.604313 -1.550242,-0.937829 -0.444584,-0.306612 -0.88456,-0.620096 -1.323297,-0.934929 -0.389975,-0.289965 -0.75229,-0.614571 -1.148858,-0.896106 -0.366382,-0.280856 -0.758876,-0.525579 -1.115671,-0.818158 0,0 0.395099,-0.0347 0.395099,-0.0347 z"
       inkscape:connector-curvature="0" />
    <path
       style="opacity:1;fill:#3015e9;fill-opacity:1;fill-rule:nonzero;stroke:#3015e9;stroke-width:1;stroke-linecap:round;stroke-linejoin:round;stroke-miterlimit:4;stroke-dasharray:none;stroke-dashoffset:0;stroke-opacity:1;paint-order:stroke fill markers"
       id="path4493"
       d="m 42.010356,82.204679 c 0.376632,-0.03624 0.748628,-0.09412 1.120582,-0.162227 0.328427,-0.07795 0.651539,-0.176551 0.98008,-0.253669 0.405506,-0.11216 0.818901,-0.195032 1.232937,-0.268965 0.509971,-0.100973 1.016725,-0.216723 1.525225,-0.324757 0.633608,-0.142894 1.271961,-0.263131 1.904595,-0.410327 0.723805,-0.166105 1.45211,-0.309488 2.181135,-0.45036 0.792475,-0.13148 1.577189,-0.303951 2.3671,-0.449334 0.772994,-0.137425 1.54123,-0.298069 2.309352,-0.460105 0.726152,-0.151572 1.456137,-0.283605 2.183003,-0.431472 0.67863,-0.132313 1.358025,-0.261324 2.034927,-0.402336 0.649393,-0.128212 1.299038,-0.256786 1.945259,-0.400312 0.619635,-0.121386 1.232064,-0.275773 1.853874,-0.385789 0.594945,-0.107183 1.186392,-0.231653 1.778667,-0.352407 0.574281,-0.125047 1.144246,-0.268658 1.718328,-0.394541 0.560227,-0.140676 1.130255,-0.235477 1.694199,-0.359209 0.545282,-0.115242 1.086633,-0.24829 1.628389,-0.379005 0.565435,-0.135356 1.134591,-0.252039 1.705313,-0.362683 0.53879,-0.121325 1.07864,-0.236013 1.619166,-0.349059 0.521099,-0.109644 1.043191,-0.213609 1.564589,-0.321879 0.465701,-0.07362 0.920488,-0.199536 1.381101,-0.297397 0.383683,-0.09156 0.765326,-0.190728 1.148747,-0.28329 0.275707,-0.09037 0.559594,-0.149497 0.833869,-0.243564 0.145796,-0.04543 0.07609,-0.01968 0.209518,-0.07615 0,0 0.3946,0.04564 0.3946,0.04564 v 0 c -0.133625,0.06253 -0.06364,0.03564 -0.210386,0.07953 -0.275246,0.09553 -0.559512,0.154914 -0.836211,0.247179 -0.384614,0.09059 -0.766471,0.191784 -1.15068,0.284121 -0.461423,0.09542 -0.915565,0.225649 -1.381901,0.297391 -0.521816,0.107511 -1.043895,0.212498 -1.565357,0.321636 -0.540371,0.11449 -1.081254,0.225187 -1.61953,0.349681 -0.570865,0.109474 -1.139878,0.226272 -1.705401,0.360807 -0.541499,0.131672 -1.082977,0.26412 -1.628108,0.379828 -0.563769,0.125777 -1.134653,0.217482 -1.6949,0.359238 -0.574482,0.124534 -1.144275,0.269293 -1.718482,0.395081 -0.592669,0.119938 -1.183928,0.246229 -1.779106,0.353417 -0.622215,0.107559 -1.234151,0.263435 -1.853901,0.383953 -0.646141,0.145066 -1.296384,0.272433 -1.94601,0.400735 -0.676818,0.142357 -1.356691,0.270129 -2.035506,0.402447 -0.727006,0.149098 -1.457682,0.279585 -2.184249,0.431033 -0.768242,0.16279 -1.536729,0.323429 -2.30995,0.461084 -0.789919,0.144018 -1.573959,0.318564 -2.366362,0.44904 -0.728369,0.141391 -1.456465,0.282993 -2.179738,0.449038 -0.631685,0.148809 -1.269622,0.267975 -1.902508,0.411453 -0.508256,0.10708 -1.014232,0.223973 -1.523457,0.326343 -0.413488,0.0721 -0.826604,0.154008 -1.230884,0.267221 -0.32952,0.07397 -0.652457,0.174331 -0.980311,0.255447 -0.371559,0.06736 -0.742113,0.13039 -1.118637,0.164037 0,0 -0.39298,-0.05654 -0.39298,-0.05654 z"
       inkscape:connector-curvature="0" />
    <path
       style="opacity:1;fill:#3015e9;fill-opacity:1;fill-rule:nonzero;stroke:#3015e9;stroke-width:1;stroke-linecap:round;stroke-linejoin:round;stroke-miterlimit:4;stroke-dasharray:none;stroke-dashoffset:0;stroke-opacity:1;paint-order:stroke fill markers"
       id="path4495"
       d="m 71.429699,75.72257 c 0.02222,-0.254479 0.07915,-0.564028 0.342059,-0.667232 0.15898,0.0036 0.319074,-0.0084 0.476938,0.01074 0.03003,0.0037 0.05093,0.03367 0.07159,0.05576 0.109686,0.117284 0.119126,0.258141 0.09556,0.407413 -0.08403,0.240996 -0.28135,0.365943 -0.52631,0.391491 -0.392088,0.03092 -0.714274,-0.0034 -1.031329,-0.227187 -0.16392,-0.156192 -0.211757,-0.358254 -0.147926,-0.571286 0.109132,-0.229695 0.333626,-0.30389 0.565666,-0.35234 0.376819,-0.0666 0.746545,-0.04141 1.077245,0.143745 0.200943,0.159748 0.306155,0.27286 0.324784,0.535205 -0.01595,0.216381 -0.137885,0.38019 -0.265472,0.544983 -0.152048,0.186325 -0.35102,0.286301 -0.578205,0.349002 -0.445537,0.09015 -0.695407,0.07394 -1.043606,-0.146434 -0.205759,-0.14968 -0.2193,-0.353412 -0.161997,-0.582261 0.09265,-0.23573 0.292124,-0.346593 0.521962,-0.417994 0.355735,-0.08515 0.729586,-0.08956 1.063006,0.06222 0.197959,0.126291 0.313172,0.316492 0.347795,0.545957 0.01773,0.214 -0.111321,0.363786 -0.280408,0.474713 -0.329401,0.140552 -0.7577,0.158043 -1.038283,-0.08776 -0.158501,-0.182131 -0.23571,-0.374153 -0.212035,-0.615791 0.115851,-0.313571 0.40513,-0.211381 0.696495,-0.19966 0,0 -0.395494,0.05174 -0.395494,0.05174 v 0 c 0.112514,-0.0045 0.224988,-0.01021 0.337542,-0.01352 0.02556,-7.94e-4 -0.05147,5.29e-4 -0.07646,0.0058 -0.08708,0.01863 -0.135157,0.07943 -0.164647,0.159758 -0.02527,0.228275 0.05507,0.409871 0.209878,0.576834 0.03044,0.02373 0.05811,0.05156 0.09133,0.07123 0.03448,0.02043 0.146888,0.03204 0.110175,0.04809 -0.08287,0.03624 -0.180994,0.0086 -0.270444,0.02199 -0.141764,0.02119 0.428506,-0.01138 0.316431,-0.05922 0.162793,-0.09282 0.294717,-0.228608 0.278638,-0.428146 -0.03417,-0.217879 -0.151207,-0.396438 -0.345305,-0.506267 -0.153969,-0.06635 -0.34131,-0.08007 -0.297873,-0.0859 0.596871,-0.08014 0.148013,0.02665 0.02304,0.02887 -0.222475,0.06032 -0.420801,0.1534 -0.518091,0.376994 -0.05636,0.216268 -0.04115,0.397719 0.159763,0.532194 0.04732,0.02915 0.139581,0.08904 0.192312,0.109561 0.0926,0.03605 0.567307,0.108172 -0.0616,0.04511 -0.04188,-0.0042 0.08311,-0.01347 0.124661,-0.02019 0.224708,-0.05462 0.421227,-0.143177 0.574767,-0.322993 0.121066,-0.157938 0.247132,-0.308187 0.26497,-0.515982 -0.01879,-0.244462 -0.129305,-0.353828 -0.322228,-0.495332 -0.104714,-0.05316 -0.212011,-0.09981 -0.327798,-0.124293 -0.0484,-0.01024 -0.529648,-0.05429 0.166103,-0.02217 0.04293,0.0019 -0.08541,0.0096 -0.128122,0.01445 -0.221387,0.03963 -0.447016,0.096 -0.56088,0.310065 -0.0666,0.196435 -0.0127,0.383426 0.145603,0.520345 0.09404,0.06091 0.19195,0.115827 0.29894,0.15167 0.12913,0.04326 0.54048,0.07634 -0.05579,0.05479 0.234966,-0.0083 0.43342,-0.108217 0.521992,-0.338664 0.02336,-0.131188 0.01672,-0.267271 -0.09442,-0.361847 -0.02021,-0.0172 -0.09549,-0.03291 -0.06959,-0.03875 0.101473,-0.02289 0.207777,-0.01058 0.311666,-0.01585 -0.268807,0.05378 -0.319411,0.384225 -0.339522,0.616376 0,0 -0.397065,0 -0.397065,0 z"
       inkscape:connector-curvature="0" />
    <path
       style="opacity:1;fill:#3015e9;fill-opacity:1;fill-rule:nonzero;stroke:#3015e9;stroke-width:1;stroke-linecap:round;stroke-linejoin:round;stroke-miterlimit:4;stroke-dasharray:none;stroke-dashoffset:0;stroke-opacity:1;paint-order:stroke fill markers"
       id="path4497"
       d="m 74.118252,85.901326 c -0.413205,0.01767 -0.96208,0.110233 -1.184404,-0.317034 -0.06385,-0.274566 0.0684,-0.465521 0.239588,-0.661967 0.292235,-0.302813 0.639635,-0.265147 1.040725,-0.267927 0.265181,0.05319 0.344424,0.274568 0.392266,0.512386 0.05399,0.27676 -0.06012,0.527069 -0.18438,0.766686 -0.132723,0.229783 -0.334415,0.355193 -0.581668,0.430697 -0.416928,0.06816 -0.775587,0.03332 -1.103588,-0.216435 -0.171672,-0.175696 -0.226491,-0.416104 -0.216654,-0.655124 0.02014,-0.272251 0.186105,-0.467082 0.38699,-0.634479 0.218065,-0.177424 0.471252,-0.295081 0.751631,-0.320968 0.501142,-0.02133 0.658395,-0.02641 0.9408,0.339071 0.09828,0.220742 0.07444,0.433795 -0.06126,0.628719 -0.276707,0.261789 -0.704273,0.257027 -1.056736,0.161674 -0.145909,-0.04889 -0.07709,-0.01775 -0.206954,-0.09231 0,0 0.394883,-0.04265 0.394883,-0.04265 v 0 c 0.129333,0.06532 0.06106,0.03749 0.205393,0.08205 0.179351,0.0367 0.200774,0.0324 -0.151381,0.02849 -0.04025,-5.3e-4 0.08099,5.29e-4 0.120552,-0.0068 0.06073,-0.01138 0.160665,-0.05443 0.213032,-0.08793 0.03047,-0.0195 0.05659,-0.04505 0.08489,-0.06757 0.134729,-0.174998 0.159436,-0.374256 0.06124,-0.577065 -0.08765,-0.107709 -0.184912,-0.226433 -0.32064,-0.27388 -0.036,-0.0126 -0.14904,-0.0181 -0.111581,-0.02524 0.09174,-0.01749 0.186733,-0.0046 0.280099,-0.0069 -0.278239,0.0083 -0.532286,0.125068 -0.749345,0.296486 -0.197477,0.155456 -0.363569,0.338802 -0.384514,0.601046 -0.01103,0.227177 0.0441,0.455941 0.214654,0.616191 0.09931,0.0701 0.20461,0.137451 0.322501,0.173051 0.04257,0.01286 0.174056,0.01513 0.130889,0.02585 -0.08513,0.02109 -0.175358,0.0046 -0.263038,0.0069 -0.04161,0.0011 0.08322,-0.0021 0.124836,-0.0033 0.243898,-0.06518 0.444148,-0.176162 0.578887,-0.398656 0.121354,-0.231399 0.238376,-0.470701 0.183811,-0.739587 -0.04788,-0.22774 -0.12819,-0.427836 -0.387374,-0.458467 0.08928,-0.0013 0.179195,-0.01484 0.267835,-0.0041 0.04017,0.0049 -0.07997,0.01286 -0.119366,0.02209 -0.152993,0.03593 -0.291193,0.102833 -0.401741,0.216474 -0.160668,0.182761 -0.303398,0.352726 -0.238792,0.613616 0.07068,0.122597 0.135226,0.186129 0.27518,0.232452 0.05252,0.01738 0.199755,-0.0026 0.161668,0.03748 -0.04855,0.05115 -0.142626,-0.0024 -0.211068,0.01455 -0.05474,0.0136 0.11277,-0.0028 0.169158,-0.0042 0,0 0.392978,0.05654 0.392978,0.05654 z"
       inkscape:connector-curvature="0" />
    <path
       style="opacity:1;fill:#3015e9;fill-opacity:1;fill-rule:nonzero;stroke:#3015e9;stroke-width:1;stroke-linecap:round;stroke-linejoin:round;stroke-miterlimit:4;stroke-dasharray:none;stroke-dashoffset:0;stroke-opacity:1;paint-order:stroke fill markers"
       id="path4501"
       d="m 42.269701,112.17084 c 0.370893,0.0525 0.744381,0.082 1.118317,0.10102 0.153207,0.006 0.167439,0.007 0.31818,0.0101 0.04926,0.001 0.196823,0.007 0.147807,0.002 -0.08261,-0.008 -0.169281,0.0111 -0.248799,-0.0128 -0.08888,-0.0267 0.183582,-0.0275 0.275215,-0.0422 0.277804,-0.0489 0.559355,-0.0634 0.84075,-0.0718 0.45806,-0.009 0.916289,-0.006 1.374408,-0.006 0.398639,5.3e-4 0.797282,7.9e-4 1.195924,7.9e-4 0.457539,8e-5 0.91508,2.1e-4 1.372619,1.7e-4 0.07793,0 0.15585,-1e-5 0.233772,0 0.05017,0 -0.20066,0 -0.150495,1e-5 0.314079,8e-5 0.628158,-2e-5 0.94224,-1e-5 0.592846,-0.009 1.184177,0.003 1.774203,0.0624 0.45842,0.0453 0.91898,0.0588 1.379281,0.0671 0.369408,0.005 0.738862,0.006 1.108297,0.005 0.05839,-1.1e-4 -0.116787,-6e-5 -0.175183,-8e-5 0.406723,-2.6e-4 0.813445,-5.3e-4 1.220171,-7.9e-4 0.382315,-2e-4 0.76463,-1.5e-4 1.146947,-1.8e-4 0.462495,-6e-5 0.924992,-7e-5 1.387486,-6e-5 0.299643,-2e-5 0.599289,-5e-5 0.898932,-7e-5 0.04583,0 0.09166,0 0.137488,0 0.0902,-10e-6 0.18052,-10e-6 0.270727,-10e-6 0.04472,0 0.178869,0 0.134152,0 -0.0927,0 -0.452136,0 -0.124153,0 0.26693,0 0.53386,0 0.800788,0 0.294153,0 0.588306,6e-5 0.882459,5e-5 0.412637,0.0318 0.833396,-0.0367 1.244569,0.0182 0.265856,0.0518 0.534125,0.0841 0.804219,0.10166 -0.089,-0.003 0.355688,0.0157 0.266859,0.01 -0.08602,-0.006 -0.174733,0.009 -0.258315,-0.012 -0.04358,-0.011 0.08898,-0.0127 0.133403,-0.0195 0.482832,-0.0742 -0.215509,0.0306 0.267165,-0.0414 0.278339,-0.041 0.559702,-0.0491 0.840507,-0.0544 0.426564,-0.005 0.853181,-0.004 1.279769,-0.003 0.312139,5.3e-4 0.624281,5.3e-4 0.936424,7.9e-4 0.336306,9e-5 0.672613,1.2e-4 1.008919,8e-5 -0.07797,0 -0.155942,2e-5 -0.233912,-1e-5 -0.05012,-3e-5 0.100226,-2e-5 0.150341,-2e-5 0.187148,-2e-5 0.374296,-3e-5 0.561443,-4e-5 0.267751,-10e-6 0.535501,-10e-6 0.803251,-10e-6 0.397436,0 0.79487,0 1.192306,0 0.267239,0 0.534482,0 0.801721,0 0.106538,0 1.117169,0 0.41038,0 0.267269,0 0.53454,0 0.801809,0 0.267271,0 0.53454,0 0.801809,0 0.269923,0.004 0.534625,-0.0608 0.801463,-0.0945 0.123732,-0.003 0.242956,-0.0341 0.362172,-0.0637 0,0 0.393496,0.0523 0.393496,0.0523 v 0 c -0.119642,0.0313 -0.238405,0.0686 -0.363537,0.0687 -0.267661,0.0317 -0.532368,0.098 -0.802153,0.0992 -0.267269,0 -0.534538,0 -0.80181,0 -0.267268,0 -0.53454,0 -0.801809,0 -0.397753,0 -0.795507,0 -1.193257,0 -0.267243,0 -0.534485,0 -0.801728,0 -0.11426,0 -0.586787,-1e-5 -0.0092,0 0.434745,0 -0.835194,0 -0.400235,0 -0.267787,0 -0.535572,0 -0.803359,-1e-5 -0.419881,-1e-5 -0.839761,-7e-5 -1.259642,-7e-5 -0.336322,-4e-5 -0.672645,-1e-5 -1.008965,-8e-5 -0.312393,-5e-5 -0.624787,-2.7e-4 -0.93718,-5.3e-4 -0.220247,-2.1e-4 -0.191043,-1.3e-4 0.108275,-2.1e-4 0.04876,-1e-5 -0.09751,-1e-5 -0.146267,5e-5 -0.09745,1.1e-4 -0.206322,2.6e-4 -0.303675,0.001 -0.05203,2.6e-4 -0.10405,10e-4 -0.156073,0.002 -0.280201,0.005 -0.561022,0.0109 -0.839052,0.0495 -0.395634,0.0573 -0.792075,0.10837 -1.193218,0.0661 -0.270107,-0.0196 -0.537789,-0.0558 -0.804383,-0.10357 -0.185391,-0.0187 -0.370258,-0.0137 -0.55649,-0.0137 -0.04872,0 -0.194861,0 -0.146146,-1e-5 0.08028,-10e-6 0.160563,0 0.240845,-10e-6 -0.293925,-1e-5 -0.587851,5e-5 -0.881779,6e-5 -0.266928,0 -0.533858,0 -0.800785,0 -0.400299,-1e-5 -0.800598,0 -1.200894,-2e-5 -0.299363,-2e-5 -0.598726,-5e-5 -0.898091,-7e-5 -0.07308,0 -1.063702,7.9e-4 -0.42567,-5e-5 0.06064,-8e-5 -0.121269,-10e-6 -0.181906,-2e-5 -0.382463,-2e-5 -0.764929,4e-5 -1.147392,8e-5 -0.406837,1.7e-4 -0.813673,2.7e-4 -1.22051,8e-4 -0.570111,8e-5 -1.140274,0.002 -1.710351,-0.006 -0.460486,-0.009 -0.921179,-0.0239 -1.379691,-0.0703 -0.07485,-0.007 -0.14968,-0.0151 -0.224539,-0.0224 -0.07471,-0.007 -0.157416,0.0128 -0.224176,-0.0215 -0.04581,-0.0236 0.204449,-0.005 0.15385,-0.0147 -0.225816,-0.0432 -0.475014,0.0348 -0.702432,-10e-6 -0.600511,3e-5 -1.201025,-4e-5 -1.801537,10e-6 -0.457703,-6e-5 -0.915405,7e-5 -1.373111,-10e-5 -0.399137,-9e-5 -0.798277,-2.7e-4 -1.197416,-5.3e-4 0.07143,-2e-5 0.142851,-4e-5 0.214275,-5e-5 0.05507,0 -0.110143,-2e-5 -0.165216,4e-5 -0.214199,2.3e-4 -0.428414,8e-4 -0.642578,0.005 -0.280784,0.007 -0.561978,0.0191 -0.839399,0.0667 -0.421986,0.0689 -0.848664,0.0708 -1.275024,0.0466 -0.374817,-0.0205 -0.749059,-0.0518 -1.120905,-0.10421 0,0 0.392981,-0.0565 0.392981,-0.0565 z"
       inkscape:connector-curvature="0" />
    <path
       style="opacity:1;fill:#3015e9;fill-opacity:1;fill-rule:nonzero;stroke:#3015e9;stroke-width:1;stroke-linecap:round;stroke-linejoin:round;stroke-miterlimit:4;stroke-dasharray:none;stroke-dashoffset:0;stroke-opacity:1;paint-order:stroke fill markers"
       id="path4503"
       d="m 41.735473,119.94033 c 0.350824,0.0834 0.698973,0.18088 1.038474,0.30302 0.255383,0.082 0.506573,0.17652 0.752668,0.28345 0.244128,0.0899 0.49536,0.16424 0.747614,0.22887 0.300861,0.064 0.599408,0.13649 0.895236,0.22065 0.305388,0.0786 0.6164,0.13614 0.919404,0.22358 0.316232,0.089 0.637876,0.16033 0.951002,0.26031 0.329232,0.0729 0.645798,0.18548 0.965557,0.28988 0.334391,0.0898 0.656733,0.21731 0.989722,0.31186 0.319095,0.11677 0.645676,0.21127 0.966409,0.32258 0.321268,0.0918 0.6394,0.18986 0.954381,0.30185 0.310274,0.10324 0.62457,0.19175 0.936615,0.28917 0.306652,0.11428 0.619611,0.21566 0.935175,0.30315 0.32208,0.10728 0.655468,0.17219 0.985626,0.24868 0.33206,0.0672 0.667496,0.12283 0.994478,0.2124 0.33823,0.0754 0.667917,0.17955 1.009198,0.24106 0.309475,0.0774 0.620916,0.14342 0.931166,0.21693 0.30339,0.0774 0.611974,0.14093 0.913324,0.22621 0.296799,0.077 0.596527,0.14346 0.896694,0.20705 0.335724,0.0399 0.664607,0.1169 0.999384,0.16335 0.339111,0.041 0.673147,0.11233 1.012756,0.15169 0.315436,0.075 0.640591,0.0978 0.956929,0.16494 0.30561,0.0697 0.616511,0.10018 0.92297,0.16565 0.283485,0.0421 0.556572,0.12862 0.837721,0.1823 0.267319,0.0537 0.538914,0.10226 0.802328,0.17396 0.27038,0.0632 0.529987,0.16061 0.801206,0.22048 0.266544,0.0601 0.538059,0.10868 0.801835,0.18072 0.268563,0.0623 0.533813,0.13585 0.801786,0.20067 0.266036,0.0687 0.537474,0.12265 0.801862,0.19781 0.269237,0.0729 0.539009,0.14739 0.801926,0.24104 0.266525,0.0908 0.537411,0.16951 0.801825,0.26631 0.266102,0.0925 0.537226,0.17089 0.801806,0.26762 0.255598,0.1344 0.529707,0.22432 0.801794,0.31812 0.268829,0.0829 0.535368,0.17279 0.801801,0.2633 0.265996,0.0675 0.533394,0.1303 0.801605,0.18974 0.238392,0.0479 0.464183,0.13379 0.705136,0.1734 0.242763,0.0674 0.48845,0.11166 0.727639,0.19063 0.230063,0.0428 0.442002,0.13777 0.660476,0.21481 0,0 -0.394695,0.0483 -0.394695,0.0483 v 0 c -0.216331,-0.0836 -0.432879,-0.16115 -0.659593,-0.21339 -0.238479,-0.0771 -0.484618,-0.12061 -0.72677,-0.18499 -0.239512,-0.0437 -0.465929,-0.1302 -0.704797,-0.17544 -0.268137,-0.0615 -0.537454,-0.11926 -0.802011,-0.19397 -0.266184,-0.0912 -0.533685,-0.17834 -0.801819,-0.26352 -0.271746,-0.0953 -0.544074,-0.18845 -0.801823,-0.31848 -0.26593,-0.0931 -0.535509,-0.1756 -0.801809,-0.26763 -0.265724,-0.0931 -0.535009,-0.17593 -0.801793,-0.26594 -0.264084,-0.0895 -0.532175,-0.16714 -0.801691,-0.23841 -0.265869,-0.0703 -0.534762,-0.13105 -0.801756,-0.19676 -0.267467,-0.0669 -0.533982,-0.13612 -0.801846,-0.20129 -0.265298,-0.0669 -0.534379,-0.12154 -0.801703,-0.17942 -0.270172,-0.0635 -0.530913,-0.15889 -0.801341,-0.22173 -0.264856,-0.0664 -0.533871,-0.12083 -0.802013,-0.17154 -0.280205,-0.0566 -0.554331,-0.13918 -0.837248,-0.18294 -0.306456,-0.0642 -0.618024,-0.0935 -0.92303,-0.16529 -0.317249,-0.0611 -0.639829,-0.0943 -0.956226,-0.16181 -0.339082,-0.0417 -0.673216,-0.11257 -1.012393,-0.15263 -0.334677,-0.0487 -0.664859,-0.12222 -1.000284,-0.16604 -0.300114,-0.0653 -0.600872,-0.12921 -0.897313,-0.20922 -0.302588,-0.0806 -0.608473,-0.15108 -0.912704,-0.22494 -0.309632,-0.0744 -0.62112,-0.13905 -0.930458,-0.21499 -0.340773,-0.0648 -0.671586,-0.16795 -1.009864,-0.24405 -0.328036,-0.0849 -0.662297,-0.14296 -0.994042,-0.21118 -0.330486,-0.077 -0.663866,-0.14323 -0.986444,-0.25043 -0.314994,-0.0904 -0.627814,-0.1911 -0.935275,-0.30427 -0.312,-0.098 -0.627153,-0.18479 -0.936692,-0.2907 -0.314716,-0.11223 -0.634449,-0.20508 -0.954145,-0.30138 -0.321488,-0.10831 -0.645607,-0.20873 -0.965973,-0.3207 -0.332258,-0.0974 -0.655899,-0.22164 -0.989925,-0.31334 -0.319275,-0.1063 -0.638117,-0.21122 -0.965901,-0.2892 -0.314238,-0.0959 -0.634466,-0.17089 -0.950807,-0.25919 -0.304292,-0.0832 -0.614415,-0.14375 -0.919596,-0.22367 -0.295998,-0.0839 -0.595609,-0.15261 -0.895842,-0.21975 -0.252408,-0.0675 -0.505508,-0.13909 -0.748718,-0.23456 -0.247002,-0.10285 -0.495888,-0.20037 -0.751033,-0.28116 -0.341088,-0.1184 -0.688295,-0.218 -1.039757,-0.3004 0,0 0.393602,-0.0512 0.393602,-0.0512 z"
       inkscape:connector-curvature="0" />
    <path
       style="opacity:1;fill:#3015e9;fill-opacity:1;fill-rule:nonzero;stroke:#3015e9;stroke-width:1;stroke-linecap:round;stroke-linejoin:round;stroke-miterlimit:4;stroke-dasharray:none;stroke-dashoffset:0;stroke-opacity:1;paint-order:stroke fill markers"
       id="path4505"
       d="m 63.209799,112.42433 c -0.295828,0.41289 -0.372184,0.3547 -0.887354,0.30364 -0.121049,-0.17389 -0.06333,-0.37473 -0.03482,-0.56817 0.05602,-0.2358 0.180348,-0.44368 0.318325,-0.63995 0.314756,-0.40516 0.537059,-0.35489 1.047028,-0.34611 0.260974,0.0879 0.362815,0.32206 0.380188,0.5795 0.0067,0.29092 -0.14377,0.52718 -0.325554,0.74038 -0.276805,0.24876 -0.727761,0.2598 -1.059397,0.10751 -0.238983,-0.10111 -0.352629,-0.27706 -0.32761,-0.5335 0.03865,-0.25491 0.197911,-0.40498 0.424929,-0.5024 0.389117,-0.075 0.704963,-0.12856 0.863547,0.2418 0.04023,0.22493 -0.07623,0.41901 -0.212947,0.58722 -0.310039,0.33577 -0.540126,0.28135 -0.993635,0.26725 -0.243332,-0.11452 -0.269857,-0.34897 -0.232254,-0.58854 0.08006,-0.26373 0.259014,-0.47295 0.470868,-0.64198 0.032,-0.0174 0.064,-0.0347 0.09599,-0.052 0,0 0.394793,0.0438 0.394793,0.0438 v 0 c -0.032,0.0148 -0.06401,0.0295 -0.09601,0.0443 -0.209499,0.1578 -0.386569,0.35906 -0.469124,0.61222 -0.0366,0.22188 -0.01117,0.44172 0.229036,0.52592 -0.09655,0.005 -0.192979,0.0138 -0.289652,0.0157 -0.03502,7.9e-4 0.07037,-0.004 0.104375,-0.0121 0.15159,-0.0374 0.283586,-0.13074 0.389197,-0.24236 0.131596,-0.15087 0.250013,-0.33441 0.212249,-0.54268 -0.04024,-0.0853 -0.07584,-0.16013 -0.169783,-0.19729 -0.02857,-0.0113 -0.120359,-0.0167 -0.08987,-0.0204 0.06199,-0.008 0.479348,-0.0125 0.18724,0.006 -0.22171,0.0825 -0.38264,0.21299 -0.421518,0.45944 -0.02744,0.24413 0.102116,0.39252 0.324194,0.48295 0.20475,0.0781 0.128278,0.0312 -0.157345,0.0605 -0.03925,0.004 0.07906,10e-4 0.118324,-0.003 0.09872,-0.01 0.130802,-0.0194 0.214937,-0.0739 0.03338,-0.0216 0.06265,-0.049 0.09398,-0.0734 0.180356,-0.20123 0.330189,-0.4284 0.324435,-0.70916 -0.01757,-0.24448 -0.120531,-0.46026 -0.375785,-0.52362 0.08877,-0.004 0.177498,-0.0163 0.266313,-0.013 0.0408,0.002 -0.08194,0.007 -0.121084,0.0184 -0.166444,0.0493 -0.298738,0.17532 -0.404299,0.30665 -0.137935,0.189 -0.257791,0.39282 -0.317024,0.62108 -0.02521,0.1741 -0.0908,0.37236 0.0343,0.52156 -0.112784,0.008 -0.226042,0.0108 -0.338349,0.0239 -0.02397,0.003 0.04828,0.0112 0.07206,0.007 0.0309,-0.005 0.06033,-0.019 0.08741,-0.0349 0.115089,-0.0673 0.195969,-0.17744 0.273445,-0.28224 0,0 0.396263,0.0233 0.396263,0.0233 z"
       inkscape:connector-curvature="0" />
    <path
       style="opacity:1;fill:#3015e9;fill-opacity:1;fill-rule:nonzero;stroke:#3015e9;stroke-width:1;stroke-linecap:round;stroke-linejoin:round;stroke-miterlimit:4;stroke-dasharray:none;stroke-dashoffset:0;stroke-opacity:1;paint-order:stroke fill markers"
       id="path4509"
       d="m 60.552205,125.18383 c 0.224039,-0.20633 0.703787,-0.53975 1.003139,-0.23919 0.05585,0.16222 -0.07108,0.30876 -0.171963,0.42416 -0.283914,0.23777 -0.674265,0.19896 -1.0227,0.16068 -0.279733,-0.0587 -0.468595,-0.23048 -0.548192,-0.50084 -0.02567,-0.26431 0.164676,-0.45255 0.342812,-0.62037 0.318649,-0.24785 0.688951,-0.20911 1.074611,-0.20605 0.2091,0.0281 0.39914,0.12167 0.470175,0.32804 0.04682,0.25366 -0.07987,0.46588 -0.207666,0.67222 -0.154493,0.22347 -0.371798,0.38167 -0.611794,0.50205 -0.336679,0.1357 -0.726204,0.15462 -1.064514,0.0139 -0.209465,-0.12007 -0.203115,-0.32064 -0.147121,-0.52802 0.08608,-0.20998 0.233132,-0.35808 0.426296,-0.47104 0.273111,-0.10546 0.763755,-0.24857 0.936038,0.0607 0,0 -0.397917,0.022 -0.397917,0.022 v 0 c -0.110255,-0.15952 -0.281652,-0.0724 0.197138,-0.11457 0.0362,-0.003 -0.073,-0.003 -0.108977,0.002 -0.08223,0.0117 -0.154638,0.043 -0.231642,0.0715 -0.191397,0.10165 -0.334037,0.23954 -0.423627,0.43965 -0.05411,0.19311 -0.06084,0.37016 0.144507,0.47011 0.163613,0.0625 0.398166,0.0551 -0.09559,0.0666 -0.03851,7.9e-4 0.07737,0.002 0.115522,-0.003 0.08693,-0.0121 0.173863,-0.0463 0.256135,-0.0744 0.238562,-0.11167 0.453322,-0.26435 0.609643,-0.47977 0.121121,-0.1955 0.253428,-0.39398 0.206084,-0.6362 -0.07565,-0.19034 -0.271698,-0.26217 -0.465146,-0.28194 0.66498,-0.0174 -0.0918,-0.0104 -0.286832,0.17869 -0.169542,0.15211 -0.361958,0.32912 -0.341572,0.57589 0.08106,0.25812 0.275802,0.4097 0.543899,0.45423 0.04176,0.003 0.166968,0.006 0.12527,0.0101 -0.0904,0.009 -0.182145,0.0139 -0.272447,0.004 -0.0379,-0.004 0.07527,-0.0125 0.112329,-0.0214 0.09803,-0.0236 0.19018,-0.0596 0.268597,-0.12448 0.08317,-0.088 0.222422,-0.22989 0.171183,-0.35968 -0.126199,-0.0791 -0.08252,-0.0407 0.273827,-0.0431 0.03429,-2.3e-4 -0.0691,0.005 -0.101634,0.016 -0.148685,0.0496 -0.267007,0.16178 -0.382066,0.26229 0,0 -0.395804,-0.0311 -0.395804,-0.0311 z"
       inkscape:connector-curvature="0" />
    <path
       style="opacity:1;fill:#3015e9;fill-opacity:1;fill-rule:nonzero;stroke:#3015e9;stroke-width:1;stroke-linecap:round;stroke-linejoin:round;stroke-miterlimit:4;stroke-dasharray:none;stroke-dashoffset:0;stroke-opacity:1;paint-order:stroke fill markers"
       id="path4511"
       d="m 98.900281,107.70389 c 0.247234,0.22807 0.503713,0.44743 0.740537,0.68648 0.177133,0.15237 0.333383,0.32459 0.487042,0.50011 0.20372,0.19066 0.38683,0.40229 0.57842,0.60504 0.22614,0.25338 0.48342,0.47433 0.72235,0.71474 0.19958,0.18197 0.39661,0.36783 0.58133,0.56512 0.19646,0.21424 0.40857,0.41182 0.60856,0.623 0.24195,0.20462 0.47363,0.42238 0.72301,0.6179 0.21291,0.1888 0.41098,0.39763 0.59297,0.61659 0.18339,0.21092 0.37907,0.40976 0.56319,0.62093 0.22872,0.23929 0.42331,0.50705 0.63413,0.7616 0.20272,0.26048 0.38421,0.53584 0.57706,0.80337 0.16402,0.22645 0.31286,0.46512 0.47967,0.68942 0.13831,0.21247 0.27681,0.42145 0.42845,0.62441 0.17313,0.19432 0.33875,0.39488 0.51483,0.5868 0.22609,0.21371 0.43506,0.44761 0.66836,0.6538 0.22017,0.19936 0.43088,0.40703 0.65467,0.60312 0.23657,0.17087 0.46007,0.35861 0.68324,0.54662 0.2423,0.20486 0.46714,0.42908 0.67416,0.66925 0.14795,0.16461 0.30947,0.31673 0.45596,0.48243 0.14941,0.13033 0.27037,0.28871 0.41574,0.42292 0.15063,0.15775 0.30452,0.31286 0.48568,0.43574 0.19212,0.15677 0.4028,0.2892 0.59632,0.44392 0.2016,0.17954 0.39595,0.37484 0.53988,0.60436 0.13903,0.20827 0.27119,0.41738 0.44888,0.5955 0.1677,0.18646 0.35843,0.34873 0.54846,0.51174 0.18806,0.15184 0.38565,0.2871 0.59236,0.41222 0.19628,0.1279 0.41325,0.21625 0.61628,0.33331 0.1995,0.10082 0.3884,0.22789 0.55118,0.38144 0.14633,0.14844 0.31634,0.26756 0.47692,0.39918 0.20484,0.14263 0.40063,0.29689 0.60324,0.44232 0.20143,0.13128 0.39012,0.27856 0.58192,0.42298 0.17496,0.1638 0.32566,0.35139 0.46973,0.54223 0.17413,0.16253 0.27895,0.37162 0.39956,0.57175 0.10667,0.17829 0.21869,0.35272 0.324,0.53225 0.13173,0.20669 0.27721,0.40333 0.42155,0.60136 0.15643,0.20442 0.35121,0.37397 0.52378,0.56437 0.13538,0.19551 0.29321,0.36958 0.46406,0.53424 0.18246,0.15223 0.37367,0.29598 0.54254,0.46353 0.14342,0.13154 0.28939,0.26261 0.42017,0.4071 0.13356,0.13285 0.27381,0.2601 0.39991,0.40032 0.15889,0.14711 0.33746,0.26994 0.51262,0.39682 0.23945,0.14973 0.48065,0.29742 0.71271,0.45855 0.26724,0.19168 0.5054,0.41941 0.72298,0.66511 0.071,0.091 0.0371,0.0551 0.0965,0.1123 0,0 -0.39801,0.0305 -0.39801,0.0305 v 0 c -0.0556,-0.0624 -0.0237,-0.025 -0.0934,-0.11397 -0.2181,-0.24216 -0.45373,-0.46866 -0.7217,-0.65573 -0.23382,-0.15951 -0.47561,-0.30696 -0.71411,-0.45932 -0.17695,-0.12741 -0.35729,-0.25267 -0.51412,-0.40475 -0.12909,-0.13745 -0.2664,-0.2671 -0.3999,-0.40018 -0.13357,-0.14118 -0.27613,-0.27416 -0.41964,-0.40504 -0.17211,-0.164 -0.3605,-0.30982 -0.54174,-0.46346 -0.17091,-0.16554 -0.32512,-0.34357 -0.46445,-0.53674 -0.17426,-0.19003 -0.36918,-0.36158 -0.52391,-0.56871 -0.14487,-0.19904 -0.29113,-0.39697 -0.42274,-0.60509 -0.1065,-0.17855 -0.21697,-0.35397 -0.32346,-0.53219 -0.11775,-0.20077 -0.23034,-0.40223 -0.39906,-0.56722 -0.14413,-0.18735 -0.29141,-0.37479 -0.46939,-0.53158 -0.18977,-0.14662 -0.38253,-0.28776 -0.58124,-0.4221 -0.20148,-0.14792 -0.40096,-0.2982 -0.60388,-0.44426 -0.16359,-0.12932 -0.32838,-0.25522 -0.47747,-0.4017 -0.16571,-0.14774 -0.35116,-0.27307 -0.54974,-0.37255 -0.20457,-0.11422 -0.42093,-0.2057 -0.61679,-0.33468 -0.20564,-0.12865 -0.40507,-0.26361 -0.59217,-0.41845 -0.19103,-0.16297 -0.37968,-0.32878 -0.54838,-0.51528 -0.17542,-0.18287 -0.31117,-0.39264 -0.45007,-0.60359 -0.14584,-0.22393 -0.33668,-0.41726 -0.53865,-0.59112 -0.19552,-0.15157 -0.40286,-0.28749 -0.59658,-0.44158 -0.17892,-0.12817 -0.33391,-0.28356 -0.48643,-0.44159 -0.14276,-0.13803 -0.26987,-0.29158 -0.41638,-0.4261 -0.14931,-0.1631 -0.30641,-0.31894 -0.45453,-0.48323 -0.20783,-0.23744 -0.4305,-0.46123 -0.67349,-0.66303 -0.22404,-0.18716 -0.44814,-0.37418 -0.68309,-0.54748 -0.22392,-0.19596 -0.43299,-0.40579 -0.65479,-0.60357 -0.23115,-0.21005 -0.44436,-0.44046 -0.6685,-0.65767 -0.17679,-0.1929 -0.34458,-0.39318 -0.51612,-0.59065 -0.15219,-0.20261 -0.28738,-0.41438 -0.42848,-0.62484 -0.16359,-0.22676 -0.31635,-0.4619 -0.47835,-0.68985 -0.19165,-0.2674 -0.37359,-0.54153 -0.57665,-0.80073 -0.21023,-0.2548 -0.40615,-0.52134 -0.6348,-0.76048 -0.18457,-0.21099 -0.38226,-0.40862 -0.56384,-0.62162 -0.18317,-0.21515 -0.37656,-0.42479 -0.59121,-0.60874 -0.24839,-0.19905 -0.48499,-0.41332 -0.724,-0.62342 -0.2005,-0.2107 -0.413,-0.40853 -0.60926,-0.6231 -0.18558,-0.19576 -0.38236,-0.38102 -0.58034,-0.56407 -0.2398,-0.23973 -0.49539,-0.46298 -0.72223,-0.7158 -0.19217,-0.20314 -0.377536,-0.41315 -0.579818,-0.60639 -0.153601,-0.17433 -0.312123,-0.34341 -0.486238,-0.49764 -0.238831,-0.23743 -0.492484,-0.45984 -0.741537,-0.68636 0,0 0.395804,-0.0311 0.395804,-0.0311 z"
       inkscape:connector-curvature="0" />
    <path
       style="opacity:1;fill:#3015e9;fill-opacity:1;fill-rule:nonzero;stroke:#3015e9;stroke-width:1;stroke-linecap:round;stroke-linejoin:round;stroke-miterlimit:4;stroke-dasharray:none;stroke-dashoffset:0;stroke-opacity:1;paint-order:stroke fill markers"
       id="path4515"
       d="m 109.3238,107.97116 c 0.24659,0.30722 0.5168,0.5919 0.7878,0.87692 0.20745,0.20026 0.43157,0.3846 0.62892,0.59492 0.19666,0.17242 0.36024,0.37465 0.55272,0.55142 0.1867,0.21682 0.39135,0.41571 0.58492,0.62607 0.22431,0.2407 0.44185,0.48886 0.68846,0.70712 0.27312,0.21591 0.52217,0.46035 0.79326,0.67828 0.23588,0.20045 0.47332,0.4049 0.69087,0.62573 0.19031,0.23812 0.436,0.4199 0.64673,0.6376 0.20959,0.23364 0.45209,0.43517 0.6821,0.64823 0.26821,0.24292 0.51278,0.51099 0.78682,0.74726 0.2157,0.20299 0.43056,0.40465 0.63353,0.62055 0.20342,0.22558 0.41572,0.44393 0.61223,0.67555 0.18765,0.22742 0.36259,0.46344 0.54634,0.69385 0.15689,0.20729 0.32099,0.41052 0.45754,0.63233 0.15041,0.20246 0.28486,0.41672 0.44183,0.61416 0.16719,0.21525 0.36336,0.40211 0.56051,0.58943 0.23594,0.19562 0.44493,0.42162 0.67655,0.62188 0.17977,0.1908 0.38342,0.35667 0.56617,0.54403 0.1783,0.15477 0.34741,0.31854 0.52306,0.47666 0.23239,0.17753 0.47946,0.33627 0.72939,0.488 0.26764,0.16281 0.51153,0.35982 0.76348,0.54484 0.21803,0.16603 0.43605,0.33106 0.65559,0.49514 0.20032,0.12281 0.38111,0.27275 0.56654,0.41642 0.19712,0.14454 0.38235,0.30349 0.57357,0.45541 0.18462,0.13077 0.36021,0.27274 0.53988,0.41009 0.18844,0.13549 0.37216,0.27907 0.57179,0.39849 0.21872,0.11743 0.42001,0.25876 0.62175,0.40219 0.16558,0.14152 0.3309,0.28134 0.47711,0.44341 0.15724,0.13735 0.26377,0.31996 0.37935,0.49167 0.10565,0.19446 0.2458,0.36609 0.37927,0.54176 0.15232,0.21507 0.25969,0.45689 0.39967,0.67905 0.1297,0.19489 0.25878,0.39374 0.40135,0.57986 0.16383,0.18686 0.24126,0.41514 0.34064,0.63668 0.0836,0.23011 0.15782,0.45873 0.25709,0.68323 0.1142,0.22818 0.27594,0.41354 0.47396,0.57214 0.16628,0.16269 0.35716,0.29095 0.54351,0.42727 0.21777,0.13403 0.4163,0.29544 0.62404,0.44419 0.2623,0.16712 0.52845,0.32873 0.78422,0.50579 0.24595,0.14987 0.46861,0.33423 0.70697,0.49531 0.23016,0.16731 0.47384,0.31688 0.68965,0.50288 0.16005,0.13056 0.31728,0.2683 0.45699,0.42087 0.13389,0.13261 0.27396,0.26024 0.39995,0.40067 0.0126,0.0227 0.0253,0.0454 0.0379,0.0682 0,0 -0.39781,0.021 -0.39781,0.021 v 0 c -0.0123,-0.0199 -0.0245,-0.0398 -0.0367,-0.0597 -0.12893,-0.1376 -0.26595,-0.2676 -0.39986,-0.40026 -0.14229,-0.14851 -0.29556,-0.28745 -0.4557,-0.41636 -0.21814,-0.18145 -0.45787,-0.33424 -0.68861,-0.49889 -0.23638,-0.16369 -0.46188,-0.3435 -0.7063,-0.49545 -0.25729,-0.17532 -0.52344,-0.33724 -0.78473,-0.50649 -0.20825,-0.1487 -0.40794,-0.3091 -0.62562,-0.44412 -0.18921,-0.13334 -0.37259,-0.27182 -0.5427,-0.42989 -0.19807,-0.16604 -0.36224,-0.35592 -0.47508,-0.59062 -0.0995,-0.22434 -0.17201,-0.454 -0.25775,-0.68324 -0.0959,-0.22054 -0.17918,-0.44247 -0.3402,-0.62758 -0.14018,-0.18937 -0.27408,-0.38523 -0.401,-0.58347 -0.13641,-0.2232 -0.24688,-0.46206 -0.4001,-0.67526 -0.13387,-0.17615 -0.27218,-0.34979 -0.37953,-0.54402 -0.11488,-0.17043 -0.22354,-0.34851 -0.37896,-0.48572 -0.14756,-0.15773 -0.30976,-0.2982 -0.4764,-0.43529 -0.19985,-0.14491 -0.40515,-0.27905 -0.62102,-0.39929 -0.19826,-0.12341 -0.38474,-0.26491 -0.57283,-0.40284 -0.17787,-0.13995 -0.3579,-0.27624 -0.53975,-0.41084 -0.18901,-0.15442 -0.37779,-0.30847 -0.57336,-0.45461 -0.18556,-0.1429 -0.36695,-0.29148 -0.56593,-0.41582 -0.21961,-0.16361 -0.43655,-0.33028 -0.65528,-0.49504 -0.24964,-0.18669 -0.49554,-0.37966 -0.76265,-0.54143 -0.25,-0.1549 -0.50083,-0.31121 -0.73074,-0.49509 -0.17647,-0.15803 -0.34651,-0.32217 -0.52392,-0.47894 -0.18466,-0.1841 -0.3826,-0.35447 -0.56473,-0.54131 -0.22931,-0.20355 -0.44257,-0.42506 -0.67664,-0.62347 -0.1985,-0.18829 -0.39386,-0.37822 -0.56164,-0.59517 -0.15492,-0.20059 -0.29431,-0.41261 -0.44222,-0.6184 -0.13811,-0.21901 -0.29982,-0.42232 -0.45686,-0.62771 -0.18417,-0.22955 -0.35621,-0.46753 -0.54609,-0.69254 -0.19829,-0.2295 -0.40672,-0.45045 -0.61205,-0.67365 -0.20267,-0.2142 -0.41723,-0.41497 -0.63208,-0.6168 -0.27167,-0.23944 -0.51879,-0.50516 -0.78718,-0.74837 -0.23096,-0.213 -0.47303,-0.41566 -0.68283,-0.65016 -0.21311,-0.21515 -0.45468,-0.40117 -0.64701,-0.63722 -0.21945,-0.21746 -0.45228,-0.42425 -0.68954,-0.62168 -0.26925,-0.22096 -0.52194,-0.46172 -0.7935,-0.68019 -0.24472,-0.222 -0.46484,-0.46899 -0.68972,-0.71076 -0.19367,-0.20905 -0.39549,-0.40982 -0.58481,-0.62293 -0.19168,-0.1781 -0.35724,-0.38014 -0.55319,-0.55393 -0.2002,-0.20714 -0.4211,-0.3937 -0.62708,-0.59508 -0.27132,-0.28509 -0.53678,-0.57426 -0.79016,-0.87575 0,0 0.39581,-0.0312 0.39581,-0.0312 z"
       inkscape:connector-curvature="0" />
    <path
       style="opacity:1;fill:#3015e9;fill-opacity:1;fill-rule:nonzero;stroke:#3015e9;stroke-width:1;stroke-linecap:round;stroke-linejoin:round;stroke-miterlimit:4;stroke-dasharray:none;stroke-dashoffset:0;stroke-opacity:1;paint-order:stroke fill markers"
       id="path4517"
       d="m 109.62938,118.3114 c -0.0648,0.36332 -0.22315,0.68431 -0.50536,0.9229 -0.33278,0.20658 -0.75356,0.25309 -0.97213,-0.11059 -0.10784,-0.24357 -0.10555,-0.49842 -0.0329,-0.75026 0.0662,-0.2397 0.16781,-0.43548 0.36864,-0.58541 0.30901,-0.15721 0.72873,-0.20126 1.05224,-0.074 0.22473,0.0768 0.29718,0.26672 0.34231,0.48137 0.0523,0.25052 0.0121,0.47822 -0.10061,0.70387 -0.14044,0.19976 -0.32546,0.36068 -0.56627,0.4131 -0.40141,0.0538 -0.78406,0.0176 -1.08985,-0.24937 -0.20634,-0.15315 -0.2844,-0.34805 -0.28306,-0.59763 0.0369,-0.24867 0.16807,-0.45322 0.3791,-0.58593 0.3118,-0.14179 0.64458,-0.10361 0.97945,-0.0973 0,0 -0.3926,0.0588 -0.3926,0.0588 v 0 c 0.64367,-0.0226 -0.0536,-0.007 -0.19191,0.0796 -0.2094,0.11531 -0.33894,0.30716 -0.37716,0.54499 -0.001,0.24049 0.0837,0.41737 0.28137,0.56281 0.10644,0.0853 0.20499,0.13907 0.33503,0.18301 0.041,0.0138 0.16519,0.023 0.12433,0.0372 -0.0859,0.0298 -0.18153,0.009 -0.27228,0.0142 -0.0381,0.002 0.0762,-0.004 0.11427,-0.005 0.24008,-0.0359 0.41899,-0.18474 0.5635,-0.3768 0.11253,-0.21644 0.15186,-0.43468 0.0998,-0.67676 -0.0459,-0.20786 -0.12152,-0.37344 -0.33986,-0.44084 -0.19575,-0.0596 -0.0902,-0.0165 0.19144,-0.0382 0.0368,-0.003 -0.0739,-0.007 -0.11076,-0.004 -0.11955,0.0101 -0.23626,0.0533 -0.34333,0.10461 -0.20403,0.13723 -0.30146,0.32502 -0.36726,0.55908 -0.0737,0.23981 -0.0749,0.48534 0.033,0.71639 0.0454,0.0679 0.0595,0.10657 0.13286,0.14835 0.0289,0.0165 0.1263,0.0263 0.0939,0.0339 -0.60833,0.14279 -0.14508,-0.0382 -0.0453,-0.0842 0.28454,-0.22411 0.44188,-0.53723 0.50248,-0.89353 0,0 0.39698,0.006 0.39698,0.006 z"
       inkscape:connector-curvature="0" />
    <path
       style="opacity:1;fill:#3015e9;fill-opacity:1;fill-rule:nonzero;stroke:#3015e9;stroke-width:1;stroke-linecap:round;stroke-linejoin:round;stroke-miterlimit:4;stroke-dasharray:none;stroke-dashoffset:0;stroke-opacity:1;paint-order:stroke fill markers"
       id="path4521"
       d="m 124.46676,122.76482 c -0.013,-0.28664 -0.0455,-0.60604 0.20256,-0.79898 0.37257,-0.13572 0.67765,-0.0429 0.75752,0.31673 0.04,0.24772 -0.11061,0.42762 -0.2951,0.57041 -0.27846,0.15346 -0.75069,0.27796 -0.95833,-0.03 -0.007,-0.0336 -0.0146,-0.0672 -0.022,-0.10085 0,0 0.39753,-0.009 0.39753,-0.009 v 0 c 0.007,0.0283 0.0143,0.0566 0.0214,0.0849 0.12496,0.1557 0.29279,0.10572 -0.17686,0.12277 -0.037,0.001 0.0744,-0.002 0.11052,-0.01 0.0918,-0.0198 0.14963,-0.0542 0.23278,-0.0948 0.1779,-0.12609 0.33144,-0.29072 0.29235,-0.52441 -0.0813,-0.33576 -0.44729,-0.28115 0.11872,-0.29881 0.0279,-7.9e-4 -0.0554,0.007 -0.0831,0.0112 -0.25936,0.16025 -0.21302,0.48694 -0.20113,0.75521 0,0 -0.39699,0.006 -0.39699,0.006 z"
       inkscape:connector-curvature="0" />
    <path
       style="opacity:1;fill:#3015e9;fill-opacity:1;fill-rule:nonzero;stroke:#3015e9;stroke-width:1;stroke-linecap:round;stroke-linejoin:round;stroke-miterlimit:4;stroke-dasharray:none;stroke-dashoffset:0;stroke-opacity:1;paint-order:stroke fill markers"
       id="path4523"
       d="m 104.3949,67.860843 c 0.30354,0.21847 0.59864,0.45233 0.84322,0.73661 0.18582,0.19415 0.33815,0.41704 0.48756,0.63946 0.12058,0.19939 0.26056,0.38369 0.39957,0.57006 0.161,0.17274 0.34563,0.32151 0.53406,0.46294 0.16986,0.16307 0.37176,0.2832 0.54774,0.43875 0.21631,0.14966 0.37457,0.36086 0.54797,0.55425 0.1393,0.17847 0.29783,0.3395 0.44253,0.51356 0.12417,0.17614 0.25097,0.35326 0.40179,0.50783 0.16798,0.17304 0.33773,0.34352 0.53058,0.48955 0.18631,0.17458 0.38902,0.33111 0.57001,0.51114 0.19876,0.20264 0.37802,0.42264 0.5685,0.63244 0.18924,0.19402 0.36277,0.40177 0.53746,0.60891 0.16559,0.1994 0.30507,0.41837 0.46108,0.62463 0.14117,0.21376 0.2985,0.41554 0.4479,0.62326 0.17863,0.22021 0.32879,0.45921 0.47636,0.70062 0.12265,0.25104 0.28005,0.48333 0.40099,0.73479 0.12603,0.20574 0.2361,0.42037 0.36829,0.62231 0.16127,0.244 0.28589,0.51 0.4426,0.7563 0.11744,0.20979 0.23021,0.42136 0.36866,0.6186 0.1823,0.2493 0.36339,0.49793 0.56395,0.7332 0.24273,0.27632 0.50208,0.53735 0.76089,0.79846 0.26701,0.26816 0.5351,0.53526 0.80292,0.80262 0.22333,0.22934 0.44872,0.46017 0.63029,0.72488 0.138,0.18914 0.29475,0.36351 0.42101,0.56112 0.14616,0.24073 0.2886,0.48374 0.43646,0.72369 0.18075,0.29163 0.42607,0.53312 0.64167,0.79745 0.16542,0.19831 0.34919,0.37999 0.51888,0.57414 0.16724,0.15679 0.31579,0.33385 0.42873,0.53343 0.12781,0.18998 0.22209,0.39833 0.33938,0.59489 0.12542,0.21826 0.22636,0.44782 0.33635,0.67384 0.0981,0.21287 0.23355,0.40007 0.37049,0.58834 0.1413,0.14576 0.26613,0.30748 0.41514,0.44561 0.16677,0.16489 0.29251,0.36381 0.44942,0.53706 0.14543,0.17232 0.25911,0.36772 0.40712,0.53771 0.16982,0.17563 0.38431,0.30214 0.58971,0.43202 0.17266,0.11916 0.31922,0.26813 0.47762,0.40401 0.20089,0.16232 0.3846,0.34397 0.55436,0.53823 0.14599,0.15836 0.30383,0.30588 0.44676,0.46692 0.14949,0.16322 0.25752,0.35536 0.37939,0.53804 0.0471,0.095 0.0345,0.0476 0.0444,0.14007 0,0 -0.3989,0.004 -0.3989,0.004 v 0 c -0.009,-0.0767 0.002,-0.0352 -0.0421,-0.12136 -0.11818,-0.18319 -0.23088,-0.37031 -0.37922,-0.5319 -0.14576,-0.15843 -0.29956,-0.30935 -0.44574,-0.46744 -0.17127,-0.19173 -0.35415,-0.37214 -0.55505,-0.53304 -0.15469,-0.13779 -0.30466,-0.28071 -0.47624,-0.39821 -0.20643,-0.13386 -0.42434,-0.2601 -0.59119,-0.4437 -0.14385,-0.17292 -0.26094,-0.36556 -0.40696,-0.53689 -0.15271,-0.17553 -0.28179,-0.37089 -0.44916,-0.53367 -0.14688,-0.14283 -0.27822,-0.30106 -0.41581,-0.45272 -0.13912,-0.18919 -0.26989,-0.38209 -0.37043,-0.59543 -0.10978,-0.22501 -0.20921,-0.45438 -0.33635,-0.67058 -0.11629,-0.19704 -0.21195,-0.4049 -0.33891,-0.59541 -0.1152,-0.19622 -0.26553,-0.36751 -0.42901,-0.52539 -0.17214,-0.19204 -0.35079,-0.37806 -0.51668,-0.5758 -0.21801,-0.26442 -0.46227,-0.50903 -0.6427,-0.80275 -0.14743,-0.24005 -0.29012,-0.48286 -0.43761,-0.72266 -0.12868,-0.19514 -0.28434,-0.36993 -0.42023,-0.55993 -0.18306,-0.26069 -0.40558,-0.49095 -0.62805,-0.71792 -0.26786,-0.26741 -0.536,-0.53454 -0.80297,-0.80284 -0.25931,-0.26187 -0.51912,-0.52374 -0.76169,-0.80141 -0.20068,-0.23678 -0.38236,-0.48675 -0.5657,-0.73689 -0.13736,-0.19849 -0.24995,-0.41078 -0.36842,-0.62055 -0.15336,-0.24823 -0.2816,-0.51163 -0.4425,-0.75563 -0.13192,-0.2038 -0.24531,-0.41846 -0.36909,-0.62722 -0.12239,-0.24925 -0.2754,-0.48256 -0.39994,-0.73102 -0.14723,-0.24079 -0.29985,-0.47721 -0.47701,-0.69751 -0.1504,-0.20682 -0.30494,-0.41048 -0.44792,-0.62268 -0.15278,-0.20797 -0.29619,-0.42267 -0.46044,-0.62228 -0.17445,-0.20669 -0.34908,-0.41311 -0.53706,-0.60769 -0.18821,-0.21138 -0.37029,-0.42818 -0.56941,-0.62984 -0.18283,-0.17619 -0.38018,-0.33673 -0.56885,-0.50653 -0.19156,-0.15023 -0.36357,-0.32062 -0.5323,-0.49554 -0.14732,-0.15894 -0.27599,-0.3341 -0.40162,-0.5104 -0.14515,-0.17279 -0.30246,-0.33469 -0.4417,-0.51242 -0.17095,-0.19443 -0.3345,-0.398 -0.54791,-0.54916 -0.17738,-0.1523 -0.37722,-0.27501 -0.54755,-0.43615 -0.1885,-0.14576 -0.37814,-0.29368 -0.53547,-0.4738 -0.14067,-0.18578 -0.27559,-0.37435 -0.39924,-0.57206 -0.14997,-0.22027 -0.30055,-0.44182 -0.48559,-0.63478 -0.24599,-0.27979 -0.53899,-0.51348 -0.84409,-0.72593 0,0 0.39503,-0.0389 0.39503,-0.0389 z"
       inkscape:connector-curvature="0" />
    <path
       style="opacity:1;fill:#3015e9;fill-opacity:1;fill-rule:nonzero;stroke:#3015e9;stroke-width:1;stroke-linecap:round;stroke-linejoin:round;stroke-miterlimit:4;stroke-dasharray:none;stroke-dashoffset:0;stroke-opacity:1;paint-order:stroke fill markers"
       id="path4523-5"
       d="m 105.84983,67.308963 c 0.30354,0.21847 0.59864,0.45233 0.84322,0.73661 0.18582,0.19415 0.33815,0.41704 0.48756,0.63946 0.12058,0.19939 0.26056,0.38369 0.39956,0.57006 0.16101,0.17274 0.34564,0.32151 0.53407,0.46294 0.16986,0.16307 0.37176,0.2832 0.54775,0.43875 0.2163,0.14966 0.37456,0.36086 0.54796,0.55425 0.1393,0.17847 0.29784,0.3395 0.44253,0.51356 0.12418,0.17614 0.25097,0.35326 0.4018,0.50783 0.16799,0.17304 0.33774,0.34352 0.53058,0.48955 0.18631,0.17458 0.38902,0.33111 0.57001,0.51114 0.19876,0.20264 0.37802,0.42264 0.5685,0.63244 0.18924,0.19402 0.36277,0.40177 0.53746,0.60891 0.16559,0.1994 0.30507,0.41837 0.46108,0.62463 0.14117,0.21376 0.2985,0.41554 0.4479,0.62326 0.17863,0.22021 0.32879,0.45921 0.47636,0.70062 0.12265,0.25104 0.28005,0.48333 0.40099,0.73479 0.12603,0.20574 0.2361,0.42037 0.36829,0.62231 0.16127,0.244 0.28589,0.51 0.4426,0.7563 0.11744,0.20979 0.23021,0.42136 0.36866,0.6186 0.1823,0.2493 0.36339,0.49793 0.56395,0.7332 0.24273,0.27632 0.50208,0.53735 0.76089,0.79846 0.26701,0.26816 0.5351,0.53526 0.80292,0.80262 0.22333,0.22934 0.44872,0.46017 0.63029,0.72488 0.138,0.18914 0.29475,0.36351 0.42101,0.56112 0.14616,0.24073 0.2886,0.48374 0.43646,0.72369 0.18075,0.29163 0.42607,0.53312 0.64167,0.79745 0.16542,0.19831 0.34919,0.37999 0.51888,0.57414 0.16724,0.15679 0.31579,0.33385 0.42873,0.53343 0.12781,0.18998 0.22209,0.39833 0.33938,0.59489 0.12542,0.21826 0.22636,0.44782 0.33635,0.67384 0.0981,0.21287 0.23355,0.40007 0.37049,0.58834 0.1413,0.14576 0.26613,0.30748 0.41514,0.44561 0.16677,0.16489 0.29251,0.36381 0.44942,0.53706 0.14543,0.17232 0.25911,0.36772 0.40712,0.53771 0.16982,0.17563 0.38431,0.30214 0.58971,0.43202 0.17266,0.11916 0.31922,0.26813 0.47762,0.40401 0.20089,0.16232 0.3846,0.34397 0.55436,0.53823 0.14599,0.15836 0.30383,0.30588 0.44676,0.46692 0.14949,0.16322 0.25752,0.35536 0.37939,0.53804 0.0471,0.095 0.0345,0.0476 0.0444,0.14007 0,0 -0.3989,0.004 -0.3989,0.004 v 0 c -0.009,-0.0767 0.002,-0.0352 -0.0421,-0.12136 -0.11818,-0.18319 -0.23088,-0.37031 -0.37922,-0.5319 -0.14576,-0.15843 -0.29956,-0.30935 -0.44574,-0.46744 -0.17127,-0.19173 -0.35415,-0.37214 -0.55505,-0.53304 -0.15469,-0.13779 -0.30466,-0.28071 -0.47624,-0.39821 -0.20643,-0.13386 -0.42434,-0.2601 -0.59119,-0.4437 -0.14385,-0.17292 -0.26094,-0.36556 -0.40696,-0.53689 -0.15271,-0.17553 -0.28179,-0.37089 -0.44916,-0.53367 -0.14688,-0.14283 -0.27822,-0.30106 -0.41581,-0.45272 -0.13912,-0.18919 -0.26989,-0.38209 -0.37043,-0.59543 -0.10978,-0.22501 -0.20921,-0.45438 -0.33635,-0.67058 -0.11629,-0.19704 -0.21195,-0.4049 -0.33891,-0.59541 -0.1152,-0.19622 -0.26553,-0.36751 -0.42901,-0.52539 -0.17214,-0.19204 -0.35079,-0.37806 -0.51668,-0.5758 -0.21801,-0.26442 -0.46227,-0.50903 -0.6427,-0.80275 -0.14743,-0.24005 -0.29012,-0.48286 -0.43761,-0.72266 -0.12868,-0.19514 -0.28434,-0.36993 -0.42023,-0.55993 -0.18306,-0.26069 -0.40558,-0.49095 -0.62805,-0.71792 -0.26786,-0.26741 -0.536,-0.53454 -0.80297,-0.80284 -0.25931,-0.26187 -0.51912,-0.52374 -0.76169,-0.80141 -0.20068,-0.23678 -0.38236,-0.48675 -0.5657,-0.73689 -0.13736,-0.19849 -0.24995,-0.41078 -0.36842,-0.62055 -0.15336,-0.24823 -0.2816,-0.51163 -0.4425,-0.75563 -0.13192,-0.2038 -0.24531,-0.41846 -0.36909,-0.62722 -0.12239,-0.24925 -0.2754,-0.48256 -0.39994,-0.73102 -0.14723,-0.24079 -0.29985,-0.47721 -0.47701,-0.69751 -0.1504,-0.20682 -0.30494,-0.41048 -0.44792,-0.62268 -0.15278,-0.20797 -0.29619,-0.42267 -0.46044,-0.62228 -0.17445,-0.20669 -0.34908,-0.41311 -0.53706,-0.60769 -0.18821,-0.21138 -0.37029,-0.42818 -0.56941,-0.62984 -0.18283,-0.17619 -0.38017,-0.33673 -0.56884,-0.50653 -0.19157,-0.15023 -0.36359,-0.32062 -0.53231,-0.49554 -0.14732,-0.15894 -0.27599,-0.3341 -0.40163,-0.5104 -0.14515,-0.17279 -0.30245,-0.33469 -0.44169,-0.51242 -0.17095,-0.19443 -0.33451,-0.398 -0.54792,-0.54916 -0.17738,-0.1523 -0.37722,-0.27501 -0.54756,-0.43615 -0.1885,-0.14576 -0.37813,-0.29368 -0.53546,-0.4738 -0.14067,-0.18578 -0.27559,-0.37435 -0.39924,-0.57206 -0.14997,-0.22027 -0.30055,-0.44182 -0.48559,-0.63478 -0.24599,-0.27979 -0.53899,-0.51348 -0.84409,-0.72593 0,0 0.39503,-0.0389 0.39503,-0.0389 z"
       inkscape:connector-curvature="0" />
    <path
       style="opacity:1;fill:#3015e9;fill-opacity:1;fill-rule:nonzero;stroke:#3015e9;stroke-width:1;stroke-linecap:round;stroke-linejoin:round;stroke-miterlimit:4;stroke-dasharray:none;stroke-dashoffset:0;stroke-opacity:1;paint-order:stroke fill markers"
       id="path4556"
       d="m 108.6294,72.589093 c -0.23577,0.2121 -0.67565,0.4889 -0.99037,0.2285 -0.0654,-0.15632 0.0622,-0.30214 0.15997,-0.41426 0.25062,-0.20263 0.67122,-0.25183 0.94678,-0.0748 0.17985,0.10865 0.29162,0.25709 0.23529,0.46698 -0.18029,0.31028 -0.62664,0.23207 -0.91659,0.23272 -0.28307,-0.0222 -0.42289,-0.12186 -0.46272,-0.40487 0.01,-0.24058 0.12036,-0.39105 0.3348,-0.48759 0.25069,-0.0571 0.5708,-0.12521 0.80238,0.01 0.009,0.005 0.13857,0.11397 0.14693,0.12095 0.16619,0.16494 0.16192,0.38701 0.1163,0.60212 -0.0866,0.249 -0.29261,0.369 -0.54266,0.40349 -0.32595,-0.002 -0.79122,0.0833 -0.93852,-0.29446 -0.0244,-0.20143 0.12252,-0.32509 0.26759,-0.43702 0,0 0.39493,0.0369 0.39493,0.0369 v 0 c -0.13194,0.0946 -0.28464,0.20321 -0.26511,0.38451 0.0621,0.13983 0.15256,0.18613 0.29999,0.22373 0.0375,0.01 0.15186,0.0161 0.11381,0.0232 -0.0869,0.0162 -0.17674,0.003 -0.26512,0.005 0.23963,-0.0144 0.44869,-0.11864 0.53801,-0.35392 0.0464,-0.20244 0.0484,-0.40898 -0.11536,-0.55843 -0.0337,-0.0272 -0.10445,-0.0881 -0.14537,-0.10706 -0.0284,-0.0132 -0.12089,-0.0215 -0.0901,-0.0271 0.0951,-0.0171 0.19322,-0.003 0.28967,-0.009 0.0342,-0.002 -0.0687,-0.005 -0.10279,-0.002 -0.0375,0.004 -0.0734,0.0171 -0.11016,0.0256 -0.20848,0.0784 -0.31991,0.20466 -0.33209,0.43507 0.0415,0.26989 0.19769,0.33419 0.45756,0.34929 -0.60479,0.012 0.0158,0.0282 0.12639,-0.18233 0.0581,-0.19372 -0.0702,-0.31888 -0.23239,-0.4145 -0.17719,-0.0912 -0.109,-0.0374 0.20914,-0.0638 0.032,-0.003 -0.0646,-0.002 -0.0962,0.003 -0.0982,0.0163 -0.18958,0.0641 -0.2677,0.12358 -0.0779,0.0824 -0.22099,0.22546 -0.15961,0.34601 0.13012,0.0663 0.10596,0.0446 -0.26623,0.038 -0.0353,-5.3e-4 0.0707,-0.007 0.10411,-0.0189 0.13818,-0.0473 0.25104,-0.14661 0.35961,-0.23979 0,0 0.3958,0.0311 0.3958,0.0311 z"
       inkscape:connector-curvature="0" />
    <path
       style="opacity:1;fill:#3015e9;fill-opacity:1;fill-rule:nonzero;stroke:#3015e9;stroke-width:1;stroke-linecap:round;stroke-linejoin:round;stroke-miterlimit:4;stroke-dasharray:none;stroke-dashoffset:0;stroke-opacity:1;paint-order:stroke fill markers"
       id="path4584"
       d="m 119.34641,83.115093 c 0.13843,0.16633 0.35412,0.39471 0.22584,0.62132 -0.30987,0.20158 -0.62234,0.0499 -0.70212,-0.24661 -0.007,-0.22563 0.14773,-0.35219 0.35603,-0.38332 0.15882,0.006 0.31883,-10e-4 0.47646,0.0192 0.0287,0.004 0.0468,0.0341 0.0698,0.0516 0.10781,0.0815 0.17016,0.16299 0.2063,0.29382 0.0315,0.20145 -0.0931,0.3169 -0.28228,0.33656 -0.31842,0.005 -0.67295,0.0297 -0.73028,-0.33977 0.0236,-0.20148 0.15221,-0.37073 0.33154,-0.46005 0.35947,-0.10062 0.67416,-0.0369 0.89112,0.24384 0.11055,0.18605 0.10209,0.37512 -0.0656,0.51541 -0.0913,0.0501 -0.19,0.0853 -0.29577,0.0807 -0.38271,-0.0168 -0.44782,0.0683 -0.59854,-0.1766 -0.0539,-0.1651 -0.0151,-0.31655 0.13949,-0.40283 0,0 0.39699,0.0449 0.39699,0.0449 v 0 c -0.14924,0.0589 -0.19439,0.1832 -0.13942,0.33471 0.0168,0.0236 0.03,0.0503 0.0505,0.0708 0.0192,0.0192 0.093,0.0393 0.0669,0.0466 -0.0993,0.0278 -0.20615,0.01 -0.30861,0.0211 -0.12665,0.0143 0.36325,-0.002 0.29234,-0.0561 0.16915,-0.11296 0.17177,-0.28465 0.0654,-0.45165 -0.20646,-0.24364 -0.56561,-0.22555 -0.0159,-0.23455 0.028,-5.3e-4 -0.0556,0.007 -0.0835,0.01 -0.17473,0.0638 -0.3006,0.22307 -0.32864,0.40737 0.0593,0.33887 0.55609,0.25444 -0.0614,0.28589 0.17059,0.001 0.31004,-0.0708 0.27786,-0.26497 -0.10404,-0.34153 -0.55109,-0.3003 0.0389,-0.31764 -0.19017,0.0103 -0.35693,0.10029 -0.35168,0.3141 0.0252,0.0842 0.0511,0.14838 0.12733,0.20075 0.0203,0.0139 0.0913,0.027 0.067,0.031 -0.11175,0.0182 -0.22625,0.009 -0.33938,0.0134 0.017,-0.004 0.034,-0.007 0.051,-0.0111 0.15099,-0.18216 -0.11601,-0.4346 -0.22335,-0.56654 0,0 0.3958,-0.0311 0.3958,-0.0311 z"
       inkscape:connector-curvature="0" />
    <path
       style="opacity:1;fill:#3015e9;fill-opacity:1;fill-rule:nonzero;stroke:#3015e9;stroke-width:1;stroke-linecap:round;stroke-linejoin:round;stroke-miterlimit:4;stroke-dasharray:none;stroke-dashoffset:0;stroke-opacity:1;paint-order:stroke fill markers"
       id="path4588"
       d="m 72.260869,77.414501 c 0.0146,0.05687 0.02919,0.113744 0.04379,0.170616 0,0 -0.13158,0.0033 -0.13158,0.0033 v 0 c -0.01482,-0.05676 -0.02964,-0.113514 -0.04447,-0.17027 0,0 0.132254,-0.0037 0.132254,-0.0037 z"
       inkscape:connector-curvature="0" />
    <path
       style="opacity:1;fill:#3015e9;fill-opacity:1;fill-rule:nonzero;stroke:#3015e9;stroke-width:1;stroke-linecap:round;stroke-linejoin:round;stroke-miterlimit:4;stroke-dasharray:none;stroke-dashoffset:0;stroke-opacity:1;paint-order:stroke fill markers"
       id="path4590"
       d="m 72.661771,79.285388 c 0.0146,0.05687 0.0292,0.113744 0.0438,0.170617 0,0 -0.13158,0.0033 -0.13158,0.0033 v 0 c -0.01482,-0.05676 -0.02965,-0.113511 -0.04447,-0.17027 0,0 0.132252,-0.0037 0.132252,-0.0037 z"
       inkscape:connector-curvature="0" />
    <path
       style="opacity:1;fill:#3015e9;fill-opacity:1;fill-rule:nonzero;stroke:#3015e9;stroke-width:1;stroke-linecap:round;stroke-linejoin:round;stroke-miterlimit:4;stroke-dasharray:none;stroke-dashoffset:0;stroke-opacity:1;paint-order:stroke fill markers"
       id="path4592"
       d="m 73.298028,81.158117 c -1.11e-4,0.05681 -2.25e-4,0.113628 -2.65e-4,0.170442 0,0 -0.131685,0 -0.131685,0 v 0 c -1.12e-4,-0.05681 -2.23e-4,-0.113628 -2.65e-4,-0.170442 0,0 0.132355,0 0.132355,0 z"
       inkscape:connector-curvature="0" />
    <path
       style="opacity:1;fill:#3015e9;fill-opacity:1;fill-rule:nonzero;stroke:#3015e9;stroke-width:1;stroke-linecap:round;stroke-linejoin:round;stroke-miterlimit:4;stroke-dasharray:none;stroke-dashoffset:0;stroke-opacity:1;paint-order:stroke fill markers"
       id="path4594"
       d="m 73.58127,82.894429 c 0.0019,0.05705 0.0038,0.114099 0.0058,0.171146 0,0 -0.131684,5.29e-4 -0.131684,5.29e-4 v 0 c -0.0021,-0.05658 -0.0043,-0.11316 -0.0064,-0.169738 0,0 0.132328,-0.0019 0.132328,-0.0019 z"
       inkscape:connector-curvature="0" />
    <path
       style="opacity:1;fill:#3015e9;fill-opacity:1;fill-rule:nonzero;stroke:#3015e9;stroke-width:1;stroke-linecap:round;stroke-linejoin:round;stroke-miterlimit:4;stroke-dasharray:none;stroke-dashoffset:0;stroke-opacity:1;paint-order:stroke fill markers"
       id="path4596"
       d="m 63.109763,114.03411 c -0.06134,0.23486 -0.03127,0.11311 -0.08953,0.3654 0,0 -0.131307,-0.003 -0.131307,-0.003 v 0 c 0.05791,-0.25273 0.02818,-0.13075 0.08859,-0.36612 0,0 0.132252,0.004 0.132252,0.004 z"
       inkscape:connector-curvature="0" />
    <path
       style="opacity:1;fill:#3015e9;fill-opacity:1;fill-rule:nonzero;stroke:#3015e9;stroke-width:1;stroke-linecap:round;stroke-linejoin:round;stroke-miterlimit:4;stroke-dasharray:none;stroke-dashoffset:0;stroke-opacity:1;paint-order:stroke fill markers"
       id="path4598"
       d="m 62.591249,116.305 c -0.03094,0.2353 -0.01582,0.11346 -0.04501,0.36557 0,0 -0.131376,-0.002 -0.131376,-0.002 v 0 c 0.02883,-0.25234 0.01405,-0.13037 0.04406,-0.36594 0,0 0.132329,0.002 0.132329,0.002 z"
       inkscape:connector-curvature="0" />
    <path
       style="opacity:1;fill:#3015e9;fill-opacity:1;fill-rule:nonzero;stroke:#3015e9;stroke-width:1;stroke-linecap:round;stroke-linejoin:round;stroke-miterlimit:4;stroke-dasharray:none;stroke-dashoffset:0;stroke-opacity:1;paint-order:stroke fill markers"
       id="path4600"
       d="m 61.923075,118.57679 c -0.0075,0.0568 -0.01492,0.11357 -0.02241,0.17035 0,0 -0.131657,-0.002 -0.131657,-0.002 v 0 c 0.0072,-0.0568 0.0145,-0.11369 0.02172,-0.17053 0,0 0.132329,0.002 0.132329,0.002 z"
       inkscape:connector-curvature="0" />
    <path
       style="opacity:1;fill:#3015e9;fill-opacity:1;fill-rule:nonzero;stroke:#3015e9;stroke-width:1;stroke-linecap:round;stroke-linejoin:round;stroke-miterlimit:4;stroke-dasharray:none;stroke-dashoffset:0;stroke-opacity:1;paint-order:stroke fill markers"
       id="path4602"
       d="m 61.52217,120.44768 c -0.02217,0.24455 -0.06621,0.48407 -0.119282,0.72349 0,0 -0.13158,-0.003 -0.13158,-0.003 v 0 c 0.05325,-0.23904 0.09786,-0.47808 0.118534,-0.7225 0,0 0.132328,0.002 0.132328,0.002 z"
       inkscape:connector-curvature="0" />
    <path
       style="opacity:1;fill:#3015e9;fill-opacity:1;fill-rule:nonzero;stroke:#3015e9;stroke-width:1;stroke-linecap:round;stroke-linejoin:round;stroke-miterlimit:4;stroke-dasharray:none;stroke-dashoffset:0;stroke-opacity:1;paint-order:stroke fill markers"
       id="path4604"
       d="m 60.98763,122.58583 c -0.0075,0.0568 -0.01492,0.11357 -0.02241,0.17035 0,0 -0.131659,-0.002 -0.131659,-0.002 v 0 c 0.0072,-0.0568 0.0145,-0.11369 0.02172,-0.17054 0,0 0.132329,0.002 0.132329,0.002 z"
       inkscape:connector-curvature="0" />
    <path
       style="opacity:1;fill:#3015e9;fill-opacity:1;fill-rule:nonzero;stroke:#3015e9;stroke-width:1;stroke-linecap:round;stroke-linejoin:round;stroke-miterlimit:4;stroke-dasharray:none;stroke-dashoffset:0;stroke-opacity:1;paint-order:stroke fill markers"
       id="path4610"
       d="m 111.09443,118.63785 c 0.36045,0.14802 0.72395,0.28751 1.08131,0.44281 0,0 -0.13086,0.0153 -0.13086,0.0153 v 0 c -0.35735,-0.15561 -0.72121,-0.29471 -1.0818,-0.44268 0,0 0.13135,-0.0154 0.13135,-0.0154 z"
       inkscape:connector-curvature="0" />
    <path
       style="opacity:1;fill:#3015e9;fill-opacity:1;fill-rule:nonzero;stroke:#3015e9;stroke-width:1;stroke-linecap:round;stroke-linejoin:round;stroke-miterlimit:4;stroke-dasharray:none;stroke-dashoffset:0;stroke-opacity:1;paint-order:stroke fill markers"
       id="path4612"
       d="m 114.43512,119.67323 c 0.24765,0.0439 0.4852,0.12029 0.72276,0.20066 0,0 -0.13053,0.0163 -0.13053,0.0163 v 0 c -0.23753,-0.0801 -0.4754,-0.15573 -0.72322,-0.19815 0,0 0.13099,-0.0188 0.13099,-0.0188 z"
       inkscape:connector-curvature="0" />
    <path
       style="opacity:1;fill:#3015e9;fill-opacity:1;fill-rule:nonzero;stroke:#3015e9;stroke-width:1;stroke-linecap:round;stroke-linejoin:round;stroke-miterlimit:4;stroke-dasharray:none;stroke-dashoffset:0;stroke-opacity:1;paint-order:stroke fill markers"
       id="path4614"
       d="m 117.10799,120.77601 c 0.18703,0.0741 0.37751,0.13785 0.56557,0.2093 0,0 -0.13023,0.0158 -0.13023,0.0158 v 0 c -0.18853,-0.0712 -0.37939,-0.1353 -0.56669,-0.20973 0,0 0.13135,-0.0154 0.13135,-0.0154 z"
       inkscape:connector-curvature="0" />
    <path
       style="opacity:1;fill:#3015e9;fill-opacity:1;fill-rule:nonzero;stroke:#3015e9;stroke-width:1;stroke-linecap:round;stroke-linejoin:round;stroke-miterlimit:4;stroke-dasharray:none;stroke-dashoffset:0;stroke-opacity:1;paint-order:stroke fill markers"
       id="path4616"
       d="m 119.78037,121.92811 c 0.23654,-0.01 0.47064,0.026 0.70038,0.078 0,0 -0.13042,0.0177 -0.13042,0.0177 v 0 c -0.23011,-0.0505 -0.46415,-0.0851 -0.70068,-0.075 0,0 0.13072,-0.0207 0.13072,-0.0207 z"
       inkscape:connector-curvature="0" />
    <path
       style="opacity:1;fill:#3015e9;fill-opacity:1;fill-rule:nonzero;stroke:#3015e9;stroke-width:1;stroke-linecap:round;stroke-linejoin:round;stroke-miterlimit:4;stroke-dasharray:none;stroke-dashoffset:0;stroke-opacity:1;paint-order:stroke fill markers"
       id="path4618"
       d="m 121.78521,122.6469 c 0.18358,0.0785 0.37455,0.13596 0.56554,0.19284 0,0 -0.13017,0.0168 -0.13017,0.0168 v 0 c -0.19135,-0.0575 -0.38265,-0.11563 -0.56672,-0.19422 0,0 0.13135,-0.0154 0.13135,-0.0154 z"
       inkscape:connector-curvature="0" />
    <path
       style="opacity:1;fill:#3015e9;fill-opacity:1;fill-rule:nonzero;stroke:#3015e9;stroke-width:1;stroke-linecap:round;stroke-linejoin:round;stroke-miterlimit:4;stroke-dasharray:none;stroke-dashoffset:0;stroke-opacity:1;paint-order:stroke fill markers"
       id="path4620"
       d="m 38.33922,72.445078 c -0.258165,0.286285 -0.490397,0.595784 -0.708832,0.913146 -0.186859,0.278913 -0.360302,0.566711 -0.538043,0.851588 -0.155941,0.266806 -0.300863,0.539345 -0.433481,0.818441 -0.137829,0.33206 -0.241244,0.677815 -0.346646,1.021318 -0.116991,0.401241 -0.205481,0.806114 -0.254458,1.221198 -0.04043,0.391517 -0.04373,0.785399 -0.04615,1.178578 -0.0048,0.349007 -0.0086,0.695439 0.03925,1.041535 0.0358,0.31687 0.09016,0.629415 0.148272,0.942782 0.03915,0.287882 0.0921,0.574323 0.17489,0.853067 0.06604,0.247073 0.155948,0.486553 0.255061,0.722164 0.07885,0.249695 0.249036,0.450231 0.386741,0.668131 0.166809,0.266978 0.365408,0.513075 0.5929,0.730324 0.196987,0.226163 0.427511,0.409792 0.674137,0.577705 0.251158,0.155577 0.517871,0.282416 0.779039,0.419587 0.274566,0.126769 0.55577,0.24067 0.840229,0.343691 0.34348,0.116506 0.69601,0.199392 1.046313,0.291909 0.373939,0.07202 0.745379,0.158216 1.122442,0.213029 0.368951,0.04915 0.733499,0.119843 1.104392,0.156451 0.378169,0.03349 0.751705,0.10087 1.130208,0.134287 0.416205,0.0318 0.833927,0.03354 1.251103,0.03596 0.434025,-0.019 0.864,0.04156 1.295046,0.08126 0.418703,0.01667 0.833241,0.05954 1.248746,0.111524 0.396909,0.02766 0.78967,0.07729 1.183552,0.131752 0.367144,0.04202 0.729848,0.115208 1.086983,0.208986 0.330877,0.06758 0.653621,0.169855 0.964049,0.302237 0.305707,0.116276 0.615968,0.220136 0.922271,0.335684 0.30779,0.13775 0.632981,0.230683 0.950045,0.344729 0.336317,0.11929 0.672028,0.243289 1.001879,0.379732 0.33677,0.124542 0.679498,0.234969 1.021501,0.345112 0.356094,0.124989 0.708342,0.260932 1.06431,0.386448 0.392165,0.134527 0.779142,0.281834 1.162508,0.439634 0.410945,0.180412 0.824685,0.354296 1.240176,0.523957 0.419634,0.200838 0.837517,0.404892 1.255141,0.610182 0.440735,0.196268 0.888783,0.373772 1.336175,0.554041 0.459147,0.197717 0.940112,0.326056 1.426125,0.437131 0.526629,0.123148 1.051412,0.254124 1.578139,0.376878 0.560472,0.134667 1.131104,0.203946 1.700998,0.282593 0.643784,0.07715 1.28528,0.171093 1.931205,0.229463 0.675796,0.07301 1.349626,0.162139 2.025282,0.236124 0.694081,0.07001 1.386263,0.14945 2.0829,0.191098 0.665247,0.06858 1.33141,0.12155 1.99956,0.150006 0.568163,-0.0035 1.132271,0.07227 1.700125,0.06654 0.554164,-0.01257 1.10822,-0.0282 1.662477,-0.03634 0.53085,-0.03714 1.06098,-0.08115 1.588135,-0.154215 0.487056,-0.04899 0.960446,-0.174812 1.439485,-0.268639 0.430866,-0.09777 0.862933,-0.194842 1.274632,-0.357349 0.396685,-0.135191 0.763969,-0.337695 1.137793,-0.523909 0.370756,-0.175647 0.681861,-0.444905 1.021199,-0.670145 0.307232,-0.182734 0.558216,-0.438462 0.808051,-0.690245 0.242276,-0.242853 0.394576,-0.542549 0.544947,-0.845611 0.155866,-0.387101 0.291131,-0.782248 0.431165,-1.175348 0.158334,-0.425876 0.305199,-0.85599 0.438105,-1.290452 0.120531,-0.415578 0.215468,-0.837179 0.31102,-1.258985 0.09709,-0.43307 0.119131,-0.87625 0.133093,-1.318221 -0.03398,-0.480052 -0.06263,-0.961779 -0.11707,-1.44005 -0.04694,-0.483526 -0.141256,-0.958517 -0.247576,-1.431745 -0.113559,-0.464997 -0.292468,-0.909683 -0.459121,-1.357164 -0.176334,-0.448043 -0.346628,-0.898454 -0.548801,-1.335723 -0.19957,-0.417997 -0.421225,-0.82555 -0.621969,-1.242819 -0.191627,-0.379974 -0.397193,-0.753026 -0.601417,-1.126466 -0.214087,-0.365456 -0.438663,-0.724459 -0.656868,-1.08747 -0.197051,-0.348347 -0.46719,-0.64367 -0.713118,-0.956196 -0.213796,-0.287062 -0.450977,-0.554858 -0.694944,-0.816292 -0.23849,-0.290971 -0.54637,-0.499473 -0.847108,-0.718593 C 80.7015,71.957266 80.392591,71.70489 80.083714,71.452621 79.77607,71.162087 79.403148,70.96212 79.050371,70.734528 c -0.38548,-0.213638 -0.782918,-0.405281 -1.194157,-0.563859 -0.421831,-0.165457 -0.86246,-0.280334 -1.305918,-0.37085 -0.464626,-0.11243 -0.939228,-0.172337 -1.410401,-0.249833 -0.471297,-0.05831 -0.94243,-0.115046 -1.413674,-0.17454 -0.468743,-0.03466 -0.93277,-0.109408 -1.400153,-0.157054 -0.486588,-0.04818 -0.974622,-0.09792 -1.458643,-0.168469 -0.511096,-0.07304 -1.022342,-0.147293 -1.530763,-0.237413 -0.533715,-0.09834 -1.06594,-0.204594 -1.599385,-0.304906 -0.533672,-0.121623 -1.069102,-0.233378 -1.604502,-0.346757 -0.514921,-0.105214 -1.028666,-0.215913 -1.543349,-0.322429 -0.502862,-0.07927 -0.997357,-0.201097 -1.496872,-0.297395 -0.502174,-0.114678 -1.007031,-0.215143 -1.51129,-0.319765 -0.494112,-0.111016 -0.988517,-0.219397 -1.485381,-0.318018 -0.560652,-0.09913 -1.121476,-0.187584 -1.68892,-0.236416 -0.504248,-0.07522 -1.010433,-0.127085 -1.519417,-0.154326 -0.483368,-0.06007 -0.967434,-0.106831 -1.453796,-0.133332 -0.474342,0.0073 -0.942454,-0.07995 -1.41546,-0.08815 -0.414105,0.02577 -0.829556,0.02695 -1.242549,0.0673 -0.463529,0.05629 -0.928735,0.08898 -1.391108,0.154239 -0.424818,0.05018 -0.848984,0.110831 -1.267706,0.198983 -0.390485,0.08543 -0.771954,0.208198 -1.15057,0.335351 -0.417234,0.12999 -0.822645,0.293928 -1.23412,0.440505 -0.395157,0.150961 -0.798097,0.277969 -1.202327,0.401611 -0.364302,0.105272 -0.737082,0.181666 -1.109898,0.250693 -0.371166,0.09095 -0.747165,0.159274 -1.113277,0.269777 -0.375907,0.103357 -0.739299,0.254053 -1.087019,0.429649 -0.368747,0.188454 -0.729893,0.389506 -1.085609,0.601424 -0.372396,0.198792 -0.73827,0.407106 -1.081866,0.652698 -0.329321,0.218885 -0.654986,0.442981 -0.982215,0.665041 -0.333063,0.191508 -0.642604,0.416335 -0.936625,0.662752 -0.250846,0.176726 -0.458555,0.399476 -0.652923,0.6345 0,0 -0.131294,-0.0091 -0.131294,-0.0091 v 0 c 0.194392,-0.235744 0.401407,-0.460381 0.653272,-0.636874 0.29382,-0.247033 0.602856,-0.473199 0.936614,-0.66412 0.327726,-0.221281 0.652492,-0.446809 0.982483,-0.664665 0.343355,-0.246417 0.708988,-0.45575 1.08214,-0.653777 0.35569,-0.212177 0.716585,-0.413816 1.085416,-0.602348 0.347404,-0.176853 0.711224,-0.328036 1.087229,-0.43193 0.36595,-0.11195 0.742349,-0.179215 1.113488,-0.271245 0.372809,-0.06835 0.745337,-0.145166 1.109816,-0.249177 0.404098,-0.12397 0.807532,-0.249391 1.202457,-0.40101 0.411663,-0.146061 0.816753,-0.310854 1.234025,-0.440738 0.378587,-0.127812 0.760291,-0.250555 1.150731,-0.336862 0.418579,-0.08952 0.843145,-0.149577 1.268071,-0.199837 0.462423,-0.0656 0.927582,-0.09859 1.391219,-0.154773 0.498266,-0.0504 1.001263,-0.05307 1.501521,-0.06832 0.4729,0.01035 0.941229,0.09499 1.415494,0.08862 0.48627,0.02696 0.970143,0.07475 1.453592,0.13335 0.508905,0.02776 1.014881,0.08069 1.519206,0.15479 0.567542,0.04956 1.128567,0.138453 1.689359,0.237802 0.496769,0.09897 0.99118,0.207285 1.485318,0.318129 0.504423,0.104114 1.009063,0.20587 1.511504,0.319564 0.499372,0.09701 0.994116,0.217562 1.496843,0.297572 0.514532,0.106846 1.028292,0.217106 1.543095,0.322516 0.535474,0.112903 1.070581,0.226002 1.604473,0.34647 0.533387,0.100576 1.06567,0.206607 1.599419,0.304749 0.508612,0.08935 1.019773,0.16428 1.530983,0.236974 0.484192,0.06946 0.971957,0.120354 1.458648,0.167918 0.467336,0.0482 0.931537,0.121962 1.40023,0.157358 0.471212,0.05976 0.94252,0.115433 1.413656,0.175036 0.471262,0.07763 0.945925,0.137757 1.410652,0.250319 0.443558,0.09166 0.884322,0.206732 1.306229,0.373015 0.411192,0.159933 0.809504,0.351118 1.194584,0.566489 0.353314,0.227407 0.72549,0.42899 1.033515,0.719555 0.308898,0.252032 0.617474,0.504643 0.931794,0.749747 0.301389,0.219364 0.60843,0.429819 0.847436,0.721083 0.24401,0.261802 0.481037,0.530098 0.69501,0.817388 0.246492,0.312631 0.51574,0.609166 0.712949,0.95786 0.218493,0.363011 0.442765,0.722389 0.656866,1.088006 0.204411,0.373534 0.409852,0.746869 0.601247,1.127152 0.201215,0.41711 0.422238,0.824971 0.621794,1.243039 0.20215,0.437615 0.37247,0.888383 0.548921,1.336714 0.167018,0.447956 0.345588,0.893371 0.459155,1.358943 0.106386,0.47367 0.200533,0.949187 0.247409,1.433155 0.05453,0.478896 0.08365,0.961236 0.117261,1.441942 -0.01378,0.442817 -0.03563,0.88682 -0.132866,1.320734 -0.09572,0.422106 -0.190384,0.844092 -0.311174,1.259948 -0.132728,0.434711 -0.27977,0.864968 -0.438089,1.291051 -0.140171,0.39352 -0.275558,0.789043 -0.430654,1.176924 -0.150913,0.304134 -0.302469,0.605624 -0.545224,0.849821 -0.250093,0.252434 -0.500867,0.509677 -0.80858,0.692904 -0.340292,0.224499 -0.650645,0.49535 -1.021464,0.671735 -0.373989,0.186243 -0.741058,0.389739 -1.137886,0.52501 -0.411548,0.164351 -0.844137,0.261165 -1.275323,0.359709 -0.479309,0.09311 -0.952516,0.220466 -1.439735,0.269324 -0.527339,0.07341 -1.057548,0.117528 -1.588559,0.155784 -0.554363,0.008 -1.108525,0.02339 -1.662782,0.03642 -0.654129,0.0021 -1.303451,-0.05259 -1.957228,-0.06707 -0.668044,-0.02886 -1.334035,-0.0826 -1.999269,-0.150275 -0.696656,-0.04212 -1.388909,-0.121796 -2.083059,-0.19172 -0.675629,-0.07436 -1.349515,-0.163163 -2.025362,-0.235868 -0.646004,-0.05893 -1.287713,-0.152657 -1.931619,-0.230008 -0.570206,-0.07818 -1.140852,-0.149042 -1.70153,-0.283739 -0.526677,-0.123177 -1.05164,-0.253592 -1.578306,-0.376801 -0.486143,-0.111858 -0.967163,-0.240996 -1.426446,-0.439163 -0.44769,-0.180065 -0.895858,-0.357979 -1.336495,-0.554972 -0.417692,-0.204792 -0.834879,-0.410011 -1.255077,-0.609285 -0.415578,-0.169632 -0.829173,-0.34403 -1.240401,-0.523959 -0.383564,-0.157224 -0.770467,-0.304636 -1.162672,-0.438952 -0.355748,-0.126021 -0.70812,-0.261459 -1.064323,-0.38608 -0.342025,-0.110601 -0.685237,-0.220144 -1.021686,-0.346136 -0.330134,-0.135591 -0.665401,-0.260273 -1.001834,-0.379119 -0.317326,-0.113514 -0.6422,-0.207539 -0.950262,-0.344924 -0.306271,-0.11584 -0.617114,-0.218382 -0.92234,-0.336203 -0.310775,-0.130921 -0.633135,-0.232558 -0.963732,-0.300358 -0.356965,-0.09342 -0.719674,-0.165158 -1.086477,-0.207483 -0.393779,-0.05475 -0.786754,-0.102447 -1.183431,-0.131594 -0.415393,-0.05205 -0.830053,-0.09315 -1.248534,-0.111125 -0.430919,-0.03994 -0.860878,-0.09899 -1.294789,-0.08015 -0.417335,-0.0026 -0.835229,-0.0045 -1.251543,-0.03699 -0.37843,-0.03407 -0.752054,-0.101467 -1.130334,-0.134403 -0.370806,-0.0373 -0.735417,-0.108294 -1.104469,-0.157056 -0.377036,-0.05581 -0.748895,-0.1411 -1.122698,-0.21449 -0.350454,-0.09272 -0.703334,-0.175448 -1.046681,-0.29306 -0.284525,-0.103765 -0.566402,-0.217022 -0.840611,-0.345425 -0.26172,-0.136742 -0.528346,-0.264538 -0.779237,-0.4211 -0.246822,-0.168431 -0.476163,-0.354277 -0.674105,-0.579917 -0.227097,-0.218998 -0.426464,-0.465484 -0.593516,-0.73347 -0.138626,-0.218111 -0.307705,-0.420092 -0.386945,-0.670337 -0.09887,-0.236191 -0.188939,-0.476039 -0.254895,-0.723617 -0.08241,-0.279321 -0.135704,-0.566081 -0.174731,-0.854451 -0.05808,-0.313558 -0.112492,-0.626329 -0.148219,-0.943393 -0.04762,-0.346731 -0.044,-0.693814 -0.03894,-1.043421 0.0026,-0.393671 0.0057,-0.788046 0.04643,-1.180034 0.04886,-0.415872 0.137316,-0.821529 0.254251,-1.223571 0.105479,-0.344091 0.208889,-0.690425 0.346398,-1.023239 0.132374,-0.279739 0.277593,-0.552598 0.433499,-0.81996 0.178027,-0.284966 0.351459,-0.573024 0.538398,-0.852151 0.218408,-0.318019 0.451548,-0.627306 0.708138,-0.915617 0,0 0.131935,0.01037 0.131935,0.01037 z"
       inkscape:connector-curvature="0" />
    <path
       style="opacity:1;fill:#3015e9;fill-opacity:1;fill-rule:nonzero;stroke:#3015e9;stroke-width:1;stroke-linecap:round;stroke-linejoin:round;stroke-miterlimit:4;stroke-dasharray:none;stroke-dashoffset:0;stroke-opacity:1;paint-order:stroke fill markers"
       id="path4626"
       d="m 101.12598,121.91488 c 0.12126,0.32057 0.23697,0.64176 0.39088,0.94846 0.101,0.23835 0.23159,0.46299 0.30869,0.71079 0.0917,0.20434 0.15247,0.42062 0.25711,0.61894 0.0847,0.19902 0.23102,0.33809 0.39162,0.47382 0.1816,0.12625 0.36932,0.24209 0.55275,0.36588 0.24278,0.14518 0.48427,0.29363 0.71722,0.45429 0.23455,0.19558 0.46544,0.39484 0.6891,0.60283 0.25976,0.21164 0.5283,0.41244 0.76217,0.6532 0.22663,0.22433 0.4703,0.4311 0.68352,0.6685 0.22216,0.22838 0.45498,0.44609 0.68356,0.66798 0.24495,0.25841 0.51275,0.4898 0.78646,0.71657 0.26314,0.21817 0.54172,0.41566 0.80269,0.63689 0.26218,0.17893 0.48181,0.40719 0.72175,0.61295 0.19527,0.18349 0.38332,0.37406 0.58065,0.55538 0.18643,0.20307 0.39583,0.38371 0.59625,0.57276 0.24366,0.21484 0.48755,0.42398 0.71206,0.65956 0.25226,0.23573 0.53104,0.44297 0.81472,0.63923 0.31307,0.22803 0.64885,0.41925 0.98316,0.61334 0.36712,0.20637 0.74356,0.39382 1.09846,0.62133 0.36233,0.21198 0.73887,0.39683 1.11099,0.59049 0.37275,0.18011 0.75045,0.35044 1.11925,0.53858 0.34339,0.16789 0.67828,0.35213 1.02283,0.51778 0.29615,0.15078 0.59208,0.30207 0.89984,0.42801 0.29049,0.12809 0.58666,0.24686 0.88966,0.34223 0.26888,0.0942 0.53713,0.19219 0.81054,0.27271 0.22335,0.1016 0.45883,0.16872 0.69166,0.24413 0.25161,0.0794 0.5147,0.10055 0.77657,0.11372 0.25055,0.008 0.50136,0.01 0.75203,0.008 0.28985,-5.3e-4 0.5797,-0.001 0.86955,-0.001 0.3056,-0.0279 0.60854,-0.074 0.90668,-0.14613 0.30993,-0.0535 0.61822,-0.10986 0.92655,-0.17248 0.27727,-0.0515 0.54671,-0.13215 0.82587,-0.17531 0.26564,-0.0354 0.53398,-0.0388 0.80151,-0.0416 0.31063,-0.002 0.62127,-5.3e-4 0.9319,1e-4 0.26726,5.3e-4 0.53452,5.3e-4 0.80179,5.3e-4 0.26881,6e-5 0.53763,7e-5 0.80644,7e-5 0.36626,0 0.73252,0 1.09878,2e-5 0.40519,-1e-5 0.81037,2e-5 1.21556,1e-5 0.48304,0 0.96608,2e-5 1.44912,1e-5 0.43838,1e-5 0.87676,-1e-5 1.31514,-1e-5 0.36257,1e-5 0.72514,0 1.0877,-2e-5 0.30613,1.2e-4 0.61556,-0.0429 0.91392,-0.11137 0.27929,-0.0568 0.52871,-0.17957 0.76593,-0.33233 0.18832,-0.14432 0.36655,-0.29886 0.5271,-0.47365 0.18919,-0.2073 0.34223,-0.4428 0.51572,-0.66282 0.20269,-0.25589 0.35923,-0.53827 0.50219,-0.83011 0.14215,-0.31259 0.28649,-0.62352 0.39417,-0.95 0.13033,-0.32643 0.19373,-0.67325 0.27146,-1.01461 0.10141,-0.36352 0.0846,-0.73028 0.0548,-1.10116 -0.0255,-0.40742 -0.0798,-0.81307 -0.15734,-1.21381 -0.0677,-0.41983 -0.16869,-0.83187 -0.27914,-1.24209 -0.13685,-0.41769 -0.29079,-0.83023 -0.43881,-1.24436 -0.16478,-0.44364 -0.33727,-0.88424 -0.5097,-1.32496 -0.16844,-0.44831 -0.35899,-0.88524 -0.57194,-1.31403 -0.21736,-0.40389 -0.42463,-0.81253 -0.65997,-1.20643 -0.24571,-0.36034 -0.47907,-0.72737 -0.70556,-1.09993 -0.21678,-0.35866 -0.40564,-0.733 -0.59827,-1.10486 -0.19207,-0.35802 -0.39022,-0.7128 -0.57713,-1.07364 -0.17839,-0.33331 -0.35811,-0.66518 -0.54182,-0.99552 -0.15631,-0.28035 -0.33475,-0.54258 -0.55037,-0.78011 -0.20433,-0.23295 -0.40941,-0.46027 -0.63659,-0.67155 -0.24324,-0.22229 -0.44776,-0.48282 -0.66748,-0.72777 -0.18454,-0.2577 -0.41248,-0.47701 -0.61814,-0.71687 -0.19093,-0.23984 -0.3765,-0.48121 -0.5771,-0.71324 -0.21173,-0.23242 -0.41285,-0.47143 -0.5931,-0.72917 -0.17416,-0.3086 -0.37438,-0.60066 -0.57013,-0.89564 -0.20207,-0.2726 -0.39404,-0.55251 -0.60562,-0.81799 -0.21439,-0.2842 -0.38017,-0.60006 -0.57213,-0.89892 -0.18131,-0.29103 -0.36139,-0.58188 -0.53717,-0.87634 -0.2059,-0.32667 -0.39889,-0.66039 -0.60705,-0.98582 -0.23319,-0.37294 -0.52438,-0.70215 -0.82166,-1.02424 -0.35151,-0.37264 -0.71985,-0.73052 -1.11462,-1.05721 -0.40551,-0.38824 -0.87676,-0.69307 -1.32719,-1.02415 -0.44051,-0.33848 -0.9067,-0.63782 -1.3767,-0.93275 -0.471,-0.29731 -0.96301,-0.55876 -1.4567,-0.81581 -0.50346,-0.28427 -1.04695,-0.48217 -1.57225,-0.71981 -0.4933,-0.22793 -0.99432,-0.44339 -1.50227,-0.63694 -0.50729,-0.18028 -1.0187,-0.34873 -1.52758,-0.52503 -0.49474,-0.14315 -0.98456,-0.29948 -1.47501,-0.45619 -0.44422,-0.15971 -0.90558,-0.26169 -1.35676,-0.39834 -0.4006,-0.11064 -0.80901,-0.19418 -1.21786,-0.26875 -0.36345,-0.0423 -0.72441,-0.0929 -1.08624,-0.14755 -0.32119,-0.024 -0.63376,-0.1002 -0.9507,-0.15245 -0.27295,-0.0469 -0.54848,-0.0981 -0.81658,-0.1689 -0.26933,-0.0698 -0.53783,-0.14561 -0.80046,-0.2378 -0.2384,-0.0785 -0.48008,-0.15518 -0.70529,-0.26719 -0.20796,-0.10243 -0.43382,-0.15822 -0.64765,-0.2473 -0.25934,-0.1121 -0.5197,-0.22085 -0.78332,-0.32293 -0.26557,-0.0864 -0.53791,-0.15135 -0.80302,-0.23921 -0.26103,-0.0918 -0.53456,-0.13293 -0.80213,-0.20026 -0.26521,-0.0623 -0.53558,-0.0845 -0.80179,-0.14147 -0.28293,-0.0662 -0.5728,-0.0826 -0.86205,-0.0939 -0.32272,-0.009 -0.6456,-0.009 -0.96841,-0.008 -0.35017,2.6e-4 -0.70034,7.9e-4 -1.0505,0.001 -0.28794,0.008 -0.57752,-0.0167 -0.86411,0.0155 -0.26847,0.0443 -0.537215,0.078 -0.802275,0.13992 -0.23164,0.0469 -0.452784,0.13546 -0.66562,0.23638 -0.202277,0.0834 -0.391575,0.19693 -0.581467,0.30531 -0.254405,0.15691 -0.504158,0.32072 -0.755018,0.48325 -0.236487,0.16391 -0.440261,0.35784 -0.632147,0.57073 -0.194525,0.2416 -0.360492,0.50342 -0.539189,0.75638 -0.1982,0.25588 -0.371957,0.52973 -0.568283,0.78684 -0.192215,0.22347 -0.369792,0.45879 -0.539417,0.69967 -0.165465,0.25125 -0.299691,0.52027 -0.4412,0.78512 -0.143201,0.27037 -0.266253,0.55036 -0.40181,0.82426 -0.117853,0.26073 -0.23137,0.52357 -0.34544,0.78608 -0.0907,0.26112 -0.179702,0.52367 -0.238366,0.7942 -0.05013,0.26375 -0.05647,0.53275 -0.06111,0.80035 -0.0027,0.27258 -0.0011,0.54517 -7.94e-4,0.81775 0.0085,0.30114 -0.01693,0.60402 0.01693,0.90371 0.04892,0.27096 0.08393,0.54339 0.10274,0.81802 -0.0057,0.27613 0.03508,0.54489 0.07632,0.81665 0.0486,0.30231 0.104929,0.60654 0.180941,0.90349 0.06297,0.27625 0.161742,0.5417 0.224718,0.81788 0.07139,0.26936 0.161515,0.53288 0.237255,0.80088 0.08543,0.24034 0.210926,0.46255 0.32267,0.69092 0.119565,0.24212 0.254473,0.47534 0.411112,0.69546 0.142981,0.20193 0.281892,0.40513 0.411504,0.61612 0.135861,0.21878 0.318714,0.40328 0.489945,0.59456 0.208957,0.22858 0.41054,0.46168 0.630671,0.67982 0.241083,0.22202 0.457555,0.46892 0.651261,0.73299 0.147,0.19898 0.314074,0.38054 0.473528,0.56897 0.14819,0.17295 0.270695,0.3617 0.380876,0.56035 0.09006,0.22514 0.200173,0.44048 0.306152,0.65848 0.128997,0.24905 0.260228,0.49716 0.382238,0.74976 0.125463,0.2071 0.232529,0.42325 0.359307,0.62967 0.113921,0.19145 0.229692,0.38118 0.34123,0.57431 0.117083,0.16214 0.276248,0.27957 0.462908,0.34791 0.003,0.002 0.29738,0.0539 0.17382,0.0176 0,0 0.13106,0.0194 0.13106,0.0194 v 0 c -0.15161,0.007 -0.29132,0.0277 -0.43636,-0.021 -0.18709,-0.0719 -0.347382,-0.19204 -0.463688,-0.35697 -0.111823,-0.1928 -0.22693,-0.38282 -0.34108,-0.57399 -0.126592,-0.20686 -0.234174,-0.42319 -0.359029,-0.63099 -0.122324,-0.25248 -0.253428,-0.50067 -0.382489,-0.74972 -0.106246,-0.21763 -0.215061,-0.43335 -0.306176,-0.65777 -0.109926,-0.19786 -0.233124,-0.38554 -0.380886,-0.55774 -0.160269,-0.18794 -0.325647,-0.37108 -0.47294,-0.56993 -0.194077,-0.26318 -0.410369,-0.50936 -0.65119,-0.73094 -0.220099,-0.21842 -0.421394,-0.45223 -0.63087,-0.68059 -0.171707,-0.19179 -0.354891,-0.37699 -0.490474,-0.59688 -0.129884,-0.21043 -0.268107,-0.41375 -0.411117,-0.61528 -0.156546,-0.22094 -0.291492,-0.45486 -0.411269,-0.69759 -0.112392,-0.22885 -0.238069,-0.45188 -0.322709,-0.6933 -0.076,-0.26815 -0.166011,-0.53194 -0.237289,-0.80155 -0.06315,-0.276 -0.161825,-0.54139 -0.224597,-0.81756 -0.07566,-0.29749 -0.132332,-0.60201 -0.180922,-0.90479 -0.04168,-0.27208 -0.08204,-0.54126 -0.07653,-0.81774 -0.01881,-0.27443 -0.05399,-0.54664 -0.102627,-0.81744 -0.03352,-0.30023 -0.0084,-0.60352 -0.01688,-0.90516 -7.94e-4,-0.27267 -0.0021,-0.54535 5.29e-4,-0.81801 0.0047,-0.26846 0.01106,-0.53831 0.06117,-0.80294 0.05862,-0.27143 0.147952,-0.53471 0.238516,-0.79678 0.113964,-0.26281 0.227981,-0.52568 0.345623,-0.78675 0.136257,-0.27365 0.258191,-0.55435 0.401772,-0.82467 0.141933,-0.26517 0.275974,-0.5348 0.441301,-0.78673 0.169593,-0.24106 0.346525,-0.47711 0.539409,-0.70021 0.197265,-0.25623 0.369779,-0.53091 0.568404,-0.78632 0.179171,-0.25313 0.345115,-0.5154 0.539131,-0.75793 0.192215,-0.21391 0.395563,-0.40923 0.632558,-0.57417 0.250762,-0.16281 0.500859,-0.32617 0.754732,-0.48402 0.18959,-0.10903 0.379251,-0.22268 0.581342,-0.30635 0.213265,-0.10116 0.434028,-0.19226 0.666327,-0.23912 0.26521,-0.0624 0.533758,-0.0968 0.802478,-0.14141 0.28648,-0.03527 0.57654,-0.008 0.86464,-0.0169 0.35028,-2e-4 0.70056,-5.3e-4 1.05083,-0.001 0.40951,-5e-5 0.81914,-0.002 1.22854,0.009 0.28952,0.0118 0.5795,0.0294 0.86259,0.0961 0.26624,0.0565 0.53707,0.0778 0.80184,0.14196 0.26766,0.0672 0.54145,0.10828 0.80222,0.20118 0.26566,0.0865 0.53774,0.15247 0.80308,0.23992 0.26347,0.10263 0.52397,0.21126 0.78348,0.32319 0.21443,0.0878 0.44042,0.14444 0.64801,0.24811 0.22617,0.10943 0.46628,0.18786 0.70473,0.26565 0.263,0.0908 0.53092,0.16765 0.80036,0.23675 0.26855,0.069 0.54313,0.12207 0.81633,0.16772 0.31666,0.053 0.62941,0.1274 0.95032,0.15232 0.3617,0.0551 0.72294,0.10369 1.08602,0.14799 0.40884,0.0752 0.81747,0.15836 1.21788,0.27023 0.45134,0.13574 0.91217,0.23928 1.35639,0.3986 0.49031,0.15725 0.98065,0.31196 1.47498,0.45651 0.50893,0.17611 1.02033,0.34465 1.52742,0.52547 0.50777,0.19447 1.00912,0.40921 1.50238,0.63771 0.52558,0.23717 1.06864,0.43628 1.57217,0.72054 0.49387,0.2573 0.98597,0.51912 1.45703,0.81683 0.47012,0.29508 0.93587,0.59537 1.37666,0.93371 0.45093,0.33077 0.92125,0.63711 1.32738,1.02491 0.39467,0.32763 0.76355,0.68569 1.11525,1.05891 0.29749,0.32283 0.58879,0.6528 0.82204,1.02653 0.20845,0.32543 0.40126,0.65946 0.60736,0.98621 0.17567,0.29437 0.35629,0.58478 0.53721,0.87591 0.19135,0.29878 0.35731,0.61415 0.57212,0.89757 0.21145,0.26596 0.40387,0.54598 0.60569,0.81913 0.19552,0.29501 0.39527,0.58721 0.57007,0.89531 0.18077,0.25694 0.38202,0.4955 0.59336,0.72781 0.20077,0.23187 0.38506,0.47435 0.57704,0.71329 0.20578,0.23953 0.43291,0.45945 0.61785,0.71661 0.21946,0.2448 0.42404,0.50493 0.66757,0.72657 0.22722,0.2116 0.43167,0.44007 0.63675,0.67267 0.21554,0.23854 0.39357,0.50223 0.55026,0.78312 0.18379,0.3304 0.36308,0.66261 0.54163,0.99592 0.18698,0.3608 0.38506,0.71561 0.5771,1.07365 0.1922,0.37175 0.38131,0.74565 0.59807,1.10397 0.22635,0.37265 0.46042,0.73923 0.70539,1.10005 0.23511,0.39434 0.44277,0.80308 0.65979,1.20744 0.21316,0.42911 0.40332,0.86662 0.5721,1.31518 0.17248,0.44084 0.34496,0.88159 0.50982,1.32535 0.14819,0.41445 0.30253,0.82722 0.43907,1.2454 0.11038,0.41056 0.21121,0.82293 0.2791,1.24304 0.0773,0.40127 0.13222,0.80731 0.15755,1.21526 0.03,0.37216 0.0468,0.74035 -0.0547,1.10516 -0.0778,0.34173 -0.14089,0.68908 -0.27138,1.01585 -0.10761,0.32712 -0.25186,0.63869 -0.39427,0.9518 -0.14318,0.29266 -0.29905,0.57623 -0.50219,0.83292 -0.17381,0.22003 -0.32658,0.45582 -0.51525,0.66381 -0.16022,0.1764 -0.33965,0.33082 -0.52761,0.47703 -0.23779,0.15339 -0.48608,0.27978 -0.76658,0.33682 -0.29803,0.0708 -0.60869,0.11267 -0.91482,0.11429 -0.44907,-3e-5 -0.89813,-3e-5 -1.34719,-3e-5 -0.43836,0 -0.87672,-2e-5 -1.31508,-1e-5 -0.39666,-1e-5 -0.79333,0 -1.18999,1e-5 -0.40513,-1e-5 -0.81027,3e-5 -1.2154,2e-5 -0.36617,10e-6 -0.73234,2e-5 -1.09851,3e-5 -0.35566,0 -0.71132,3e-5 -1.06697,-1e-5 -0.26727,-7e-5 -0.53453,-1.9e-4 -0.80179,-5.3e-4 -0.22364,-2.6e-4 -0.44728,-0.001 -0.67092,-2.1e-4 -0.26741,0.003 -0.53561,0.006 -0.80126,0.0398 -0.27944,0.0421 -0.54879,0.12251 -0.82593,0.17466 -0.30838,0.0622 -0.61617,0.12049 -0.92645,0.17197 -0.29846,0.0727 -0.6013,0.1193 -0.9072,0.14922 -0.28985,2.5e-4 -0.57971,8e-4 -0.86957,0.001 -0.3376,2.1e-4 -0.67541,0.003 -1.01287,-0.008 -0.26224,-0.0139 -0.5255,-0.0364 -0.77711,-0.11714 -0.23267,-0.0757 -0.46768,-0.14359 -0.69149,-0.24382 -0.2731,-0.0816 -0.54151,-0.17891 -0.81049,-0.27296 -0.3027,-0.0967 -0.59893,-0.21512 -0.88952,-0.34335 -0.30746,-0.12688 -0.60352,-0.27809 -0.89983,-0.4288 -0.34413,-0.16638 -0.67935,-0.34991 -1.02255,-0.51809 -0.36915,-0.18748 -0.74664,-0.35818 -1.11922,-0.5387 -0.3724,-0.19357 -0.74908,-0.37873 -1.11112,-0.59166 -0.35524,-0.22671 -0.73176,-0.41392 -1.09849,-0.62075 -0.33471,-0.19396 -0.67005,-0.38647 -0.9835,-0.61438 -0.28366,-0.19746 -0.56368,-0.40422 -0.8152,-0.64186 -0.22461,-0.23511 -0.46918,-0.44343 -0.712,-0.65886 -0.20063,-0.1889 -0.40971,-0.36979 -0.59658,-0.57258 -0.19698,-0.1814 -0.38483,-0.372 -0.58038,-0.55494 -0.23966,-0.2059 -0.4598,-0.43346 -0.72146,-0.61289 -0.26124,-0.22078 -0.53999,-0.41808 -0.80269,-0.63675 -0.27391,-0.22691 -0.54092,-0.4596 -0.78655,-0.7176 -0.22887,-0.22195 -0.46218,-0.43956 -0.68375,-0.66885 -0.21391,-0.23656 -0.45741,-0.44323 -0.68343,-0.66799 -0.23464,-0.23976 -0.50334,-0.43997 -0.76214,-0.65254 -0.22356,-0.20741 -0.45403,-0.40656 -0.68902,-0.6009 -0.23348,-0.16006 -0.47507,-0.30836 -0.71763,-0.45412 -0.18396,-0.12351 -0.3723,-0.2394 -0.55314,-0.36728 -0.16201,-0.13611 -0.30579,-0.28005 -0.39176,-0.47896 -0.1037,-0.19955 -0.16643,-0.41583 -0.25719,-0.62131 -0.0775,-0.24679 -0.20748,-0.47109 -0.30817,-0.70869 -0.15357,-0.30772 -0.2692,-0.62986 -0.39141,-0.95089 0,0 0.13225,-0.004 0.13225,-0.004 z"
       inkscape:connector-curvature="0" />
  </g>
</svg>
