<?xml version="1.0" encoding="UTF-8" standalone="no"?>
<!-- Created with Inkscape (http://www.inkscape.org/) -->

<svg
   xmlns:dc="http://purl.org/dc/elements/1.1/"
   xmlns:cc="http://creativecommons.org/ns#"
   xmlns:rdf="http://www.w3.org/1999/02/22-rdf-syntax-ns#"
   xmlns:svg="http://www.w3.org/2000/svg"
   xmlns="http://www.w3.org/2000/svg"
   xmlns:sodipodi="http://sodipodi.sourceforge.net/DTD/sodipodi-0.dtd"
   xmlns:inkscape="http://www.inkscape.org/namespaces/inkscape"
   width="210mm"
   height="297mm"
   viewBox="0 0 210 297"
   version="1.1"
   id="svg8"
   inkscape:version="0.92.1 r15371"
   sodipodi:docname="dot-and-two-vectors-on-the-plane.svg">
  <defs
     id="defs2" />
  <sodipodi:namedview
     id="base"
     pagecolor="#ffffff"
     bordercolor="#666666"
     borderopacity="1.0"
     inkscape:pageopacity="0.0"
     inkscape:pageshadow="2"
     inkscape:zoom="1.979899"
     inkscape:cx="371.40422"
     inkscape:cy="512.07591"
     inkscape:document-units="mm"
     inkscape:current-layer="layer1"
     showgrid="false"
     inkscape:window-width="1920"
     inkscape:window-height="1046"
     inkscape:window-x="-11"
     inkscape:window-y="-11"
     inkscape:window-maximized="1" />
  <metadata
     id="metadata5">
    <rdf:RDF>
      <cc:Work
         rdf:about="">
        <dc:format>image/svg+xml</dc:format>
        <dc:type
           rdf:resource="http://purl.org/dc/dcmitype/StillImage" />
        <dc:title></dc:title>
      </cc:Work>
    </rdf:RDF>
  </metadata>
  <g
     inkscape:label="Layer 1"
     inkscape:groupmode="layer"
     id="layer1">
    <path
       style="opacity:1;fill:#3015e9;fill-opacity:1;fill-rule:nonzero;stroke:#3015e9;stroke-width:1;stroke-linecap:round;stroke-linejoin:round;stroke-miterlimit:4;stroke-dasharray:none;stroke-dashoffset:0;stroke-opacity:1;paint-order:stroke fill markers"
       id="path4503"
       d="m 34.155956,157.47544 c 0.03978,0.49692 0.106352,0.98947 0.233138,1.47185 0.147254,0.52056 0.407778,0.99597 0.657614,1.47225 0.273968,0.5152 0.637947,0.97211 0.993513,1.43175 0.417343,0.54706 0.924367,1.01495 1.433475,1.47422 0.5764,0.53718 1.202865,1.01798 1.849041,1.46757 0.68535,0.47596 1.387216,0.92406 2.126827,1.31081 0.79307,0.43571 1.641088,0.75345 2.494139,1.04826 0.893982,0.30516 1.812174,0.53359 2.735713,0.72902 0.929179,0.19751 1.869773,0.33809 2.810197,0.47011 0.94016,0.1175 1.882749,0.21163 2.825322,0.30727 0.891153,0.0962 1.78526,0.16024 2.677427,0.24467 0.818092,0.0743 1.636461,0.1489 2.452394,0.24449 0.748691,0.0819 1.493435,0.20066 2.232601,0.3447 0.615352,0.11782 1.204881,0.3213 1.797722,0.51741 0.539928,0.16502 1.049663,0.40343 1.551689,0.65821 0.450702,0.23739 0.877237,0.5158 1.305523,0.79051 0.452287,0.25605 0.852702,0.588 1.277191,0.88513 0.449551,0.31739 0.904098,0.62709 1.361329,0.93329 0.483881,0.37388 1.009894,0.68435 1.531107,1.00188 0.580123,0.34531 1.176605,0.66268 1.775695,0.97378 0.672394,0.32579 1.355082,0.62981 2.035657,0.93812 0.732578,0.33177 1.489226,0.60515 2.247273,0.87187 0.810707,0.28758 1.630825,0.54665 2.451102,0.80517 0.851123,0.28692 1.718022,0.51797 2.588086,0.73865 0.876091,0.22343 1.744586,0.47567 2.610839,0.7343 0.888484,0.22987 1.778381,0.45231 2.675306,0.64671 0.931468,0.21527 1.875252,0.37347 2.820318,0.51552 0.982048,0.15704 1.972074,0.26434 2.962619,0.35139 1.031475,0.0807 2.066551,0.0913 3.100599,0.0998 1.053663,0.0156 1.716579,0.004 2.70551,-0.0341 1.138877,-0.0454 2.275885,-0.13128 3.411939,-0.22202 1.142039,-0.1095 2.279349,-0.26492 3.416759,-0.41431 1.15355,-0.1757 2.3068,-0.35438 3.4552,-0.56152 1.17587,-0.21621 2.34342,-0.47487 3.5091,-0.73986 1.13035,-0.26528 2.2607,-0.53056 3.38985,-0.80092 1.12952,-0.25841 2.25635,-0.52407 3.37138,-0.83949 1.12931,-0.30389 2.24074,-0.66921 3.34257,-1.06006 1.07376,-0.41447 2.15353,-0.81462 3.21437,-1.26144 1.00498,-0.44748 2.00076,-0.91535 2.98457,-1.40759 0.9671,-0.4754 1.90029,-1.01509 2.83693,-1.54687 0.91913,-0.51678 1.81489,-1.07306 2.67969,-1.67619 0.8766,-0.61837 1.75218,-1.23683 2.58933,-1.90813 0.77788,-0.64996 1.5293,-1.33124 2.25744,-2.03632 0.67826,-0.67464 1.31406,-1.38543 1.90382,-2.13825 0.57918,-0.74215 1.07822,-1.54173 1.55087,-2.35454 0.44567,-0.82033 0.81781,-1.67455 1.14312,-2.5486 0.33027,-0.87407 0.58207,-1.77241 0.77227,-2.68642 0.19659,-0.93963 0.30812,-1.89545 0.39725,-2.85056 0.0568,-0.97215 0.01,-1.9452 -0.0853,-2.91305 -0.11295,-0.99667 -0.35271,-1.97165 -0.59433,-2.94313 -0.24287,-1.03379 -0.55291,-2.04956 -0.89054,-3.05585 -0.33489,-1.02 -0.72734,-2.0192 -1.16972,-2.99702 -0.41999,-0.98112 -0.90966,-1.92621 -1.44494,-2.84845 -0.54674,-0.93497 -1.15106,-1.83427 -1.76287,-2.72742 -0.59836,-0.90093 -1.27669,-1.74246 -1.96432,-2.57556 -0.69361,-0.83934 -1.43465,-1.63651 -2.23036,-2.37938 -0.81295,-0.74906 -1.66089,-1.45886 -2.53068,-2.1407 -0.86653,-0.69532 -1.75865,-1.35776 -2.68322,-1.97379 -0.92245,-0.60882 -1.88599,-1.1525 -2.85366,-1.68538 -0.94864,-0.5524 -1.93648,-1.02956 -2.93541,-1.48259 -1.01057,-0.45988 -2.06123,-0.81367 -3.11011,-1.17251 -1.05348,-0.36537 -2.127,-0.66723 -3.20342,-0.95624 -1.08639,-0.29328 -2.19678,-0.48678 -3.3048,-0.67778 -1.11259,-0.18372 -2.23401,-0.30098 -3.35607,-0.40801 -1.13528,-0.0824 -2.27048,-0.16714 -3.40756,-0.22133 -1.15844,-0.0477 -2.318,-0.053 -3.47723,-0.0573 0.0128,0.005 0.0522,0.0133 0.0385,0.0142 -0.98268,0.0624 -1.970297,0.0618 -2.953891,0.10906 -1.149569,0.0523 -2.29798,0.12133 -3.446729,0.18861 -1.120847,0.043 -2.241127,0.0902 -3.361471,0.1454 -1.076185,0.0525 -2.153655,0.066 -3.230914,0.0744 -1.258732,0.006 -2.517489,0.005 -3.776234,0.005 -0.991362,0.008 -1.981248,-0.0611 -2.968974,-0.13814 -0.963896,-0.0889 -1.921812,-0.22741 -2.881252,-0.35319 -0.929933,-0.12905 -1.850858,-0.31151 -2.774071,-0.47982 -0.895578,-0.17109 -1.787396,-0.36144 -2.682907,-0.53272 -0.880372,-0.17972 -1.759638,-0.36696 -2.634414,-0.57244 -0.872466,-0.18177 -1.742543,-0.37287 -2.620126,-0.52882 -0.930106,-0.16553 -1.865474,-0.30147 -2.801718,-0.4275 -0.983856,-0.12487 -1.976102,-0.1514 -2.966532,-0.16907 -0.687388,0.01 -1.377037,-0.0339 -2.064264,-0.01 -0.03452,0.001 0.13693,0.0122 0.102513,0.0152 -0.176305,0.0154 -0.353644,0.0147 -0.530468,0.0221 -1.073875,0.025 -2.138918,0.17227 -3.203644,0.30192 -1.0741,0.14246 -2.142246,0.32979 -3.208192,0.52362 -1.039535,0.19793 -2.067364,0.44751 -3.081054,0.75028 -1.006713,0.3217 -1.992212,0.70398 -2.960772,1.12586 -0.94783,0.39099 -1.859836,0.85528 -2.74751,1.36669 -0.833663,0.48355 -1.655829,0.98139 -2.443417,1.53734 -0.755412,0.52233 -1.475205,1.08955 -2.165252,1.69494 -0.67211,0.58566 -1.283809,1.23349 -1.855391,1.91633 -0.554357,0.65839 -1.033351,1.37637 -1.494816,2.10162 -0.477975,0.74359 -0.899885,1.52139 -1.30493,2.30651 -0.414639,0.8219 -0.789739,1.66379 -1.153451,2.50934 -0.377942,0.80619 -0.71474,1.62898 -1.013429,2.46747 -0.307324,0.87281 -0.563964,1.76214 -0.829839,2.6481 -0.229296,0.88555 -0.452638,1.77236 -0.65234,2.66504 -0.178308,0.87952 -0.33404,1.76373 -0.445487,2.65426 -0.09605,0.84099 -0.113435,1.68783 -0.124153,2.53334 -0.01868,0.76509 0.05808,1.5283 0.171394,2.2839 0.105675,0.73218 0.234791,1.46058 0.421251,2.17664 0.186682,0.69648 0.451908,1.36728 0.718529,2.03593 0.247041,0.64748 0.607714,1.24201 0.974971,1.82673 0.38276,0.5878 0.852413,1.10982 1.331619,1.61921 0.476057,0.46805 0.939382,0.95083 1.427252,1.40687 0.200763,0.20652 0.415438,0.39866 0.628298,0.59243 0,0 -0.650166,0.0541 -0.650166,0.0541 v 0 c -0.211947,-0.19454 -0.42482,-0.3883 -0.626612,-0.59352 -0.48513,-0.4597 -0.951061,-0.94027 -1.425215,-1.41105 -0.480743,-0.51265 -0.949357,-1.03984 -1.331995,-1.63178 -0.368181,-0.58852 -0.729586,-1.18643 -0.975667,-1.8384 -0.267737,-0.67094 -0.530714,-1.34529 -0.718018,-2.04411 -0.185248,-0.71867 -0.315632,-1.44896 -0.420838,-2.1835 -0.111935,-0.75922 -0.191318,-1.52572 -0.169606,-2.29429 0.01122,-0.84793 0.02965,-1.69716 0.126545,-2.54049 0.111651,-0.89256 0.266938,-1.77889 0.445743,-2.66041 0.200128,-0.89421 0.424252,-1.78233 0.653222,-2.66962 0.26684,-0.88666 0.522036,-1.77741 0.829038,-2.65133 0.298206,-0.84009 0.633444,-1.66489 1.013621,-2.47161 0.36431,-0.84677 0.740997,-1.68931 1.15339,-2.51381 0.404934,-0.78693 0.826852,-1.56652 1.304153,-2.31235 0.461597,-0.72814 0.941488,-1.44874 1.496401,-2.10987 0.570947,-0.68675 1.183481,-1.33723 1.856036,-1.92627 0.690906,-0.6074 1.409996,-1.17859 2.167538,-1.70149 0.787887,-0.55858 1.609587,-1.05981 2.445494,-1.54305 0.888084,-0.51412 1.800053,-0.98263 2.749854,-1.3736 0.968615,-0.42499 1.955104,-0.80774 2.961804,-1.13351 1.014224,-0.30516 2.04221,-0.55826 3.082856,-0.75716 1.065972,-0.1953 2.134566,-0.38165 3.208464,-0.52742 1.064996,-0.12901 2.129851,-0.28111 3.203943,-0.30694 1.250778,-0.054 2.50289,-0.0432 3.754453,-0.0295 0.991267,0.019 1.984288,0.0481 2.96861,0.17628 0.937008,0.12772 1.873445,0.26288 2.804326,0.42989 0.877541,0.15867 1.748573,0.34802 2.621034,0.5321 0.874525,0.20379 1.752767,0.39272 2.632996,0.57006 0.894942,0.17333 1.787033,0.3613 2.682467,0.5322 0.92229,0.16981 1.843217,0.34888 2.772627,0.47677 0.958673,0.12678 1.916311,0.26308 2.879754,0.34996 0.987203,0.0764 1.976618,0.14163 2.967363,0.13339 0.652407,2.1e-4 1.564934,0.001 2.515391,-0.004 1.077368,-0.008 2.154957,-0.0203 3.231298,-0.0716 1.120545,-0.0546 2.240841,-0.10465 3.361992,-0.14473 1.149366,-0.0664 2.298208,-0.13739 3.448391,-0.18894 1.388438,-0.0697 2.779418,-0.10573 4.169288,-0.12608 1.1598,0.005 2.31994,0.0106 3.47888,0.0599 1.13713,0.0557 2.27263,0.13931 3.40786,0.22434 1.12257,0.10836 2.24459,0.22636 3.35743,0.41264 1.10867,0.19173 2.21921,0.38835 3.30589,0.68354 1.0766,0.29017 2.14996,0.59415 3.20361,0.96048 1.05033,0.35846 2.10044,0.71761 3.11177,1.17852 0.99914,0.45417 1.98538,0.9359 2.93504,1.48759 0.96829,0.53413 1.93238,1.07918 2.85441,1.69075 0.92406,0.61883 1.81644,1.28286 2.68405,1.97863 0.86958,0.68413 1.71798,1.39522 2.53088,2.1462 0.79592,0.74599 1.5373,1.54623 2.23211,2.38749 0.68797,0.83472 1.36504,1.67901 1.96398,2.58126 0.61294,0.89406 1.21664,1.79551 1.7632,2.73218 0.53634,0.92394 1.02519,1.87181 1.44558,2.85488 0.44272,0.97992 0.83456,1.98156 1.17022,3.00344 0.33804,1.00798 0.64708,2.02585 0.89195,3.06089 0.2429,0.97442 0.48244,1.95278 0.59633,2.95248 0.0944,0.97193 0.14222,1.94908 0.0847,2.9252 -0.0882,0.95751 -0.19977,1.91578 -0.39624,2.85775 -0.18935,0.91734 -0.4413,1.81899 -0.7721,2.69615 -0.32579,0.87756 -0.69845,1.73489 -1.14344,2.55952 -0.47308,0.81563 -0.97306,1.61779 -1.5522,2.36328 -0.58974,0.75615 -1.22564,1.46992 -1.90519,2.14697 -0.72853,0.70772 -1.48256,1.38931 -2.26087,2.04198 -0.83611,0.67407 -1.71207,1.29342 -2.58933,1.9124 -0.86395,0.60665 -1.76019,1.1647 -2.68047,1.68214 -0.93716,0.53224 -1.87033,1.07334 -2.83749,1.55014 -0.98428,0.49387 -1.98135,0.96137 -2.98636,1.41154 -1.06084,0.44919 -2.1422,0.84761 -3.21581,1.26497 -1.10149,0.39294 -2.21318,0.75913 -3.34252,1.06426 -1.1151,0.31683 -2.24164,0.58493 -3.37196,0.84205 -1.12951,0.2705 -2.26026,0.5358 -3.3909,0.80151 -1.16585,0.26544 -2.33351,0.52476 -3.50933,0.74268 -1.14823,0.20866 -2.30164,0.38656 -3.45491,0.56465 -1.13734,0.15042 -2.27489,0.30406 -3.41654,0.41764 -1.13642,0.0906 -2.273652,0.1783 -3.41285,0.22448 -1.320829,0.0526 -2.641976,0.0443 -3.963644,0.0364 -1.034878,-0.009 -2.070819,-0.0209 -3.102927,-0.10459 -0.991126,-0.0893 -1.981726,-0.19707 -2.964445,-0.35511 -0.945385,-0.14444 -1.889556,-0.3033 -2.821548,-0.51945 -0.897517,-0.19529 -1.788295,-0.41839 -2.676739,-0.65143 -0.866143,-0.25789 -1.734561,-0.50921 -2.610575,-0.73167 -0.870564,-0.22118 -1.736894,-0.45658 -2.58898,-0.74221 -0.821047,-0.25882 -1.64175,-0.51879 -2.453068,-0.8071 -0.759024,-0.26796 -1.516327,-0.54336 -2.249416,-0.87726 -0.681509,-0.30902 -1.366322,-0.61143 -2.038019,-0.94138 -0.599671,-0.31259 -1.197965,-0.62938 -1.777593,-0.97798 -0.522232,-0.31848 -1.047335,-0.63223 -1.534081,-1.00439 -0.457512,-0.30662 -0.912376,-0.61691 -1.362236,-0.93468 -0.422968,-0.29871 -0.826611,-0.62557 -1.278054,-0.88227 -0.426688,-0.27398 -0.853022,-0.54963 -1.303335,-0.784 -0.501279,-0.25221 -1.011507,-0.48458 -1.549551,-0.64884 -0.590073,-0.19771 -1.18029,-0.39199 -1.793165,-0.50943 -0.738363,-0.14081 -1.481392,-0.26013 -2.228938,-0.3403 -0.815713,-0.0928 -1.633199,-0.16977 -2.450838,-0.24328 -0.891746,-0.0819 -1.784622,-0.15099 -2.675249,-0.24555 -0.942539,-0.0964 -1.885323,-0.18963 -2.825224,-0.30981 -0.940773,-0.13403 -1.881976,-0.27435 -2.811306,-0.4745 -0.923838,-0.19945 -1.842794,-0.42837 -2.736967,-0.73683 -0.854575,-0.29756 -1.702726,-0.62038 -2.49751,-1.0576 -0.739267,-0.39134 -1.442265,-0.84146 -2.12897,-1.31876 -0.64589,-0.45404 -1.273643,-0.93609 -1.851332,-1.47539 -0.511781,-0.46196 -1.019307,-0.93421 -1.437465,-1.48546 -0.358442,-0.46211 -0.723604,-0.92307 -0.996641,-1.44304 -0.25219,-0.48045 -0.512008,-0.96137 -0.658685,-1.48711 -0.125772,-0.48578 -0.190698,-0.9815 -0.241155,-1.48029 0,0 0.660752,-0.008 0.660752,-0.008 z"
       inkscape:connector-curvature="0" />
    <path
       style="opacity:1;fill:#3015e9;fill-opacity:1;fill-rule:nonzero;stroke:#3015e9;stroke-width:1;stroke-linecap:round;stroke-linejoin:round;stroke-miterlimit:4;stroke-dasharray:none;stroke-dashoffset:0;stroke-opacity:1;paint-order:stroke fill markers"
       id="path4505"
       d="m 91.323707,137.23185 c 0.379523,-0.10885 0.768577,-0.17207 1.160774,-0.21094 0.426911,-0.0157 0.851183,-0.0501 1.276244,-0.0921 0.650285,-0.0496 1.302002,-0.0613 1.952697,-0.10588 0.870537,-0.0573 1.73936,-0.14022 2.607606,-0.22529 0.960046,-0.0867 1.919932,-0.17523 2.879512,-0.26717 1.00134,-0.10539 1.99973,-0.23514 2.99874,-0.36 0.90016,-0.10376 1.80065,-0.20393 2.70083,-0.30755 0.75812,-0.10049 1.51519,-0.20918 2.27407,-0.30389 0.62561,-0.0977 1.25527,-0.16285 1.8824,-0.24909 0.41309,-0.0447 0.81585,-0.14935 1.22606,-0.21236 0.0659,0.0503 0.3295,-0.089 0.3887,-0.0852 0.0197,0.001 -0.032,0.025 -0.0511,0.0301 -0.21768,-0.0491 -0.4423,-0.0859 -0.65855,-0.14496 -0.26118,-0.0665 -0.51627,-0.16665 -0.73617,-0.32388 -0.15143,-0.0871 -0.29101,-0.21955 -0.13142,-0.36958 0.23144,-0.10097 0.49704,-0.086 0.74482,-0.0904 0.61653,-0.0139 1.2354,0.0153 1.8439,0.1173 0.38478,0.045 0.74469,0.18865 1.1117,0.30231 0.29284,0.10252 0.49833,0.23334 0.49632,0.56518 -0.0453,0.3344 -0.31091,0.58346 -0.54591,0.80401 -0.3096,0.26403 -0.61811,0.52894 -0.91744,0.80462 -0.13617,0.11801 -0.27772,0.22956 -0.41769,0.34298 0,0 -0.65547,-0.0584 -0.65547,-0.0584 v 0 c 0.13933,-0.11313 0.28007,-0.22448 0.41852,-0.3387 0.29869,-0.27634 0.60592,-0.54278 0.91741,-0.80459 0.22375,-0.20329 0.48742,-0.4392 0.539,-0.7504 0.003,-0.28488 -0.24411,-0.40371 -0.48823,-0.48154 -0.36403,-0.11706 -0.72524,-0.24887 -1.10788,-0.29297 -0.2075,-0.0309 -0.41516,-0.0519 -0.62374,-0.0743 -0.37258,-0.0399 -0.24407,-0.0131 0.25503,-0.0344 0.0583,-0.002 -0.11665,5.3e-4 -0.17497,0.001 -0.24482,0.003 -0.49445,-0.003 -0.7341,0.054 -0.18104,0.0645 0.0535,0.18601 0.12851,0.23949 0.22444,0.1433 0.47333,0.24029 0.73244,0.30129 0.22126,0.0521 0.44557,0.0909 0.66463,0.15281 0.19039,0.18695 -0.23717,0.2212 -0.34594,0.22787 -0.41369,0.0579 -0.81811,0.16569 -1.23349,0.2119 -0.62835,0.0863 -1.2592,0.1507 -1.88589,0.24951 -0.76057,0.0923 -1.51893,0.20216 -2.27828,0.30382 -0.90175,0.10293 -1.80359,0.20427 -2.70544,0.30625 -0.99898,0.12378 -1.99696,0.25528 -2.998,0.36195 -0.9591,0.0915 -1.918304,0.18136 -2.87789,0.26726 -0.866883,0.0848 -1.734137,0.16957 -2.603214,0.22779 -0.647994,0.0456 -1.296572,0.0611 -1.944555,0.10524 -0.424458,0.0413 -0.847188,0.085 -1.273995,0.0927 -0.389888,0.0345 -0.777449,0.0912 -1.154547,0.19952 0,0 -0.656002,-0.0853 -0.656002,-0.0853 z"
       inkscape:connector-curvature="0" />
    <path
       style="opacity:1;fill:#3015e9;fill-opacity:1;fill-rule:nonzero;stroke:#3015e9;stroke-width:1;stroke-linecap:round;stroke-linejoin:round;stroke-miterlimit:4;stroke-dasharray:none;stroke-dashoffset:0;stroke-opacity:1;paint-order:stroke fill markers"
       id="path4507"
       d="m 95.439422,147.22691 c 0.378082,0.26038 0.646155,0.64357 0.932844,0.99521 0.385006,0.47405 0.673518,1.01594 0.969968,1.54739 0.376457,0.64493 0.748816,1.29189 1.146937,1.92383 0.417436,0.67697 0.870415,1.33079 1.291365,2.00549 0.434554,0.66738 0.854224,1.34424 1.324164,1.98755 0.42915,0.58057 0.86569,1.15586 1.30647,1.72767 0.34479,0.43598 0.67923,0.87949 1.04182,1.30103 0.22289,0.2715 0.4322,0.5549 0.57933,0.87493 0.10808,0.25398 0.12945,0.47204 -0.0623,0.68163 -0.20409,0.16079 -0.46343,0.18222 -0.71317,0.20007 -0.66857,0.0914 -0.85343,0.007 -1.36518,-0.16004 -0.25354,-0.11068 -0.51205,-0.20841 -0.76681,-0.31585 -0.25751,-0.10496 -0.53064,-0.17099 -0.78549,-0.28146 -0.0726,-0.0109 -0.12654,-0.0631 -0.1924,-0.0886 -0.0226,-0.009 -0.0967,-0.004 -0.0725,-0.006 0.7577,-0.0349 0.5196,-0.17024 0.80109,0.017 0.24106,0.18123 0.51184,0.31468 0.79182,0.42394 0.40304,0.16062 0.81616,0.28848 1.24268,0.36772 0.0703,0.01 0.14039,0.0215 0.21089,0.0299 0.13201,0.0157 0.28583,0.027 0.41879,0.0344 0.0643,0.004 0.25735,0.009 0.19297,0.009 -0.60278,-0.003 -0.5996,0.003 -0.30411,-0.0275 0.31086,-0.043 0.54746,-0.20548 0.72232,-0.4596 0.14031,-0.32083 0.18592,-0.67358 0.25554,-1.01442 0.0954,-0.48908 0.20173,-0.9767 0.32918,-1.45852 0.11336,-0.4746 0.22005,-0.95042 0.34161,-1.42311 0.0781,-0.24132 0.14762,-0.48528 0.23095,-0.72484 0,0 0.6581,0.0223 0.6581,0.0223 v 0 c -0.085,0.23741 -0.15376,0.48005 -0.2341,0.7191 -0.12318,0.4726 -0.23044,0.94852 -0.34319,1.42357 -0.12926,0.4798 -0.23295,0.96667 -0.32647,1.45459 -0.0702,0.34917 -0.11778,0.70798 -0.25255,1.03985 -0.1719,0.26997 -0.40835,0.45748 -0.72981,0.51667 -0.6029,0.0749 -1.22014,0.0421 -1.81932,-0.0509 -0.42717,-0.0863 -0.84191,-0.21773 -1.24647,-0.37993 -0.28129,-0.11704 -0.55288,-0.25469 -0.79822,-0.43708 -0.249001,-0.16903 -0.12863,-0.0586 0.51825,-0.1793 0.026,-0.005 0.13546,0.0612 0.1497,0.0675 0.0368,0.0163 0.0743,0.0308 0.11151,0.0463 0.25904,0.10025 0.52697,0.17724 0.78461,0.28165 0.25615,0.10309 0.51007,0.21088 0.76731,0.31124 0.11381,0.039 0.22759,0.0884 0.34489,0.11618 0.21261,0.0503 0.50497,0.0125 -0.4225,0.0303 -0.0446,8e-4 0.0892,-0.002 0.13381,-0.004 0.24169,-0.0123 0.49426,-0.023 0.70621,-0.15307 0.19819,-0.1746 0.1623,-0.37032 0.0633,-0.60049 -0.1482,-0.31265 -0.35497,-0.59057 -0.57375,-0.85745 -0.3594,-0.4237 -0.69169,-0.86849 -1.03543,-1.30479 -0.4399,-0.57241 -0.87626,-1.14775 -1.30359,-1.72959 -0.468496,-0.64585 -0.889937,-1.32316 -1.324378,-1.9921 -0.422272,-0.67378 -0.87389,-1.32847 -1.291495,-2.00525 -0.39911,-0.633 -0.772189,-1.28135 -1.150323,-1.92697 -0.297625,-0.52798 -0.586084,-1.06687 -0.973842,-1.53582 -0.285533,-0.34883 -0.554572,-0.72782 -0.939432,-0.97501 0,0 0.658392,-0.0649 0.658392,-0.0649 z"
       inkscape:connector-curvature="0" />
    <path
       style="opacity:1;fill:#3015e9;fill-opacity:1;fill-rule:nonzero;stroke:#3015e9;stroke-width:1;stroke-linecap:round;stroke-linejoin:round;stroke-miterlimit:4;stroke-dasharray:none;stroke-dashoffset:0;stroke-opacity:1;paint-order:stroke fill markers"
       id="path4511"
       d="m 120.48401,138.63294 c 0.0576,0.54324 0.14483,1.08325 0.23271,1.62238 0.0983,0.52601 0.21323,1.04867 0.31097,1.57471 0.066,0.38569 0.093,0.77613 0.10563,1.16672 -0.0141,0.20547 -0.0342,0.46435 -0.26426,0.5302 -0.24707,-0.0149 -0.49619,-0.01 -0.74121,-0.0448 -0.11154,-0.016 -0.38114,-0.50116 -0.43058,-0.59439 -0.20523,-0.46746 -0.32671,-0.96594 -0.42603,-1.46509 -0.0942,-0.57935 -0.13142,-1.16901 -0.11038,-1.7554 0.0236,-0.51464 0.0771,-1.02787 0.23224,-1.52044 0.10282,-0.36113 0.29121,-0.6709 0.54972,-0.93917 0.21638,-0.2046 0.48315,-0.30844 0.77719,-0.32432 0.75984,-0.0527 0.98123,0.0319 1.55345,0.39531 0.39559,0.23404 0.72302,0.55469 1.06866,0.85279 0.29805,0.23958 0.55532,0.52438 0.78908,0.8257 0.18063,0.32276 -0.066,0.5411 -0.32988,0.69836 -0.45462,0.23946 -0.97165,0.28083 -1.47089,0.35574 -0.62593,0.0837 -1.27749,0.12029 -1.90362,0.0245 0,0 0.65154,-0.0942 0.65154,-0.0942 v 0 c 0.21082,0.0247 0.83612,0.0212 -0.0907,0.0292 -0.0735,5.3e-4 0.14705,7.9e-4 0.22052,-0.002 0.25533,-0.008 0.22009,-0.0107 0.47551,-0.0504 0.49417,-0.0768 1.00843,-0.1056 1.46353,-0.33292 0.23442,-0.12297 0.50162,-0.2968 0.3256,-0.58499 -0.23387,-0.29613 -0.48668,-0.57774 -0.78301,-0.81345 -0.34311,-0.29847 -0.67437,-0.61166 -1.0697,-0.84263 -0.20205,-0.12572 -0.40149,-0.25612 -0.63309,-0.32131 -0.0438,-0.0123 -0.17872,-0.0237 -0.13347,-0.028 0.17221,-0.0167 0.34597,-0.006 0.51896,-0.009 -0.28672,-0.0113 -0.5545,0.0844 -0.77292,0.27265 -0.25883,0.25734 -0.44918,0.55406 -0.55129,0.90837 -0.15913,0.48551 -0.21134,0.99362 -0.2357,1.50245 -0.0218,0.58139 0.0156,1.16594 0.11048,1.74015 0.0992,0.49324 0.22071,0.98627 0.43099,1.4454 0.0798,0.14513 0.15632,0.28776 0.26773,0.4119 0.0263,0.0293 0.0545,0.0573 0.0849,0.0824 0.0246,0.0204 0.11111,0.0489 0.0795,0.0538 -0.18905,0.029 -0.38224,0.0147 -0.57336,0.022 0.22994,0.0535 0.24677,-0.26918 0.26142,-0.42661 -0.0109,-0.3872 -0.0351,-0.7745 -0.10092,-1.15679 -0.0961,-0.5266 -0.21049,-1.04969 -0.30772,-1.57612 -0.0879,-0.54045 -0.17249,-1.08163 -0.24231,-1.62468 0,0 0.66075,-0.008 0.66075,-0.008 z"
       inkscape:connector-curvature="0" />
    <path
       style="opacity:1;fill:#3015e9;fill-opacity:1;fill-rule:nonzero;stroke:#3015e9;stroke-width:1;stroke-linecap:round;stroke-linejoin:round;stroke-miterlimit:4;stroke-dasharray:none;stroke-dashoffset:0;stroke-opacity:1;paint-order:stroke fill markers"
       id="path4513"
       d="m 110.68097,160.94727 c -0.11693,0.34833 -0.11088,0.69287 -0.011,1.04086 0.0937,0.25389 0.26377,0.46245 0.48076,0.62047 -0.0222,0.0711 0.52749,0.14665 0.47457,0.14831 -1.02122,0.0321 -0.62977,0.001 -0.43138,-0.0164 0.25661,-0.0452 0.40707,-0.24534 0.53979,-0.4518 0.19565,-0.2775 0.2566,-0.59072 0.25595,-0.92321 -0.0264,-0.35313 -0.23523,-0.62679 -0.4541,-0.8883 -0.27626,-0.26951 -0.6161,-0.40675 -0.98784,-0.48228 -0.0606,-0.002 -0.24229,-0.006 -0.18169,-0.006 0.97327,-0.002 0.37109,-0.0127 0.1644,0.042 -0.083,0.0219 -0.17526,0.0663 -0.25332,0.10079 -0.19509,0.096 -0.31955,0.24701 -0.4089,0.44017 0,0 -0.66042,-0.0276 -0.66042,-0.0276 v 0 c 0.0888,-0.20762 0.21168,-0.3754 0.41326,-0.48802 0.0378,-0.0175 0.21815,-0.10254 0.25572,-0.11502 0.10207,-0.0339 0.20602,-0.0461 0.31322,-0.0479 0.7812,-0.0131 0.57558,-0.0258 1.00917,0.0131 0.37621,0.0892 0.72053,0.24132 0.99263,0.52561 0.22533,0.2756 0.43234,0.56554 0.45613,0.93363 2.2e-4,0.34263 -0.0563,0.67165 -0.25492,0.96018 -0.13275,0.21799 -0.2867,0.43673 -0.54418,0.51064 -0.45843,0.0694 -0.95537,0.0861 -1.35622,-0.16714 -0.21785,-0.17578 -0.39005,-0.39516 -0.48157,-0.66287 -0.0989,-0.35942 -0.10177,-0.71695 0.009,-1.07733 0,0 0.66127,0.0184 0.66127,0.0184 z"
       inkscape:connector-curvature="0" />
    <path
       style="opacity:1;fill:#3015e9;fill-opacity:1;fill-rule:nonzero;stroke:#3015e9;stroke-width:1;stroke-linecap:round;stroke-linejoin:round;stroke-miterlimit:4;stroke-dasharray:none;stroke-dashoffset:0;stroke-opacity:1;paint-order:stroke fill markers"
       id="path4515"
       d="m 112.96894,160.40822 c -0.0746,0.43928 -0.091,0.88075 -0.0685,1.32463 0.018,0.52843 0.075,1.05276 0.13101,1.57805 0.0638,0.52823 0.0512,1.06141 0.0954,1.59071 0.0652,0.43169 0.08,0.86065 0.0489,1.2952 -0.0176,0.22037 -0.009,0.11204 -0.0254,0.32498 0,0 -0.65914,-0.005 -0.65914,-0.005 v 0 c 0.0171,-0.21301 0.008,-0.10478 0.0268,-0.32469 0.0332,-0.43111 0.0189,-0.85644 -0.0449,-1.28504 -0.0417,-0.52893 -0.0313,-1.06134 -0.0944,-1.58906 -0.0563,-0.52647 -0.11305,-1.05205 -0.13206,-1.58162 -0.0233,-0.44806 -0.006,-0.89287 0.0606,-1.33738 0,0 0.66164,0.009 0.66164,0.009 z"
       inkscape:connector-curvature="0" />
    <path
       style="opacity:1;fill:#3015e9;fill-opacity:1;fill-rule:nonzero;stroke:#3015e9;stroke-width:1;stroke-linecap:round;stroke-linejoin:round;stroke-miterlimit:4;stroke-dasharray:none;stroke-dashoffset:0;stroke-opacity:1;paint-order:stroke fill markers"
       id="path4545"
       d="m 78.538937,159.85979 c 0.05504,0.32078 0.07132,0.65976 -0.116221,0.93834 -0.345308,0.30983 -0.893225,0.23803 -1.309219,0.0893 -0.217998,-0.10506 -0.342419,-0.24682 -0.416057,-0.475 -0.04034,-0.29847 0.136773,-0.5239 0.344855,-0.71332 0.373766,-0.24166 0.903943,-0.23049 1.306814,-0.0575 0.242244,0.0835 0.335515,0.27703 0.390289,0.51078 0.02559,0.29457 -0.138969,0.51002 -0.363952,0.67679 -0.407467,0.21364 -0.96873,0.29211 -1.223672,-0.14222 -0.105664,-0.24961 -0.04093,-0.52097 0.02445,-0.7725 0,0 0.660026,0.0169 0.660026,0.0169 v 0 c -0.06127,0.23285 -0.130809,0.48857 -0.02349,0.71803 0.04608,0.0658 0.05909,0.10124 0.132131,0.14054 0.02866,0.0154 0.124878,0.0281 0.09249,0.0313 -1.065405,0.10671 -0.52629,0.0394 -0.31941,-0.0557 0.214172,-0.13765 0.383741,-0.32612 0.36004,-0.59729 -0.05636,-0.22164 -0.156927,-0.37533 -0.385723,-0.4466 -0.240573,-0.0769 -0.66516,-0.067 0.319868,-0.0615 0.130109,7.9e-4 -0.373187,0.0232 -0.312296,0.0953 -0.19535,0.16193 -0.378507,0.36267 -0.340818,0.63535 0.07394,0.20738 0.205076,0.33154 0.410933,0.41419 0.251357,0.0778 0.610343,0.0596 -0.312799,0.0597 -0.124767,1e-5 0.356217,-0.0134 0.305578,-0.10845 0.199589,-0.24747 0.170757,-0.58102 0.114938,-0.87809 0,0 0.661262,-0.0184 0.661262,-0.0184 z"
       inkscape:connector-curvature="0" />
    <path
       style="opacity:1;fill:#3015e9;fill-opacity:1;fill-rule:nonzero;stroke:#3015e9;stroke-width:1;stroke-linecap:round;stroke-linejoin:round;stroke-miterlimit:4;stroke-dasharray:none;stroke-dashoffset:0;stroke-opacity:1;paint-order:stroke fill markers"
       id="path4547"
       d="m 77.673188,161.21454 c -0.107254,0.36344 -0.16755,0.73771 -0.206787,1.11388 -0.06393,0.29353 -0.09461,0.59361 -0.156298,0.8872 -0.06671,0.33134 -0.14248,0.66093 -0.224136,0.98898 -0.100581,0.4017 -0.217847,0.79962 -0.343429,1.1942 -0.123823,0.44856 -0.233103,0.90151 -0.344348,1.35348 -0.142247,0.49982 -0.230301,1.0125 -0.345532,1.51876 -0.123915,0.52573 -0.231447,1.05469 -0.340455,1.58368 -0.115414,0.5031 -0.249151,1.00164 -0.37093,1.50317 -0.139401,0.52234 -0.252267,1.05228 -0.341495,1.58546 -0.110604,0.53017 -0.17248,1.06819 -0.251164,1.60357 -0.05843,0.53502 -0.141531,1.06682 -0.195249,1.6024 -0.06426,0.5368 -0.154176,1.06971 -0.229376,1.60491 -0.05586,0.52298 -0.105074,1.04719 -0.190566,1.5664 -0.08597,0.47046 -0.125788,0.94689 -0.195704,1.41967 -0.04954,0.43058 -0.102928,0.85985 -0.163962,1.28901 -0.09375,0.37865 -0.130784,0.76738 -0.201568,1.14989 -0.05469,0.34531 -0.127092,0.68669 -0.192013,1.03009 -0.03769,0.30684 -0.08531,0.61015 -0.143172,0.91381 -0.06262,0.30229 -0.11431,0.60813 -0.186047,0.90847 -0.07007,0.31061 -0.136109,0.62191 -0.203927,0.93321 -0.05966,0.30395 -0.07108,0.61268 -0.12264,0.91793 -0.06207,0.29362 -0.06591,0.59445 -0.107021,0.89053 -0.04499,0.3446 -0.111493,0.68479 -0.172286,1.02676 -0.04041,0.35026 -0.08952,0.69794 -0.144103,1.04632 -0.04619,0.33674 -0.05891,0.67518 -0.111038,1.01111 -0.04008,0.3665 -0.120351,0.72641 -0.172243,1.09115 -0.04797,0.38107 -0.118002,0.75816 -0.15684,1.14061 -0.01,0.34402 -0.07174,0.68205 -0.117859,1.02223 -0.03898,0.31475 -0.10899,0.62411 -0.148026,0.93912 -0.02676,0.28203 -0.0978,0.55684 -0.134827,0.83775 -0.02487,0.26914 -0.02832,0.53669 -0.07473,0.80333 -0.05266,0.26284 -0.0746,0.52977 -0.08705,0.79706 -0.0431,0.23134 -0.09332,0.45989 -0.118118,0.69426 -0.0031,0.26353 -0.0643,0.5196 -0.104865,0.77871 -0.01111,0.24686 -0.08294,0.48219 -0.131025,0.7228 -0.04997,0.24198 -0.0325,0.49073 -0.06944,0.73367 -0.01709,0.12375 -0.0181,0.20635 0.08211,0.28532 0.120558,0.12962 0.160213,0.2968 0.104992,0.46395 -0.193497,0.2349 -0.504661,0.0989 -0.817261,0.0605 -0.04406,-0.005 -0.107312,-0.2161 -0.12052,-0.24669 -0.09947,-0.24294 -0.129482,-0.50377 -0.149431,-0.76316 0.0051,-0.2605 0.04636,-0.50792 0.290925,-0.63895 0.545602,-0.0125 0.899186,-0.17576 1.0923,0.34171 0.07779,0.26587 -0.0072,0.53187 -0.104357,0.78035 -0.118541,0.24996 -0.330004,0.38624 -0.597966,0.42584 -0.476155,0.027 -0.955421,0.11758 -1.123942,-0.38575 -0.04153,-0.22961 0.01524,-0.45331 0.145627,-0.64362 0.299045,-0.41276 0.662011,-0.29858 1.169548,-0.30156 0.199001,0.0738 0.344765,0.25169 0.448633,0.43106 0.130955,0.25676 0.08492,0.48495 -0.06826,0.71605 -0.344451,0.39048 -0.789509,0.25639 -1.284693,0.24273 -0.26131,-0.057 -0.493059,-0.17486 -0.681262,-0.36411 -0.16229,-0.20933 -0.223708,-0.46922 -0.213995,-0.73018 0.01236,-0.25442 0.159031,-0.37975 0.388186,-0.45056 0.579776,-0.13845 0.885275,-0.0435 1.36216,0.12013 0.207277,0.1038 0.375994,0.27516 0.495633,0.47194 0.162404,0.22321 0.188651,0.46376 0.179224,0.7304 -0.03299,0.27751 -0.142103,0.53121 -0.269762,0.77637 -0.07693,0.12595 -0.179162,0.25535 -0.342963,0.25018 -0.763254,-0.0241 -0.553064,0.10089 -0.849895,-0.1133 -0.209481,-0.18258 -0.237995,-0.44913 -0.313105,-0.69847 -0.07185,-0.22725 -0.123605,-0.46322 -0.109519,-0.70217 0.01931,-0.23594 0.104473,-0.45125 0.208923,-0.66062 0.12855,-0.30711 0.815647,-0.4204 0.888296,-0.0369 0,0 -0.66422,0.0146 -0.66422,0.0146 v 0 c -0.06937,-0.24986 -0.03077,-0.0479 0.607599,-0.081 0.02614,-0.001 -0.0263,-0.0416 -0.109471,0.0499 -0.02334,0.0257 -0.04085,0.0561 -0.06128,0.0841 -0.10159,0.20164 -0.189783,0.40554 -0.207966,0.63421 -0.01683,0.23117 0.04141,0.45908 0.108601,0.67902 0.0676,0.23774 0.09888,0.49072 0.310394,0.65128 0.265393,0.14945 0.104407,0.0364 -0.462767,0.0774 -0.03375,0.002 0.06733,0.0137 0.101004,0.0103 0.113247,-0.0114 0.177665,-0.10528 0.236189,-0.19043 0.12456,-0.2364 0.236455,-0.47782 0.269195,-0.74683 0.009,-0.25549 -0.02069,-0.47902 -0.179279,-0.6906 -0.122256,-0.1833 -0.28466,-0.34354 -0.491215,-0.42789 -0.109771,-0.0388 -0.221062,-0.0879 -0.336336,-0.10826 -0.04222,-0.007 -0.170751,-0.0107 -0.127944,-0.0131 0.854503,-0.046 0.643233,-0.0231 0.414663,0.006 -0.213398,0.0464 -0.370827,0.1244 -0.382778,0.36676 -0.01204,0.24321 0.05053,0.48621 0.211055,0.67399 0.191389,0.17319 0.422812,0.2793 0.677691,0.32417 -0.180769,0.005 -0.361556,0.009 -0.542309,0.0143 -0.03551,0.001 0.07111,0.001 0.106556,-0.001 0.164528,-0.0107 0.29537,-0.0793 0.40596,-0.20237 0.15039,-0.2068 0.196443,-0.40528 0.06674,-0.63997 -0.103328,-0.1623 -0.241435,-0.33457 -0.44241,-0.36394 0.187201,-0.002 0.374394,-0.006 0.561605,-0.006 0.03051,6e-5 -0.06158,-2e-4 -0.09127,0.007 -0.136895,0.0325 -0.24402,0.12952 -0.324522,0.23961 -0.132302,0.16343 -0.183232,0.37095 -0.143978,0.57869 0.163261,0.42609 0.797639,0.28961 -0.192932,0.31015 0.255963,-0.003 0.471734,-0.12241 0.593082,-0.35254 0.09382,-0.23126 0.17988,-0.48203 0.102301,-0.73041 -0.0383,-0.0909 -0.07311,-0.174 -0.162319,-0.22714 -0.09377,-0.0559 -0.201239,-0.0466 -0.176789,-0.048 0.18846,-0.0106 0.377412,-0.009 0.566121,-0.0132 -0.254532,0.0696 -0.280006,0.3235 -0.288256,0.55551 0.01982,0.25228 0.04936,0.50612 0.150654,0.74084 0.0062,0.0137 0.05977,0.13824 0.07671,0.1605 0.01109,0.0146 0.06068,0.0332 0.04245,0.0349 -1.40071,0.12394 -0.663245,0.0663 -0.506958,-0.007 0.06875,-0.13837 -7.94e-4,-0.28434 -0.103785,-0.38572 -0.09413,-0.10823 -0.104955,-0.20754 -0.08084,-0.34893 0.04121,-0.243 0.01828,-0.49342 0.06945,-0.73604 0.04685,-0.24014 0.122087,-0.47378 0.132033,-0.72011 0.03995,-0.2581 0.101962,-0.51287 0.104095,-0.77537 0.02389,-0.23325 0.0702,-0.46132 0.118777,-0.69045 0.01249,-0.27008 0.03421,-0.53986 0.08724,-0.80546 0.0469,-0.26564 0.05,-0.5322 0.07471,-0.80049 0.0367,-0.28093 0.107672,-0.55553 0.135747,-0.83729 0.03929,-0.31525 0.108972,-0.62493 0.148318,-0.93992 0.04672,-0.33946 0.10959,-0.67657 0.119472,-1.02 0.03976,-0.38314 0.108607,-0.76125 0.15701,-1.14307 0.0507,-0.3652 0.132929,-0.72511 0.171137,-1.09219 0.05303,-0.33582 0.0647,-0.67426 0.111456,-1.011 0.05342,-0.34902 0.105688,-0.69677 0.144415,-1.04775 0.06042,-0.34122 0.126733,-0.68052 0.171029,-1.02438 0.04184,-0.29656 0.04292,-0.59845 0.106908,-0.89248 0.05258,-0.30623 0.06272,-0.61591 0.122568,-0.92097 0.06807,-0.3118 0.135223,-0.62331 0.203917,-0.93474 0.07355,-0.29869 0.122777,-0.60412 0.185335,-0.90524 0.0581,-0.30365 0.107887,-0.60659 0.144952,-0.91362 0.06456,-0.34349 0.138097,-0.68463 0.192138,-1.0301 0.07329,-0.38111 0.107918,-0.76956 0.203052,-1.14701 0.0626,-0.42915 0.115393,-0.85859 0.165362,-1.28933 0.07141,-0.47298 0.110649,-0.94989 0.196927,-1.42072 0.08688,-0.51852 0.13663,-1.04216 0.191762,-1.56473 0.07486,-0.53439 0.164888,-1.06641 0.229269,-1.60233 0.05364,-0.5366 0.137033,-1.06936 0.195382,-1.60541 0.07871,-0.53579 0.140462,-1.07426 0.251206,-1.60484 0.089,-0.53475 0.201826,-1.0663 0.341304,-1.59017 0.120864,-0.50101 0.253939,-0.99895 0.370385,-1.50105 0.110929,-0.52905 0.217011,-1.05879 0.341225,-1.58491 0.115491,-0.50646 0.202187,-1.01963 0.343829,-1.51987 0.110569,-0.45356 0.221932,-0.90743 0.343294,-1.35806 0.1264,-0.39265 0.24044,-0.79 0.341633,-1.18988 0.08092,-0.32733 0.155927,-0.65621 0.221221,-0.98691 0.06347,-0.29092 0.09111,-0.58953 0.158191,-0.88022 0.04068,-0.37962 0.1039,-0.75638 0.203674,-1.12535 0,0 0.661262,0.0184 0.661262,0.0184 z"
       inkscape:connector-curvature="0" />
    <path
       style="opacity:1;fill:#3015e9;fill-opacity:1;fill-rule:nonzero;stroke:#3015e9;stroke-width:1;stroke-linecap:round;stroke-linejoin:round;stroke-miterlimit:4;stroke-dasharray:none;stroke-dashoffset:0;stroke-opacity:1;paint-order:stroke fill markers"
       id="path4549"
       d="m 67.934027,208.3831 c -0.06525,0.37072 -0.02815,0.74553 0.06875,1.10647 0.112805,0.2944 0.244666,0.58175 0.436385,0.83301 0.16001,0.23182 0.337384,0.45039 0.504037,0.67708 0.144092,0.15514 0.264438,0.3345 0.445143,0.4493 -0.01288,0.0375 0.337653,0.0826 0.304361,0.0835 -1.041287,0.0264 -0.572217,0.0149 -0.345848,-0.044 0.209169,-0.0625 0.390631,-0.1858 0.553808,-0.32767 0.180517,-0.17488 0.302217,-0.39956 0.417332,-0.62041 0.120089,-0.24402 0.1524,-0.51212 0.171011,-0.77969 -0.03082,-0.26506 -0.05818,-0.53374 -0.115742,-0.79459 -0.05476,-0.27605 -0.133321,-0.54357 -0.263332,-0.79356 -0.157784,-0.29082 -0.388363,-0.50313 -0.656966,-0.68712 -0.241051,-0.15616 -0.51744,-0.20353 -0.797814,-0.22815 -0.424272,-0.0166 0.267886,-0.005 0.401405,0.004 0.03751,0.002 -0.07477,0.009 -0.111435,0.0174 -0.116046,0.0262 -0.204033,0.0817 -0.303104,0.14441 -0.177286,0.14037 -0.321042,0.32414 -0.433321,0.51964 -0.138014,0.21551 -0.198922,0.4573 -0.233913,0.70741 0,0 -0.660622,-0.009 -0.660622,-0.009 v 0 c 0.03491,-0.25736 0.09358,-0.50894 0.233707,-0.73187 0.110934,-0.20677 0.262276,-0.39444 0.435758,-0.55212 0.0648,-0.0425 0.125275,-0.0924 0.194251,-0.12763 0.340575,-0.1742 0.763072,-0.0747 1.130607,-0.0685 0.284568,0.0326 0.561007,0.0952 0.800698,0.26156 0.271547,0.19256 0.500031,0.42309 0.659609,0.71934 0.128498,0.2566 0.209201,0.52921 0.264668,0.81058 0.05684,0.26734 0.0878,0.54165 0.11602,0.81323 -0.01892,0.27619 -0.05195,0.55308 -0.172074,0.80646 -0.115364,0.22767 -0.239673,0.45788 -0.416666,0.64395 -0.159274,0.15323 -0.348078,0.28265 -0.557324,0.35635 -0.401423,0.14803 -0.892781,0.139 -1.274535,-0.0593 -0.173299,-0.13141 -0.304109,-0.30673 -0.445058,-0.47082 -0.16832,-0.22529 -0.341313,-0.44698 -0.503322,-0.67698 -0.189823,-0.26105 -0.324837,-0.55572 -0.435409,-0.85833 -0.09512,-0.37023 -0.131146,-0.75269 -0.07271,-1.13275 0,0 0.661644,0.009 0.661644,0.009 z"
       inkscape:connector-curvature="0" />
    <path
       style="opacity:1;fill:#3015e9;fill-opacity:1;fill-rule:nonzero;stroke:#3015e9;stroke-width:1;stroke-linecap:round;stroke-linejoin:round;stroke-miterlimit:4;stroke-dasharray:none;stroke-dashoffset:0;stroke-opacity:1;paint-order:stroke fill markers"
       id="path4551"
       d="m 81.329473,165.74423 c 0.08516,0.44813 0.214458,0.88575 0.326348,1.32755 0.135686,0.44963 0.289079,0.89532 0.462981,1.33171 0.125143,0.33748 0.241896,0.67765 0.380892,1.00957 0.109355,0.40864 0.01222,0.30347 -0.689216,0.17176 -0.03186,-0.006 -0.101198,-0.21114 -0.102672,-0.21502 -0.138239,-0.3207 -0.195379,-0.66768 -0.262366,-1.00839 -0.09087,-0.42427 -0.149029,-0.85452 -0.22892,-1.28062 -0.07406,-0.33262 -0.124071,-0.66899 -0.14913,-1.00865 -0.0305,-0.26486 0.03448,-0.49439 0.196099,-0.70239 0.184428,-0.20111 0.448741,-0.25782 0.699818,-0.33242 0.273613,-0.0564 0.540969,-0.12854 0.804105,-0.22236 0.175752,-0.0736 0.09213,-0.0319 0.251415,-0.12413 0,0 0.656818,0.0672 0.656818,0.0672 v 0 c -0.160017,0.10393 -0.07576,0.0578 -0.253185,0.13776 -0.263422,0.0942 -0.527122,0.18104 -0.804241,0.22628 -0.242287,0.0693 -0.503989,0.11715 -0.695063,0.29269 -0.161787,0.19055 -0.225652,0.40045 -0.195884,0.65256 0.02426,0.33711 0.07317,0.67101 0.145034,1.00143 0.07808,0.42624 0.13857,0.85567 0.229417,1.2797 0.06828,0.33681 0.126021,0.6799 0.266486,0.99592 0.01606,0.0372 0.02889,0.076 0.0482,0.11165 0.01545,0.0285 0.08679,0.0712 0.05555,0.0797 -0.72231,0.19731 -0.543025,0.22258 -0.631907,-0.0967 -0.136879,-0.33271 -0.24951,-0.67441 -0.376872,-1.0109 -0.171564,-0.43987 -0.326957,-0.88726 -0.460545,-1.34006 -0.113752,-0.44432 -0.241993,-0.88502 -0.334806,-1.33446 0,0 0.661643,-0.009 0.661643,-0.009 z"
       inkscape:connector-curvature="0" />
    <path
       style="opacity:1;fill:#3015e9;fill-opacity:1;fill-rule:nonzero;stroke:#3015e9;stroke-width:1;stroke-linecap:round;stroke-linejoin:round;stroke-miterlimit:4;stroke-dasharray:none;stroke-dashoffset:0;stroke-opacity:1;paint-order:stroke fill markers"
       id="path4555"
       d="m 85.565815,170.61077 c 0.355327,0.16171 0.727133,0.24818 1.116166,0.24658 -0.949934,-0.0119 -0.482367,0.0199 -0.264459,-0.089 0.1128,-0.0564 0.185155,-0.14126 0.265454,-0.23521 0.161303,-0.19306 0.168497,-0.40484 0.155921,-0.64246 -0.03351,-0.27459 -0.155596,-0.4922 -0.337708,-0.69398 -0.103257,-0.0858 -0.09882,-0.099 -0.224571,-0.1405 -0.222419,-0.0734 -0.950309,-0.0611 0.139502,-0.0344 -0.289481,0.0655 -0.544399,0.22552 -0.765249,0.41883 -0.220816,0.22295 -0.325581,0.51801 -0.394761,0.81734 -0.009,0.0565 -0.01812,0.11294 -0.02718,0.16941 0,0 -0.658159,-0.0103 -0.658159,-0.0103 v 0 c 0.009,-0.0579 0.01812,-0.11577 0.02717,-0.17365 0.06847,-0.31158 0.175713,-0.619 0.395687,-0.85801 0.222533,-0.20509 0.478179,-0.36875 0.769009,-0.45989 0.468194,-0.009 1.024049,-0.13279 1.39668,0.22372 0.184571,0.21576 0.307213,0.45208 0.341265,0.73797 0.01355,0.25189 0.0047,0.48255 -0.158359,0.69164 -0.375131,0.46748 -0.656851,0.37721 -1.310507,0.38075 -0.391676,-0.0111 -0.769033,-0.10961 -1.123059,-0.2794 0,0 0.657154,-0.0694 0.657154,-0.0694 z"
       inkscape:connector-curvature="0" />
    <path
       style="opacity:1;fill:#e915bd;fill-opacity:1;fill-rule:nonzero;stroke:#e915bd;stroke-width:1;stroke-linecap:round;stroke-linejoin:round;stroke-miterlimit:4;stroke-dasharray:none;stroke-dashoffset:0;stroke-opacity:1;paint-order:stroke fill markers"
       id="path4557"
       d="m 55.309682,134.10758 c 0.150619,-0.31726 0.373446,-0.58178 0.695478,-0.72819 0.638244,-0.10745 1.014058,-0.14404 0.876134,0.43952 -0.08424,0.2498 -0.249418,0.43842 -0.445524,0.6076 -0.39319,0.34101 -0.845386,0.37365 -1.373032,0.25537 -0.224419,-0.0969 -0.298164,-0.3212 -0.30363,-0.5496 7.94e-4,-0.2607 0.115268,-0.46529 0.262125,-0.67072 0.3389,-0.41696 0.770112,-0.28797 1.284909,-0.27305 0.246658,0.10444 0.348205,0.32235 0.354108,0.57744 -0.03778,0.24594 -0.188267,0.42771 -0.361971,0.59445 -0.42546,0.36271 -0.853794,0.26486 -1.405371,0.2484 -0.275585,-0.10771 -0.364205,-0.33955 -0.36961,-0.61565 0.03087,-0.2814 0.189931,-0.50125 0.362514,-0.71471 0.205422,-0.2366 0.45531,-0.39924 0.751056,-0.49568 0.467686,-0.067 0.965145,-0.20371 1.159267,0.26618 0.05158,0.28902 -0.06946,0.53401 -0.239138,0.75881 -0.340146,0.37316 -0.922968,0.34544 -1.358736,0.13987 -0.214302,-0.13619 -0.29133,-0.35102 -0.283155,-0.59468 0.111631,-0.44613 0.56759,-0.28098 0.956527,-0.27862 0,0 -0.657508,0.0944 -0.657508,0.0944 v 0 c 1.111308,-0.0292 0.465455,-0.14926 0.363344,0.18661 -0.0084,0.22289 0.07194,0.40835 0.277601,0.51601 0.228407,0.0929 0.657794,0.12702 -0.301037,0.0809 -0.04207,-0.002 0.0839,-0.0134 0.122875,-0.0294 0.09288,-0.038 0.147201,-0.0951 0.221898,-0.159 0.162332,-0.19834 0.286009,-0.42262 0.235498,-0.6871 -0.04134,-0.085 -0.07719,-0.15458 -0.172347,-0.1889 -0.03026,-0.0109 -0.126588,-0.0178 -0.09447,-0.0197 0.141171,-0.008 0.817938,-0.0134 0.424217,-0.001 -0.294677,0.0808 -0.541446,0.22804 -0.748295,0.45659 -0.165155,0.19977 -0.322617,0.40331 -0.359105,0.66818 0.0058,0.25385 0.09894,0.4531 0.362473,0.52389 -1.037484,0.0364 -0.22117,0.0763 0.09337,-0.20909 0.164897,-0.15173 0.312722,-0.31126 0.357852,-0.53905 -0.0056,-0.23256 -0.111115,-0.41905 -0.346337,-0.48624 0.177006,-0.006 0.354026,-0.0116 0.531019,-0.018 0.0389,-0.001 -0.07835,-0.003 -0.116753,0.003 -0.15363,0.0255 -0.285411,0.12233 -0.385072,0.23641 -0.140544,0.1943 -0.260382,0.37762 -0.259509,0.62811 0.004,0.20791 0.08116,0.3993 0.296725,0.45919 0.220406,0.0299 0.474877,0.0587 -0.428566,0.025 -0.04369,-0.002 0.08723,-0.0115 0.128685,-0.0253 0.133892,-0.0448 0.249121,-0.13734 0.359725,-0.22104 0.192976,-0.15413 0.353401,-0.3311 0.442235,-0.56532 0.01005,-0.0411 0.04233,-0.15428 0.03879,-0.20346 -0.0019,-0.0246 -0.0093,-0.0499 -0.02299,-0.0704 -0.01341,-0.0202 -0.07925,-0.044 -0.05524,-0.0472 0.268089,-0.0347 0.831895,-0.0113 0.480507,-0.0243 -0.324813,0.11173 -0.545124,0.37149 -0.690854,0.67645 0,0 -0.66067,-0.0268 -0.66067,-0.0268 z"
       inkscape:connector-curvature="0" />
    <path
       style="opacity:1;fill:#e915bd;fill-opacity:1;fill-rule:nonzero;stroke:#e915bd;stroke-width:1;stroke-linecap:round;stroke-linejoin:round;stroke-miterlimit:4;stroke-dasharray:none;stroke-dashoffset:0;stroke-opacity:1;paint-order:stroke fill markers"
       id="path4559"
       d="m 56.724758,134.61202 c 0.0363,0.33597 0.08132,0.67064 0.107985,1.00763 0.06094,0.24582 0.09148,0.49866 0.151095,0.74436 0.0741,0.25536 0.107694,0.51834 0.127148,0.78267 0.05246,0.26545 0.09923,0.5309 0.124754,0.8004 7.94e-4,0.27086 0.06328,0.53393 0.104206,0.80022 0.06899,0.26566 0.124683,0.53357 0.198205,0.79795 0.06967,0.27039 0.158821,0.53557 0.248571,0.79994 0.07258,0.27567 0.196791,0.53294 0.289618,0.80155 0.109564,0.26571 0.211656,0.53415 0.320188,0.80019 0.109315,0.26631 0.216588,0.5331 0.318302,0.80254 0.105442,0.29062 0.185568,0.58871 0.274733,0.88462 0.123176,0.30478 0.201133,0.62435 0.31774,0.93149 0.121415,0.30574 0.200517,0.62546 0.301456,0.93779 0.08922,0.28488 0.170601,0.5727 0.270542,0.85408 0.08292,0.30603 0.183671,0.60692 0.250891,0.91706 0.08762,0.2706 0.146217,0.54691 0.177982,0.82921 0.06088,0.26502 0.108839,0.53143 0.135115,0.8021 0.01561,0.26831 0.01627,0.53379 0.06161,0.79908 0.0591,0.26407 0.05725,0.53634 0.102311,0.8019 0.06702,0.2631 0.07674,0.53572 0.127755,0.80109 0.07199,0.26262 0.08226,0.53593 0.133752,0.80177 0.06507,0.26464 0.0989,0.53433 0.117858,0.80569 0.05839,0.26356 0.08263,0.53385 0.140296,0.79713 0.06551,0.26538 0.100896,0.53537 0.164515,0.80107 0.06722,0.29177 0.08485,0.58993 0.139975,0.88397 0.03889,0.28714 0.09679,0.56909 0.15652,0.85238 0.07049,0.29273 0.118943,0.59123 0.189518,0.88396 0.06117,0.29141 0.142282,0.57806 0.204084,0.86918 0.08767,0.29935 0.149754,0.60443 0.232137,0.90508 0.06283,0.31023 0.121732,0.62218 0.21208,0.9259 0.09278,0.29352 0.168391,0.59189 0.258516,0.88611 0.103735,0.28705 0.190254,0.57937 0.284475,0.86955 0.08911,0.28813 0.178403,0.57467 0.236312,0.87105 0.09194,0.28346 0.125892,0.57991 0.192374,0.86881 0.08708,0.28315 0.09568,0.57966 0.143938,0.86945 0.05658,0.28914 0.09016,0.58058 0.155911,0.86776 0.04977,0.28305 0.109617,0.56366 0.161851,0.84632 0.05695,0.2957 0.113387,0.59432 0.190566,0.88568 0.07396,0.28949 0.141994,0.58086 0.203531,0.87334 0.09163,0.29859 0.15816,0.60352 0.231786,0.9068 0.07037,0.31339 0.164213,0.62133 0.250507,0.93077 0.08104,0.32488 0.139017,0.65557 0.228433,0.9783 0.09143,0.31239 0.163778,0.63044 0.25962,0.94143 0.08618,0.28526 0.167923,0.57247 0.267891,0.8533 0.08414,0.30342 0.159393,0.60969 0.23137,0.91642 0.05904,0.31164 0.07421,0.6278 0.123076,0.94115 0.05249,0.3125 0.07768,0.62824 0.09135,0.94451 0.0054,0.31086 0.07069,0.61675 0.105227,0.92529 0.0068,0.28444 0.07714,0.55992 0.11603,0.84043 0.03311,0.30192 0.03816,0.60351 0.09021,0.903 0.06501,0.28931 0.06248,0.58686 0.104534,0.87882 0.05129,0.28958 0.08454,0.58043 0.149998,0.86718 0.0508,0.30241 0.103682,0.60344 0.162247,0.90469 0.03981,0.30086 0.08731,0.59962 0.137835,0.89894 0.0273,0.29459 0.103439,0.58024 0.154009,0.871 0.05289,0.26091 0.02889,0.53001 0.07229,0.79113 0.05782,0.23026 0.08736,0.46485 0.104108,0.70119 0.05314,0.26014 0.09898,0.52056 0.124302,0.78496 0.02859,0.26657 0.0061,0.5359 0.04005,0.80149 0.05128,0.26586 0.08409,0.53398 0.102235,0.80397 0.01463,0.26772 0.01492,0.53593 0.01553,0.80397 1.27e-4,0.2673 -2.65e-4,0.5346 -5.29e-4,0.80191 -2.22e-4,0.26726 -2.57e-4,0.53452 -2.65e-4,0.80178 -0.0011,0.26845 0.06441,0.53184 0.09678,0.79778 0.02326,0.26827 0.02733,0.53463 0.07455,0.80006 0.03406,0.27027 0.09126,0.53456 0.148204,0.8006 0.04796,0.27232 0.06828,0.54659 0.115411,0.81903 0.06307,0.29837 0.05996,0.60518 0.10763,0.90508 0.05832,0.27064 0.09278,0.54463 0.111598,0.82056 0.05146,0.26557 0.09876,0.53088 0.124455,0.80031 0.01513,0.23815 0.08752,0.46692 0.121256,0.70308 0.0323,0.25725 0.09831,0.50811 0.132551,0.7656 0.01114,0.27015 0.05011,0.5339 0.09737,0.7996 0.0395,0.23939 0.125309,0.46577 0.166288,0.70562 0.08317,0.21087 0.111082,0.43558 0.166502,0.65345 0.05681,0.26041 0.125151,0.5174 0.187542,0.77651 0.05512,0.26654 0.06893,0.53701 0.121933,0.80387 0.05124,0.25422 0.06524,0.51119 0.129805,0.76245 0.0088,0.0372 0.01765,0.0744 0.02648,0.11165 0,0 -0.661458,0.0154 -0.661458,0.0154 v 0 c -0.0088,-0.0369 -0.0176,-0.0738 -0.0264,-0.11071 -0.06292,-0.25258 -0.0762,-0.51108 -0.128667,-0.76595 -0.0523,-0.266 -0.06597,-0.5357 -0.121846,-0.80107 -0.06307,-0.25879 -0.130006,-0.51606 -0.18831,-0.77595 -0.05439,-0.21987 -0.08922,-0.44424 -0.16684,-0.65832 -0.04225,-0.23906 -0.128995,-0.46553 -0.165323,-0.70536 -0.04751,-0.26657 -0.08529,-0.53155 -0.09756,-0.80243 -0.0348,-0.25715 -0.101478,-0.50771 -0.133387,-0.76488 -0.03488,-0.23679 -0.107495,-0.46681 -0.120402,-0.70629 -0.02606,-0.27001 -0.07535,-0.53554 -0.12446,-0.80211 -0.01881,-0.27405 -0.05398,-0.54595 -0.11095,-0.8149 -0.04558,-0.29982 -0.04406,-0.60584 -0.107185,-0.90377 -0.04855,-0.27148 -0.06719,-0.54518 -0.116234,-0.81655 -0.05747,-0.26672 -0.113149,-0.53219 -0.148307,-0.80302 -0.04675,-0.26665 -0.05115,-0.53423 -0.07467,-0.80356 -0.03301,-0.26852 -0.09889,-0.53459 -0.09689,-0.80583 2.6e-5,-0.26728 6e-5,-0.53456 2.64e-4,-0.80184 2.44e-4,-0.26723 7.94e-4,-0.53447 5.29e-4,-0.8017 -5.29e-4,-0.2666 -7.93e-4,-0.53338 -0.0155,-0.79967 -0.01823,-0.26876 -0.05191,-0.53545 -0.102151,-0.80023 -0.03238,-0.26645 -0.01249,-0.53603 -0.04012,-0.80332 -0.02572,-0.26495 -0.07378,-0.52549 -0.124841,-0.78656 -0.0172,-0.23456 -0.0489,-0.46675 -0.104372,-0.69564 -0.03888,-0.26152 -0.02027,-0.5292 -0.07108,-0.79004 -0.05085,-0.29072 -0.125437,-0.57679 -0.152871,-0.87137 -0.05055,-0.29879 -0.09873,-0.59694 -0.138213,-0.89732 -0.05825,-0.30058 -0.110006,-0.60128 -0.162857,-0.90261 -0.06511,-0.28856 -0.09785,-0.58134 -0.14914,-0.87261 -0.04078,-0.29152 -0.04197,-0.58802 -0.105259,-0.87688 -0.05113,-0.30023 -0.05569,-0.60252 -0.08984,-0.9049 -0.04113,-0.28082 -0.109273,-0.55741 -0.116314,-0.84244 -0.03445,-0.31007 -0.09886,-0.61747 -0.105428,-0.92982 -0.01307,-0.31375 -0.03731,-0.62707 -0.08988,-0.93701 -0.04971,-0.31164 -0.06337,-0.62642 -0.124057,-0.93623 -0.0716,-0.30443 -0.143981,-0.60928 -0.231498,-0.90933 -0.09813,-0.28235 -0.181842,-0.56964 -0.266887,-0.85613 -0.09396,-0.31222 -0.169519,-0.62991 -0.259528,-0.94334 -0.08711,-0.3232 -0.147404,-0.65312 -0.228285,-0.97789 -0.08712,-0.30996 -0.181041,-0.61864 -0.25078,-0.933 -0.07437,-0.3038 -0.142597,-0.60895 -0.232111,-0.90883 -0.06184,-0.29145 -0.131013,-0.58154 -0.204316,-0.87023 -0.07532,-0.29349 -0.133731,-0.59283 -0.189886,-0.89035 -0.0531,-0.28166 -0.113083,-0.56146 -0.162767,-0.8437 -0.06533,-0.28853 -0.09838,-0.58144 -0.15503,-0.87179 -0.04689,-0.28878 -0.05963,-0.58336 -0.144825,-0.86551 -0.06457,-0.28996 -0.101917,-0.58604 -0.191399,-0.87069 -0.05825,-0.29372 -0.149564,-0.57733 -0.236937,-0.86336 -0.09247,-0.29106 -0.182333,-0.58238 -0.283411,-0.87062 -0.08884,-0.2949 -0.168476,-0.59235 -0.259176,-0.88675 -0.08795,-0.30486 -0.147402,-0.61684 -0.212383,-0.9271 -0.08215,-0.30182 -0.143823,-0.60821 -0.231775,-0.90859 -0.06425,-0.29019 -0.142214,-0.57701 -0.203938,-0.86786 -0.06899,-0.29381 -0.121087,-0.59196 -0.190612,-0.88562 -0.05998,-0.28371 -0.116027,-0.56653 -0.15558,-0.85397 -0.05428,-0.29299 -0.07317,-0.59017 -0.140983,-0.88064 -0.06339,-0.2662 -0.09868,-0.53683 -0.164589,-0.80255 -0.05641,-0.26674 -0.08445,-0.53938 -0.140584,-0.80649 -0.01897,-0.26882 -0.05357,-0.5357 -0.117639,-0.79792 -0.04971,-0.26626 -0.06302,-0.53897 -0.133755,-0.80186 -0.0493,-0.26622 -0.06206,-0.53871 -0.127812,-0.80253 -0.04329,-0.26582 -0.0441,-0.53754 -0.102304,-0.80168 -0.0449,-0.26689 -0.04604,-0.53397 -0.06175,-0.80375 -0.02657,-0.27032 -0.07648,-0.53595 -0.135041,-0.80109 -0.03191,-0.28006 -0.09242,-0.55344 -0.177064,-0.82252 -0.06715,-0.30735 -0.165603,-0.60642 -0.250963,-0.90892 -0.09801,-0.2826 -0.181292,-0.5702 -0.269475,-0.85596 -0.09876,-0.31196 -0.181081,-0.62945 -0.301175,-0.93453 -0.114761,-0.30917 -0.197014,-0.62895 -0.318254,-0.93586 -0.08867,-0.29457 -0.169432,-0.59108 -0.275585,-0.87999 -0.102277,-0.26869 -0.208949,-0.53523 -0.318175,-0.80107 -0.107458,-0.26762 -0.213124,-0.53571 -0.320455,-0.80343 -0.09437,-0.26817 -0.216294,-0.52651 -0.289655,-0.80206 -0.09037,-0.26544 -0.178525,-0.53221 -0.248825,-0.80368 -0.07405,-0.26681 -0.130419,-0.53732 -0.198567,-0.80573 -0.04147,-0.26746 -0.103021,-0.53199 -0.104307,-0.80406 -0.02585,-0.26994 -0.07459,-0.53548 -0.124846,-0.80177 -0.0195,-0.26092 -0.054,-0.52012 -0.127347,-0.77211 -0.05843,-0.24936 -0.09409,-0.50442 -0.149254,-0.75468 -0.02606,-0.33888 -0.0702,-0.67544 -0.110847,-1.01277 0,0 0.661776,0 0.661776,0 z"
       inkscape:connector-curvature="0" />
    <path
       style="opacity:1;fill:#e915bd;fill-opacity:1;fill-rule:nonzero;stroke:#e915bd;stroke-width:1;stroke-linecap:round;stroke-linejoin:round;stroke-miterlimit:4;stroke-dasharray:none;stroke-dashoffset:0;stroke-opacity:1;paint-order:stroke fill markers"
       id="path4563"
       d="m 55.607172,134.75904 c -0.173795,0.3857 -0.313508,0.78142 -0.406694,1.19404 -0.05587,0.312 -0.136784,0.6178 -0.179448,0.93221 -0.01241,0.26195 -0.06442,0.51823 -0.115036,0.77488 -0.06024,0.23025 0.05545,0.16941 -0.651534,-0.0252 -0.03039,-0.008 0.01516,-0.0612 0.02103,-0.0922 0.01643,-0.0868 0.01958,-0.13456 0.02902,-0.22342 0.07065,-0.29809 0.09653,-0.60358 0.149211,-0.90457 0.05406,-0.33715 0.122757,-0.67107 0.187426,-1.00626 0.04246,-0.3002 0.09606,-0.59915 0.179901,-0.89079 0.06535,-0.24262 0.162271,-0.46936 0.370065,-0.61828 0.453392,-0.16129 0.94036,-0.0547 1.370623,0.11717 0.271463,0.1312 0.545973,0.25579 0.80263,0.41473 0.310046,0.15933 0.617683,0.32046 0.949298,0.42983 0.292841,0.12376 0.599101,0.19694 0.913736,0.23412 0.179316,0.0559 0.357402,0.0683 0.543478,0.0651 0,0 -0.652386,0.10317 -0.652386,0.10317 v 0 c -0.185211,-0.004 -0.363926,-0.0304 -0.544298,-0.0734 -0.31456,-0.0444 -0.618852,-0.1274 -0.913469,-0.24753 -0.330903,-0.11759 -0.642485,-0.27877 -0.952095,-0.44369 -0.258064,-0.15233 -0.529846,-0.27937 -0.802322,-0.40368 -0.06773,-0.0266 -0.188272,-0.0757 -0.258903,-0.0964 -0.04078,-0.012 -0.166394,-0.0243 -0.124156,-0.029 1.006414,-0.1115 0.555612,-0.004 0.32671,-0.004 -0.215437,0.12069 -0.305398,0.33963 -0.369228,0.5708 -0.08596,0.28899 -0.138039,0.58657 -0.181264,0.88459 -0.06478,0.33476 -0.133289,0.66831 -0.187367,1.00506 -0.05206,0.29939 -0.07642,0.60344 -0.146259,0.89997 -0.0027,0.0269 -0.01783,0.32161 -0.04817,0.32908 -0.429051,0.10563 -0.773588,0.28852 -0.673817,-0.009 0.05548,-0.25426 0.103317,-0.50994 0.117084,-0.77022 0.04292,-0.31661 0.124928,-0.62414 0.182877,-0.93795 0.09455,-0.41569 0.235133,-0.81443 0.40268,-1.20617 0,0 0.66067,0.0268 0.66067,0.0268 z"
       inkscape:connector-curvature="0" />
    <path
       style="opacity:1;fill:#e915bd;fill-opacity:1;fill-rule:nonzero;stroke:#e915bd;stroke-width:1;stroke-linecap:round;stroke-linejoin:round;stroke-miterlimit:4;stroke-dasharray:none;stroke-dashoffset:0;stroke-opacity:1;paint-order:stroke fill markers"
       id="path4565"
       d="m 47.417727,140.47857 c 0.157528,0.4245 0.363855,0.82866 0.558287,1.23705 0.207423,0.4151 0.418566,0.8285 0.612376,1.25035 0.144499,0.31503 0.312584,0.6292 0.396385,0.96727 0.07491,0.39302 -0.312796,0.22059 -0.72459,0.1791 -0.02066,-0.002 -0.123815,-0.13624 -0.143704,-0.16079 -0.242403,-0.32507 -0.427553,-0.69836 -0.594333,-1.06775 -0.205729,-0.42917 -0.39166,-0.8674 -0.531678,-1.32249 -0.133598,-0.35786 -0.211807,-0.73101 -0.255775,-1.10942 -0.04121,-0.28391 0.02418,-0.55188 0.145113,-0.80667 0.123005,-0.21921 0.3009,-0.36443 0.516094,-0.48554 0.245488,-0.13996 0.513167,-0.23438 0.77575,-0.33658 0.307068,-0.13639 0.614442,-0.27365 0.905756,-0.44156 0,0 0.655127,0.0683 0.655127,0.0683 v 0 c -0.289896,0.17462 -0.600181,0.30925 -0.90656,0.45196 -0.260154,0.10316 -0.527971,0.19227 -0.772769,0.32911 -0.212132,0.10794 -0.386585,0.23797 -0.513037,0.44432 -0.121261,0.24204 -0.186637,0.49636 -0.146585,0.76915 0.04268,0.37455 0.120989,0.74292 0.252024,1.0974 0.13938,0.45243 0.32634,0.8872 0.530455,1.31403 0.16805,0.36382 0.35007,0.73407 0.599773,1.0487 0.02749,0.0297 0.05267,0.0617 0.08246,0.0891 0.01902,0.0175 0.08884,0.0416 0.06322,0.0448 -0.205124,0.0259 -0.41333,0.0134 -0.619728,0.0255 -0.0082,5.3e-4 0.01672,0.0148 0.02286,0.009 0.02777,-0.0249 0.0019,-0.1103 -2.65e-4,-0.12377 -0.08329,-0.33356 -0.250227,-0.64328 -0.390856,-0.95513 -0.193894,-0.42135 -0.404849,-0.83444 -0.611285,-1.24962 -0.193958,-0.4105 -0.399606,-0.81608 -0.565081,-1.23926 0,0 0.660672,-0.0268 0.660672,-0.0268 z"
       inkscape:connector-curvature="0" />
    <path
       style="opacity:1;fill:#e915bd;fill-opacity:1;fill-rule:nonzero;stroke:#e915bd;stroke-width:1;stroke-linecap:round;stroke-linejoin:round;stroke-miterlimit:4;stroke-dasharray:none;stroke-dashoffset:0;stroke-opacity:1;paint-order:stroke fill markers"
       id="path4567"
       d="m 59.743479,136.44398 c 0.273548,0.32857 0.529559,0.67145 0.777457,1.01966 0.162478,0.23599 0.330584,0.46547 0.505466,0.69218 0,0 -0.658363,0.0433 -0.658363,0.0433 v 0 c -0.175006,-0.22677 -0.337833,-0.46058 -0.502481,-0.69496 -0.246967,-0.34809 -0.502369,-0.69121 -0.781518,-1.01432 0,0 0.659439,-0.0459 0.659439,-0.0459 z"
       inkscape:connector-curvature="0" />
    <path
       style="opacity:1;fill:#e915bd;fill-opacity:1;fill-rule:nonzero;stroke:#e915bd;stroke-width:1;stroke-linecap:round;stroke-linejoin:round;stroke-miterlimit:4;stroke-dasharray:none;stroke-dashoffset:0;stroke-opacity:1;paint-order:stroke fill markers"
       id="path4569"
       d="m 63.351732,141.63673 c 0.223721,0.28303 0.507651,0.50676 0.76531,0.75657 0.03965,0.0395 0.0793,0.079 0.118946,0.11845 0,0 -0.656545,0.0519 -0.656545,0.0519 v 0 c -0.03962,-0.0392 -0.07924,-0.0784 -0.118859,-0.11755 -0.259413,-0.24938 -0.537115,-0.48016 -0.768522,-0.75748 0,0 0.65967,-0.0519 0.65967,-0.0519 z"
       inkscape:connector-curvature="0" />
    <path
       style="opacity:1;fill:#e915bd;fill-opacity:1;fill-rule:nonzero;stroke:#e915bd;stroke-width:1;stroke-linecap:round;stroke-linejoin:round;stroke-miterlimit:4;stroke-dasharray:none;stroke-dashoffset:0;stroke-opacity:1;paint-order:stroke fill markers"
       id="path4571"
       d="m 65.71,144.89269 c 0.0531,0.23994 0.141724,0.4706 0.236085,0.69688 0,0 -0.657002,0.0257 -0.657002,0.0257 v 0 c -0.09373,-0.22964 -0.180549,-0.46309 -0.240345,-0.70419 0,0 0.661262,-0.0184 0.661262,-0.0184 z"
       inkscape:connector-curvature="0" />
    <path
       style="opacity:1;fill:#e915bd;fill-opacity:1;fill-rule:nonzero;stroke:#e915bd;stroke-width:1;stroke-linecap:round;stroke-linejoin:round;stroke-miterlimit:4;stroke-dasharray:none;stroke-dashoffset:0;stroke-opacity:1;paint-order:stroke fill markers"
       id="path4573"
       d="m 67.612444,148.20734 c 0.143997,0.18508 0.308653,0.35461 0.478306,0.51632 0,0 -0.656198,0.0526 -0.656198,0.0526 v 0 c -0.169868,-0.16776 -0.337937,-0.33974 -0.482545,-0.53007 0,0 0.660437,-0.0389 0.660437,-0.0389 z"
       inkscape:connector-curvature="0" />
    <path
       style="opacity:1;fill:#e915bd;fill-opacity:1;fill-rule:nonzero;stroke:#e915bd;stroke-width:1;stroke-linecap:round;stroke-linejoin:round;stroke-miterlimit:4;stroke-dasharray:none;stroke-dashoffset:0;stroke-opacity:1;paint-order:stroke fill markers"
       id="path4575"
       d="m 69.750339,150.63105 c 0.150034,0.2243 0.298913,0.44942 0.439737,0.67963 0,0 -0.655439,0.0361 -0.655439,0.0361 v 0 c -0.142319,-0.23086 -0.292314,-0.4568 -0.444212,-0.68147 0,0 0.659914,-0.0343 0.659914,-0.0343 z"
       inkscape:connector-curvature="0" />
    <path
       style="opacity:1;fill:#e915bd;fill-opacity:1;fill-rule:nonzero;stroke:#e915bd;stroke-width:1;stroke-linecap:round;stroke-linejoin:round;stroke-miterlimit:4;stroke-dasharray:none;stroke-dashoffset:0;stroke-opacity:1;paint-order:stroke fill markers"
       id="path4577"
       d="m 71.369819,153.12932 c 0.177797,0.16099 0.354361,0.32229 0.53658,0.47849 0,0 -0.655198,0.0565 -0.655198,0.0565 v 0 c -0.183214,-0.15804 -0.36085,-0.32174 -0.541052,-0.48309 0,0 0.65967,-0.0519 0.65967,-0.0519 z"
       inkscape:connector-curvature="0" />
    <path
       style="opacity:1;fill:#e915bd;fill-opacity:1;fill-rule:nonzero;stroke:#e915bd;stroke-width:1;stroke-linecap:round;stroke-linejoin:round;stroke-miterlimit:4;stroke-dasharray:none;stroke-dashoffset:0;stroke-opacity:1;paint-order:stroke fill markers"
       id="path4579"
       d="m 75.347392,157.45018 c 0.107419,0.21357 0.248158,0.40961 0.397622,0.5955 0,0 -0.656776,0.0439 -0.656776,0.0439 v 0 c -0.149058,-0.19325 -0.292145,-0.39373 -0.401515,-0.6126 0,0 0.660669,-0.0268 0.660669,-0.0268 z"
       inkscape:connector-curvature="0" />
    <path
       style="opacity:1;fill:#e915bd;fill-opacity:1;fill-rule:nonzero;stroke:#e915bd;stroke-width:1;stroke-linecap:round;stroke-linejoin:round;stroke-miterlimit:4;stroke-dasharray:none;stroke-dashoffset:0;stroke-opacity:1;paint-order:stroke fill markers"
       id="path4581"
       d="m 72.98878,154.97773 c 0.333209,0.19191 0.65976,0.39005 0.977353,0.60644 0.122568,0.0885 0.223371,0.19624 0.31877,0.31212 0,0 -0.658562,0.0464 -0.658562,0.0464 v 0 c -0.09548,-0.10905 -0.195577,-0.21148 -0.315412,-0.29477 -0.317008,-0.21845 -0.649131,-0.40949 -0.980538,-0.60529 0,0 0.658389,-0.0649 0.658389,-0.0649 z"
       inkscape:connector-curvature="0" />
    <path
       style="opacity:1;fill:#e915bd;fill-opacity:1;fill-rule:nonzero;stroke:#e915bd;stroke-width:1;stroke-linecap:round;stroke-linejoin:round;stroke-miterlimit:4;stroke-dasharray:none;stroke-dashoffset:0;stroke-opacity:1;paint-order:stroke fill markers"
       id="path4583"
       d="m 61.881752,139.76585 c 0.141658,0.11529 0.268044,0.24756 0.396706,0.37672 0,0 -0.654971,0.0516 -0.654971,0.0516 v 0 c -0.130352,-0.12909 -0.26022,-0.25899 -0.401407,-0.37646 0,0 0.659672,-0.0519 0.659672,-0.0519 z"
       inkscape:connector-curvature="0" />
    <path
       style="opacity:1;fill:#e915bd;fill-opacity:1;fill-rule:nonzero;stroke:#e915bd;stroke-width:1;stroke-linecap:round;stroke-linejoin:round;stroke-miterlimit:4;stroke-dasharray:none;stroke-dashoffset:0;stroke-opacity:1;paint-order:stroke fill markers"
       id="path4587"
       d="m 59.547005,136.07731 c 0.05847,0.40044 0.148619,0.79435 0.196591,1.19688 0.07299,0.40809 0.127593,0.81843 0.200078,1.22651 0.07528,0.33973 0.07545,0.68974 0.129569,1.03184 0.05746,0.26097 0.08658,0.52589 0.112659,0.79134 -0.0391,0.31778 -0.245496,0.13856 -0.721611,0.007 -0.03597,-0.01 -0.04607,-0.30223 -0.04868,-0.33241 -0.06055,-0.26503 -0.08803,-0.53574 -0.138012,-0.80243 -0.06248,-0.32431 -0.132578,-0.64816 -0.221499,-0.96637 -0.07013,-0.30334 -0.175352,-0.59423 -0.288538,-0.88347 -0.04588,-0.23124 -0.207595,-0.44857 -0.184473,-0.68815 0.03555,-0.0867 0.09645,-0.13331 0.193558,-0.13213 0.535729,0.007 0.618607,-0.009 0.994924,0.0918 0.283781,0.0978 0.554262,0.22809 0.834374,0.33554 0.314192,0.15198 0.646813,0.25602 0.973055,0.3767 0.276503,0.11019 0.568071,0.15741 0.862896,0.18102 -1.017846,0.0101 -0.475226,-10e-4 -0.25029,-0.0437 0.135009,-0.0256 0.267367,-0.0689 0.399936,-0.1045 0.03887,-0.0139 0.07774,-0.0279 0.116613,-0.0419 0,0 0.656209,0.0792 0.656209,0.0792 v 0 c -0.03941,0.0164 -0.07882,0.0327 -0.118222,0.0491 -0.496035,0.12838 -0.915169,0.23583 -1.457364,0.15915 -0.295704,-0.0296 -0.586312,-0.0867 -0.863288,-0.19819 -0.328007,-0.11718 -0.656198,-0.23293 -0.973357,-0.37819 -0.278313,-0.11022 -0.549579,-0.23889 -0.835824,-0.32808 -0.07898,-0.0212 -0.318691,-0.0537 -0.237342,-0.0621 0.183568,-0.0189 0.369022,-0.008 0.553387,-0.0162 0.04903,-0.002 -0.102333,-0.0201 -0.147225,-2.6e-4 -0.01701,0.008 -0.02551,0.0271 -0.03826,0.0406 -0.03324,0.22189 0.146992,0.43929 0.179916,0.65569 0.113819,0.2912 0.216139,0.58529 0.287423,0.8903 0.08764,0.32054 0.160623,0.64545 0.222678,0.97184 0.0509,0.26876 0.08029,0.5414 0.140065,0.80878 0.0078,0.0832 0.01082,0.14111 0.02715,0.22253 0.0061,0.0306 0.05337,0.0832 0.0231,0.0906 -1.225251,0.29813 -0.638868,0.17761 -0.603618,0.0241 -0.02119,-0.26451 -0.05559,-0.52717 -0.10985,-0.78714 -0.05145,-0.34193 -0.05237,-0.69095 -0.126238,-1.03035 -0.07324,-0.40917 -0.127158,-0.82089 -0.199805,-1.23024 -0.04887,-0.40218 -0.136991,-0.79606 -0.202327,-1.19534 0,0 0.661644,-0.009 0.661644,-0.009 z"
       inkscape:connector-curvature="0" />
    <path
       style="opacity:1;fill:#e915bd;fill-opacity:1;fill-rule:nonzero;stroke:#e915bd;stroke-width:1;stroke-linecap:round;stroke-linejoin:round;stroke-miterlimit:4;stroke-dasharray:none;stroke-dashoffset:0;stroke-opacity:1;paint-order:stroke fill markers"
       id="path4589"
       d="m 67.297823,133.27098 c 0.08266,0.44356 0.166497,0.88596 0.285099,1.32154 0.09075,0.36761 0.251381,0.71342 0.407072,1.05725 0.03919,0.13748 0.130093,0.24986 0.188053,0.37833 0.02529,0.0561 0.03418,0.12361 0.06344,0.1779 -0.232857,0.001 -0.466603,0.0244 -0.698566,0.004 -0.02492,-0.002 -0.02262,-0.0448 -0.03142,-0.0682 -0.05528,-0.14752 -0.09627,-0.30028 -0.148418,-0.44905 -0.122333,-0.35755 -0.192495,-0.72978 -0.284062,-1.09563 -0.07092,-0.37048 -0.180697,-0.73164 -0.255953,-1.10107 -0.04692,-0.27964 -0.09298,-0.56272 -0.01506,-0.83939 0.06829,-0.25479 0.258326,-0.36819 0.482685,-0.47164 0.246026,-0.10603 0.514734,-0.1109 0.775412,-0.14867 0.267644,-0.054 0.538514,-0.0841 0.804841,-0.14428 0.127191,-0.0336 0.254982,-0.0531 0.38585,-0.0618 0,0 0.653531,0.10198 0.653531,0.10198 v 0 c -0.131823,-0.003 -0.257077,0.0135 -0.385027,0.0483 -0.266721,0.0626 -0.536331,0.0961 -0.805296,0.14834 -0.256807,0.0482 -0.524925,0.0367 -0.772604,0.13252 -0.212313,0.0879 -0.410237,0.17556 -0.47855,0.41449 -0.08439,0.26328 -0.02783,0.53911 0.01307,0.80693 0.07451,0.36839 0.181014,0.72932 0.253307,1.09827 0.0901,0.36444 0.162972,0.73422 0.287075,1.08938 0.04266,0.1215 0.08107,0.24385 0.125976,0.36448 0.0092,0.0247 0.01558,0.0504 0.02677,0.0743 0.0083,0.0176 0.05035,0.0454 0.03128,0.0493 -0.207631,0.0421 -0.420962,0.0484 -0.631444,0.0726 -0.05656,-0.19634 -0.168137,-0.36415 -0.243154,-0.5535 -0.154305,-0.3477 -0.314817,-0.69637 -0.403606,-1.06769 -0.118277,-0.43876 -0.198978,-0.88495 -0.291965,-1.32947 0,0 0.661643,-0.009 0.661643,-0.009 z"
       inkscape:connector-curvature="0" />
    <path
       style="opacity:1;fill:#e915bd;fill-opacity:1;fill-rule:nonzero;stroke:#e915bd;stroke-width:1;stroke-linecap:round;stroke-linejoin:round;stroke-miterlimit:4;stroke-dasharray:none;stroke-dashoffset:0;stroke-opacity:1;paint-order:stroke fill markers"
       id="path4591"
       d="m 70.610319,134.42552 c 0.366342,-0.11102 0.746998,-0.15351 1.121696,-0.2237 0.214564,-0.0283 0.108558,-0.0177 0.317952,-0.0323 0,0 0.651783,0.0994 0.651783,0.0994 v 0 c -0.209235,0.009 -0.103257,0.002 -0.317902,0.0231 -0.371412,0.0773 -0.753211,0.10554 -1.117529,0.21873 0,0 -0.656,-0.0853 -0.656,-0.0853 z"
       inkscape:connector-curvature="0" />
    <path
       style="opacity:1;fill:#e915bd;fill-opacity:1;fill-rule:nonzero;stroke:#e915bd;stroke-width:1;stroke-linecap:round;stroke-linejoin:round;stroke-miterlimit:4;stroke-dasharray:none;stroke-dashoffset:0;stroke-opacity:1;paint-order:stroke fill markers"
       id="path4593"
       d="m 75.449543,132.6028 c 0.04379,0.41412 0.131119,0.82272 0.235172,1.22551 0.07784,0.30757 0.160118,0.61612 0.253709,0.91954 0.01326,0.044 0.02928,0.0872 0.03978,0.13196 0.123026,0.52438 -0.440039,0.62394 -0.750009,0.12705 -0.105486,-0.23283 -0.171778,-0.4845 -0.234614,-0.73226 -0.06049,-0.30805 -0.138086,-0.61126 -0.181504,-0.92263 -0.02746,-0.27755 -0.05408,-0.55844 -0.02453,-0.83651 0.02527,-0.24154 0.129437,-0.4573 0.276053,-0.64736 0.171046,-0.17945 0.400146,-0.24965 0.628399,-0.32353 0.257728,-0.091 0.529339,-0.12471 0.79425,-0.18756 0.265094,-0.0653 0.537205,-0.0846 0.804127,-0.14003 0.178189,-0.0359 0.08898,-0.0191 0.267623,-0.0503 0,0 0.653913,0.0925 0.653913,0.0925 v 0 c -0.178427,0.0285 -0.08933,0.0127 -0.267293,0.0474 -0.266837,0.0581 -0.536752,0.0819 -0.803965,0.13834 -0.264211,0.0639 -0.533694,0.0992 -0.793147,0.18193 -0.219393,0.0753 -0.44595,0.12422 -0.623094,0.28653 -0.149532,0.17251 -0.249769,0.38097 -0.276468,0.60926 -0.03074,0.27239 -0.0021,0.54816 0.02376,0.82017 0.04311,0.30894 0.119346,0.61003 0.181962,0.91522 0.06218,0.24052 0.124309,0.4877 0.236289,0.70987 0.170746,0.23902 0.09032,0.0824 -0.567396,0.13086 -0.0077,5.3e-4 0.01693,-0.007 0.0181,-0.0144 0.0037,-0.0246 -0.0016,-0.0497 -0.0046,-0.0744 -0.0045,-0.0372 -0.0092,-0.0745 -0.01786,-0.1109 -0.01058,-0.0446 -0.02643,-0.0879 -0.03967,-0.13179 -0.09136,-0.30499 -0.174522,-0.61365 -0.250777,-0.92259 -0.102585,-0.40596 -0.185243,-0.81723 -0.239842,-1.23255 0,0 0.661643,-0.009 0.661643,-0.009 z"
       inkscape:connector-curvature="0" />
    <path
       style="opacity:1;fill:#e915bd;fill-opacity:1;fill-rule:nonzero;stroke:#e915bd;stroke-width:1;stroke-linecap:round;stroke-linejoin:round;stroke-miterlimit:4;stroke-dasharray:none;stroke-dashoffset:0;stroke-opacity:1;paint-order:stroke fill markers"
       id="path4595"
       d="m 78.908128,135.01293 c -0.0218,0.37474 0.0099,0.74446 0.05868,1.11537 0.05438,0.21272 0.108789,0.46454 0.298249,0.59927 0.230174,0.0568 0.285154,0.0654 -0.51349,0.001 -0.03104,-0.002 0.06084,-0.0139 0.09018,-0.0244 0.113109,-0.0402 0.20126,-0.10382 0.295082,-0.17657 0.190399,-0.16162 0.307406,-0.35781 0.407006,-0.58186 0.111582,-0.24 0.08012,-0.49566 0.0268,-0.74535 -0.08128,-0.25431 -0.278936,-0.41434 -0.509497,-0.53018 -0.225555,-0.0124 -0.739103,-0.14773 0.271783,-0.0166 0.04531,0.006 -0.08961,0.0197 -0.132189,0.0363 -0.09999,0.0389 -0.143211,0.0802 -0.228843,0.14379 -0.03733,0.0336 -0.07467,0.0672 -0.111998,0.10075 0,0 -0.657217,-0.0543 -0.657217,-0.0543 v 0 c 0.0373,-0.0354 0.0746,-0.0708 0.111897,-0.10618 0.416624,-0.34291 0.88364,-0.33203 1.403287,-0.17465 0.237437,0.13647 0.435895,0.3151 0.51305,0.5874 0.05494,0.26239 0.08564,0.53358 -0.0266,0.78665 -0.102762,0.23312 -0.214974,0.44028 -0.409072,0.61301 -0.320194,0.27142 -0.767877,0.44414 -1.191456,0.19837 -0.175263,-0.17286 -0.246822,-0.41248 -0.295085,-0.6483 -0.04759,-0.37386 -0.07601,-0.74642 -0.06235,-1.12384 0,0 0.661775,0 0.661775,0 z"
       inkscape:connector-curvature="0" />
    <path
       style="opacity:1;fill:#3015e9;fill-opacity:1;fill-rule:nonzero;stroke:#3015e9;stroke-width:1;stroke-linecap:round;stroke-linejoin:round;stroke-miterlimit:4;stroke-dasharray:none;stroke-dashoffset:0;stroke-opacity:1;paint-order:stroke fill markers"
       id="path4597"
       d="m 77.239901,160.94152 c -0.264339,0.36533 -0.538339,0.72396 -0.815403,1.07978 -0.281705,0.33673 -0.552606,0.68232 -0.835253,1.01828 -0.272695,0.31497 -0.529481,0.64293 -0.803642,0.95674 -0.219247,0.25028 -0.43652,0.50205 -0.664763,0.7443 -0.216138,0.25799 -0.160631,0.21958 -0.721617,0.0329 -0.03146,-0.0105 0.04493,-0.0488 0.06712,-0.0734 0.02625,-0.0291 0.05216,-0.0586 0.07824,-0.0879 0.200588,-0.22969 0.378634,-0.47744 0.576328,-0.70993 0.206291,-0.27684 0.422534,-0.54502 0.652225,-0.80273 0.235336,-0.24878 0.44451,-0.52058 0.642416,-0.79955 0.20298,-0.2835 0.427773,-0.55164 0.679873,-0.79256 0.329851,-0.28224 0.939303,-0.46061 1.271103,-0.10281 0.140695,0.21724 0.20474,0.47167 0.290862,0.71299 0.08446,0.28668 0.245269,0.54111 0.381299,0.8048 0.146161,0.22751 0.292441,0.45505 0.419359,0.69399 0.07247,0.16917 0.04016,0.0833 0.09704,0.25741 0,0 -0.660165,0.0213 -0.660165,0.0213 v 0 c -0.05653,-0.16636 -0.02445,-0.0843 -0.09638,-0.24608 -0.129553,-0.2377 -0.277432,-0.46416 -0.418598,-0.69501 -0.138564,-0.2657 -0.296833,-0.52449 -0.382293,-0.81387 -0.08172,-0.23215 -0.142788,-0.48142 -0.291659,-0.68162 -0.191076,-0.15484 -0.550857,-0.13084 0.421114,-0.0884 0.03999,0.002 -0.07902,0.0155 -0.11616,0.0305 -0.10623,0.0428 -0.166664,0.0945 -0.259411,0.1607 -0.254836,0.23277 -0.475366,0.50058 -0.678431,0.77926 -0.198742,0.28104 -0.406535,0.55689 -0.64384,0.80695 -0.230341,0.25643 -0.448662,0.52246 -0.651639,0.80123 -0.19847,0.23167 -0.376751,0.47858 -0.573318,0.71125 -0.02577,0.0294 -0.05155,0.0589 -0.07729,0.0883 -0.02223,0.0255 -0.03307,0.0723 -0.0666,0.0764 -0.948478,0.11581 -0.833091,0.1568 -0.597964,-0.13465 0.233252,-0.23728 0.446717,-0.49295 0.668258,-0.741 0.275387,-0.31252 0.531998,-0.64023 0.803982,-0.95548 0.283869,-0.33452 0.552823,-0.68115 0.836641,-1.01569 0.276704,-0.35267 0.5489,-0.70963 0.80813,-1.07526 0,0 0.660437,0.0389 0.660437,0.0389 z"
       inkscape:connector-curvature="0" />
  </g>
</svg>
