<?xml version="1.0" encoding="UTF-8" standalone="no"?>
<!-- Created with Inkscape (http://www.inkscape.org/) -->

<svg
   xmlns:dc="http://purl.org/dc/elements/1.1/"
   xmlns:cc="http://creativecommons.org/ns#"
   xmlns:rdf="http://www.w3.org/1999/02/22-rdf-syntax-ns#"
   xmlns:svg="http://www.w3.org/2000/svg"
   xmlns="http://www.w3.org/2000/svg"
   xmlns:sodipodi="http://sodipodi.sourceforge.net/DTD/sodipodi-0.dtd"
   xmlns:inkscape="http://www.inkscape.org/namespaces/inkscape"
   width="210mm"
   height="297mm"
   viewBox="0 0 210 297"
   version="1.1"
   id="svg8"
   inkscape:version="0.92.1 r15371"
   sodipodi:docname="project-line-when-intersect.svg">
  <defs
     id="defs2" />
  <sodipodi:namedview
     id="base"
     pagecolor="#ffffff"
     bordercolor="#666666"
     borderopacity="1.0"
     inkscape:pageopacity="0.0"
     inkscape:pageshadow="2"
     inkscape:zoom="2.8"
     inkscape:cx="357.77656"
     inkscape:cy="542.11239"
     inkscape:document-units="mm"
     inkscape:current-layer="layer1"
     showgrid="false"
     inkscape:window-width="1920"
     inkscape:window-height="1046"
     inkscape:window-x="-11"
     inkscape:window-y="-11"
     inkscape:window-maximized="1" />
  <metadata
     id="metadata5">
    <rdf:RDF>
      <cc:Work
         rdf:about="">
        <dc:format>image/svg+xml</dc:format>
        <dc:type
           rdf:resource="http://purl.org/dc/dcmitype/StillImage" />
        <dc:title />
      </cc:Work>
    </rdf:RDF>
  </metadata>
  <g
     inkscape:label="Layer 1"
     inkscape:groupmode="layer"
     id="layer1">
    <path
       style="opacity:1;fill:#3015e9;fill-opacity:1;fill-rule:nonzero;stroke:#3015e9;stroke-width:1;stroke-linecap:round;stroke-linejoin:round;stroke-miterlimit:4;stroke-dasharray:none;stroke-dashoffset:0;stroke-opacity:1;paint-order:stroke fill markers"
       id="path4485"
       d="m 46.637543,148.11259 c -0.219427,0.36417 -0.430287,0.73393 -0.628208,1.11028 -0.141262,0.29913 -0.267259,0.60511 -0.410377,0.90333 -0.138933,0.33604 -0.281181,0.6708 -0.415145,1.00887 -0.168457,0.42479 -0.314245,0.85895 -0.440108,1.29826 -0.148672,0.4744 -0.269777,0.95511 -0.382725,1.43889 -0.119589,0.51955 -0.223829,1.04203 -0.323556,1.56573 -0.102695,0.54722 -0.125153,1.10399 -0.140099,1.65912 -0.0032,0.55658 -0.02564,1.11421 0.008,1.67008 0.03046,0.51674 0.148178,1.02268 0.27798,1.52209 0.133024,0.48682 0.309933,0.95603 0.528407,1.41031 0.235233,0.43908 0.488762,0.86802 0.757005,1.28766 0.257127,0.4474 0.618402,0.81566 0.959932,1.19701 0.361495,0.39134 0.748927,0.75635 1.135361,1.12272 0.413166,0.37218 0.84763,0.71884 1.275236,1.07392 0.444971,0.33669 0.89077,0.67399 1.349846,0.9915 0.48019,0.31092 0.978104,0.59423 1.475685,0.87631 0.48841,0.29463 1.009171,0.5206 1.53348,0.74126 0.50723,0.22269 1.010787,0.45197 1.51934,0.67185 0.511699,0.20173 1.035087,0.36996 1.552488,0.55571 0.526433,0.18226 1.064826,0.3241 1.601049,0.47349 0.54755,0.15425 1.104601,0.26375 1.663899,0.36523 0.576934,0.0965 1.154726,0.18617 1.732714,0.27644 0.576894,0.0996 1.158488,0.16314 1.738042,0.2436 0.613246,0.0843 1.231067,0.11933 1.846326,0.18499 0.626735,0.0672 1.256808,0.0875 1.886575,0.0995 0.635431,-0.0125 1.267565,0.0257 1.900861,0.0704 0.600287,0.0276 1.199137,0.0829 1.794259,0.1661 0.580932,0.0694 1.148458,0.21451 1.723451,0.31784 0.536408,0.0937 1.062273,0.22877 1.581028,0.39323 0.504219,0.17574 1.009105,0.34921 1.51529,0.51929 0.530627,0.19275 1.057918,0.39563 1.593554,0.57429 0.533379,0.1941 1.073607,0.36517 1.619789,0.51915 0.590487,0.15398 1.186453,0.28402 1.781895,0.41691 0.675188,0.13762 1.357254,0.23847 2.043155,0.30355 0.809672,0.064 1.6183,0.13136 2.429938,0.16618 0.901121,0.0322 1.802959,0.0335 2.704537,0.0356 -0.05219,-0.005 -0.208693,-0.009 -0.156583,-0.0145 0.327229,-0.0357 0.657643,-0.0301 0.986512,-0.0441 0.516641,-0.022 1.031682,-0.0526 1.547667,-0.0869 1.058937,-0.056 2.117648,-0.11211 3.176349,-0.17314 1.024041,-0.0497 2.046637,-0.12594 3.06818,-0.21228 0.948743,-0.0676 1.894438,-0.17176 2.836833,-0.29951 0.854716,-0.11023 1.706425,-0.23921 2.547875,-0.42616 0.75462,-0.1526 1.49537,-0.359 2.2247,-0.60412 0.66974,-0.20501 1.29862,-0.5022 1.91387,-0.83224 0.54732,-0.30102 1.08303,-0.62655 1.59737,-0.98122 0.4637,-0.3291 0.87667,-0.72123 1.28512,-1.11487 0.41992,-0.41413 0.80323,-0.85941 1.16403,-1.32537 0.42413,-0.51646 0.78211,-1.08041 1.15051,-1.63639 0.38554,-0.6101 0.74114,-1.23813 1.06947,-1.88064 0.35884,-0.66776 0.67842,-1.35521 0.97936,-2.05066 0.29415,-0.71496 0.5652,-1.43927 0.82771,-2.16637 0.28629,-0.71632 0.49054,-1.46013 0.71969,-2.19562 0.21484,-0.73904 0.38249,-1.49097 0.50579,-2.25045 0.14331,-0.74871 0.20515,-1.50798 0.24158,-2.26825 0.0416,-0.71374 -0.0331,-1.42638 -0.14702,-2.13004 -0.0878,-0.6885 -0.27906,-1.35489 -0.50154,-2.01018 -0.22189,-0.68647 -0.53279,-1.33786 -0.86583,-1.97612 -0.36172,-0.66796 -0.78436,-1.293 -1.26217,-1.88242 -0.4909,-0.59454 -1.00623,-1.16422 -1.57207,-1.68811 -0.58687,-0.54155 -1.21357,-1.03609 -1.85843,-1.50609 -0.66744,-0.47821 -1.37569,-0.89576 -2.09999,-1.28111 -0.77401,-0.41327 -1.58823,-0.74204 -2.41357,-1.03637 -0.8717,-0.30512 -1.75777,-0.56593 -2.64325,-0.82738 -0.93209,-0.2539 -1.880735,-0.4336 -2.826372,-0.62721 -0.990092,-0.18293 -1.983422,-0.34826 -2.984048,-0.46114 -1.030104,-0.11149 -2.058529,-0.23702 -3.087565,-0.35775 -1.030357,-0.14228 -2.067134,-0.2285 -3.099755,-0.35184 -1.010957,-0.12133 -2.022396,-0.23692 -3.035356,-0.34059 -1.006083,-0.10882 -2.008777,-0.24474 -3.012683,-0.37124 -1.014344,-0.13485 -2.028545,-0.27119 -3.043748,-0.39948 -1.01341,-0.14688 -2.033728,-0.23658 -3.050175,-0.35901 -0.963536,-0.10009 -1.925955,-0.20799 -2.887663,-0.32442 -0.920713,-0.1027 -1.842188,-0.19719 -2.763811,-0.29159 -0.886571,-0.0989 -1.779346,-0.0969 -2.668764,-0.14789 -0.81642,-0.0604 -1.634263,-0.0924 -2.45259,-0.11002 0.07874,0.003 0.313976,-0.003 0.236233,0.01 -0.131879,0.022 -0.26715,0.0113 -0.400698,0.0175 -0.513805,0.0241 -1.027914,0.045 -1.540928,0.0821 -0.681413,0.0404 -1.356746,0.12863 -2.028997,0.244 -0.587616,0.095 -1.156168,0.25617 -1.721448,0.43838 -0.534577,0.17007 -1.045803,0.4018 -1.552652,0.63997 -0.480115,0.23948 -0.94783,0.50257 -1.404366,0.78418 -0.417853,0.28048 -0.808505,0.60034 -1.17535,0.94433 -0.36639,0.3223 -0.716471,0.66214 -1.07365,0.99458 -0.325647,0.32426 -0.661707,0.63956 -0.977953,0.97324 -0.301488,0.33613 -0.628126,0.65073 -0.969711,0.94589 -0.331267,0.30891 -0.655127,0.62569 -0.980382,0.9409 -0.316016,0.33476 -0.664501,0.63503 -0.985054,0.96513 -0.338143,0.34511 -0.690317,0.6759 -1.03191,1.01742 -0.356743,0.32814 -0.695658,0.67417 -1.044146,1.01083 -0.312579,0.31817 -0.659768,0.59799 -0.997649,0.8881 -0.273462,0.25779 -0.571566,0.48621 -0.860472,0.72586 -0.179509,0.13553 -0.360133,0.26921 -0.536131,0.4093 0,0 -0.655756,-0.0588 -0.655756,-0.0588 v 0 c 0.174778,-0.14136 0.353557,-0.27719 0.536366,-0.40806 0.288049,-0.24112 0.589706,-0.46553 0.862351,-0.72469 0.337259,-0.29003 0.68617,-0.56702 0.998971,-0.88425 0.349179,-0.33556 0.685562,-0.68354 1.044189,-1.00935 0.338606,-0.34385 0.694724,-0.67043 1.031118,-1.01665 0.31981,-0.33184 0.668589,-0.63198 0.985311,-0.96697 0.323387,-0.31832 0.653047,-0.63056 0.980125,-0.94523 0.342871,-0.29088 0.668946,-0.60451 0.969685,-0.93874 0.313896,-0.33751 0.654735,-0.65006 0.978593,-0.97766 0.357772,-0.33194 0.706835,-0.67276 1.074148,-0.99409 0.367599,-0.34809 0.759528,-0.67042 1.177025,-0.95738 0.457174,-0.28441 0.926671,-0.54821 1.407152,-0.79135 0.507241,-0.24017 1.018291,-0.47557 1.553255,-0.6484 0.567029,-0.18207 1.134459,-0.3526 1.724152,-0.4473 0.674034,-0.11591 1.35032,-0.2107 2.033916,-0.24952 0.991457,-0.0771 1.988068,-0.10663 2.982118,-0.11261 0.817984,0.0188 1.63535,0.0531 2.451502,0.11235 0.889157,0.0474 1.78121,0.0515 2.66717,0.15119 0.921644,0.0951 1.843354,0.18844 2.763993,0.29276 0.960755,0.1171 1.922664,0.22194 2.885028,0.32468 1.016687,0.12066 2.036714,0.21345 3.050275,0.35947 1.015243,0.12965 2.029804,0.26471 3.044391,0.39936 1.003379,0.12762 2.005944,0.26165 3.011699,0.36987 1.012912,0.10466 2.024428,0.22013 3.035435,0.34158 1.032788,0.12153 2.069214,0.21072 3.099681,0.35181 1.028962,0.12173 2.057657,0.2452 3.087706,0.35751 1.001085,0.11608 1.995392,0.28123 2.985918,0.46653 0.946717,0.19303 1.896037,0.37505 2.828157,0.63251 0.8863,0.26188 1.77308,0.52362 2.64503,0.83084 0.82663,0.29757 1.6415,0.63023 2.41702,1.04549 0.72409,0.38943 1.43374,0.80811 2.10075,1.29007 0.64595,0.47206 1.2724,0.97037 1.8605,1.51358 0.56547,0.52758 1.08072,1.10104 1.57307,1.69728 0.47779,0.59407 0.90067,1.2239 1.2637,1.89521 0.33404,0.64138 0.64376,1.2968 0.8672,1.98606 0.22224,0.65913 0.41408,1.32889 0.50211,2.02098 0.11297,0.70836 0.18765,1.42525 0.14544,2.14349 -0.0368,0.76261 -0.0991,1.52438 -0.24186,2.27555 -0.12369,0.7624 -0.29238,1.51723 -0.50626,2.25957 -0.22964,0.73636 -0.4334,1.48141 -0.7206,2.19841 -0.26194,0.72854 -0.53381,1.4537 -0.8267,2.17042 -0.30051,0.69692 -0.62113,1.38524 -0.97894,2.05484 -0.32892,0.6445 -0.68388,1.27504 -1.06865,1.88806 -0.3695,0.55627 -0.72449,1.12346 -1.14862,1.64112 -0.36027,0.46946 -0.74344,0.91766 -1.16364,1.3349 -0.40909,0.39677 -0.82313,0.79173 -1.28675,1.12529 -0.51347,0.35926 -1.05268,0.68351 -1.59984,0.9884 -0.61682,0.33243 -1.2447,0.63751 -1.9174,0.84275 -0.7301,0.24823 -1.47168,0.45892 -2.22839,0.61049 -0.84206,0.19083 -1.69477,0.32178 -2.551043,0.43122 -0.943126,0.1303 -1.890027,0.23477 -2.839815,0.30242 -1.021929,0.0864 -2.04478,0.16477 -3.069251,0.21387 -1.058794,0.0601 -2.117374,0.11893 -3.176487,0.17251 -1.212395,0.0812 -2.426621,0.14614 -3.642085,0.15003 -0.902475,-0.002 -1.805234,-0.004 -2.707196,-0.0379 -0.813075,-0.0365 -1.623332,-0.10438 -2.434521,-0.16896 -0.686837,-0.0685 -1.370377,-0.17013 -2.04624,-0.31106 -0.596632,-0.13183 -1.193088,-0.26424 -1.783977,-0.42036 -0.546682,-0.15461 -1.086106,-0.33054 -1.620911,-0.5223 -0.534511,-0.18236 -1.062588,-0.38295 -1.593935,-0.57413 -0.506478,-0.16951 -1.010608,-0.34558 -1.516142,-0.51788 -0.51843,-0.16056 -1.043445,-0.293 -1.578612,-0.38546 -0.573683,-0.10673 -1.141632,-0.24694 -1.722081,-0.31501 -0.595095,-0.0785 -1.192815,-0.13442 -1.792504,-0.16211 -0.632971,-0.0446 -1.26514,-0.0757 -1.900063,-0.0672 -0.63043,-0.0131 -1.261028,-0.036 -1.888268,-0.10486 -0.615616,-0.0651 -1.234053,-0.0993 -1.847254,-0.18678 -0.580213,-0.077 -1.160751,-0.14791 -1.738178,-0.24492 -0.578051,-0.091 -1.156369,-0.17905 -1.733113,-0.27808 -0.559851,-0.10361 -1.117637,-0.2146 -1.66565,-0.37086 -0.537139,-0.14822 -1.074994,-0.29441 -1.601441,-0.47819 -0.518866,-0.184 -1.042538,-0.3544 -1.553647,-0.55984 -0.508344,-0.2193 -1.01007,-0.4521 -1.518348,-0.67138 -0.525505,-0.22161 -1.044662,-0.45474 -1.534745,-0.74886 -0.497935,-0.28356 -0.996958,-0.56722 -1.475801,-0.88222 -0.458811,-0.32013 -0.907764,-0.65547 -1.350668,-0.99703 -0.428718,-0.35559 -0.864148,-0.70316 -1.276403,-1.07817 -0.387117,-0.36767 -0.774957,-0.73438 -1.136275,-1.12788 -0.344831,-0.38269 -0.701812,-0.7585 -0.961286,-1.20774 -0.267632,-0.42267 -0.523997,-0.85275 -0.75719,-1.2955 -0.218837,-0.45844 -0.394774,-0.93239 -0.528585,-1.42293 -0.130365,-0.50361 -0.247012,-1.0138 -0.277228,-1.53476 -0.03312,-0.55781 -0.0108,-1.11726 -0.007,-1.67574 0.01497,-0.5586 0.03564,-1.11894 0.139113,-1.66963 0.09955,-0.52458 0.203856,-1.04789 0.322725,-1.56844 0.112789,-0.48485 0.232529,-0.96682 0.382138,-1.44204 0.124568,-0.44167 0.270938,-0.87752 0.438084,-1.30482 0.133487,-0.33959 0.275711,-0.67566 0.412403,-1.01393 0.145693,-0.29812 0.271412,-0.60545 0.413411,-0.90537 0.198581,-0.37752 0.414103,-0.74581 0.623488,-1.11739 0,0 0.66044,0.0389 0.66044,0.0389 z"
       inkscape:connector-curvature="0" />
    <path
       style="opacity:1;fill:#3015e9;fill-opacity:1;fill-rule:nonzero;stroke:#3015e9;stroke-width:1;stroke-linecap:round;stroke-linejoin:round;stroke-miterlimit:4;stroke-dasharray:none;stroke-dashoffset:0;stroke-opacity:1;paint-order:stroke fill markers"
       id="path4487"
       d="m 71.010647,154.98126 c 0.347715,-0.18288 0.684315,-0.38645 1.024255,-0.5834 0.262554,-0.13383 0.503838,-0.30329 0.748998,-0.46545 0.235339,-0.15815 0.453694,-0.34204 0.667737,-0.52789 0.220504,-0.18352 0.447418,-0.35929 0.666869,-0.54414 0.238779,-0.21016 0.479309,-0.41672 0.7043,-0.6418 0.219318,-0.22784 0.452548,-0.44059 0.672287,-0.6681 0.240581,-0.25224 0.484392,-0.50136 0.729274,-0.74942 0.25154,-0.26358 0.515961,-0.51334 0.780783,-0.76313 0.21953,-0.23466 0.454602,-0.45032 0.70023,-0.65702 0.249439,-0.20483 0.470596,-0.44 0.70516,-0.66123 0.236847,-0.23937 0.490995,-0.45772 0.751618,-0.67036 0.265276,-0.22472 0.525356,-0.45579 0.783182,-0.68894 0.23204,-0.22686 0.452943,-0.46287 0.700056,-0.67363 0.272462,-0.22304 0.53146,-0.46148 0.7864,-0.70412 0.294029,-0.22577 0.552942,-0.48752 0.819039,-0.74407 0.303567,-0.28003 0.606456,-0.5607 0.904438,-0.84668 0.27791,-0.28643 0.575545,-0.55021 0.878636,-0.8093 0.305644,-0.26433 0.598273,-0.54229 0.908063,-0.80181 0.317617,-0.3109 0.646404,-0.60966 0.974352,-0.90965 0.32684,-0.27208 0.654971,-0.54212 0.970992,-0.82682 0.282213,-0.25596 0.539763,-0.53657 0.844074,-0.7668 0.317635,-0.2161 0.616201,-0.45674 0.903298,-0.71151 0.281453,-0.24924 0.536789,-0.52607 0.816912,-0.7765 0.274476,-0.22459 0.541472,-0.45756 0.801237,-0.69895 0.254596,-0.25703 0.523182,-0.49669 0.801436,-0.7275 0.279252,-0.23035 0.541872,-0.47964 0.801942,-0.73114 0.261591,-0.20648 0.492847,-0.44368 0.720627,-0.68588 0.246081,-0.26362 0.498012,-0.52166 0.751089,-0.77855 0.256587,-0.2363 0.537315,-0.44422 0.782812,-0.69247 0.231748,-0.26049 0.461954,-0.52214 0.700167,-0.7768 0.240056,-0.22039 0.46251,-0.4588 0.688771,-0.69306 0.239831,-0.25741 0.494596,-0.49905 0.749744,-0.74077 0.222785,-0.23065 0.451393,-0.45455 0.682408,-0.67672 0.229939,-0.23317 0.455713,-0.47039 0.684485,-0.7047 0.253556,-0.209 0.481087,-0.44378 0.705639,-0.68294 0.22928,-0.21178 0.439174,-0.4432 0.65451,-0.66885 0.214852,-0.26166 0.427768,-0.52429 0.653931,-0.77639 0.247364,-0.22356 0.490542,-0.44714 0.715962,-0.69319 0.23933,-0.26006 0.47415,-0.52516 0.73439,-0.76463 0.27147,-0.2265 0.53803,-0.4583 0.79716,-0.69881 0.27259,-0.25652 0.53756,-0.52094 0.80265,-0.78515 0.27938,-0.27199 0.60428,-0.4882 0.91159,-0.72596 0.2918,-0.23037 0.56009,-0.48818 0.82634,-0.74708 0.26916,-0.26432 0.53519,-0.53182 0.80166,-0.79886 0.23026,-0.24538 0.46216,-0.48814 0.70388,-0.72255 0.25671,-0.22373 0.47283,-0.48559 0.70449,-0.73326 0.23092,-0.21308 0.44547,-0.4423 0.67161,-0.66017 0.21757,-0.22101 0.46942,-0.40135 0.69034,-0.61844 0.21506,-0.23253 0.47206,-0.41945 0.69458,-0.64412 0.21768,-0.19809 0.41781,-0.41345 0.62952,-0.61755 0.2026,-0.20813 0.40544,-0.4165 0.60511,-0.62772 0.21432,-0.24648 0.43431,-0.48771 0.65922,-0.72455 0.20658,-0.22681 0.40423,-0.46257 0.61514,-0.68531 0.20125,-0.20608 0.39827,-0.41307 0.61319,-0.60538 0.22165,-0.21115 0.44047,-0.42535 0.66378,-0.63514 0.23768,-0.21933 0.45284,-0.46021 0.68498,-0.68532 0.20626,-0.20134 0.40826,-0.40969 0.57586,-0.64487 0.0205,-0.037 0.0409,-0.074 0.0614,-0.11105 0,0 0.65991,0.0325 0.65991,0.0325 v 0 c -0.0207,0.0396 -0.0413,0.0791 -0.062,0.11867 -0.1649,0.242 -0.37053,0.45212 -0.57806,0.65751 -0.23289,0.22498 -0.44997,0.46384 -0.68522,0.68619 -0.22304,0.21063 -0.44468,0.42235 -0.66343,0.63689 -0.21428,0.19148 -0.41389,0.39347 -0.61228,0.60077 -0.21632,0.21735 -0.40848,0.4598 -0.61722,0.68446 -0.22472,0.23615 -0.4453,0.47608 -0.65708,0.72397 -0.19665,0.21512 -0.40767,0.41755 -0.60536,0.63154 -0.21285,0.2026 -0.41002,0.42005 -0.63038,0.6151 -0.2186,0.2294 -0.47796,0.41355 -0.6942,0.64526 -0.21878,0.22064 -0.47052,0.39994 -0.69025,0.61974 -0.22717,0.21609 -0.43898,0.44686 -0.67198,0.65712 -0.23671,0.24355 -0.44532,0.51392 -0.70495,0.73582 -0.2418,0.23442 -0.47721,0.47383 -0.70526,0.72136 -0.26661,0.2672 -0.53279,0.53485 -0.80166,0.79978 -0.26693,0.26069 -0.53547,0.5207 -0.82682,0.75438 -0.30466,0.23844 -0.63022,0.45018 -0.91111,0.7179 -0.2653,0.26468 -0.53044,0.52961 -0.80248,0.7874 -0.25832,0.24157 -0.52287,0.47605 -0.79677,0.69991 -0.26377,0.23307 -0.49442,0.50029 -0.7333,0.75829 -0.22449,0.24717 -0.46141,0.47725 -0.71677,0.69267 -0.22722,0.25168 -0.442467,0.51291 -0.653359,0.77835 -0.215011,0.22565 -0.422113,0.46012 -0.654444,0.66828 -0.224293,0.23996 -0.447011,0.481 -0.706416,0.68422 -0.228794,0.2345 -0.45475,0.47172 -0.68312,0.70663 -0.229309,0.22409 -0.464106,0.4422 -0.68298,0.67724 -0.253156,0.24276 -0.513241,0.47815 -0.749977,0.73799 -0.225941,0.23436 -0.445693,0.47588 -0.689478,0.69204 -0.238781,0.25436 -0.470344,0.51502 -0.69951,0.77805 -0.241557,0.25283 -0.52183,0.46212 -0.783852,0.69285 -0.252709,0.25631 -0.504426,0.51364 -0.749798,0.77702 -0.227817,0.24347 -0.454673,0.4874 -0.722008,0.68892 -0.260263,0.25283 -0.522568,0.50404 -0.801656,0.73626 -0.277651,0.23034 -0.550479,0.46386 -0.801624,0.72364 -0.25913,0.24265 -0.524348,0.47848 -0.801155,0.70095 -0.284697,0.24537 -0.536067,0.52669 -0.8176,0.77592 -0.2867,0.25709 -0.583766,0.50208 -0.903589,0.71743 -0.307988,0.22401 -0.564221,0.50357 -0.844288,0.76043 -0.315402,0.28559 -0.642292,0.55733 -0.971875,0.82635 -0.328549,0.30025 -0.661014,0.59605 -0.974122,0.91259 -0.310253,0.25877 -0.603713,0.53525 -0.90786,0.80111 -0.30235,0.25839 -0.601943,0.51841 -0.877877,0.80554 -0.297886,0.28628 -0.600503,0.56744 -0.904978,0.84669 -0.26729,0.25482 -0.517141,0.52627 -0.817732,0.74432 -0.254682,0.24386 -0.51264,0.48455 -0.785521,0.70815 -0.248505,0.20856 -0.471636,0.44067 -0.69964,0.67119 -0.256347,0.23602 -0.52179,0.46284 -0.784053,0.69249 -0.259364,0.21218 -0.517065,0.4243 -0.750449,0.66575 -0.235413,0.22201 -0.458454,0.45623 -0.705871,0.6649 -0.244856,0.20621 -0.484439,0.41537 -0.699881,0.65312 -0.263089,0.25104 -0.533061,0.49476 -0.781865,0.76088 -0.244464,0.24766 -0.487958,0.49628 -0.727504,0.74871 -0.219231,0.22881 -0.452453,0.44131 -0.672443,0.66915 -0.224772,0.2277 -0.465265,0.43528 -0.704546,0.64733 -0.217641,0.18682 -0.44445,0.3625 -0.666867,0.54316 -0.213902,0.18917 -0.433929,0.37412 -0.667919,0.53734 -0.248632,0.15893 -0.484965,0.33916 -0.751639,0.46849 -0.338616,0.19775 -0.676823,0.39718 -1.021284,0.58421 0,0 -0.657153,-0.0694 -0.657153,-0.0694 z"
       inkscape:connector-curvature="0" />
    <path
       style="opacity:1;fill:#3015e9;fill-opacity:1;fill-rule:nonzero;stroke:#3015e9;stroke-width:1;stroke-linecap:round;stroke-linejoin:round;stroke-miterlimit:4;stroke-dasharray:none;stroke-dashoffset:0;stroke-opacity:1;paint-order:stroke fill markers"
       id="path4489"
       d="m 70.062917,155.779 c -0.06478,-0.3235 -0.05175,-0.65127 0.197279,-0.88803 0.302199,-0.16701 0.754562,-0.23383 1.056738,-0.0494 0.05532,0.0338 0.09845,0.0843 0.147807,0.12631 0.169179,0.17661 0.189679,0.3942 0.138131,0.62314 -0.05256,0.21602 -0.206389,0.36822 -0.388993,0.48321 -0.400365,0.17334 -0.872303,0.1426 -1.279459,-0.003 -0.245041,-0.12532 -0.416486,-0.34275 -0.602155,-0.53797 -0.183187,-0.19691 -0.219239,-0.42485 -0.07772,-0.65165 0.183936,-0.19459 0.416949,-0.28736 0.679273,-0.30566 0.547015,-0.0564 0.969655,-0.006 1.460995,0.16945 0.279847,0.13773 0.438872,0.26914 0.388188,0.59718 -0.100388,0.26577 -0.343495,0.40373 -0.596307,0.49887 -0.487029,0.21407 -0.921377,0.16954 -1.46078,0.16432 -0.281078,-0.007 -0.471398,-0.14683 -0.597856,-0.38874 -0.07387,-0.24096 -0.01217,-0.46277 0.118528,-0.66937 0,0 0.6598,0.0389 0.6598,0.0389 v 0 c -0.127275,0.17976 -0.189198,0.38032 -0.117729,0.59706 0.132016,0.22476 0.328951,0.3201 0.590103,0.32227 -0.172567,0.002 -0.345147,0.003 -0.517697,0.007 -0.04485,7.9e-4 0.08992,0.005 0.134561,2.7e-4 0.184825,-0.0181 0.361837,-0.0942 0.5357,-0.15294 0.238207,-0.076 0.478472,-0.19081 0.590486,-0.42838 0.05334,-0.29307 -0.139991,-0.39567 -0.38201,-0.5052 -0.133721,-0.0468 -0.264174,-0.0923 -0.403908,-0.11812 -0.225137,-0.0416 -0.771861,-0.0353 0.250851,-0.0315 -0.257833,0.002 -0.474072,0.071 -0.671237,0.2447 -0.14995,0.19498 -0.08883,0.39097 0.07497,0.562 0.178586,0.19216 0.353039,0.40063 0.600408,0.50593 0.282374,0.0933 0.536721,0.0457 -0.341495,0.0682 -0.03323,7.9e-4 0.06654,0.007 0.09963,0.004 0.06901,-0.007 0.141271,-0.0351 0.206139,-0.0572 0.177403,-0.0916 0.332828,-0.23119 0.386001,-0.42944 0.05355,-0.2066 0.02726,-0.39941 -0.136639,-0.54916 -0.03971,-0.0317 -0.09572,-0.0819 -0.145047,-0.10098 -0.02828,-0.011 -0.119142,-0.0177 -0.08887,-0.0195 1.076542,-0.0623 0.554439,-0.0441 0.348448,0.0425 -0.260678,0.19437 -0.260138,0.51594 -0.194874,0.81234 0,0 -0.661265,0.0184 -0.661265,0.0184 z"
       inkscape:connector-curvature="0" />
    <path
       style="opacity:1;fill:#e915bd;fill-opacity:1;fill-rule:nonzero;stroke:#e915bd;stroke-width:1;stroke-linecap:round;stroke-linejoin:round;stroke-miterlimit:4;stroke-dasharray:none;stroke-dashoffset:0;stroke-opacity:1;paint-order:stroke fill markers"
       id="path4521"
       d="m 54.829244,150.79291 c 0.356235,0.0762 0.705964,0.17209 1.057891,0.26541 0.266406,0.10124 0.542999,0.16766 0.81565,0.24882 0.268967,0.0725 0.532884,0.16279 0.796824,0.25192 0.269087,0.0826 0.534908,0.17541 0.801285,0.26669 0.26909,0.0835 0.535197,0.17617 0.801852,0.26747 0.303763,0.0914 0.607534,0.18195 0.913516,0.2654 0.341085,0.087 0.682443,0.1723 1.02153,0.26735 0.323916,0.0842 0.646695,0.17132 0.967134,0.26786 0.276508,0.0934 0.561853,0.15855 0.840253,0.24499 0.263134,0.0997 0.535062,0.17267 0.801738,0.2616 0.25971,0.0845 0.514279,0.18266 0.764088,0.29264 0.228978,0.11011 0.474339,0.16906 0.71407,0.24817 0.265494,0.0718 0.522544,0.16791 0.791771,0.22593 0.253638,0.082 0.51326,0.13172 0.765479,0.2171 0.239343,0.0604 0.471673,0.14148 0.714225,0.18964 0.264961,0.0488 0.523801,0.11928 0.791768,0.15449 0.23101,0.0668 0.463674,0.12169 0.694044,0.19009 0.255493,0.086 0.519653,0.14464 0.776883,0.22452 0.246499,0.0642 0.487905,0.14776 0.722307,0.24775 0.245991,0.086 0.496988,0.1618 0.749938,0.22575 0.267057,0.0837 0.530103,0.18025 0.799354,0.25669 0.2668,0.0907 0.531505,0.18938 0.802463,0.26724 0.241146,0.0877 0.484237,0.18194 0.707022,0.3102 0.205462,0.0971 0.38341,0.24015 0.587205,0.3392 0.206042,0.0835 0.409025,0.17404 0.617194,0.2538 0.240869,0.12356 0.503452,0.19227 0.760452,0.27321 0.268907,0.0604 0.530699,0.14571 0.801709,0.19737 0.270383,0.0791 0.544634,0.1417 0.818144,0.20835 0.309933,0.0495 0.61001,0.14158 0.919914,0.1909 0.322562,0.0656 0.637257,0.16078 0.9584,0.23174 0.300551,0.0707 0.607436,0.12542 0.90492,0.20863 0.261134,0.0958 0.5363,0.15894 0.795473,0.25916 0.230971,0.0885 0.467609,0.16165 0.697971,0.25154 0.260022,0.0935 0.526396,0.16923 0.785373,0.26545 0.267353,0.0844 0.528016,0.18626 0.802058,0.24781 0.266171,0.0622 0.53871,0.10822 0.802177,0.18177 0.26884,0.0611 0.533633,0.13601 0.801769,0.20008 0.268621,0.0814 0.532043,0.17894 0.801952,0.25584 0.270915,0.0644 0.536896,0.1479 0.801886,0.23332 0.269833,0.0794 0.535631,0.17205 0.80186,0.26308 0.266353,0.066 0.53317,0.13062 0.801465,0.18954 0.2662,0.0649 0.538469,0.11586 0.801957,0.19192 0.279326,0.0687 0.557073,0.1439 0.839023,0.20168 0.29776,0.0556 0.58823,0.1376 0.888963,0.1792 0.270677,0.0668 0.54301,0.11902 0.812009,0.19184 0.266607,0.0743 0.526521,0.16091 0.800738,0.20534 0.271354,0.0591 0.533913,0.14734 0.801944,0.21836 0.271505,0.0605 0.537302,0.1442 0.801949,0.2295 0.269841,0.0795 0.535625,0.17232 0.801865,0.26343 0.247195,0.11579 0.510193,0.18448 0.764508,0.28111 0.231442,0.11081 0.469374,0.21187 0.714275,0.28923 0.261593,0.0961 0.523922,0.19334 0.791943,0.27042 0.266943,0.099 0.54108,0.17366 0.802827,0.2866 0.263287,0.10928 0.536115,0.19296 0.801923,0.29512 0.117457,0.0308 0.220398,0.10729 0.345223,0.0965 0,0 -0.658632,0.10003 -0.658632,0.10003 v 0 c -0.118422,-0.0258 -0.22669,-0.0796 -0.341752,-0.11657 -0.268179,-0.097 -0.538239,-0.18902 -0.802092,-0.2976 -0.263192,-0.10566 -0.534956,-0.18549 -0.802291,-0.2797 -0.266837,-0.0824 -0.529992,-0.17711 -0.79249,-0.27228 -0.24366,-0.0838 -0.481016,-0.18532 -0.715465,-0.29202 -0.253429,-0.0962 -0.515615,-0.16662 -0.763009,-0.27923 -0.26562,-0.0922 -0.532757,-0.18044 -0.801756,-0.26215 -0.26421,-0.0855 -0.531429,-0.16238 -0.801669,-0.22647 -0.266142,-0.0747 -0.529878,-0.15745 -0.801277,-0.21221 -0.272881,-0.051 -0.533382,-0.14095 -0.801375,-0.21124 -0.267978,-0.0715 -0.540293,-0.12326 -0.810792,-0.18428 -0.299472,-0.047 -0.590481,-0.1294 -0.888535,-0.18339 -0.281783,-0.0616 -0.561609,-0.13272 -0.840692,-0.20524 -0.265898,-0.0678 -0.53386,-0.12963 -0.801664,-0.18908 -0.268181,-0.0623 -0.538204,-0.1188 -0.80215,-0.19673 -0.265618,-0.0921 -0.532776,-0.18017 -0.801756,-0.26184 -0.264655,-0.0858 -0.532218,-0.1626 -0.80173,-0.23159 -0.268058,-0.0816 -0.532157,-0.1757 -0.801659,-0.25285 -0.26729,-0.0676 -0.534191,-0.1352 -0.801867,-0.20106 -0.266052,-0.065 -0.53463,-0.12118 -0.802018,-0.1803 -0.272677,-0.0685 -0.535554,-0.16846 -0.802759,-0.25509 -0.261448,-0.0904 -0.525619,-0.17291 -0.785995,-0.2664 -0.232588,-0.0842 -0.466302,-0.165 -0.698323,-0.25078 -0.262649,-0.0894 -0.528982,-0.1703 -0.793589,-0.25339 -0.299508,-0.0746 -0.60176,-0.14048 -0.903229,-0.20652 -0.319831,-0.0747 -0.635402,-0.16652 -0.958374,-0.22804 -0.309046,-0.0555 -0.611748,-0.1407 -0.920977,-0.19575 -0.272966,-0.0687 -0.547415,-0.13018 -0.818751,-0.20533 -0.270166,-0.0573 -0.534749,-0.13761 -0.802523,-0.20455 -0.257607,-0.0829 -0.518801,-0.15599 -0.761982,-0.27731 -0.208007,-0.0829 -0.414017,-0.16935 -0.618508,-0.26048 -0.198935,-0.10798 -0.383217,-0.24155 -0.587404,-0.34077 -0.226566,-0.11652 -0.460444,-0.22025 -0.703792,-0.29662 -0.269388,-0.083 -0.534778,-0.17863 -0.802434,-0.267 -0.267591,-0.0812 -0.531383,-0.17447 -0.799327,-0.25474 -0.253106,-0.0687 -0.507095,-0.13971 -0.751734,-0.23432 -0.236204,-0.0925 -0.474316,-0.17932 -0.720603,-0.24126 -0.259861,-0.0731 -0.519666,-0.14469 -0.777579,-0.22445 -0.228735,-0.0677 -0.460772,-0.12322 -0.69224,-0.18048 -0.267182,-0.0403 -0.526894,-0.11165 -0.792665,-0.15889 -0.241747,-0.054 -0.477242,-0.13138 -0.71591,-0.19704 -0.251132,-0.0828 -0.511069,-0.13174 -0.763542,-0.2108 -0.267925,-0.0643 -0.527288,-0.15764 -0.792679,-0.2313 -0.243141,-0.0736 -0.484198,-0.14841 -0.715597,-0.25522 -0.248317,-0.10959 -0.504275,-0.20172 -0.76222,-0.2859 -0.26875,-0.0829 -0.535096,-0.17043 -0.801521,-0.26016 -0.280609,-0.0794 -0.560906,-0.15809 -0.839218,-0.24542 -0.319958,-0.0967 -0.643668,-0.17959 -0.966343,-0.26668 -0.3389,-0.0951 -0.681133,-0.1773 -1.021416,-0.26719 -0.306216,-0.0866 -0.612619,-0.17222 -0.915779,-0.26918 -0.266152,-0.0926 -0.533754,-0.18086 -0.801856,-0.26749 -0.265841,-0.0925 -0.533117,-0.18093 -0.801278,-0.26636 -0.263313,-0.0899 -0.528555,-0.17508 -0.796668,-0.24947 -0.27186,-0.0816 -0.547307,-0.15004 -0.814372,-0.24721 -0.351861,-0.0967 -0.704802,-0.18375 -1.060296,-0.26607 0,0 0.656,-0.0853 0.656,-0.0853 z"
       inkscape:connector-curvature="0" />
    <path
       style="opacity:1;fill:#3015e9;fill-opacity:1;fill-rule:nonzero;stroke:#3015e9;stroke-width:1;stroke-linecap:round;stroke-linejoin:round;stroke-miterlimit:4;stroke-dasharray:none;stroke-dashoffset:0;stroke-opacity:1;paint-order:stroke fill markers"
       id="path4491"
       d="m 54.690546,168.46815 c 0.296204,-0.23676 0.60288,-0.45949 0.905476,-0.68775 0.04065,-0.0293 0.0813,-0.0585 0.121946,-0.0878 0,0 0.656601,0.0629 0.656601,0.0629 v 0 c -0.04089,0.0285 -0.08177,0.0569 -0.122658,0.0854 -0.299294,0.23029 -0.611577,0.44405 -0.902864,0.68509 0,0 -0.658501,-0.0578 -0.658501,-0.0578 z"
       inkscape:connector-curvature="0" />
    <path
       style="opacity:1;fill:#3015e9;fill-opacity:1;fill-rule:nonzero;stroke:#3015e9;stroke-width:1;stroke-linecap:round;stroke-linejoin:round;stroke-miterlimit:4;stroke-dasharray:none;stroke-dashoffset:0;stroke-opacity:1;paint-order:stroke fill markers"
       id="path4493"
       d="m 57.330302,166.05622 c 0.209376,-0.29463 0.44291,-0.563 0.717161,-0.79815 0.120703,-0.1128 0.257099,-0.20261 0.397817,-0.28751 0,0 0.655757,0.0688 0.655757,0.0688 v 0 c -0.141992,0.0788 -0.279136,0.1628 -0.397605,0.27578 -0.273479,0.22859 -0.509474,0.48611 -0.71269,0.77992 0,0 -0.66044,-0.0389 -0.66044,-0.0389 z"
       inkscape:connector-curvature="0" />
    <path
       style="opacity:1;fill:#3015e9;fill-opacity:1;fill-rule:nonzero;stroke:#3015e9;stroke-width:1;stroke-linecap:round;stroke-linejoin:round;stroke-miterlimit:4;stroke-dasharray:none;stroke-dashoffset:0;stroke-opacity:1;paint-order:stroke fill markers"
       id="path4495"
       d="m 60.403903,163.51715 c 0.125233,-0.20442 0.05974,-0.0978 0.196535,-0.31981 0,0 0.655593,0.0361 0.655593,0.0361 v 0 c -0.135022,0.22184 -0.07131,0.11419 -0.191691,0.32263 0,0 -0.660437,-0.0389 -0.660437,-0.0389 z"
       inkscape:connector-curvature="0" />
    <path
       style="opacity:1;fill:#3015e9;fill-opacity:1;fill-rule:nonzero;stroke:#3015e9;stroke-width:1;stroke-linecap:round;stroke-linejoin:round;stroke-miterlimit:4;stroke-dasharray:none;stroke-dashoffset:0;stroke-opacity:1;paint-order:stroke fill markers"
       id="path4497"
       d="m 62.376041,161.37325 c 0.0846,-0.23597 0.184388,-0.46423 0.298802,-0.68706 0,0 0.656154,0.0314 0.656154,0.0314 v 0 c -0.114171,0.21795 -0.212646,0.44147 -0.293693,0.67405 0,0 -0.661263,-0.0184 -0.661263,-0.0184 z"
       inkscape:connector-curvature="0" />
    <path
       style="opacity:1;fill:#3015e9;fill-opacity:1;fill-rule:nonzero;stroke:#3015e9;stroke-width:1;stroke-linecap:round;stroke-linejoin:round;stroke-miterlimit:4;stroke-dasharray:none;stroke-dashoffset:0;stroke-opacity:1;paint-order:stroke fill markers"
       id="path4499"
       d="m 68.09011,157.23977 c 0.02437,-0.23893 0.01098,-0.11577 0.04049,-0.36945 0,0 0.656894,0.007 0.656894,0.007 v 0 c -0.02744,0.25036 -0.0158,0.12965 -0.03561,0.36207 0,0 -0.661776,0 -0.661776,0 z"
       inkscape:connector-curvature="0" />
    <path
       style="opacity:1;fill:#3015e9;fill-opacity:1;fill-rule:nonzero;stroke:#3015e9;stroke-width:1;stroke-linecap:round;stroke-linejoin:round;stroke-miterlimit:4;stroke-dasharray:none;stroke-dashoffset:0;stroke-opacity:1;paint-order:stroke fill markers"
       id="path4501"
       d="m 64.162045,159.38394 c 0.322837,-0.28559 0.673825,-0.53841 1.026914,-0.78507 0.05315,-0.0337 0.106291,-0.0675 0.159435,-0.10124 0,0 0.65404,0.0665 0.65404,0.0665 v 0 c -0.05335,0.0326 -0.106694,0.0652 -0.160039,0.0978 -0.35061,0.24337 -0.700839,0.4907 -1.02068,0.7739 0,0 -0.65967,-0.0519 -0.65967,-0.0519 z"
       inkscape:connector-curvature="0" />
    <path
       style="opacity:1;fill:#3015e9;fill-opacity:1;fill-rule:nonzero;stroke:#3015e9;stroke-width:1;stroke-linecap:round;stroke-linejoin:round;stroke-miterlimit:4;stroke-dasharray:none;stroke-dashoffset:0;stroke-opacity:1;paint-order:stroke fill markers"
       id="path4503"
       d="m 36.516275,184.91767 c 0.309846,-0.22365 0.60534,-0.46601 0.909529,-0.69694 0.26239,-0.19408 0.497361,-0.42174 0.745043,-0.63414 0.206782,-0.21712 0.415406,-0.43276 0.618061,-0.65391 0.18632,-0.22126 0.405421,-0.41016 0.611759,-0.61165 0.168349,-0.15202 0.320083,-0.32062 0.486355,-0.47499 0.185499,-0.16486 0.357087,-0.34638 0.523721,-0.53043 0.176578,-0.21175 0.36177,-0.41626 0.534731,-0.63119 0.16592,-0.20632 0.373221,-0.37128 0.556861,-0.56003 0.187695,-0.17055 0.356198,-0.35999 0.534672,-0.53971 0.174152,-0.16623 0.342768,-0.33804 0.513594,-0.50774 0.181099,-0.1735 0.355446,-0.35385 0.532749,-0.53127 0.18143,-0.17503 0.356589,-0.35635 0.534754,-0.53475 0.185701,-0.18953 0.378617,-0.37115 0.573472,-0.55142 0.213891,-0.18789 0.435366,-0.36859 0.643186,-0.5632 0.193008,-0.17369 0.387072,-0.34768 0.566422,-0.53564 0.207386,-0.2027 0.423122,-0.39665 0.633159,-0.59665 0.196239,-0.21463 0.404368,-0.41753 0.597186,-0.63531 0.141433,-0.15369 0.290253,-0.30026 0.433149,-0.45252 0.166439,-0.16378 0.351901,-0.30649 0.536411,-0.44905 0.168611,-0.14491 0.334894,-0.29201 0.504616,-0.43572 0.200761,-0.16719 0.40027,-0.33573 0.59958,-0.5047 0.211302,-0.18292 0.444027,-0.33768 0.663705,-0.50997 0.203001,-0.19867 0.419568,-0.38179 0.642556,-0.55737 0.192244,-0.16242 0.383972,-0.32631 0.582705,-0.48077 0.205447,-0.17941 0.428599,-0.33669 0.642102,-0.50587 0.21273,-0.15959 0.42463,-0.31995 0.637569,-0.47919 0.250753,-0.1766 0.477327,-0.38349 0.700722,-0.59275 0.236191,-0.20066 0.456576,-0.41919 0.679416,-0.63436 0.159909,-0.1373 0.316632,-0.2778 0.463349,-0.42924 0,0 0.659609,0.05 0.659609,0.05 v 0 c -0.143539,0.15567 -0.301652,0.29704 -0.464984,0.43177 -0.220663,0.21799 -0.445154,0.4343 -0.681387,0.63541 -0.223097,0.21127 -0.448106,0.42212 -0.69868,0.60103 -0.215331,0.155 -0.421698,0.32162 -0.637736,0.47603 -0.210343,0.17381 -0.440211,0.32403 -0.642792,0.50781 -0.201496,0.14992 -0.39007,0.31844 -0.581638,0.48052 -0.227034,0.17029 -0.444236,0.35463 -0.644428,0.5562 -0.217222,0.17432 -0.449699,0.32729 -0.661029,0.50881 -0.203012,0.16411 -0.397015,0.33948 -0.600059,0.50366 -0.169387,0.14591 -0.339548,0.28945 -0.504759,0.43968 -0.185158,0.13661 -0.362929,0.28276 -0.533985,0.43687 -0.137954,0.15663 -0.293235,0.29746 -0.434724,0.45103 -0.190859,0.22238 -0.406156,0.42141 -0.600075,0.64112 -0.208168,0.19983 -0.420015,0.39564 -0.630565,0.59293 -0.174996,0.19325 -0.373475,0.36548 -0.567309,0.53938 -0.20319,0.1996 -0.430191,0.3762 -0.643901,0.5642 -0.193558,0.18061 -0.388162,0.35948 -0.571791,0.54976 -0.181843,0.17461 -0.351689,0.36146 -0.534752,0.53477 -0.180975,0.17369 -0.35003,0.35957 -0.532632,0.53153 -0.174276,0.16592 -0.337241,0.34347 -0.513197,0.50757 -0.183274,0.1743 -0.343199,0.3719 -0.535768,0.53715 -0.178017,0.19252 -0.388705,0.35182 -0.556699,0.55449 -0.172495,0.21679 -0.359077,0.42079 -0.53444,0.63495 -0.16614,0.1867 -0.339013,0.36913 -0.523118,0.53755 -0.170839,0.14891 -0.31609,0.32303 -0.486886,0.47166 -0.202409,0.20459 -0.429432,0.38454 -0.612659,0.60833 -0.203192,0.22392 -0.417092,0.43703 -0.619421,0.66183 -0.248349,0.21402 -0.486574,0.44011 -0.747308,0.63838 -0.306832,0.22676 -0.600739,0.47157 -0.905632,0.70094 0,0 -0.658389,-0.0649 -0.658389,-0.0649 z"
       inkscape:connector-curvature="0" />
    <path
       style="opacity:1;fill:#3015e9;fill-opacity:1;fill-rule:nonzero;stroke:#3015e9;stroke-width:1;stroke-linecap:round;stroke-linejoin:round;stroke-miterlimit:4;stroke-dasharray:none;stroke-dashoffset:0;stroke-opacity:1;paint-order:stroke fill markers"
       id="path4523"
       d="m 76.185772,154.32659 c 0.267783,-0.25837 0.535594,-0.51905 0.834285,-0.74198 0.19241,-0.16785 0.415649,-0.29277 0.630319,-0.42911 0.206833,-0.13013 0.397193,-0.28132 0.588603,-0.43236 0.1691,-0.10711 0.336634,-0.21868 0.484846,-0.35375 0.189164,-0.1408 0.350303,-0.31179 0.522692,-0.47154 0.196305,-0.20281 0.40952,-0.3906 0.599861,-0.59927 0.162806,-0.19407 0.353711,-0.35417 0.546584,-0.51615 0.190246,-0.129 0.335428,-0.3079 0.47362,-0.48877 0.159353,-0.18629 0.348628,-0.34355 0.5406,-0.49477 0.149669,-0.1532 0.341968,-0.25049 0.50824,-0.38267 0.162523,-0.10492 0.322739,-0.21158 0.479788,-0.32493 0.167677,-0.12156 0.287096,-0.28495 0.415636,-0.44364 0.129588,-0.19504 0.286264,-0.36802 0.458767,-0.52556 0.191862,-0.16023 0.38509,-0.31929 0.579659,-0.47642 0.155919,-0.15468 0.334714,-0.28328 0.512998,-0.41049 0.193469,-0.12478 0.37763,-0.261 0.560846,-0.40012 0.149947,-0.12555 0.283731,-0.26803 0.427511,-0.40012 0.127539,-0.13994 0.277534,-0.25762 0.384,-0.41528 0.126968,-0.16994 0.23745,-0.35122 0.352518,-0.52929 0.117292,-0.16556 0.260477,-0.30839 0.394777,-0.45937 0.143459,-0.13851 0.285948,-0.27695 0.401312,-0.44033 0.129354,-0.17185 0.261059,-0.33987 0.417094,-0.4884 0.170148,-0.13383 0.345842,-0.2617 0.503468,-0.41042 0.143282,-0.12813 0.28548,-0.25908 0.416756,-0.39974 0.15222,-0.15041 0.335531,-0.2623 0.497273,-0.40142 0.109921,-0.0749 0.195059,-0.16302 0.245023,-0.28619 0,0 0.132607,0.005 0.132607,0.005 v 0 c -0.04936,0.12576 -0.132792,0.21722 -0.245695,0.29247 -0.160465,0.1402 -0.344072,0.2508 -0.497028,0.4 -0.130357,0.14178 -0.273672,0.27216 -0.416893,0.40057 -0.156425,0.14999 -0.332772,0.27752 -0.503574,0.41042 -0.156125,0.14762 -0.28775,0.3145 -0.416922,0.48576 -0.114488,0.16457 -0.256511,0.30404 -0.401238,0.44183 -0.133136,0.15134 -0.277397,0.29244 -0.394812,0.45736 -0.114704,0.17832 -0.225504,0.3595 -0.352361,0.52951 -0.10545,0.15983 -0.256387,0.27734 -0.384217,0.41849 -0.144987,0.13125 -0.277776,0.27526 -0.427742,0.40132 -0.183848,0.13842 -0.366585,0.27677 -0.560935,0.40051 -0.178697,0.12618 -0.357462,0.25498 -0.512937,0.4097 -0.195159,0.15609 -0.387059,0.31659 -0.579689,0.4756 -0.172545,0.15673 -0.330046,0.3283 -0.458507,0.52361 -0.129736,0.15875 -0.247581,0.32465 -0.41575,0.44715 -0.157435,0.11257 -0.315595,0.2219 -0.479748,0.32421 -0.165118,0.13401 -0.359442,0.22858 -0.508537,0.38281 -0.192056,0.14974 -0.379947,0.30714 -0.540218,0.4914 -0.13775,0.18188 -0.28312,0.36252 -0.473917,0.49166 -0.191907,0.16242 -0.38481,0.31984 -0.546735,0.51439 -0.189653,0.20967 -0.40409,0.39666 -0.5998,0.60042 -0.172447,0.15959 -0.33261,0.33149 -0.522282,0.47161 -0.146965,0.13673 -0.315201,0.24865 -0.485105,0.35476 -0.192244,0.15045 -0.381492,0.30357 -0.588799,0.43366 -0.214328,0.13684 -0.438621,0.25996 -0.630822,0.42811 -0.299244,0.2212 -0.566687,0.48165 -0.833485,0.7401 0,0 -0.131935,-0.0104 -0.131935,-0.0104 z"
       inkscape:connector-curvature="0" />
    <path
       style="opacity:1;fill:#3015e9;fill-opacity:1;fill-rule:nonzero;stroke:#3015e9;stroke-width:1;stroke-linecap:round;stroke-linejoin:round;stroke-miterlimit:4;stroke-dasharray:none;stroke-dashoffset:0;stroke-opacity:1;paint-order:stroke fill markers"
       id="path4531"
       d="m 89.334199,143.56555 c -7.94e-4,0.3732 -5.3e-4,0.74641 -2.65e-4,1.11961 1.24e-4,0.29457 1.83e-4,0.58914 2.14e-4,0.88371 -0.01881,0.2712 0.01558,0.53461 0.06052,0.80092 0.04602,0.26481 0.06023,0.53328 0.06872,0.80144 0.0037,0.25662 -0.0065,0.51009 0.04343,0.7626 0.05485,0.23506 0.07424,0.47544 0.08613,0.71584 0.0046,0.23522 0.07393,0.46235 0.106349,0.69479 0.0301,0.25444 0.03296,0.51097 0.03573,0.76685 0.0016,0.26709 7.94e-4,0.53419 5.29e-4,0.80129 -2.64e-4,0.26744 -5.29e-4,0.53488 -5.29e-4,0.80232 0.0016,0.27015 -0.06414,0.53515 -0.09689,0.80265 -0.0292,0.266 -0.03347,0.53378 -0.03654,0.80108 -2.64e-4,0.27008 -0.06521,0.53497 -0.09765,0.80253 -0.02886,0.26602 -0.03302,0.53379 -0.03602,0.80108 -0.004,0.2566 -0.0131,0.51004 0.0374,0.76239 0.06241,0.22873 0.05653,0.46824 0.103442,0.69887 0.06497,0.2255 0.09492,0.45712 0.112196,0.69042 0.0065,0.25682 0.03305,0.51657 -7.93e-4,0.77203 -0.05339,0.23055 -0.08576,0.46386 -0.103442,0.6996 -0.0104,0.16825 -0.02008,0.3353 0.0011,0.5027 0,0 -0.132286,0.002 -0.132286,0.002 v 0 c -0.02061,-0.16831 -0.01146,-0.33621 -7.94e-4,-0.50533 0.0176,-0.23599 0.04949,-0.46966 0.103376,-0.70037 0.03457,-0.25443 0.007,-0.51343 7.93e-4,-0.76928 -0.01736,-0.23278 -0.04774,-0.46373 -0.112302,-0.68878 -0.04604,-0.23083 -0.04142,-0.47008 -0.103439,-0.6989 -0.05022,-0.25328 -0.04116,-0.50768 -0.0372,-0.76513 0.003,-0.26778 0.0072,-0.53603 0.03604,-0.80253 0.03232,-0.2671 0.09714,-0.53151 0.09763,-0.80109 0.0031,-0.26779 0.0074,-0.53605 0.03656,-0.80253 0.03262,-0.26699 0.09821,-0.53146 0.09687,-0.80105 6.6e-5,-0.26745 1.74e-4,-0.53489 5.29e-4,-0.80234 2.65e-4,-0.26704 0.0011,-0.53409 -5.29e-4,-0.80112 -0.0028,-0.25532 -0.0057,-0.5113 -0.03588,-0.76516 -0.03267,-0.23276 -0.1021,-0.46031 -0.106256,-0.69597 -0.01196,-0.23978 -0.03153,-0.47948 -0.08627,-0.71392 -0.04967,-0.25326 -0.0395,-0.50748 -0.04323,-0.76476 -0.0085,-0.26756 -0.02267,-0.53544 -0.06869,-0.79965 -0.04504,-0.26703 -0.07925,-0.53123 -0.06052,-0.80312 3.1e-5,-0.29457 9e-5,-0.58915 2.14e-4,-0.88372 1.35e-4,-0.3732 5.29e-4,-0.7464 -2.65e-4,-1.11961 0,0 0.132355,0 0.132355,0 z"
       inkscape:connector-curvature="0" />
    <path
       style="opacity:1;fill:#e915bd;fill-opacity:1;fill-rule:nonzero;stroke:#e915bd;stroke-width:1;stroke-linecap:round;stroke-linejoin:round;stroke-miterlimit:4;stroke-dasharray:none;stroke-dashoffset:0;stroke-opacity:1;paint-order:stroke fill markers"
       id="path4533"
       d="m 77.017556,155.12014 c 0.351703,0.1256 0.703927,0.25102 1.058812,0.36783 0.248968,0.051 0.486789,0.14143 0.734682,0.19629 0.218914,0.0416 0.427503,0.11612 0.648478,0.1513 0.249616,0.0729 0.503735,0.11992 0.762087,0.14651 0.271294,0.002 0.534864,0.0649 0.801733,0.10558 0.243914,0.0223 0.478353,0.10515 0.689996,0.22635 0.193514,0.10273 0.396015,0.19386 0.602097,0.26939 0.198294,0.0743 0.406061,0.1269 0.603575,0.2029 0.200607,0.0829 0.414496,0.11389 0.620371,0.18024 0.217779,0.064 0.442383,0.0804 0.661115,0.14022 0.208322,0.0457 0.416742,0.10172 0.610229,0.19287 0.204833,0.0854 0.381611,0.22084 0.57876,0.32011 0.226066,0.0968 0.472925,0.10935 0.715174,0.11994 0.261284,0.003 0.521378,0.004 0.782122,0.0212 0.222562,0.0449 0.445196,0.0737 0.662461,0.14011 0.197117,0.0547 0.382516,0.14614 0.564367,0.23873 0.181867,0.0723 0.350361,0.17724 0.496154,0.30751 0.239991,0.14511 0.188154,0.23007 -0.09036,0.10512 -0.17126,-0.0714 -0.335201,-0.16077 -0.499152,-0.24835 -0.211982,-0.1204 -0.424191,-0.23869 -0.633267,-0.36401 -0.17493,-0.12264 -0.335682,-0.26001 -0.478946,-0.41835 -0.154083,-0.19884 -0.277144,-0.41376 -0.310351,-0.66544 0.01201,-0.28195 0.303993,-0.21146 0.46804,-0.0899 0.172169,0.13548 0.330993,0.29103 0.477403,0.45422 0.137451,0.16064 0.306517,0.28286 0.469016,0.41541 0.173366,0.11587 0.312344,0.27896 0.41111,0.46167 0.06559,0.18816 -0.01259,0.33851 -0.135578,0.47839 -0.1921,0.17283 -0.430969,0.27605 -0.649057,0.4096 -0.194371,0.12059 -0.457213,0.23532 -0.68035,0.10882 0,0 0.132194,-0.0143 0.132194,-0.0143 v 0 c 0.01693,0.008 0.04945,0.006 0.0508,0.0254 0.0013,0.0168 -0.06442,0.0131 -0.04784,0.0159 0.147547,0.0247 0.294012,-0.0849 0.413768,-0.14919 0.216607,-0.13435 0.45497,-0.23588 0.64834,-0.40579 0.120846,-0.13462 0.2007,-0.27881 0.135417,-0.46216 -0.09968,-0.18098 -0.238371,-0.34105 -0.410636,-0.45653 -0.163687,-0.13204 -0.331118,-0.25685 -0.469273,-0.41745 -0.146926,-0.16183 -0.30421,-0.3178 -0.477155,-0.45143 -0.02828,-0.0199 -0.0543,-0.0435 -0.08485,-0.0597 -0.02702,-0.0143 -0.06967,-0.005 -0.08633,-0.0311 -0.01146,-0.0176 0.05172,-0.0229 0.06285,-0.005 0.0099,0.0158 -0.03592,0.0139 -0.04898,0.0272 -0.03746,0.0383 -0.03788,0.0964 -0.04657,0.14419 0.03302,0.24901 0.156692,0.46154 0.310058,0.65742 0.143184,0.15688 0.303749,0.2935 0.478454,0.41451 0.208756,0.12574 0.421597,0.24289 0.63346,0.36334 0.163605,0.0879 0.328125,0.17594 0.499348,0.24734 0.08215,0.0361 0.0987,0.0243 -0.01164,0.0618 -0.03698,0.0126 -0.122145,-0.16171 -0.161999,-0.14044 -0.146971,-0.12818 -0.314497,-0.23161 -0.495779,-0.30419 -0.181388,-0.0926 -0.367284,-0.1819 -0.564002,-0.23643 -0.216995,-0.0655 -0.439988,-0.0934 -0.662032,-0.13797 0.04204,-0.0485 0.01908,-0.0145 -0.121023,-0.0144 -0.17649,1.5e-4 -0.353134,0.001 -0.529619,-0.002 -0.04374,-7.9e-4 -0.08746,-0.002 -0.131194,-0.003 -0.242985,-0.0114 -0.490437,-0.0255 -0.716113,-0.1255 -0.196122,-0.1009 -0.374087,-0.23441 -0.578829,-0.31961 -0.194546,-0.0883 -0.401595,-0.14521 -0.609865,-0.19066 -0.218778,-0.059 -0.444198,-0.0743 -0.661222,-0.14082 -0.205934,-0.0659 -0.420405,-0.0965 -0.620483,-0.18089 -0.198636,-0.0736 -0.404595,-0.12967 -0.603525,-0.20283 -0.20583,-0.0772 -0.409109,-0.16705 -0.602231,-0.2715 -0.21263,-0.11853 -0.445606,-0.19975 -0.68919,-0.22163 -0.266708,-0.0413 -0.530521,-0.10174 -0.801669,-0.10495 -0.258413,-0.0275 -0.512093,-0.0766 -0.762388,-0.14722 -0.220607,-0.0364 -0.429432,-0.1113 -0.648595,-0.15209 -0.247435,-0.0563 -0.485928,-0.14485 -0.734348,-0.19764 -0.354841,-0.11792 -0.707792,-0.24205 -1.059376,-0.36889 0,0 0.131345,-0.0154 0.131345,-0.0154 z"
       inkscape:connector-curvature="0" />
    <path
       style="opacity:1;fill:#3015e9;fill-opacity:1;fill-rule:nonzero;stroke:#3015e9;stroke-width:1;stroke-linecap:round;stroke-linejoin:round;stroke-miterlimit:4;stroke-dasharray:none;stroke-dashoffset:0;stroke-opacity:1;paint-order:stroke fill markers"
       id="path4537"
       d="m 89.05093,143.56649 c -0.04958,0.37371 -0.07443,0.74861 -0.14103,1.11984 -0.05345,0.29795 -0.148937,0.5848 -0.199486,0.88365 -0.07269,0.22684 -0.127222,0.45571 -0.154863,0.69227 -0.06155,0.21935 -0.109162,0.43978 -0.133948,0.6663 0.0182,0.009 -0.02535,0.35953 -0.122825,0.0686 -0.01122,-0.0335 0.02903,-0.0644 0.0428,-0.0969 0.01529,-0.0361 0.02958,-0.0726 0.04438,-0.10896 0.08357,-0.26303 0.203811,-0.51189 0.295928,-0.77167 0.0672,-0.26795 0.144817,-0.53363 0.196768,-0.80525 0.04505,-0.26471 0.05143,-0.53361 0.05595,-0.80142 -0.0011,-0.0376 -0.01117,-0.40914 0.09774,-0.3833 0.06558,0.0156 0.127069,0.045 0.190603,0.0675 0.131093,0.19788 0.228381,0.41623 0.341908,0.62484 0.144949,0.19532 0.267772,0.40514 0.405966,0.60499 0.151675,0.25202 0.323607,0.49032 0.491215,0.73157 0.142348,0.22685 0.342974,0.40414 0.525656,0.59633 0,0 -0.1319,0.0101 -0.1319,0.0101 v 0 c -0.183656,-0.19199 -0.382694,-0.37147 -0.525603,-0.59837 -0.167817,-0.24113 -0.338662,-0.48016 -0.491157,-0.73163 -0.138194,-0.20035 -0.262451,-0.40975 -0.406257,-0.60637 -0.113175,-0.20769 -0.209005,-0.42613 -0.342109,-0.62158 0.02458,-0.0199 0.05585,-0.0336 0.07371,-0.0596 0.01288,-0.0188 -0.04925,0.0155 -0.05772,0.0366 -0.04149,0.10364 -0.04093,0.21992 -0.03995,0.3292 -0.0045,0.26857 -0.01095,0.53822 -0.05601,0.80369 -0.05192,0.27232 -0.12989,0.53855 -0.196887,0.80724 -0.09184,0.26007 -0.212567,0.50891 -0.29567,0.77229 -2.64e-4,7.9e-4 -0.07914,0.19901 -0.08678,0.20539 -0.227833,0.18995 -0.148556,0.0433 -0.142002,-0.0747 0.02461,-0.22656 0.07129,-0.44729 0.133956,-0.66641 0.02748,-0.2368 0.08113,-0.46619 0.155064,-0.69294 0.05047,-0.29897 0.145894,-0.58586 0.199925,-0.88378 0.06693,-0.371 0.0924,-0.74563 0.140298,-1.11938 0,0 0.132328,0.002 0.132328,0.002 z"
       inkscape:connector-curvature="0" />
    <path
       style="opacity:1;fill:#3015e9;fill-opacity:1;fill-rule:nonzero;stroke:#3015e9;stroke-width:1;stroke-linecap:round;stroke-linejoin:round;stroke-miterlimit:4;stroke-dasharray:none;stroke-dashoffset:0;stroke-opacity:1;paint-order:stroke fill markers"
       id="path4539"
       d="m 88.420031,142.58909 c -0.370993,0.19917 -0.747439,0.38786 -1.120018,0.58399 -0.262683,0.13558 -0.517332,0.28372 -0.786548,0.40687 -0.03006,0.015 -0.061,0.0283 -0.09019,0.0449 -0.02228,0.0127 -0.07041,0.0351 -0.05396,0.0548 0.0038,0.005 0.01931,-0.005 0.01537,-0.009 -0.04,-0.0453 -0.111075,0.008 0.04167,-0.0545 0.17979,-0.0765 0.36,-0.15473 0.531429,-0.24881 0.207531,-0.10307 0.419891,-0.19736 0.631717,-0.29167 0.204462,-0.11534 0.414073,-0.21879 0.61495,-0.34058 0.169047,-0.0498 0.325183,-0.22296 0.50469,-0.23881 0.06714,-0.006 0.134784,0.002 0.202176,0.003 0.160964,0.10136 0.04203,0.30432 -0.0181,0.43621 -0.153625,0.26446 -0.340426,0.50783 -0.51032,0.76177 -0.183251,0.24339 -0.307396,0.52031 -0.446924,0.78845 -0.07316,0.14755 -0.03958,0.0733 -0.101039,0.22265 0,0 -0.132157,-0.005 -0.132157,-0.005 v 0 c 0.0615,-0.15042 0.02785,-0.0758 0.101238,-0.22387 0.140716,-0.26796 0.263279,-0.54635 0.44731,-0.78983 0.169127,-0.25364 0.355573,-0.49634 0.509714,-0.7597 0.05531,-0.12031 0.180139,-0.32557 0.01897,-0.41052 0.02021,-0.002 0.0769,-0.0179 0.06065,-0.006 -0.02434,0.0182 -0.05933,0.0144 -0.08748,0.0258 -0.143333,0.0585 -0.274852,0.14863 -0.417103,0.20967 -0.200794,0.12293 -0.411196,0.22536 -0.615338,0.34226 -0.211781,0.0937 -0.423178,0.18922 -0.631188,0.29053 -0.170426,0.0962 -0.352142,0.17256 -0.5315,0.25025 -0.189151,0.0821 -0.507566,0.09 -0.17585,-0.0666 0.269822,-0.12214 0.524367,-0.27055 0.787196,-0.40603 0.372142,-0.19631 0.748774,-0.38401 1.119204,-0.58362 0,0 0.131429,0.0139 0.131429,0.0139 z"
       inkscape:connector-curvature="0" />
    <path
       style="opacity:1;fill:#3015e9;fill-opacity:1;fill-rule:nonzero;stroke:#3015e9;stroke-width:1;stroke-linecap:round;stroke-linejoin:round;stroke-miterlimit:4;stroke-dasharray:none;stroke-dashoffset:0;stroke-opacity:1;paint-order:stroke fill markers"
       id="path4543"
       d="m 109.53033,129.30917 c 0.0605,-0.452 0.0862,-0.90748 0.10336,-1.36287 0.0365,-0.44279 -0.0237,-0.88206 -0.0648,-1.32189 -0.0508,-0.35213 -0.1162,-0.70126 -0.23815,-1.03607 -0.0825,-0.17848 -0.15028,-0.49944 -0.37217,-0.54835 0.0226,0.007 0.0684,-0.003 0.0679,0.0201 -5.3e-4,0.0288 -0.0488,0.0312 -0.0695,0.0511 -0.0242,0.0234 -0.0449,0.0503 -0.0642,0.0779 -0.0878,0.12564 -0.14344,0.26947 -0.20422,0.40902 -0.15227,0.38733 -0.23267,0.79732 -0.3248,1.20172 -0.11667,0.49378 -0.15144,1.00022 -0.17388,1.50542 -0.0336,0.45472 -0.007,0.90527 0.0448,1.35688 0.0566,0.35675 0.15714,0.70551 0.27648,1.04597 0.10836,0.24283 0.26204,0.45392 0.45089,0.63946 0.18123,0.18916 0.41505,0.26443 0.66579,0.3077 0.22898,0.0426 0.43651,-0.004 0.66314,-0.0632 0.28393,-0.08 0.49693,-0.2651 0.72267,-0.44261 0.19833,-0.14137 0.35965,-0.3186 0.48493,-0.52611 0,0 0.13186,0.007 0.13186,0.007 v 0 c -0.12488,0.20928 -0.28591,0.38867 -0.48535,0.53091 -0.2269,0.17752 -0.43867,0.36604 -0.7232,0.44792 -0.30077,0.082 -0.61516,0.11425 -0.92493,0.0643 -0.25193,-0.0456 -0.48529,-0.12505 -0.66679,-0.31564 -0.18845,-0.18812 -0.34336,-0.40033 -0.45073,-0.64548 -0.11904,-0.34155 -0.21973,-0.69116 -0.27611,-1.04891 -0.0515,-0.45233 -0.078,-0.90358 -0.0441,-1.35895 0.0224,-0.50596 0.0571,-1.01317 0.17351,-1.50777 0.0922,-0.40516 0.17253,-0.81588 0.32427,-1.20418 0.0512,-0.11842 0.19461,-0.5082 0.33766,-0.54942 0.063,-0.0181 0.13039,-0.0138 0.19558,-0.0208 0.22054,0.0694 0.28795,0.37329 0.37225,0.5611 0.12151,0.33608 0.18705,0.6862 0.23761,1.03944 0.0412,0.44039 0.10099,0.88027 0.0644,1.32361 -0.0171,0.45582 -0.0434,0.91158 -0.10187,1.36425 0,0 -0.13232,-0.002 -0.13232,-0.002 z"
       inkscape:connector-curvature="0" />
    <path
       style="opacity:1;fill:#3015e9;fill-opacity:1;fill-rule:nonzero;stroke:#3015e9;stroke-width:1;stroke-linecap:round;stroke-linejoin:round;stroke-miterlimit:4;stroke-dasharray:none;stroke-dashoffset:0;stroke-opacity:1;paint-order:stroke fill markers"
       id="path4547"
       d="m 99.891346,178.97876 c 0.0057,0.40713 0.004,0.81174 -0.03862,1.21678 -0.0667,0.39584 -0.210175,0.77285 -0.407736,1.12091 -0.203351,0.31718 -0.453113,0.60372 -0.730533,0.85788 -0.272646,0.2172 -0.581634,0.38289 -0.91253,0.4906 -0.306879,0.088 -0.637265,0.0811 -0.942758,-0.008 -0.212106,-0.0621 -0.385289,-0.17563 -0.488315,-0.3722 -0.08441,-0.22096 -0.09236,-0.45233 -0.05132,-0.68237 0.06665,-0.19771 0.222128,-0.32511 0.409638,-0.40163 0.28211,-0.0934 0.575834,-0.0583 0.863122,-0.0136 0.303707,0.048 0.601374,0.12994 0.899353,0.20532 0.345543,0.10116 0.680333,0.23334 1.017542,0.35864 0.295257,0.12948 0.592361,0.25339 0.889181,0.37895 0.2137,0.0968 0.44133,0.14433 0.67231,0.17529 0,0 -0.13073,0.0189 -0.13073,0.0189 v 0 c -0.2312,-0.0322 -0.45875,-0.0815 -0.6726,-0.17875 -0.296971,-0.12475 -0.593011,-0.25065 -0.888775,-0.37843 -0.336873,-0.12557 -0.671788,-0.2571 -1.017408,-0.35723 -0.297899,-0.0757 -0.595831,-0.15654 -0.89966,-0.20402 -0.216278,-0.0333 -0.382508,-0.067 -0.600826,0.0108 -0.185732,0.0719 -0.340868,0.1945 -0.4088,0.38822 -0.04095,0.22714 -0.03357,0.4557 0.05129,0.67355 0.103828,0.19266 0.278178,0.30143 0.487114,0.36159 0.231865,0.0637 0.449069,0.0846 0.680813,0.008 0.330803,-0.10523 0.639169,-0.26977 0.912214,-0.48497 0.27776,-0.2522 0.526479,-0.53836 0.730433,-0.85375 0.197654,-0.34612 0.340704,-0.72141 0.407765,-1.11548 0.04258,-0.40458 0.04489,-0.80873 0.03748,-1.21541 0,0 0.132355,0 0.132355,0 z"
       inkscape:connector-curvature="0" />
    <path
       style="opacity:1;fill:#e915bd;fill-opacity:1;fill-rule:nonzero;stroke:#e915bd;stroke-width:1;stroke-linecap:round;stroke-linejoin:round;stroke-miterlimit:4;stroke-dasharray:none;stroke-dashoffset:0;stroke-opacity:1;paint-order:stroke fill markers"
       id="path4549"
       d="m 102.58132,161.24788 c 0.0792,-0.42851 0.0679,-0.8593 0.0427,-1.29164 -0.0511,-0.42178 -0.14573,-0.83831 -0.25883,-1.24756 -0.0754,-0.30663 -0.20024,-0.59484 -0.35827,-0.86706 -0.0485,-0.0614 -0.0854,-0.1217 -0.15392,-0.16271 -0.0192,-0.0115 -0.0861,-0.016 -0.0641,-0.0203 0.14548,-0.0287 0.0348,0.0853 0.0152,0.13893 -0.0725,0.28221 -0.11651,0.56783 -0.14245,0.85786 -0.0155,0.44951 -0.077,0.89508 -0.11499,1.34294 -0.0397,0.51987 -0.0464,1.04142 -0.0513,1.56255 -0.0144,0.43256 0.01,0.86609 0.0949,1.29077 0.0527,0.29765 0.1446,0.58014 0.27349,0.85244 0.12627,0.22652 0.30336,0.34184 0.55748,0.36411 0.0414,-6e-5 0.0833,0.007 0.12415,-1.7e-4 0.007,-0.001 -0.009,-0.0171 -0.003,-0.0201 0.0411,-0.0206 0.0884,-0.0263 0.13072,-0.0443 0.13865,-0.0587 0.27089,-0.14133 0.39976,-0.21831 0.28551,-0.17609 0.52701,-0.40331 0.72774,-0.67049 0.12953,-0.1583 0.21031,-0.34487 0.29731,-0.52769 0,0 0.13182,0.006 0.13182,0.006 v 0 c -0.0873,0.18352 -0.16768,0.37124 -0.29759,0.53028 -0.20049,0.26897 -0.4422,0.49777 -0.72813,0.6756 -0.28993,0.17459 -0.55905,0.32927 -0.91409,0.2887 -0.25519,-0.0272 -0.43352,-0.14973 -0.55871,-0.3777 -0.12888,-0.27333 -0.22001,-0.55726 -0.27292,-0.85569 -0.0844,-0.42569 -0.1088,-0.86003 -0.0942,-1.29349 0.005,-0.52144 0.0117,-1.04331 0.0513,-1.56352 0.0378,-0.44787 0.099,-0.89348 0.11433,-1.34299 0.0256,-0.29114 0.0696,-0.57776 0.14126,-0.86124 0.10143,-0.29304 0.34677,-0.14293 0.46737,0.0417 0.15775,0.27346 0.28219,0.5629 0.35768,0.87046 0.11276,0.41026 0.20792,0.82756 0.25852,1.25033 0.0252,0.43318 0.036,0.86472 -0.0414,1.29427 0,0 -0.13233,-0.002 -0.13233,-0.002 z"
       inkscape:connector-curvature="0" />
    <path
       style="opacity:1;fill:#e915bd;fill-opacity:1;fill-rule:nonzero;stroke:#e915bd;stroke-width:1;stroke-linecap:round;stroke-linejoin:round;stroke-miterlimit:4;stroke-dasharray:none;stroke-dashoffset:0;stroke-opacity:1;paint-order:stroke fill markers"
       id="path4551"
       d="m 104.67018,154.92635 c -0.12588,0.43793 -0.14439,0.89352 -0.10937,1.34522 0.0545,0.42382 0.0985,0.84824 0.12229,1.2749 0,0 -0.13133,8e-4 -0.13133,8e-4 v 0 c -0.0236,-0.42657 -0.0678,-0.85088 -0.12198,-1.27462 -0.0347,-0.45323 -0.016,-0.91005 0.10813,-1.34992 0,0 0.13226,0.004 0.13226,0.004 z"
       inkscape:connector-curvature="0" />
    <path
       style="opacity:1;fill:#3015e9;fill-opacity:1;fill-rule:nonzero;stroke:#3015e9;stroke-width:1;stroke-linecap:round;stroke-linejoin:round;stroke-miterlimit:4;stroke-dasharray:none;stroke-dashoffset:0;stroke-opacity:1;paint-order:stroke fill markers"
       id="path4553"
       d="m 79.484568,141.92622 c -0.31034,-0.20309 -0.656463,-0.32864 -1.01641,-0.40808 -0.237339,-0.0313 -0.455385,0.0597 -0.656349,0.1782 -0.248222,0.15686 -0.404045,0.4018 -0.519615,0.6653 -0.09464,0.24333 -0.119145,0.48664 -0.04289,0.73608 0.06357,0.24288 0.229865,0.42589 0.385278,0.61397 0.162812,0.17488 0.363763,0.27057 0.598562,0.29444 -0.0019,-0.004 -0.0099,-0.011 -0.0057,-0.0128 0.04123,-0.0173 0.08685,-0.0223 0.128423,-0.0388 0.194765,-0.0772 0.342451,-0.20502 0.475917,-0.36217 0.18715,-0.18777 0.276979,-0.4135 0.322106,-0.66934 0.01352,-0.26368 0.07094,-0.5211 0.109776,-0.78161 0.02723,-0.29645 0.225727,-0.23764 0.337786,-0.002 0.11036,0.248 0.224065,0.49461 0.334756,0.74256 0.09634,0.28425 0.249243,0.54347 0.383878,0.81026 0.09617,0.15463 0.04946,0.078 0.140235,0.22972 0,0 -0.13195,0.007 -0.13195,0.007 v 0 c -0.09082,-0.15177 -0.04417,-0.0749 -0.140052,-0.23068 -0.134964,-0.26685 -0.287147,-0.5266 -0.383943,-0.81088 -0.110881,-0.24781 -0.224141,-0.49457 -0.335346,-0.74214 -0.06378,-0.12975 -0.150222,-0.11958 0.0011,-0.16724 0.01,-0.003 -0.02331,2.6e-4 -0.03039,0.008 -0.03608,0.0393 -0.03703,0.11261 -0.04406,0.15721 -0.03878,0.26065 -0.0964,0.51814 -0.109657,0.78196 -0.04506,0.25786 -0.133882,0.48697 -0.322694,0.67627 -0.225951,0.27022 -0.498552,0.43916 -0.861126,0.42372 -0.235503,-0.0276 -0.437748,-0.1278 -0.599742,-0.30456 -0.15672,-0.18908 -0.321389,-0.37519 -0.3855,-0.61922 -0.07588,-0.25263 -0.05204,-0.49899 0.04322,-0.74542 0.115496,-0.26565 0.271626,-0.51361 0.520144,-0.67348 0.286007,-0.17239 0.581366,-0.23165 0.918242,-0.18232 0.360436,0.0814 0.706667,0.20914 1.017579,0.41284 0,0 -0.131678,0.013 -0.131678,0.013 z"
       inkscape:connector-curvature="0" />
    <path
       style="opacity:1;fill:#3015e9;fill-opacity:1;fill-rule:nonzero;stroke:#3015e9;stroke-width:1;stroke-linecap:round;stroke-linejoin:round;stroke-miterlimit:4;stroke-dasharray:none;stroke-dashoffset:0;stroke-opacity:1;paint-order:stroke fill markers"
       id="path4555"
       d="m 95.104018,146.08609 c -0.32471,-0.14929 -0.581803,-0.16635 -0.911942,-0.0536 -0.242946,0.12649 -0.345837,0.36696 -0.44549,0.60723 -0.07314,0.25995 -0.150058,0.5271 -0.176535,0.7966 -0.01503,0.27769 0.0041,0.53983 0.142311,0.78456 0.02821,0.0314 0.05323,0.066 0.08462,0.0943 0.08815,0.0794 0.197175,0.13142 0.31524,0.14289 0.159859,0.0155 0.125383,0.008 0.0801,-0.006 0.240216,-0.0455 0.420235,-0.18455 0.586846,-0.35476 0.207256,-0.20914 0.348218,-0.47046 0.455454,-0.74216 0.09013,-0.25833 0.104997,-0.53197 0.114334,-0.80286 0.03562,-0.18462 -0.03834,-0.37108 -0.01865,-0.55446 0.05677,0.0229 0.122251,0.0307 0.17031,0.0686 0.04062,0.032 0.144589,0.49369 0.162348,0.56461 0.09438,0.29892 0.160319,0.60473 0.268481,0.89941 0.08927,0.27522 0.190471,0.54316 0.318796,0.80231 0.08833,0.15466 0.184756,0.30517 0.292177,0.44722 0,0 -0.131858,0.009 -0.131858,0.009 v 0 c -0.107077,-0.14318 -0.204449,-0.29395 -0.29237,-0.44967 -0.128267,-0.25959 -0.22861,-0.52841 -0.31846,-0.80375 -0.107794,-0.29526 -0.174271,-0.60145 -0.268846,-0.90078 -0.0141,-0.056 -0.169693,-0.54381 -0.16283,-0.56144 0.01458,-0.0374 0.0638,-0.0489 0.0957,-0.0733 -0.02806,0.18093 0.05853,0.37062 0.0173,0.5532 -0.0094,0.27238 -0.02442,0.54746 -0.114522,0.80736 -0.107143,0.27324 -0.248291,0.53647 -0.45569,0.7474 -0.167142,0.17266 -0.346498,0.31368 -0.587605,0.36437 -0.296719,0.01 -0.549603,0.0199 -0.742788,-0.24413 -0.137203,-0.24798 -0.157978,-0.51227 -0.142476,-0.79258 0.02638,-0.27081 0.103796,-0.5391 0.176644,-0.80048 0.100158,-0.24309 0.203851,-0.48633 0.446474,-0.61832 0.384728,-0.13722 0.801915,-0.11122 1.174276,0.0544 0,0 -0.131344,0.0154 -0.131344,0.0154 z"
       inkscape:connector-curvature="0" />
    <path
       style="opacity:1;fill:#3015e9;fill-opacity:1;fill-rule:nonzero;stroke:#3015e9;stroke-width:1;stroke-linecap:round;stroke-linejoin:round;stroke-miterlimit:4;stroke-dasharray:none;stroke-dashoffset:0;stroke-opacity:1;paint-order:stroke fill markers"
       id="path4557"
       d="m 97.934668,147.70555 c 0.151426,0.35943 0.246573,0.73708 0.30758,1.12125 0.0209,0.14401 0.02977,0.28926 0.04014,0.43426 0.0016,0.0222 0.0029,0.0444 0.0049,0.0665 5.3e-4,0.006 0.0081,0.0198 0.0026,0.0175 -0.04631,-0.0199 -0.0882,-0.0487 -0.132307,-0.0731 0.02379,-0.22537 0.100854,-0.43543 0.168497,-0.64965 0.07627,-0.19744 0.167714,-0.36525 0.381577,-0.42548 0.266388,-0.0358 0.439161,0.0578 0.596659,0.25556 0.144214,0.18523 0.305813,0.33045 0.541994,0.36758 -0.01519,-0.004 -0.05745,-0.001 -0.04557,-0.0116 0.02241,-0.0193 0.05828,-0.012 0.08575,-0.023 0.117262,-0.047 0.208662,-0.13477 0.294812,-0.22338 0.0899,-0.11942 0.16004,-0.25335 0.23159,-0.38456 0,0 0.13219,0.007 0.13219,0.007 v 0 c -0.0718,0.13232 -0.14299,0.26662 -0.23174,0.38812 -0.17304,0.18085 -0.335158,0.28358 -0.598235,0.26636 -0.235583,-0.0431 -0.398341,-0.19141 -0.542865,-0.37712 -0.06322,-0.0775 -0.126142,-0.15166 -0.21731,-0.19804 -0.0259,-0.0132 -0.06711,-0.006 -0.08144,-0.031 -0.0092,-0.0163 0.06896,-0.0115 0.05239,-0.0202 -0.02559,-0.0134 -0.0578,0.001 -0.0867,0.002 -0.215075,0.0506 -0.304192,0.21794 -0.380839,0.41209 -0.06702,0.21309 -0.144621,0.42155 -0.16796,0.64576 -0.04463,0.0249 -0.08668,0.0552 -0.133898,0.0747 -0.02619,0.0109 -0.0046,-0.0566 -0.0064,-0.0849 -0.0096,-0.14465 -0.01881,-0.28947 -0.03944,-0.43309 -0.06071,-0.38321 -0.155329,-0.76012 -0.308107,-1.11797 0,0 0.132133,-0.005 0.132133,-0.005 z"
       inkscape:connector-curvature="0" />
    <path
       style="opacity:1;fill:#e915bd;fill-opacity:1;fill-rule:nonzero;stroke:#e915bd;stroke-width:1;stroke-linecap:round;stroke-linejoin:round;stroke-miterlimit:4;stroke-dasharray:none;stroke-dashoffset:0;stroke-opacity:1;paint-order:stroke fill markers"
       id="path4559"
       d="m 80.938734,162.92407 c -0.283654,-0.0957 -0.757748,-0.26972 -1.049446,-0.15527 -0.40019,0.0406 -0.730504,0.24207 -1.061397,0.45147 -0.261496,0.16373 -0.42867,0.3996 -0.565163,0.66944 -0.130821,0.27018 -0.107707,0.55899 -0.05446,0.84563 0.07577,0.3165 0.241472,0.5774 0.43701,0.83057 -0.06375,0.0288 0.582683,0.43029 0.522234,0.26013 0.257048,-0.0542 0.466445,-0.22108 0.653153,-0.39778 0.1836,-0.20936 0.326676,-0.45 0.435729,-0.70538 0.126069,-0.2537 0.191664,-0.52952 0.272153,-0.79951 0.01561,-0.13176 0.167511,-0.64105 0.347067,-0.23212 0.08776,0.2375 0.148604,0.48355 0.230617,0.7235 0.103981,0.30556 0.216548,0.60817 0.326569,0.9117 0.109728,0.27944 0.244716,0.54735 0.371536,0.81909 0.06999,0.17766 0.03859,0.0882 0.09446,0.26818 0,0 -0.131977,0.004 -0.131977,0.004 v 0 c -0.05578,-0.17869 -0.02445,-0.0899 -0.0943,-0.2664 -0.127166,-0.27196 -0.261919,-0.5404 -0.371522,-0.82027 -0.110059,-0.30358 -0.222309,-0.60638 -0.326525,-0.91193 -0.08205,-0.23957 -0.142582,-0.48547 -0.231484,-0.72219 -0.03525,-0.0748 -0.06747,-0.0846 0.05368,-0.11084 0.01606,-0.003 -0.02759,0.0191 -0.03706,0.0325 -0.06343,0.09 -0.06328,0.20828 -0.09908,0.30863 -0.08056,0.27044 -0.146106,0.54681 -0.272217,0.801 -0.109032,0.25714 -0.252783,0.49898 -0.435948,0.71075 -0.186661,0.17844 -0.396751,0.34785 -0.653958,0.40565 -0.350454,0.0285 -0.546989,0.0106 -0.784802,-0.27003 -0.19636,-0.25479 -0.3611,-0.51886 -0.437131,-0.83681 -0.05334,-0.28941 -0.0769,-0.58115 0.05437,-0.85422 0.136535,-0.27195 0.303622,-0.5107 0.566163,-0.67649 0.331608,-0.20965 0.661093,-0.4153 1.062268,-0.45704 0.448495,-0.038 0.891709,-0.0301 1.310812,0.15867 0,0 -0.131345,0.0154 -0.131345,0.0154 z"
       inkscape:connector-curvature="0" />
    <path
       style="opacity:1;fill:#e915bd;fill-opacity:1;fill-rule:nonzero;stroke:#e915bd;stroke-width:1;stroke-linecap:round;stroke-linejoin:round;stroke-miterlimit:4;stroke-dasharray:none;stroke-dashoffset:0;stroke-opacity:1;paint-order:stroke fill markers"
       id="path4563"
       d="m 84.940224,165.21344 c 0.05438,0.38418 0.08392,0.77093 0.102145,1.15829 0.0059,0.31491 -0.06748,0.6132 -0.153631,0.91231 -0.07496,0.19283 -0.173984,0.37393 -0.338103,0.50315 -0.250219,0.14443 -0.547994,0.10237 -0.803984,-0.005 -0.261572,-0.1292 -0.437502,-0.34436 -0.491704,-0.63062 -0.02162,-0.21307 0.05406,-0.31511 0.258384,-0.33809 0.289216,0.006 0.570669,0.0807 0.847503,0.15908 0.270369,0.0577 0.533289,0.14312 0.804341,0.198 0.226301,0.023 0.446939,0.0745 0.669602,0.119 0,0 -0.130834,0.0181 -0.130834,0.0181 v 0 c -0.22257,-0.0449 -0.443611,-0.0943 -0.669602,-0.11906 -0.270838,-0.056 -0.534249,-0.14034 -0.804471,-0.19896 -0.03948,-0.0111 -0.219649,-0.0626 -0.260762,-0.072 -0.108501,-0.0248 -0.254112,-0.0251 -0.355788,-0.0712 -0.01032,-0.005 0.02082,-0.009 0.03123,-0.0135 -0.200234,0.0174 -0.279415,0.10252 -0.257296,0.31615 0.05414,0.28277 0.231447,0.4925 0.490529,0.61757 0.207444,0.084 0.330174,0.1291 0.540867,0.009 0.165179,-0.12471 0.262212,-0.3048 0.337942,-0.49478 0.08586,-0.29776 0.16049,-0.59428 0.154389,-0.90797 -0.0181,-0.38697 -0.04725,-0.77344 -0.103084,-1.15703 0,0 0.132329,-0.002 0.132329,-0.002 z"
       inkscape:connector-curvature="0" />
    <path
       style="opacity:1;fill:#e915bd;fill-opacity:1;fill-rule:nonzero;stroke:#e915bd;stroke-width:1;stroke-linecap:round;stroke-linejoin:round;stroke-miterlimit:4;stroke-dasharray:none;stroke-dashoffset:0;stroke-opacity:1;paint-order:stroke fill markers"
       id="path4571"
       d="m 69.557534,155.76979 c 0.02498,-0.29812 0.100809,-0.59311 0.321093,-0.80418 0.222205,-0.13085 0.50242,-0.0819 0.72712,0.0209 0.189791,0.12265 0.223128,0.28815 0.157017,0.49025 -0.108858,0.208 -0.321712,0.30308 -0.525108,0.39666 -0.264504,0.0717 -0.567404,0.0819 -0.784781,-0.10189 -0.166647,-0.2125 -0.06622,-0.45803 0.04847,-0.66847 0.169584,-0.25567 0.407471,-0.41057 0.694528,-0.50245 0.330092,-0.0793 0.611733,-0.0501 0.823201,0.22755 0.150027,0.2547 0.0268,0.51194 -0.109675,0.74284 -0.112607,0.20535 -0.288769,0.36435 -0.491903,0.47717 -0.253547,0.10685 -0.529894,0.11874 -0.798925,0.0724 -0.229828,-0.0712 -0.278066,-0.28272 -0.311036,-0.49516 -0.0066,-0.24098 0.126206,-0.41694 0.283683,-0.58156 0.170551,-0.16552 0.395666,-0.20344 0.622393,-0.22843 0.31246,-0.0526 0.556427,0.0436 0.822568,0.18252 0.240851,0.13813 0.380299,0.34228 0.463138,0.60116 0.04974,0.25402 -0.118632,0.34666 -0.336138,0.39796 -0.308062,0.0208 -0.59323,-0.0488 -0.792363,-0.29322 -0.116105,-0.18653 -0.103854,-0.45856 0.106026,-0.56835 0.06685,0.002 0.135194,-0.009 0.200544,0.006 0.12619,0.0274 0.07129,0.32468 0.04049,0.39659 -0.220535,0.20922 -0.364513,-0.048 -0.237656,-0.26484 0.127973,-0.12925 0.440205,-0.23544 0.548171,-0.0337 0.0063,0.18813 -0.139057,0.26758 -0.295809,0.32284 -0.262374,0.0619 -0.54655,0.0876 -0.801275,-0.014 -0.198969,-0.12824 -0.140126,-0.30704 -0.02249,-0.47277 0.174455,-0.21999 0.421534,-0.31274 0.687239,-0.36832 0.300492,-0.0242 0.59523,0.0241 0.705477,0.32923 0.01315,0.27451 -0.194434,0.44978 -0.395772,0.59837 -0.273462,0.18741 -0.577688,0.22993 -0.900602,0.22856 -0.252187,-0.008 -0.355063,-0.1626 -0.413453,-0.38687 -0.01865,-0.23184 0.07436,-0.4394 0.205126,-0.62446 0.165359,-0.19368 0.360209,-0.30634 0.610965,-0.33505 0.252754,-0.007 0.461902,0.0609 0.61995,0.26033 0.117293,0.19759 0.120883,0.40693 0.05504,0.62071 -0.113657,0.26706 -0.325405,0.45745 -0.570566,0.60208 -0.302164,0.1434 -0.598537,0.12823 -0.812435,-0.13803 -0.152389,-0.25449 -0.04,-0.5035 0.146564,-0.7006 0.120766,-0.11944 0.05806,-0.0636 0.187743,-0.16784 0,0 0.131696,0.0119 0.131696,0.0119 v 0 c -0.129794,0.10246 -0.06708,0.0473 -0.187714,0.16607 -0.185071,0.19014 -0.298466,0.43315 -0.146301,0.68144 0.175868,0.21165 0.302802,0.25305 0.549164,0.13335 0.244313,-0.14095 0.455284,-0.32846 0.56955,-0.59232 0.06567,-0.20944 0.06241,-0.41493 -0.05499,-0.60774 -0.08019,-0.0976 -0.176663,-0.17244 -0.297913,-0.21519 -0.03051,-0.0108 -0.0666,-0.006 -0.09444,-0.0224 -0.01082,-0.006 0.02376,-0.008 0.03564,-0.0124 -0.250279,0.0248 -0.443473,0.13179 -0.60997,0.3239 -0.129823,0.18112 -0.222798,0.38472 -0.204782,0.61289 0.05899,0.22192 0.163856,0.36499 0.4118,0.3698 0.180258,-0.0266 0.453864,-0.0871 0.638485,-0.22045 0.196974,-0.14393 0.40655,-0.31241 0.394721,-0.58135 -0.07755,-0.20729 -0.136599,-0.18325 -0.305099,-0.29086 -0.0073,-0.005 0.0047,-0.0241 -0.0038,-0.0257 -0.0437,-0.008 -0.08884,5.3e-4 -0.133266,5.3e-4 -0.264056,0.0529 -0.511214,0.1413 -0.686006,0.35856 -0.115969,0.15849 -0.175522,0.32923 0.02191,0.44862 0.195445,0.0729 0.314166,0.0713 0.538313,0.0135 0.14937,-0.0495 0.297931,-0.11875 0.294444,-0.29957 -0.0092,-0.0152 -0.01463,-0.0333 -0.02749,-0.0455 -0.01352,-0.0128 -0.04969,-0.008 -0.04893,-0.0268 7.94e-4,-0.0176 0.0682,-0.0153 0.05064,-0.0147 -0.101174,0.004 -0.185372,0.0536 -0.257148,0.1211 -0.103564,0.16624 -0.01574,0.18178 -0.03889,0.24405 -0.01177,0.0317 -0.06013,0.0364 -0.07732,0.0655 -0.01797,0.0304 0.156805,-0.0627 0.08895,-0.0574 0.04169,-0.0927 0.05636,-0.1623 0.03058,-0.26379 -0.0061,-0.0239 -0.01302,-0.0484 -0.0264,-0.069 -0.01061,-0.0164 -0.05072,-0.0208 -0.0436,-0.039 0.0078,-0.0197 0.04187,-0.007 0.0628,-0.01 -0.212762,0.0919 -0.219014,0.36847 -0.105947,0.54432 0.139388,0.16617 0.354735,0.25851 0.529212,0.28457 0.211177,-0.0462 0.384545,-0.126 0.335195,-0.37607 -0.08292,-0.25591 -0.22302,-0.45618 -0.462365,-0.5909 -0.191854,-0.0999 -0.382145,-0.20433 -0.560424,-0.17761 -0.22484,0.0233 -0.450109,0.0572 -0.621176,0.21925 -0.155072,0.16175 -0.289856,0.33118 -0.283437,0.5694 0.03294,0.20912 0.08112,0.41423 0.309848,0.47867 0.03569,0.006 0.07245,0.007 0.107077,0.0173 0.0071,0.002 -0.02797,0.009 -0.02053,0.009 0.153268,-0.005 0.307533,-0.0375 0.449636,-0.0941 0.203126,-0.10899 0.379338,-0.26697 0.491696,-0.4701 0.135224,-0.22529 0.259096,-0.4781 0.109585,-0.72706 -0.123388,-0.15739 -0.137205,-0.12576 -0.288787,-0.22269 -0.0073,-0.005 0.0045,-0.0242 -0.004,-0.0257 -0.09279,-0.0165 -0.17835,0.0103 -0.267419,0.0288 -0.286261,0.0884 -0.523391,0.23927 -0.693741,0.49239 -0.11245,0.20404 -0.215341,0.44496 -0.04827,0.6502 0.179295,0.14409 0.312042,0.15656 0.521515,0.0985 0.201078,-0.0911 0.412692,-0.18331 0.523812,-0.38583 0.06549,-0.19678 0.03206,-0.35475 -0.155914,-0.47083 -0.19149,-0.0837 -0.255701,-0.13526 -0.463862,-0.0253 -0.221782,0.20541 -0.296196,0.49859 -0.320527,0.79341 0,0 -0.132355,0 -0.132355,0 z"
       inkscape:connector-curvature="0" />
  </g>
</svg>
