<?xml version="1.0" encoding="UTF-8" standalone="no"?>
<!-- Created with Inkscape (http://www.inkscape.org/) -->

<svg
   xmlns:dc="http://purl.org/dc/elements/1.1/"
   xmlns:cc="http://creativecommons.org/ns#"
   xmlns:rdf="http://www.w3.org/1999/02/22-rdf-syntax-ns#"
   xmlns:svg="http://www.w3.org/2000/svg"
   xmlns="http://www.w3.org/2000/svg"
   xmlns:sodipodi="http://sodipodi.sourceforge.net/DTD/sodipodi-0.dtd"
   xmlns:inkscape="http://www.inkscape.org/namespaces/inkscape"
   width="210mm"
   height="297mm"
   viewBox="0 0 210 297"
   version="1.1"
   id="svg8"
   inkscape:version="0.92.1 r15371"
   sodipodi:docname="project-line-when-no-intersect.svg">
  <defs
     id="defs2" />
  <sodipodi:namedview
     id="base"
     pagecolor="#ffffff"
     bordercolor="#666666"
     borderopacity="1.0"
     inkscape:pageopacity="0.0"
     inkscape:pageshadow="2"
     inkscape:zoom="1.979899"
     inkscape:cx="318.78832"
     inkscape:cy="553.51258"
     inkscape:document-units="mm"
     inkscape:current-layer="layer1"
     showgrid="false"
     inkscape:window-width="1920"
     inkscape:window-height="1046"
     inkscape:window-x="-11"
     inkscape:window-y="-11"
     inkscape:window-maximized="1" />
  <metadata
     id="metadata5">
    <rdf:RDF>
      <cc:Work
         rdf:about="">
        <dc:format>image/svg+xml</dc:format>
        <dc:type
           rdf:resource="http://purl.org/dc/dcmitype/StillImage" />
        <dc:title></dc:title>
      </cc:Work>
    </rdf:RDF>
  </metadata>
  <g
     inkscape:label="Layer 1"
     inkscape:groupmode="layer"
     id="layer1">
    <path
       style="opacity:1;fill:#3015e9;fill-opacity:1;fill-rule:nonzero;stroke:#3015e9;stroke-width:1;stroke-linecap:round;stroke-linejoin:round;stroke-miterlimit:4;stroke-dasharray:none;stroke-dashoffset:0;stroke-opacity:1;paint-order:stroke fill markers"
       id="path4485"
       d="m 46.637543,148.11259 c -0.219427,0.36417 -0.430287,0.73393 -0.628208,1.11028 -0.141262,0.29913 -0.267259,0.60511 -0.410377,0.90333 -0.138933,0.33604 -0.281181,0.6708 -0.415145,1.00887 -0.168457,0.42479 -0.314245,0.85895 -0.440108,1.29826 -0.148672,0.4744 -0.269777,0.95511 -0.382725,1.43889 -0.119589,0.51955 -0.223829,1.04203 -0.323556,1.56573 -0.102695,0.54722 -0.125153,1.10399 -0.140099,1.65912 -0.0032,0.55658 -0.02564,1.11421 0.008,1.67008 0.03046,0.51674 0.148178,1.02268 0.27798,1.52209 0.133024,0.48682 0.309933,0.95603 0.528407,1.41031 0.235233,0.43908 0.488762,0.86802 0.757005,1.28766 0.257127,0.4474 0.618402,0.81566 0.959932,1.19701 0.361495,0.39134 0.748927,0.75635 1.135361,1.12272 0.413166,0.37218 0.84763,0.71884 1.275236,1.07392 0.444971,0.33669 0.89077,0.67399 1.349846,0.9915 0.48019,0.31092 0.978104,0.59423 1.475685,0.87631 0.48841,0.29463 1.009171,0.5206 1.53348,0.74126 0.50723,0.22269 1.010787,0.45197 1.51934,0.67185 0.511699,0.20173 1.035087,0.36996 1.552488,0.55571 0.526433,0.18226 1.064826,0.3241 1.601049,0.47349 0.54755,0.15425 1.104601,0.26375 1.663899,0.36523 0.576934,0.0965 1.154726,0.18617 1.732714,0.27644 0.576894,0.0996 1.158488,0.16314 1.738042,0.2436 0.613246,0.0843 1.231067,0.11933 1.846326,0.18499 0.626735,0.0672 1.256808,0.0875 1.886575,0.0995 0.635431,-0.0125 1.267565,0.0257 1.900861,0.0704 0.600287,0.0276 1.199137,0.0829 1.794259,0.1661 0.580932,0.0694 1.148458,0.21451 1.723451,0.31784 0.536408,0.0937 1.062273,0.22877 1.581028,0.39323 0.504219,0.17574 1.009105,0.34921 1.51529,0.51929 0.530627,0.19275 1.057918,0.39563 1.593554,0.57429 0.533379,0.1941 1.073607,0.36517 1.619789,0.51915 0.590487,0.15398 1.186453,0.28402 1.781895,0.41691 0.675188,0.13762 1.357254,0.23847 2.043155,0.30355 0.809672,0.064 1.6183,0.13136 2.429938,0.16618 0.901121,0.0322 1.802959,0.0335 2.704537,0.0356 -0.05219,-0.005 -0.208693,-0.009 -0.156583,-0.0145 0.327229,-0.0357 0.657643,-0.0301 0.986512,-0.0441 0.516641,-0.022 1.031682,-0.0526 1.547667,-0.0869 1.058937,-0.056 2.117648,-0.11211 3.176349,-0.17314 1.024041,-0.0497 2.046637,-0.12594 3.06818,-0.21228 0.948743,-0.0676 1.894438,-0.17176 2.836833,-0.29951 0.854716,-0.11023 1.706425,-0.23921 2.547875,-0.42616 0.75462,-0.1526 1.49537,-0.359 2.2247,-0.60412 0.66974,-0.20501 1.29862,-0.5022 1.91387,-0.83224 0.54732,-0.30102 1.08303,-0.62655 1.59737,-0.98122 0.4637,-0.3291 0.87667,-0.72123 1.28512,-1.11487 0.41992,-0.41413 0.80323,-0.85941 1.16403,-1.32537 0.42413,-0.51646 0.78211,-1.08041 1.15051,-1.63639 0.38554,-0.6101 0.74114,-1.23813 1.06947,-1.88064 0.35884,-0.66776 0.67842,-1.35521 0.97936,-2.05066 0.29415,-0.71496 0.5652,-1.43927 0.82771,-2.16637 0.28629,-0.71632 0.49054,-1.46013 0.71969,-2.19562 0.21484,-0.73904 0.38249,-1.49097 0.50579,-2.25045 0.14331,-0.74871 0.20515,-1.50798 0.24158,-2.26825 0.0416,-0.71374 -0.0331,-1.42638 -0.14702,-2.13004 -0.0878,-0.6885 -0.27906,-1.35489 -0.50154,-2.01018 -0.22189,-0.68647 -0.53279,-1.33786 -0.86583,-1.97612 -0.36172,-0.66796 -0.78436,-1.293 -1.26217,-1.88242 -0.4909,-0.59454 -1.00623,-1.16422 -1.57207,-1.68811 -0.58687,-0.54155 -1.21357,-1.03609 -1.85843,-1.50609 -0.66744,-0.47821 -1.37569,-0.89576 -2.09999,-1.28111 -0.77401,-0.41327 -1.58823,-0.74204 -2.41357,-1.03637 -0.8717,-0.30512 -1.75777,-0.56593 -2.64325,-0.82738 -0.93209,-0.2539 -1.880735,-0.4336 -2.826372,-0.62721 -0.990092,-0.18293 -1.983422,-0.34826 -2.984048,-0.46114 -1.030104,-0.11149 -2.058529,-0.23702 -3.087565,-0.35775 -1.030357,-0.14228 -2.067134,-0.2285 -3.099755,-0.35184 -1.010957,-0.12133 -2.022396,-0.23692 -3.035356,-0.34059 -1.006083,-0.10882 -2.008777,-0.24474 -3.012683,-0.37124 -1.014344,-0.13485 -2.028545,-0.27119 -3.043748,-0.39948 -1.01341,-0.14688 -2.033728,-0.23658 -3.050175,-0.35901 -0.963536,-0.10009 -1.925955,-0.20799 -2.887663,-0.32442 -0.920713,-0.1027 -1.842188,-0.19719 -2.763811,-0.29159 -0.886571,-0.0989 -1.779346,-0.0969 -2.668764,-0.14789 -0.81642,-0.0604 -1.634263,-0.0924 -2.45259,-0.11002 0.07874,0.003 0.313976,-0.003 0.236233,0.01 -0.131879,0.022 -0.26715,0.0113 -0.400698,0.0175 -0.513805,0.0241 -1.027914,0.045 -1.540928,0.0821 -0.681413,0.0404 -1.356746,0.12863 -2.028997,0.244 -0.587616,0.095 -1.156168,0.25617 -1.721448,0.43838 -0.534577,0.17007 -1.045803,0.4018 -1.552652,0.63997 -0.480115,0.23948 -0.94783,0.50257 -1.404366,0.78418 -0.417853,0.28048 -0.808505,0.60034 -1.17535,0.94433 -0.36639,0.3223 -0.716471,0.66214 -1.07365,0.99458 -0.325647,0.32426 -0.661707,0.63956 -0.977953,0.97324 -0.301488,0.33613 -0.628126,0.65073 -0.969711,0.94589 -0.331267,0.30891 -0.655127,0.62569 -0.980382,0.9409 -0.316016,0.33476 -0.664501,0.63503 -0.985054,0.96513 -0.338143,0.34511 -0.690317,0.6759 -1.03191,1.01742 -0.356743,0.32814 -0.695658,0.67417 -1.044146,1.01083 -0.312579,0.31817 -0.659768,0.59799 -0.997649,0.8881 -0.273462,0.25779 -0.571566,0.48621 -0.860472,0.72586 -0.179509,0.13553 -0.360133,0.26921 -0.536131,0.4093 0,0 -0.655756,-0.0588 -0.655756,-0.0588 v 0 c 0.174778,-0.14136 0.353557,-0.27719 0.536366,-0.40806 0.288049,-0.24112 0.589706,-0.46553 0.862351,-0.72469 0.337259,-0.29003 0.68617,-0.56702 0.998971,-0.88425 0.349179,-0.33556 0.685562,-0.68354 1.044189,-1.00935 0.338606,-0.34385 0.694724,-0.67043 1.031118,-1.01665 0.31981,-0.33184 0.668589,-0.63198 0.985311,-0.96697 0.323387,-0.31832 0.653047,-0.63056 0.980125,-0.94523 0.342871,-0.29088 0.668946,-0.60451 0.969685,-0.93874 0.313896,-0.33751 0.654735,-0.65006 0.978593,-0.97766 0.357772,-0.33194 0.706835,-0.67276 1.074148,-0.99409 0.367599,-0.34809 0.759528,-0.67042 1.177025,-0.95738 0.457174,-0.28441 0.926671,-0.54821 1.407152,-0.79135 0.507241,-0.24017 1.018291,-0.47557 1.553255,-0.6484 0.567029,-0.18207 1.134459,-0.3526 1.724152,-0.4473 0.674034,-0.11591 1.35032,-0.2107 2.033916,-0.24952 0.991457,-0.0771 1.988068,-0.10663 2.982118,-0.11261 0.817984,0.0188 1.63535,0.0531 2.451502,0.11235 0.889157,0.0474 1.78121,0.0515 2.66717,0.15119 0.921644,0.0951 1.843354,0.18844 2.763993,0.29276 0.960755,0.1171 1.922664,0.22194 2.885028,0.32468 1.016687,0.12066 2.036714,0.21345 3.050275,0.35947 1.015243,0.12965 2.029804,0.26471 3.044391,0.39936 1.003379,0.12762 2.005944,0.26165 3.011699,0.36987 1.012912,0.10466 2.024428,0.22013 3.035435,0.34158 1.032788,0.12153 2.069214,0.21072 3.099681,0.35181 1.028962,0.12173 2.057657,0.2452 3.087706,0.35751 1.001085,0.11608 1.995392,0.28123 2.985918,0.46653 0.946717,0.19303 1.896037,0.37505 2.828157,0.63251 0.8863,0.26188 1.77308,0.52362 2.64503,0.83084 0.82663,0.29757 1.6415,0.63023 2.41702,1.04549 0.72409,0.38943 1.43374,0.80811 2.10075,1.29007 0.64595,0.47206 1.2724,0.97037 1.8605,1.51358 0.56547,0.52758 1.08072,1.10104 1.57307,1.69728 0.47779,0.59407 0.90067,1.2239 1.2637,1.89521 0.33404,0.64138 0.64376,1.2968 0.8672,1.98606 0.22224,0.65913 0.41408,1.32889 0.50211,2.02098 0.11297,0.70836 0.18765,1.42525 0.14544,2.14349 -0.0368,0.76261 -0.0991,1.52438 -0.24186,2.27555 -0.12369,0.7624 -0.29238,1.51723 -0.50626,2.25957 -0.22964,0.73636 -0.4334,1.48141 -0.7206,2.19841 -0.26194,0.72854 -0.53381,1.4537 -0.8267,2.17042 -0.30051,0.69692 -0.62113,1.38524 -0.97894,2.05484 -0.32892,0.6445 -0.68388,1.27504 -1.06865,1.88806 -0.3695,0.55627 -0.72449,1.12346 -1.14862,1.64112 -0.36027,0.46946 -0.74344,0.91766 -1.16364,1.3349 -0.40909,0.39677 -0.82313,0.79173 -1.28675,1.12529 -0.51347,0.35926 -1.05268,0.68351 -1.59984,0.9884 -0.61682,0.33243 -1.2447,0.63751 -1.9174,0.84275 -0.7301,0.24823 -1.47168,0.45892 -2.22839,0.61049 -0.84206,0.19083 -1.69477,0.32178 -2.551043,0.43122 -0.943126,0.1303 -1.890027,0.23477 -2.839815,0.30242 -1.021929,0.0864 -2.04478,0.16477 -3.069251,0.21387 -1.058794,0.0601 -2.117374,0.11893 -3.176487,0.17251 -1.212395,0.0812 -2.426621,0.14614 -3.642085,0.15003 -0.902475,-0.002 -1.805234,-0.004 -2.707196,-0.0379 -0.813075,-0.0365 -1.623332,-0.10438 -2.434521,-0.16896 -0.686837,-0.0685 -1.370377,-0.17013 -2.04624,-0.31106 -0.596632,-0.13183 -1.193088,-0.26424 -1.783977,-0.42036 -0.546682,-0.15461 -1.086106,-0.33054 -1.620911,-0.5223 -0.534511,-0.18236 -1.062588,-0.38295 -1.593935,-0.57413 -0.506478,-0.16951 -1.010608,-0.34558 -1.516142,-0.51788 -0.51843,-0.16056 -1.043445,-0.293 -1.578612,-0.38546 -0.573683,-0.10673 -1.141632,-0.24694 -1.722081,-0.31501 -0.595095,-0.0785 -1.192815,-0.13442 -1.792504,-0.16211 -0.632971,-0.0446 -1.26514,-0.0757 -1.900063,-0.0672 -0.63043,-0.0131 -1.261028,-0.036 -1.888268,-0.10486 -0.615616,-0.0651 -1.234053,-0.0993 -1.847254,-0.18678 -0.580213,-0.077 -1.160751,-0.14791 -1.738178,-0.24492 -0.578051,-0.091 -1.156369,-0.17905 -1.733113,-0.27808 -0.559851,-0.10361 -1.117637,-0.2146 -1.66565,-0.37086 -0.537139,-0.14822 -1.074994,-0.29441 -1.601441,-0.47819 -0.518866,-0.184 -1.042538,-0.3544 -1.553647,-0.55984 -0.508344,-0.2193 -1.01007,-0.4521 -1.518348,-0.67138 -0.525505,-0.22161 -1.044662,-0.45474 -1.534745,-0.74886 -0.497935,-0.28356 -0.996958,-0.56722 -1.475801,-0.88222 -0.458811,-0.32013 -0.907764,-0.65547 -1.350668,-0.99703 -0.428718,-0.35559 -0.864148,-0.70316 -1.276403,-1.07817 -0.387117,-0.36767 -0.774957,-0.73438 -1.136275,-1.12788 -0.344831,-0.38269 -0.701812,-0.7585 -0.961286,-1.20774 -0.267632,-0.42267 -0.523997,-0.85275 -0.75719,-1.2955 -0.218837,-0.45844 -0.394774,-0.93239 -0.528585,-1.42293 -0.130365,-0.50361 -0.247012,-1.0138 -0.277228,-1.53476 -0.03312,-0.55781 -0.0108,-1.11726 -0.007,-1.67574 0.01497,-0.5586 0.03564,-1.11894 0.139113,-1.66963 0.09955,-0.52458 0.203856,-1.04789 0.322725,-1.56844 0.112789,-0.48485 0.232529,-0.96682 0.382138,-1.44204 0.124568,-0.44167 0.270938,-0.87752 0.438084,-1.30482 0.133487,-0.33959 0.275711,-0.67566 0.412403,-1.01393 0.145693,-0.29812 0.271412,-0.60545 0.413411,-0.90537 0.198581,-0.37752 0.414103,-0.74581 0.623488,-1.11739 0,0 0.66044,0.0389 0.66044,0.0389 z"
       inkscape:connector-curvature="0" />
    <path
       style="opacity:1;fill:#3015e9;fill-opacity:1;fill-rule:nonzero;stroke:#3015e9;stroke-width:1;stroke-linecap:round;stroke-linejoin:round;stroke-miterlimit:4;stroke-dasharray:none;stroke-dashoffset:0;stroke-opacity:1;paint-order:stroke fill markers"
       id="path4547"
       d="m 99.891346,178.97876 c 0.0057,0.40713 0.004,0.81174 -0.03862,1.21678 -0.0667,0.39584 -0.210175,0.77285 -0.407736,1.12091 -0.203351,0.31718 -0.453113,0.60372 -0.730533,0.85788 -0.272646,0.2172 -0.581634,0.38289 -0.91253,0.4906 -0.306879,0.088 -0.637265,0.0811 -0.942758,-0.008 -0.212106,-0.0621 -0.385289,-0.17563 -0.488315,-0.3722 -0.08441,-0.22096 -0.09236,-0.45233 -0.05132,-0.68237 0.06665,-0.19771 0.222128,-0.32511 0.409638,-0.40163 0.28211,-0.0934 0.575834,-0.0583 0.863122,-0.0136 0.303707,0.048 0.601374,0.12994 0.899353,0.20532 0.345543,0.10116 0.680333,0.23334 1.017542,0.35864 0.295257,0.12948 0.592361,0.25339 0.889181,0.37895 0.2137,0.0968 0.44133,0.14433 0.67231,0.17529 0,0 -0.13073,0.0189 -0.13073,0.0189 v 0 c -0.2312,-0.0322 -0.45875,-0.0815 -0.6726,-0.17875 -0.296971,-0.12475 -0.593011,-0.25065 -0.888775,-0.37843 -0.336873,-0.12557 -0.671788,-0.2571 -1.017408,-0.35723 -0.297899,-0.0757 -0.595831,-0.15654 -0.89966,-0.20402 -0.216278,-0.0333 -0.382508,-0.067 -0.600826,0.0108 -0.185732,0.0719 -0.340868,0.1945 -0.4088,0.38822 -0.04095,0.22714 -0.03357,0.4557 0.05129,0.67355 0.103828,0.19266 0.278178,0.30143 0.487114,0.36159 0.231865,0.0637 0.449069,0.0846 0.680813,0.008 0.330803,-0.10523 0.639169,-0.26977 0.912214,-0.48497 0.27776,-0.2522 0.526479,-0.53836 0.730433,-0.85375 0.197654,-0.34612 0.340704,-0.72141 0.407765,-1.11548 0.04258,-0.40458 0.04489,-0.80873 0.03748,-1.21541 0,0 0.132355,0 0.132355,0 z"
       inkscape:connector-curvature="0" />
    <path
       style="opacity:1;fill:#3015e9;fill-opacity:1;fill-rule:nonzero;stroke:#3015e9;stroke-width:1;stroke-linecap:round;stroke-linejoin:round;stroke-miterlimit:4;stroke-dasharray:none;stroke-dashoffset:0;stroke-opacity:1;paint-order:stroke fill markers"
       id="path4575"
       d="m 55.235017,122.49644 c 0.363008,0.14041 0.736144,0.24647 1.119182,0.31402 0.290975,0.0765 0.584562,0.13529 0.883864,0.16553 0.22683,0.0247 0.443079,0.0688 0.671417,0.0594 0.266624,-0.0168 0.533496,-0.0275 0.800566,-0.0334 0.267219,-0.005 0.534493,-0.005 0.801746,-0.005 0.330898,-8e-5 0.661797,1.4e-4 0.992695,2.2e-4 0.291243,0.025 0.566939,-0.0217 0.853072,-0.0596 0.352986,-0.0488 0.709211,-0.0612 1.064991,-0.0694 0.373763,0.0128 0.74304,-0.0445 1.113348,-0.0852 0.341371,-0.0343 0.684392,-0.0453 1.027234,-0.0512 0.325723,-0.004 0.651484,-0.003 0.977223,-0.002 0.313571,2.7e-4 0.627142,5.3e-4 0.94071,5.3e-4 0.32821,8e-5 0.656421,8e-5 0.984631,8e-5 0.276259,0 0.552519,-10e-6 0.828778,-2e-5 0.331777,0.0106 0.655693,0.0829 0.986166,0.10996 0.333033,0.0222 0.666998,0.0228 1.000619,0.0243 0.3248,2.3e-4 0.649333,-0.0102 0.971434,0.0388 0.297053,0.0553 0.598612,0.0736 0.899943,0.0858 0.312584,0.0123 0.620937,0.0744 0.932193,0.10682 0.28956,0.0278 0.580554,0.0325 0.87121,0.0352 0.30457,-0.002 0.604448,0.0642 0.90642,0.0981 0.182353,0.0185 0.365535,0.0269 0.548709,0.0314 0.138924,0.003 0.123973,0.046 0.137665,-0.0114 0.265478,-0.0477 0.532167,-0.0829 0.801172,-0.1021 0.26689,-0.0156 0.534341,-0.0161 0.801594,-0.0169 0.310762,-2.7e-4 0.621523,2.5e-4 0.932284,5.2e-4 0.26984,-2.6e-4 0.534545,0.0655 0.801928,0.0979 0.302786,0.0286 0.607147,0.0328 0.911048,0.0358 0.138983,-0.0108 0.282064,0.0159 0.420745,0.001 0.0054,-5.3e-4 5.29e-4,-0.0139 0.0057,-0.0153 0.08804,-0.0233 0.17974,-0.0294 0.269547,-0.0445 0.264896,-0.0464 0.533464,-0.0613 0.80178,-0.0701 0.269801,-0.004 0.534001,-0.0687 0.801331,-0.10158 0.268602,-0.0241 0.535725,-0.0271 0.801743,-0.0735 0.264437,-0.0531 0.532974,-0.0756 0.801923,-0.0884 0.30367,-0.01 0.607552,-0.009 0.911344,-0.009 0.323405,-0.0212 0.638251,0.0598 0.957103,0.0984 0.176776,0.007 0.357177,0.0433 0.534623,0.032 0.04666,-0.003 0.09008,-0.0261 0.13631,-0.0331 0.264801,-0.0495 0.532792,-0.0734 0.801505,-0.0868 0.267137,-0.0105 0.534538,-0.0102 0.801833,-0.0104 0.310767,-3e-5 0.62153,5.3e-4 0.932297,7.9e-4 0.269904,-0.006 0.535527,-0.005 0.801957,0.0393 0.264557,0.0515 0.532919,0.0736 0.801706,0.0862 0.267134,0.01 0.534496,0.009 0.801762,0.009 0.223774,-2.6e-4 0.447553,-5.3e-4 0.671327,-7.9e-4 0.237228,7.9e-4 0.476086,-0.0495 0.704646,-0.11128 0.251114,-0.0771 0.510763,-0.11432 0.765358,-0.17738 0.268195,-0.0504 0.534321,-0.10624 0.801042,-0.16437 0.253955,-0.0515 0.511733,-0.0565 0.764138,-0.11513 0.233891,-0.061 0.474673,-0.0803 0.715158,-0.0923 0.248742,0.009 0.488622,-0.0191 0.731472,-0.0682 0.241692,-0.0491 0.48831,-0.0609 0.734108,-0.0689 0.313079,-0.0202 0.618783,0.0548 0.927378,0.0924 0.266472,0.0361 0.536707,0.017 0.802558,0.0533 0.264363,0.0598 0.536667,0.0691 0.801978,0.11988 0.263369,0.0646 0.531659,0.0985 0.801699,0.11727 0.26697,0.0147 0.53446,0.0145 0.80174,0.0148 0.22416,-0.003 0.44828,0.01 0.67122,-0.0161 0.29146,-0.0567 0.58643,-0.0853 0.88247,-0.10329 0.28413,-0.0146 0.5687,-0.0156 0.85313,-0.0163 0.27069,0.003 0.53626,-0.0626 0.80417,-0.0955 0.17852,-0.0169 0.0895,-0.005 0.26691,-0.0371 0,0 0.13082,0.0182 0.13082,0.0182 v 0 c -0.17743,0.0341 -0.0884,0.0215 -0.26702,0.038 -0.26819,0.0322 -0.53376,0.0979 -0.80443,0.097 -0.28445,5.3e-4 -0.56904,10e-4 -0.85321,0.0155 -0.2959,0.0174 -0.59101,0.0446 -0.88214,0.10254 -0.30866,0.039 -0.62205,0.006 -0.9324,0.0176 -0.26734,-5.3e-4 -0.53489,-2.6e-4 -0.80187,-0.0157 -0.27015,-0.0195 -0.538273,-0.0548 -0.801904,-0.11876 -0.265674,-0.0486 -0.537316,-0.0611 -0.801889,-0.11917 -0.266139,-0.0336 -0.536146,-0.0169 -0.802542,-0.0532 -0.226909,-0.0282 -0.452347,-0.0847 -0.666078,-0.0911 -0.245557,0.008 -0.492001,0.0185 -0.733602,0.0667 -0.243147,0.0491 -0.482574,0.081 -0.73192,0.0701 -0.240212,0.0114 -0.480943,0.0294 -0.714671,0.09 -0.252484,0.0598 -0.509767,0.066 -0.764418,0.11533 -0.266817,0.0576 -0.532411,0.11541 -0.800981,0.16398 -0.254522,0.0633 -0.51385,0.1008 -0.765149,0.17706 -0.228026,0.0641 -0.468307,0.11344 -0.705289,0.11477 -0.310764,2.2e-4 -0.621525,7.9e-4 -0.932289,7.9e-4 -0.267303,-1.4e-4 -0.534704,2.5e-4 -0.801856,-0.01 -0.268899,-0.0131 -0.537229,-0.0363 -0.80191,-0.0877 -0.266277,-0.0434 -0.532199,-0.0422 -0.801661,-0.0372 -0.223777,-1.6e-4 -0.447556,-2.6e-4 -0.671333,-7.9e-4 -0.267261,1.6e-4 -0.534619,-2e-4 -0.801737,0.01 -0.268616,0.0129 -0.536657,0.0357 -0.80132,0.0855 -0.309732,0.0484 -0.621726,0.036 -0.932397,0.002 -0.232635,-0.0288 -0.462788,-0.0747 -0.696063,-0.0969 -0.303713,2e-5 -0.607507,-5.3e-4 -0.911109,0.009 -0.268824,0.0122 -0.537377,0.0337 -0.801701,0.0868 -0.266086,0.0473 -0.532802,0.0522 -0.80183,0.0742 -0.267578,0.0322 -0.531767,0.0972 -0.801494,0.10275 -0.26819,0.008 -0.536702,0.0224 -0.80155,0.0683 -0.317251,0.0534 -0.635183,0.0756 -0.957152,0.0607 -0.304035,-0.003 -0.60856,-0.008 -0.911402,-0.0373 -0.267105,-0.033 -0.53181,-0.0985 -0.801698,-0.0963 -0.223771,-2.1e-4 -0.447545,-5.3e-4 -0.671317,-5.3e-4 -0.2672,7.9e-4 -0.53459,10e-4 -0.801462,0.016 -0.268999,0.0185 -0.535893,0.0525 -0.801106,0.10161 -0.316275,0.018 -0.632285,0.0155 -0.94765,-0.0201 -0.301728,-0.0345 -0.60157,-0.0998 -0.906118,-0.0968 -0.290722,-0.003 -0.581777,-0.008 -0.871342,-0.0364 -0.311089,-0.033 -0.619427,-0.095 -0.932106,-0.106 -0.301474,-0.0127 -0.60302,-0.032 -0.900226,-0.0872 -0.05623,-0.008 -0.109879,-0.032 -0.166526,-0.0368 -0.26619,-0.0224 -0.537369,0.0146 -0.80427,-2.1e-4 -0.333783,-0.002 -0.66793,-0.002 -1.001085,-0.0253 -0.23653,-0.02 -0.503616,-0.0353 -0.725451,-0.10887 -0.363074,-1e-5 -0.726152,0 -1.089226,0 -0.328194,-1e-5 -0.656386,0 -0.984581,-8e-5 -0.313626,-10e-5 -0.62725,-2.7e-4 -0.940877,-5.3e-4 -0.238871,-2.1e-4 -0.477755,-8e-4 -0.716616,0.002 -0.342881,0.006 -0.685945,0.0162 -1.0274,0.05 -0.37043,0.0404 -0.739691,0.0994 -1.11356,0.0863 -0.355621,0.008 -0.711729,0.0196 -1.064612,0.068 -0.370023,0.0488 -0.739865,0.0765 -1.11361,0.0613 -0.243996,-7e-5 -0.48799,-1.7e-4 -0.731986,-2e-4 -0.26724,1.7e-4 -0.534495,2.1e-4 -0.801703,0.005 -0.267055,0.006 -0.533935,0.0159 -0.800518,0.0331 -0.316794,0.0141 -0.620872,-0.0103 -0.932633,-0.0602 -0.299138,-0.0313 -0.59232,-0.0916 -0.88356,-0.16655 -0.383196,-0.0689 -0.755938,-0.17693 -1.120042,-0.31527 0,0 0.131199,-0.0171 0.131199,-0.0171 z"
       inkscape:connector-curvature="0" />
    <path
       style="opacity:1;fill:#e915bd;fill-opacity:1;fill-rule:nonzero;stroke:#e915bd;stroke-width:1;stroke-linecap:round;stroke-linejoin:round;stroke-miterlimit:4;stroke-dasharray:none;stroke-dashoffset:0;stroke-opacity:1;paint-order:stroke fill markers"
       id="path4577"
       d="m 57.239436,156.28915 c 0.371208,0.0525 0.744951,0.0825 1.11918,0.10209 0.249095,-0.0395 0.501552,-0.0704 0.753337,-0.0933 0.265113,-0.0613 0.536393,-0.0922 0.8019,-0.14993 0.281384,-0.0794 0.570679,-0.10987 0.861319,-0.12853 0.411194,-0.0328 0.82019,-0.002 1.228579,0.0455 0.374074,0.0636 0.748329,0.0167 1.123053,-0.011 0.392803,-0.0301 0.786686,-0.0404 1.180473,-0.0462 0.363744,-0.004 0.72752,-0.003 1.09128,-0.003 0.304114,2.4e-4 0.608232,5.3e-4 0.912346,5.3e-4 0.272013,7e-5 0.544023,7e-5 0.816036,7e-5 0.25581,2e-5 0.511622,2e-5 0.767435,1e-5 0.336044,2e-5 0.672089,3e-5 1.008134,2e-5 0.370194,0.019 0.735221,-0.0157 1.101963,-0.0597 0.353544,-0.0451 0.709681,-0.0601 1.065646,-0.0693 0.365726,-0.007 0.731549,-0.006 1.097323,-0.005 0.321468,2.7e-4 0.64294,5.3e-4 0.964408,8e-4 0.329825,1.1e-4 0.659649,1.3e-4 0.989476,1.3e-4 0.272021,-2e-5 0.544041,-1e-5 0.816065,-1e-5 0.296902,-1e-5 0.593804,-3e-5 0.890709,-1e-5 0.366453,0 0.732909,2e-5 1.099365,1e-5 0.351816,1e-5 0.703633,2e-5 1.055449,1e-5 0.320144,-3e-5 0.640289,-1e-5 0.960433,-1e-5 0.280336,-1e-5 0.560673,-1e-5 0.841007,1e-5 0.386604,-0.021 0.76812,0.0359 1.150487,0.0813 0.294823,0.0347 0.591561,0.0452 0.888117,0.0507 0.22507,0.003 0.450164,0.003 0.675248,0.002 0.266904,-2.6e-4 0.533808,-5.3e-4 0.800711,-5.3e-4 0.284202,-0.0201 0.557157,0.0594 0.835541,0.0977 0.259138,0.0304 0.520383,0.0331 0.780955,0.0357 0.257752,0.002 0.515511,0.001 0.773269,8e-4 0.273383,-0.0331 0.543761,-0.0832 0.818112,-0.10934 0.266523,-0.0218 0.534096,-0.0237 0.801339,-0.0254 0.310668,-8e-4 0.621337,-2.3e-4 0.932005,1.1e-4 0.267266,2.7e-4 0.534532,2.7e-4 0.801796,2.7e-4 0.271637,-0.0193 0.535268,0.0168 0.801965,0.0616 0.264914,0.0457 0.533472,0.0595 0.80169,0.0678 0.238633,5.3e-4 0.46948,0.0706 0.705157,0.1028 0.259104,0.0107 0.510117,0.0754 0.765189,0.11648 0.26508,0.0462 0.535611,0.0299 0.800981,0.0679 0.264945,0.0539 0.532709,0.0863 0.802267,0.10413 0.275248,0.0145 0.54371,0.0824 0.817787,0.11238 0.313219,0.0292 0.62797,0.0326 0.942287,0.0352 0.258641,0.0261 0.517184,0.0741 0.774369,0.094 0.26379,-0.0359 0.533485,-0.0407 0.794533,-0.0932 0.227391,-0.0724 0.465892,-0.0879 0.698193,-0.13471 0.257691,-0.0666 0.520947,-0.10012 0.785845,-0.1192 0.269581,-0.0445 0.537813,-0.0926 0.802264,-0.16132 0.270087,-0.0532 0.532485,-0.13658 0.802141,-0.19168 0.26451,-0.0487 0.53381,-0.0564 0.80197,-0.0617 0.31076,-0.003 0.62154,-0.002 0.93231,-0.001 0.14328,-0.0141 0.42836,0.13968 0.55553,0.0817 0.0163,-0.007 -0.0321,-0.0157 -0.0482,-0.0235 0,0 0.13157,0.0169 0.13157,0.0169 v 0 c -0.27875,0.0356 -0.49649,0.003 -0.76939,-0.0543 -0.22376,-5.3e-4 -0.44754,-0.002 -0.6713,0.001 -0.26799,0.005 -0.53712,0.012 -0.80166,0.0593 -0.269891,0.054 -0.531828,0.13846 -0.80206,0.19095 -0.264713,0.0691 -0.532866,0.11751 -0.802553,0.16374 -0.264737,0.0183 -0.528111,0.0504 -0.785516,0.11747 -0.231812,0.0489 -0.471086,0.0607 -0.698117,0.1347 -0.260659,0.0557 -0.531399,0.0566 -0.795104,0.0955 -0.349679,0.004 -0.688578,-0.05 -1.034968,-0.0939 -0.314458,-0.003 -0.629362,-0.006 -0.942652,-0.0365 -0.273879,-0.0309 -0.542481,-0.0985 -0.817891,-0.11178 -0.2696,-0.0185 -0.537194,-0.0522 -0.802391,-0.10505 -0.265705,-0.0353 -0.536038,-0.0216 -0.80104,-0.0682 -0.254939,-0.0417 -0.506312,-0.10441 -0.76532,-0.11615 -0.235262,-0.0331 -0.46614,-0.10225 -0.704776,-0.10144 -0.268346,-0.009 -0.536967,-0.0234 -0.801928,-0.0696 -0.26651,-0.0448 -0.530413,-0.0776 -0.801661,-0.0594 -0.267267,-4e-5 -0.534533,-1.1e-4 -0.801799,-5.3e-4 -0.223679,-2.5e-4 -0.447352,-7.9e-4 -0.671031,-1.8e-4 -0.267173,0.002 -0.534667,0.003 -0.801174,0.0242 -0.274593,0.0255 -0.545264,0.0741 -0.818393,0.11053 -0.34466,2.7e-4 -0.689327,10e-4 -1.033984,-7.9e-4 -0.260795,-0.003 -0.52229,-0.006 -0.781542,-0.0374 -0.209558,-0.0296 -0.400765,-0.0898 -0.574133,-0.0959 -0.266901,9e-5 -0.533805,2.6e-4 -0.800706,5.2e-4 -0.312068,2.7e-4 -0.624157,0.001 -0.936207,-0.003 -0.296529,-0.006 -0.593214,-0.0169 -0.887962,-0.052 -0.29863,-0.0357 -0.589249,-0.0977 -0.890141,-0.0797 -0.367069,2e-5 -0.734139,10e-6 -1.101209,10e-6 -0.320098,-10e-6 -0.640196,2e-5 -0.960294,-10e-6 -0.351846,-1e-5 -0.703692,0 -1.05554,10e-6 -0.279662,-10e-6 -0.559324,1e-5 -0.838986,1e-5 -0.296931,2e-5 -0.593859,-1e-5 -0.890788,-1e-5 -0.358786,0 -0.717571,3e-5 -1.076357,0 -0.329835,-10e-6 -0.65967,0 -0.989504,-1.3e-4 -0.321509,-1.2e-4 -0.64302,-5.3e-4 -0.964531,-7.9e-4 -0.278961,-0.001 -0.557967,5.3e-4 -0.836888,0.005 -0.355965,0.009 -0.712139,0.0233 -1.065715,0.0681 -0.366794,0.044 -0.731647,0.0812 -1.101992,0.0613 -0.335971,-1e-5 -0.671939,0 -1.007907,1e-5 -0.342738,0 -0.685474,1e-5 -1.02821,2e-5 -0.271978,0 -0.543957,-10e-6 -0.815935,-9e-5 -0.304062,-1.1e-4 -0.608121,-2.6e-4 -0.91218,-5.3e-4 -0.277056,-5.3e-4 -0.554123,2.7e-4 -0.831165,0.003 -0.39383,0.006 -0.787768,0.0155 -1.180627,0.0454 -0.460285,0.0341 -0.923123,0.0811 -1.382831,0.0105 -0.3239,-0.0375 -0.640932,-0.0817 -0.9682,-0.0447 -0.290375,0.018 -0.57975,0.0467 -0.860801,0.12654 -0.265211,0.0597 -0.537496,0.0869 -0.802148,0.15161 -0.338444,0.03 -0.673328,0.0961 -1.01409,0.0937 -0.374523,-0.02 -0.748514,-0.0507 -1.120042,-0.10315 0,0 0.130995,-0.0188 0.130995,-0.0188 z"
       inkscape:connector-curvature="0" />
    <path
       style="opacity:1;fill:#3015e9;fill-opacity:1;fill-rule:nonzero;stroke:#3015e9;stroke-width:1;stroke-linecap:round;stroke-linejoin:round;stroke-miterlimit:4;stroke-dasharray:none;stroke-dashoffset:0;stroke-opacity:1;paint-order:stroke fill markers"
       id="path4579"
       d="m 69.743388,122.82538 c -0.193604,0.15825 -0.542766,0.35044 -0.754597,0.11151 -0.132501,-0.24808 0.03262,-0.49288 0.187836,-0.68608 0.239688,-0.23909 0.543456,-0.32 0.866042,-0.1942 0.249954,0.0966 0.35515,0.29373 0.41416,0.54077 0.05926,0.25709 -0.03945,0.45795 -0.252563,0.60083 -0.284295,0.11755 -0.556488,0.079 -0.784604,-0.1193 -0.200255,-0.20733 -0.187177,-0.44875 -0.13185,-0.71108 0.0729,-0.25979 0.231659,-0.45681 0.443516,-0.61516 0.245915,-0.15701 0.554233,-0.14507 0.829244,-0.0779 0.216532,0.0787 0.339201,0.2053 0.411922,0.42067 0.03472,0.25581 -0.117279,0.46073 -0.283443,0.63713 -0.202705,0.1879 -0.441648,0.2993 -0.706789,0.36548 -0.287708,0.053 -0.606759,0.0628 -0.818925,-0.16003 -0.131686,-0.20081 -0.07664,-0.43191 0.02948,-0.63018 0.153752,-0.1976 0.375119,-0.28101 0.610982,-0.33468 0.353221,-0.0414 0.597646,0.0784 0.793459,0.35946 0.111259,0.24513 0.206549,0.50805 0.226864,0.77799 0.01206,0.26598 -0.08667,0.47617 -0.341712,0.56634 -0.316804,0.0725 -0.601882,-0.0347 -0.856695,-0.21374 -0.24254,-0.17118 -0.361624,-0.41455 -0.428042,-0.69525 -0.05327,-0.2446 -0.04393,-0.47449 0.08884,-0.6888 0.09867,-0.10294 0.04589,-0.0609 0.155297,-0.12992 0,0 0.1319,0.0135 0.1319,0.0135 v 0 c -0.109313,0.0644 -0.05662,0.0244 -0.155014,0.12378 -0.133498,0.21033 -0.141719,0.43693 -0.08895,0.67831 0.06641,0.27813 0.185996,0.51751 0.427434,0.68564 0.176694,0.12168 0.397976,0.25039 0.593878,0.20999 0.271407,-0.0872 0.345422,-0.27391 0.340977,-0.5489 -0.02032,-0.26749 -0.114959,-0.52862 -0.226645,-0.7709 -0.08103,-0.11411 -0.158766,-0.20684 -0.28381,-0.27589 -0.03726,-0.0206 -0.08112,-0.0283 -0.116925,-0.0513 -0.0069,-0.004 0.0071,-0.023 -0.0011,-0.0244 -0.04236,-0.007 -0.08597,0.001 -0.128961,0.002 -0.234196,0.0511 -0.453813,0.13059 -0.609677,0.32345 -0.105643,0.19215 -0.161216,0.41881 -0.02971,0.61339 0.150908,0.15187 0.34875,0.20239 0.555961,0.15272 0.264626,-0.0637 0.502587,-0.17232 0.705893,-0.35798 0.163713,-0.17172 0.317185,-0.37168 0.282932,-0.62276 -0.07279,-0.21103 -0.197004,-0.33363 -0.410752,-0.4074 -0.03652,-0.009 -0.07544,-0.0101 -0.109559,-0.0257 -0.0072,-0.003 0.0249,-0.0157 0.01704,-0.0165 -0.163184,-0.0182 -0.337804,0.0277 -0.473898,0.11478 -0.210838,0.1557 -0.370366,0.34772 -0.4431,0.60562 -0.05476,0.25817 -0.06851,0.49467 0.13158,0.69692 0.168304,0.14202 0.314859,0.21214 0.521147,0.11759 0.213098,-0.13519 0.310607,-0.33235 0.252008,-0.5846 -0.05918,-0.24426 -0.165421,-0.43474 -0.413168,-0.52793 -0.04144,-0.015 -0.07589,-0.0583 -0.119894,-0.0558 -0.189523,0.0111 -0.349565,0.11567 -0.483311,0.24296 -0.151824,0.18595 -0.320003,0.42684 -0.187172,0.66724 0.01942,0.0202 0.05636,0.0327 0.05823,0.0607 0.0013,0.0202 -0.06909,0.0204 -0.05209,0.0314 0.109249,0.071 0.407924,-0.1432 0.484246,-0.20414 0,0 0.131934,0.0104 0.131934,0.0104 z"
       inkscape:connector-curvature="0" />
    <path
       style="opacity:1;fill:#3015e9;fill-opacity:1;fill-rule:nonzero;stroke:#3015e9;stroke-width:1;stroke-linecap:round;stroke-linejoin:round;stroke-miterlimit:4;stroke-dasharray:none;stroke-dashoffset:0;stroke-opacity:1;paint-order:stroke fill markers"
       id="path4581"
       d="m 69.941159,125.12489 c -0.05327,0.37108 -0.0833,0.74483 -0.102958,1.11902 0,0 -0.131643,-7.9e-4 -0.131643,-7.9e-4 v 0 c 0.01992,-0.37456 0.05058,-0.74855 0.102272,-1.12021 0,0 0.132329,0.002 0.132329,0.002 z"
       inkscape:connector-curvature="0" />
    <path
       style="opacity:1;fill:#3015e9;fill-opacity:1;fill-rule:nonzero;stroke:#3015e9;stroke-width:1;stroke-linecap:round;stroke-linejoin:round;stroke-miterlimit:4;stroke-dasharray:none;stroke-dashoffset:0;stroke-opacity:1;paint-order:stroke fill markers"
       id="path4583"
       d="m 70.224427,128.33119 c -5.29e-4,0.25368 -5.29e-4,0.50736 -5.29e-4,0.76104 0,0 -0.131406,0 -0.131406,0 v 0 c 4e-5,-0.25368 1.64e-4,-0.50736 -5.29e-4,-0.76104 0,0 0.132355,0 0.132355,0 z"
       inkscape:connector-curvature="0" />
    <path
       style="opacity:1;fill:#3015e9;fill-opacity:1;fill-rule:nonzero;stroke:#3015e9;stroke-width:1;stroke-linecap:round;stroke-linejoin:round;stroke-miterlimit:4;stroke-dasharray:none;stroke-dashoffset:0;stroke-opacity:1;paint-order:stroke fill markers"
       id="path4585"
       d="m 69.855442,131.67021 c 0.01461,0.0569 0.0292,0.11375 0.04379,0.17062 0,0 -0.131577,0.003 -0.131577,0.003 v 0 c -0.01482,-0.0567 -0.02965,-0.11351 -0.04447,-0.17027 0,0 0.132252,-0.004 0.132252,-0.004 z"
       inkscape:connector-curvature="0" />
    <path
       style="opacity:1;fill:#3015e9;fill-opacity:1;fill-rule:nonzero;stroke:#3015e9;stroke-width:1;stroke-linecap:round;stroke-linejoin:round;stroke-miterlimit:4;stroke-dasharray:none;stroke-dashoffset:0;stroke-opacity:1;paint-order:stroke fill markers"
       id="path4587"
       d="m 70.2404,134.34381 c 0.03002,0.23557 0.01521,0.1136 0.04406,0.36595 0,0 -0.131377,0.002 -0.131377,0.002 v 0 c -0.0292,-0.25211 -0.01408,-0.13027 -0.04501,-0.36557 0,0 0.132329,-0.002 0.132329,-0.002 z"
       inkscape:connector-curvature="0" />
    <path
       style="opacity:1;fill:#3015e9;fill-opacity:1;fill-rule:nonzero;stroke:#3015e9;stroke-width:1;stroke-linecap:round;stroke-linejoin:round;stroke-miterlimit:4;stroke-dasharray:none;stroke-dashoffset:0;stroke-opacity:1;paint-order:stroke fill markers"
       id="path4589"
       d="m 70.2404,137.01651 c 0.05199,0.21168 0.02466,0.10267 0.08219,0.32699 0,0 -0.131546,0.003 -0.131546,0.003 v 0 c -0.05793,-0.22488 -0.03034,-0.11539 -0.08297,-0.32842 0,0 0.132329,-0.002 0.132329,-0.002 z"
       inkscape:connector-curvature="0" />
    <path
       style="opacity:1;fill:#3015e9;fill-opacity:1;fill-rule:nonzero;stroke:#3015e9;stroke-width:1;stroke-linecap:round;stroke-linejoin:round;stroke-miterlimit:4;stroke-dasharray:none;stroke-dashoffset:0;stroke-opacity:1;paint-order:stroke fill markers"
       id="path4591"
       d="m 70.459676,139.69198 c -0.127352,0.32237 -0.263213,0.64578 -0.298807,0.99305 6.1e-5,0.0438 1.21e-4,0.0876 1.82e-4,0.1314 0,0 -0.132125,1e-5 -0.132125,1e-5 v 0 c -5e-6,-0.0443 -1e-5,-0.0885 -1.6e-5,-0.13277 0.03604,-0.34792 0.170892,-0.67227 0.298514,-0.99537 0,0 0.132252,0.004 0.132252,0.004 z"
       inkscape:connector-curvature="0" />
    <path
       style="opacity:1;fill:#3015e9;fill-opacity:1;fill-rule:nonzero;stroke:#3015e9;stroke-width:1;stroke-linecap:round;stroke-linejoin:round;stroke-miterlimit:4;stroke-dasharray:none;stroke-dashoffset:0;stroke-opacity:1;paint-order:stroke fill markers"
       id="path4593"
       d="m 70.491698,142.49647 c -0.0011,0.3747 0.0613,0.74642 0.09648,1.119 0,0 -0.131633,0.001 -0.131633,0.001 v 0 c -0.03498,-0.37305 -0.09663,-0.74512 -0.0972,-1.12023 0,0 0.132355,0 0.132355,0 z"
       inkscape:connector-curvature="0" />
    <path
       style="opacity:1;fill:#3015e9;fill-opacity:1;fill-rule:nonzero;stroke:#3015e9;stroke-width:1;stroke-linecap:round;stroke-linejoin:round;stroke-miterlimit:4;stroke-dasharray:none;stroke-dashoffset:0;stroke-opacity:1;paint-order:stroke fill markers"
       id="path4595"
       d="m 70.459676,145.70555 c -0.114057,0.35944 -0.154702,0.72913 -0.18338,1.10229 -0.0041,0.0471 -0.0082,0.0942 -0.01228,0.14134 0,0 -0.132008,-0.001 -0.132008,-0.001 v 0 c 0.0042,-0.0471 0.0083,-0.0941 0.01246,-0.1412 0.02953,-0.3739 0.07008,-0.74437 0.182949,-1.10496 0,0 0.132252,0.004 0.132252,0.004 z"
       inkscape:connector-curvature="0" />
    <path
       style="opacity:1;fill:#3015e9;fill-opacity:1;fill-rule:nonzero;stroke:#3015e9;stroke-width:1;stroke-linecap:round;stroke-linejoin:round;stroke-miterlimit:4;stroke-dasharray:none;stroke-dashoffset:0;stroke-opacity:1;paint-order:stroke fill markers"
       id="path4597"
       d="m 70.625331,148.91094 c -5.29e-4,0.25368 -5.29e-4,0.50737 -5.29e-4,0.76105 0,0 -0.131405,0 -0.131405,0 v 0 c 4e-5,-0.25368 1.64e-4,-0.50737 -5.29e-4,-0.76105 0,0 0.132355,0 0.132355,0 z"
       inkscape:connector-curvature="0" />
    <path
       style="opacity:1;fill:#3015e9;fill-opacity:1;fill-rule:nonzero;stroke:#3015e9;stroke-width:1;stroke-linecap:round;stroke-linejoin:round;stroke-miterlimit:4;stroke-dasharray:none;stroke-dashoffset:0;stroke-opacity:1;paint-order:stroke fill markers"
       id="path4599"
       d="m 70.475699,151.98548 c -0.04514,0.31366 -0.07243,0.62938 -0.09384,0.94541 0,0 -0.131511,-7.9e-4 -0.131511,-7.9e-4 v 0 c 0.02162,-0.31632 0.04933,-0.63226 0.09302,-0.9464 0,0 0.132329,0.002 0.132329,0.002 z"
       inkscape:connector-curvature="0" />
    <path
       style="opacity:1;fill:#e915bd;fill-opacity:1;fill-rule:nonzero;stroke:#e915bd;stroke-width:1;stroke-linecap:round;stroke-linejoin:round;stroke-miterlimit:4;stroke-dasharray:none;stroke-dashoffset:0;stroke-opacity:1;paint-order:stroke fill markers"
       id="path4607"
       d="m 69.856825,155.90159 c 0.04826,-0.11704 0.204968,-0.53573 0.364332,-0.54525 0.05988,-0.004 0.119536,0.0104 0.179302,0.0156 0.107617,0.1694 0.08862,0.38216 0.05528,0.57082 -0.08678,0.2799 -0.292669,0.2767 -0.544235,0.25261 -0.179072,-0.10689 -0.257492,-0.26392 -0.307951,-0.45928 -0.04734,-0.21672 -0.01744,-0.41854 0.162944,-0.55689 0.27196,-0.0941 0.520483,-0.0204 0.695306,0.19757 0.117526,0.19479 0.157951,0.41516 0.02814,0.61087 -0.183848,0.1662 -0.456554,0.0983 -0.658021,-0.005 -0.202293,-0.15165 -0.252733,-0.37709 -0.20836,-0.61481 0.134819,-0.33166 0.323242,-0.34542 0.646536,-0.32713 0.187116,0.0849 0.37728,0.20235 0.472916,0.38931 0.0352,0.19893 -0.0714,0.33288 -0.258527,0.38386 0,0 -0.131513,-0.0176 -0.131513,-0.0176 v 0 c 0.182528,-0.0408 0.292235,-0.16677 0.257648,-0.35992 -0.09682,-0.18186 -0.285123,-0.29905 -0.471598,-0.37666 0.03928,-0.0191 0.0946,-0.0425 -0.06852,2.7e-4 -0.109675,0.0288 -0.202938,0.10298 -0.262956,0.19872 -0.02178,0.0347 -0.03455,0.0743 -0.05183,0.11152 -0.04432,0.23255 0.0065,0.45318 0.207799,0.59774 0.03196,0.0157 0.06267,0.0342 0.09587,0.047 0.03351,0.0129 0.0746,0.009 0.10351,0.0299 0.01127,0.008 -0.05092,0.0148 -0.03752,0.0188 0.08191,0.0244 0.175231,-0.0362 0.232204,-0.0838 0.131757,-0.18828 0.08775,-0.40567 -0.02778,-0.59392 -0.06293,-0.0762 -0.07623,-0.1056 -0.162462,-0.15715 -0.03167,-0.0189 -0.07385,-0.0202 -0.101092,-0.0451 -0.0089,-0.008 0.04268,-0.0168 0.03081,-0.0191 -0.06262,-0.012 -0.139018,0.0127 -0.198581,0.0271 -0.181604,0.13076 -0.20928,0.32898 -0.162594,0.54119 0.05001,0.19043 0.127524,0.34683 0.307165,0.44504 -0.01783,0.006 -0.07096,0.0111 -0.05347,0.0181 0.141872,0.0562 0.30308,-0.14177 0.333798,-0.25538 0.03205,-0.1798 0.05669,-0.39412 -0.05496,-0.55203 0.02824,-0.006 0.05757,-0.0264 0.08473,-0.0168 0.02085,0.007 -0.04362,0.012 -0.06146,0.025 -0.02861,0.021 -0.05303,0.0476 -0.0753,0.0752 -0.10318,0.12795 -0.173294,0.2795 -0.227304,0.43349 0,0 -0.132252,-0.004 -0.132252,-0.004 z"
       inkscape:connector-curvature="0" />
    <path
       style="opacity:1;fill:#3015e9;fill-opacity:1;fill-rule:nonzero;stroke:#3015e9;stroke-width:1;stroke-linecap:round;stroke-linejoin:round;stroke-miterlimit:4;stroke-dasharray:none;stroke-dashoffset:0;stroke-opacity:1;paint-order:stroke fill markers"
       id="path4609"
       d="m 83.03081,125.66988 c 0.373087,1.2e-4 0.746176,8e-5 1.119262,5e-5 0.294643,-2e-5 0.589283,-2e-5 0.883925,-3e-5 0.267346,0 0.534694,0 0.802042,0 0.266846,0 0.533694,0 0.800539,0 0.267243,0 0.534485,0 0.801725,0 0.267274,0 0.534548,0 0.801822,0 0.267272,0 0.534543,0 0.801812,0 0.267269,0 0.534541,0 0.801809,0 0.25735,-0.003 0.511064,-0.0116 0.764059,0.0393 0.234609,0.0551 0.474652,0.0742 0.714653,0.086 -0.0058,-0.004 -0.02394,-0.009 -0.01736,-0.0114 0.174966,-0.0581 0.386953,-0.0689 0.569426,-0.0881 0.258651,-0.0226 0.518496,-0.0243 0.777943,-0.0261 0.245854,0.0222 0.48177,-0.0374 0.721395,-0.0795 0.262631,-0.0505 0.524542,0.0147 0.784968,0.0455 0.12251,0.004 0.247034,0.0313 0.36998,0.0251 0.0069,-2.6e-4 -0.02402,-0.009 -0.01741,-0.0115 0.07032,-0.0233 0.145899,-0.0258 0.218696,-0.0396 0.232045,-0.0414 0.46554,-0.0492 0.694844,-0.10496 0.180186,-0.0491 0.365733,-0.0685 0.550886,-0.0873 0,0 0.131141,0.0194 0.131141,0.0194 v 0 c -0.18505,0.0184 -0.370697,0.0365 -0.550828,0.0854 -0.229373,0.0569 -0.46227,0.0662 -0.694949,0.10567 -0.276302,0.0525 -0.553636,0.0678 -0.833276,0.0269 -0.201081,-0.0243 -0.383683,-0.0771 -0.523024,-0.0462 -0.239953,0.0415 -0.475723,0.10448 -0.721913,0.0816 -0.259328,0.002 -0.519033,0.003 -0.777626,0.0249 -0.272769,0.0277 -0.538549,0.0983 -0.813538,0.10017 -0.240223,-0.0124 -0.480264,-0.0327 -0.715084,-0.0879 -0.252764,-0.0491 -0.506754,-0.0384 -0.763455,-0.0368 -0.267272,0 -0.534541,0 -0.801809,0 -0.267272,0 -0.534541,0 -0.801812,0 -0.267274,0 -0.534549,0 -0.801823,0 -0.267242,0 -0.534484,0 -0.801724,0 -0.266848,0 -0.533697,0 -0.800545,0 -0.267335,0 -0.53467,0 -0.802005,0 -0.294502,-10e-6 -0.589002,-2e-5 -0.883504,-4e-5 -0.373319,-2e-5 -0.746641,-6e-5 -1.11996,6e-5 0,0 0.130725,-0.0207 0.130725,-0.0207 z"
       inkscape:connector-curvature="0" />
    <path
       style="opacity:1;fill:#3015e9;fill-opacity:1;fill-rule:nonzero;stroke:#3015e9;stroke-width:1;stroke-linecap:round;stroke-linejoin:round;stroke-miterlimit:4;stroke-dasharray:none;stroke-dashoffset:0;stroke-opacity:1;paint-order:stroke fill markers"
       id="path4611"
       d="m 94.657271,124.36733 c 0.375539,0.0861 0.742844,0.20282 1.119212,0.28537 0.221011,0.0771 0.482454,0.0878 0.60027,0.3128 0.03575,0.2019 -0.0815,0.37836 -0.179128,0.54494 -0.149945,0.21602 -0.366874,0.36497 -0.57245,0.52256 -0.227449,0.16941 -0.446254,0.34904 -0.666697,0.52722 -0.09248,0.0781 -0.193998,0.14283 -0.289615,0.21691 0,0 -0.131744,-0.012 -0.131744,-0.012 v 0 c 0.09529,-0.0747 0.19704,-0.13856 0.289602,-0.21671 0.221276,-0.17735 0.439065,-0.35855 0.667102,-0.52748 0.204348,-0.15697 0.420619,-0.30402 0.571614,-0.51751 0.09504,-0.16214 0.213428,-0.33447 0.178834,-0.53141 -0.119065,-0.21682 -0.383312,-0.22539 -0.598186,-0.30156 -0.376396,-0.0836 -0.744233,-0.19979 -1.120013,-0.28607 0,0 0.131199,-0.017 0.131199,-0.017 z"
       inkscape:connector-curvature="0" />
    <path
       style="opacity:1;fill:#e915bd;fill-opacity:1;fill-rule:nonzero;stroke:#e915bd;stroke-width:1;stroke-linecap:round;stroke-linejoin:round;stroke-miterlimit:4;stroke-dasharray:none;stroke-dashoffset:0;stroke-opacity:1;paint-order:stroke fill markers"
       id="path4613"
       d="m 85.302602,159.2122 c 0.373087,1.3e-4 0.746173,8e-5 1.119262,6e-5 0.21709,-10e-4 0.43308,-0.0652 0.656415,-0.096 0.254008,-0.0307 0.510141,-0.0343 0.765649,-0.0374 0.310078,-0.002 0.620167,-0.001 0.930248,-7.9e-4 0.267415,2.6e-4 0.534829,5.3e-4 0.802246,5.3e-4 0.223795,4e-5 0.44759,4e-5 0.671388,4e-5 0.267266,0 0.534535,0 0.801804,-1e-5 0.28425,-0.0201 0.557242,0.0595 0.835668,0.0977 0.253862,0.0298 0.509775,0.0329 0.765053,0.0357 0.223502,0.002 0.447006,0.001 0.67051,8e-4 0.306194,-0.002 0.611524,-0.004 0.917041,0.0163 0.229682,0.06 0.467846,0.071 0.699254,0.11899 0.257564,0.0667 0.520914,0.0992 0.785722,0.11771 0.224211,0.0316 0.362196,-0.0245 0.591085,-0.0645 0.184528,-0.0305 0.371117,-0.0257 0.549357,-0.0865 0,0 0.131712,0.0163 0.131712,0.0163 v 0 c -0.178033,0.0643 -0.364548,0.0596 -0.550048,0.0886 -0.282628,0.0488 -0.563869,0.10447 -0.852731,0.0658 -0.264961,-0.0193 -0.528182,-0.0533 -0.78604,-0.11937 -0.231799,-0.0457 -0.469217,-0.0603 -0.699225,-0.11813 0.04212,-0.0488 0.01966,-0.0151 -0.120671,-0.015 -0.133733,6e-5 -0.267464,1.6e-4 -0.401195,2.7e-4 -0.04459,4e-5 -0.08919,9e-5 -0.133782,1.4e-4 -0.310501,2.7e-4 -0.621011,0.001 -0.93151,-7.9e-4 -0.255437,-0.003 -0.51154,-0.006 -0.765456,-0.0374 -0.209587,-0.0296 -0.400806,-0.0898 -0.574262,-0.096 -0.267269,0 -0.534538,0 -0.801807,0 -0.310782,0 -0.621567,2e-5 -0.932349,-4e-5 -0.267414,-7e-5 -0.534831,-1.9e-4 -0.802246,-5.3e-4 -0.22308,-2.6e-4 -0.446161,-0.001 -0.669239,7.9e-4 -0.25536,0.003 -0.511329,0.006 -0.765289,0.0358 -0.305287,0.041 -0.606086,0.12052 -0.917329,0.0977 -0.373322,-3e-5 -0.746641,-7e-5 -1.11996,5e-5 0,0 0.130725,-0.0207 0.130725,-0.0207 z"
       inkscape:connector-curvature="0" />
    <path
       style="opacity:1;fill:#e915bd;fill-opacity:1;fill-rule:nonzero;stroke:#e915bd;stroke-width:1;stroke-linecap:round;stroke-linejoin:round;stroke-miterlimit:4;stroke-dasharray:none;stroke-dashoffset:0;stroke-opacity:1;paint-order:stroke fill markers"
       id="path4617"
       d="m 95.042431,158.07729 c 0.308623,0.23754 0.661029,0.40316 1.016505,0.5568 0.276021,0.11745 0.571222,0.15511 0.86773,0.1731 0.142026,0.0161 0.446331,-0.0326 0.332772,0.1935 -0.165672,0.1755 -0.361395,0.32034 -0.555705,0.46243 -0.236984,0.17614 -0.479438,0.34475 -0.713673,0.52477 -0.172892,0.12199 -0.350616,0.2402 -0.48776,0.40273 0,0 -0.132035,-0.009 -0.132035,-0.009 v 0 c 0.136097,-0.16468 0.314188,-0.2838 0.488365,-0.40557 0.233942,-0.18063 0.476862,-0.34871 0.713785,-0.5251 0.193247,-0.14123 0.38571,-0.28568 0.554239,-0.4564 0.0024,-0.004 0.0428,-0.0691 0.03579,-0.0878 -0.03939,-0.10508 -0.291428,-0.0628 -0.366348,-0.0795 -0.296851,-0.0191 -0.592026,-0.0588 -0.867851,-0.1777 -0.355719,-0.15491 -0.707642,-0.32207 -1.017487,-0.55906 0,0 0.131678,-0.013 0.131678,-0.013 z"
       inkscape:connector-curvature="0" />
    <path
       style="opacity:1;fill:#3015e9;fill-opacity:1;fill-rule:nonzero;stroke:#3015e9;stroke-width:1;stroke-linecap:round;stroke-linejoin:round;stroke-miterlimit:4;stroke-dasharray:none;stroke-dashoffset:0;stroke-opacity:1;paint-order:stroke fill markers"
       id="path4619"
       d="m 103.39915,128.37283 c 0.0955,-0.36597 0.18449,-0.73832 0.18955,-1.11787 -0.004,-0.30162 -0.0741,-0.59624 -0.16739,-0.88154 -0.0732,-0.246 -0.16667,-0.48505 -0.26768,-0.72094 -0.0431,-0.0723 -0.0483,-0.20756 -0.13495,-0.25127 -0.0137,-0.007 -0.0593,-0.009 -0.0459,-0.002 0.10154,0.0579 0.11599,-0.0166 0.0604,0.088 -0.10651,0.21915 -0.15063,0.46106 -0.21608,0.69442 -0.0805,0.29494 -0.0989,0.60157 -0.11263,0.90555 -0.007,0.28063 0.0387,0.566 0.10444,0.83869 0.0607,0.26928 0.13418,0.53479 0.20092,0.80256 0.0536,0.25969 0.12549,0.51503 0.2206,0.76239 0.0844,0.23857 0.17621,0.47724 0.30091,0.69788 0.10234,0.22122 0.26544,0.35408 0.50854,0.37544 0.17682,-0.0318 0.41533,-0.16453 0.59884,-0.27594 0.19952,-0.13541 0.36571,-0.30537 0.51121,-0.4965 0.0723,-0.11475 0.13492,-0.23426 0.19408,-0.35611 0,0 0.13192,0.006 0.13192,0.006 v 0 c -0.0592,0.12272 -0.12226,0.2428 -0.19415,0.35873 -0.14529,0.19298 -0.31195,0.36406 -0.51161,0.50146 -0.27151,0.16487 -0.52946,0.31534 -0.86122,0.28177 -0.24406,-0.0291 -0.40648,-0.16505 -0.50961,-0.38803 -0.1238,-0.22187 -0.21673,-0.46049 -0.30108,-0.6998 -0.095,-0.24791 -0.16641,-0.50397 -0.22045,-0.76401 -0.0669,-0.26777 -0.1401,-0.53339 -0.2009,-0.80267 -0.0656,-0.27403 -0.11146,-0.56049 -0.10434,-0.84241 0.0139,-0.30494 0.0323,-0.61258 0.11253,-0.90856 0.0656,-0.23413 0.10993,-0.47662 0.21539,-0.69705 0.1543,-0.31658 0.34417,0.0149 0.38527,0.16585 0.10076,0.23637 0.19435,0.4757 0.26748,0.72212 0.0932,0.28685 0.16389,0.58277 0.16712,0.88588 -0.005,0.38069 -0.0947,0.75388 -0.18895,1.12136 0,0 -0.13225,-0.004 -0.13225,-0.004 z"
       inkscape:connector-curvature="0" />
    <path
       style="opacity:1;fill:#e915bd;fill-opacity:1;fill-rule:nonzero;stroke:#e915bd;stroke-width:1;stroke-linecap:round;stroke-linejoin:round;stroke-miterlimit:4;stroke-dasharray:none;stroke-dashoffset:0;stroke-opacity:1;paint-order:stroke fill markers"
       id="path4621"
       d="m 103.6504,161.91605 c 0.0558,-0.38359 0.085,-0.77006 0.10308,-1.15703 0.003,-0.32277 0.0351,-0.64804 -2.7e-4,-0.96962 -0.0397,-0.26616 -0.11568,-0.53447 -0.29866,-0.73752 -0.0258,-0.0106 -0.0599,-0.0101 -0.0773,-0.0318 -0.0127,-0.0157 0.0599,-0.0103 0.0597,0.01 -1.7e-4,0.0242 -0.041,0.0257 -0.0601,0.0406 -0.0223,0.0175 -0.0441,0.0357 -0.0635,0.0563 -0.0588,0.0621 -0.0634,0.0823 -0.10491,0.15794 -0.10686,0.2412 -0.16971,0.49099 -0.20564,0.75138 -0.0122,0.30044 -0.0754,0.5939 -0.11981,0.89037 -0.0407,0.30108 -0.0459,0.60547 -0.0507,0.90881 0.0255,0.28261 0.0749,0.56145 0.14568,0.8359 0.0775,0.23509 0.20877,0.43555 0.37878,0.61313 0.18555,0.1579 0.4244,0.18126 0.65767,0.19908 0.17485,0.0156 0.37443,-0.0728 0.5668,-0.16253 0.2493,-0.13125 0.4822,-0.28491 0.69033,-0.47495 0.0984,-0.1217 0.0493,-0.0622 0.14725,-0.1787 0,0 0.13202,0.009 0.13202,0.009 v 0 c -0.0985,0.11658 -0.0492,0.0565 -0.14754,0.18038 -0.20772,0.19193 -0.4415,0.34577 -0.69076,0.47892 -0.26501,0.12611 -0.52901,0.20555 -0.82882,0.16727 -0.2352,-0.0192 -0.47438,-0.0461 -0.6589,-0.20869 -0.16967,-0.18037 -0.30206,-0.38241 -0.37883,-0.61983 -0.071,-0.2756 -0.12029,-0.55568 -0.14559,-0.83945 0.005,-0.30391 0.0101,-0.60889 0.0506,-0.91056 0.0444,-0.29643 0.10788,-0.58979 0.11995,-0.89021 0.0358,-0.26199 0.0987,-0.51313 0.20516,-0.75616 0.10556,-0.1971 0.26723,-0.37175 0.51054,-0.23598 0.18098,0.2077 0.25934,0.47666 0.29858,0.74567 0.0351,0.32233 0.004,0.6482 -2.4e-4,0.97168 -0.0182,0.38736 -0.0478,0.77411 -0.10214,1.15829 0,0 -0.13233,-0.002 -0.13233,-0.002 z"
       inkscape:connector-curvature="0" />
    <path
       style="opacity:1;fill:#e915bd;fill-opacity:1;fill-rule:nonzero;stroke:#e915bd;stroke-width:1;stroke-linecap:round;stroke-linejoin:round;stroke-miterlimit:4;stroke-dasharray:none;stroke-dashoffset:0;stroke-opacity:1;paint-order:stroke fill markers"
       id="path4623"
       d="m 105.84084,155.98149 c -0.20635,0.31429 -0.33595,0.66407 -0.41076,1.03041 -0.0168,0.322 0.002,0.6507 0.0619,0.96786 0.0323,0.13785 0.0597,0.27662 0.085,0.41589 0,0 -0.13203,0.002 -0.13203,0.002 v 0 c -0.0254,-0.13923 -0.0528,-0.27796 -0.0849,-0.41582 -0.0595,-0.31895 -0.0786,-0.64922 -0.0615,-0.97295 0.0746,-0.36792 0.20484,-0.71893 0.41017,-1.03555 0,0 0.13209,0.008 0.13209,0.008 z"
       inkscape:connector-curvature="0" />
  </g>
</svg>
