<?xml version="1.0" encoding="UTF-8" standalone="no"?>
<!-- Created with Inkscape (http://www.inkscape.org/) -->

<svg
   xmlns:dc="http://purl.org/dc/elements/1.1/"
   xmlns:cc="http://creativecommons.org/ns#"
   xmlns:rdf="http://www.w3.org/1999/02/22-rdf-syntax-ns#"
   xmlns:svg="http://www.w3.org/2000/svg"
   xmlns="http://www.w3.org/2000/svg"
   xmlns:sodipodi="http://sodipodi.sourceforge.net/DTD/sodipodi-0.dtd"
   xmlns:inkscape="http://www.inkscape.org/namespaces/inkscape"
   width="210mm"
   height="297mm"
   viewBox="0 0 210 297"
   version="1.1"
   id="svg8"
   sodipodi:docname="two-planes-have-something-in-common.svg"
   inkscape:version="0.92.1 r15371">
  <defs
     id="defs2" />
  <sodipodi:namedview
     id="base"
     pagecolor="#ffffff"
     bordercolor="#666666"
     borderopacity="1.0"
     inkscape:pageopacity="0.0"
     inkscape:pageshadow="2"
     inkscape:zoom="1.979899"
     inkscape:cx="396.85039"
     inkscape:cy="528.08352"
     inkscape:document-units="mm"
     inkscape:current-layer="layer1"
     showgrid="false"
     inkscape:window-width="1920"
     inkscape:window-height="1046"
     inkscape:window-x="-11"
     inkscape:window-y="-11"
     inkscape:window-maximized="1" />
  <metadata
     id="metadata5">
    <rdf:RDF>
      <cc:Work
         rdf:about="">
        <dc:format>image/svg+xml</dc:format>
        <dc:type
           rdf:resource="http://purl.org/dc/dcmitype/StillImage" />
        <dc:title></dc:title>
      </cc:Work>
    </rdf:RDF>
  </metadata>
  <g
     inkscape:label="Layer 1"
     inkscape:groupmode="layer"
     id="layer1">
    <path
       style="opacity:1;fill:#3015e9;fill-opacity:1;fill-rule:nonzero;stroke:#3015e9;stroke-width:1;stroke-linecap:round;stroke-linejoin:round;stroke-miterlimit:4;stroke-dasharray:none;stroke-dashoffset:0;stroke-opacity:1;paint-order:stroke fill markers"
       id="path4511"
       d="m 58.273497,124.14958 c 0.258614,0.29501 0.527735,0.5762 0.815369,0.84306 0.304575,0.24964 0.64339,0.45802 0.984395,0.65425 0.387906,0.21827 0.784736,0.41479 1.199261,0.57704 0.462635,0.19848 0.942975,0.3459 1.423607,0.49284 0.483973,0.14208 0.982104,0.22588 1.463537,0.37669 0.479171,0.13229 0.946423,0.2998 1.417704,0.45632 0.457422,0.1548 0.907799,0.33345 1.37215,0.46681 0.47484,0.13038 0.949735,0.26244 1.426737,0.38501 0.438507,0.13495 0.869254,0.29505 1.299617,0.45399 0.410096,0.18012 0.809075,0.38483 1.208866,0.58698 0.405476,0.22373 0.8305,0.41096 1.258948,0.58603 0.44191,0.17938 0.877837,0.37111 1.314566,0.56292 0.402175,0.17993 0.800608,0.36805 1.189646,0.575 0.35778,0.18559 0.71913,0.36589 1.069163,0.56602 0.318564,0.17984 0.65809,0.31686 0.986338,0.47702 0.309435,0.14349 0.629578,0.26152 0.9385,0.40598 0.282639,0.12674 0.564087,0.25772 0.838584,0.40147 0.266724,0.11555 0.533805,0.23083 0.801883,0.34355 0.223086,0.10589 0.463839,0.17197 0.689378,0.27017 0.217487,0.09 0.442827,0.15891 0.661873,0.24465 0.243248,0.0713 0.481767,0.15508 0.72476,0.22732 0.148945,0.0657 0.298217,0.12024 0.460674,0.1336 0,0 -0.655071,0.0949 -0.655071,0.0949 v 0 c -0.159996,-0.0295 -0.310253,-0.0859 -0.461799,-0.14459 -0.241599,-0.0775 -0.484097,-0.15036 -0.724394,-0.23142 -0.221727,-0.0804 -0.444844,-0.15706 -0.663329,-0.2462 -0.230759,-0.0873 -0.460688,-0.17382 -0.687475,-0.27147 -0.267639,-0.11546 -0.538435,-0.22415 -0.802045,-0.34838 -0.275759,-0.13972 -0.554887,-0.27319 -0.837419,-0.39862 -0.310867,-0.1403 -0.629738,-0.26186 -0.938374,-0.40722 -0.330055,-0.15719 -0.667433,-0.30007 -0.985446,-0.48143 -0.351393,-0.19617 -0.710065,-0.37958 -1.067504,-0.56434 -0.38916,-0.20439 -0.78717,-0.39141 -1.188527,-0.57053 -0.435324,-0.19398 -0.873357,-0.37941 -1.313828,-0.5612 -0.429083,-0.17658 -0.853001,-0.36827 -1.260287,-0.591 -0.399111,-0.20044 -0.795967,-0.40759 -1.208286,-0.57947 -0.429665,-0.15692 -0.858123,-0.31984 -1.297474,-0.44782 -0.476742,-0.12533 -0.953053,-0.25328 -1.427451,-0.38702 -0.462696,-0.13946 -0.914435,-0.31381 -1.371891,-0.46931 -0.470122,-0.15924 -0.939562,-0.31914 -1.417378,-0.45461 -0.48273,-0.14437 -0.98021,-0.23042 -1.462532,-0.37676 -0.482217,-0.14684 -0.961925,-0.30074 -1.426493,-0.49791 -0.414436,-0.16756 -0.813295,-0.36607 -1.202182,-0.58659 -0.341503,-0.20205 -0.684776,-0.40908 -0.9861,-0.66873 -0.288501,-0.26985 -0.55558,-0.55755 -0.819711,-0.85106 0,0 0.65944,-0.0459 0.65944,-0.0459 z"
       inkscape:connector-curvature="0" />
    <path
       style="opacity:1;fill:#3015e9;fill-opacity:1;fill-rule:nonzero;stroke:#3015e9;stroke-width:1;stroke-linecap:round;stroke-linejoin:round;stroke-miterlimit:4;stroke-dasharray:none;stroke-dashoffset:0;stroke-opacity:1;paint-order:stroke fill markers"
       id="path4513"
       d="m 57.660201,124.72305 c -0.02564,0.34836 0.03406,0.6911 0.07923,1.03485 0.03648,0.27722 0.04644,0.55673 0.052,0.83596 -0.0021,0.26736 -0.0033,0.53075 0.04046,0.7948 0.05837,0.26391 0.05702,0.53584 0.102269,0.8011 0.06021,0.26509 0.09357,0.53417 0.112205,0.805 0.01371,0.26928 0.07896,0.53245 0.111982,0.80002 0.02828,0.26966 0.09708,0.53242 0.132593,0.80152 0.03082,0.26746 0.03439,0.53694 0.03713,0.80584 0.04519,0.2642 0.06887,0.53328 0.125516,0.79524 0.05215,0.26966 0.122907,0.53405 0.187298,0.80085 0.04174,0.26936 0.09141,0.53578 0.145021,0.80311 0.03187,0.27125 0.105656,0.53406 0.153519,0.8025 0.07278,0.29404 0.153128,0.58593 0.224848,0.88028 0.06517,0.29164 0.152072,0.5756 0.192128,0.8725 0.04883,0.30639 0.134765,0.60326 0.21097,0.90325 0.11837,0.28178 0.154496,0.58324 0.218136,0.8789 0.07428,0.29221 0.113983,0.59022 0.132093,0.89066 0.01421,0.3036 0.01453,0.60761 0.01495,0.91148 -1.5e-4,0.29917 -0.0013,0.59835 -0.0013,0.89753 -0.03909,0.28625 -0.06707,0.57613 -0.125349,0.85925 -0.06547,0.26668 -0.101507,0.53804 -0.165409,0.80497 -0.06633,0.26027 -0.08931,0.52766 -0.102529,0.795 -0.0028,0.2652 -0.02524,0.53236 0.0074,0.79615 0.05121,0.26577 0.08503,0.53361 0.103708,0.80348 0.01511,0.26772 0.01548,0.53596 0.01614,0.80402 1.56e-4,0.2673 -2.65e-4,0.53461 -5.29e-4,0.80192 -2.28e-4,0.26726 -2.65e-4,0.53452 -2.65e-4,0.80178 0.01976,0.27284 -0.04039,0.53879 -0.08058,0.80671 -0.03778,0.26418 -0.04601,0.53114 -0.05128,0.79756 -0.0036,0.26702 -0.0028,0.53408 -0.0024,0.80112 -0.0235,0.24426 0.04008,0.47767 0.08161,0.71558 0.04735,0.24966 0.09709,0.50195 0.163634,0.74759 0.05432,0.25038 0.130427,0.49256 0.202703,0.73788 0.06165,0.24739 0.13929,0.4906 0.219062,0.73276 0.104904,0.26324 0.211838,0.52663 0.297402,0.79693 0.111588,0.25887 0.176556,0.52997 0.212505,0.80848 0.0071,0.27087 0.06841,0.53437 0.108982,0.8012 0.03987,0.26968 -0.01884,0.54171 -0.04694,0.81025 -0.02606,0.26546 -0.03117,0.53228 -0.03457,0.79879 -2.65e-4,0.2711 -0.06556,0.53689 -0.09835,0.80538 -0.02895,0.26505 -0.03306,0.53186 -0.03605,0.79819 -0.02167,0.26953 0.03993,0.5319 0.07967,0.7965 0.03813,0.26701 0.04658,0.53681 0.05196,0.80609 0.0026,0.26869 0.0672,0.5321 0.09932,0.79848 0.07335,0.22496 0.103955,0.45994 0.161515,0.68834 0.06731,0.24439 0.09556,0.49453 0.166397,0.73775 0.05385,0.24124 0.132521,0.47522 0.182335,0.7175 0.08472,0.2594 0.138842,0.52493 0.169261,0.79567 0.0235,0.26981 0.08928,0.53325 0.123037,0.80216 0.02942,0.26756 0.03295,0.53695 0.03563,0.80582 0.0016,0.26739 7.94e-4,0.53479 2.65e-4,0.80218 -2.65e-4,0.26726 -5.29e-4,0.53452 -5.29e-4,0.80177 -4.8e-5,0.26727 -4e-5,0.53454 -4e-5,0.8018 3e-6,0.26727 5e-6,0.53454 8e-6,0.80181 0.02315,0.24779 -0.03718,0.48564 -0.08003,0.72707 -0.04008,0.24638 -0.04664,0.49631 -0.05176,0.74535 -0.0037,0.26619 -0.0029,0.53241 -0.0026,0.79862 2.65e-4,0.26749 5.29e-4,0.53498 5.29e-4,0.80248 -0.03243,0.2453 0.05694,0.47864 0.06516,0.72024 -0.01434,0.25132 -0.03907,0.50176 -0.05175,0.75324 -0.03769,0.26899 0.04404,0.52999 0.051,0.7968 -0.01286,0.2686 -0.03827,0.53629 -0.0513,0.80492 -0.01119,0.26665 -0.01228,0.53357 -0.0132,0.80041 -5.3e-4,0.26722 -1.78e-4,0.53445 -3.5e-5,0.80167 -0.01056,0.24013 0.08081,0.46559 0.08153,0.70488 0.0033,0.24127 -0.08907,0.46295 -0.14659,0.69285 -0.03225,0.1833 -0.101388,0.35639 -0.143756,0.53747 0,0 -0.661575,-0.0149 -0.661575,-0.0149 v 0 c 0.04101,-0.1821 0.110855,-0.35501 0.143955,-0.53852 0.0547,-0.22531 0.14909,-0.44074 0.1465,-0.67667 -7.94e-4,-0.23856 -0.09615,-0.46483 -0.0806,-0.70505 -1.43e-4,-0.26731 -5.29e-4,-0.53462 3.4e-5,-0.80194 0.0011,-0.26782 0.0021,-0.53573 0.01323,-0.80337 0.01289,-0.267 0.03776,-0.53307 0.05129,-0.79998 -0.0071,-0.26825 -0.0899,-0.53126 -0.05115,-0.80184 0.01236,-0.2496 0.03604,-0.49822 0.05075,-0.74762 -0.0088,-0.24178 -0.09748,-0.47687 -0.06402,-0.72255 -9.7e-5,-0.26747 -2.64e-4,-0.53495 -5.29e-4,-0.80243 -2.64e-4,-0.26667 -0.0011,-0.53336 0.0024,-0.80001 0.005,-0.25241 0.01146,-0.50568 0.05097,-0.75554 0.04143,-0.2379 0.10477,-0.47133 0.08097,-0.71555 -3e-6,-0.26727 -6e-6,-0.53454 -8e-6,-0.80181 0,-0.26727 -8e-6,-0.53455 3.9e-5,-0.80182 6.4e-5,-0.26728 1.7e-4,-0.53456 5.3e-4,-0.80184 2.64e-4,-0.26714 0.0011,-0.53429 -2.65e-4,-0.80144 -0.0026,-0.26632 -0.0061,-0.53318 -0.03551,-0.79818 -0.03418,-0.26907 -0.10028,-0.5328 -0.123066,-0.80301 -0.0307,-0.2688 -0.08717,-0.53152 -0.169412,-0.78955 -0.05068,-0.24037 -0.129027,-0.47299 -0.183066,-0.71253 -0.06947,-0.24417 -0.09684,-0.4957 -0.16592,-0.74021 -0.05656,-0.23137 -0.0935,-0.46742 -0.161094,-0.69645 -0.03272,-0.26848 -0.09771,-0.53411 -0.09943,-0.80513 -0.0053,-0.26642 -0.01368,-0.53339 -0.05181,-0.79753 -0.04053,-0.26801 -0.10141,-0.5341 -0.07983,-0.80712 0.003,-0.26874 0.0072,-0.53796 0.03616,-0.80543 0.03218,-0.26622 0.09697,-0.52962 0.09824,-0.79823 0.0034,-0.26853 0.0086,-0.53735 0.03464,-0.80482 0.02736,-0.26295 0.08594,-0.52938 0.04703,-0.79337 -0.04101,-0.26722 -0.101278,-0.5314 -0.109025,-0.80266 -0.03612,-0.27472 -0.103515,-0.54075 -0.211928,-0.79662 -0.08698,-0.26968 -0.194085,-0.53264 -0.297614,-0.79628 -0.0804,-0.24273 -0.157099,-0.48698 -0.220279,-0.73474 -0.0734,-0.24548 -0.144505,-0.48974 -0.201639,-0.73973 -0.06531,-0.24811 -0.118031,-0.50136 -0.164912,-0.75329 -0.04295,-0.24142 -0.103516,-0.47923 -0.08067,-0.72705 -2.64e-4,-0.26749 -0.0011,-0.53501 0.0024,-0.80249 0.0053,-0.26925 0.01365,-0.53903 0.05144,-0.80606 0.03945,-0.26477 0.10033,-0.52728 0.08042,-0.79691 2.7e-5,-0.26728 6.4e-5,-0.53456 2.65e-4,-0.80184 2.48e-4,-0.26723 7.93e-4,-0.53446 5.29e-4,-0.80169 -7.94e-4,-0.26658 -0.0011,-0.53336 -0.01611,-0.7996 -0.01879,-0.26878 -0.05354,-0.53533 -0.103643,-0.80015 -0.03136,-0.26774 -0.01127,-0.53828 -0.0074,-0.80731 0.01331,-0.27141 0.03622,-0.54295 0.102905,-0.80731 0.06411,-0.26631 0.100221,-0.5369 0.165473,-0.80307 0.05955,-0.27827 0.08442,-0.56427 0.126053,-0.84566 5.29e-4,-0.29914 2.64e-4,-0.59828 7.93e-4,-0.89743 1.4e-5,-0.30248 5.29e-4,-0.60515 -0.01429,-0.90736 -0.01966,-0.29705 -0.05821,-0.59187 -0.131625,-0.88098 -0.06232,-0.29523 -0.104291,-0.59428 -0.218803,-0.8763 -0.07697,-0.30222 -0.161171,-0.60202 -0.21074,-0.91058 -0.04207,-0.29411 -0.127942,-0.57628 -0.191749,-0.86582 -0.07236,-0.29561 -0.154324,-0.58861 -0.226211,-0.88434 -0.04837,-0.26781 -0.121033,-0.53046 -0.153463,-0.80111 -0.05375,-0.2664 -0.101714,-0.53234 -0.144897,-0.80051 -0.06514,-0.26724 -0.134498,-0.53266 -0.187391,-0.80276 -0.05559,-0.26664 -0.08294,-0.53943 -0.125831,-0.80838 -0.0027,-0.26621 -0.0062,-0.53302 -0.037,-0.79778 -0.03598,-0.26915 -0.105216,-0.53209 -0.132611,-0.80209 -0.03352,-0.26865 -0.09917,-0.53302 -0.112057,-0.80362 -0.01868,-0.26874 -0.05284,-0.53549 -0.112045,-0.79862 -0.0435,-0.26565 -0.04483,-0.53716 -0.102291,-0.80127 -0.04355,-0.26723 -0.0429,-0.53382 -0.04062,-0.80426 -0.0054,-0.2768 -0.01516,-0.55387 -0.05074,-0.82874 -0.04455,-0.34668 -0.09935,-0.69237 -0.08176,-1.04338 0,0 0.661776,0 0.661776,0 z"
       inkscape:connector-curvature="0" />
    <path
       style="opacity:1;fill:#3015e9;fill-opacity:1;fill-rule:nonzero;stroke:#3015e9;stroke-width:1;stroke-linecap:round;stroke-linejoin:round;stroke-miterlimit:4;stroke-dasharray:none;stroke-dashoffset:0;stroke-opacity:1;paint-order:stroke fill markers"
       id="path4515"
       d="m 62.578874,178.94874 c 0.375578,-0.0188 0.746556,0.0424 1.118401,0.0845 0.320688,0.0458 0.642906,0.10038 0.960499,0.16691 0.400113,0.0713 0.800851,0.14199 1.203216,0.20076 0.456726,0.0813 0.904327,0.20102 1.353174,0.31618 0.449279,0.11507 0.886537,0.26666 1.317308,0.43744 0.397208,0.16567 0.792871,0.33397 1.177417,0.52757 0.34386,0.17223 0.667504,0.37958 0.997101,0.57649 0.28217,0.18389 0.557519,0.37964 0.827119,0.58176 0.26666,0.17642 0.522748,0.36739 0.800335,0.52669 0.261917,0.16991 0.531937,0.32565 0.80132,0.48322 0.276498,0.13597 0.530905,0.31059 0.801778,0.45685 0.263099,0.14746 0.529418,0.29058 0.801743,0.42047 0.26684,0.13439 0.531399,0.27394 0.801801,0.40117 0.259551,0.12665 0.513776,0.26031 0.76458,0.40299 0.195619,0.0987 0.386873,0.20434 0.58067,0.30683 0.180922,0.105 0.376269,0.16765 0.570894,0.24149 0.241578,0.0921 0.49807,0.12075 0.753944,0.13868 0.257984,0.0292 0.497506,0.11713 0.743439,0.19243 0.235236,0.0823 0.451247,0.20196 0.654016,0.34594 0.21953,0.15446 0.418981,0.33314 0.627417,0.50125 0.150018,0.13449 0.283654,0.28623 0.434501,0.41949 0.156382,0.11299 0.322178,0.20758 0.49172,0.29966 0.188092,0.0921 0.375208,0.18492 0.569995,0.26432 0.189791,0.12212 0.403891,0.19132 0.609862,0.27962 0.206988,0.0565 0.400081,0.14726 0.6096,0.19576 0.115586,0.044 0.234606,0.0763 0.354213,0.10689 0,0 -0.655222,0.0864 -0.655222,0.0864 v 0 c -0.119113,-0.033 -0.237106,-0.069 -0.355079,-0.10589 -0.20761,-0.0567 -0.406355,-0.14084 -0.611129,-0.20633 -0.204994,-0.0895 -0.416576,-0.16268 -0.60906,-0.27891 -0.194424,-0.0834 -0.384011,-0.17486 -0.572021,-0.27159 -0.169828,-0.0972 -0.341652,-0.18986 -0.493332,-0.31508 -0.144947,-0.13811 -0.283818,-0.28241 -0.433057,-0.41606 -0.203734,-0.17159 -0.40782,-0.34215 -0.625893,-0.4957 -0.203509,-0.1361 -0.418653,-0.25132 -0.652729,-0.32621 -0.242623,-0.0784 -0.484863,-0.15336 -0.740487,-0.17776 -0.258032,-0.0227 -0.51475,-0.0605 -0.757293,-0.15628 -0.198483,-0.0694 -0.38784,-0.15042 -0.572868,-0.25089 -0.191971,-0.10521 -0.386646,-0.20487 -0.579281,-0.30877 -0.248629,-0.14392 -0.50573,-0.27032 -0.762937,-0.39822 -0.268782,-0.13078 -0.535014,-0.26682 -0.80182,-0.40156 -0.270962,-0.13407 -0.539001,-0.27454 -0.801886,-0.42383 -0.268573,-0.15064 -0.527076,-0.31878 -0.801825,-0.45839 -0.27033,-0.15605 -0.536702,-0.31804 -0.801338,-0.48351 -0.275251,-0.16525 -0.535271,-0.35304 -0.800343,-0.53387 -0.270047,-0.19904 -0.542219,-0.39674 -0.826088,-0.57552 -0.326504,-0.19945 -0.652587,-0.40019 -0.99528,-0.57133 -0.384768,-0.18982 -0.778277,-0.35954 -1.17534,-0.52192 -0.430829,-0.16672 -0.866857,-0.3175 -1.315474,-0.42971 -0.447892,-0.11643 -0.896327,-0.23132 -1.352942,-0.30931 -0.403034,-0.0616 -0.805648,-0.1282 -1.206214,-0.20359 -0.318556,-0.0606 -0.638093,-0.12294 -0.959932,-0.16148 -0.372446,-0.0435 -0.74463,-0.0961 -1.12082,-0.0765 0,0 0.653627,-0.10352 0.653627,-0.10352 z"
       inkscape:connector-curvature="0" />
    <path
       style="opacity:1;fill:#3015e9;fill-opacity:1;fill-rule:nonzero;stroke:#3015e9;stroke-width:1;stroke-linecap:round;stroke-linejoin:round;stroke-miterlimit:4;stroke-dasharray:none;stroke-dashoffset:0;stroke-opacity:1;paint-order:stroke fill markers"
       id="path4519"
       d="m 82.486634,134.00282 c 0.361299,-0.20146 0.697942,-0.43967 1.019458,-0.69901 0.2686,-0.19904 0.511059,-0.43088 0.7528,-0.66108 0.193083,-0.1564 0.365374,-0.33485 0.543976,-0.50686 0.19399,-0.16892 0.388961,-0.3366 0.586081,-0.50191 0.216683,-0.17531 0.438002,-0.34464 0.661741,-0.51087 0.238274,-0.19517 0.489887,-0.37283 0.730391,-0.56517 0.256661,-0.23088 0.531833,-0.43919 0.797718,-0.65904 0.248582,-0.20337 0.49484,-0.4088 0.741318,-0.61483 0.25563,-0.2079 0.484989,-0.44512 0.733912,-0.66042 0.214003,-0.19654 0.425542,-0.39458 0.625557,-0.60545 0.219379,-0.1871 0.413752,-0.3997 0.628846,-0.59137 0.234217,-0.2207 0.496294,-0.40745 0.746238,-0.60924 0.262605,-0.22028 0.539486,-0.42191 0.800582,-0.6442 0.225168,-0.22773 0.461251,-0.44422 0.69279,-0.66537 0.239379,-0.2152 0.471403,-0.43693 0.696349,-0.66733 0.244594,-0.19873 0.464391,-0.42171 0.689827,-0.64089 0.205846,-0.18233 0.392015,-0.38424 0.573072,-0.59073 0.147904,-0.19744 0.309178,-0.38393 0.463298,-0.57642 0.161126,-0.18095 0.334187,-0.35004 0.498991,-0.52748 0.194736,-0.21052 0.396708,-0.41564 0.607851,-0.60983 0.187251,-0.18477 0.375185,-0.3679 0.554509,-0.56051 0.208177,-0.23875 0.444521,-0.44914 0.667006,-0.67378 0.211336,-0.20352 0.453192,-0.37013 0.672521,-0.56412 0.236172,-0.17818 0.455755,-0.37273 0.668504,-0.57767 0.185499,-0.20473 0.39543,-0.3852 0.59712,-0.57348 0.199355,-0.17216 0.403756,-0.33922 0.593614,-0.52198 0.143369,-0.13325 0.285656,-0.26829 0.421136,-0.40967 0.1717,-0.19053 0.33717,-0.38619 0.49684,-0.58687 0.16275,-0.16383 0.3339,-0.31587 0.49159,-0.48558 0.0926,-0.11075 0.0503,-0.0531 0.12739,-0.17274 0,0 0.66088,0.0366 0.66088,0.0366 v 0 c -0.0773,0.13015 -0.0345,0.0681 -0.12851,0.18622 -0.15977,0.16563 -0.31628,0.33093 -0.49206,0.47946 -0.15789,0.20336 -0.3269,0.39735 -0.49521,0.59225 -0.13076,0.14684 -0.27889,0.27837 -0.42223,0.41254 -0.18519,0.18877 -0.39612,0.35137 -0.596461,0.52356 -0.200536,0.18904 -0.411697,0.3683 -0.596398,0.57305 -0.21513,0.20251 -0.425556,0.40878 -0.668462,0.57962 -0.216138,0.19685 -0.457334,0.36188 -0.672785,0.56002 -0.22081,0.22557 -0.459634,0.43208 -0.666117,0.67184 -0.179658,0.19494 -0.367761,0.37918 -0.554985,0.56657 -0.21444,0.18762 -0.411308,0.39654 -0.606634,0.60361 -0.162444,0.17809 -0.334132,0.34637 -0.498155,0.52284 -0.154138,0.19407 -0.318733,0.37886 -0.464658,0.57931 -0.181576,0.20851 -0.36579,0.41433 -0.574231,0.59663 -0.228896,0.21446 -0.437981,0.44894 -0.690293,0.63841 -0.224779,0.23171 -0.45472,0.4564 -0.69687,0.66961 -0.231621,0.22252 -0.470334,0.43797 -0.693584,0.66894 -0.2599,0.22445 -0.536403,0.42678 -0.800319,0.64595 -0.247817,0.20309 -0.511223,0.38641 -0.744633,0.60664 -0.21571,0.18939 -0.40618,0.40307 -0.628296,0.58542 -0.200564,0.21385 -0.412559,0.41353 -0.627628,0.61259 -0.252669,0.21073 -0.477391,0.45279 -0.732542,0.6611 -0.247131,0.20612 -0.493471,0.41182 -0.742987,0.61481 -0.264781,0.22153 -0.542909,0.42633 -0.797382,0.66004 -0.239012,0.19474 -0.492342,0.37003 -0.728745,0.56792 -0.223014,0.1663 -0.445521,0.33225 -0.661358,0.5078 -0.199712,0.15995 -0.387273,0.33455 -0.584488,0.49765 -0.183346,0.16708 -0.346467,0.35592 -0.545833,0.50578 -0.240313,0.23433 -0.487889,0.46542 -0.757129,0.66633 -0.319614,0.2612 -0.653121,0.50465 -1.014534,0.70569 0,0 -0.658389,-0.0649 -0.658389,-0.0649 z"
       inkscape:connector-curvature="0" />
    <path
       style="opacity:1;fill:#3015e9;fill-opacity:1;fill-rule:nonzero;stroke:#3015e9;stroke-width:1;stroke-linecap:round;stroke-linejoin:round;stroke-miterlimit:4;stroke-dasharray:none;stroke-dashoffset:0;stroke-opacity:1;paint-order:stroke fill markers"
       id="path4525"
       d="m 84.758423,186.25401 c 0.35319,-0.19077 0.672857,-0.42726 0.980609,-0.68282 0.201584,-0.17913 0.387303,-0.37411 0.572739,-0.56954 0.177069,-0.19022 0.337944,-0.39448 0.495792,-0.60075 0.199617,-0.23278 0.383013,-0.47965 0.585335,-0.70991 0.196461,-0.23932 0.402151,-0.47036 0.613942,-0.69613 0.237151,-0.27587 0.52071,-0.49876 0.81272,-0.71241 0.316974,-0.24746 0.656159,-0.46336 0.98678,-0.69145 0.331467,-0.21363 0.639167,-0.46022 0.957593,-0.69214 0.321257,-0.21129 0.623956,-0.4482 0.936019,-0.6724 0.28747,-0.20695 0.547166,-0.4479 0.825302,-0.66669 0.230843,-0.19438 0.426693,-0.42457 0.613629,-0.66024 0.179837,-0.22685 0.349224,-0.46214 0.509178,-0.70341 0.182014,-0.26558 0.352657,-0.53843 0.546851,-0.79545 0.209542,-0.28438 0.4669,-0.52161 0.734417,-0.74933 0.25949,-0.23403 0.527807,-0.45619 0.801074,-0.67378 0.263816,-0.22738 0.530598,-0.44997 0.802812,-0.66726 0.23622,-0.17746 0.475639,-0.3511 0.704453,-0.53818 0.235058,-0.18768 0.452488,-0.39535 0.684554,-0.58652 0.2111,-0.16685 0.421952,-0.33357 0.63025,-0.50397 0.162214,-0.14467 0.325639,-0.28656 0.475057,-0.44475 0.150664,-0.15407 0.305313,-0.30367 0.45969,-0.45403 0.196117,-0.18428 0.428061,-0.32422 0.643801,-0.48353 0.1976,-0.15389 0.38349,-0.32105 0.57126,-0.48645 0.17584,-0.15939 0.30577,-0.35707 0.40502,-0.57097 0.0844,-0.23181 0.10039,-0.47804 0.19934,-0.70522 0.0831,-0.20751 0.25864,-0.34279 0.42977,-0.47563 0.2072,-0.14675 0.40303,-0.31064 0.62022,-0.44254 0.2341,-0.14462 0.4777,-0.27395 0.71081,-0.41999 0.24101,-0.12286 0.42562,-0.29692 0.59569,-0.50245 0.14016,-0.17323 0.19531,-0.39228 0.30536,-0.58335 0.0446,-0.0873 0.10805,-0.16226 0.1665,-0.24021 0,0 0.66136,0.0422 0.66136,0.0422 v 0 c -0.0567,0.0776 -0.12362,0.14711 -0.16639,0.23406 -0.12077,0.18936 -0.16741,0.41512 -0.3074,0.59324 -0.17454,0.20751 -0.34643,0.4027 -0.59797,0.52227 -0.22929,0.15258 -0.47878,0.27376 -0.71032,0.42336 -0.22171,0.1213 -0.41206,0.29032 -0.6188,0.43477 -0.16699,0.1204 -0.34286,0.24885 -0.42727,0.44285 -0.10916,0.2234 -0.1161,0.47273 -0.20079,0.7047 -0.0984,0.22316 -0.22936,0.42942 -0.40565,0.59987 -0.1929,0.16127 -0.37378,0.33653 -0.57325,0.49041 -0.21065,0.16271 -0.4444,0.2964 -0.64169,0.47618 -0.15703,0.14586 -0.304377,0.3015 -0.459179,0.44954 -0.146744,0.16474 -0.315064,0.30501 -0.476174,0.45489 -0.212068,0.16582 -0.417163,0.34044 -0.631938,0.50301 -0.233127,0.1903 -0.450935,0.39707 -0.68494,0.58621 -0.227172,0.19005 -0.466527,0.36483 -0.705634,0.53913 -0.271676,0.21808 -0.542403,0.43575 -0.80283,0.66735 -0.272399,0.21801 -0.544335,0.43491 -0.800923,0.67179 -0.265284,0.22476 -0.525701,0.45305 -0.733115,0.73515 -0.195183,0.25463 -0.364334,0.5265 -0.545664,0.79088 -0.158207,0.24403 -0.329321,0.48004 -0.508468,0.70903 -0.186883,0.24139 -0.388141,0.47299 -0.616982,0.67596 -0.279694,0.21833 -0.540851,0.45814 -0.826132,0.6694 -0.312283,0.22386 -0.614887,0.4607 -0.936101,0.67198 -0.319143,0.23173 -0.627362,0.47819 -0.958178,0.69355 -0.329153,0.22968 -0.6716,0.44023 -0.986716,0.68983 -0.289473,0.21138 -0.576353,0.4257 -0.810485,0.70036 -0.211688,0.22503 -0.418076,0.45475 -0.612794,0.69475 -0.206316,0.22429 -0.381801,0.47605 -0.583641,0.70472 -0.158372,0.20813 -0.319585,0.41376 -0.495658,0.6073 -0.184062,0.20073 -0.377332,0.3926 -0.577172,0.57779 -0.309248,0.25376 -0.621671,0.5017 -0.977281,0.6899 0,0 -0.658392,-0.0649 -0.658392,-0.0649 z"
       inkscape:connector-curvature="0" />
    <path
       style="opacity:1;fill:#e915bd;fill-opacity:1;fill-rule:nonzero;stroke:#e915bd;stroke-width:1;stroke-linecap:round;stroke-linejoin:round;stroke-miterlimit:4;stroke-dasharray:none;stroke-dashoffset:0;stroke-opacity:1;paint-order:stroke fill markers"
       id="path4517"
       d="m 81.564773,135.95306 c -0.05296,0.37363 -0.07656,0.74907 -0.1425,1.12078 -0.05867,0.2901 -0.08724,0.58427 -0.101674,0.87948 -0.0076,0.27087 -0.07277,0.53582 -0.105788,0.80441 -0.07185,0.30101 -0.10038,0.60997 -0.161388,0.91262 -0.07209,0.31146 -0.108408,0.62868 -0.128323,0.94721 0.0037,0.31432 -0.02674,0.62238 -0.0753,0.93225 -0.0414,0.30939 -0.05143,0.61971 -0.105828,0.92728 -0.06008,0.29046 -0.08021,0.58593 -0.0921,0.88157 -0.0096,0.31632 -0.0092,0.63282 -0.0089,0.94924 -0.0205,0.32567 0.04338,0.64524 0.08101,0.96698 0.0621,0.37361 0.150754,0.74179 0.220519,1.11381 0.101106,0.37697 0.164341,0.76185 0.243645,1.14362 0.08243,0.40603 0.102687,0.82003 0.115726,1.23298 0.04537,0.41017 0.09329,0.81953 0.117885,1.23159 0.05087,0.40155 0.101851,0.80228 0.170878,1.20105 0.05335,0.40304 0.138838,0.80058 0.191913,1.20368 0.06168,0.39058 0.15276,0.77471 0.230735,1.16203 0.0652,0.37292 0.146728,0.74119 0.192053,1.11753 0.078,0.35372 0.104058,0.71571 0.166257,1.07161 0.05282,0.36332 0.126243,0.72278 0.187034,1.08468 0.05637,0.37251 0.06958,0.7482 0.121904,1.12119 0.05025,0.38838 0.07217,0.77808 0.129183,1.16554 0.04517,0.36455 0.108733,0.72679 0.192106,1.08455 0.08443,0.35067 0.158138,0.70475 0.259545,1.05099 0.08303,0.33333 0.172255,0.66505 0.267944,0.99503 0.08342,0.32187 0.16446,0.64491 0.231616,0.97069 0.06502,0.32224 0.141237,0.63985 0.182536,0.96663 0.03499,0.33061 0.03816,0.66362 0.04007,0.99576 0.0013,0.342 -5.3e-5,0.684 -1.35e-4,1.026 -0.0013,0.33143 -1.6e-5,0.66287 -7.94e-4,0.99431 -0.0059,0.33145 0.01503,0.66381 -0.01609,0.99412 -0.05794,0.35022 -0.06874,0.70605 -0.118849,1.05685 -0.06433,0.35268 -0.09918,0.70883 -0.118475,1.06647 -0.01487,0.33127 -0.01474,0.66294 -0.01479,0.99447 -7.94e-4,0.32252 0.0011,0.64504 5.29e-4,0.96756 5.29e-4,0.32975 -8e-6,0.6595 2.25e-4,0.98925 5.29e-4,0.32281 0.06365,0.64199 0.09703,0.96274 0.0296,0.32349 0.03393,0.64871 0.03629,0.97335 0.0016,0.33526 0.06511,0.66663 0.09765,1.00005 0.0047,0.29926 0.07151,0.59024 0.117297,0.88455 0.01961,0.27169 0.06279,0.53746 0.112731,0.80489 0.04333,0.26691 0.05652,0.53504 0.108715,0.80047 0.05132,0.26659 0.07302,0.53562 0.129553,0.80116 0.06072,0.26517 0.08298,0.53613 0.09587,0.80714 0.0096,0.26768 0.0088,0.53558 0.0087,0.80339 0.0054,0.27145 0.005,0.5391 -0.03909,0.80723 -0.05135,0.26334 -0.07419,0.53038 -0.08705,0.79796 -0.04461,0.26741 -0.09335,0.53323 -0.119028,0.80334 -0.02122,0.26573 -0.0226,0.53247 -0.024,0.79887 -5.29e-4,0.2672 3.5e-5,0.5344 2.65e-4,0.8016 0.0024,0.27124 -0.06353,0.53735 -0.0965,0.80586 -0.04816,0.26671 0.0076,0.52936 0.04395,0.79326 0.0071,0.11703 -0.0092,0.23308 -0.02294,0.34887 0,0 -0.661723,-0.008 -0.661723,-0.008 v 0 c 0.01333,-0.11015 0.02954,-0.22054 0.02426,-0.3319 -0.03726,-0.26946 -0.09237,-0.53805 -0.04398,-0.81035 0.03232,-0.26592 0.09765,-0.52933 0.09639,-0.79776 -2.65e-4,-0.26734 -0.0011,-0.53468 -2.65e-4,-0.80202 0.0013,-0.26836 0.0029,-0.53706 0.02405,-0.80475 0.02529,-0.26912 0.07208,-0.53425 0.118983,-0.80027 0.01288,-0.27013 0.03544,-0.5398 0.08722,-0.80566 0.04427,-0.2645 0.04427,-0.52847 0.0389,-0.79639 7.9e-5,-0.26675 7.93e-4,-0.53361 -0.0087,-0.80023 -0.01283,-0.26749 -0.03521,-0.53485 -0.09557,-0.79649 -0.05611,-0.26593 -0.07767,-0.53545 -0.129606,-0.8022 -0.05166,-0.26566 -0.06485,-0.53409 -0.108744,-0.80102 -0.05021,-0.26801 -0.09202,-0.53474 -0.11254,-0.8069 -0.04601,-0.29547 -0.111239,-0.58796 -0.115761,-0.88837 -0.03243,-0.33535 -0.09738,-0.66848 -0.09763,-1.00583 -0.0035,-0.32259 -0.0065,-0.64571 -0.0368,-0.96716 -0.03322,-0.32303 -0.09757,-0.64434 -0.09667,-0.96952 1.88e-4,-0.32973 -2.65e-4,-0.65947 -2.65e-4,-0.9892 -7.94e-4,-0.32257 -1.93e-4,-0.64514 -0.0011,-0.96771 7.93e-4,-0.33269 0.0011,-0.66556 0.01587,-0.99798 0.02005,-0.35957 0.05407,-0.7177 0.118597,-1.07238 0.05177,-0.34945 0.06024,-0.70455 0.118334,-1.05366 0.03239,-0.32805 0.0088,-0.65853 0.01596,-0.98781 -5.29e-4,-0.33146 0.0011,-0.66293 5.29e-4,-0.9944 7.94e-4,-0.3418 0.0016,-0.6836 5.29e-4,-1.0254 -0.003,-0.32956 -0.0046,-0.65995 -0.04037,-0.98796 -0.04117,-0.32498 -0.119243,-0.64058 -0.182169,-0.96145 -0.06762,-0.32392 -0.147941,-0.64547 -0.231333,-0.96556 -0.09598,-0.32991 -0.183144,-0.66223 -0.267922,-0.99512 -0.09916,-0.34802 -0.175144,-0.70248 -0.258794,-1.05447 -0.08354,-0.35953 -0.1469,-0.72361 -0.191834,-1.08996 -0.0574,-0.38757 -0.07728,-0.77773 -0.129299,-1.16605 -0.05166,-0.3724 -0.06617,-0.74733 -0.121835,-1.11924 -0.06227,-0.36169 -0.134001,-0.72138 -0.187955,-1.08454 -0.06046,-0.35736 -0.08933,-0.71994 -0.166203,-1.07498 -0.04451,-0.37461 -0.126336,-0.74114 -0.191233,-1.11233 -0.07809,-0.38866 -0.168799,-0.77436 -0.229984,-1.16639 -0.05397,-0.40206 -0.138388,-0.79891 -0.191802,-1.20106 -0.07,-0.40105 -0.120488,-0.80441 -0.171016,-1.20838 -0.02527,-0.41261 -0.07312,-0.82256 -0.117411,-1.23344 -0.01355,-0.4092 -0.03378,-0.8195 -0.116679,-1.22168 -0.07896,-0.38217 -0.143968,-0.767 -0.243223,-1.14474 -0.07146,-0.37334 -0.160068,-0.74311 -0.222465,-1.1183 -0.03934,-0.3241 -0.101407,-0.64664 -0.08174,-0.97478 2.46e-4,-0.3173 -0.0013,-0.6347 0.0088,-0.95189 0.01199,-0.29861 0.03008,-0.5973 0.09173,-0.89059 0.0554,-0.30697 0.06632,-0.61669 0.105609,-0.92594 0.04881,-0.30775 0.08087,-0.61348 0.07626,-0.92589 0.01865,-0.32173 0.05705,-0.64173 0.12764,-0.95659 0.06276,-0.30041 0.08899,-0.60809 0.160446,-0.90731 0.03248,-0.26712 0.09723,-0.53046 0.105886,-0.79963 0.01476,-0.29809 0.04369,-0.59519 0.10405,-0.88794 0.06759,-0.37052 0.0943,-0.74465 0.138832,-1.11845 0,0 0.661644,0.009 0.661644,0.009 z"
       inkscape:connector-curvature="0" />
    <path
       style="opacity:1;fill:#3015e9;fill-opacity:1;fill-rule:nonzero;stroke:#3015e9;stroke-width:1;stroke-linecap:round;stroke-linejoin:round;stroke-miterlimit:4;stroke-dasharray:none;stroke-dashoffset:0;stroke-opacity:1;paint-order:stroke fill markers"
       id="path4531"
       d="m 102.69511,117.10587 c -0.004,0.38587 -0.003,0.77177 -0.002,1.15766 0.009,0.33509 -0.016,0.67167 0.0168,1.00552 0.0532,0.30237 0.07,0.60978 0.11881,0.91244 0.0653,0.31465 0.10006,0.63303 0.11836,0.95343 0.0707,0.33915 0.0838,0.67586 0.064,1.02021 -0.0189,0.31974 -0.0267,0.63795 -0.0822,0.95374 -0.0438,0.301 -0.0972,0.59938 -0.15345,0.89833 -0.039,0.30627 -0.11182,0.60614 -0.15855,0.91123 -0.0264,0.32027 -0.0911,0.635 -0.13624,0.95283 -0.0421,0.33951 -0.0487,0.68191 -0.0532,1.02355 -0.004,0.36744 -0.002,0.73491 -0.002,1.10236 -0.0195,0.38763 0.0181,0.77026 0.0608,1.15464 0.0457,0.40174 0.12526,0.79775 0.16555,1.20044 0.067,0.43113 0.11811,0.86379 0.18875,1.29428 0.0786,0.43463 0.0825,0.87698 0.12779,1.31493 0.0622,0.45773 0.0925,0.91808 0.11122,1.37932 0.0144,0.45475 0.014,0.90978 0.015,1.36471 0.034,0.43832 0.0834,0.87495 0.10881,1.31397 0.0626,0.42242 0.0883,0.84984 0.1501,1.27205 0.0662,0.42106 0.10138,0.84511 0.16508,1.26645 0.0605,0.40467 0.0839,0.81235 0.14059,1.21746 0.0411,0.40366 0.12449,0.80074 0.17604,1.20298 0.0788,0.37259 0.13917,0.74755 0.1699,1.12715 0.0247,0.37042 0.0251,0.74189 0.0263,1.11296 8e-5,0.37049 -7.9e-4,0.74098 -7.9e-4,1.11147 0.0345,0.33306 0.0821,0.6643 0.10954,0.99812 0.0166,0.31384 0.0152,0.62535 0.0629,0.93643 0.0538,0.30997 0.0737,0.62432 0.0869,0.93822 0.01,0.31211 0.009,0.62446 0.009,0.93669 0.008,0.27814 -0.0179,0.55812 0.0156,0.83474 0.049,0.30278 0.0827,0.60725 0.10214,0.91327 0.0525,0.32335 0.0999,0.64629 0.12467,0.97305 0.0226,0.35218 -0.0423,0.70325 -0.073,1.05362 -0.0354,0.33768 -0.0165,0.67841 -0.0525,1.01557 -0.0538,0.31166 -0.0855,0.62566 -0.10363,0.94121 0.004,0.30901 -0.057,0.6118 -0.096,0.91698 -0.0384,0.31272 -0.11062,0.61893 -0.1476,0.93231 -0.0343,0.29011 -0.0441,0.57757 -1e-4,0.86628 0.0299,0.27359 0.11413,0.53556 0.16735,0.80471 0.0399,0.23856 0.12057,0.46574 0.15892,0.70526 0.0336,0.25524 0.0355,0.51314 0.038,0.77014 10e-4,0.26713 2.6e-4,0.53427 -1e-4,0.8014 -5.3e-4,0.26742 -5.3e-4,0.53485 -5.3e-4,0.80228 -5e-5,0.26728 -3e-5,0.53457 -3e-5,0.80185 0,0.26727 0,0.53453 0,0.8018 0.002,0.25903 0.0118,0.51514 -0.0375,0.77022 -0.0549,0.23317 -0.0751,0.47151 -0.0873,0.71006 -0.0102,0.26339 -0.01,0.52704 -0.01,0.79058 1.7e-4,0.26751 5.2e-4,0.53501 7.9e-4,0.80252 -0.0198,0.26971 0.0411,0.53228 0.0806,0.79713 0.0188,0.19997 0.0885,0.38964 0.12972,0.58564 0,0 -0.66138,0.0139 -0.66138,0.0139 v 0 c -0.0425,-0.19682 -0.11097,-0.3883 -0.12872,-0.58972 -0.0402,-0.26797 -0.10041,-0.53398 -0.0808,-0.80688 -1.9e-4,-0.26754 -5.3e-4,-0.53507 -7.9e-4,-0.8026 1e-4,-0.26463 -5.3e-4,-0.52937 0.009,-0.79386 0.0119,-0.24167 0.0312,-0.48341 0.0866,-0.71967 0.0507,-0.25068 0.0409,-0.50227 0.0386,-0.7573 0,-0.26727 0,-0.53453 0,-0.8018 -1e-5,-0.26729 -1e-5,-0.53458 3e-5,-0.80186 7e-5,-0.26746 1.8e-4,-0.53492 5.3e-4,-0.80238 5.3e-4,-0.26688 0.001,-0.53376 1e-5,-0.80064 -0.003,-0.25367 -0.005,-0.5083 -0.0387,-0.76012 -0.0394,-0.23813 -0.12058,-0.46477 -0.15788,-0.70295 -0.0541,-0.26992 -0.13772,-0.53321 -0.16722,-0.80784 -0.0437,-0.29466 -0.034,-0.588 10e-4,-0.88386 0.0369,-0.31366 0.1069,-0.62039 0.14752,-0.93296 0.0388,-0.30368 0.099,-0.60506 0.0958,-0.91242 0.0185,-0.31657 0.0485,-0.63207 0.10401,-0.94457 0.0379,-0.33653 0.0165,-0.67703 0.0535,-1.01414 0.0304,-0.34681 0.0941,-0.69428 0.0724,-1.04285 -0.0251,-0.32703 -0.0741,-0.6502 -0.12601,-0.97393 -0.019,-0.30488 -0.0523,-0.60826 -0.1027,-0.90967 -0.032,-0.27944 -0.008,-0.56162 -0.0148,-0.84246 2e-4,-0.31135 7.9e-4,-0.62277 -0.009,-0.93399 -0.0126,-0.31161 -0.0327,-0.62342 -0.0867,-0.93104 -0.0467,-0.31262 -0.0458,-0.62576 -0.0628,-0.94099 -0.0269,-0.33566 -0.0753,-0.66856 -0.10834,-1.00353 7.9e-4,-0.3704 0.002,-0.74081 0.001,-1.11121 -0.001,-0.36934 -0.002,-0.73907 -0.0263,-1.10775 -0.0316,-0.37847 -0.0917,-0.75222 -0.16873,-1.1241 -0.0525,-0.40184 -0.13491,-0.79886 -0.17599,-1.20227 -0.0571,-0.4048 -0.0797,-0.81235 -0.14016,-1.21676 -0.064,-0.42146 -0.0979,-0.8459 -0.16551,-1.2669 -0.0603,-0.42433 -0.0877,-0.85325 -0.14969,-1.27763 -0.0258,-0.44023 -0.0743,-0.87819 -0.1084,-1.31774 8e-5,-0.45408 -5.3e-4,-0.90828 -0.0145,-1.36218 -0.0177,-0.4599 -0.05,-0.91878 -0.11162,-1.37513 -0.0455,-0.43664 -0.0487,-0.87776 -0.12772,-1.31102 -0.0711,-0.4318 -0.12202,-0.86597 -0.18983,-1.29834 -0.0412,-0.40232 -0.12052,-0.79819 -0.16569,-1.19973 -0.0438,-0.38672 -0.0806,-0.77191 -0.0617,-1.16191 -7.9e-4,-0.36778 -0.001,-0.73558 0.001,-1.10336 0.005,-0.34444 0.0112,-0.68951 0.0526,-1.03193 0.0454,-0.31802 0.10983,-0.63301 0.13632,-0.95351 0.0466,-0.30591 0.11826,-0.60666 0.15835,-0.91351 0.0563,-0.29878 0.10933,-0.5968 0.15289,-0.89766 0.0563,-0.31305 0.0649,-0.62861 0.0836,-0.94583 0.0188,-0.34208 0.006,-0.67574 -0.0644,-1.01272 -0.0186,-0.3181 -0.0544,-0.63422 -0.11871,-0.94666 -0.0493,-0.30399 -0.0662,-0.61275 -0.1184,-0.91665 -0.0321,-0.33619 -0.009,-0.67452 -0.0151,-1.01188 2.6e-4,-0.38589 10e-4,-0.77179 -0.002,-1.15766 0,0 0.66178,0 0.66178,0 z"
       inkscape:connector-curvature="0" />
    <path
       style="opacity:1;fill:#3015e9;fill-opacity:1;fill-rule:nonzero;stroke:#3015e9;stroke-width:1;stroke-linecap:round;stroke-linejoin:round;stroke-miterlimit:4;stroke-dasharray:none;stroke-dashoffset:0;stroke-opacity:1;paint-order:stroke fill markers"
       id="path4553"
       d="m 55.024004,166.70358 c -0.144719,0.48464 -0.296561,0.96741 -0.434753,1.45397 -0.126558,0.4984 -0.343971,0.96267 -0.596077,1.40822 -0.214262,0.36706 -0.494011,0.68708 -0.782664,0.99643 -0.277701,0.26713 -0.604514,0.42307 -0.974315,0.51292 -0.42142,0.0813 -0.852408,0.0318 -1.253775,-0.11107 -0.314759,-0.13109 -0.563047,-0.35306 -0.767784,-0.62062 -0.192646,-0.23386 -0.288422,-0.50786 -0.338767,-0.80191 -0.01069,-0.23775 0.03594,-0.4486 0.191547,-0.63026 0.275781,-0.23555 0.611074,-0.18798 0.950294,-0.17652 0.328268,0.0631 0.615894,0.22093 0.90007,0.38877 0.393848,0.24758 0.776727,0.51424 1.188418,0.73148 0.44681,0.23107 0.906889,0.43214 1.364139,0.64103 0.389668,0.16149 0.775623,0.3346 1.174303,0.473 0.04701,0.0206 0.09403,0.0412 0.141039,0.0618 0,0 -0.261983,0.0306 -0.261983,0.0306 v 0 c -0.04676,-0.02 -0.09352,-0.04 -0.140285,-0.06 -0.397626,-0.14104 -0.784132,-0.31234 -1.17299,-0.47555 -0.457666,-0.20855 -0.917422,-0.4111 -1.364266,-0.64261 -0.410787,-0.22003 -0.7947,-0.48568 -1.189707,-0.73247 -0.283456,-0.1658 -0.572002,-0.32108 -0.900131,-0.3771 0.04363,-0.004 0.117306,0.0307 0.130879,-0.0109 0.0131,-0.0401 -0.08454,-0.006 -0.126585,-0.002 -0.155194,0.0133 -0.306951,0.0753 -0.429143,0.16989 -0.156869,0.17198 -0.200557,0.37596 -0.191487,0.60662 0.05024,0.29016 0.146741,0.55908 0.337746,0.78908 0.204989,0.26298 0.45257,0.48042 0.766199,0.60548 0.1613,0.055 0.148423,0.0559 0.316256,0.0916 0.05562,0.0118 0.117393,0.005 0.167714,0.0312 0.02606,0.0137 -0.116818,0.007 -0.08765,0.011 0.125029,0.0173 0.213289,-0.006 0.335005,-0.0253 0.368864,-0.0849 0.694375,-0.23422 0.973212,-0.49752 0.28829,-0.30759 0.568425,-0.6253 0.783349,-0.99019 0.252436,-0.44317 0.470077,-0.90544 0.596387,-1.40193 0.137768,-0.48614 0.290647,-0.96801 0.43163,-1.45323 0,0 0.264176,0.006 0.264176,0.006 z"
       inkscape:connector-curvature="0" />
    <path
       style="opacity:1;fill:#3015e9;fill-opacity:1;fill-rule:nonzero;stroke:#3015e9;stroke-width:1;stroke-linecap:round;stroke-linejoin:round;stroke-miterlimit:4;stroke-dasharray:none;stroke-dashoffset:0;stroke-opacity:1;paint-order:stroke fill markers"
       id="path4555"
       d="m 113.64495,170.11106 c -0.29392,-0.29649 -0.49948,-0.64778 -0.68541,-1.01721 -0.20705,-0.49252 -0.38136,-0.99774 -0.54047,-1.50747 -0.20755,-0.65352 -0.40326,-1.31092 -0.58263,-1.97281 -0.19835,-0.64434 -0.29339,-1.3098 -0.34804,-1.9796 -0.036,-0.50717 -0.0512,-1.01374 -2.6e-4,-1.51984 0.049,-0.3827 0.23605,-0.70592 0.49116,-0.98708 0.19981,-0.17526 0.4018,-0.34772 0.67,-0.39402 0.38916,-0.0403 0.63778,0.0572 0.87513,0.35684 0.15507,0.23788 0.1847,0.50157 0.15701,0.77695 -0.018,0.25625 -0.0765,0.50135 -0.14214,0.74828 -0.0514,0.23311 -0.09,0.47468 -0.065,0.71321 0.0292,0.24483 0.15262,0.44221 0.30868,0.62545 0.20827,0.18029 0.43014,0.34562 0.65222,0.50897 0.22168,0.16181 0.43971,0.33782 0.60062,0.56196 0.15716,0.1756 0.24415,0.37971 0.24954,0.61446 -0.0387,0.30071 -0.25114,0.49204 -0.47771,0.66735 -0.23781,0.16125 -0.51676,0.25052 -0.79106,0.32899 -0.34321,0.0764 -0.72873,0.0967 -1.01476,-0.12963 -0.15302,-0.16718 -0.14811,-0.38726 -0.0993,-0.59625 0.0101,-0.0331 0.0202,-0.0661 0.0303,-0.0992 0,0 0.2648,0.008 0.2648,0.008 v 0 c -0.0101,0.0325 -0.0201,0.065 -0.0302,0.0975 -0.0491,0.19912 -0.0538,0.41017 0.0978,0.56573 0.0911,0.0667 0.10067,0.0853 0.21314,0.11889 0.0436,0.013 0.0893,0.0175 0.13399,0.0263 -0.0422,0.002 -0.16553,-0.01 -0.12668,0.007 0.0525,0.0226 0.22145,-0.022 0.26907,-0.0321 0.27329,-0.0754 0.55084,-0.16425 0.79016,-0.31897 0.22134,-0.16885 0.43561,-0.34966 0.47587,-0.64261 -0.006,-0.23019 -0.0967,-0.42604 -0.2489,-0.59843 -0.16284,-0.2201 -0.37922,-0.39395 -0.59969,-0.554 -0.22192,-0.1659 -0.44827,-0.3282 -0.65276,-0.51505 -0.1576,-0.18804 -0.28037,-0.39216 -0.30977,-0.6413 -0.0238,-0.24185 0.0129,-0.48636 0.0651,-0.72275 0.0652,-0.24571 0.12544,-0.48891 0.14251,-0.74408 0.0274,-0.26877 -0.002,-0.52598 -0.1564,-0.75637 -0.11239,-0.1367 -0.23691,-0.2538 -0.40912,-0.31136 -0.0332,-0.0111 -0.13454,-0.009 -0.10242,-0.0225 0.0497,-0.0214 0.10812,-0.002 0.16219,-0.003 -0.26962,0.031 -0.46833,0.20678 -0.6696,0.37587 -0.25527,0.27427 -0.44135,0.59294 -0.49148,0.97018 -0.0517,0.5044 -0.037,1.00948 -0.002,1.51508 0.054,0.66828 0.14893,1.3321 0.34714,1.97485 0.17927,0.66165 0.37508,1.31879 0.58353,1.97177 0.15965,0.50834 0.33397,1.01235 0.54218,1.50313 0.1854,0.36746 0.39239,0.71614 0.68742,1.00868 0,0 -0.26387,0.0208 -0.26387,0.0208 z"
       inkscape:connector-curvature="0" />
    <path
       style="opacity:1;fill:#e915bd;fill-opacity:1;fill-rule:nonzero;stroke:#e915bd;stroke-width:1;stroke-linecap:round;stroke-linejoin:round;stroke-miterlimit:4;stroke-dasharray:none;stroke-dashoffset:0;stroke-opacity:1;paint-order:stroke fill markers"
       id="path4559"
       d="m 87.430487,152.29161 c 0.16905,-0.4149 0.242441,-0.8559 0.331944,-1.29193 0.0992,-0.45882 0.137202,-0.92652 0.159115,-1.39438 0.0011,-0.44617 -0.08353,-0.88296 -0.15543,-1.321 -0.06123,-0.36234 -0.186996,-0.70486 -0.323569,-1.04395 -0.130966,-0.2348 -0.185798,-0.51268 -0.354968,-0.72459 -0.06587,-0.0376 -0.255018,-0.134 0.158327,-0.0217 0.0141,0.004 -0.03762,-0.0116 -0.104336,0.0988 -0.0093,0.0154 -0.09011,0.19112 -0.093,0.19735 -0.122521,0.28849 -0.189227,0.59515 -0.270232,0.89658 -0.09695,0.4243 -0.167082,0.8556 -0.231415,1.28621 -0.05861,0.45676 -0.02962,0.92397 0.02745,1.37976 0.04889,0.44407 0.15432,0.8782 0.216032,1.32023 0.07804,0.39376 0.138631,0.78997 0.216998,1.18357 0.05789,0.33211 0.148116,0.65778 0.248528,0.97924 0.114417,0.27596 0.252389,0.54664 0.414708,0.79782 0.161052,0.23611 0.375621,0.41486 0.642443,0.51621 0.01497,0.10259 0.241075,-0.0409 0.258868,0.0448 0.0088,0.0422 -0.135742,0.0343 -0.129021,-0.008 0.007,-0.0442 0.08884,-0.0111 0.13312,-0.0177 0.155932,-0.0231 0.114011,-0.0166 0.267575,-0.0579 0.262629,-0.0928 0.498462,-0.23998 0.722705,-0.40267 0.171862,-0.12144 0.314102,-0.27318 0.452212,-0.43022 0,0 0.262935,0.0189 0.262935,0.0189 v 0 c -0.138274,0.15872 -0.279871,0.31288 -0.452268,0.43604 -0.224459,0.1657 -0.461425,0.31362 -0.72372,0.41212 -0.339749,0.0981 -0.710854,0.13626 -1.054725,0.0361 -0.266533,-0.11141 -0.482949,-0.29111 -0.643776,-0.53259 -0.161036,-0.25456 -0.302122,-0.52564 -0.414724,-0.80486 -0.100335,-0.32237 -0.189632,-0.64913 -0.247687,-0.98204 -0.07869,-0.394 -0.138493,-0.79083 -0.216315,-1.18509 -0.06222,-0.44205 -0.167063,-0.87646 -0.215948,-1.32062 -0.05703,-0.45821 -0.08586,-0.92771 -0.02731,-1.38689 0.06402,-0.43161 0.13467,-0.86372 0.230357,-1.28926 0.08151,-0.30264 0.147156,-0.61084 0.268906,-0.9011 0.104648,-0.22789 0.239567,-0.5258 0.567738,-0.28033 0.162488,0.2194 0.225642,0.49288 0.353954,0.73187 0.136848,0.34086 0.261181,0.68575 0.322443,1.04976 0.07236,0.43981 0.156064,0.87856 0.155262,1.32651 -0.02244,0.46918 -0.06015,0.93821 -0.159353,1.39844 -0.08967,0.4364 -0.163023,0.87773 -0.329319,1.29398 0,0 -0.264504,-0.007 -0.264504,-0.007 z"
       inkscape:connector-curvature="0" />
  </g>
</svg>
