<?xml version="1.0" encoding="UTF-8" standalone="no"?>
<!-- Created with Inkscape (http://www.inkscape.org/) -->

<svg
   xmlns:dc="http://purl.org/dc/elements/1.1/"
   xmlns:cc="http://creativecommons.org/ns#"
   xmlns:rdf="http://www.w3.org/1999/02/22-rdf-syntax-ns#"
   xmlns:svg="http://www.w3.org/2000/svg"
   xmlns="http://www.w3.org/2000/svg"
   xmlns:sodipodi="http://sodipodi.sourceforge.net/DTD/sodipodi-0.dtd"
   xmlns:inkscape="http://www.inkscape.org/namespaces/inkscape"
   width="297mm"
   height="210mm"
   viewBox="0 0 297 210"
   version="1.1"
   id="svg8"
   inkscape:version="0.92.1 r15371"
   sodipodi:docname="x0-neighbourhood.svg">
  <defs
     id="defs2">
    <marker
       inkscape:isstock="true"
       style="overflow:visible;"
       id="marker4867"
       refX="0.0"
       refY="0.0"
       orient="auto"
       inkscape:stockid="Arrow1Lend">
      <path
         transform="scale(0.8) rotate(180) translate(12.5,0)"
         style="fill-rule:evenodd;stroke:#000000;stroke-width:1pt;stroke-opacity:1;fill:#000000;fill-opacity:1"
         d="M 0.0,0.0 L 5.0,-5.0 L -12.5,0.0 L 5.0,5.0 L 0.0,0.0 z "
         id="path4865" />
    </marker>
    <marker
       inkscape:stockid="Arrow1Lend"
       orient="auto"
       refY="0.0"
       refX="0.0"
       id="Arrow1Lend"
       style="overflow:visible;"
       inkscape:isstock="true"
       inkscape:collect="always">
      <path
         id="path4520"
         d="M 0.0,0.0 L 5.0,-5.0 L -12.5,0.0 L 5.0,5.0 L 0.0,0.0 z "
         style="fill-rule:evenodd;stroke:#000000;stroke-width:1pt;stroke-opacity:1;fill:#000000;fill-opacity:1"
         transform="scale(0.8) rotate(180) translate(12.5,0)" />
    </marker>
    <marker
       inkscape:stockid="Arrow2Mend"
       orient="auto"
       refY="0.0"
       refX="0.0"
       id="Arrow2Mend"
       style="overflow:visible;"
       inkscape:isstock="true">
      <path
         id="path4544"
         style="fill-rule:evenodd;stroke-width:0.625;stroke-linejoin:round;stroke:#000000;stroke-opacity:1;fill:#000000;fill-opacity:1"
         d="M 8.7185878,4.0337352 L -2.2072895,0.016013256 L 8.7185884,-4.0017078 C 6.9730900,-1.6296469 6.9831476,1.6157441 8.7185878,4.0337352 z "
         transform="scale(0.6) rotate(180) translate(0,0)" />
    </marker>
  </defs>
  <sodipodi:namedview
     id="base"
     pagecolor="#ffffff"
     bordercolor="#666666"
     borderopacity="1.0"
     inkscape:pageopacity="0.0"
     inkscape:pageshadow="2"
     inkscape:zoom="0.98994949"
     inkscape:cx="508.94218"
     inkscape:cy="496.97193"
     inkscape:document-units="mm"
     inkscape:current-layer="layer1"
     showgrid="false"
     inkscape:window-width="1920"
     inkscape:window-height="1046"
     inkscape:window-x="-11"
     inkscape:window-y="-11"
     inkscape:window-maximized="1" />
  <metadata
     id="metadata5">
    <rdf:RDF>
      <cc:Work
         rdf:about="">
        <dc:format>image/svg+xml</dc:format>
        <dc:type
           rdf:resource="http://purl.org/dc/dcmitype/StillImage" />
        <dc:title />
      </cc:Work>
    </rdf:RDF>
  </metadata>
  <g
     inkscape:label="Layer 1"
     inkscape:groupmode="layer"
     id="layer1"
     transform="translate(0,-87)">
    <path
       style="opacity:1;fill:#000000;fill-opacity:1;fill-rule:nonzero;stroke:#000000;stroke-width:0.26458332;stroke-linecap:round;stroke-linejoin:round;stroke-miterlimit:4;stroke-dasharray:none;stroke-dashoffset:0;stroke-opacity:1;paint-order:markers fill stroke"
       id="path4511"
       d="m 76.667636,192.15828 c 0.498207,-0.68514 0.967801,-1.39014 1.483143,-2.06278 0.510759,-0.68146 1.138761,-1.25553 1.732896,-1.86085 0.718923,-0.67334 1.479772,-1.30008 2.233094,-1.93454 0.847511,-0.73094 1.720953,-1.43129 2.590009,-2.13634 1.004639,-0.78252 2.042951,-1.52092 3.118744,-2.20226 1.116436,-0.76743 2.312879,-1.40271 3.529021,-1.99446 1.216604,-0.58927 2.50808,-1.00603 3.772172,-1.48051 1.29128,-0.42893 2.585276,-0.84623 3.906154,-1.17461 1.308191,-0.31981 2.624331,-0.61269 3.946751,-0.86823 1.35286,-0.23645 2.71237,-0.42745 4.07218,-0.61843 1.41176,-0.15049 2.82163,-0.31993 4.23736,-0.43024 1.41358,-0.13655 2.82288,-0.31048 4.23523,-0.4579 1.44805,-0.12806 2.89362,-0.28549 4.33712,-0.45774 1.43832,-0.14462 2.8709,-0.34669 4.29436,-0.59786 1.42521,-0.24583 2.84968,-0.49907 4.26866,-0.77883 1.42314,-0.29156 2.8335,-0.62724 4.22275,-1.05255 1.38584,-0.42529 2.76573,-0.84716 4.11457,-1.37969 1.33741,-0.55137 2.66332,-1.1281 3.9619,-1.76568 1.32642,-0.66376 2.5966,-1.4251 3.86526,-2.19051 1.29227,-0.77731 2.52533,-1.63808 3.73781,-2.53263 1.21276,-0.87698 2.39148,-1.80176 3.54298,-2.7576 1.11021,-0.95086 2.1554,-1.97293 3.24146,-2.95078 1.09072,-0.97384 2.14349,-1.98868 3.18876,-3.01076 0.93086,-0.90058 1.82544,-1.83755 2.69662,-2.79575 0.48603,-0.53828 0.98761,-1.06175 1.46228,-1.61008 0.49516,-0.57121 1.30297,0.12906 0.8078,0.70027 v 0 c -0.48095,0.55409 -0.98648,1.0853 -1.4791,1.62903 -0.88535,0.97358 -1.79441,1.92569 -2.74018,2.84092 -1.05579,1.03232 -2.11922,2.05723 -3.22086,3.04087 -1.09676,0.98743 -2.1517,2.02016 -3.27407,2.97898 -1.16741,0.96849 -2.36172,1.90631 -3.59099,2.79518 -1.2391,0.91419 -2.49987,1.79311 -3.82028,2.58775 -1.29512,0.78122 -2.59219,1.55772 -3.94642,2.2348 -1.32443,0.64994 -2.67636,1.23872 -4.04051,1.80042 -1.37524,0.54253 -2.78144,0.97469 -4.19439,1.40761 -1.42436,0.43509 -2.86976,0.7809 -4.32876,1.07912 -1.4261,0.28073 -2.85749,0.53597 -4.28982,0.78277 -1.44311,0.2538 -2.89506,0.46025 -4.35316,0.60655 -1.44874,0.17287 -2.89959,0.33079 -4.35289,0.4595 -1.42169,0.14815 -2.84025,0.32371 -4.26323,0.46045 -1.39379,0.10821 -2.78165,0.27603 -4.17161,0.42307 -1.34179,0.18834 -2.68325,0.37682 -4.01827,0.60946 -1.3042,0.2513 -2.60191,0.54117 -3.892021,0.85617 -1.281213,0.31681 -2.53483,0.72476 -3.787796,1.13786 -1.232887,0.46266 -2.492791,0.86848 -3.680191,1.44098 -1.180586,0.57405 -2.341935,1.19045 -3.424912,1.93643 -1.040913,0.65832 -2.044464,1.37342 -3.016948,2.12914 -0.863994,0.7009 -1.73242,1.39702 -2.574859,2.12381 -0.727557,0.61276 -1.461889,1.21839 -2.158857,1.86576 -0.563825,0.5743 -1.161442,1.11706 -1.647492,1.76253 -0.501639,0.65339 -0.956312,1.3401 -1.441939,2.0052 -0.419328,0.62899 -1.308854,0.036 -0.889529,-0.59302 z"
       inkscape:connector-curvature="0" />
    <g
       id="g4913">
      <path
         inkscape:connector-curvature="0"
         id="path4515"
         d="M 55.057523,223.50088 V 119.53303"
         style="fill:none;stroke:#000000;stroke-width:0.26458332px;stroke-linecap:butt;stroke-linejoin:miter;stroke-opacity:1;marker-end:url(#marker4867)" />
      <path
         inkscape:connector-curvature="0"
         id="path4805"
         d="M 55.057523,223.50088 H 185.75232"
         style="fill:none;stroke:#000000;stroke-width:0.26458332px;stroke-linecap:butt;stroke-linejoin:miter;stroke-opacity:1;marker-end:url(#Arrow1Lend)" />
    </g>
    <path
       style="opacity:1;fill:#000000;fill-opacity:1;fill-rule:nonzero;stroke:#000000;stroke-width:0.26499999;stroke-linecap:round;stroke-linejoin:round;stroke-miterlimit:4;stroke-dasharray:none;stroke-dashoffset:0;stroke-opacity:1;paint-order:markers fill stroke"
       id="path4919"
       d="m 180.97742,231.63586 c 0.57978,0.71559 1.35898,1.22618 2.11112,1.74157 0.80894,0.53617 1.62516,1.06031 2.4486,1.57372 0.58338,0.41903 1.19505,0.79774 1.78311,1.20927 0.618,0.43537 0.002,1.30935 -0.61571,0.87398 v 0 c -0.5686,-0.40393 -1.16904,-0.76456 -1.73305,-1.17607 -0.8365,-0.5216 -1.6657,-1.05408 -2.48731,-1.59903 -0.83333,-0.57115 -1.68682,-1.14537 -2.32805,-1.93904 -0.48394,-0.58074 0.33734,-1.26514 0.82129,-0.6844 z"
       inkscape:connector-curvature="0" />
    <path
       style="opacity:1;fill:#000000;fill-opacity:1;fill-rule:nonzero;stroke:#000000;stroke-width:0.26499999;stroke-linecap:round;stroke-linejoin:round;stroke-miterlimit:4;stroke-dasharray:none;stroke-dashoffset:0;stroke-opacity:1;paint-order:markers fill stroke"
       id="path4921"
       d="m 186.32827,229.9728 c -0.87022,0.53915 -1.50195,1.29805 -2.05928,2.14039 -0.73977,1.04981 -1.32458,2.19565 -2.01281,3.2769 -0.62041,0.93168 -1.22423,1.87475 -1.87429,2.78621 -0.0965,0.12712 -0.19292,0.25424 -0.28939,0.38137 -0.45725,0.60198 -1.30858,-0.0447 -0.85132,-0.64666 v 0 c 0.0902,-0.11859 0.18034,-0.23716 0.27051,-0.35575 0.63992,-0.89605 1.2324,-1.8246 1.84337,-2.74041 0.6947,-1.08477 1.27668,-2.24054 2.02364,-3.29353 0.65299,-0.97809 1.40257,-1.85677 2.41916,-2.47674 0.65635,-0.37506 1.18676,0.55316 0.53041,0.92822 z"
       inkscape:connector-curvature="0" />
    <path
       style="opacity:1;fill:#000000;fill-opacity:1;fill-rule:nonzero;stroke:#000000;stroke-width:0.26499999;stroke-linecap:round;stroke-linejoin:round;stroke-miterlimit:4;stroke-dasharray:none;stroke-dashoffset:0;stroke-opacity:1;paint-order:markers fill stroke"
       id="path4923"
       d="m 40.410389,116.6063 c 0.268586,0.7509 0.628753,1.46362 1.127858,2.08679 0.317283,0.36548 0.71755,0.73488 1.228127,0.74602 0.385135,-0.0708 0.595082,-0.37034 0.786087,-0.68501 0.211768,-0.41358 0.247555,-0.87751 0.27431,-1.33317 0.0028,-0.0851 0.006,-0.17019 0.0083,-0.2553 0.006,-0.22344 0.0042,-0.32492 0.0049,-0.3249 1.145313,0.0307 1.009608,-0.30831 1.128498,0.21849 0.138512,0.70002 0.325298,1.39143 0.511218,2.08057 0.301998,1.02608 0.632147,2.043 0.960265,3.06097 0.38553,0.98573 0.716862,1.98531 0.932024,3.02193 0.215114,0.943 0.138906,1.87893 -0.04037,2.81711 -0.195528,0.86204 -0.634588,1.6164 -1.19714,2.28676 -0.588877,0.61611 -1.310134,1.03542 -2.115962,1.29181 -0.761286,0.17128 -1.471835,0.0396 -2.184932,-0.23513 -0.700127,-0.3052 -1.108345,-0.83653 -1.334307,-1.54734 -0.159081,-0.95159 0.296238,-1.80981 0.707165,-2.63482 0.632314,-1.11901 1.434425,-2.12973 2.265106,-3.1061 0.846346,-0.96019 1.722392,-1.89303 2.578444,-2.84447 0.120753,-0.13386 0.241503,-0.26771 0.362254,-0.40156 0.506362,-0.5613 1.300162,0.1548 0.7938,0.71611 v 0 c -0.120441,0.1335 -0.240879,0.26701 -0.36132,0.40052 -0.849548,0.94416 -1.718704,1.87006 -2.559151,2.82242 -0.775422,0.91017 -1.524656,1.8514 -2.122445,2.89023 -0.289152,0.57891 -0.649189,1.18918 -0.63832,1.85566 0.09955,0.39898 0.314531,0.67369 0.694637,0.85233 0.485315,0.18879 0.953937,0.30846 1.481497,0.21133 0.614029,-0.18517 1.160486,-0.50638 1.617493,-0.96164 0.44908,-0.52494 0.800645,-1.11936 0.963277,-1.79768 0.154495,-0.80055 0.231407,-1.5933 0.04326,-2.39942 -0.205044,-0.99948 -0.53463,-1.95917 -0.902559,-2.91012 -0.333344,-1.03447 -0.66878,-2.06787 -0.97499,-3.11077 -0.189405,-0.70382 -0.379452,-1.40988 -0.522057,-2.12449 -0.120936,-0.54099 -0.121526,-0.22551 0.983612,-0.4653 7.94e-4,-1.4e-4 -0.0085,0.58439 -0.015,0.65731 -0.03945,0.63696 -0.116705,1.27488 -0.438068,1.84037 -0.429265,0.66116 -0.967766,1.16603 -1.804125,1.17621 -0.801084,-0.1139 -1.44581,-0.51075 -1.952876,-1.14688 -0.548219,-0.70335 -0.974752,-1.48479 -1.271082,-2.32771 -0.297783,-0.69483 0.684853,-1.11596 0.982638,-0.42113 z"
       inkscape:connector-curvature="0" />
    <path
       style="opacity:1;fill:#000000;fill-opacity:1;fill-rule:nonzero;stroke:#000000;stroke-width:0.26499999;stroke-linecap:round;stroke-linejoin:round;stroke-miterlimit:4;stroke-dasharray:none;stroke-dashoffset:0;stroke-opacity:1;paint-order:markers fill stroke"
       id="path4927"
       d="m 118.75218,175.55627 c 0.27867,-0.83334 0.71054,-1.41034 1.49431,-1.81093 0.90287,-0.26313 1.49804,0.0614 1.92892,0.85648 0.25849,0.7235 -0.0147,1.31201 -0.53637,1.81857 -0.55614,0.4335 -1.20272,0.53926 -1.88723,0.485 -0.72746,-0.13848 -1.14625,-0.41071 -1.45335,-1.09338 -0.26599,-0.73294 0.056,-1.34934 0.47751,-1.93577 0.41287,-0.54463 1.0038,-0.75036 1.65309,-0.84993 0.63954,-0.0485 1.16128,0.21826 1.63851,0.61513 0.51216,0.52237 0.47644,1.1772 0.19317,1.79783 -0.25068,0.52886 -0.7372,0.81956 -1.2551,1.04003 -0.5889,0.21872 -1.17852,0.25185 -1.77523,0.0637 -0.62054,-0.20833 -0.88833,-0.71229 -1.0257,-1.31313 -0.067,-0.65163 0.13586,-1.22548 0.51946,-1.74128 0.44986,-0.48651 1.00921,-0.78381 1.65735,-0.89597 0.66353,-0.0516 1.16626,0.23439 1.51311,0.78382 0.26095,0.54684 0.20807,1.1162 0.0306,1.67545 -0.17985,0.5228 -0.52932,0.94888 -0.95954,1.28484 -0.62055,0.36733 -1.14783,0.39736 -1.76215,0.0188 -0.50964,-0.50953 -0.52884,-1.16483 -0.36118,-1.82492 0.26864,-0.68904 0.78831,-1.13121 1.48257,-1.34712 0.77734,-0.14131 1.3425,0.26233 1.67019,0.93746 0.19822,0.76932 -0.0761,1.40739 -0.59685,1.96585 -0.54139,0.4796 -1.15022,0.52312 -1.78037,0.21671 -0.60023,-0.45578 -0.63974,-1.08741 -0.33772,-1.72856 0.35912,-0.66521 1.29986,-0.15733 0.94074,0.50787 v 0 c -0.0854,0.0846 -0.11432,0.17639 -0.0854,0.28527 0.14254,0.15747 0.34682,0.0861 0.49768,-0.028 0.24494,-0.22832 0.36477,-0.457 0.38116,-0.7937 -0.0548,-0.20422 -0.18261,-0.35292 -0.41195,-0.33046 -0.33896,0.0462 -0.57651,0.32162 -0.73185,0.60754 -0.083,0.22735 -0.0785,0.43883 -0.0365,0.66867 -0.0397,0.121 0.45781,0.0814 0.49457,-0.0139 0.27583,-0.18046 0.47235,-0.47328 0.58709,-0.77811 0.10884,-0.24947 0.13118,-0.53681 0.0494,-0.79558 -0.0613,-0.19367 -0.24057,-0.2549 -0.43426,-0.25331 -0.37341,0.0208 -0.68451,0.25529 -0.95953,0.48954 -0.20771,0.25262 -0.31291,0.53544 -0.32122,0.86518 0.0479,0.25445 0.067,0.44433 0.34062,0.53053 0.3117,0.16166 0.69096,0.0382 1.00737,-0.0455 0.28579,-0.11161 0.57408,-0.24443 0.70891,-0.53466 0.10241,-0.14249 0.171,-0.36084 0.0619,-0.50572 -0.22716,-0.21193 -0.46758,-0.35658 -0.78462,-0.36652 -0.3607,0.0495 -0.70188,0.11582 -0.94074,0.41693 -0.19548,0.2708 -0.46104,0.54538 -0.35645,0.90404 0.0876,0.28511 0.26617,0.3636 0.55717,0.43527 0.37875,0.037 0.7416,0.0136 1.06985,-0.20563 0.18892,-0.15504 0.32812,-0.29712 0.30519,-0.55465 -0.094,-0.23818 -0.22125,-0.4124 -0.5073,-0.37226 -0.49352,0.21255 -0.758,0.64408 -0.93183,1.1422 -0.20768,0.72686 -1.23562,0.43317 -1.02794,-0.2937 z"
       inkscape:connector-curvature="0" />
    <path
       style="opacity:1;fill:#000000;fill-opacity:1;fill-rule:nonzero;stroke:#000000;stroke-width:0.26499999;stroke-linecap:round;stroke-linejoin:round;stroke-miterlimit:4;stroke-dasharray:none;stroke-dashoffset:0;stroke-opacity:1;paint-order:markers fill stroke"
       id="path4937"
       d="m 121.07309,179.89247 c 0,0.74641 0,1.49281 0,2.23922 0,0.21196 0,0.42391 0,0.63586 0,0.75595 -1.06907,0.75595 -1.06907,0 v 0 c 0,-0.21195 0,-0.4239 0,-0.63586 0,-0.74641 0,-1.49281 0,-2.23922 0,-0.75595 1.06907,-0.75595 1.06907,0 z"
       inkscape:connector-curvature="0" />
    <path
       style="opacity:1;fill:#000000;fill-opacity:1;fill-rule:nonzero;stroke:#000000;stroke-width:0.26499999;stroke-linecap:round;stroke-linejoin:round;stroke-miterlimit:4;stroke-dasharray:none;stroke-dashoffset:0;stroke-opacity:1;paint-order:markers fill stroke"
       id="path4939"
       d="m 121.03575,187.18434 c -0.0168,0.47871 -0.004,0.95782 0.005,1.43654 0.0141,0.75582 -1.0548,0.77574 -1.06889,0.0199 v 0 c -0.01,-0.5357 -0.0272,-1.07239 0.006,-1.60765 0.1069,-0.74835 1.16524,-0.59716 1.05833,0.15119 z"
       inkscape:connector-curvature="0" />
    <path
       style="opacity:1;fill:#000000;fill-opacity:1;fill-rule:nonzero;stroke:#000000;stroke-width:0.26499999;stroke-linecap:round;stroke-linejoin:round;stroke-miterlimit:4;stroke-dasharray:none;stroke-dashoffset:0;stroke-opacity:1;paint-order:markers fill stroke"
       id="path4941"
       d="m 120.56515,193.71489 c 0.13076,0.72651 0.11402,1.47247 0.2359,2.19861 0.11913,0.74651 -0.93659,0.91498 -1.05572,0.16848 v 0 c -0.11272,-0.73428 -0.11842,-1.48156 -0.23851,-2.2159 -0.10691,-0.74835 0.95142,-0.89954 1.05833,-0.15119 z"
       inkscape:connector-curvature="0" />
    <path
       style="opacity:1;fill:#000000;fill-opacity:1;fill-rule:nonzero;stroke:#000000;stroke-width:0.26499999;stroke-linecap:round;stroke-linejoin:round;stroke-miterlimit:4;stroke-dasharray:none;stroke-dashoffset:0;stroke-opacity:1;paint-order:markers fill stroke"
       id="path4943"
       d="m 120.80582,199.67042 c 0,0.37742 0,0.75483 0,1.13225 0,0.75596 -1.06907,0.75596 -1.06907,0 v 0 c 0,-0.37742 0,-0.75483 0,-1.13225 0,-0.75596 1.06907,-0.75596 1.06907,0 z"
       inkscape:connector-curvature="0" />
    <path
       style="opacity:1;fill:#000000;fill-opacity:1;fill-rule:nonzero;stroke:#000000;stroke-width:0.26499999;stroke-linecap:round;stroke-linejoin:round;stroke-miterlimit:4;stroke-dasharray:none;stroke-dashoffset:0;stroke-opacity:1;paint-order:markers fill stroke"
       id="path4945"
       d="m 121.07309,203.94673 c -0.0715,0.75967 -0.16527,1.51656 -0.22022,2.27781 -0.0224,0.40022 -0.026,0.21221 0.001,0.56416 0.0468,0.7545 -1.0202,0.82072 -1.06703,0.0662 v 0 c -0.0252,-0.48409 -0.0264,-0.24824 -5.3e-4,-0.70756 0.0534,-0.73551 0.13648,-1.46776 0.21744,-2.20063 0,-0.75595 1.06908,-0.75595 1.06908,0 z"
       inkscape:connector-curvature="0" />
    <path
       style="opacity:1;fill:#000000;fill-opacity:1;fill-rule:nonzero;stroke:#000000;stroke-width:0.26499999;stroke-linecap:round;stroke-linejoin:round;stroke-miterlimit:4;stroke-dasharray:none;stroke-dashoffset:0;stroke-opacity:1;paint-order:markers fill stroke"
       id="path4947"
       d="m 120.76848,210.43679 c -0.0196,0.71763 0.005,1.43565 0.0189,2.1532 0.0147,0.75581 -1.05413,0.77667 -1.06888,0.0208 v 0 c -0.0151,-0.77478 -0.0468,-1.55081 -0.008,-2.32525 0.10691,-0.74835 1.16524,-0.59716 1.05833,0.15119 z"
       inkscape:connector-curvature="0" />
    <path
       style="opacity:1;fill:#000000;fill-opacity:1;fill-rule:nonzero;stroke:#000000;stroke-width:0.26499999;stroke-linecap:round;stroke-linejoin:round;stroke-miterlimit:4;stroke-dasharray:none;stroke-dashoffset:0;stroke-opacity:1;paint-order:markers fill stroke"
       id="path4949"
       d="m 121.30302,216.04945 c -0.0701,0.49513 -0.11652,0.99301 -0.15821,1.49117 -0.0632,0.75331 -1.12851,0.66397 -1.06534,-0.0893 v 0 c 0.0436,-0.51883 0.092,-1.03736 0.16522,-1.55302 0.10691,-0.74835 1.16524,-0.59716 1.05833,0.15119 z"
       inkscape:connector-curvature="0" />
    <path
       style="opacity:1;fill:#000000;fill-opacity:1;fill-rule:nonzero;stroke:#000000;stroke-width:0.26499999;stroke-linecap:round;stroke-linejoin:round;stroke-miterlimit:4;stroke-dasharray:none;stroke-dashoffset:0;stroke-opacity:1;paint-order:markers fill stroke"
       id="path4951"
       d="m 121.07309,221.85379 c 0.002,0.69826 -0.0319,1.39396 0.0705,2.08615 0.0146,0.0915 0.0292,0.18301 0.0438,0.27451 0.11906,0.74652 -0.93668,0.9149 -1.05574,0.16838 v 0 c -0.0153,-0.0963 -0.0307,-0.19263 -0.046,-0.28895 -0.10672,-0.74392 -0.0863,-1.48993 -0.0817,-2.24009 0,-0.75595 1.06907,-0.75595 1.06907,0 z"
       inkscape:connector-curvature="0" />
    <path
       style="opacity:1;fill:#000000;fill-opacity:1;fill-rule:nonzero;stroke:#000000;stroke-width:0.26499999;stroke-linecap:round;stroke-linejoin:round;stroke-miterlimit:4;stroke-dasharray:none;stroke-dashoffset:0;stroke-opacity:1;paint-order:markers fill stroke"
       id="path4957"
       d="m 118.97089,230.56678 c 0.54872,0.67998 1.15819,1.30302 1.76827,1.9263 0.44288,0.5214 0.96627,0.95814 1.45653,1.43071 0.40711,0.32531 0.75101,0.71749 1.12886,1.07354 0.2089,0.22765 0.10964,0.12931 0.29287,0.29988 0.54861,0.52009 -0.18692,1.29594 -0.73552,0.77584 v 0 c -0.21984,-0.21099 -0.12288,-0.10918 -0.29476,-0.30166 -0.37694,-0.36202 -0.7287,-0.74964 -1.13567,-1.0801 -0.49355,-0.48212 -1.02913,-0.92085 -1.47655,-1.45063 -0.62952,-0.64397 -1.25862,-1.28755 -1.82532,-1.98948 -0.48394,-0.58074 0.33735,-1.26514 0.82129,-0.6844 z"
       inkscape:connector-curvature="0" />
    <path
       style="opacity:1;fill:#000000;fill-opacity:1;fill-rule:nonzero;stroke:#000000;stroke-width:0.26499999;stroke-linecap:round;stroke-linejoin:round;stroke-miterlimit:4;stroke-dasharray:none;stroke-dashoffset:0;stroke-opacity:1;paint-order:markers fill stroke"
       id="path4959"
       d="m 122.62757,230.98772 c -0.51457,0.60726 -1.05953,1.18816 -1.52104,1.83768 -0.4215,0.67233 -0.94632,1.26721 -1.42888,1.89361 -0.41909,0.49133 -0.75074,1.04428 -1.11724,1.57281 -0.0247,0.0527 -0.0494,0.10536 -0.0741,0.15805 -0.3414,0.67447 -1.29524,0.19165 -0.95384,-0.48282 v 0 c 0.0504,-0.0957 0.10085,-0.19142 0.15127,-0.28713 0.37991,-0.53982 0.71581,-1.11146 1.14786,-1.61449 0.47608,-0.61473 0.99006,-1.201 1.4051,-1.86162 0.49898,-0.69482 1.07555,-1.32574 1.63489,-1.97204 0.53453,-0.53455 1.29049,0.22141 0.75595,0.75595 z"
       inkscape:connector-curvature="0" />
    <path
       style="opacity:1;fill:#000000;fill-opacity:1;fill-rule:nonzero;stroke:#000000;stroke-width:0.26499999;stroke-linecap:round;stroke-linejoin:round;stroke-miterlimit:4;stroke-dasharray:none;stroke-dashoffset:0;stroke-opacity:1;paint-order:markers fill stroke"
       id="path4967"
       d="m 126.41848,235.7518 c 0.0161,0.59076 0.0251,1.22 0.26317,1.77003 0.19335,0.29011 0.27833,0.28519 0.55666,0.20066 0.19085,-0.1545 0.32985,-0.35094 0.40846,-0.58559 -0.001,-0.26167 -0.0808,-0.4803 -0.20213,-0.70885 -0.18873,-0.27648 -0.37559,-0.44987 -0.69484,-0.54333 -0.22677,-0.0433 -0.51255,-0.13617 -0.69325,0.056 -0.64408,0.39576 -1.20377,-0.5151 -0.55969,-0.91086 v 0 c 0.51857,-0.28051 1.02162,-0.33757 1.59122,-0.15928 0.5775,0.20448 0.99574,0.54668 1.31113,1.07608 0.24473,0.50015 0.38957,1.01537 0.24616,1.572 -0.22431,0.55392 -0.58184,1.01847 -1.15482,1.24273 -0.83983,0.18279 -1.38525,-0.0894 -1.8008,-0.84074 -0.26505,-0.68943 -0.34224,-1.43238 -0.34034,-2.16884 0,-0.75595 1.06907,-0.75595 1.06907,0 z"
       inkscape:connector-curvature="0" />
    <path
       style="opacity:1;fill:#000000;fill-opacity:1;fill-rule:nonzero;stroke:#000000;stroke-width:0.26499999;stroke-linecap:round;stroke-linejoin:round;stroke-miterlimit:4;stroke-dasharray:none;stroke-dashoffset:0;stroke-opacity:1;paint-order:markers fill stroke"
       id="path4969"
       d="m 96.667059,180.30659 c -0.198313,0.70284 -0.316693,1.42338 -0.392855,2.14858 -0.05379,0.34313 0.0195,0.68111 0.03263,1.02406 0.02148,0.75564 -1.047168,0.78602 -1.068647,0.0304 v 0 c -0.0049,-0.38928 -0.103447,-0.7766 -0.02713,-1.16685 0.08367,-0.78637 0.212275,-1.56781 0.428064,-2.32986 0.207677,-0.72686 1.23562,-0.43317 1.027943,0.2937 z"
       inkscape:connector-curvature="0" />
    <path
       style="opacity:1;fill:#000000;fill-opacity:1;fill-rule:nonzero;stroke:#000000;stroke-width:0.26499999;stroke-linecap:round;stroke-linejoin:round;stroke-miterlimit:4;stroke-dasharray:none;stroke-dashoffset:0;stroke-opacity:1;paint-order:markers fill stroke"
       id="path4971"
       d="m 95.976357,186.49861 c 0.127457,0.72805 0.266941,1.44144 0.283144,2.18296 0.01532,0.7558 -1.05355,0.77745 -1.068859,0.0216 v 0 c -0.01286,-0.69834 -0.158673,-1.36661 -0.272619,-2.05342 -0.106907,-0.74836 0.951426,-0.89955 1.058334,-0.15119 z"
       inkscape:connector-curvature="0" />
    <path
       style="opacity:1;fill:#000000;fill-opacity:1;fill-rule:nonzero;stroke:#000000;stroke-width:0.26499999;stroke-linecap:round;stroke-linejoin:round;stroke-miterlimit:4;stroke-dasharray:none;stroke-dashoffset:0;stroke-opacity:1;paint-order:markers fill stroke"
       id="path4973"
       d="m 96.243626,191.844 c 0.119036,0.78284 0.189912,1.56405 0.133037,2.35435 -0.01109,0.11317 -0.02217,0.22633 -0.03326,0.3395 -0.07405,0.75231 -1.137983,0.6476 -1.063937,-0.10472 v 0 c 0.01035,-0.10461 0.02069,-0.20923 0.03105,-0.31384 0.05474,-0.71309 -0.02101,-1.41733 -0.125222,-2.12409 -0.106907,-0.74836 0.951426,-0.89955 1.058334,-0.1512 z"
       inkscape:connector-curvature="0" />
    <path
       style="opacity:1;fill:#000000;fill-opacity:1;fill-rule:nonzero;stroke:#000000;stroke-width:0.26499999;stroke-linecap:round;stroke-linejoin:round;stroke-miterlimit:4;stroke-dasharray:none;stroke-dashoffset:0;stroke-opacity:1;paint-order:markers fill stroke"
       id="path4975"
       d="m 96.21703,198.60134 c 0.03422,0.61988 -0.04143,1.23177 -0.126077,1.84403 -0.103595,0.74882 -1.162587,0.60232 -1.058992,-0.1465 v 0 c 0.07809,-0.56407 0.151397,-1.1261 0.115991,-1.69753 0,-0.75595 1.069078,-0.75595 1.069078,0 z"
       inkscape:connector-curvature="0" />
    <path
       style="opacity:1;fill:#000000;fill-opacity:1;fill-rule:nonzero;stroke:#000000;stroke-width:0.26499999;stroke-linecap:round;stroke-linejoin:round;stroke-miterlimit:4;stroke-dasharray:none;stroke-dashoffset:0;stroke-opacity:1;paint-order:markers fill stroke"
       id="path4977"
       d="m 96.21703,203.94673 c 0.0084,0.70475 -0.124079,1.40143 -0.196546,2.10077 -0.0781,0.7519 -1.141463,0.64144 -1.063358,-0.11046 v 0 c 0.069,-0.66267 0.194956,-1.32296 0.190826,-1.99031 0,-0.75595 1.069078,-0.75595 1.069078,0 z"
       inkscape:connector-curvature="0" />
    <path
       style="opacity:1;fill:#000000;fill-opacity:1;fill-rule:nonzero;stroke:#000000;stroke-width:0.26499999;stroke-linecap:round;stroke-linejoin:round;stroke-miterlimit:4;stroke-dasharray:none;stroke-dashoffset:0;stroke-opacity:1;paint-order:markers fill stroke"
       id="path4979"
       d="m 96.243626,209.75106 c 0.07318,0.51566 0.121621,1.03419 0.165216,1.55302 0.06317,0.75331 -1.002165,0.84265 -1.065337,0.0893 v 0 c -0.04169,-0.49816 -0.08809,-0.99604 -0.158213,-1.49117 -0.106907,-0.74835 0.951426,-0.89954 1.058334,-0.15119 z"
       inkscape:connector-curvature="0" />
    <path
       style="opacity:1;fill:#000000;fill-opacity:1;fill-rule:nonzero;stroke:#000000;stroke-width:0.26499999;stroke-linecap:round;stroke-linejoin:round;stroke-miterlimit:4;stroke-dasharray:none;stroke-dashoffset:0;stroke-opacity:1;paint-order:markers fill stroke"
       id="path4981"
       d="m 96.21703,215.17205 c 0.02762,0.71627 -0.05051,1.44015 0.02924,2.15335 0.07623,0.7521 -0.987404,0.8599 -1.06363,0.1078 v 0 c -0.07056,-0.75117 -0.01961,-1.50744 -0.03469,-2.26115 0,-0.75595 1.069078,-0.75595 1.069078,0 z"
       inkscape:connector-curvature="0" />
    <path
       style="opacity:1;fill:#000000;fill-opacity:1;fill-rule:nonzero;stroke:#000000;stroke-width:0.26499999;stroke-linecap:round;stroke-linejoin:round;stroke-miterlimit:4;stroke-dasharray:none;stroke-dashoffset:0;stroke-opacity:1;paint-order:markers fill stroke"
       id="path5005"
       d="m 145.15395,168.59156 c 0.13075,0.72651 0.11402,1.47246 0.23589,2.19861 0.0177,0.0871 0.0354,0.17414 0.0531,0.26122 0.14927,0.74106 -0.89875,0.95217 -1.04803,0.2111 v 0 c -0.0202,-0.10128 -0.0405,-0.20257 -0.0608,-0.30385 -0.11272,-0.73428 -0.11841,-1.48156 -0.2385,-2.21589 -0.10691,-0.74836 0.95142,-0.89955 1.05833,-0.15119 z"
       inkscape:connector-curvature="0" />
    <path
       style="opacity:1;fill:#000000;fill-opacity:1;fill-rule:nonzero;stroke:#000000;stroke-width:0.26499999;stroke-linecap:round;stroke-linejoin:round;stroke-miterlimit:4;stroke-dasharray:none;stroke-dashoffset:0;stroke-opacity:1;paint-order:markers fill stroke"
       id="path5007"
       d="m 144.86008,174.01254 c -0.004,0.66735 0.12183,1.32765 0.19083,1.99031 0.0781,0.75191 -0.98526,0.86236 -1.06336,0.11046 v 0 c -0.0725,-0.69934 -0.20499,-1.39601 -0.19655,-2.10077 0,-0.75595 1.06908,-0.75595 1.06908,0 z"
       inkscape:connector-curvature="0" />
    <path
       style="opacity:1;fill:#000000;fill-opacity:1;fill-rule:nonzero;stroke:#000000;stroke-width:0.26499999;stroke-linecap:round;stroke-linejoin:round;stroke-miterlimit:4;stroke-dasharray:none;stroke-dashoffset:0;stroke-opacity:1;paint-order:markers fill stroke"
       id="path5009"
       d="m 145.12735,179.35793 c 0,0.74641 0,1.49282 0,2.23923 0.0222,0.24082 0.07,0.47815 0.11264,0.71588 0.13346,0.74408 -0.91882,0.93282 -1.05229,0.18875 v 0 c -0.0537,-0.2999 -0.11348,-0.59951 -0.12943,-0.90463 0,-0.74641 0,-1.49282 0,-2.23923 0,-0.75595 1.06908,-0.75595 1.06908,0 z"
       inkscape:connector-curvature="0" />
    <path
       style="opacity:1;fill:#000000;fill-opacity:1;fill-rule:nonzero;stroke:#000000;stroke-width:0.26499999;stroke-linecap:round;stroke-linejoin:round;stroke-miterlimit:4;stroke-dasharray:none;stroke-dashoffset:0;stroke-opacity:1;paint-order:markers fill stroke"
       id="path5011"
       d="m 145.39462,185.50513 c 0.002,0.69826 -0.0319,1.39396 0.0705,2.08615 0.10885,0.74808 -0.94908,0.90202 -1.05793,0.15395 v 0 c -0.10673,-0.74393 -0.0863,-1.48993 -0.0817,-2.2401 0,-0.75595 1.06908,-0.75595 1.06908,0 z"
       inkscape:connector-curvature="0" />
    <path
       style="opacity:1;fill:#000000;fill-opacity:1;fill-rule:nonzero;stroke:#000000;stroke-width:0.26499999;stroke-linecap:round;stroke-linejoin:round;stroke-miterlimit:4;stroke-dasharray:none;stroke-dashoffset:0;stroke-opacity:1;paint-order:markers fill stroke"
       id="path5013"
       d="m 145.39462,192.45414 c 0,0.6306 0,1.26121 0,1.89181 0,0.75596 -1.06908,0.75596 -1.06908,0 v 0 c 0,-0.6306 0,-1.26121 0,-1.89181 0,-0.75595 1.06908,-0.75595 1.06908,0 z"
       inkscape:connector-curvature="0" />
    <path
       style="opacity:1;fill:#000000;fill-opacity:1;fill-rule:nonzero;stroke:#000000;stroke-width:0.26499999;stroke-linecap:round;stroke-linejoin:round;stroke-miterlimit:4;stroke-dasharray:none;stroke-dashoffset:0;stroke-opacity:1;paint-order:markers fill stroke"
       id="path5015"
       d="m 145.68849,198.52574 c 0.0908,0.64085 0.14698,1.28564 0.191,1.93114 0.0513,0.75421 -1.01531,0.82676 -1.06661,0.0725 v 0 c -0.042,-0.61922 -0.0958,-1.23774 -0.18273,-1.8525 -0.1069,-0.74835 0.95143,-0.89954 1.05834,-0.15119 z"
       inkscape:connector-curvature="0" />
    <path
       style="opacity:1;fill:#000000;fill-opacity:1;fill-rule:nonzero;stroke:#000000;stroke-width:0.26499999;stroke-linecap:round;stroke-linejoin:round;stroke-miterlimit:4;stroke-dasharray:none;stroke-dashoffset:0;stroke-opacity:1;paint-order:markers fill stroke"
       id="path5017"
       d="m 145.68849,204.40567 c 0.0908,0.64085 0.14698,1.28564 0.191,1.93114 0.0513,0.75421 -1.01531,0.82676 -1.06661,0.0725 v 0 c -0.042,-0.61922 -0.0958,-1.23774 -0.18273,-1.8525 -0.1069,-0.74835 0.95143,-0.89954 1.05834,-0.15119 z"
       inkscape:connector-curvature="0" />
    <path
       style="opacity:1;fill:#000000;fill-opacity:1;fill-rule:nonzero;stroke:#000000;stroke-width:0.26499999;stroke-linecap:round;stroke-linejoin:round;stroke-miterlimit:4;stroke-dasharray:none;stroke-dashoffset:0;stroke-opacity:1;paint-order:markers fill stroke"
       id="path5019"
       d="m 145.95576,209.75106 c 0.0546,0.3837 0.0933,0.76928 0.13175,1.15482 0.075,0.75222 -0.98879,0.85829 -1.0638,0.10607 v 0 c -0.0369,-0.37047 -0.0739,-0.74099 -0.12628,-1.1097 -0.10691,-0.74835 0.95142,-0.89954 1.05833,-0.15119 z"
       inkscape:connector-curvature="0" />
    <path
       style="opacity:1;fill:#000000;fill-opacity:1;fill-rule:nonzero;stroke:#000000;stroke-width:0.26499999;stroke-linecap:round;stroke-linejoin:round;stroke-miterlimit:4;stroke-dasharray:none;stroke-dashoffset:0;stroke-opacity:1;paint-order:markers fill stroke"
       id="path5021"
       d="m 145.92916,214.63751 c 0,0.6306 0,1.26121 0,1.89181 0,0.75596 -1.06908,0.75596 -1.06908,0 v 0 c 0,-0.6306 0,-1.26121 0,-1.89181 0,-0.75595 1.06908,-0.75595 1.06908,0 z"
       inkscape:connector-curvature="0" />
    <path
       style="opacity:1;fill:#000000;fill-opacity:1;fill-rule:nonzero;stroke:#000000;stroke-width:0.26499999;stroke-linecap:round;stroke-linejoin:round;stroke-miterlimit:4;stroke-dasharray:none;stroke-dashoffset:0;stroke-opacity:1;paint-order:markers fill stroke"
       id="path5037"
       d="m 96.179686,221.66211 c -0.0774,0.71082 -0.203919,1.42603 -0.168296,2.14272 0.0098,0.0988 0.01955,0.19767 0.02931,0.29651 0.07222,0.7525 -0.99197,0.85463 -1.064188,0.10213 v 0 c -0.01114,-0.11894 -0.02225,-0.23788 -0.03339,-0.35682 -0.02471,-0.78238 0.08021,-1.56046 0.178223,-2.33573 0.106908,-0.74835 1.165241,-0.59716 1.058333,0.15119 z"
       inkscape:connector-curvature="0" />
    <path
       style="opacity:1;fill:#000000;fill-opacity:1;fill-rule:nonzero;stroke:#000000;stroke-width:0.26499999;stroke-linecap:round;stroke-linejoin:round;stroke-miterlimit:4;stroke-dasharray:none;stroke-dashoffset:0;stroke-opacity:1;paint-order:markers fill stroke"
       id="path5039"
       d="m 146.19643,221.05198 c 0.0276,0.71627 -0.0505,1.44014 0.0293,2.15335 0.058,0.27918 0.0863,0.55517 0.0995,0.83947 0.0236,0.75558 -1.04493,0.78899 -1.06856,0.0334 v 0 c -0.001,-0.25985 -0.0567,-0.50812 -0.0946,-0.76508 -0.0706,-0.75117 -0.0196,-1.50744 -0.0347,-2.26115 0,-0.75595 1.06908,-0.75595 1.06908,0 z"
       inkscape:connector-curvature="0" />
    <path
       style="opacity:1;fill:#000000;fill-opacity:1;fill-rule:nonzero;stroke:#000000;stroke-width:0.26499999;stroke-linecap:round;stroke-linejoin:round;stroke-miterlimit:4;stroke-dasharray:none;stroke-dashoffset:0;stroke-opacity:1;paint-order:markers fill stroke"
       id="path5041"
       d="m 79.415004,228.96316 c 0.509098,0.69379 1.045194,1.36623 1.554178,2.06001 0.465143,0.65562 0.969243,1.2821 1.44729,1.92784 0.334859,0.48722 0.678455,0.96594 1.033438,1.43832 0.164569,0.15262 0.286441,0.33653 0.408464,0.52274 0.404138,0.63885 -0.49934,1.21039 -0.903478,0.57154 v 0 c -0.09906,-0.16839 -0.223864,-0.31272 -0.360513,-0.45319 -0.355026,-0.47537 -0.702678,-0.95436 -1.037797,-1.44418 -0.477316,-0.64765 -0.984252,-1.27366 -1.449392,-1.93069 -0.495956,-0.67605 -1.019297,-1.33052 -1.513478,-2.00798 -0.483949,-0.58074 0.337339,-1.26515 0.821288,-0.68441 z"
       inkscape:connector-curvature="0" />
    <path
       style="opacity:1;fill:#000000;fill-opacity:1;fill-rule:nonzero;stroke:#000000;stroke-width:0.26499999;stroke-linecap:round;stroke-linejoin:round;stroke-miterlimit:4;stroke-dasharray:none;stroke-dashoffset:0;stroke-opacity:1;paint-order:markers fill stroke"
       id="path5043"
       d="m 83.371615,229.3803 c -0.622258,0.6614 -1.157825,1.38388 -1.682639,2.12245 -0.462801,0.6053 -0.814755,1.2854 -1.191056,1.94577 -0.251145,0.43101 -0.49965,0.8722 -0.688401,1.33503 -0.29114,0.69764 -1.277752,0.28591 -0.986613,-0.41173 v 0 c 0.21231,-0.50073 0.469577,-0.98538 0.746366,-1.45296 0.39438,-0.69086 0.763923,-1.40162 1.248238,-2.03537 0.540544,-0.7607 1.093481,-1.50529 1.732817,-2.1876 0.483949,-0.58074 1.305237,0.10367 0.821288,0.68441 z"
       inkscape:connector-curvature="0" />
    <path
       style="opacity:1;fill:#000000;fill-opacity:1;fill-rule:nonzero;stroke:#000000;stroke-width:0.26499999;stroke-linecap:round;stroke-linejoin:round;stroke-miterlimit:4;stroke-dasharray:none;stroke-dashoffset:0;stroke-opacity:1;paint-order:markers fill stroke"
       id="path5049"
       d="m 86.10416,235.33768 c 0.202644,0.40832 0.350488,1.0109 0.805251,1.20536 0.140888,0.0392 0.35732,0.0656 0.379058,-0.1166 0.214824,-0.2352 0.18645,-0.40953 0.173059,-0.70374 -0.06206,-0.27833 -0.238895,-0.48347 -0.405453,-0.70564 -0.18484,-0.17638 -0.399256,-0.4339 -0.678513,-0.34588 -0.141028,0.13088 -0.434197,0.2974 -0.410117,0.51822 -0.200293,0.72894 -1.231165,0.44568 -1.030873,-0.28325 v 0 c 0.234374,-0.68225 0.663694,-1.12294 1.37886,-1.30224 0.737273,-0.001 1.120013,0.23015 1.596533,0.77254 0.295561,0.39562 0.565068,0.79346 0.617681,1.30095 0.02005,0.50176 -0.02503,0.96774 -0.368208,1.36617 -0.496191,0.61479 -1.057002,0.72641 -1.786313,0.42546 -0.702903,-0.44361 -1.012282,-1.07631 -1.298908,-1.83765 -0.207677,-0.72686 0.820266,-1.02056 1.027943,-0.2937 z"
       inkscape:connector-curvature="0" />
    <path
       style="opacity:1;fill:#000000;fill-opacity:1;fill-rule:nonzero;stroke:#000000;stroke-width:0.26499999;stroke-linecap:round;stroke-linejoin:round;stroke-miterlimit:4;stroke-dasharray:none;stroke-dashoffset:0;stroke-opacity:1;paint-order:markers fill stroke"
       id="path5051"
       d="m 90.218026,232.56145 c 0.77443,-0.0385 1.550469,-0.007 2.325246,0.008 0.446876,0.008 0.217553,-0.006 0.687742,0.0454 0.750797,0.0881 0.626165,1.14991 -0.124632,1.06179 v 0 c -0.364466,-0.0466 -0.169995,-0.0313 -0.58397,-0.0383 -0.71755,-0.014 -1.435568,-0.0385 -2.153198,-0.0189 -0.748353,0.1069 -0.899543,-0.95143 -0.151188,-1.05834 z"
       inkscape:connector-curvature="0" />
    <path
       style="opacity:1;fill:#000000;fill-opacity:1;fill-rule:nonzero;stroke:#000000;stroke-width:0.26499999;stroke-linecap:round;stroke-linejoin:round;stroke-miterlimit:4;stroke-dasharray:none;stroke-dashoffset:0;stroke-opacity:1;paint-order:markers fill stroke"
       id="path5055"
       d="m 98.665934,230.71716 c -0.556745,0.005 -1.173343,-0.0789 -1.64778,0.27236 -0.02521,0.128 0.164954,0.28787 0.239334,0.40226 0.249491,0.28209 0.597783,0.43837 0.952653,0.54229 0.02679,0.1509 0.552641,-0.0506 0.574151,0.0216 0.315497,1.05926 0.449575,0.91687 -0.04929,1.14592 -0.316987,0.16233 -0.584743,0.39143 -0.861936,0.61102 -0.26217,0.23333 -0.506971,0.46701 -0.663133,0.78527 -0.13952,0.34722 -0.178782,0.71018 -0.05513,1.06655 0.159599,0.28066 0.386985,0.51706 0.688118,0.6396 0.357579,0.15671 0.668501,0.21818 1.052562,0.20465 0.353727,-0.0375 0.636241,-0.19836 0.933178,-0.37603 0.649049,-0.38755 1.197129,0.53034 0.548089,0.9179 v 0 c -0.45331,0.27018 -0.913246,0.48495 -1.448686,0.52671 -0.545719,0.0147 -1.033981,-0.0879 -1.535358,-0.30357 -0.573728,-0.28184 -1.022546,-0.71672 -1.2665,-1.31785 -0.162187,-0.63305 -0.144449,-1.25491 0.137599,-1.85572 0.241419,-0.44249 0.560451,-0.80481 0.94742,-1.12709 0.349557,-0.27384 0.691452,-0.55703 1.095296,-0.7509 0.03003,-0.0116 0.07597,-0.0638 0.09009,-0.0349 0.145976,0.29942 0.69596,0.9056 0.363802,0.93076 -0.267946,0.0203 -0.263528,0.0454 -0.563771,0.005 -0.101733,-0.0137 -0.200412,-0.0446 -0.300617,-0.0669 -0.595678,-0.18882 -1.153176,-0.4745 -1.537253,-0.98518 -0.436322,-0.68214 -0.584253,-1.27499 0.07856,-1.8788 0.687602,-0.41953 1.434925,-0.48792 2.228599,-0.4439 0.755951,0 0.755951,1.06908 0,1.06908 z"
       inkscape:connector-curvature="0" />
    <path
       style="opacity:1;fill:#000000;fill-opacity:1;fill-rule:nonzero;stroke:#000000;stroke-width:0.26499999;stroke-linecap:round;stroke-linejoin:round;stroke-miterlimit:4;stroke-dasharray:none;stroke-dashoffset:0;stroke-opacity:1;paint-order:markers fill stroke"
       id="path5057"
       d="m 143.52702,229.42996 c 0.60959,0.60958 1.21918,1.21917 1.82876,1.82876 0.56112,0.45448 1.06071,0.9717 1.55427,1.49679 0.47104,0.4992 0.87678,1.05437 1.32523,1.57378 0.49385,0.57234 -0.31558,1.27074 -0.80942,0.69839 v 0 c -0.43826,-0.50824 -0.83646,-1.04993 -1.2948,-1.53998 -0.4862,-0.5173 -0.97938,-1.02417 -1.53123,-1.47303 -0.60959,-0.60959 -1.21917,-1.21917 -1.82876,-1.82876 -0.53454,-0.53454 0.22141,-1.29049 0.75595,-0.75595 z"
       inkscape:connector-curvature="0" />
    <path
       style="opacity:1;fill:#000000;fill-opacity:1;fill-rule:nonzero;stroke:#000000;stroke-width:0.26499999;stroke-linecap:round;stroke-linejoin:round;stroke-miterlimit:4;stroke-dasharray:none;stroke-dashoffset:0;stroke-opacity:1;paint-order:markers fill stroke"
       id="path5059"
       d="m 147.54063,229.11349 c -0.52663,0.77149 -0.99572,1.57783 -1.46022,2.3875 -0.41701,0.77026 -0.81409,1.55005 -1.20819,2.33204 -0.24912,0.60478 -0.60267,1.15814 -0.8792,1.74845 -0.0893,0.25173 -0.051,0.12478 -0.11559,0.38072 -0.19369,0.73072 -1.22708,0.4568 -1.03339,-0.27392 v 0 c 0.10431,-0.38152 0.0434,-0.19315 0.18309,-0.56502 0.28545,-0.59595 0.63337,-1.16073 0.89047,-1.7715 0.40298,-0.79902 0.80857,-1.59606 1.23551,-2.38279 0.48218,-0.84033 0.97002,-1.67679 1.51757,-2.47687 0.43939,-0.61515 1.30934,0.006 0.86995,0.62139 z"
       inkscape:connector-curvature="0" />
    <path
       style="opacity:1;fill:#000000;fill-opacity:1;fill-rule:nonzero;stroke:#000000;stroke-width:0.26499999;stroke-linecap:round;stroke-linejoin:round;stroke-miterlimit:4;stroke-dasharray:none;stroke-dashoffset:0;stroke-opacity:1;paint-order:markers fill stroke"
       id="path5065"
       d="m 150.78339,234.80314 c 0.15521,0.39883 0.37117,0.88674 0.82125,1.01095 0.12177,-0.0697 0.18361,-0.17652 0.27875,-0.31226 0.0989,-0.18288 0.12502,-0.38286 -0.0188,-0.54812 -0.1464,-0.30447 -0.39045,-0.37777 -0.69938,-0.43949 -0.0947,0.023 -0.29128,-0.0214 -0.31764,0.10325 -0.60653,0.45121 -1.24463,-0.40655 -0.63811,-0.85776 v 0 c 0.37738,-0.2421 0.73119,-0.35455 1.18603,-0.28948 0.59748,0.13917 1.11218,0.3946 1.40419,0.96527 0.28785,0.58426 0.30605,1.15717 -0.0673,1.71607 -0.39508,0.49666 -0.85924,0.82377 -1.52425,0.65534 -0.74231,-0.32838 -1.2054,-0.94009 -1.45268,-1.71007 -0.20768,-0.72686 0.82027,-1.02056 1.02794,-0.2937 z"
       inkscape:connector-curvature="0" />
    <path
       style="opacity:1;fill:#000000;fill-opacity:1;fill-rule:nonzero;stroke:#000000;stroke-width:0.26499999;stroke-linecap:round;stroke-linejoin:round;stroke-miterlimit:4;stroke-dasharray:none;stroke-dashoffset:0;stroke-opacity:1;paint-order:markers fill stroke"
       id="path5067"
       d="m 152.95511,232.01014 c 0.76205,-0.2158 1.54348,-0.3444 2.32986,-0.42807 0.41925,-0.0408 0.84034,-0.0529 1.2612,-0.062 0.75578,-0.0162 0.77877,1.05258 0.023,1.06883 v 0 c -0.39099,0.008 -0.78221,0.019 -1.17176,0.0563 -0.72521,0.0762 -1.44575,0.19455 -2.14859,0.39286 -0.72686,0.20768 -1.02056,-0.82027 -0.29369,-1.02794 z"
       inkscape:connector-curvature="0" />
    <path
       style="opacity:1;fill:#000000;fill-opacity:1;fill-rule:nonzero;stroke:#000000;stroke-width:0.26499999;stroke-linecap:round;stroke-linejoin:round;stroke-miterlimit:4;stroke-dasharray:none;stroke-dashoffset:0;stroke-opacity:1;paint-order:markers fill stroke"
       id="path5069"
       d="m 155.04292,230.33082 c 0.12582,0.74078 0.12584,1.49662 0.23705,2.23816 0.0562,0.30828 0.10738,0.61731 0.15491,0.92703 0.11443,0.74724 -0.94232,0.90908 -1.05676,0.16183 v 0 c -0.0478,-0.31259 -0.10032,-0.62429 -0.15618,-0.93555 -0.10476,-0.74361 -0.11939,-1.49754 -0.23735,-2.24028 -0.10691,-0.74836 0.95142,-0.89955 1.05833,-0.15119 z"
       inkscape:connector-curvature="0" />
    <path
       style="opacity:1;fill:#000000;fill-opacity:1;fill-rule:nonzero;stroke:#000000;stroke-width:0.26499999;stroke-linecap:round;stroke-linejoin:round;stroke-miterlimit:4;stroke-dasharray:none;stroke-dashoffset:0;stroke-opacity:1;paint-order:markers fill stroke"
       id="path5071"
       d="m 161.59469,229.29631 c -0.62898,-0.11127 -1.28415,-0.14958 -1.89234,0.0709 -0.18148,0.14455 -0.5066,0.21139 -0.3295,0.45765 0.22036,0.37426 0.57229,0.66439 0.94153,0.88437 0.23591,0.28434 0.7011,0.28829 0.94996,0.54459 0.0822,0.0847 0.14329,0.18763 0.21493,0.28145 0.11179,0.60483 -0.27882,0.80149 -0.57182,1.22799 -0.28668,0.35026 -0.41086,0.7637 -0.48529,1.20126 -0.008,0.28063 0.0669,0.45113 0.31088,0.58379 0.3603,0.17523 0.72475,0.11152 1.10456,0.062 0.41011,-0.10866 0.77876,-0.32022 1.1181,-0.57073 0.17221,-0.11754 0.28672,-0.27263 0.39382,-0.44641 0.41864,-0.62945 1.30881,-0.0374 0.89017,0.59205 v 0 c -0.18875,0.27294 -0.38167,0.53226 -0.66037,0.7227 -0.48922,0.34499 -1.01014,0.64525 -1.60475,0.76266 -0.64377,0.0825 -1.26674,0.10506 -1.84688,-0.24112 -0.5617,-0.41556 -0.83229,-0.94119 -0.7583,-1.65097 0.10741,-0.59159 0.28776,-1.15799 0.66787,-1.63631 0.18181,-0.24913 0.10797,-0.1618 0.28533,-0.36071 0.20668,-0.23179 0.14744,-0.15692 0.19359,0.21786 0.50872,0.48062 -0.67522,-0.36828 -0.76307,-0.38024 -0.61039,-0.38507 -1.17599,-0.8733 -1.4258,-1.57116 -0.0188,-0.13055 -0.0594,-0.2598 -0.0562,-0.39165 0.0159,-0.66457 0.55965,-1.03953 1.09516,-1.30396 0.82435,-0.25801 1.67739,-0.26989 2.52216,-0.084 0.72687,0.20768 0.43317,1.23562 -0.2937,1.02795 z"
       inkscape:connector-curvature="0" />
    <path
       style="opacity:1;fill:#da03ae;fill-opacity:1;fill-rule:nonzero;stroke:#da03ae;stroke-width:0.26499999;stroke-linecap:round;stroke-linejoin:round;stroke-miterlimit:4;stroke-dasharray:none;stroke-dashoffset:0;stroke-opacity:1;paint-order:markers fill stroke"
       id="path5073"
       d="m 96.724024,183.33186 c 0.978051,-0.60405 1.90087,-1.28868 2.848608,-1.93761 0.911008,-0.7064 1.830288,-1.39838 2.776038,-2.05744 0.77776,-0.49705 1.51334,-1.05403 2.26552,-1.58781 0.38904,-0.28912 0.19044,-0.14781 0.59602,-0.42363 0.62567,-0.42427 1.22568,0.46055 0.60002,0.88482 v 0 c -0.37478,0.25332 -0.18183,0.11715 -0.57734,0.41067 -0.75465,0.53553 -1.4927,1.09434 -2.27299,1.59307 -0.94823,0.66077 -1.86822,1.35663 -2.7834,2.06251 -0.960151,0.65704 -1.894972,1.35047 -2.885868,1.96199 -0.641046,0.40066 -1.207656,-0.50592 -0.566608,-0.90657 z"
       inkscape:connector-curvature="0" />
    <path
       style="opacity:1;fill:#da03ae;fill-opacity:1;fill-rule:nonzero;stroke:#da03ae;stroke-width:0.26499999;stroke-linecap:round;stroke-linejoin:round;stroke-miterlimit:4;stroke-dasharray:none;stroke-dashoffset:0;stroke-opacity:1;paint-order:markers fill stroke"
       id="path5075"
       d="m 97.77923,187.89659 c 1.130171,-0.623 2.210988,-1.33318 3.27448,-2.06299 1.38346,-1.02951 2.73083,-2.10744 4.05098,-3.21674 1.2214,-0.94473 2.42473,-1.91287 3.66587,-2.83176 0.56521,-0.40327 1.10305,-0.84229 1.66164,-1.2542 0.6087,-0.44827 1.24265,0.41256 0.63395,0.86083 v 0 c -0.55844,0.41066 -1.09442,0.85081 -1.6596,1.2527 -1.22381,0.90542 -2.40914,1.86093 -3.61416,2.79097 -1.34694,1.13143 -2.72112,2.23162 -4.13399,3.27983 -1.08796,0.74581 -2.193041,1.47232 -3.348757,2.10957 -0.656352,0.37506 -1.186762,-0.55316 -0.530413,-0.92821 z"
       inkscape:connector-curvature="0" />
    <path
       style="opacity:1;fill:#da03ae;fill-opacity:1;fill-rule:nonzero;stroke:#da03ae;stroke-width:0.26499999;stroke-linecap:round;stroke-linejoin:round;stroke-miterlimit:4;stroke-dasharray:none;stroke-dashoffset:0;stroke-opacity:1;paint-order:markers fill stroke"
       id="path5077"
       d="m 100.45193,194.04378 c 1.11582,-0.64866 2.09315,-1.48478 3.06551,-2.32571 1.65179,-1.31863 3.23751,-2.71682 4.87831,-4.04849 1.86418,-1.46626 3.72751,-2.9335 5.58978,-4.40218 1.52199,-1.17685 3.0361,-2.36368 4.56037,-3.53757 0.50385,-0.35202 0.97923,-0.74081 1.44973,-1.13534 0.57947,-0.48547 1.26602,0.33404 0.68654,0.8195 v 0 c -0.48206,0.40349 -0.96843,0.80204 -1.48396,1.16285 -1.52102,1.17138 -3.03189,2.35569 -4.55066,3.53 -1.8584,1.46561 -3.7178,2.92987 -5.57822,4.39293 -1.63254,1.32416 -3.20891,2.71621 -4.85269,4.02703 -1.02478,0.88571 -2.05805,1.76299 -3.2343,2.4452 -0.65635,0.37506 -1.186765,-0.55316 -0.53041,-0.92822 z"
       inkscape:connector-curvature="0" />
    <path
       style="opacity:1;fill:#da03ae;fill-opacity:1;fill-rule:nonzero;stroke:#da03ae;stroke-width:0.26499999;stroke-linecap:round;stroke-linejoin:round;stroke-miterlimit:4;stroke-dasharray:none;stroke-dashoffset:0;stroke-opacity:1;paint-order:markers fill stroke"
       id="path5079"
       d="m 99.473408,201.84876 c 0.937302,-0.91482 1.924142,-1.7791 2.926472,-2.62189 1.94821,-1.66089 3.92951,-3.28208 5.88923,-4.92934 2.51291,-2.12569 5.08519,-4.17948 7.6204,-6.27814 2.24209,-1.83443 4.47117,-3.68264 6.65535,-5.58557 1.40685,-1.19773 2.76887,-2.44268 4.08817,-3.73584 0.54456,-0.54132 0.29327,-0.27729 0.75805,-0.78806 0.50951,-0.55846 1.29928,0.16209 0.78978,0.72054 v 0 c -0.50294,0.54996 -0.23725,0.27217 -0.7995,0.83103 -1.33432,1.30769 -2.71162,2.56695 -4.13422,3.7784 -2.19097,1.90884 -4.42685,3.76295 -6.67593,5.60304 -2.5332,2.09687 -5.10325,4.14913 -7.61421,6.27298 -1.95971,1.64725 -3.941,3.26845 -5.88921,4.92932 -0.979,0.82271 -1.94275,1.66664 -2.85843,2.55949 -0.534541,0.53453 -1.290493,-0.22142 -0.755952,-0.75596 z"
       inkscape:connector-curvature="0" />
    <path
       style="opacity:1;fill:#da03ae;fill-opacity:1;fill-rule:nonzero;stroke:#da03ae;stroke-width:0.26499999;stroke-linecap:round;stroke-linejoin:round;stroke-miterlimit:4;stroke-dasharray:none;stroke-dashoffset:0;stroke-opacity:1;paint-order:markers fill stroke"
       id="path5093"
       d="m 99.708238,207.9278 c 1.332702,-0.77008 2.618822,-1.61748 3.864292,-2.5209 2.19308,-1.62318 4.31955,-3.33107 6.4137,-5.07908 2.92613,-2.38771 5.85718,-4.76937 8.78131,-7.15956 2.77894,-2.29139 5.61015,-4.51854 8.36502,-6.83896 1.81751,-1.56744 3.70182,-3.06039 5.46215,-4.69289 0.74948,-0.80895 1.66764,-1.50084 2.28442,-2.42535 0.0146,-0.037 0.0292,-0.074 0.0438,-0.11102 0.31936,-0.68518 1.28835,-0.23355 0.969,0.45164 v 0 c -0.0435,0.0877 -0.087,0.17538 -0.13052,0.26306 -0.68181,0.97907 -1.61284,1.75493 -2.44006,2.6058 -1.77388,1.6428 -3.66849,3.14942 -5.50014,4.72645 -2.75901,2.32363 -5.59392,4.55454 -8.37712,6.84901 -2.92129,2.38787 -5.84946,4.76728 -8.77284,7.15256 -2.11291,1.76356 -4.2585,3.48661 -6.4714,5.12399 -1.29323,0.93646 -2.62698,1.81827 -4.01354,2.61147 -0.676149,0.33807 -1.154254,-0.61815 -0.478112,-0.95622 z"
       inkscape:connector-curvature="0" />
    <path
       style="opacity:1;fill:#da03ae;fill-opacity:1;fill-rule:nonzero;stroke:#da03ae;stroke-width:0.26499999;stroke-linecap:round;stroke-linejoin:round;stroke-miterlimit:4;stroke-dasharray:none;stroke-dashoffset:0;stroke-opacity:1;paint-order:markers fill stroke"
       id="path5099"
       d="m 100.50657,214.09376 c 1.16735,-0.62573 2.18787,-1.49319 3.22914,-2.30432 1.94224,-1.6215 3.90019,-3.22355 5.86949,-4.81205 2.59622,-2.04903 5.11989,-4.1869 7.66499,-6.29846 2.56384,-2.13433 5.18756,-4.19521 7.80707,-6.26048 2.05419,-1.62911 4.13381,-3.22742 6.15701,-4.89514 1.4639,-1.1759 2.86592,-2.42488 4.2881,-3.65004 0.86458,-0.74123 1.71402,-1.50243 2.4893,-2.33757 0.27461,-0.31152 0.16186,-0.16292 0.35007,-0.43662 0.43699,-0.61685 1.30935,0.001 0.87236,0.618 v 0 c -0.26675,0.36932 -0.12106,0.1861 -0.44009,0.54723 -0.80451,0.86139 -1.67745,1.65428 -2.57388,2.41893 -1.42807,1.23023 -2.83598,2.48427 -4.30592,3.66506 -2.02939,1.67236 -4.11457,3.27605 -6.17505,4.90968 -2.61254,2.05976 -5.22933,4.11508 -7.78635,6.24373 -2.54889,2.11469 -5.07635,4.25567 -7.6764,6.30779 -1.97404,1.59232 -3.93627,3.19871 -5.88378,4.82338 -1.11318,0.86691 -2.20461,1.7956 -3.46493,2.44352 -0.69483,0.29778 -1.115964,-0.68486 -0.42113,-0.98264 z"
       inkscape:connector-curvature="0" />
    <path
       style="opacity:1;fill:#da03ae;fill-opacity:1;fill-rule:nonzero;stroke:#da03ae;stroke-width:0.26499999;stroke-linecap:round;stroke-linejoin:round;stroke-miterlimit:4;stroke-dasharray:none;stroke-dashoffset:0;stroke-opacity:1;paint-order:markers fill stroke"
       id="path5123"
       d="m 103.28292,218.65408 c 0.83884,-0.67402 1.66293,-1.36519 2.48746,-2.05679 1.34341,-1.15894 2.75278,-2.2369 4.1783,-3.2919 2.33167,-1.7078 4.64315,-3.44234 6.98391,-5.1377 2.36236,-1.7359 4.68936,-3.51654 6.9976,-5.32349 2.01072,-1.57842 3.95388,-3.23874 5.88527,-4.9124 1.56191,-1.33792 3.1222,-2.67809 4.66866,-4.03389 1.08429,-0.96121 2.16325,-1.92809 3.24517,-2.89208 0.67114,-0.53923 1.31792,-1.10787 1.92913,-1.71414 0.28624,-0.2583 0.15903,-0.13425 0.38575,-0.36787 0.52907,-0.53994 1.29267,0.20829 0.76359,0.74824 v 0 c -0.26446,0.2679 -0.13137,0.14156 -0.39809,0.38025 -0.62659,0.61662 -1.28162,1.20342 -1.96918,1.75173 -1.08408,0.96589 -2.16524,1.9346 -3.25162,2.89777 -1.54806,1.35708 -3.1098,2.69872 -4.6733,4.03793 -1.94485,1.68524 -3.90164,3.35696 -5.92639,4.94628 -2.31872,1.81515 -4.65638,3.60375 -7.02949,5.34751 -2.33781,1.6932 -4.64631,3.42562 -6.97506,5.13122 -1.40818,1.04202 -2.80045,2.10664 -4.12725,3.25167 -0.82546,0.69223 -1.65053,1.38401 -2.49005,2.05895 -0.58074,0.48394 -1.26515,-0.33735 -0.68441,-0.82129 z"
       inkscape:connector-curvature="0" />
    <path
       style="opacity:1;fill:#da03ae;fill-opacity:1;fill-rule:nonzero;stroke:#da03ae;stroke-width:0.26499999;stroke-linecap:round;stroke-linejoin:round;stroke-miterlimit:4;stroke-dasharray:none;stroke-dashoffset:0;stroke-opacity:1;paint-order:markers fill stroke"
       id="path5125"
       d="m 110.60817,220.50347 c 1.031,-0.6092 1.99262,-1.34282 2.93895,-2.07667 1.59381,-1.26818 3.16902,-2.55908 4.77164,-3.81649 2.12021,-1.65257 4.27409,-3.26158 6.38315,-4.92837 2.16419,-1.69749 4.24011,-3.50195 6.3141,-5.30711 1.69737,-1.47404 3.37132,-2.97439 5.03062,-4.49118 1.05643,-1.04658 2.21457,-1.98479 3.28288,-3.01768 0.34568,-0.34455 0.66508,-0.71718 0.96349,-1.10329 0.46414,-0.59669 1.30798,0.0597 0.84384,0.65639 v 0 c -0.33179,0.42429 -0.6811,0.83783 -1.06494,1.21618 -1.07719,1.03773 -2.23882,1.98598 -3.30397,3.03748 -1.66573,1.52261 -3.34616,3.02874 -5.05004,4.5085 -2.08675,1.81627 -4.17566,3.63155 -6.35315,5.33951 -2.1102,1.66735 -4.26463,3.27765 -6.38607,4.93067 -1.60434,1.2587 -3.18098,2.55125 -4.77673,3.82045 -0.98629,0.7637 -1.98843,1.52656 -3.06336,2.15983 -0.65635,0.37505 -1.18676,-0.55317 -0.53041,-0.92822 z"
       inkscape:connector-curvature="0" />
    <path
       style="opacity:1;fill:#da03ae;fill-opacity:1;fill-rule:nonzero;stroke:#da03ae;stroke-width:0.26499999;stroke-linecap:round;stroke-linejoin:round;stroke-miterlimit:4;stroke-dasharray:none;stroke-dashoffset:0;stroke-opacity:1;paint-order:markers fill stroke"
       id="path5131"
       d="m 120.98619,221.30244 c 1.06092,-0.77352 2.05828,-1.62713 3.06487,-2.46873 1.55022,-1.24763 3.07714,-2.52383 4.62966,-3.76858 1.68412,-1.40887 3.44179,-2.72516 5.14778,-4.10663 1.4754,-1.16406 2.84913,-2.44892 4.26453,-3.68347 0.92479,-0.80626 1.72075,-1.74341 2.53776,-2.65491 0.21128,-0.23145 0.38737,-0.47896 0.51097,-0.76559 0.32146,-0.6842 1.28906,-0.22959 0.9676,0.45461 v 0 c -0.18341,0.37312 -0.39288,0.72058 -0.68248,1.02454 -0.84623,0.9441 -1.67221,1.91316 -2.63119,2.74709 -1.42543,1.24285 -2.80852,2.53681 -4.29445,3.70861 -1.70749,1.38236 -3.46617,2.70013 -5.15181,4.10987 -1.54688,1.24005 -3.06796,2.51181 -4.61264,3.75464 -1.02739,0.85897 -2.04593,1.72958 -3.12921,2.5185 -0.61514,0.43939 -1.23653,-0.43056 -0.62139,-0.86995 z"
       inkscape:connector-curvature="0" />
    <path
       style="opacity:1;fill:#da03ae;fill-opacity:1;fill-rule:nonzero;stroke:#da03ae;stroke-width:0.26499999;stroke-linecap:round;stroke-linejoin:round;stroke-miterlimit:4;stroke-dasharray:none;stroke-dashoffset:0;stroke-opacity:1;paint-order:markers fill stroke"
       id="path5133"
       d="m 130.2094,222.16125 c 0.80299,-0.73106 1.6439,-1.41794 2.46738,-2.12534 1.10651,-0.8955 2.17301,-1.83831 3.25019,-2.76845 1.11907,-0.97942 2.20408,-1.99643 3.30516,-2.99569 0.77241,-0.66191 1.49024,-1.38579 2.26422,-2.04526 0.38648,-0.31078 0.75644,-0.64142 1.09406,-1.00481 0.51547,-0.55295 1.29746,0.17603 0.78199,0.72898 v 0 c -0.36696,0.39252 -0.76504,0.75408 -1.18397,1.09066 -0.76719,0.64924 -1.47213,1.37057 -2.23791,2.02216 -1.10776,1.00495 -2.19881,2.02835 -3.32485,3.01312 -1.07789,0.93074 -2.14502,1.87425 -3.25231,2.77027 -0.80312,0.68975 -1.62216,1.36058 -2.40801,2.07031 -0.53453,0.53454 -1.29049,-0.22141 -0.75595,-0.75595 z"
       inkscape:connector-curvature="0" />
    <path
       style="opacity:1;fill:#da03ae;fill-opacity:1;fill-rule:nonzero;stroke:#da03ae;stroke-width:0.26499999;stroke-linecap:round;stroke-linejoin:round;stroke-miterlimit:4;stroke-dasharray:none;stroke-dashoffset:0;stroke-opacity:1;paint-order:markers fill stroke"
       id="path5135"
       d="m 138.6082,221.32462 c 0.72922,-0.49149 1.39677,-1.06391 2.04867,-1.65188 0.6775,-0.61337 1.25954,-1.3223 1.87025,-2.00023 0.39663,-0.38888 0.70826,-0.84418 0.97259,-1.32969 0.36467,-0.66218 1.30113,-0.14646 0.93646,0.51572 v 0 c -0.30802,0.55433 -0.66099,1.08172 -1.11477,1.52954 -0.6355,0.70538 -1.24192,1.44218 -1.94867,2.07868 -0.6907,0.62246 -1.39876,1.22751 -2.17152,1.74739 -0.62899,0.41933 -1.22201,-0.4702 -0.59301,-0.88953 z"
       inkscape:connector-curvature="0" />
    <path
       style="opacity:1;fill:#000000;fill-opacity:1;fill-rule:nonzero;stroke:#000000;stroke-width:0.26499999;stroke-linecap:round;stroke-linejoin:round;stroke-miterlimit:4;stroke-dasharray:none;stroke-dashoffset:0;stroke-opacity:1;paint-order:markers fill stroke"
       id="path5173"
       d="m 151.85822,138.50589 c 0.4399,-0.43287 0.6702,-0.93007 0.75455,-1.5306 -5.3e-4,-0.41482 -0.19925,-0.74428 -0.55059,-0.95129 -0.30687,-0.15706 -0.53078,0.0113 -0.73908,0.23813 -0.27723,0.53629 -0.27673,1.15972 -0.30526,1.7489 0.009,0.98794 0.21396,1.95522 0.426,2.91529 0.22026,0.90907 0.48826,1.80402 0.77507,2.6939 0.22883,0.64195 0.53369,1.25046 0.73341,1.9026 0.0969,0.41563 0.0639,0.20314 0.0969,0.6378 0.0387,0.75496 -1.02899,0.80968 -1.06768,0.0547 v 0 c 0.001,-0.22659 0.0112,-0.0981 -0.0525,-0.38298 -0.19265,-0.64709 -0.51426,-1.24373 -0.72766,-1.88419 -0.29713,-0.92191 -0.574,-1.84942 -0.80147,-2.79137 -0.23234,-1.05272 -0.4518,-2.11481 -0.44984,-3.19842 0.0433,-0.86316 0.0758,-1.75693 0.63181,-2.46663 0.60564,-0.55164 1.31776,-0.79155 2.07699,-0.35482 0.67595,0.48146 1.06511,1.14592 1.01101,1.99797 -0.13044,0.82311 -0.45506,1.53318 -1.05569,2.12694 -0.53454,0.53454 -1.29049,-0.22142 -0.75596,-0.75595 z"
       inkscape:connector-curvature="0" />
    <path
       style="opacity:1;fill:#000000;fill-opacity:1;fill-rule:nonzero;stroke:#000000;stroke-width:0.26499999;stroke-linecap:round;stroke-linejoin:round;stroke-miterlimit:4;stroke-dasharray:none;stroke-dashoffset:0;stroke-opacity:1;paint-order:markers fill stroke"
       id="path5175"
       d="m 147.81326,142.19825 c 0.86953,-0.37017 1.79978,-0.54155 2.73249,-0.65506 0.88859,-0.0921 1.78304,-0.0951 2.67541,-0.0994 0.66722,-0.001 1.33444,0.002 2.00166,0.004 0.75595,0.002 0.75321,1.07101 -0.003,1.06907 v 0 c -0.66462,-0.002 -1.32924,-0.005 -1.99386,-0.004 -0.85131,0.004 -1.70462,0.006 -2.5525,0.0917 -0.83204,0.0993 -1.66302,0.24798 -2.43933,0.57631 -0.69483,0.29778 -1.11596,-0.68485 -0.42113,-0.98264 z"
       inkscape:connector-curvature="0" />
    <path
       style="opacity:1;fill:#000000;fill-opacity:1;fill-rule:nonzero;stroke:#000000;stroke-width:0.26499999;stroke-linecap:round;stroke-linejoin:round;stroke-miterlimit:4;stroke-dasharray:none;stroke-dashoffset:0;stroke-opacity:1;paint-order:markers fill stroke"
       id="path5203"
       d="m 160.22258,136.27084 c -0.45658,0.87345 -0.73875,1.81314 -1.00423,2.75716 -0.29931,0.95083 -0.35036,1.91831 -0.31243,2.9045 0.0671,0.73209 0.2202,1.45308 0.54129,2.11641 0.25786,0.4554 0.51999,0.90759 0.97146,1.1916 0.22567,0.0983 0.10922,0.0557 0.34963,0.12699 0.71936,0.23235 0.39075,1.24968 -0.3286,1.01732 v 0 c -0.42,-0.14214 -0.21364,-0.0568 -0.61843,-0.25772 -0.59659,-0.417 -1.00821,-0.9754 -1.34028,-1.62063 -0.37233,-0.79931 -0.57662,-1.6534 -0.64338,-2.53355 -0.0409,-1.09697 0.0235,-2.17697 0.35159,-3.23437 0.27808,-0.98866 0.57551,-1.97296 1.05074,-2.88884 0.29778,-0.69483 1.28042,-0.2737 0.98264,0.42113 z"
       inkscape:connector-curvature="0" />
    <path
       style="opacity:1;fill:#000000;fill-opacity:1;fill-rule:nonzero;stroke:#000000;stroke-width:0.26499999;stroke-linecap:round;stroke-linejoin:round;stroke-miterlimit:4;stroke-dasharray:none;stroke-dashoffset:0;stroke-opacity:1;paint-order:markers fill stroke"
       id="path5205"
       d="m 162.72092,138.19229 c 0.6573,0.47447 1.26379,1.01728 1.88634,1.5369 0.42536,0.42638 0.87162,0.82814 1.38493,1.14521 0.21524,0.15271 0.45058,0.26484 0.69217,0.36732 0.69347,0.30094 0.26787,1.28165 -0.4256,0.98071 v 0 c -0.28888,-0.12741 -0.57432,-0.26001 -0.83422,-0.44211 -0.55002,-0.34834 -1.04883,-0.7626 -1.50236,-1.2304 -0.59314,-0.49516 -1.17147,-1.0117 -1.79427,-1.4681 -0.62899,-0.41933 -0.036,-1.30885 0.59301,-0.88953 z"
       inkscape:connector-curvature="0" />
    <path
       style="opacity:1;fill:#000000;fill-opacity:1;fill-rule:nonzero;stroke:#000000;stroke-width:0.26499999;stroke-linecap:round;stroke-linejoin:round;stroke-miterlimit:4;stroke-dasharray:none;stroke-dashoffset:0;stroke-opacity:1;paint-order:markers fill stroke"
       id="path5207"
       d="m 165.65795,137.97792 c -0.60946,0.55089 -0.98185,1.27277 -1.33525,1.99937 -0.26079,0.65274 -0.43624,1.33962 -0.59846,2.02314 -0.17524,0.73536 -1.2152,0.48752 -1.03995,-0.24784 v 0 c 0.18153,-0.75891 0.37553,-1.52224 0.67707,-2.24302 0.40547,-0.83312 0.84786,-1.6523 1.54064,-2.2876 0.53454,-0.53454 1.29049,0.22141 0.75595,0.75595 z"
       inkscape:connector-curvature="0" />
    <path
       style="opacity:1;fill:#000000;fill-opacity:1;fill-rule:nonzero;stroke:#000000;stroke-width:0.26499999;stroke-linecap:round;stroke-linejoin:round;stroke-miterlimit:4;stroke-dasharray:none;stroke-dashoffset:0;stroke-opacity:1;paint-order:markers fill stroke"
       id="path5209"
       d="m 167.88051,134.04671 c 0.75548,0.80554 1.2263,1.77834 1.62169,2.79598 0.36613,1.01976 0.4324,2.10196 0.4737,3.17432 0.06,0.97776 -0.10539,1.94187 -0.35009,2.88399 -0.21477,0.68253 -0.54296,1.32225 -0.91672,1.92984 -0.39773,0.64286 -1.30687,0.0804 -0.90914,-0.56248 v 0 c 0.32108,-0.51538 0.59956,-1.06072 0.79162,-1.63803 0.22169,-0.83979 0.37056,-1.70017 0.31603,-2.57254 -0.0361,-0.95408 -0.0847,-1.91922 -0.4024,-2.8292 -0.3394,-0.8806 -0.73306,-1.72373 -1.38064,-2.42593 -0.53454,-0.53454 0.22141,-1.29049 0.75595,-0.75595 z"
       inkscape:connector-curvature="0" />
    <path
       style="opacity:1;fill:#000000;fill-opacity:1;fill-rule:nonzero;stroke:#000000;stroke-width:0.26499999;stroke-linecap:round;stroke-linejoin:round;stroke-miterlimit:4;stroke-dasharray:none;stroke-dashoffset:0;stroke-opacity:1;paint-order:markers fill stroke"
       id="path4619"
       d="m 44.810675,228.90157 c -0.295455,0.1148 -0.665975,0.28826 -0.743508,0.62799 -0.06084,0.33319 0.07804,0.64261 0.205068,0.94421 0.234045,0.45155 0.53908,0.86232 0.856697,1.25794 0.37706,0.36713 0.818769,0.6489 1.267454,0.91799 0.409038,0.22857 0.859618,0.31515 1.319813,0.35875 0.419026,0.0491 0.812962,-0.0549 1.186527,-0.23689 0.485434,-0.2577 0.896128,-0.604 1.262099,-1.01007 0.412946,-0.48163 0.717447,-1.03017 0.92415,-1.62778 0.190522,-0.49254 0.260083,-1.02466 0.152075,-1.5429 -0.14741,-0.54848 -0.523528,-0.97139 -0.929328,-1.35032 -0.515035,-0.44219 -1.136846,-0.71697 -1.789787,-0.88046 -0.596818,-0.13077 -1.202865,-0.13003 -1.790748,0.0348 -0.328977,0.1329 -0.690268,0.24374 -0.84429,0.58796 7.93e-4,0.076 0.08528,0.14469 0.132611,0.21001 0.293204,0.44694 -0.338878,0.8616 -0.632081,0.41465 v 0 c -0.195874,-0.31372 -0.32199,-0.612 -0.168572,-0.97847 0.307354,-0.54292 0.737696,-0.76486 1.315678,-0.96408 0.717002,-0.18736 1.44888,-0.20518 2.174484,-0.0373 0.776136,0.20146 1.513035,0.52902 2.121529,1.0631 0.51884,0.49383 0.981237,1.04598 1.153152,1.75892 0.116256,0.65331 0.06253,1.31304 -0.181583,1.93489 -0.246126,0.6906 -0.594069,1.32981 -1.077825,1.88539 -0.435227,0.47568 -0.921473,0.8864 -1.497442,1.18461 -0.500895,0.23322 -1.026165,0.37049 -1.583586,0.30638 -0.57191,-0.0565 -1.130176,-0.17491 -1.635713,-0.4629 -0.524954,-0.3149 -1.040982,-0.6494 -1.468461,-1.09346 -0.361328,-0.4514 -0.708387,-0.92078 -0.965054,-1.44096 -0.199062,-0.48518 -0.368068,-0.97618 -0.213988,-1.5013 0.253879,-0.59034 0.6407,-0.87832 1.242952,-1.08756 0.513972,-0.14685 0.721648,0.58002 0.207677,0.72687 z"
       inkscape:connector-curvature="0" />
  </g>
</svg>
